<?xml version="1.0" standalone="no"?>
<!DOCTYPE svg PUBLIC "-//W3C//DTD SVG 1.1//EN" "http://www.w3.org/Graphics/SVG/1.1/DTD/svg11.dtd" >
<svg xmlns="http://www.w3.org/2000/svg" xmlns:xlink="http://www.w3.org/1999/xlink" version="1.1">
<metadata>
Created by FontForge 20170731 at Fri May  5 14:06:22 2017
 By Aleksey,,,
Copyright Type Network; all rights reserved. Any use or distribution beyond original license prohibited.
</metadata>
<defs>
<font id="FormaDJRDeck-Medium" horiz-adv-x="1081" >
  <font-face 
    font-family="TN web use only Med"
    font-weight="500"
    font-stretch="normal"
    units-per-em="2048"
    panose-1="0 0 0 0 0 0 0 9 0 0"
    ascent="1536"
    descent="-512"
    x-height="1055"
    cap-height="1434"
    bbox="-353.5 -512 2372 2001"
    underline-thickness="0"
    underline-position="0"
    unicode-range="U+000D-FEFF"
  />
<missing-glyph horiz-adv-x="1024" 
d="M102 -512v2048h820v-2048h-820zM204 -410h616v1844h-616v-1844z" />
    <glyph glyph-name=".notdef" horiz-adv-x="1024" 
d="M102 -512v2048h820v-2048h-820zM204 -410h616v1844h-616v-1844z" />
    <glyph glyph-name=".null" horiz-adv-x="0" 
 />
    <glyph glyph-name=".null" horiz-adv-x="0" 
 />
    <glyph glyph-name="nonmarkingreturn" unicode="&#xd;" horiz-adv-x="512" 
 />
    <glyph glyph-name="space" unicode=" " horiz-adv-x="381" 
 />
    <glyph glyph-name="space" unicode="&#xa0;" horiz-adv-x="381" 
 />
    <glyph glyph-name="exclam" unicode="!" horiz-adv-x="410" 
d="M102 408q-8 0 -14 6t-6 14v985q0 8 6 15q6 6 14 6h205q8 0 15 -6q6 -7 6 -15v-985q0 -8 -6 -14q-7 -6 -15 -6h-205zM98 0q-8 0 -14 6t-6 14v220q0 8 6 14t14 6h213q8 0 15 -6q6 -6 6 -14v-220q0 -8 -6 -14q-7 -6 -15 -6h-213z" />
    <glyph glyph-name="quotedbl" unicode="&#x22;" horiz-adv-x="692" 
d="M435 952q-7 0 -14 7t-8 14l-29 440q-1 7 5 14t13 7h197q7 0 13 -7t5 -14l-28 -440q-1 -7 -8 -14q-8 -7 -15 -7h-131zM126 952q-7 0 -14 7q-8 7 -9 14l-28 440q-1 7 5 14t13 7h197q7 0 13 -7t5 -14l-28 -440q-2 -7 -9 -14t-14 -7h-131z" />
    <glyph glyph-name="numbersign" unicode="#" horiz-adv-x="1376" 
d="M783 496l64 450h-246l-63 -450h245zM732 0q-7 0 -13 7q-6 6 -5 13l41 287h-246l-40 -287q-1 -8 -8 -14t-16 -6h-190q-8 0 -13 7q-6 6 -5 13l40 287h-249q-8 0 -13 7q-6 6 -5 13l25 148q1 9 8 15t15 6h248l64 450h-246q-8 0 -13 7q-6 6 -5 13l19 148q1 9 8 15t15 6h248
l40 278q1 9 8 15t16 6h190q8 0 14 -6q5 -7 4 -15l-40 -278h245l41 278q1 9 8 15t15 6h188q8 0 14 -6q5 -7 4 -15l-40 -278h248q7 0 13 -6q5 -7 4 -15l-19 -148q-1 -8 -8 -14t-15 -6h-250l-63 -450h248q7 0 13 -6q5 -7 4 -15l-24 -148q-1 -8 -8 -14q-8 -6 -16 -6h-246
l-40 -287q-1 -8 -8 -14t-15 -6h-189z" />
    <glyph glyph-name="dollar" unicode="$" horiz-adv-x="1219" 
d="M729 -184q0 -8 -6 -15q-6 -6 -14 -6h-209q-8 0 -14 6q-7 7 -7 15v168q-184 33 -292 154q-109 120 -117 329q0 8 6 14t14 6h221q8 0 15 -6t8 -14q6 -68 24 -123q18 -56 53 -94q34 -38 89 -59q54 -21 133 -21q122 0 194 52t72 171q0 134 -125 171q-126 36 -275 69
q-150 32 -275 110q-126 78 -126 293q0 173 100 283q100 109 275 135v123q0 8 7 14q6 6 14 6h208q8 0 15 -6q6 -6 6 -14v-125q163 -28 264 -131q101 -104 125 -291q1 -7 -5 -13q-6 -7 -13 -7h-223q-9 0 -15 6t-7 14q-10 113 -78 173q-68 59 -193 59q-51 0 -93 -12
q-43 -12 -74 -36q-31 -25 -48 -63t-17 -90q0 -125 126 -158t276 -65q149 -33 275 -112q126 -80 126 -298q0 -99 -30 -178t-84 -135q-54 -57 -132 -91q-78 -35 -174 -47v-161z" />
    <glyph glyph-name="percent" unicode="%" horiz-adv-x="1657" 
d="M760 1090q0 -88 -25 -155q-26 -67 -72 -112q-47 -45 -112 -67q-66 -23 -145 -23t-145 23q-66 22 -112 67q-47 45 -72 112q-26 67 -26 155q0 87 25 155t72 115q46 46 112 70q65 24 146 24q80 0 146 -24t112 -70q46 -47 71 -115t25 -155zM236 0q-7 0 -10 6t1 11l990 1400
q5 7 14 12t18 5h168q7 0 10 -6t-1 -11l-988 -1400q-5 -7 -14 -12t-18 -5h-170zM262 1090q0 -103 38 -153q37 -50 106 -50t105 49q36 48 36 154q0 108 -38 159t-106 51q-66 0 -103 -51q-38 -51 -38 -159zM1606 344q0 -87 -25 -155q-26 -68 -72 -114q-46 -47 -112 -71
t-146 -24q-79 0 -144 25q-66 24 -112 70t-71 115q-25 68 -25 156q0 87 25 154t71 111t112 67q65 22 144 22q80 0 146 -22q66 -23 112 -67t72 -111q25 -67 25 -156zM1110 344q0 -108 38 -159q38 -52 105 -52q66 0 104 52q38 51 38 159q0 102 -37 153q-38 50 -107 50t-105 -49
q-36 -50 -36 -154z" />
    <glyph glyph-name="ampersand" unicode="&#x26;" horiz-adv-x="1380" 
d="M627 1317q-75 0 -119 -40q-45 -41 -45 -122q0 -47 28 -97t91 -126q46 24 86 49q40 24 69 52q29 27 46 59q16 32 16 69q0 74 -46 115q-47 41 -126 41zM287 397q0 -62 21 -108q20 -46 57 -76t89 -44q52 -15 115 -15q83 0 155 31t130 85l-279 332q-19 23 -39 46
q-21 22 -40 44q-44 -28 -82 -58q-38 -31 -66 -66q-28 -36 -44 -78q-17 -43 -17 -93zM1100 0q-10 0 -19 5q-9 4 -15 11l-91 109q-86 -70 -193 -110q-108 -40 -233 -40q-99 0 -190 26q-92 26 -162 78q-70 51 -112 128t-42 178q0 84 28 151q28 66 75 119q46 53 107 95t126 77
q-64 80 -107 163q-43 82 -43 169q0 64 27 121q26 57 77 99q50 42 125 67q74 24 169 24q79 0 148 -20q69 -21 120 -60q51 -40 81 -97q29 -58 30 -132q0 -66 -26 -118t-69 -95q-44 -43 -101 -78q-57 -36 -118 -69q37 -42 79 -91q42 -50 91 -108l119 -141q24 57 40 122t22 136
q1 8 8 14q6 6 14 6h187q7 0 13 -6q6 -7 5 -14q-13 -119 -49 -227q-36 -109 -95 -199l235 -277q4 -5 2 -10q-3 -6 -9 -6h-254z" />
    <glyph glyph-name="quotesingle" unicode="'" horiz-adv-x="383" 
d="M126 952q-8 0 -14 7q-7 6 -8 14l-30 440q-1 8 5 15q6 6 14 6h197q8 0 14 -6q6 -7 5 -15l-30 -440q-1 -8 -7 -14q-7 -7 -15 -7h-131z" />
    <glyph glyph-name="parenleft" unicode="(" horiz-adv-x="500" 
d="M283 -287q-9 0 -17 5q-9 6 -13 14q-99 199 -155 415q-57 215 -57 467t58 467t152 396q4 8 12 13t17 5h154q7 0 11 -6t1 -13q-88 -195 -138 -411q-50 -217 -50 -451t50 -456t140 -426q3 -7 -1 -13t-11 -6h-153z" />
    <glyph glyph-name="parenright" unicode=")" horiz-adv-x="500" 
d="M64 -287q-7 0 -11 6t-1 13q91 204 141 426t50 456t-50 451q-51 216 -138 411q-4 7 1 13q4 6 11 6h153q9 0 18 -5q8 -5 12 -13q94 -181 152 -396t58 -467t-56 -467q-57 -216 -156 -415q-4 -8 -12 -14q-9 -5 -18 -5h-154z" />
    <glyph glyph-name="asterisk" unicode="*" horiz-adv-x="713" 
d="M621 981q-4 -7 -11 -9q-8 -3 -15 1l-173 102l7 -192q1 -8 -5 -14q-7 -7 -14 -7h-113q-8 0 -14 7q-6 6 -6 14l8 194l-167 -106q-7 -4 -15 -2q-9 2 -13 9l-57 98q-4 7 -1 15q2 8 9 12l168 89l-170 83q-7 4 -10 13q-3 8 0 15l52 108q4 7 12 10q8 2 15 -2l175 -102l-8 199
q0 7 6 14q6 6 14 6h108q8 0 15 -6q6 -7 5 -14l-5 -199l175 112q7 4 15 2t12 -9l54 -101q4 -7 2 -15q-3 -9 -10 -13l-172 -93l166 -83q7 -4 10 -12q3 -9 -1 -16z" />
    <glyph glyph-name="plus" unicode="+" 
d="M1012 629q0 -8 -6 -14q-7 -7 -15 -7h-354v-395q0 -8 -6 -14q-7 -6 -15 -6h-151q-8 0 -14 6q-7 6 -7 14v395h-354q-8 0 -14 7q-6 6 -6 14v153q0 8 6 15q6 6 14 6h354v397q0 8 7 15q6 6 14 6h151q8 0 15 -6q6 -7 6 -15v-397h354q8 0 15 -6q6 -7 6 -15v-153z" />
    <glyph glyph-name="comma" unicode="," horiz-adv-x="365" 
d="M33 -223q-7 0 -12 6q-5 7 -3 14l56 209v232q0 8 6 14t14 6h201q8 0 14 -6t6 -14v-209q0 -10 -3 -20t-8 -18l-139 -197q-5 -8 -14 -13q-9 -4 -18 -4h-100z" />
    <glyph glyph-name="hyphen" unicode="-" horiz-adv-x="553" 
d="M45 502q-8 0 -14 6t-6 14v144q0 8 6 14t14 6h461q8 0 14 -6t6 -14v-144q0 -8 -6 -14t-14 -6h-461z" />
    <glyph glyph-name="hyphen" unicode="&#x2011;" horiz-adv-x="553" 
d="M45 502q-8 0 -14 6t-6 14v144q0 8 6 14t14 6h461q8 0 14 -6t6 -14v-144q0 -8 -6 -14t-14 -6h-461z" />
    <glyph glyph-name="hyphen" unicode="&#x2010;" horiz-adv-x="553" 
d="M45 502q-8 0 -14 6t-6 14v144q0 8 6 14t14 6h461q8 0 14 -6t6 -14v-144q0 -8 -6 -14t-14 -6h-461z" />
    <glyph glyph-name="hyphen" unicode="&#xad;" horiz-adv-x="553" 
d="M45 502q-8 0 -14 6t-6 14v144q0 8 6 14t14 6h461q8 0 14 -6t6 -14v-144q0 -8 -6 -14t-14 -6h-461z" />
    <glyph glyph-name="period" unicode="." horiz-adv-x="365" 
d="M72 0q-8 0 -14 6q-7 6 -7 14v218q0 8 7 14q6 6 14 6h223q8 0 14 -6t6 -14v-218q0 -8 -6 -14t-14 -6h-223z" />
    <glyph glyph-name="slash" unicode="/" horiz-adv-x="696" 
d="M59 -293q-7 0 -12 6q-5 7 -3 14l424 1742q2 8 10 14q7 6 16 6h143q7 0 12 -6q5 -7 4 -14l-425 -1742q-2 -8 -9 -14q-8 -6 -16 -6h-144z" />
    <glyph glyph-name="zero" unicode="0" horiz-adv-x="1184" 
d="M1135 713q0 -177 -39 -316t-109 -233q-71 -94 -172 -143q-101 -50 -223 -50t-223 50q-101 49 -171 144q-71 94 -110 234q-39 139 -39 316q0 182 39 323q38 140 109 234q70 94 171 142t224 48q122 0 223 -47q101 -48 172 -141q70 -94 109 -235t39 -326zM307 713
q0 -274 76 -405q76 -132 209 -132q134 0 210 131q75 131 75 406q0 276 -75 410q-76 134 -210 134q-137 0 -211 -132q-74 -133 -74 -412z" />
    <glyph glyph-name="one" unicode="1" horiz-adv-x="719" 
d="M362 0q-7 0 -13 7q-7 6 -7 13l6 627l-4 496q-57 -55 -131 -94q-74 -40 -157 -66q-7 -2 -13 3q-6 4 -6 11v162q0 9 6 17q5 7 13 11q95 35 170 95q74 59 122 134q5 8 14 13q8 5 18 5h200q8 0 14 -6q6 -7 6 -15l-8 -727l8 -666q0 -7 -6 -13q-6 -7 -14 -7h-218z" />
    <glyph glyph-name="two" unicode="2" horiz-adv-x="1061" 
d="M74 0q-8 0 -14 6q-7 6 -7 14v175q0 211 114 322q113 111 248 183q134 71 248 138q113 66 113 188q3 110 -57 177q-61 66 -180 65q-116 -1 -182 -78t-72 -221q0 -9 -6 -15q-7 -6 -15 -6h-188q-8 0 -14 7q-7 6 -7 14q4 234 127 362q122 127 357 127q114 0 202 -29
q87 -30 146 -84q58 -54 90 -133q31 -79 33 -178q0 -195 -113 -299q-113 -105 -247 -175q-135 -70 -248 -136q-113 -67 -113 -186v-41h694q8 0 15 -6q6 -7 6 -15v-156q0 -8 -6 -14q-7 -6 -15 -6h-909z" />
    <glyph glyph-name="three" unicode="3" horiz-adv-x="1100" 
d="M1056 434q0 -106 -40 -190q-41 -85 -111 -143q-71 -59 -167 -90t-205 -31q-227 0 -351 116q-124 115 -141 334q-1 8 6 15q6 6 13 6h203q8 0 15 -6q6 -6 6 -15q7 -128 70 -199q62 -72 186 -71q120 0 189 72q68 72 71 194q1 128 -78 189t-242 61h-53q-8 0 -14 6t-6 14v131
q0 8 6 15q6 6 14 6h53q149 0 220 59t71 154q0 48 -16 88q-17 39 -46 67q-30 28 -70 43t-87 15q-115 0 -177 -61t-72 -183q-1 -8 -7 -14t-15 -6h-196q-8 0 -14 7q-6 6 -6 13q6 103 44 183q37 79 101 133q64 53 154 81q90 27 200 27q99 0 183 -26t144 -74q59 -48 93 -116
q34 -69 35 -153q0 -65 -18 -115q-19 -51 -51 -88q-33 -38 -77 -64q-45 -27 -96 -43q131 -31 205 -119q74 -89 74 -222z" />
    <glyph glyph-name="four" unicode="4" horiz-adv-x="1128" 
d="M1098 373q0 -8 -6 -14q-7 -7 -15 -7h-135v-332q0 -8 -6 -14t-14 -6h-211q-8 0 -14 6q-7 6 -7 14v332h-633q-8 0 -14 7q-6 6 -6 14v180q0 9 3 20q3 10 8 18l545 826q5 7 14 12q8 5 18 5h297q8 0 14 -6q6 -7 6 -15v-864h135q8 0 15 -6q6 -7 6 -15v-155zM690 973l8 274
l-450 -698h442v424z" />
    <glyph glyph-name="five" unicode="5" horiz-adv-x="1116" 
d="M1076 518q0 -126 -38 -228q-39 -102 -108 -173q-70 -71 -168 -109q-98 -39 -216 -39q-112 0 -199 29q-88 30 -148 83q-61 52 -97 126t-46 162q-1 7 5 14q6 6 13 6h209q9 0 15 -6t7 -14q8 -101 70 -159t169 -58q124 0 195 91q71 90 71 259q0 160 -64 247t-194 87
q-96 0 -157 -45q-62 -46 -84 -130q-2 -9 -9 -14q-8 -6 -17 -6h-178q-7 0 -13 7q-6 6 -6 13l51 752q1 8 8 15q6 6 14 6h805q8 0 14 -6q6 -7 6 -15v-156q0 -8 -6 -14t-14 -6h-607l-32 -336q54 61 131 90q76 29 168 29q95 0 178 -35q82 -36 143 -101q60 -66 95 -159
q34 -93 34 -207z" />
    <glyph glyph-name="six" unicode="6" horiz-adv-x="1141" 
d="M1094 496q0 -109 -38 -205q-39 -96 -106 -166q-67 -71 -160 -112q-93 -42 -202 -42q-125 0 -224 47q-100 46 -168 139q-69 92 -106 231t-37 323q0 179 40 320q39 141 111 236t176 145q103 50 230 50q187 0 298 -92q110 -93 132 -264q1 -8 -4 -14q-6 -7 -14 -7h-204
q-9 0 -16 6t-8 15q-12 73 -62 123q-50 49 -140 49q-66 0 -118 -31q-52 -32 -87 -91q-36 -59 -54 -145q-19 -86 -20 -194q49 67 130 106q80 38 196 38q101 0 186 -32q84 -33 144 -93q59 -60 92 -146q33 -87 33 -194zM326 477q0 -70 17 -128q16 -59 48 -100q31 -41 78 -64
t106 -23q118 0 189 81q70 81 70 224q-1 69 -17 126t-46 97q-31 40 -77 62t-106 22q-122 0 -192 -78t-70 -219z" />
    <glyph glyph-name="seven" unicode="7" horiz-adv-x="950" 
d="M918 1215q-67 -132 -128 -274q-62 -142 -113 -290q-52 -149 -92 -307q-41 -159 -66 -324q-1 -8 -8 -14t-15 -6h-222q-7 0 -12 7q-6 6 -5 13q26 163 65 327q39 163 89 318q49 154 111 300q62 145 135 272h-614q-8 0 -14 6t-6 14v156q0 8 6 15q6 6 14 6h864q8 0 15 -6
q6 -7 6 -15v-160q0 -9 -3 -19q-3 -11 -7 -19z" />
    <glyph glyph-name="eight" unicode="8" horiz-adv-x="1151" 
d="M1102 403q0 -101 -40 -181q-41 -80 -111 -134q-71 -55 -167 -84q-97 -29 -209 -29q-110 0 -206 29q-97 29 -167 84q-70 54 -110 134q-41 80 -41 181q0 125 71 220q71 94 206 137q-113 44 -173 127t-59 188q1 92 34 164t94 121t150 75q89 25 201 25q113 0 202 -25
q89 -26 151 -75q61 -49 95 -121q33 -72 34 -164q1 -102 -60 -185t-176 -130q137 -43 209 -137q72 -95 72 -220zM338 1053q0 -48 17 -89q16 -41 47 -70q31 -30 75 -46q44 -17 98 -17q55 0 100 17q44 17 75 47q30 30 47 71q16 40 16 87q0 107 -65 169q-66 62 -173 62t-171 -62
q-65 -62 -66 -169zM297 412q-1 -56 20 -104q20 -48 57 -82q36 -35 88 -54q51 -20 113 -20q63 0 115 20q52 19 89 54q36 34 56 82t19 104q0 116 -75 186q-75 69 -204 70q-128 -1 -203 -70q-75 -70 -75 -186z" />
    <glyph glyph-name="nine" unicode="9" horiz-adv-x="1141" 
d="M311 967q0 -70 16 -127q15 -57 46 -97q30 -40 77 -62q46 -22 107 -22q121 0 192 79q70 78 70 218q0 71 -17 130q-17 58 -49 99t-78 64q-47 23 -106 23q-119 0 -188 -81q-70 -82 -70 -224zM1090 723q0 -179 -39 -320t-111 -236q-72 -96 -175 -146q-104 -50 -230 -50
q-187 0 -298 93q-112 93 -134 264q-1 7 5 14q5 6 12 6h205q9 0 16 -5q7 -6 8 -15q13 -76 64 -124q50 -48 140 -48q66 0 118 31t87 90t54 145q18 86 19 194q-49 -67 -129 -105t-196 -38q-102 0 -186 33q-84 32 -143 92q-60 60 -93 147q-33 86 -33 193q0 112 37 208
q36 96 102 166t160 110q93 40 207 40q123 0 223 -45q99 -46 168 -137q68 -91 105 -230q37 -140 37 -327z" />
    <glyph glyph-name="colon" unicode=":" horiz-adv-x="369" 
d="M72 797q-8 0 -14 6q-7 6 -7 14v218q0 8 7 14q6 6 14 6h223q8 0 14 -6t6 -14v-218q0 -8 -6 -14t-14 -6h-223zM72 0q-8 0 -14 6q-7 6 -7 14v218q0 8 7 14q6 6 14 6h223q8 0 14 -6t6 -14v-218q0 -8 -6 -14t-14 -6h-223z" />
    <glyph glyph-name="semicolon" unicode=";" horiz-adv-x="369" 
d="M35 -223q-7 0 -12 6q-5 7 -3 14l56 209v232q0 8 6 14t14 6h201q8 0 14 -6t6 -14v-209q0 -10 -3 -20t-8 -18l-139 -197q-5 -8 -14 -13q-9 -4 -18 -4h-100zM74 797q-8 0 -14 6q-7 6 -7 14v218q0 8 7 14q6 6 14 6h223q8 0 14 -6t6 -14v-218q0 -8 -6 -14t-14 -6h-223z" />
    <glyph glyph-name="less" unicode="&#x3c;" 
d="M1012 203q0 -7 -6 -11t-13 -1l-905 409q-8 4 -13 12t-5 17v153q0 9 5 17t13 12l905 409q7 3 13 -1t6 -11v-161q0 -9 -5 -17q-6 -8 -14 -12l-727 -311l727 -314q8 -4 14 -11q5 -8 5 -17v-162z" />
    <glyph glyph-name="equal" unicode="=" 
d="M90 862q-8 0 -14 7q-6 6 -6 14v153q0 8 6 15q6 6 14 6h901q8 0 15 -6q6 -7 6 -15v-153q0 -8 -6 -14q-7 -7 -15 -7h-901zM90 354q-8 0 -14 7q-6 6 -6 14v153q0 8 6 15q6 6 14 6h901q8 0 15 -6q6 -7 6 -15v-153q0 -8 -6 -14q-7 -7 -15 -7h-901z" />
    <glyph glyph-name="greater" unicode="&#x3e;" 
d="M88 191q-7 -3 -12 1q-6 4 -6 11v162q0 9 5 17q5 7 13 11l727 314l-727 311q-8 4 -13 12t-5 17v161q0 7 6 11q5 4 12 1l905 -409q8 -4 14 -12q5 -8 5 -17v-153q0 -9 -5 -17q-6 -8 -14 -12z" />
    <glyph glyph-name="question" unicode="?" horiz-adv-x="1018" 
d="M401 408q-8 0 -14 6t-6 14q4 147 60 236t121 152q64 62 118 117q53 54 53 132q0 99 -64 154q-64 54 -165 55q-122 1 -181 -61t-64 -187q-1 -8 -7 -14t-15 -6h-196q-8 0 -14 6t-6 14q13 207 141 317q127 109 354 109q98 0 183 -26t147 -76t98 -123q35 -74 35 -168
q0 -118 -53 -187t-117 -127q-64 -59 -119 -128q-56 -70 -61 -189q0 -8 -6 -14q-7 -6 -15 -6h-207zM395 0q-8 0 -14 6t-6 14v220q0 8 6 14t14 6h215q8 0 15 -6q6 -6 6 -14v-220q0 -8 -6 -14q-7 -6 -15 -6h-215z" />
    <glyph glyph-name="at" unicode="@" horiz-adv-x="1688" 
d="M1452 -36q-101 -171 -261 -252t-360 -81q-176 0 -322 61q-146 62 -249 175q-103 114 -160 279q-57 164 -57 368q0 209 57 377q57 167 160 283q103 115 250 177q146 62 324 62q182 0 332 -62q149 -62 255 -177q105 -116 163 -284t58 -378q0 -114 -24 -202t-64 -147
q-40 -60 -93 -91q-54 -31 -113 -31q-38 0 -82 10t-84 32t-71 58t-44 88q-49 -92 -131 -145q-83 -53 -195 -53q-99 0 -175 39q-77 38 -127 105q-51 66 -77 158q-26 91 -26 195t28 197q28 92 80 160t129 108q76 39 172 39q95 0 169 -36q73 -36 122 -105l-5 102q0 8 6 15
q6 6 14 6h184q8 0 14 -6q6 -7 6 -15v-682q0 -82 27 -112q26 -31 66 -31q66 0 113 85q46 85 46 259q0 182 -47 327q-48 144 -135 243q-88 99 -214 152q-126 52 -280 52q-149 0 -270 -53q-122 -53 -206 -152q-85 -99 -131 -243q-46 -145 -46 -326q0 -176 47 -317
q46 -141 131 -238q84 -96 206 -148q121 -51 269 -51q149 0 271 45t202 161q5 8 14 13q8 5 18 5h106q7 0 11 -6q3 -6 -1 -12zM565 543q0 -167 60 -260q60 -94 178 -93q111 0 175 84q63 84 64 250q1 165 -60 256q-62 91 -175 92q-60 2 -106 -20t-76 -65t-45 -105t-15 -139z
" />
    <glyph glyph-name="A" unicode="A" horiz-adv-x="1319" 
d="M868 602l-217 655l-211 -655h428zM1090 0q-9 0 -17 6q-8 5 -10 13l-125 374h-565l-121 -374q-3 -8 -10 -13q-8 -6 -17 -6h-215q-7 0 -12 6q-4 6 -1 13l492 1395q3 8 11 14q7 6 16 6h293q9 0 17 -6q7 -6 10 -14l486 -1395q3 -7 -1 -13q-5 -6 -12 -6h-219z" />
    <glyph glyph-name="B" unicode="B" horiz-adv-x="1266" 
d="M1223 430q0 -115 -44 -197q-45 -82 -119 -133q-74 -52 -171 -76t-201 -24h-586q-8 0 -14 7q-6 6 -6 13l10 707l-10 686q0 8 6 15q6 6 14 6h578q109 0 202 -21q92 -21 159 -64q66 -44 104 -110q37 -66 37 -156q0 -133 -69 -210t-189 -109q151 -34 225 -123q73 -90 74 -211
zM330 844h352q115 0 182 49q66 49 66 151q0 52 -19 91q-19 38 -52 63t-78 37q-46 12 -99 12h-342zM340 186h342q62 0 115 13q52 12 90 40q37 28 59 75q21 47 21 116q0 63 -23 107q-23 43 -62 71q-39 27 -91 39t-109 12h-352z" />
    <glyph glyph-name="C" unicode="C" horiz-adv-x="1399" 
d="M1363 508q-25 -141 -80 -243t-135 -167q-81 -65 -185 -96q-105 -31 -228 -31q-160 0 -289 54q-129 53 -218 150t-137 235q-48 137 -48 305q0 169 49 308q48 139 138 236q89 97 218 150q128 53 285 53q111 0 212 -26q100 -26 181 -85t140 -156q58 -97 86 -237q1 -7 -4 -13
q-5 -7 -13 -7h-204q-9 0 -16 6q-7 5 -9 14q-33 149 -131 226q-98 76 -246 76q-102 0 -182 -38t-134 -108q-54 -71 -82 -172q-28 -102 -28 -227q0 -130 29 -231q29 -102 84 -170q54 -68 134 -104q79 -36 179 -36q162 0 260 87q97 86 124 247q1 9 8 15q7 5 16 5h209q7 0 13 -6
q5 -7 4 -14z" />
    <glyph glyph-name="D" unicode="D" horiz-adv-x="1366" 
d="M102 0q-8 0 -14 7q-6 6 -6 13l10 705l-10 688q0 8 6 15q6 6 14 6h480q153 0 289 -44q136 -45 236 -134t158 -226t58 -319q0 -187 -60 -322t-161 -221t-235 -127t-281 -41h-484zM332 731q0 -72 2 -165q1 -93 2 -174t3 -137q1 -57 1 -58h262q90 0 174 29t148 91t103 161
q38 98 38 235q0 133 -37 232t-100 164q-64 64 -150 96t-184 32h-254q0 -1 -1 -53q-2 -53 -3 -129q-1 -77 -2 -165q-2 -88 -2 -159z" />
    <glyph glyph-name="E" unicode="E" horiz-adv-x="1096" 
d="M102 0q-8 0 -14 7q-6 6 -6 13l10 707l-10 686q0 8 6 15q6 6 14 6h914q8 0 14 -6q6 -7 6 -15v-156q0 -8 -6 -14t-14 -6h-676l-10 -379h631q8 0 14 -6t6 -14v-156q0 -8 -6 -14t-14 -6h-631l10 -465h692q8 0 15 -6q6 -7 6 -15v-156q0 -8 -6 -14q-7 -6 -15 -6h-930z" />
    <glyph glyph-name="F" unicode="F" horiz-adv-x="1038" 
d="M102 0q-8 0 -14 7q-6 6 -6 13l10 697l-10 696q0 8 6 15q6 6 14 6h885q8 0 15 -6q6 -7 6 -15v-156q0 -8 -6 -14q-7 -6 -15 -6h-647l-10 -442h626q8 0 15 -6q6 -7 6 -15v-156q0 -8 -6 -14q-7 -6 -15 -6h-626l10 -578q0 -7 -6 -13q-7 -7 -15 -7h-217z" />
    <glyph glyph-name="G" unicode="G" horiz-adv-x="1430" 
d="M1385 743q2 -190 -41 -335q-43 -146 -126 -242q-83 -97 -207 -146q-125 -49 -284 -49q-150 0 -276 54q-127 54 -217 152q-90 97 -140 235q-51 138 -51 305q0 169 50 308q50 138 140 235q89 96 214 149t274 53q253 0 416 -123q162 -123 216 -346q2 -7 -3 -13q-5 -7 -12 -7
h-219q-9 0 -16 6q-8 5 -10 14q-36 132 -130 201q-95 68 -240 68q-98 0 -176 -38t-132 -108q-54 -71 -83 -173t-29 -230q0 -124 30 -224q29 -101 84 -171t135 -108t179 -38q181 0 282 105t105 292h-391q-8 0 -14 7q-6 6 -6 14v153q0 8 6 15q6 6 14 6h637q8 0 15 -6
q6 -7 6 -15z" />
    <glyph glyph-name="H" unicode="H" horiz-adv-x="1362" 
d="M1040 0q-8 0 -14 7q-6 6 -6 13l10 648h-698l8 -648q0 -7 -6 -13q-7 -7 -15 -7h-217q-8 0 -14 7q-6 6 -6 13l10 693l-10 700q0 8 6 15q6 6 14 6h217q8 0 15 -6q6 -7 6 -15l-6 -549h694l-8 549q0 8 6 15q6 6 14 6h220q7 0 14 -6q6 -7 6 -15l-10 -700l10 -693q0 -7 -6 -13
q-7 -7 -14 -7h-220z" />
    <glyph glyph-name="I" unicode="I" horiz-adv-x="440" 
d="M113 0q-8 0 -14 7q-7 6 -7 13l10 703l-10 690q0 8 7 15q6 6 14 6h215q8 0 14 -6q6 -7 6 -15l-10 -690l10 -703q0 -7 -6 -13q-6 -7 -14 -7h-215z" />
    <glyph glyph-name="J" unicode="J" horiz-adv-x="1026" 
d="M954 510q3 -267 -116 -404t-353 -137q-115 0 -201 37t-143 105q-57 67 -86 165q-30 97 -32 216q0 7 6 14q6 6 14 6h205q8 0 14 -6t6 -14q3 -149 52 -232q48 -84 167 -84q124 0 169 86q45 85 46 250l3 397l-8 504q-1 8 6 15q6 6 14 6h223q8 0 14 -6q6 -7 6 -15l-8 -504z
" />
    <glyph glyph-name="K" unicode="K" horiz-adv-x="1202" 
d="M748 246l-275 409l-139 -172l4 -463q0 -8 -6 -14q-7 -6 -15 -6h-215q-8 0 -14 7q-6 6 -6 13l10 705l-10 688q0 8 6 15q6 6 14 6h215q8 0 15 -6q6 -7 6 -15l-6 -633l473 637q5 7 14 12t19 5h258q6 0 9 -6q2 -6 -2 -10l-466 -564l570 -837q4 -6 1 -11q-3 -6 -10 -6h-270
q-10 0 -18 5q-9 5 -14 12z" />
    <glyph glyph-name="L" unicode="L" horiz-adv-x="975" 
d="M102 0q-8 0 -14 7q-6 6 -6 13l10 711l-10 682q0 8 6 15q6 6 14 6h217q8 0 15 -6q6 -7 6 -15l-8 -668l8 -548h604q8 0 15 -6q6 -7 6 -15v-156q0 -8 -6 -14q-7 -6 -15 -6h-842z" />
    <glyph glyph-name="M" unicode="M" horiz-adv-x="1655" 
d="M311 582l2 -562q0 -8 -6 -14t-14 -6h-191q-8 0 -14 7q-6 6 -6 13l8 691l-8 702q0 8 6 15q6 6 14 6h297q9 0 17 -5q8 -6 11 -15l419 -1099l400 1099q3 9 11 15q8 5 17 5h278q8 0 15 -6q6 -7 6 -15l-8 -702l8 -691q0 -7 -6 -13q-7 -7 -15 -7h-213q-8 0 -14 6t-6 14l2 562
l6 385l2 123l-394 -1071q-3 -8 -11 -13q-8 -6 -17 -6h-157q-9 0 -17 6q-8 5 -11 13l-421 1097l4 -153z" />
    <glyph glyph-name="N" unicode="N" horiz-adv-x="1366" 
d="M319 614v-594q0 -8 -6 -14t-14 -6h-197q-8 0 -14 7q-6 6 -6 13l8 701l-8 692q0 8 6 15q6 6 14 6h260q10 0 19 -5q8 -5 13 -13l663 -1099l-2 78l-8 379l-2 639q0 8 6 15q6 6 14 6h199q8 0 14 -6q6 -7 6 -15l-10 -692l8 -701q0 -7 -6 -13q-6 -7 -14 -7h-271q-9 0 -18 5
t-13 13l-653 1082l4 -111z" />
    <glyph glyph-name="O" unicode="O" horiz-adv-x="1497" 
d="M1452 713q0 -165 -50 -302q-51 -138 -142 -235q-92 -97 -222 -151q-131 -54 -290 -54t-289 54q-131 54 -223 152q-92 97 -142 235q-51 138 -51 303q0 170 50 309t142 236q91 96 222 149t291 53q158 0 289 -52q130 -52 222 -148q92 -97 143 -236q50 -140 50 -313zM303 713
q0 -125 31 -225q30 -100 87 -169q57 -70 141 -107q83 -38 188 -38q104 0 187 37t140 107q57 69 87 170q30 100 30 225t-30 227t-86 173q-57 70 -140 109q-84 38 -190 38t-189 -37q-84 -38 -140 -108q-57 -70 -86 -172q-30 -102 -30 -230z" />
    <glyph glyph-name="P" unicode="P" horiz-adv-x="1165" 
d="M1133 983q0 -112 -37 -198q-37 -87 -105 -145q-68 -59 -166 -89q-98 -31 -219 -31h-272l6 -500q0 -7 -6 -13q-7 -7 -15 -7h-217q-8 0 -14 7q-6 6 -6 13l10 705l-10 688q0 8 6 15q6 6 14 6h504q123 0 222 -28q98 -29 166 -85q67 -57 103 -141q36 -85 36 -197zM332 715v-2
h291q57 0 106 15t85 47q35 31 55 82t20 122q0 133 -72 198q-73 64 -203 64h-276z" />
    <glyph glyph-name="Q" unicode="Q" horiz-adv-x="1503" 
d="M1470 20q0 -8 -6 -14t-14 -6h-489q-51 -13 -105 -21q-55 -8 -113 -8q-159 0 -289 54q-131 54 -222 152q-92 97 -142 235q-51 138 -51 303q0 170 50 309t142 236q91 96 222 149q130 53 290 53q158 0 289 -52t223 -148q91 -97 142 -236q51 -140 51 -313q0 -154 -44 -285
q-45 -131 -126 -227l53 4h119q8 0 14 -6q6 -7 6 -15v-164zM299 713q0 -125 31 -225q30 -100 87 -169q57 -70 141 -107q83 -38 187 -38q105 0 188 37t140 107q57 69 87 170q30 100 30 225t-30 227t-86 173q-57 70 -141 109q-84 38 -190 38t-189 -37q-83 -38 -139 -108
q-57 -70 -86 -172q-30 -102 -30 -230z" />
    <glyph glyph-name="R" unicode="R" horiz-adv-x="1243" 
d="M944 991q0 124 -76 187t-211 63h-319l-8 -491h334q59 0 111 14q51 13 89 42q37 29 59 75q21 46 21 110zM768 287l-176 268h-260l8 -535q0 -7 -6 -13q-7 -7 -15 -7h-217q-8 0 -14 7q-6 6 -6 13l8 705l-8 688q0 8 6 15q6 6 14 6h541q128 0 230 -28q101 -28 171 -82
q70 -55 107 -137q37 -83 37 -192q0 -163 -88 -268q-88 -106 -242 -147l362 -563q4 -5 1 -11q-4 -6 -11 -6h-252q-9 0 -17 5q-9 5 -13 13z" />
    <glyph glyph-name="S" unicode="S" horiz-adv-x="1272" 
d="M1237 428q0 -112 -42 -197q-42 -86 -117 -143q-76 -58 -184 -87q-108 -30 -239 -30q-138 0 -250 31q-113 31 -193 93q-81 61 -127 155q-46 93 -52 217q0 8 6 14t14 6h221q9 0 16 -6q6 -6 7 -14q7 -68 29 -123q22 -56 65 -94q42 -38 109 -59q66 -21 162 -21q74 0 135 13
q60 12 102 39q42 26 65 69q23 42 23 102q0 133 -145 172t-317 74q-172 34 -317 111t-145 286q0 100 38 180q38 79 109 134q70 54 172 83t230 29q124 0 227 -25q102 -26 177 -79t122 -134q47 -82 60 -194q1 -7 -5 -13q-6 -7 -13 -7h-221q-9 0 -15 6q-7 5 -8 14
q-12 113 -96 173q-85 59 -236 59q-65 0 -119 -12q-55 -12 -94 -36t-60 -62q-22 -38 -22 -89q0 -125 146 -161q145 -36 318 -70q173 -35 319 -114q145 -80 145 -290z" />
    <glyph glyph-name="T" unicode="T" horiz-adv-x="1118" 
d="M446 0q-7 0 -13 7q-7 6 -7 13l14 695l-10 522h-393q-8 0 -14 6q-7 6 -7 14v156q0 8 7 15q6 6 14 6h1044q8 0 15 -6q6 -7 6 -15v-156q0 -8 -6 -14q-7 -6 -15 -6h-393l-10 -522l14 -695q0 -7 -6 -13q-6 -7 -14 -7h-226z" />
    <glyph glyph-name="U" unicode="U" horiz-adv-x="1249" 
d="M1178 537q0 -135 -34 -241q-35 -106 -103 -178q-69 -72 -172 -109q-103 -38 -240 -38q-138 0 -243 38q-105 37 -174 109q-70 72 -105 178q-36 106 -35 241l2 415l-8 461q0 8 6 15q6 6 14 6h223q8 0 15 -6q6 -7 5 -15l-7 -455l2 -419q0 -167 73 -263q72 -96 232 -96
q168 0 244 96q75 96 75 263v413l-6 461q0 8 7 15q6 6 14 6h200q8 0 15 -6q6 -7 5 -15l-5 -461v-415z" />
    <glyph glyph-name="V" unicode="V" horiz-adv-x="1270" 
d="M806 19q-2 -8 -10 -13q-8 -6 -17 -6h-284q-9 0 -17 6q-8 5 -10 13l-473 1395q-2 7 2 14q5 6 12 6h238q9 0 17 -6q7 -6 9 -14l379 -1211l373 1211q3 8 11 14q7 6 16 6h207q7 0 12 -6q4 -7 2 -14z" />
    <glyph glyph-name="W" unicode="W" horiz-adv-x="1831" 
d="M1191 0q-9 0 -16 6q-8 6 -9 14l-258 1072l-239 -1072q-2 -8 -9 -14t-16 -6h-266q-9 0 -16 6q-8 6 -10 14l-342 1394q-1 7 4 14q4 6 12 6h215q8 0 16 -6q7 -6 9 -14l257 -1162l250 1162q1 8 9 14q7 6 16 6h247q9 0 17 -6q7 -6 8 -14l256 -1176l260 1176q1 8 9 14q7 6 16 6
h196q8 0 13 -6q4 -7 3 -14l-347 -1394q-1 -8 -8 -14q-8 -6 -17 -6h-260z" />
    <glyph glyph-name="X" unicode="X" horiz-adv-x="1247" 
d="M967 0q-10 0 -18 5q-9 5 -13 13l-318 535l-327 -536q-4 -7 -13 -12t-18 -5h-244q-7 0 -10 6t1 11l468 737l-427 662q-4 6 -1 12t10 6h260q10 0 19 -5q8 -5 13 -13l280 -458l278 458q4 8 13 13t18 5h244q7 0 10 -6t-1 -12l-423 -668l470 -731q4 -5 1 -11t-10 -6h-262z" />
    <glyph glyph-name="Y" unicode="Y" horiz-adv-x="1188" 
d="M723 20q0 -7 -6 -13q-7 -7 -15 -7h-219q-8 0 -14 7q-6 6 -6 13l8 469l-476 926q-3 7 0 13q4 6 11 6h244q9 0 17 -5q8 -6 12 -14l325 -702l327 702q4 8 12 14q8 5 18 5h221q7 0 11 -6q3 -6 0 -13l-478 -928z" />
    <glyph glyph-name="Z" unicode="Z" horiz-adv-x="1169" 
d="M1133 20q0 -8 -6 -14q-7 -6 -15 -6h-1055q-8 0 -14 6t-6 14v175q0 9 4 19q3 10 8 17l776 1006h-712q-8 0 -14 6q-7 6 -7 14v156q0 8 7 15q6 6 14 6h993q8 0 14 -6q6 -7 6 -15v-180q0 -10 -3 -20t-9 -17l-768 -999h766q8 0 15 -6q6 -7 6 -15v-156z" />
    <glyph glyph-name="bracketleft" unicode="[" horiz-adv-x="543" 
d="M92 -287q-8 0 -14 6q-6 7 -6 15v1741q0 8 6 14t14 6h373q8 0 14 -6t6 -14v-156q0 -8 -6 -14q-6 -7 -14 -7h-176v-1388h176q8 0 14 -7q6 -6 6 -14v-155q0 -8 -6 -15q-6 -6 -14 -6h-373z" />
    <glyph glyph-name="backslash" unicode="\" horiz-adv-x="698" 
d="M494 -293q-9 0 -16 6q-8 6 -10 14l-424 1742q-2 7 3 14q5 6 12 6h144q8 0 16 -6q7 -6 9 -14l425 -1742q1 -7 -4 -14q-5 -6 -12 -6h-143z" />
    <glyph glyph-name="bracketright" unicode="]" horiz-adv-x="543" 
d="M76 -287q-8 0 -14 6q-7 7 -7 15v155q0 8 7 14q6 7 14 7h178v1388h-178q-8 0 -14 7q-7 6 -7 14v156q0 8 7 14q6 6 14 6h373q8 0 14 -6t6 -14v-1741q0 -8 -6 -15q-6 -6 -14 -6h-373z" />
    <glyph glyph-name="asciicircum" unicode="^" horiz-adv-x="1073" 
d="M869 514q-9 0 -17 6q-8 5 -11 13l-305 702l-304 -702q-3 -8 -11 -13q-8 -6 -17 -6h-154q-7 0 -11 6t-1 13l401 882q4 8 12 14q8 5 17 5h137q9 0 17 -5q8 -6 12 -14l401 -882q3 -7 -1 -13t-11 -6h-154z" />
    <glyph glyph-name="underscore" unicode="_" horiz-adv-x="823" 
d="M47 -348q-8 0 -14 6t-6 14v142q0 8 6 14t14 6h727q8 0 15 -6q6 -6 6 -14v-142q0 -8 -6 -14q-7 -6 -15 -6h-727z" />
    <glyph glyph-name="grave" unicode="`" horiz-adv-x="1024" 
d="M698 1164q-3 -8 -11 -11q-9 -4 -16 -2l-473 144q-8 2 -12 10t-1 15l50 156q3 7 11 11q7 3 14 0l461 -211q7 -3 11 -11q3 -9 0 -16z" />
    <glyph glyph-name="a" unicode="a" horiz-adv-x="1126" 
d="M293 541q0 -184 66 -285q66 -102 194 -102q124 0 194 92q69 92 70 274t-66 281q-68 99 -192 100q-67 1 -117 -24q-51 -25 -83 -71q-33 -46 -49 -113q-17 -68 -17 -152zM827 0q-8 0 -14 7q-6 6 -6 13l4 125q-54 -78 -136 -121q-82 -44 -188 -44q-109 0 -193 42t-139 115
q-56 73 -85 173q-29 99 -29 214q0 114 31 215t89 175q57 74 141 118q84 43 190 43q104 0 185 -39q80 -40 134 -116l-5 114q-1 8 6 15q6 6 13 6h209q8 0 15 -6q6 -7 5 -15l-5 -504l5 -510q1 -7 -5 -13q-7 -7 -15 -7h-207z" />
    <glyph glyph-name="b" unicode="b" horiz-adv-x="1126" 
d="M1085 530q0 -114 -31 -214q-31 -101 -89 -175q-58 -75 -142 -118q-85 -43 -190 -43q-104 0 -184 40q-80 39 -134 115l4 -115q0 -7 -6 -13q-6 -7 -14 -7h-209q-8 0 -14 7q-6 6 -6 13l8 728l-8 665q0 8 6 15q6 6 14 6h209q8 0 14 -6q6 -7 6 -15l-2 -498q55 75 137 118
q81 42 185 42q109 0 193 -42q83 -42 139 -115t85 -173t29 -215zM309 539q-1 -182 66 -281t192 -100q66 -1 117 24q50 24 83 71t50 115q17 67 17 150q0 179 -66 280q-67 100 -197 99q-122 0 -191 -90q-70 -91 -71 -268z" />
    <glyph glyph-name="c" unicode="c" horiz-adv-x="1065" 
d="M1033 381q-9 -88 -46 -162q-37 -75 -98 -129t-145 -84q-85 -31 -187 -31q-122 0 -218 39q-97 39 -163 111q-66 71 -100 173q-35 101 -35 226t35 228q34 102 101 175q66 72 163 112t221 40q100 0 181 -27t140 -76q58 -49 94 -118q35 -70 44 -154q1 -7 -5 -13q-6 -7 -13 -7
h-188q-9 0 -16 6q-7 5 -9 14q-19 100 -80 150q-62 49 -148 49q-134 0 -200 -96q-66 -97 -66 -281q0 -190 66 -282q66 -93 200 -94q99 -1 163 59q64 59 77 172q1 9 8 15q6 5 15 5h190q8 0 14 -6q6 -7 5 -14z" />
    <glyph glyph-name="d" unicode="d" horiz-adv-x="1126" 
d="M293 539q0 -182 66 -284q66 -103 194 -103q124 0 194 92q69 92 70 274q1 184 -66 284q-68 100 -192 101q-67 1 -117 -23q-51 -25 -83 -72q-33 -47 -49 -115q-17 -69 -17 -154zM825 0q-7 0 -13 7q-7 6 -6 13l5 123q-55 -76 -136 -119q-82 -44 -188 -44q-109 0 -193 42
t-139 115q-56 73 -85 173q-29 99 -29 214q0 114 31 215t89 175q57 74 141 118q84 43 190 43q102 0 183 -39q80 -39 134 -112l-4 489q0 8 6 15q6 6 14 6h209q8 0 15 -6q6 -7 6 -15l-4 -661l4 -732q0 -8 -6 -14q-7 -6 -15 -6h-209z" />
    <glyph glyph-name="e" unicode="e" horiz-adv-x="1110" 
d="M1031 360q7 0 13 -6q5 -7 4 -14q-12 -75 -49 -142q-38 -67 -99 -116q-61 -50 -146 -78q-85 -29 -191 -29q-127 0 -225 41t-163 114q-66 72 -100 173t-34 221q0 125 36 228q35 102 102 175q66 72 162 112q95 40 214 40q122 0 218 -40q95 -40 161 -114q65 -75 101 -182
q35 -107 38 -241q0 -8 -6 -14q-6 -7 -14 -7h-764q7 -168 76 -249q69 -82 202 -82q96 0 158 47q61 47 84 143q2 9 9 15q7 5 16 5h197zM807 647q-3 51 -19 99q-17 47 -48 83q-31 35 -77 57q-46 21 -106 21q-110 0 -175 -66q-65 -67 -85 -194h510z" />
    <glyph glyph-name="f" unicode="f" horiz-adv-x="721" 
d="M436 469l8 -449q0 -7 -6 -13q-6 -7 -14 -7h-217q-8 0 -14 7q-6 6 -6 13l8 449v401h-144q-8 0 -14 7q-6 6 -6 14v143q0 8 6 15q6 6 14 6h144v80q0 88 27 150q27 61 70 99t100 55q56 17 114 17q41 0 84 -4q42 -5 76 -11q8 -1 14 -8t6 -16v-141q0 -7 -6 -12t-14 -3
q-22 5 -48 8t-57 3q-57 0 -91 -35q-34 -36 -34 -125v-57h230q8 0 14 -6q6 -7 6 -15v-143q0 -8 -6 -14q-6 -7 -14 -7h-230v-401z" />
    <glyph glyph-name="g" unicode="g" horiz-adv-x="1122" 
d="M291 543q0 -179 68 -273q68 -95 198 -94q121 0 190 87t70 261q1 179 -66 277q-68 97 -192 98q-133 3 -200 -92q-68 -96 -68 -264zM1051 47q1 -106 -31 -191q-32 -84 -94 -142q-63 -58 -156 -89q-94 -31 -215 -31q-97 -1 -181 19q-85 20 -148 61t-102 104q-40 63 -47 148
q-1 8 5 14q6 7 14 7h202q9 0 16 -6q7 -5 8 -15q12 -78 75 -119q63 -40 164 -40q116 0 187 68t71 216v121q-51 -78 -131 -122t-184 -44q-113 0 -200 41q-87 40 -145 110t-88 167q-30 96 -30 208q0 111 31 210q31 98 89 171t143 116q84 42 190 42q104 0 184 -39
q79 -39 133 -114l-5 116q-1 8 6 15q6 6 13 6h207q8 0 15 -6q6 -7 5 -15l-5 -469z" />
    <glyph glyph-name="h" unicode="h" horiz-adv-x="1077" 
d="M768 659q-1 119 -55 175q-54 55 -133 55q-44 0 -87 -18t-79 -52q-36 -35 -63 -86t-40 -117l8 -596q0 -7 -6 -13q-6 -7 -14 -7h-207q-8 0 -14 7q-6 6 -6 13l8 703l-8 690q0 8 6 15q6 6 14 6h207q8 0 14 -6q6 -7 6 -15l-8 -500q54 77 137 122q82 44 195 44q86 0 156 -26
q69 -27 117 -81q47 -55 72 -139q25 -85 24 -200l-2 -219l6 -394q0 -7 -6 -13q-7 -7 -15 -7h-211q-8 0 -14 7q-6 6 -6 13l6 390z" />
    <glyph glyph-name="i" unicode="i" horiz-adv-x="412" 
d="M98 0q-8 0 -14 7q-6 6 -6 13l8 515l-8 499q0 8 6 15q6 6 14 6h213q8 0 15 -6q6 -7 6 -15l-6 -499l6 -515q0 -7 -6 -13q-7 -7 -15 -7h-213zM101 1165q-8 0 -14 7q-7 6 -7 14v203q0 8 7 14q6 6 14 6h208q8 0 15 -6q6 -6 6 -14v-203q0 -8 -6 -14q-7 -7 -15 -7h-208z" />
    <glyph glyph-name="j" unicode="j" horiz-adv-x="412" 
d="M98 -348q-8 0 -14 6t-6 14l8 680l-8 682q0 8 6 15q6 6 14 6h213q8 0 15 -6q6 -7 6 -15l-6 -682l6 -680q0 -8 -6 -14q-7 -6 -15 -6h-213zM101 1165q-8 0 -14 7q-7 6 -7 14v203q0 8 7 14q6 6 14 6h208q8 0 15 -6q6 -6 6 -14v-203q0 -8 -6 -14q-7 -7 -15 -7h-208z" />
    <glyph glyph-name="k" unicode="k" horiz-adv-x="983" 
d="M608 199l-178 295l-117 -138l4 -336q0 -7 -6 -13q-6 -7 -14 -7h-207q-8 0 -14 7q-6 6 -6 13l8 695l-8 698q0 8 6 15q6 6 14 6h207q8 0 14 -6q6 -7 6 -15l-8 -694v-88l353 408q7 7 16 12q9 4 18 4h234q6 0 9 -5q2 -6 -2 -10l-333 -368l383 -654q4 -6 1 -12q-4 -6 -11 -6
h-246q-9 0 -17 5q-9 5 -13 13z" />
    <glyph glyph-name="l" unicode="l" horiz-adv-x="408" 
d="M100 0q-8 0 -14 7q-6 6 -6 13l8 701l-8 692q0 8 6 15q6 6 14 6h207q8 0 15 -6q6 -7 5 -15l-8 -692l8 -701q1 -7 -5 -13q-7 -7 -15 -7h-207z" />
    <glyph glyph-name="m" unicode="m" horiz-adv-x="1651" 
d="M319 393l6 -373q0 -7 -6 -13q-6 -7 -14 -7h-215q-8 0 -14 7q-6 6 -6 13l8 373l-4 641q0 8 6 15q6 6 14 6h199q8 0 14 -6q6 -7 6 -15l-4 -133q52 80 129 129q76 49 185 49q111 0 190 -51q78 -51 113 -158q63 113 144 161q80 48 181 48q157 0 246 -100q88 -101 88 -313
v-273l4 -373q0 -7 -6 -13q-6 -7 -14 -7h-211q-8 0 -14 7q-7 6 -6 13l5 373v266q0 119 -46 174q-47 54 -123 54q-35 0 -70 -18q-35 -19 -64 -54t-51 -87q-23 -52 -35 -118v-217l6 -373q0 -7 -6 -13q-6 -7 -14 -7h-213q-8 0 -14 7q-6 6 -6 13l8 373v266q0 119 -46 174
q-46 54 -124 54q-39 0 -76 -21q-38 -22 -68 -63q-31 -41 -52 -101q-22 -61 -30 -139v-170z" />
    <glyph glyph-name="n" unicode="n" 
d="M92 0q-8 0 -14 7q-6 6 -6 13l6 476l-4 538q0 8 6 15q6 6 14 6h199q8 0 14 -6q6 -7 6 -15l-4 -133q25 37 60 70q35 32 79 56q43 24 95 38q51 14 110 14q82 0 150 -27q67 -28 114 -80q46 -52 72 -129q25 -78 25 -177v-217l6 -429q0 -7 -6 -13q-7 -7 -15 -7h-211q-7 0 -13 7
q-7 6 -7 13l6 429v210q0 112 -54 170t-138 58q-47 0 -90 -20q-44 -20 -79 -60t-59 -101q-25 -61 -32 -143v-114l3 -429q1 -7 -5 -13q-7 -7 -15 -7h-213z" />
    <glyph glyph-name="o" unicode="o" horiz-adv-x="1122" 
d="M1081 530q0 -125 -34 -228q-35 -103 -100 -175q-66 -72 -163 -112t-221 -40t-221 39q-98 39 -164 111q-67 71 -102 173q-35 101 -35 226t35 228q35 102 102 175q66 72 164 112q97 40 221 40t221 -39t163 -110q65 -72 100 -173q34 -102 34 -227zM293 522q0 -185 68 -278
q68 -94 202 -94q133 0 199 93q65 93 65 281q0 187 -66 284q-67 97 -200 97q-136 -1 -202 -98q-66 -98 -66 -285z" />
    <glyph glyph-name="p" unicode="p" horiz-adv-x="1126" 
d="M309 537q-1 -182 66 -281q67 -100 192 -100q133 0 200 96t67 264q0 179 -65 280q-66 101 -198 101q-122 0 -191 -91q-70 -92 -71 -269zM1085 530q0 -114 -31 -214q-31 -101 -89 -175q-58 -75 -142 -118q-85 -43 -190 -43q-102 0 -181 39t-133 112l4 -459q1 -8 -5 -14
q-7 -6 -15 -6h-213q-8 0 -14 6t-6 14l8 770l-8 592q0 8 6 15q6 6 14 6h209q8 0 14 -6q6 -7 6 -15l-4 -123q54 77 137 121q82 43 187 43q109 0 193 -42q83 -42 139 -115t85 -173t29 -215z" />
    <glyph glyph-name="q" unicode="q" horiz-adv-x="1126" 
d="M1055 -328q0 -8 -6 -14q-7 -6 -15 -6h-209q-8 0 -14 6t-6 14l2 463q-55 -73 -135 -114q-81 -41 -185 -41q-109 0 -193 42t-139 115q-56 73 -85 173q-29 99 -29 214q0 114 31 215t89 175q57 74 141 118q84 43 190 43q104 0 185 -39q80 -40 134 -116l-5 114q-1 8 6 15
q6 6 13 6h209q8 0 15 -6q6 -7 6 -15l-6 -651zM293 537q0 -181 65 -281t195 -100q124 0 194 91q69 90 70 269q1 182 -66 284q-68 101 -192 101q-130 0 -198 -94q-68 -95 -68 -270z" />
    <glyph glyph-name="r" unicode="r" horiz-adv-x="764" 
d="M90 0q-8 0 -14 7q-6 6 -6 13l8 512l-8 502q0 8 6 15q6 6 14 6h207q8 0 14 -6q6 -7 6 -15l-8 -166q58 96 157 146q99 49 212 49q13 0 26 -1q13 -2 25 -4q8 -1 15 -8q6 -7 6 -15v-152q0 -8 -6 -14q-7 -6 -15 -5q-10 1 -22 2h-25q-74 0 -139 -21q-66 -22 -114 -65
q-49 -44 -79 -110q-30 -67 -35 -156l4 -494q0 -8 -6 -14t-14 -6h-209z" />
    <glyph glyph-name="s" unicode="s" horiz-adv-x="1038" 
d="M999 313q0 -80 -35 -143q-36 -64 -98 -107q-63 -43 -148 -66q-86 -22 -186 -22q-107 0 -196 23q-90 23 -154 69q-64 45 -101 114q-38 68 -42 157q0 7 6 14q6 6 14 6h198q9 0 15 -6t7 -14q6 -102 73 -150q67 -49 189 -49q104 0 164 41q59 40 59 113q0 87 -110 109t-240 46
q-131 23 -241 84q-110 60 -110 222q0 79 31 141q31 61 88 102q56 40 138 61t182 21q97 0 179 -20q82 -21 142 -61q59 -41 95 -102t43 -142q1 -8 -5 -14q-6 -7 -13 -7h-188q-10 0 -16 6q-7 5 -8 15q-13 79 -72 123q-59 43 -161 43q-90 0 -144 -36q-55 -36 -55 -112
q0 -85 110 -104q109 -20 240 -43t241 -84q109 -61 109 -228z" />
    <glyph glyph-name="t" unicode="t" horiz-adv-x="690" 
d="M662 36q0 -8 -6 -16t-14 -10q-37 -12 -80 -20t-85 -8q-62 0 -119 17t-100 55q-44 37 -70 98t-26 149l2 569h-117q-8 0 -14 7q-6 6 -6 14v143q0 8 6 15q6 6 14 6h117l-4 243q0 8 6 15q6 6 14 6h209q8 0 15 -6q6 -7 5 -15l-1 -243h235q8 0 15 -6q6 -7 6 -15v-143
q0 -8 -6 -14q-7 -7 -15 -7h-237l2 -563q0 -79 33 -109q32 -30 89 -30q33 0 62 5q28 4 50 10q7 1 14 -3q6 -5 6 -12v-132z" />
    <glyph glyph-name="u" unicode="u" 
d="M772 154q-25 -37 -60 -69q-35 -33 -78 -57q-43 -25 -95 -39t-111 -14q-82 0 -149 28q-67 27 -113 80q-47 52 -72 130q-26 77 -26 176v217l-6 428q0 8 6 15q6 6 14 6h211q8 0 14 -6q6 -7 6 -15l-6 -428v-211q0 -111 55 -169q54 -58 138 -58q47 0 91 20q43 20 78 60
q35 39 59 101q24 61 32 143v114l-4 428q0 8 6 15q6 6 14 6h213q8 0 15 -6q6 -7 5 -15l-5 -475l3 -539q1 -8 -5 -14q-7 -6 -15 -6h-199q-7 0 -13 7q-7 6 -6 13z" />
    <glyph glyph-name="v" unicode="v" horiz-adv-x="1024" 
d="M666 17q-3 -8 -10 -13q-8 -6 -17 -6h-256q-9 0 -16 6q-8 5 -11 13l-363 1018q-3 7 1 14q5 6 12 6h227q9 0 17 -6t10 -14l258 -832l278 832q3 8 11 14t16 6h193q7 0 12 -6q4 -7 1 -14z" />
    <glyph glyph-name="w" unicode="w" horiz-adv-x="1460" 
d="M940 0q-9 0 -16 6t-9 14l-194 826l-172 -826q-1 -8 -8 -14q-8 -6 -17 -6h-245q-9 0 -16 6q-8 6 -10 14l-248 1015q-2 7 3 14q5 6 12 6h207q9 0 17 -6q7 -6 8 -14l162 -832l174 832q1 8 9 14q7 6 15 6h256q9 0 17 -6q7 -6 8 -14l174 -816l160 816q1 8 9 14q7 6 15 6h189
q7 0 12 -6q5 -7 4 -14l-241 -1015q-2 -8 -9 -14t-16 -6h-250z" />
    <glyph glyph-name="x" unicode="x" horiz-adv-x="979" 
d="M729 0q-9 0 -17 5q-9 5 -13 13l-220 388l-221 -388q-4 -8 -12 -13q-9 -5 -19 -5h-217q-7 0 -10 6t0 12l328 539l-305 480q-4 6 0 12q3 6 10 6h235q9 0 18 -5t13 -13l207 -359l195 359q4 7 13 13q8 5 17 5h209q7 0 11 -6q3 -6 -1 -12l-293 -490l320 -529q3 -6 0 -12
t-10 -6h-238z" />
    <glyph glyph-name="y" unicode="y" horiz-adv-x="997" 
d="M534 -329q-3 -8 -10 -14q-8 -5 -17 -5h-195q-7 0 -11 6q-5 6 -3 13l111 323l-417 1042q-2 7 2 13t11 6h238q9 0 17 -5q7 -6 10 -15l264 -724l219 724q2 8 10 14t16 6h211q7 0 12 -6q4 -7 2 -14z" />
    <glyph glyph-name="z" unicode="z" horiz-adv-x="956" 
d="M909 20q0 -8 -6 -14t-14 -6h-819q-8 0 -14 6q-7 6 -7 14v146q0 9 4 20q3 10 9 17l518 667h-467q-8 0 -14 7q-7 6 -7 14v143q0 8 7 15q6 6 14 6h747q8 0 15 -6q6 -7 6 -15v-147q0 -10 -3 -20q-4 -10 -10 -17l-524 -666h545q8 0 14 -6t6 -14v-144z" />
    <glyph glyph-name="braceleft" unicode="{" horiz-adv-x="553" 
d="M508 -266q0 -8 -6 -15q-7 -6 -15 -6h-69q-108 0 -178 36t-104 98t-34 145q0 84 31 178l62 188q10 28 15 55q4 27 -1 48q-6 21 -23 34t-51 13h-37q-8 0 -14 6t-6 14v152q0 8 6 14t14 6h37q34 0 51 13t23 34q5 20 1 48q-5 27 -15 55l-70 215q-31 94 -24 174q7 79 47 136
q39 56 109 88q69 32 161 32h69q8 0 15 -6q6 -6 6 -14v-156q0 -8 -6 -14q-7 -7 -15 -7h-67q-72 0 -96 -54q-25 -55 16 -179l70 -215q12 -37 14 -74q1 -37 -11 -69q-13 -33 -40 -60q-28 -27 -74 -43q45 -18 72 -46t39 -61q12 -34 11 -70t-11 -69l-62 -190q-47 -144 -23 -201
q23 -57 95 -57h67q8 0 15 -7q6 -6 6 -14v-155z" />
    <glyph glyph-name="bar" unicode="|" horiz-adv-x="319" 
d="M88 -287q-8 0 -14 6q-6 7 -6 15v1741q0 8 6 14t14 6h143q8 0 15 -6q6 -6 6 -14v-1741q0 -8 -6 -15q-7 -6 -15 -6h-143z" />
    <glyph glyph-name="braceright" unicode="}" horiz-adv-x="553" 
d="M436 170q31 -94 31 -178q0 -83 -34 -145t-104 -98t-177 -36h-70q-8 0 -14 6q-7 7 -7 15v155q0 8 7 14q6 7 14 7h68q70 0 95 57q24 57 -24 201l-61 190q-12 33 -13 69q-2 36 10 70q12 33 40 61q27 28 73 46q-46 16 -73 43q-28 27 -40 60q-13 32 -11 69t14 74l69 215
q42 124 18 179q-25 54 -97 54h-68q-8 0 -14 7q-7 6 -7 14v156q0 8 7 14q6 6 14 6h70q91 0 161 -32q69 -32 109 -88q39 -57 46 -136q7 -80 -24 -174l-69 -215q-10 -28 -15 -55q-5 -28 0 -48q5 -21 23 -34q17 -13 51 -13h37q8 0 15 -6q6 -6 6 -14v-152q0 -8 -6 -14
q-7 -6 -15 -6h-37q-34 0 -51 -13q-18 -13 -23 -34t0 -48t15 -55z" />
    <glyph glyph-name="asciitilde" unicode="~" horiz-adv-x="1077" 
d="M73 578q-7 0 -13 6q-7 6 -7 14q2 94 20 176q18 81 53 140q35 58 89 92q53 34 125 34q85 0 142 -43q56 -44 98 -96q41 -52 75 -95q34 -44 74 -44q33 0 56 18q22 18 36 50q13 32 20 77q6 44 7 96q0 9 6 15t15 6h137q8 0 14 -6q6 -7 6 -14q-2 -96 -20 -175t-53 -134
q-35 -56 -88 -86q-53 -31 -124 -31q-83 0 -138 44q-56 43 -97 95q-42 52 -78 96q-37 43 -84 43q-31 0 -52 -19q-22 -19 -35 -53t-19 -82q-7 -48 -8 -104q-1 -8 -7 -14t-14 -6h-136z" />
    <glyph glyph-name="exclamdown" unicode="&#xa1;" horiz-adv-x="410" 
d="M311 1061q8 0 15 -6q6 -7 6 -15v-219q0 -8 -6 -14q-7 -6 -15 -6h-213q-8 0 -14 6t-6 14v219q0 8 6 15q6 6 14 6h213zM307 653q8 0 15 -6q6 -6 6 -14v-985q0 -8 -6 -15q-7 -6 -15 -6h-205q-8 0 -14 6q-6 7 -6 15v985q0 8 6 14t14 6h205z" />
    <glyph glyph-name="cent" unicode="&#xa2;" horiz-adv-x="1079" 
d="M694 20q0 -8 -6 -14t-14 -6h-207q-8 0 -14 6q-7 6 -7 14v172q-93 19 -165 65q-73 46 -122 115q-50 68 -76 159t-26 198t26 199q26 91 75 161q49 69 122 116t166 66v146q0 8 7 15q6 6 14 6h207q8 0 14 -6q6 -7 6 -15v-143q149 -28 238 -125q89 -98 105 -240q1 -7 -5 -13
q-6 -7 -14 -7h-188q-9 0 -16 6q-7 5 -8 14q-19 100 -80 150q-62 49 -148 49q-135 0 -201 -96q-66 -97 -66 -281q0 -190 66 -283t201 -94q98 -1 163 59q64 60 76 173q1 8 8 14q6 6 15 6h191q7 0 13 -6q6 -7 5 -14q-7 -74 -34 -139q-28 -66 -73 -116q-46 -51 -109 -87
t-139 -52v-172z" />
    <glyph glyph-name="sterling" unicode="&#xa3;" horiz-adv-x="1212" 
d="M1155 479q8 0 15 -6q6 -6 5 -14q-2 -128 -34 -220q-33 -93 -92 -150q-60 -58 -145 -84q-86 -26 -193 -23l-654 17q-8 1 -14 7t-6 14v146q0 9 6 17q5 7 13 9l40 13q89 26 121 85t35 126q0 51 -12 112q-13 60 -29 123h-186q-8 0 -14 7q-7 6 -7 14v139q0 8 7 14q6 6 14 6
h137q-13 54 -22 107t-9 100q0 92 34 170q33 78 96 134q62 56 153 88t204 32q103 0 190 -27t152 -81q65 -55 107 -138q41 -84 55 -196q1 -8 -4 -14q-6 -7 -14 -7h-204q-9 0 -16 6t-8 15q-15 109 -81 175q-67 65 -181 65q-56 0 -98 -18q-42 -19 -70 -50t-42 -71
q-15 -40 -15 -83q0 -50 9 -102q8 -53 22 -105h299q8 0 14 -6t6 -14v-139q0 -8 -6 -14q-6 -7 -14 -7h-254q12 -50 21 -100q8 -50 8 -100q0 -35 -10 -73q-11 -38 -33 -72t-56 -62q-35 -29 -82 -47l377 -13q69 -2 114 16t71 54q26 35 37 87q10 52 11 118q1 8 7 14t14 6h211z
" />
    <glyph glyph-name="currency" unicode="&#xa4;" horiz-adv-x="1112" 
d="M343 702q0 -55 18 -101q17 -46 47 -78q30 -33 71 -51q40 -19 87 -19q44 0 85 19q40 18 70 51q30 32 48 78t18 101q0 57 -18 104q-18 46 -48 78t-70 50q-41 18 -85 18q-47 0 -87 -18q-41 -18 -71 -50t-47 -78q-18 -47 -18 -104zM969 195q-5 -6 -13 -6q-9 0 -15 6l-166 170
q-46 -28 -99 -44t-110 -16q-58 0 -111 16t-98 44q-66 -71 -109 -113q-44 -43 -62 -60q-5 -4 -13 -4t-12 5l-91 96q-4 4 -4 12q0 7 5 12q17 16 59 59q42 42 107 111q-31 46 -48 103q-18 56 -18 116q0 61 18 119q18 57 50 105l-179 184q-5 6 -5 15q0 8 5 14l89 91q5 6 14 6
q8 0 14 -6l182 -190q45 29 98 45q52 15 109 15t109 -15t98 -43q65 69 108 113t61 61q5 5 13 5t13 -5l92 -95q4 -5 4 -13t-4 -12q-18 -18 -60 -61q-43 -43 -106 -109q32 -48 50 -105q18 -58 18 -119q0 -60 -18 -116q-18 -57 -50 -105l162 -165q5 -6 6 -15q0 -9 -6 -15z" />
    <glyph glyph-name="yen" unicode="&#xa5;" horiz-adv-x="1217" 
d="M1080 231q0 -8 -6 -14t-14 -6h-326l4 -191q0 -7 -6 -13q-6 -7 -14 -7h-221q-8 0 -14 7q-7 6 -6 13l3 191h-321q-8 0 -14 6q-7 6 -7 14v138q0 8 7 14q6 6 14 6h325l2 133h-327q-8 0 -14 7q-7 6 -7 14v137q0 8 7 14q6 6 14 6h270l-418 716q-3 6 0 12t10 6h244q9 0 18 -5
q8 -6 12 -14l324 -633l325 633q4 8 13 14q8 5 17 5h223q7 0 11 -6q3 -6 -1 -12l-418 -716h271q8 0 14 -6t6 -14v-137q0 -8 -6 -14q-6 -7 -14 -7h-330l2 -133h328q8 0 14 -6t6 -14v-138z" />
    <glyph glyph-name="brokenbar" unicode="&#xa6;" horiz-adv-x="319" 
d="M88 737q-8 0 -14 7q-6 6 -6 14v717q0 8 6 14t14 6h143q8 0 15 -6q6 -6 6 -14v-717q0 -8 -6 -14q-7 -7 -15 -7h-143zM88 -287q-8 0 -14 6q-6 7 -6 15v717q0 8 6 14t14 6h143q8 0 15 -6q6 -6 6 -14v-717q0 -8 -6 -15q-7 -6 -15 -6h-143z" />
    <glyph glyph-name="section" unicode="&#xa7;" horiz-adv-x="1225" 
d="M572 709q-114 -19 -183 -60q-69 -42 -69 -123q0 -47 30 -78q29 -32 79 -53q49 -22 114 -37t136 -30q118 19 185 63t67 113q0 47 -29 79q-30 32 -79 55q-50 22 -115 39q-65 16 -136 32zM1166 -51q0 -90 -41 -160t-112 -118q-71 -47 -168 -72t-209 -25q-121 0 -224 23
q-103 24 -178 69q-76 46 -121 115t-50 160q-1 7 6 13q6 7 13 7h199q9 0 15 -6t7 -14q7 -105 92 -154t241 -49q137 0 216 40q79 41 79 116q0 107 -132 146q-133 39 -291 77t-290 111q-133 73 -133 249q0 110 62 187q62 76 173 116q-50 20 -93 46t-74 60q-32 34 -50 79
t-18 102q0 92 36 163q36 70 103 118q66 47 161 72q95 24 212 24q112 0 207 -21q94 -22 164 -65q69 -43 111 -108q41 -65 49 -152q1 -8 -5 -14q-6 -7 -14 -7h-190q-9 0 -15 6q-7 6 -8 15q-13 90 -90 138t-213 48q-124 0 -198 -40q-75 -41 -75 -128q0 -100 133 -135
q132 -35 290 -70q158 -36 291 -107q132 -72 132 -245q0 -107 -64 -183q-65 -77 -173 -118q50 -20 94 -47t76 -64q31 -37 49 -86t18 -112z" />
    <glyph glyph-name="dieresis" unicode="&#xa8;" horiz-adv-x="1024" 
d="M240 1184q-8 0 -14 6q-7 6 -7 14v205q0 8 7 15q6 6 14 6h168q8 0 14 -6q6 -7 6 -15v-205q0 -8 -6 -14t-14 -6h-168zM616 1184q-8 0 -14 6t-6 14v205q0 8 6 15q6 6 14 6h168q8 0 15 -6q6 -7 6 -15v-205q0 -8 -6 -14q-7 -6 -15 -6h-168z" />
    <glyph glyph-name="copyright" unicode="&#xa9;" horiz-adv-x="1505" 
d="M1458 713q0 -165 -50 -302q-51 -138 -143 -235t-223 -151t-290 -54t-289 54q-131 54 -222 152q-92 97 -142 235t-50 303q0 170 50 309t142 236q91 96 222 149q130 53 289 53t290 -52t223 -148q92 -97 143 -236q50 -140 50 -313zM166 713q0 -147 40 -265q40 -119 115 -201
t185 -126q110 -45 248 -45t248 44q109 44 184 126q74 82 114 201q39 118 39 266q0 147 -39 267q-40 120 -114 204q-75 83 -184 129q-110 45 -250 45q-141 0 -250 -44q-110 -45 -184 -128q-75 -83 -113 -203q-39 -120 -39 -270zM1166 580q-34 -175 -139 -253
q-105 -79 -261 -79q-101 0 -183 34q-82 33 -138 94t-86 148q-31 87 -31 193q0 108 31 196t88 150q56 62 138 96q81 33 181 33q70 0 133 -16t114 -52q51 -37 88 -97t56 -147q1 -7 -4 -13q-5 -7 -12 -7h-118q-10 0 -17 6q-7 5 -9 14q-22 90 -82 135q-61 44 -151 44
q-128 0 -198 -91q-70 -92 -70 -249q0 -165 71 -253q70 -89 195 -89q100 0 162 53q61 52 78 150q2 9 9 15q7 5 16 5h122q7 0 13 -6q5 -7 4 -14z" />
    <glyph glyph-name="ordfeminine" unicode="&#xaa;" horiz-adv-x="889" 
d="M264 1053q0 -125 46 -196q45 -72 132 -71q86 0 135 67q48 66 48 198q1 124 -45 193q-47 68 -131 69q-93 1 -139 -69q-46 -71 -46 -191zM635 664q-8 0 -14 6t-6 14l3 59q-44 -46 -104 -72q-61 -26 -137 -26q-81 0 -143 32q-63 32 -105 87t-64 130t-22 161q0 82 23 156
q23 73 67 127q43 53 106 85q63 31 142 31q75 0 135 -22q59 -23 100 -66l-1 49q0 8 6 15q6 6 14 6h176q8 0 14 -6q6 -7 6 -15l-4 -354l4 -377q0 -8 -6 -14t-14 -6h-176z" />
    <glyph glyph-name="guillemotleft" unicode="&#xab;" horiz-adv-x="969" 
d="M351 164q-9 0 -18 5q-9 4 -15 11l-274 353q-5 7 -5 16t5 16l274 357q6 7 15 12q9 4 18 4h166q7 0 10 -5q2 -6 -2 -11l-286 -373l286 -369q4 -5 2 -10q-3 -6 -10 -6h-166zM744 164q-9 0 -18 5q-9 4 -15 11l-272 353q-5 7 -5 16t5 16l273 357q5 7 14 12q9 4 18 4h166
q7 0 10 -5q2 -6 -2 -11l-286 -373l286 -369q4 -5 2 -10q-3 -6 -10 -6h-166z" />
    <glyph glyph-name="logicalnot" unicode="&#xac;" horiz-adv-x="1096" 
d="M1020 213q0 -8 -6 -14q-7 -6 -15 -6h-151q-8 0 -14 6q-7 6 -7 14v395h-729q-8 0 -14 7q-6 6 -6 14v153q0 8 6 15q6 6 14 6h901q8 0 15 -6q6 -7 6 -15v-569z" />
    <glyph glyph-name="registered" unicode="&#xae;" horiz-adv-x="758" 
d="M717 1102q0 -79 -24 -144q-24 -66 -67 -112q-44 -46 -106 -72q-63 -26 -139 -26t-139 26q-64 26 -108 72t-68 112q-25 65 -25 144q0 82 24 148t68 112t108 71q63 25 140 25q76 0 138 -25t106 -71t68 -112t24 -148zM113 1102q0 -134 71 -211q70 -78 197 -78q125 0 196 78
q70 77 70 211q0 133 -69 212q-70 79 -197 79q-130 0 -199 -78q-69 -79 -69 -213zM457 1180q0 31 -20 45q-21 14 -58 14h-74v-117h74q34 0 56 14q22 13 22 44zM408 985l-52 72h-51v-133q0 -8 -6 -14q-6 -7 -14 -7h-47q-8 0 -14 7q-7 6 -7 14v360q0 8 7 15q6 6 14 6h137
q79 0 125 -31q45 -31 45 -92q0 -45 -25 -74t-69 -41l95 -147q4 -5 1 -11t-10 -6h-64q-9 0 -17 5q-9 5 -13 13z" />
    <glyph glyph-name="macron" unicode="&#xaf;" horiz-adv-x="1024" 
d="M215 1190q-8 0 -14 6t-6 14v136q0 8 6 14t14 6h592q8 0 14 -6t6 -14v-136q0 -8 -6 -14t-14 -6h-592z" />
    <glyph glyph-name="degree" unicode="&#xb0;" horiz-adv-x="725" 
d="M690 1141q0 -67 -25 -125t-69 -99q-44 -42 -104 -66t-130 -24q-69 0 -129 24t-103 66q-44 41 -68 99q-25 58 -25 125t25 125q24 57 68 99q43 42 103 66q60 23 129 23q71 0 131 -23q60 -24 104 -66q43 -42 68 -99q25 -58 25 -125zM207 1141q0 -80 43 -124t112 -44
q66 0 111 44t45 124q0 81 -45 125q-45 43 -111 43q-69 0 -112 -43q-43 -44 -43 -125z" />
    <glyph glyph-name="plusminus" unicode="&#xb1;" 
d="M1012 695q0 -8 -6 -14q-7 -7 -15 -7h-354v-395q0 -8 -6 -14q-7 -6 -15 -6h-151q-8 0 -14 6q-7 6 -7 14v395h-354q-8 0 -14 7q-6 6 -6 14v153q0 8 6 15q6 6 14 6h354v397q0 8 7 15q6 6 14 6h151q8 0 15 -6q6 -7 6 -15v-397h354q8 0 15 -6q6 -7 6 -15v-153zM90 0
q-8 0 -14 7q-6 6 -6 14v153q0 8 6 15q6 6 14 6h901q8 0 15 -6q6 -7 6 -15v-153q0 -8 -6 -14q-7 -7 -15 -7h-901z" />
    <glyph glyph-name="two.sups" unicode="&#xb2;" horiz-adv-x="631" 
d="M66 659q-8 0 -14 7q-7 6 -7 14v88q0 116 60 178q59 61 131 100q71 39 131 72q59 33 59 92q3 54 -26 84q-29 29 -81 29q-49 -1 -79 -34q-31 -34 -36 -97q-1 -9 -7 -15q-7 -6 -15 -6h-111q-7 0 -13 7q-7 6 -7 14q2 121 70 189q68 67 198 67q129 0 195 -62q65 -62 68 -172
q0 -107 -59 -165q-60 -59 -130 -96q-71 -38 -130 -70q-60 -33 -60 -87l358 -5q8 0 15 -6q6 -7 6 -15v-90q0 -8 -6 -14q-7 -7 -15 -7h-495z" />
    <glyph glyph-name="three.sups" unicode="&#xb3;" horiz-adv-x="639" 
d="M603 899q0 -60 -23 -107q-24 -47 -64 -78q-40 -32 -93 -48q-53 -17 -111 -17q-123 0 -190 60q-68 60 -80 174q-1 7 5 14q6 6 13 6h122q9 0 16 -5q6 -6 6 -15q4 -55 33 -86q28 -32 81 -31q49 0 81 34q32 33 32 91q3 66 -28 96q-32 29 -99 29h-43q-8 0 -14 6t-6 14v70
q0 8 6 14t14 6h43q60 0 89 29q28 29 28 72q0 44 -28 73q-29 29 -70 29q-48 0 -75 -25q-27 -26 -33 -75q-1 -9 -7 -15t-15 -6h-121q-7 0 -13 7t-5 14q10 104 83 161q72 56 194 56q113 0 183 -56t71 -143q0 -70 -37 -109q-37 -40 -90 -59q69 -18 107 -64q38 -47 38 -116z" />
    <glyph glyph-name="acute" unicode="&#xb4;" horiz-adv-x="1024" 
d="M343 1151q-8 -2 -16 2q-8 3 -11 11l-34 85q-3 7 1 16q3 8 10 11l460 209q7 3 15 0q8 -4 11 -11l50 -154q3 -7 -1 -15q-5 -8 -12 -10z" />
    <glyph glyph-name="uni00B5" unicode="&#xb5;" 
d="M317 -328q0 -8 -6 -14t-14 -6h-211q-8 0 -14 6t-6 14l4 770l-4 592q0 8 6 15q6 6 14 6h231q8 0 15 -6q6 -7 6 -15l-6 -428v-211q0 -111 54 -169t138 -58q47 0 91 20q43 20 78 60q35 39 60 101q24 61 31 143v114l-4 428q0 8 7 15q6 6 14 6h213q8 0 14 -6q6 -7 6 -15
l-6 -475l4 -539q0 -8 -6 -14t-14 -6h-199q-8 0 -14 7q-6 6 -6 13l4 134q-25 -37 -60 -69q-35 -33 -78 -57q-44 -25 -95 -39q-52 -14 -111 -14q-38 0 -72 6q-35 6 -66 17z" />
    <glyph glyph-name="paragraph" unicode="&#xb6;" horiz-adv-x="1376" 
d="M612 -360q-8 0 -14 6t-6 14l6 619l4 241h-18q-121 0 -219 31q-98 30 -166 89q-68 58 -105 145q-37 86 -37 198t36 197q36 84 104 141q67 56 166 85q98 28 221 28h684q8 0 14 -6q6 -7 6 -15l-12 -885l12 -868q0 -8 -6 -14t-14 -6h-221q-8 0 -14 6q-7 6 -7 14l8 625l2 235
h-192l2 -237l8 -623q0 -8 -6 -14t-14 -6h-222z" />
    <glyph glyph-name="periodcentered" unicode="&#xb7;" horiz-adv-x="369" 
d="M74 487q-8 0 -14 6q-7 6 -7 14v218q0 8 7 14q6 6 14 6h223q8 0 14 -6t6 -14v-218q0 -8 -6 -14t-14 -6h-223z" />
    <glyph glyph-name="cedilla" unicode="&#xb8;" horiz-adv-x="1024" 
d="M535 -343q-2 -7 -9 -12q-8 -5 -16 -3l-191 39q-7 1 -11 8q-4 8 -1 15l130 314q3 8 11 13q8 4 17 3l129 -17q8 -1 13 -8q4 -7 3 -15z" />
    <glyph glyph-name="one.sups" unicode="&#xb9;" horiz-adv-x="477" 
d="M231 659q-8 0 -14 7q-6 6 -6 14l8 377l-6 184q-28 -28 -66 -48q-38 -21 -81 -36q-7 -2 -13 3q-6 4 -6 11v94q0 10 6 17q5 7 13 11q49 19 86 50t60 72q4 9 13 14q8 5 18 5h126q8 0 14 -6q6 -7 6 -15l-10 -412l10 -321q0 -8 -6 -14q-7 -7 -14 -7h-138z" />
    <glyph glyph-name="ordmasculine" unicode="&#xba;" horiz-adv-x="881" 
d="M838 1053q0 -93 -26 -169q-27 -77 -77 -130q-50 -54 -124 -83q-74 -30 -169 -30q-96 0 -170 29q-75 28 -125 81q-51 53 -77 128q-27 75 -27 168q0 92 27 168q26 76 77 130q50 54 125 84q74 29 170 29q95 0 169 -29t124 -81q50 -53 77 -128q26 -76 26 -167zM264 1044
q0 -130 45 -196t133 -66q87 0 131 66q43 65 43 199q0 133 -44 202q-45 68 -132 68q-90 -1 -133 -70t-43 -203z" />
    <glyph glyph-name="guillemotright" unicode="&#xbb;" horiz-adv-x="969" 
d="M60 164q-6 0 -9 6q-3 5 1 10l287 369l-287 373q-4 5 -1 11q3 5 9 5h166q10 0 19 -4q9 -5 14 -12l272 -357q5 -7 5 -16t-5 -16l-272 -353q-5 -7 -14 -11q-9 -5 -19 -5h-166zM454 164q-7 0 -9 6q-3 5 1 10l286 369l-286 373q-4 5 -1 11q2 5 9 5h165q10 0 19 -4q9 -5 14 -12
l275 -357q5 -7 5 -16t-6 -16l-273 -353q-6 -7 -15 -11q-9 -5 -19 -5h-165z" />
    <glyph glyph-name="onequarter" unicode="&#xbc;" horiz-adv-x="1452" 
d="M231 659q-8 0 -14 7q-6 6 -6 14l8 377l-6 184q-28 -28 -66 -48q-38 -21 -81 -36q-7 -2 -13 3q-6 4 -6 11v94q0 10 6 17q5 7 13 11q49 19 86 50t60 72q4 9 13 14q8 5 18 5h126q8 0 14 -6q6 -7 6 -15l-10 -412l10 -321q0 -8 -6 -14q-7 -7 -14 -7h-138zM136 0q-7 0 -10 6
t1 11l936 1400q5 7 14 12t18 5h135q7 0 10 -6t-1 -11l-936 -1400q-4 -7 -13 -12t-18 -5h-136zM1430 193q0 -8 -6 -14q-7 -7 -15 -7h-61v-153q0 -8 -6 -14q-6 -7 -14 -7h-127q-8 0 -14 7q-7 6 -7 14v153h-326q-8 0 -14 7q-6 6 -6 14v109q0 9 3 20q3 10 8 17l269 418
q4 8 13 13t18 5h183q8 0 14 -6q6 -7 6 -15v-452h61q8 0 15 -6q6 -7 6 -15v-88zM1180 488l4 160l-217 -346h213v186z" />
    <glyph glyph-name="onehalf" unicode="&#xbd;" horiz-adv-x="1491" 
d="M231 659q-8 0 -14 7q-6 6 -6 14l8 377l-6 184q-28 -28 -66 -48q-38 -21 -81 -36q-7 -2 -13 3q-6 4 -6 11v94q0 10 6 17q5 7 13 11q49 19 86 50t60 72q4 9 13 14q8 5 18 5h126q8 0 14 -6q6 -7 6 -15l-10 -412l10 -321q0 -8 -6 -14q-7 -7 -14 -7h-138zM136 0q-7 0 -10 6
t1 11l936 1400q5 7 14 12t18 5h135q7 0 10 -6t-1 -11l-936 -1400q-4 -7 -13 -12t-18 -5h-136zM938 0q-8 0 -14 7q-7 6 -7 14v88q0 116 60 178q59 61 131 100q71 39 131 72q59 33 59 92q3 54 -26 84q-29 29 -81 29q-49 -1 -79 -34q-31 -34 -36 -97q-1 -9 -7 -15q-7 -6 -15 -6
h-111q-7 0 -13 7q-7 6 -7 14q2 121 70 189q68 67 198 67q129 0 195 -62q65 -62 68 -172q0 -107 -59 -165q-60 -59 -130 -96q-71 -38 -130 -70q-60 -33 -60 -87l358 -5q8 0 15 -6q6 -7 6 -15v-90q0 -8 -6 -14q-7 -7 -15 -7h-495z" />
    <glyph glyph-name="threequarters" unicode="&#xbe;" horiz-adv-x="1585" 
d="M603 899q0 -60 -23 -107q-24 -47 -64 -78q-40 -32 -93 -48q-53 -17 -111 -17q-123 0 -190 60q-68 60 -80 174q-1 7 5 14q6 6 13 6h122q9 0 16 -5q6 -6 6 -15q4 -55 33 -86q28 -32 81 -31q49 0 81 34q32 33 32 91q3 66 -28 96q-32 29 -99 29h-43q-8 0 -14 6t-6 14v70
q0 8 6 14t14 6h43q60 0 89 29q28 29 28 72q0 44 -28 73q-29 29 -70 29q-48 0 -75 -25q-27 -26 -33 -75q-1 -9 -7 -15t-15 -6h-121q-7 0 -13 7t-5 14q10 104 83 161q72 56 194 56q113 0 183 -56t71 -143q0 -70 -37 -109q-37 -40 -90 -59q69 -18 107 -64q38 -47 38 -116z
M269 0q-7 0 -10 6t1 11l936 1400q5 7 14 12t18 5h135q7 0 10 -6t-1 -11l-936 -1400q-4 -7 -13 -12t-18 -5h-136zM1563 193q0 -8 -6 -14q-7 -7 -15 -7h-61v-153q0 -8 -6 -14q-6 -7 -14 -7h-127q-8 0 -14 7q-7 6 -7 14v153h-326q-8 0 -14 7q-6 6 -6 14v109q0 9 3 20q3 10 8 17
l269 418q4 8 13 13t18 5h183q8 0 14 -6q6 -7 6 -15v-452h61q8 0 15 -6q6 -7 6 -15v-88zM1313 488l4 160l-217 -346h213v186z" />
    <glyph glyph-name="questiondown" unicode="&#xbf;" horiz-adv-x="1018" 
d="M623 1055q8 0 14 -6q6 -7 6 -15v-219q0 -8 -6 -14t-14 -6h-215q-8 0 -14 6q-7 6 -7 14v219q0 8 7 15q6 6 14 6h215zM617 647q7 0 14 -6q6 -7 6 -14q-4 -147 -60 -236q-56 -90 -120 -152q-65 -63 -118 -117q-54 -54 -54 -132q0 -99 64 -154q64 -54 165 -55q122 -1 181 61
t64 187q1 8 7 14t15 6h196q8 0 14 -6q6 -7 5 -14q-13 -207 -140 -317q-127 -109 -354 -109q-98 0 -183 26t-147 76t-97 123q-36 74 -36 168q0 118 53 187t117 128q64 58 120 128q55 69 60 188q0 8 7 14q6 6 14 6h207z" />
    <glyph glyph-name="Agrave" unicode="&#xc0;" horiz-adv-x="1319" 
d="M868 602l-217 655l-211 -655h428zM1090 0q-9 0 -17 6q-8 5 -10 13l-125 374h-565l-121 -374q-3 -8 -10 -13q-8 -6 -17 -6h-215q-7 0 -12 6q-4 6 -1 13l492 1395q3 8 11 14q7 6 16 6h293q9 0 17 -6q7 -6 10 -14l486 -1395q3 -7 -1 -13q-5 -6 -12 -6h-219zM866 1543
q-3 -8 -11 -11q-9 -4 -16 -2l-473 144q-8 2 -12 10t-1 15l50 156q3 7 11 11q7 3 14 0l461 -211q7 -3 11 -11q3 -9 0 -16z" />
    <glyph glyph-name="Aacute" unicode="&#xc1;" horiz-adv-x="1319" 
d="M868 602l-217 655l-211 -655h428zM1090 0q-9 0 -17 6q-8 5 -10 13l-125 374h-565l-121 -374q-3 -8 -10 -13q-8 -6 -17 -6h-215q-7 0 -12 6q-4 6 -1 13l492 1395q3 8 11 14q7 6 16 6h293q9 0 17 -6q7 -6 10 -14l486 -1395q3 -7 -1 -13q-5 -6 -12 -6h-219zM488 1530
q-8 -2 -16 2q-8 3 -11 11l-34 85q-3 7 1 16q3 8 10 11l460 209q7 3 15 0q8 -4 11 -11l50 -154q3 -7 -1 -15q-5 -8 -12 -10z" />
    <glyph glyph-name="Acircumflex" unicode="&#xc2;" horiz-adv-x="1319" 
d="M868 602l-217 655l-211 -655h428zM1090 0q-9 0 -17 6q-8 5 -10 13l-125 374h-565l-121 -374q-3 -8 -10 -13q-8 -6 -17 -6h-215q-7 0 -12 6q-4 6 -1 13l492 1395q3 8 11 14q7 6 16 6h293q9 0 17 -6q7 -6 10 -14l486 -1395q3 -7 -1 -13q-5 -6 -12 -6h-219zM971 1545
q-3 -7 -11 -10q-8 -4 -15 0l-289 140l-291 -140q-7 -4 -15 0q-8 3 -11 10l-34 89q-3 8 0 17t10 13l273 182q7 5 18 9q10 3 19 3h62q9 0 20 -3q10 -4 17 -9l273 -182q7 -4 10 -13t0 -17z" />
    <glyph glyph-name="Atilde" unicode="&#xc3;" horiz-adv-x="1319" 
d="M868 602l-217 655l-211 -655h428zM1090 0q-9 0 -17 6q-8 5 -10 13l-125 374h-565l-121 -374q-3 -8 -10 -13q-8 -6 -17 -6h-215q-7 0 -12 6q-4 6 -1 13l492 1395q3 8 11 14q7 6 16 6h293q9 0 17 -6q7 -6 10 -14l486 -1395q3 -7 -1 -13q-5 -6 -12 -6h-219zM964 1802
q-4 -110 -50 -176q-46 -67 -136 -67q-47 0 -80 19q-33 18 -58 40q-26 22 -48 41q-22 18 -48 18q-33 0 -47 -25q-15 -26 -18 -69q0 -8 -6 -14q-7 -6 -15 -6h-88q-8 0 -14 7q-6 6 -6 13q2 52 15 97q12 45 35 78q23 32 58 51q35 18 82 18q45 0 78 -18q32 -19 57 -41
q25 -23 47 -41q21 -19 44 -19q35 0 51 26q15 26 18 68q0 9 7 15q6 6 14 6h88q8 0 14 -6q6 -7 6 -15z" />
    <glyph glyph-name="Adieresis" unicode="&#xc4;" horiz-adv-x="1319" 
d="M868 602l-217 655l-211 -655h428zM1090 0q-9 0 -17 6q-8 5 -10 13l-125 374h-565l-121 -374q-3 -8 -10 -13q-8 -6 -17 -6h-215q-7 0 -12 6q-4 6 -1 13l492 1395q3 8 11 14q7 6 16 6h293q9 0 17 -6q7 -6 10 -14l486 -1395q3 -7 -1 -13q-5 -6 -12 -6h-219zM387 1563
q-8 0 -14 6q-7 6 -7 14v205q0 8 7 15q6 6 14 6h168q8 0 14 -6q6 -7 6 -15v-205q0 -8 -6 -14t-14 -6h-168zM763 1563q-8 0 -14 6t-6 14v205q0 8 6 15q6 6 14 6h168q8 0 15 -6q6 -7 6 -15v-205q0 -8 -6 -14q-7 -6 -15 -6h-168z" />
    <glyph glyph-name="Aring" unicode="&#xc5;" horiz-adv-x="1319" 
d="M868 602l-217 655l-211 -655h428zM1090 0q-9 0 -17 6q-8 5 -10 13l-125 374h-565l-121 -374q-3 -8 -10 -13q-8 -6 -17 -6h-215q-7 0 -12 6q-4 6 -1 13l492 1395q3 8 11 14q7 6 16 6h293q9 0 17 -6q7 -6 10 -14l486 -1395q3 -7 -1 -13q-5 -6 -12 -6h-219zM904 1772
q0 -49 -18 -91q-19 -42 -51 -73q-33 -31 -77 -48q-45 -18 -96 -18q-52 0 -97 18q-45 17 -77 48q-33 31 -51 73q-19 42 -19 91t19 91q18 42 51 73q32 30 77 48q45 17 97 17q51 0 96 -17q44 -18 77 -48q32 -31 51 -73q18 -42 18 -91zM551 1772q0 -64 31 -100t80 -36
q47 0 79 36t32 100q0 66 -32 101q-32 34 -79 34q-49 0 -80 -34q-31 -35 -31 -101z" />
    <glyph glyph-name="AE" unicode="&#xc6;" horiz-adv-x="1808" 
d="M909 727l-8 526h-53l-313 -651h372zM920 0q-8 0 -14 7q-7 6 -7 13l6 373h-471l-181 -375q-4 -7 -12 -12q-9 -6 -18 -6h-215q-7 0 -11 6q-3 6 0 12l698 1397q4 8 13 14q8 5 17 5h1004q8 0 14 -6q6 -7 6 -15v-156q0 -8 -6 -14t-14 -6h-574l-8 -379h526q8 0 15 -6
q6 -6 6 -14v-156q0 -8 -6 -14q-7 -6 -15 -6h-526l8 -465h590q8 0 14 -6q6 -7 6 -15v-156q0 -8 -6 -14t-14 -6h-825z" />
    <glyph glyph-name="Ccedilla" unicode="&#xc7;" horiz-adv-x="1399" 
d="M1363 508q-25 -141 -80 -243t-135 -167q-81 -65 -185 -96q-105 -31 -228 -31q-160 0 -289 54q-129 53 -218 150t-137 235q-48 137 -48 305q0 169 49 308q48 139 138 236q89 97 218 150q128 53 285 53q111 0 212 -26q100 -26 181 -85t140 -156q58 -97 86 -237q1 -7 -4 -13
q-5 -7 -13 -7h-204q-9 0 -16 6q-7 5 -9 14q-33 149 -131 226q-98 76 -246 76q-102 0 -182 -38t-134 -108q-54 -71 -82 -172q-28 -102 -28 -227q0 -130 29 -231q29 -102 84 -170q54 -68 134 -104q79 -36 179 -36q162 0 260 87q97 86 124 247q1 9 8 15q7 5 16 5h209q7 0 13 -6
q5 -7 4 -14zM728 -343q-2 -7 -9 -12q-8 -5 -16 -3l-191 39q-7 1 -11 8q-4 8 -1 15l130 314q3 8 11 13q8 4 17 3l129 -17q8 -1 13 -8q4 -7 3 -15z" />
    <glyph glyph-name="Egrave" unicode="&#xc8;" horiz-adv-x="1096" 
d="M102 0q-8 0 -14 7q-6 6 -6 13l10 707l-10 686q0 8 6 15q6 6 14 6h914q8 0 14 -6q6 -7 6 -15v-156q0 -8 -6 -14t-14 -6h-676l-10 -379h631q8 0 14 -6t6 -14v-156q0 -8 -6 -14t-14 -6h-631l10 -465h692q8 0 15 -6q6 -7 6 -15v-156q0 -8 -6 -14q-7 -6 -15 -6h-930zM786 1543
q-3 -8 -11 -11q-9 -4 -16 -2l-473 144q-8 2 -12 10t-1 15l50 156q3 7 11 11q7 3 14 0l461 -211q7 -3 11 -11q3 -9 0 -16z" />
    <glyph glyph-name="Eacute" unicode="&#xc9;" horiz-adv-x="1096" 
d="M102 0q-8 0 -14 7q-6 6 -6 13l10 707l-10 686q0 8 6 15q6 6 14 6h914q8 0 14 -6q6 -7 6 -15v-156q0 -8 -6 -14t-14 -6h-676l-10 -379h631q8 0 14 -6t6 -14v-156q0 -8 -6 -14t-14 -6h-631l10 -465h692q8 0 15 -6q6 -7 6 -15v-156q0 -8 -6 -14q-7 -6 -15 -6h-930zM431 1530
q-8 -2 -16 2q-8 3 -11 11l-34 85q-3 7 1 16q3 8 10 11l460 209q7 3 15 0q8 -4 11 -11l50 -154q3 -7 -1 -15q-5 -8 -12 -10z" />
    <glyph glyph-name="Ecircumflex" unicode="&#xca;" horiz-adv-x="1096" 
d="M102 0q-8 0 -14 7q-6 6 -6 13l10 707l-10 686q0 8 6 15q6 6 14 6h914q8 0 14 -6q6 -7 6 -15v-156q0 -8 -6 -14t-14 -6h-676l-10 -379h631q8 0 14 -6t6 -14v-156q0 -8 -6 -14t-14 -6h-631l10 -465h692q8 0 15 -6q6 -7 6 -15v-156q0 -8 -6 -14q-7 -6 -15 -6h-930zM914 1545
q-3 -7 -11 -10q-8 -4 -15 0l-289 140l-291 -140q-7 -4 -15 0q-8 3 -11 10l-34 89q-3 8 0 17t10 13l273 182q7 5 18 9q10 3 19 3h62q9 0 20 -3q10 -4 17 -9l273 -182q7 -4 10 -13t0 -17z" />
    <glyph glyph-name="Edieresis" unicode="&#xcb;" horiz-adv-x="1096" 
d="M102 0q-8 0 -14 7q-6 6 -6 13l10 707l-10 686q0 8 6 15q6 6 14 6h914q8 0 14 -6q6 -7 6 -15v-156q0 -8 -6 -14t-14 -6h-676l-10 -379h631q8 0 14 -6t6 -14v-156q0 -8 -6 -14t-14 -6h-631l10 -465h692q8 0 15 -6q6 -7 6 -15v-156q0 -8 -6 -14q-7 -6 -15 -6h-930zM328 1563
q-8 0 -14 6q-7 6 -7 14v205q0 8 7 15q6 6 14 6h168q8 0 14 -6q6 -7 6 -15v-205q0 -8 -6 -14t-14 -6h-168zM704 1563q-8 0 -14 6t-6 14v205q0 8 6 15q6 6 14 6h168q8 0 15 -6q6 -7 6 -15v-205q0 -8 -6 -14q-7 -6 -15 -6h-168z" />
    <glyph glyph-name="Igrave" unicode="&#xcc;" horiz-adv-x="440" 
d="M113 0q-8 0 -14 7q-7 6 -7 13l10 703l-10 690q0 8 7 15q6 6 14 6h215q8 0 14 -6q6 -7 6 -15l-10 -690l10 -703q0 -7 -6 -13q-6 -7 -14 -7h-215zM411 1543q-3 -8 -11 -11q-9 -4 -16 -2l-473 144q-8 2 -12 10t-1 15l50 156q3 7 10 11q8 3 15 0l461 -211q7 -3 11 -11
q3 -9 0 -16z" />
    <glyph glyph-name="Iacute" unicode="&#xcd;" horiz-adv-x="440" 
d="M113 0q-8 0 -14 7q-7 6 -7 13l10 703l-10 690q0 8 7 15q6 6 14 6h215q8 0 14 -6q6 -7 6 -15l-10 -690l10 -703q0 -7 -6 -13q-6 -7 -14 -7h-215zM56 1530q-8 -2 -16 2q-8 3 -11 11l-34 85q-3 7 0 16q4 8 11 11l460 209q7 3 15 0q8 -4 11 -11l50 -154q3 -7 -1 -15
q-5 -8 -12 -10z" />
    <glyph glyph-name="Icircumflex" unicode="&#xce;" horiz-adv-x="440" 
d="M113 0q-8 0 -14 7q-7 6 -7 13l10 703l-10 690q0 8 7 15q6 6 14 6h215q8 0 14 -6q6 -7 6 -15l-10 -690l10 -703q0 -7 -6 -13q-6 -7 -14 -7h-215zM537 1545q-3 -7 -11 -10q-8 -4 -15 0l-289 140l-291 -140q-7 -4 -15 0q-8 3 -11 10l-34 89q-3 8 0 17t10 13l273 182
q7 5 18 9q10 3 19 3h62q9 0 20 -3q10 -4 17 -9l273 -182q7 -4 10 -13t0 -17z" />
    <glyph glyph-name="Idieresis" unicode="&#xcf;" horiz-adv-x="440" 
d="M113 0q-8 0 -14 7q-7 6 -7 13l10 703l-10 690q0 8 7 15q6 6 14 6h215q8 0 14 -6q6 -7 6 -15l-10 -690l10 -703q0 -7 -6 -13q-6 -7 -14 -7h-215zM-49 1563q-8 0 -15 6q-6 6 -6 14v205q0 8 6 15q7 6 15 6h168q8 0 14 -6q6 -7 6 -15v-205q0 -8 -6 -14t-14 -6h-168zM327 1563
q-8 0 -14 6t-6 14v205q0 8 6 15q6 6 14 6h168q8 0 15 -6q6 -7 6 -15v-205q0 -8 -6 -14q-7 -6 -15 -6h-168z" />
    <glyph glyph-name="Eth" unicode="&#xd0;" horiz-adv-x="1399" 
d="M135 0q-8 0 -14 7q-6 6 -6 13l9 639h-110q-8 0 -14 7q-6 6 -6 14v156q0 8 6 14t14 6h109l-8 557q0 8 6 15q6 6 14 6h479q154 0 290 -44q136 -45 236 -134t158 -226t58 -319q0 -187 -60 -322t-161 -221t-235 -127q-135 -41 -282 -41h-483zM635 197q90 0 174 29t148 91
t103 161q38 98 38 235q0 133 -37 232t-100 164q-64 64 -150 96t-184 32h-254q0 -1 -1 -35q-1 -35 -2 -89q-2 -55 -3 -123t-2 -134h391q8 0 14 -6t6 -14v-156q0 -8 -6 -14q-6 -7 -14 -7h-391q0 -73 2 -154q1 -82 3 -150q1 -68 2 -113l1 -45h262z" />
    <glyph glyph-name="Ntilde" unicode="&#xd1;" horiz-adv-x="1366" 
d="M319 614v-594q0 -8 -6 -14t-14 -6h-197q-8 0 -14 7q-6 6 -6 13l8 701l-8 692q0 8 6 15q6 6 14 6h260q10 0 19 -5q8 -5 13 -13l663 -1099l-2 78l-8 379l-2 639q0 8 6 15q6 6 14 6h199q8 0 14 -6q6 -7 6 -15l-10 -692l8 -701q0 -7 -6 -13q-6 -7 -14 -7h-271q-9 0 -18 5
t-13 13l-653 1082l4 -111zM995 1802q-4 -110 -50 -176q-46 -67 -136 -67q-47 0 -80 19q-33 18 -58 40q-26 22 -48 41q-22 18 -48 18q-33 0 -47 -25q-15 -26 -18 -69q0 -8 -6 -14q-7 -6 -15 -6h-88q-8 0 -14 7q-6 6 -6 13q2 52 15 97q12 45 35 78q23 32 58 51q35 18 82 18
q45 0 78 -18q32 -19 57 -41q25 -23 47 -41q21 -19 44 -19q35 0 51 26q15 26 18 68q0 9 7 15q6 6 14 6h88q8 0 14 -6q6 -7 6 -15z" />
    <glyph glyph-name="Ograve" unicode="&#xd2;" horiz-adv-x="1497" 
d="M1452 713q0 -165 -50 -302q-51 -138 -142 -235q-92 -97 -222 -151q-131 -54 -290 -54t-289 54q-131 54 -223 152q-92 97 -142 235q-51 138 -51 303q0 170 50 309t142 236q91 96 222 149t291 53q158 0 289 -52q130 -52 222 -148q92 -97 143 -236q50 -140 50 -313zM303 713
q0 -125 31 -225q30 -100 87 -169q57 -70 141 -107q83 -38 188 -38q104 0 187 37t140 107q57 69 87 170q30 100 30 225t-30 227t-86 173q-57 70 -140 109q-84 38 -190 38t-189 -37q-84 -38 -140 -108q-57 -70 -86 -172q-30 -102 -30 -230zM929 1543q-3 -8 -11 -11
q-9 -4 -16 -2l-473 144q-8 2 -12 10t-1 15l50 156q3 7 11 11q7 3 14 0l461 -211q7 -3 11 -11q3 -9 0 -16z" />
    <glyph glyph-name="Oacute" unicode="&#xd3;" horiz-adv-x="1497" 
d="M1452 713q0 -165 -50 -302q-51 -138 -142 -235q-92 -97 -222 -151q-131 -54 -290 -54t-289 54q-131 54 -223 152q-92 97 -142 235q-51 138 -51 303q0 170 50 309t142 236q91 96 222 149t291 53q158 0 289 -52q130 -52 222 -148q92 -97 143 -236q50 -140 50 -313zM303 713
q0 -125 31 -225q30 -100 87 -169q57 -70 141 -107q83 -38 188 -38q104 0 187 37t140 107q57 69 87 170q30 100 30 225t-30 227t-86 173q-57 70 -140 109q-84 38 -190 38t-189 -37q-84 -38 -140 -108q-57 -70 -86 -172q-30 -102 -30 -230zM572 1530q-8 -2 -16 2q-8 3 -11 11
l-34 85q-3 7 1 16q3 8 10 11l460 209q7 3 15 0q8 -4 11 -11l50 -154q3 -7 -1 -15q-5 -8 -12 -10z" />
    <glyph glyph-name="Ocircumflex" unicode="&#xd4;" horiz-adv-x="1497" 
d="M1452 713q0 -165 -50 -302q-51 -138 -142 -235q-92 -97 -222 -151q-131 -54 -290 -54t-289 54q-131 54 -223 152q-92 97 -142 235q-51 138 -51 303q0 170 50 309t142 236q91 96 222 149t291 53q158 0 289 -52q130 -52 222 -148q92 -97 143 -236q50 -140 50 -313zM303 713
q0 -125 31 -225q30 -100 87 -169q57 -70 141 -107q83 -38 188 -38q104 0 187 37t140 107q57 69 87 170q30 100 30 225t-30 227t-86 173q-57 70 -140 109q-84 38 -190 38t-189 -37q-84 -38 -140 -108q-57 -70 -86 -172q-30 -102 -30 -230zM1055 1545q-3 -7 -11 -10
q-8 -4 -15 0l-289 140l-291 -140q-7 -4 -15 0q-8 3 -11 10l-34 89q-3 8 0 17t10 13l273 182q7 5 18 9q10 3 19 3h62q9 0 20 -3q10 -4 17 -9l273 -182q7 -4 10 -13t0 -17z" />
    <glyph glyph-name="Otilde" unicode="&#xd5;" horiz-adv-x="1497" 
d="M1452 713q0 -165 -50 -302q-51 -138 -142 -235q-92 -97 -222 -151q-131 -54 -290 -54t-289 54q-131 54 -223 152q-92 97 -142 235q-51 138 -51 303q0 170 50 309t142 236q91 96 222 149t291 53q158 0 289 -52q130 -52 222 -148q92 -97 143 -236q50 -140 50 -313zM303 713
q0 -125 31 -225q30 -100 87 -169q57 -70 141 -107q83 -38 188 -38q104 0 187 37t140 107q57 69 87 170q30 100 30 225t-30 227t-86 173q-57 70 -140 109q-84 38 -190 38t-189 -37q-84 -38 -140 -108q-57 -70 -86 -172q-30 -102 -30 -230zM1048 1802q-4 -110 -50 -176
q-46 -67 -136 -67q-47 0 -80 19q-33 18 -58 40q-26 22 -48 41q-22 18 -48 18q-33 0 -47 -25q-15 -26 -18 -69q0 -8 -6 -14q-7 -6 -15 -6h-88q-8 0 -14 7q-6 6 -6 13q2 52 15 97q12 45 35 78q23 32 58 51q35 18 82 18q45 0 78 -18q32 -19 57 -41q25 -23 47 -41q21 -19 44 -19
q35 0 51 26q15 26 18 68q0 9 7 15q6 6 14 6h88q8 0 14 -6q6 -7 6 -15z" />
    <glyph glyph-name="Odieresis" unicode="&#xd6;" horiz-adv-x="1497" 
d="M1452 713q0 -165 -50 -302q-51 -138 -142 -235q-92 -97 -222 -151q-131 -54 -290 -54t-289 54q-131 54 -223 152q-92 97 -142 235q-51 138 -51 303q0 170 50 309t142 236q91 96 222 149t291 53q158 0 289 -52q130 -52 222 -148q92 -97 143 -236q50 -140 50 -313zM303 713
q0 -125 31 -225q30 -100 87 -169q57 -70 141 -107q83 -38 188 -38q104 0 187 37t140 107q57 69 87 170q30 100 30 225t-30 227t-86 173q-57 70 -140 109q-84 38 -190 38t-189 -37q-84 -38 -140 -108q-57 -70 -86 -172q-30 -102 -30 -230zM471 1563q-8 0 -14 6q-7 6 -7 14
v205q0 8 7 15q6 6 14 6h168q8 0 14 -6q6 -7 6 -15v-205q0 -8 -6 -14t-14 -6h-168zM847 1563q-8 0 -14 6t-6 14v205q0 8 6 15q6 6 14 6h168q8 0 15 -6q6 -7 6 -15v-205q0 -8 -6 -14q-7 -6 -15 -6h-168z" />
    <glyph glyph-name="multiply" unicode="&#xd7;" 
d="M850 289q-6 -6 -14 -6q-9 0 -15 6l-280 282l-283 -282q-6 -6 -14 -6q-9 0 -14 6l-103 108q-6 6 -6 15q0 8 6 14l279 281l-279 280q-6 6 -6 15q0 8 6 14l103 108q5 6 14 6q8 0 14 -6l283 -284l282 284q6 6 15 6q8 0 14 -6l103 -108q5 -6 5 -14q0 -9 -6 -15l-280 -280
l278 -281q6 -6 6 -14q0 -9 -5 -15z" />
    <glyph glyph-name="Oslash" unicode="&#xd8;" horiz-adv-x="1497" 
d="M303 713q0 -90 16 -167q15 -77 45 -138l653 765q-53 42 -120 65q-68 22 -149 22q-106 0 -189 -37q-84 -38 -140 -108q-57 -70 -86 -172q-30 -102 -30 -230zM750 174q104 0 187 37t140 107q57 69 87 170q30 100 30 225q0 93 -16 174q-17 80 -49 143l-655 -765
q54 -44 124 -67q69 -24 152 -24zM212 -83q-5 -6 -13 -7q-9 0 -15 6l-128 125q-6 6 -6 15q-1 8 4 15l135 161q-70 94 -108 217t-38 266q0 170 50 309t142 236q91 96 222 149t291 53q113 0 214 -27q100 -28 181 -79l140 166q5 7 14 7q8 0 14 -5l128 -125q6 -6 7 -15
q0 -9 -5 -15l-137 -162q71 -93 110 -218q38 -126 38 -276q0 -165 -50 -302q-51 -138 -142 -235q-92 -97 -222 -151q-131 -54 -290 -54q-115 0 -215 28q-101 29 -182 82z" />
    <glyph glyph-name="Ugrave" unicode="&#xd9;" horiz-adv-x="1249" 
d="M1178 537q0 -135 -34 -241q-35 -106 -103 -178q-69 -72 -172 -109q-103 -38 -240 -38q-138 0 -243 38q-105 37 -174 109q-70 72 -105 178q-36 106 -35 241l2 415l-8 461q0 8 6 15q6 6 14 6h223q8 0 15 -6q6 -7 5 -15l-7 -455l2 -419q0 -167 73 -263q72 -96 232 -96
q168 0 244 96q75 96 75 263v413l-6 461q0 8 7 15q6 6 14 6h200q8 0 15 -6q6 -7 5 -15l-5 -461v-415zM811 1543q-3 -8 -11 -11q-9 -4 -16 -2l-473 144q-8 2 -12 10t-1 15l50 156q3 7 11 11q7 3 14 0l461 -211q7 -3 11 -11q3 -9 0 -16z" />
    <glyph glyph-name="Uacute" unicode="&#xda;" horiz-adv-x="1249" 
d="M1178 537q0 -135 -34 -241q-35 -106 -103 -178q-69 -72 -172 -109q-103 -38 -240 -38q-138 0 -243 38q-105 37 -174 109q-70 72 -105 178q-36 106 -35 241l2 415l-8 461q0 8 6 15q6 6 14 6h223q8 0 15 -6q6 -7 5 -15l-7 -455l2 -419q0 -167 73 -263q72 -96 232 -96
q168 0 244 96q75 96 75 263v413l-6 461q0 8 7 15q6 6 14 6h200q8 0 15 -6q6 -7 5 -15l-5 -461v-415zM468 1530q-8 -2 -16 2q-8 3 -11 11l-34 85q-3 7 1 16q3 8 10 11l460 209q7 3 15 0q8 -4 11 -11l50 -154q3 -7 -1 -15q-5 -8 -12 -10z" />
    <glyph glyph-name="Ucircumflex" unicode="&#xdb;" horiz-adv-x="1249" 
d="M1178 537q0 -135 -34 -241q-35 -106 -103 -178q-69 -72 -172 -109q-103 -38 -240 -38q-138 0 -243 38q-105 37 -174 109q-70 72 -105 178q-36 106 -35 241l2 415l-8 461q0 8 6 15q6 6 14 6h223q8 0 15 -6q6 -7 5 -15l-7 -455l2 -419q0 -167 73 -263q72 -96 232 -96
q168 0 244 96q75 96 75 263v413l-6 461q0 8 7 15q6 6 14 6h200q8 0 15 -6q6 -7 5 -15l-5 -461v-415zM939 1545q-3 -7 -11 -10q-8 -4 -15 0l-289 140l-291 -140q-7 -4 -15 0q-8 3 -11 10l-34 89q-3 8 0 17t10 13l273 182q7 5 18 9q10 3 19 3h62q9 0 20 -3q10 -4 17 -9
l273 -182q7 -4 10 -13t0 -17z" />
    <glyph glyph-name="Udieresis" unicode="&#xdc;" horiz-adv-x="1249" 
d="M1178 537q0 -135 -34 -241q-35 -106 -103 -178q-69 -72 -172 -109q-103 -38 -240 -38q-138 0 -243 38q-105 37 -174 109q-70 72 -105 178q-36 106 -35 241l2 415l-8 461q0 8 6 15q6 6 14 6h223q8 0 15 -6q6 -7 5 -15l-7 -455l2 -419q0 -167 73 -263q72 -96 232 -96
q168 0 244 96q75 96 75 263v413l-6 461q0 8 7 15q6 6 14 6h200q8 0 15 -6q6 -7 5 -15l-5 -461v-415zM353 1563q-8 0 -14 6q-7 6 -7 14v205q0 8 7 15q6 6 14 6h168q8 0 14 -6q6 -7 6 -15v-205q0 -8 -6 -14t-14 -6h-168zM729 1563q-8 0 -14 6t-6 14v205q0 8 6 15q6 6 14 6h168
q8 0 15 -6q6 -7 6 -15v-205q0 -8 -6 -14q-7 -6 -15 -6h-168z" />
    <glyph glyph-name="Yacute" unicode="&#xdd;" horiz-adv-x="1188" 
d="M723 20q0 -7 -6 -13q-7 -7 -15 -7h-219q-8 0 -14 7q-6 6 -6 13l8 469l-476 926q-3 7 0 13q4 6 11 6h244q9 0 17 -5q8 -6 12 -14l325 -702l327 702q4 8 12 14q8 5 18 5h221q7 0 11 -6q3 -6 0 -13l-478 -928zM417 1530q-8 -2 -16 2q-8 3 -11 11l-34 85q-3 7 1 16q3 8 10 11
l460 209q7 3 15 0q8 -4 11 -11l50 -154q3 -7 -1 -15q-5 -8 -12 -10z" />
    <glyph glyph-name="Thorn" unicode="&#xde;" horiz-adv-x="1165" 
d="M1133 727q0 -112 -37 -198q-37 -87 -105 -145q-68 -59 -166 -89q-98 -31 -219 -31h-270l4 -244q0 -7 -6 -13q-7 -7 -15 -7h-217q-8 0 -14 7q-6 6 -6 13l8 705l-8 688q0 8 6 15q6 6 14 6h217q8 0 15 -6q6 -7 6 -15l-4 -235h270q123 0 222 -28q98 -29 166 -85
q67 -57 103 -141q36 -85 36 -197zM330 702l4 -245h289q57 0 106 15t85 47q35 31 55 82t20 122q0 133 -72 198q-73 64 -203 64h-280z" />
    <glyph glyph-name="germandbls" unicode="&#xdf;" horiz-adv-x="1151" 
d="M326 469l7 -449q1 -7 -5 -13q-7 -7 -15 -7h-213q-8 0 -14 7q-6 6 -6 13l8 449v543q0 121 38 206t103 138q65 52 154 76q88 24 188 24q106 0 190 -25q83 -26 141 -74q57 -48 88 -117q31 -70 32 -157q0 -59 -18 -108q-19 -49 -51 -85q-33 -37 -79 -62t-100 -37
q84 -13 147 -45q62 -32 103 -78q40 -46 60 -106q20 -61 20 -130q0 -105 -40 -186q-41 -81 -110 -135q-70 -55 -164 -83q-95 -28 -202 -28h-60q-8 0 -14 6t-6 14v146q0 8 6 14t14 6h60q122 0 191 58q68 58 71 182q1 124 -74 187t-205 63h-43q-8 0 -14 6t-6 14v131q0 8 6 15
q6 6 14 6h43q110 0 158 58q47 58 47 153q0 105 -58 158t-159 53q-50 0 -93 -14t-74 -45t-48 -82q-18 -51 -18 -125v-535z" />
    <glyph glyph-name="agrave" unicode="&#xe0;" horiz-adv-x="1126" 
d="M293 541q0 -184 66 -285q66 -102 194 -102q124 0 194 92q69 92 70 274t-66 281q-68 99 -192 100q-67 1 -117 -24q-51 -25 -83 -71q-33 -46 -49 -113q-17 -68 -17 -152zM827 0q-8 0 -14 7q-6 6 -6 13l4 125q-54 -78 -136 -121q-82 -44 -188 -44q-109 0 -193 42t-139 115
q-56 73 -85 173q-29 99 -29 214q0 114 31 215t89 175q57 74 141 118q84 43 190 43q104 0 185 -39q80 -40 134 -116l-5 114q-1 8 6 15q6 6 13 6h209q8 0 15 -6q6 -7 5 -15l-5 -504l5 -510q1 -7 -5 -13q-7 -7 -15 -7h-207zM747 1164q-3 -8 -11 -11q-9 -4 -16 -2l-473 144
q-8 2 -12 10t-1 15l50 156q3 7 11 11q7 3 14 0l461 -211q7 -3 11 -11q3 -9 0 -16z" />
    <glyph glyph-name="aacute" unicode="&#xe1;" horiz-adv-x="1126" 
d="M293 541q0 -184 66 -285q66 -102 194 -102q124 0 194 92q69 92 70 274t-66 281q-68 99 -192 100q-67 1 -117 -24q-51 -25 -83 -71q-33 -46 -49 -113q-17 -68 -17 -152zM827 0q-8 0 -14 7q-6 6 -6 13l4 125q-54 -78 -136 -121q-82 -44 -188 -44q-109 0 -193 42t-139 115
q-56 73 -85 173q-29 99 -29 214q0 114 31 215t89 175q57 74 141 118q84 43 190 43q104 0 185 -39q80 -40 134 -116l-5 114q-1 8 6 15q6 6 13 6h209q8 0 15 -6q6 -7 5 -15l-5 -504l5 -510q1 -7 -5 -13q-7 -7 -15 -7h-207zM376 1151q-8 -2 -16 2q-8 3 -11 11l-34 85q-3 7 1 16
q3 8 10 11l460 209q7 3 15 0q8 -4 11 -11l50 -154q3 -7 -1 -15q-5 -8 -12 -10z" />
    <glyph glyph-name="acircumflex" unicode="&#xe2;" horiz-adv-x="1126" 
d="M293 541q0 -184 66 -285q66 -102 194 -102q124 0 194 92q69 92 70 274t-66 281q-68 99 -192 100q-67 1 -117 -24q-51 -25 -83 -71q-33 -46 -49 -113q-17 -68 -17 -152zM827 0q-8 0 -14 7q-6 6 -6 13l4 125q-54 -78 -136 -121q-82 -44 -188 -44q-109 0 -193 42t-139 115
q-56 73 -85 173q-29 99 -29 214q0 114 31 215t89 175q57 74 141 118q84 43 190 43q104 0 185 -39q80 -40 134 -116l-5 114q-1 8 6 15q6 6 13 6h209q8 0 15 -6q6 -7 5 -15l-5 -504l5 -510q1 -7 -5 -13q-7 -7 -15 -7h-207zM859 1166q-3 -7 -11 -10q-8 -4 -15 0l-289 140
l-291 -140q-7 -4 -15 0q-8 3 -11 10l-34 89q-3 8 0 17t10 13l273 182q7 5 18 9q10 3 19 3h62q9 0 20 -3q10 -4 17 -9l273 -182q7 -4 10 -13t0 -17z" />
    <glyph glyph-name="atilde" unicode="&#xe3;" horiz-adv-x="1126" 
d="M293 541q0 -184 66 -285q66 -102 194 -102q124 0 194 92q69 92 70 274t-66 281q-68 99 -192 100q-67 1 -117 -24q-51 -25 -83 -71q-33 -46 -49 -113q-17 -68 -17 -152zM827 0q-8 0 -14 7q-6 6 -6 13l4 125q-54 -78 -136 -121q-82 -44 -188 -44q-109 0 -193 42t-139 115
q-56 73 -85 173q-29 99 -29 214q0 114 31 215t89 175q57 74 141 118q84 43 190 43q104 0 185 -39q80 -40 134 -116l-5 114q-1 8 6 15q6 6 13 6h209q8 0 15 -6q6 -7 5 -15l-5 -504l5 -510q1 -7 -5 -13q-7 -7 -15 -7h-207zM856 1423q-4 -110 -50 -176q-46 -67 -136 -67
q-47 0 -80 19q-33 18 -58 40q-26 22 -48 41q-22 18 -48 18q-33 0 -47 -25q-15 -26 -18 -69q0 -8 -6 -14q-7 -6 -15 -6h-88q-8 0 -14 7q-6 6 -6 13q2 52 15 97q12 45 35 78q23 32 58 51q35 18 82 18q45 0 78 -18q32 -19 57 -41q25 -23 47 -41q21 -19 44 -19q35 0 51 26
q15 26 18 68q0 9 7 15q6 6 14 6h88q8 0 14 -6q6 -7 6 -15z" />
    <glyph glyph-name="adieresis" unicode="&#xe4;" horiz-adv-x="1126" 
d="M293 541q0 -184 66 -285q66 -102 194 -102q124 0 194 92q69 92 70 274t-66 281q-68 99 -192 100q-67 1 -117 -24q-51 -25 -83 -71q-33 -46 -49 -113q-17 -68 -17 -152zM827 0q-8 0 -14 7q-6 6 -6 13l4 125q-54 -78 -136 -121q-82 -44 -188 -44q-109 0 -193 42t-139 115
q-56 73 -85 173q-29 99 -29 214q0 114 31 215t89 175q57 74 141 118q84 43 190 43q104 0 185 -39q80 -40 134 -116l-5 114q-1 8 6 15q6 6 13 6h209q8 0 15 -6q6 -7 5 -15l-5 -504l5 -510q1 -7 -5 -13q-7 -7 -15 -7h-207zM273 1184q-8 0 -14 6q-7 6 -7 14v205q0 8 7 15
q6 6 14 6h168q8 0 14 -6q6 -7 6 -15v-205q0 -8 -6 -14t-14 -6h-168zM649 1184q-8 0 -14 6t-6 14v205q0 8 6 15q6 6 14 6h168q8 0 15 -6q6 -7 6 -15v-205q0 -8 -6 -14q-7 -6 -15 -6h-168z" />
    <glyph glyph-name="aring" unicode="&#xe5;" horiz-adv-x="1126" 
d="M293 541q0 -184 66 -285q66 -102 194 -102q124 0 194 92q69 92 70 274t-66 281q-68 99 -192 100q-67 1 -117 -24q-51 -25 -83 -71q-33 -46 -49 -113q-17 -68 -17 -152zM827 0q-8 0 -14 7q-6 6 -6 13l4 125q-54 -78 -136 -121q-82 -44 -188 -44q-109 0 -193 42t-139 115
q-56 73 -85 173q-29 99 -29 214q0 114 31 215t89 175q57 74 141 118q84 43 190 43q104 0 185 -39q80 -40 134 -116l-5 114q-1 8 6 15q6 6 13 6h209q8 0 15 -6q6 -7 5 -15l-5 -504l5 -510q1 -7 -5 -13q-7 -7 -15 -7h-207zM787 1393q0 -49 -18 -91q-19 -42 -51 -73
q-33 -31 -77 -48q-45 -18 -96 -18q-52 0 -97 18q-45 17 -77 48q-33 31 -51 73q-19 42 -19 91t19 91q18 42 51 73q32 30 77 48q45 17 97 17q51 0 96 -17q44 -18 77 -48q32 -31 51 -73q18 -42 18 -91zM434 1393q0 -64 31 -100t80 -36q47 0 79 36t32 100q0 66 -32 101
q-32 34 -79 34q-49 0 -80 -34q-31 -35 -31 -101z" />
    <glyph glyph-name="ae" unicode="&#xe6;" horiz-adv-x="1907" 
d="M1843 340q-11 -75 -47 -142t-95 -116q-60 -50 -142 -78q-83 -29 -185 -29q-101 0 -181 31t-138 88v-74q0 -8 -6 -14q-7 -6 -15 -6h-207q-8 0 -14 7q-6 6 -6 13l4 125q-54 -78 -136 -121q-82 -44 -188 -44q-109 0 -193 42t-139 115q-56 73 -85 173q-29 99 -29 214
q0 114 31 215t89 175q57 74 141 118q84 43 190 43q104 0 185 -39q80 -40 134 -116l-5 114q-1 8 6 15q6 6 13 6h209q8 0 15 -6q6 -7 5 -15l-1 -76q60 58 139 90q78 31 174 31q119 0 212 -40q92 -40 156 -114q63 -75 97 -182t37 -241q0 -8 -6 -14q-7 -7 -15 -7l-762 -2
q7 -165 77 -247q69 -82 200 -82q96 0 159 47q62 47 84 143q2 9 10 15q7 5 16 5h194q7 0 13 -6q6 -7 5 -14zM1352 907q-110 0 -176 -67q-66 -68 -84 -193h510q-3 51 -20 99q-17 47 -48 83q-31 35 -76 57q-46 21 -106 21zM293 541q0 -184 66 -285q66 -102 194 -102
q124 0 194 92q69 92 70 274t-66 281q-68 99 -192 100q-67 1 -117 -24q-51 -25 -83 -71q-33 -46 -49 -113q-17 -68 -17 -152z" />
    <glyph glyph-name="ccedilla" unicode="&#xe7;" horiz-adv-x="1065" 
d="M1033 381q-9 -88 -46 -162q-37 -75 -98 -129t-145 -84q-85 -31 -187 -31q-122 0 -218 39q-97 39 -163 111q-66 71 -100 173q-35 101 -35 226t35 228q34 102 101 175q66 72 163 112t221 40q100 0 181 -27t140 -76q58 -49 94 -118q35 -70 44 -154q1 -7 -5 -13q-6 -7 -13 -7
h-188q-9 0 -16 6q-7 5 -9 14q-19 100 -80 150q-62 49 -148 49q-134 0 -200 -96q-66 -97 -66 -281q0 -190 66 -282q66 -93 200 -94q99 -1 163 59q64 59 77 172q1 9 8 15q6 5 15 5h190q8 0 14 -6q6 -7 5 -14zM558 -343q-2 -7 -9 -12q-8 -5 -16 -3l-191 39q-7 1 -11 8
q-4 8 -1 15l130 314q3 8 11 13q8 4 17 3l129 -17q8 -1 13 -8q4 -7 3 -15z" />
    <glyph glyph-name="egrave" unicode="&#xe8;" horiz-adv-x="1110" 
d="M1031 360q7 0 13 -6q5 -7 4 -14q-12 -75 -49 -142q-38 -67 -99 -116q-61 -50 -146 -78q-85 -29 -191 -29q-127 0 -225 41t-163 114q-66 72 -100 173t-34 221q0 125 36 228q35 102 102 175q66 72 162 112q95 40 214 40q122 0 218 -40q95 -40 161 -114q65 -75 101 -182
q35 -107 38 -241q0 -8 -6 -14q-6 -7 -14 -7h-764q7 -168 76 -249q69 -82 202 -82q96 0 158 47q61 47 84 143q2 9 9 15q7 5 16 5h197zM807 647q-3 51 -19 99q-17 47 -48 83q-31 35 -77 57q-46 21 -106 21q-110 0 -175 -66q-65 -67 -85 -194h510zM763 1164q-3 -8 -11 -11
q-9 -4 -16 -2l-473 144q-8 2 -12 10t-1 15l50 156q3 7 11 11q7 3 14 0l461 -211q7 -3 11 -11q3 -9 0 -16z" />
    <glyph glyph-name="eacute" unicode="&#xe9;" horiz-adv-x="1110" 
d="M1031 360q7 0 13 -6q5 -7 4 -14q-12 -75 -49 -142q-38 -67 -99 -116q-61 -50 -146 -78q-85 -29 -191 -29q-127 0 -225 41t-163 114q-66 72 -100 173t-34 221q0 125 36 228q35 102 102 175q66 72 162 112q95 40 214 40q122 0 218 -40q95 -40 161 -114q65 -75 101 -182
q35 -107 38 -241q0 -8 -6 -14q-6 -7 -14 -7h-764q7 -168 76 -249q69 -82 202 -82q96 0 158 47q61 47 84 143q2 9 9 15q7 5 16 5h197zM807 647q-3 51 -19 99q-17 47 -48 83q-31 35 -77 57q-46 21 -106 21q-110 0 -175 -66q-65 -67 -85 -194h510zM378 1151q-8 -2 -16 2
q-8 3 -11 11l-34 85q-3 7 1 16q3 8 10 11l460 209q7 3 15 0q8 -4 11 -11l50 -154q3 -7 -1 -15q-5 -8 -12 -10z" />
    <glyph glyph-name="ecircumflex" unicode="&#xea;" horiz-adv-x="1110" 
d="M1031 360q7 0 13 -6q5 -7 4 -14q-12 -75 -49 -142q-38 -67 -99 -116q-61 -50 -146 -78q-85 -29 -191 -29q-127 0 -225 41t-163 114q-66 72 -100 173t-34 221q0 125 36 228q35 102 102 175q66 72 162 112q95 40 214 40q122 0 218 -40q95 -40 161 -114q65 -75 101 -182
q35 -107 38 -241q0 -8 -6 -14q-6 -7 -14 -7h-764q7 -168 76 -249q69 -82 202 -82q96 0 158 47q61 47 84 143q2 9 9 15q7 5 16 5h197zM807 647q-3 51 -19 99q-17 47 -48 83q-31 35 -77 57q-46 21 -106 21q-110 0 -175 -66q-65 -67 -85 -194h510zM867 1166q-3 -7 -11 -10
q-8 -4 -15 0l-289 140l-291 -140q-7 -4 -15 0q-8 3 -11 10l-34 89q-3 8 0 17t10 13l273 182q7 5 18 9q10 3 19 3h62q9 0 20 -3q10 -4 17 -9l273 -182q7 -4 10 -13t0 -17z" />
    <glyph glyph-name="edieresis" unicode="&#xeb;" horiz-adv-x="1110" 
d="M1031 360q7 0 13 -6q5 -7 4 -14q-12 -75 -49 -142q-38 -67 -99 -116q-61 -50 -146 -78q-85 -29 -191 -29q-127 0 -225 41t-163 114q-66 72 -100 173t-34 221q0 125 36 228q35 102 102 175q66 72 162 112q95 40 214 40q122 0 218 -40q95 -40 161 -114q65 -75 101 -182
q35 -107 38 -241q0 -8 -6 -14q-6 -7 -14 -7h-764q7 -168 76 -249q69 -82 202 -82q96 0 158 47q61 47 84 143q2 9 9 15q7 5 16 5h197zM807 647q-3 51 -19 99q-17 47 -48 83q-31 35 -77 57q-46 21 -106 21q-110 0 -175 -66q-65 -67 -85 -194h510zM281 1184q-8 0 -14 6
q-7 6 -7 14v205q0 8 7 15q6 6 14 6h168q8 0 14 -6q6 -7 6 -15v-205q0 -8 -6 -14t-14 -6h-168zM657 1184q-8 0 -14 6t-6 14v205q0 8 6 15q6 6 14 6h168q8 0 15 -6q6 -7 6 -15v-205q0 -8 -6 -14q-7 -6 -15 -6h-168z" />
    <glyph glyph-name="igrave" unicode="&#xec;" horiz-adv-x="412" 
d="M98 0q-8 0 -14 7q-6 6 -6 13l8 515l-8 499q0 8 6 15q6 6 14 6h213q8 0 15 -6q6 -7 6 -15l-6 -499l6 -515q0 -7 -6 -13q-7 -7 -15 -7h-213zM393 1164q-3 -8 -11 -11q-9 -4 -16 -2l-473 144q-8 2 -12 10t-1 15l50 156q3 7 10 11q8 3 15 0l461 -211q7 -3 11 -11q3 -9 0 -16z
" />
    <glyph glyph-name="iacute" unicode="&#xed;" horiz-adv-x="412" 
d="M98 0q-8 0 -14 7q-6 6 -6 13l8 515l-8 499q0 8 6 15q6 6 14 6h213q8 0 15 -6q6 -7 6 -15l-6 -499l6 -515q0 -7 -6 -13q-7 -7 -15 -7h-213zM56 1151q-8 -2 -16 2q-8 3 -11 11l-34 85q-3 7 0 16q4 8 11 11l460 209q7 3 15 0q8 -4 11 -11l50 -154q3 -7 -1 -15q-5 -8 -12 -10
z" />
    <glyph glyph-name="icircumflex" unicode="&#xee;" horiz-adv-x="412" 
d="M98 0q-8 0 -14 7q-6 6 -6 13l8 515l-8 499q0 8 6 15q6 6 14 6h213q8 0 15 -6q6 -7 6 -15l-6 -499l6 -515q0 -7 -6 -13q-7 -7 -15 -7h-213zM519 1166q-3 -7 -11 -10q-8 -4 -15 0l-289 140l-291 -140q-7 -4 -15 0q-8 3 -11 10l-34 89q-3 8 0 17t10 13l273 182q7 5 18 9
q10 3 19 3h62q9 0 20 -3q10 -4 17 -9l273 -182q7 -4 10 -13t0 -17z" />
    <glyph glyph-name="idieresis" unicode="&#xef;" horiz-adv-x="412" 
d="M98 0q-8 0 -14 7q-6 6 -6 13l8 515l-8 499q0 8 6 15q6 6 14 6h213q8 0 15 -6q6 -7 6 -15l-6 -499l6 -515q0 -7 -6 -13q-7 -7 -15 -7h-213zM-67 1184q-8 0 -15 6q-6 6 -6 14v205q0 8 6 15q7 6 15 6h168q8 0 14 -6q6 -7 6 -15v-205q0 -8 -6 -14t-14 -6h-168zM309 1184
q-8 0 -14 6t-6 14v205q0 8 6 15q6 6 14 6h168q8 0 15 -6q6 -7 6 -15v-205q0 -8 -6 -14q-7 -6 -15 -6h-168z" />
    <glyph glyph-name="eth" unicode="&#xf0;" horiz-adv-x="1133" 
d="M1085 578q0 -132 -35 -244q-36 -112 -103 -192q-68 -80 -167 -125q-100 -46 -227 -46q-113 0 -206 37q-94 37 -160 102q-66 64 -103 154q-38 90 -39 195q1 104 35 191q34 86 95 148q60 61 145 96q84 34 186 34q128 0 206 -47t119 -111q-6 98 -45 183q-40 85 -106 155
l-250 -122q-7 -4 -15 -1t-12 10l-52 109q-4 7 -1 15t10 12l183 90q-47 29 -100 55t-110 45q-7 2 -10 10q-4 7 0 14l69 122q4 7 13 11q8 3 16 0q92 -33 173 -73t147 -88l263 128q7 4 15 1t12 -10l52 -109q3 -7 0 -15t-10 -12l-199 -98q103 -111 157 -264q54 -154 54 -360z
M307 442q0 -131 71 -205q70 -75 189 -75q62 0 110 22q47 21 79 60q31 39 47 94q16 54 16 119q0 133 -71 210q-72 76 -193 76q-122 0 -185 -81q-63 -82 -63 -220z" />
    <glyph glyph-name="ntilde" unicode="&#xf1;" 
d="M92 0q-8 0 -14 7q-6 6 -6 13l6 476l-4 538q0 8 6 15q6 6 14 6h199q8 0 14 -6q6 -7 6 -15l-4 -133q25 37 60 70q35 32 79 56q43 24 95 38q51 14 110 14q82 0 150 -27q67 -28 114 -80q46 -52 72 -129q25 -78 25 -177v-217l6 -429q0 -7 -6 -13q-7 -7 -15 -7h-211q-7 0 -13 7
q-7 6 -7 13l6 429v210q0 112 -54 170t-138 58q-47 0 -90 -20q-44 -20 -79 -60t-59 -101q-25 -61 -32 -143v-114l3 -429q1 -7 -5 -13q-7 -7 -15 -7h-213zM852 1423q-4 -110 -50 -176q-46 -67 -136 -67q-47 0 -80 19q-33 18 -58 40q-26 22 -48 41q-22 18 -48 18q-33 0 -47 -25
q-15 -26 -18 -69q0 -8 -6 -14q-7 -6 -15 -6h-88q-8 0 -14 7q-6 6 -6 13q2 52 15 97q12 45 35 78q23 32 58 51q35 18 82 18q45 0 78 -18q32 -19 57 -41q25 -23 47 -41q21 -19 44 -19q35 0 51 26q15 26 18 68q0 9 7 15q6 6 14 6h88q8 0 14 -6q6 -7 6 -15z" />
    <glyph glyph-name="ograve" unicode="&#xf2;" horiz-adv-x="1122" 
d="M1081 530q0 -125 -34 -228q-35 -103 -100 -175q-66 -72 -163 -112t-221 -40t-221 39q-98 39 -164 111q-67 71 -102 173q-35 101 -35 226t35 228q35 102 102 175q66 72 164 112q97 40 221 40t221 -39t163 -110q65 -72 100 -173q34 -102 34 -227zM293 522q0 -185 68 -278
q68 -94 202 -94q133 0 199 93q65 93 65 281q0 187 -66 284q-67 97 -200 97q-136 -1 -202 -98q-66 -98 -66 -285zM757 1164q-3 -8 -11 -11q-9 -4 -16 -2l-473 144q-8 2 -12 10t-1 15l50 156q3 7 11 11q7 3 14 0l461 -211q7 -3 11 -11q3 -9 0 -16z" />
    <glyph glyph-name="oacute" unicode="&#xf3;" horiz-adv-x="1122" 
d="M1081 530q0 -125 -34 -228q-35 -103 -100 -175q-66 -72 -163 -112t-221 -40t-221 39q-98 39 -164 111q-67 71 -102 173q-35 101 -35 226t35 228q35 102 102 175q66 72 164 112q97 40 221 40t221 -39t163 -110q65 -72 100 -173q34 -102 34 -227zM293 522q0 -185 68 -278
q68 -94 202 -94q133 0 199 93q65 93 65 281q0 187 -66 284q-67 97 -200 97q-136 -1 -202 -98q-66 -98 -66 -285zM384 1151q-8 -2 -16 2q-8 3 -11 11l-34 85q-3 7 1 16q3 8 10 11l460 209q7 3 15 0q8 -4 11 -11l50 -154q3 -7 -1 -15q-5 -8 -12 -10z" />
    <glyph glyph-name="ocircumflex" unicode="&#xf4;" horiz-adv-x="1122" 
d="M1081 530q0 -125 -34 -228q-35 -103 -100 -175q-66 -72 -163 -112t-221 -40t-221 39q-98 39 -164 111q-67 71 -102 173q-35 101 -35 226t35 228q35 102 102 175q66 72 164 112q97 40 221 40t221 -39t163 -110q65 -72 100 -173q34 -102 34 -227zM293 522q0 -185 68 -278
q68 -94 202 -94q133 0 199 93q65 93 65 281q0 187 -66 284q-67 97 -200 97q-136 -1 -202 -98q-66 -98 -66 -285zM875 1166q-3 -7 -11 -10q-8 -4 -15 0l-289 140l-291 -140q-7 -4 -15 0q-8 3 -11 10l-34 89q-3 8 0 17t10 13l273 182q7 5 18 9q10 3 19 3h62q9 0 20 -3
q10 -4 17 -9l273 -182q7 -4 10 -13t0 -17z" />
    <glyph glyph-name="otilde" unicode="&#xf5;" horiz-adv-x="1122" 
d="M1081 530q0 -125 -34 -228q-35 -103 -100 -175q-66 -72 -163 -112t-221 -40t-221 39q-98 39 -164 111q-67 71 -102 173q-35 101 -35 226t35 228q35 102 102 175q66 72 164 112q97 40 221 40t221 -39t163 -110q65 -72 100 -173q34 -102 34 -227zM293 522q0 -185 68 -278
q68 -94 202 -94q133 0 199 93q65 93 65 281q0 187 -66 284q-67 97 -200 97q-136 -1 -202 -98q-66 -98 -66 -285zM866 1423q-4 -110 -50 -176q-46 -67 -136 -67q-47 0 -80 19q-33 18 -58 40q-26 22 -48 41q-22 18 -48 18q-33 0 -47 -25q-15 -26 -18 -69q0 -8 -6 -14
q-7 -6 -15 -6h-88q-8 0 -14 7q-6 6 -6 13q2 52 15 97q12 45 35 78q23 32 58 51q35 18 82 18q45 0 78 -18q32 -19 57 -41q25 -23 47 -41q21 -19 44 -19q35 0 51 26q15 26 18 68q0 9 7 15q6 6 14 6h88q8 0 14 -6q6 -7 6 -15z" />
    <glyph glyph-name="odieresis" unicode="&#xf6;" horiz-adv-x="1122" 
d="M1081 530q0 -125 -34 -228q-35 -103 -100 -175q-66 -72 -163 -112t-221 -40t-221 39q-98 39 -164 111q-67 71 -102 173q-35 101 -35 226t35 228q35 102 102 175q66 72 164 112q97 40 221 40t221 -39t163 -110q65 -72 100 -173q34 -102 34 -227zM293 522q0 -185 68 -278
q68 -94 202 -94q133 0 199 93q65 93 65 281q0 187 -66 284q-67 97 -200 97q-136 -1 -202 -98q-66 -98 -66 -285zM289 1184q-8 0 -14 6q-7 6 -7 14v205q0 8 7 15q6 6 14 6h168q8 0 14 -6q6 -7 6 -15v-205q0 -8 -6 -14t-14 -6h-168zM665 1184q-8 0 -14 6t-6 14v205q0 8 6 15
q6 6 14 6h168q8 0 15 -6q6 -7 6 -15v-205q0 -8 -6 -14q-7 -6 -15 -6h-168z" />
    <glyph glyph-name="divide" unicode="&#xf7;" 
d="M430 147q-8 0 -14 6q-7 6 -7 14v218q0 8 7 14q6 6 14 6h223q8 0 14 -6t6 -14v-218q0 -8 -6 -14t-14 -6h-223zM90 608q-8 0 -14 7q-6 6 -6 14v153q0 8 6 15q6 6 14 6h901q8 0 15 -6q6 -7 6 -15v-153q0 -8 -6 -14q-7 -7 -15 -7h-901zM430 1008q-8 0 -14 6q-7 6 -7 14v218
q0 8 7 14q6 6 14 6h223q8 0 14 -6t6 -14v-218q0 -8 -6 -14t-14 -6h-223z" />
    <glyph glyph-name="oslash" unicode="&#xf8;" horiz-adv-x="1122" 
d="M293 522q0 -53 6 -99q5 -46 16 -83l419 501q-32 32 -75 48q-44 16 -98 16q-136 -1 -202 -98q-66 -98 -66 -285zM563 150q133 0 199 93q65 93 65 281q0 56 -5 104q-6 47 -18 87l-419 -500q32 -33 77 -49t101 -16zM169 -76q-5 -7 -13 -7q-9 0 -15 5l-90 88q-6 6 -6 15t5 15
l97 121q-51 69 -78 161q-28 92 -28 202q0 125 35 228q35 102 102 175q66 72 164 112q97 40 221 40q84 0 156 -18t130 -52l103 124q4 6 13 7q9 0 14 -5l92 -89q6 -5 7 -14q0 -9 -6 -16l-98 -118q52 -69 80 -163q27 -94 27 -205q0 -125 -34 -228q-35 -103 -100 -175
q-66 -72 -163 -112t-221 -40q-85 0 -158 19q-74 19 -132 54z" />
    <glyph glyph-name="ugrave" unicode="&#xf9;" 
d="M772 154q-25 -37 -60 -69q-35 -33 -78 -57q-43 -25 -95 -39t-111 -14q-82 0 -149 28q-67 27 -113 80q-47 52 -72 130q-26 77 -26 176v217l-6 428q0 8 6 15q6 6 14 6h211q8 0 14 -6q6 -7 6 -15l-6 -428v-211q0 -111 55 -169q54 -58 138 -58q47 0 91 20q43 20 78 60
q35 39 59 101q24 61 32 143v114l-4 428q0 8 6 15q6 6 14 6h213q8 0 15 -6q6 -7 5 -15l-5 -475l3 -539q1 -8 -5 -14q-7 -6 -15 -6h-199q-7 0 -13 7q-7 6 -6 13zM723 1164q-3 -8 -11 -11q-9 -4 -16 -2l-473 144q-8 2 -12 10t-1 15l50 156q3 7 11 11q7 3 14 0l461 -211
q7 -3 11 -11q3 -9 0 -16z" />
    <glyph glyph-name="uacute" unicode="&#xfa;" 
d="M772 154q-25 -37 -60 -69q-35 -33 -78 -57q-43 -25 -95 -39t-111 -14q-82 0 -149 28q-67 27 -113 80q-47 52 -72 130q-26 77 -26 176v217l-6 428q0 8 6 15q6 6 14 6h211q8 0 14 -6q6 -7 6 -15l-6 -428v-211q0 -111 55 -169q54 -58 138 -58q47 0 91 20q43 20 78 60
q35 39 59 101q24 61 32 143v114l-4 428q0 8 6 15q6 6 14 6h213q8 0 15 -6q6 -7 5 -15l-5 -475l3 -539q1 -8 -5 -14q-7 -6 -15 -6h-199q-7 0 -13 7q-7 6 -6 13zM366 1151q-8 -2 -16 2q-8 3 -11 11l-34 85q-3 7 1 16q3 8 10 11l460 209q7 3 15 0q8 -4 11 -11l50 -154
q3 -7 -1 -15q-5 -8 -12 -10z" />
    <glyph glyph-name="ucircumflex" unicode="&#xfb;" 
d="M772 154q-25 -37 -60 -69q-35 -33 -78 -57q-43 -25 -95 -39t-111 -14q-82 0 -149 28q-67 27 -113 80q-47 52 -72 130q-26 77 -26 176v217l-6 428q0 8 6 15q6 6 14 6h211q8 0 14 -6q6 -7 6 -15l-6 -428v-211q0 -111 55 -169q54 -58 138 -58q47 0 91 20q43 20 78 60
q35 39 59 101q24 61 32 143v114l-4 428q0 8 6 15q6 6 14 6h213q8 0 15 -6q6 -7 5 -15l-5 -475l3 -539q1 -8 -5 -14q-7 -6 -15 -6h-199q-7 0 -13 7q-7 6 -6 13zM849 1166q-3 -7 -11 -10q-8 -4 -15 0l-289 140l-291 -140q-7 -4 -15 0q-8 3 -11 10l-34 89q-3 8 0 17t10 13
l273 182q7 5 18 9q10 3 19 3h62q9 0 20 -3q10 -4 17 -9l273 -182q7 -4 10 -13t0 -17z" />
    <glyph glyph-name="udieresis" unicode="&#xfc;" 
d="M772 154q-25 -37 -60 -69q-35 -33 -78 -57q-43 -25 -95 -39t-111 -14q-82 0 -149 28q-67 27 -113 80q-47 52 -72 130q-26 77 -26 176v217l-6 428q0 8 6 15q6 6 14 6h211q8 0 14 -6q6 -7 6 -15l-6 -428v-211q0 -111 55 -169q54 -58 138 -58q47 0 91 20q43 20 78 60
q35 39 59 101q24 61 32 143v114l-4 428q0 8 6 15q6 6 14 6h213q8 0 15 -6q6 -7 5 -15l-5 -475l3 -539q1 -8 -5 -14q-7 -6 -15 -6h-199q-7 0 -13 7q-7 6 -6 13zM263 1184q-8 0 -14 6q-7 6 -7 14v205q0 8 7 15q6 6 14 6h168q8 0 14 -6q6 -7 6 -15v-205q0 -8 -6 -14t-14 -6
h-168zM639 1184q-8 0 -14 6t-6 14v205q0 8 6 15q6 6 14 6h168q8 0 15 -6q6 -7 6 -15v-205q0 -8 -6 -14q-7 -6 -15 -6h-168z" />
    <glyph glyph-name="yacute" unicode="&#xfd;" horiz-adv-x="997" 
d="M534 -329q-3 -8 -10 -14q-8 -5 -17 -5h-195q-7 0 -11 6q-5 6 -3 13l111 323l-417 1042q-2 7 2 13t11 6h238q9 0 17 -5q7 -6 10 -15l264 -724l219 724q2 8 10 14t16 6h211q7 0 12 -6q4 -7 2 -14zM335 1151q-8 -2 -16 2q-8 3 -11 11l-34 85q-3 7 1 16q3 8 10 11l460 209
q7 3 15 0q8 -4 11 -11l50 -154q3 -7 -1 -15q-5 -8 -12 -10z" />
    <glyph glyph-name="thorn" unicode="&#xfe;" horiz-adv-x="1126" 
d="M309 537q-1 -182 66 -281q67 -100 192 -100q133 0 200 96t67 264q0 179 -65 280q-66 101 -198 101q-123 0 -192 -91q-69 -92 -70 -269zM1085 530q0 -114 -31 -214q-31 -101 -89 -175q-58 -75 -142 -118q-85 -43 -190 -43q-102 0 -181 39t-133 112l4 -459q1 -8 -5 -14
q-7 -6 -15 -6h-213q-8 0 -14 6t-6 14l8 869l-8 872q0 8 6 15q6 6 14 6h207q8 0 14 -6q6 -7 6 -15l-6 -506q55 80 138 124t190 44q109 0 193 -42q83 -42 139 -115t85 -173t29 -215z" />
    <glyph glyph-name="ydieresis" unicode="&#xff;" horiz-adv-x="997" 
d="M534 -329q-3 -8 -10 -14q-8 -5 -17 -5h-195q-7 0 -11 6q-5 6 -3 13l111 323l-417 1042q-2 7 2 13t11 6h238q9 0 17 -5q7 -6 10 -15l264 -724l219 724q2 8 10 14t16 6h211q7 0 12 -6q4 -7 2 -14zM244 1184q-8 0 -14 6q-7 6 -7 14v205q0 8 7 15q6 6 14 6h168q8 0 14 -6
q6 -7 6 -15v-205q0 -8 -6 -14t-14 -6h-168zM620 1184q-8 0 -14 6t-6 14v205q0 8 6 15q6 6 14 6h168q8 0 15 -6q6 -7 6 -15v-205q0 -8 -6 -14q-7 -6 -15 -6h-168z" />
    <glyph glyph-name="Amacron" unicode="&#x100;" horiz-adv-x="1319" 
d="M868 602l-217 655l-211 -655h428zM1090 0q-9 0 -17 6q-8 5 -10 13l-125 374h-565l-121 -374q-3 -8 -10 -13q-8 -6 -17 -6h-215q-7 0 -12 6q-4 6 -1 13l492 1395q3 8 11 14q7 6 16 6h293q9 0 17 -6q7 -6 10 -14l486 -1395q3 -7 -1 -13q-5 -6 -12 -6h-219zM365 1569
q-8 0 -14 6t-6 14v136q0 8 6 14t14 6h592q8 0 14 -6t6 -14v-136q0 -8 -6 -14t-14 -6h-592z" />
    <glyph glyph-name="amacron" unicode="&#x101;" horiz-adv-x="1126" 
d="M293 541q0 -184 66 -285q66 -102 194 -102q124 0 194 92q69 92 70 274t-66 281q-68 99 -192 100q-67 1 -117 -24q-51 -25 -83 -71q-33 -46 -49 -113q-17 -68 -17 -152zM827 0q-8 0 -14 7q-6 6 -6 13l4 125q-54 -78 -136 -121q-82 -44 -188 -44q-109 0 -193 42t-139 115
q-56 73 -85 173q-29 99 -29 214q0 114 31 215t89 175q57 74 141 118q84 43 190 43q104 0 185 -39q80 -40 134 -116l-5 114q-1 8 6 15q6 6 13 6h209q8 0 15 -6q6 -7 5 -15l-5 -504l5 -510q1 -7 -5 -13q-7 -7 -15 -7h-207zM248 1190q-8 0 -14 6t-6 14v136q0 8 6 14t14 6h592
q8 0 14 -6t6 -14v-136q0 -8 -6 -14t-14 -6h-592z" />
    <glyph glyph-name="Abreve" unicode="&#x102;" horiz-adv-x="1319" 
d="M868 602l-217 655l-211 -655h428zM1090 0q-9 0 -17 6q-8 5 -10 13l-125 374h-565l-121 -374q-3 -8 -10 -13q-8 -6 -17 -6h-215q-7 0 -12 6q-4 6 -1 13l492 1395q3 8 11 14q7 6 16 6h293q9 0 17 -6q7 -6 10 -14l486 -1395q3 -7 -1 -13q-5 -6 -12 -6h-219zM984 1841
q-3 -63 -27 -117q-25 -54 -67 -93q-42 -40 -101 -62q-59 -23 -130 -23t-130 23q-59 22 -101 62q-42 39 -66 93q-25 54 -28 117q-1 8 6 15q6 6 13 6h125q9 0 15 -5q6 -6 7 -16q7 -54 47 -89q40 -36 112 -36q67 0 109 36q42 35 49 89q1 10 8 16q6 5 16 5h124q7 0 14 -6
q6 -7 5 -15z" />
    <glyph glyph-name="abreve" unicode="&#x103;" horiz-adv-x="1126" 
d="M293 541q0 -184 66 -285q66 -102 194 -102q124 0 194 92q69 92 70 274t-66 281q-68 99 -192 100q-67 1 -117 -24q-51 -25 -83 -71q-33 -46 -49 -113q-17 -68 -17 -152zM827 0q-8 0 -14 7q-6 6 -6 13l4 125q-54 -78 -136 -121q-82 -44 -188 -44q-109 0 -193 42t-139 115
q-56 73 -85 173q-29 99 -29 214q0 114 31 215t89 175q57 74 141 118q84 43 190 43q104 0 185 -39q80 -40 134 -116l-5 114q-1 8 6 15q6 6 13 6h209q8 0 15 -6q6 -7 5 -15l-5 -504l5 -510q1 -7 -5 -13q-7 -7 -15 -7h-207zM870 1462q-3 -63 -27 -117q-25 -54 -67 -93
q-42 -40 -101 -62q-59 -23 -130 -23t-130 23q-59 22 -101 62q-42 39 -66 93q-25 54 -28 117q-1 8 6 15q6 6 13 6h125q9 0 15 -5q6 -6 7 -16q7 -54 47 -89q40 -36 112 -36q67 0 109 36q42 35 49 89q1 10 8 16q6 5 16 5h124q7 0 14 -6q6 -7 5 -15z" />
    <glyph glyph-name="Aogonek" unicode="&#x104;" horiz-adv-x="1319" 
d="M868 602l-217 655l-211 -655h428zM1090 0q-9 0 -17 6q-8 5 -10 13l-125 374h-565l-121 -374q-3 -8 -10 -13q-8 -6 -17 -6h-215q-7 0 -12 6q-4 6 -1 13l492 1395q3 8 11 14q7 6 16 6h293q9 0 17 -6q7 -6 10 -14l486 -1395q3 -7 -1 -13q-5 -6 -12 -6h-219zM1200 -414
q-63 0 -116 15t-90 43q-38 28 -58 67q-21 40 -21 88q0 50 19 91q18 42 49 73q31 32 73 56q41 24 87 40q8 3 17 0q9 -4 13 -11l18 -29q4 -8 3 -16q-2 -9 -9 -15q-25 -21 -52 -59t-27 -83q0 -47 33 -68q32 -20 81 -20h90q8 0 15 -6q6 -6 6 -14v-131q0 -8 -6 -15q-7 -6 -15 -6
h-110z" />
    <glyph glyph-name="aogonek" unicode="&#x105;" horiz-adv-x="1126" 
d="M293 541q0 -184 66 -285q66 -102 194 -102q124 0 194 92q69 92 70 274t-66 281q-68 99 -192 100q-67 1 -117 -24q-51 -25 -83 -71q-33 -46 -49 -113q-17 -68 -17 -152zM827 0q-8 0 -14 7q-6 6 -6 13l4 125q-54 -78 -136 -121q-82 -44 -188 -44q-109 0 -193 42t-139 115
q-56 73 -85 173q-29 99 -29 214q0 114 31 215t89 175q57 74 141 118q84 43 190 43q104 0 185 -39q80 -40 134 -116l-5 114q-1 8 6 15q6 6 13 6h209q8 0 15 -6q6 -7 5 -15l-5 -504l5 -510q1 -7 -5 -13q-7 -7 -15 -7h-207zM971 -414q-63 0 -116 15t-90 43q-38 28 -58 67
q-21 40 -21 88q0 50 19 91q18 42 49 73q31 32 73 56q41 24 87 40q8 3 17 0q9 -4 13 -11l18 -29q4 -8 3 -16q-2 -9 -9 -15q-25 -21 -52 -59t-27 -83q0 -47 33 -68q32 -20 81 -20h90q8 0 15 -6q6 -6 6 -14v-131q0 -8 -6 -15q-7 -6 -15 -6h-110z" />
    <glyph glyph-name="Cacute" unicode="&#x106;" horiz-adv-x="1399" 
d="M1363 508q-25 -141 -80 -243t-135 -167q-81 -65 -185 -96q-105 -31 -228 -31q-160 0 -289 54q-129 53 -218 150t-137 235q-48 137 -48 305q0 169 49 308q48 139 138 236q89 97 218 150q128 53 285 53q111 0 212 -26q100 -26 181 -85t140 -156q58 -97 86 -237q1 -7 -4 -13
q-5 -7 -13 -7h-204q-9 0 -16 6q-7 5 -9 14q-33 149 -131 226q-98 76 -246 76q-102 0 -182 -38t-134 -108q-54 -71 -82 -172q-28 -102 -28 -227q0 -130 29 -231q29 -102 84 -170q54 -68 134 -104q79 -36 179 -36q162 0 260 87q97 86 124 247q1 9 8 15q7 5 16 5h209q7 0 13 -6
q5 -7 4 -14zM536 1530q-8 -2 -16 2q-8 3 -11 11l-34 85q-3 7 1 16q3 8 10 11l460 209q7 3 15 0q8 -4 11 -11l50 -154q3 -7 -1 -15q-5 -8 -12 -10z" />
    <glyph glyph-name="cacute" unicode="&#x107;" horiz-adv-x="1065" 
d="M1033 381q-9 -88 -46 -162q-37 -75 -98 -129t-145 -84q-85 -31 -187 -31q-122 0 -218 39q-97 39 -163 111q-66 71 -100 173q-35 101 -35 226t35 228q34 102 101 175q66 72 163 112t221 40q100 0 181 -27t140 -76q58 -49 94 -118q35 -70 44 -154q1 -7 -5 -13q-6 -7 -13 -7
h-188q-9 0 -16 6q-7 5 -9 14q-19 100 -80 150q-62 49 -148 49q-134 0 -200 -96q-66 -97 -66 -281q0 -190 66 -282q66 -93 200 -94q99 -1 163 59q64 59 77 172q1 9 8 15q6 5 15 5h190q8 0 14 -6q6 -7 5 -14zM368 1151q-8 -2 -16 2q-8 3 -11 11l-34 85q-3 7 1 16q3 8 10 11
l460 209q7 3 15 0q8 -4 11 -11l50 -154q3 -7 -1 -15q-5 -8 -12 -10z" />
    <glyph glyph-name="Ccircumflex" unicode="&#x108;" horiz-adv-x="1399" 
d="M1363 508q-25 -141 -80 -243t-135 -167q-81 -65 -185 -96q-105 -31 -228 -31q-160 0 -289 54q-129 53 -218 150t-137 235q-48 137 -48 305q0 169 49 308q48 139 138 236q89 97 218 150q128 53 285 53q111 0 212 -26q100 -26 181 -85t140 -156q58 -97 86 -237q1 -7 -4 -13
q-5 -7 -13 -7h-204q-9 0 -16 6q-7 5 -9 14q-33 149 -131 226q-98 76 -246 76q-102 0 -182 -38t-134 -108q-54 -71 -82 -172q-28 -102 -28 -227q0 -130 29 -231q29 -102 84 -170q54 -68 134 -104q79 -36 179 -36q162 0 260 87q97 86 124 247q1 9 8 15q7 5 16 5h209q7 0 13 -6
q5 -7 4 -14zM1033 1545q-3 -7 -11 -10q-8 -4 -15 0l-289 140l-291 -140q-7 -4 -15 0q-8 3 -11 10l-34 89q-3 8 0 17t10 13l273 182q7 5 18 9q10 3 19 3h62q9 0 20 -3q10 -4 17 -9l273 -182q7 -4 10 -13t0 -17z" />
    <glyph glyph-name="ccircumflex" unicode="&#x109;" horiz-adv-x="1065" 
d="M1033 381q-9 -88 -46 -162q-37 -75 -98 -129t-145 -84q-85 -31 -187 -31q-122 0 -218 39q-97 39 -163 111q-66 71 -100 173q-35 101 -35 226t35 228q34 102 101 175q66 72 163 112t221 40q100 0 181 -27t140 -76q58 -49 94 -118q35 -70 44 -154q1 -7 -5 -13q-6 -7 -13 -7
h-188q-9 0 -16 6q-7 5 -9 14q-19 100 -80 150q-62 49 -148 49q-134 0 -200 -96q-66 -97 -66 -281q0 -190 66 -282q66 -93 200 -94q99 -1 163 59q64 59 77 172q1 9 8 15q6 5 15 5h190q8 0 14 -6q6 -7 5 -14zM851 1166q-3 -7 -11 -10q-8 -4 -15 0l-289 140l-291 -140
q-7 -4 -15 0q-8 3 -11 10l-34 89q-3 8 0 17t10 13l273 182q7 5 18 9q10 3 19 3h62q9 0 20 -3q10 -4 17 -9l273 -182q7 -4 10 -13t0 -17z" />
    <glyph glyph-name="Cdotaccent" unicode="&#x10a;" horiz-adv-x="1399" 
d="M1363 508q-25 -141 -80 -243t-135 -167q-81 -65 -185 -96q-105 -31 -228 -31q-160 0 -289 54q-129 53 -218 150t-137 235q-48 137 -48 305q0 169 49 308q48 139 138 236q89 97 218 150q128 53 285 53q111 0 212 -26q100 -26 181 -85t140 -156q58 -97 86 -237q1 -7 -4 -13
q-5 -7 -13 -7h-204q-9 0 -16 6q-7 5 -9 14q-33 149 -131 226q-98 76 -246 76q-102 0 -182 -38t-134 -108q-54 -71 -82 -172q-28 -102 -28 -227q0 -130 29 -231q29 -102 84 -170q54 -68 134 -104q79 -36 179 -36q162 0 260 87q97 86 124 247q1 9 8 15q7 5 16 5h209q7 0 13 -6
q5 -7 4 -14zM613 1544q-8 0 -14 7q-7 6 -7 14v203q0 8 7 14q6 6 14 6h208q8 0 15 -6q6 -6 6 -14v-203q0 -8 -6 -14q-7 -7 -15 -7h-208z" />
    <glyph glyph-name="cdotaccent" unicode="&#x10b;" horiz-adv-x="1065" 
d="M1033 381q-9 -88 -46 -162q-37 -75 -98 -129t-145 -84q-85 -31 -187 -31q-122 0 -218 39q-97 39 -163 111q-66 71 -100 173q-35 101 -35 226t35 228q34 102 101 175q66 72 163 112t221 40q100 0 181 -27t140 -76q58 -49 94 -118q35 -70 44 -154q1 -7 -5 -13q-6 -7 -13 -7
h-188q-9 0 -16 6q-7 5 -9 14q-19 100 -80 150q-62 49 -148 49q-134 0 -200 -96q-66 -97 -66 -281q0 -190 66 -282q66 -93 200 -94q99 -1 163 59q64 59 77 172q1 9 8 15q6 5 15 5h190q8 0 14 -6q6 -7 5 -14zM439 1165q-8 0 -14 7q-7 6 -7 14v203q0 8 7 14q6 6 14 6h208
q8 0 15 -6q6 -6 6 -14v-203q0 -8 -6 -14q-7 -7 -15 -7h-208z" />
    <glyph glyph-name="Ccaron" unicode="&#x10c;" horiz-adv-x="1399" 
d="M1363 508q-25 -141 -80 -243t-135 -167q-81 -65 -185 -96q-105 -31 -228 -31q-160 0 -289 54q-129 53 -218 150t-137 235q-48 137 -48 305q0 169 49 308q48 139 138 236q89 97 218 150q128 53 285 53q111 0 212 -26q100 -26 181 -85t140 -156q58 -97 86 -237q1 -7 -4 -13
q-5 -7 -13 -7h-204q-9 0 -16 6q-7 5 -9 14q-33 149 -131 226q-98 76 -246 76q-102 0 -182 -38t-134 -108q-54 -71 -82 -172q-28 -102 -28 -227q0 -130 29 -231q29 -102 84 -170q54 -68 134 -104q79 -36 179 -36q162 0 260 87q97 86 124 247q1 9 8 15q7 5 16 5h209q7 0 13 -6
q5 -7 4 -14zM786 1552q-7 -5 -17 -8q-11 -4 -20 -4h-62q-9 0 -19 4q-11 3 -18 8l-273 182q-7 4 -10 13t0 17l34 89q3 7 11 11q8 3 15 -1l291 -141l289 141q7 4 15 1q8 -4 11 -11l36 -89q3 -8 0 -17t-10 -13z" />
    <glyph glyph-name="ccaron" unicode="&#x10d;" horiz-adv-x="1065" 
d="M1033 381q-9 -88 -46 -162q-37 -75 -98 -129t-145 -84q-85 -31 -187 -31q-122 0 -218 39q-97 39 -163 111q-66 71 -100 173q-35 101 -35 226t35 228q34 102 101 175q66 72 163 112t221 40q100 0 181 -27t140 -76q58 -49 94 -118q35 -70 44 -154q1 -7 -5 -13q-6 -7 -13 -7
h-188q-9 0 -16 6q-7 5 -9 14q-19 100 -80 150q-62 49 -148 49q-134 0 -200 -96q-66 -97 -66 -281q0 -190 66 -282q66 -93 200 -94q99 -1 163 59q64 59 77 172q1 9 8 15q6 5 15 5h190q8 0 14 -6q6 -7 5 -14zM610 1173q-7 -5 -17 -8q-11 -4 -20 -4h-62q-9 0 -19 4q-11 3 -18 8
l-273 182q-7 4 -10 13t0 17l34 89q3 7 11 11q8 3 15 -1l291 -141l289 141q7 4 15 1q8 -4 11 -11l36 -89q3 -8 0 -17t-10 -13z" />
    <glyph glyph-name="Dcaron" unicode="&#x10e;" horiz-adv-x="1366" 
d="M102 0q-8 0 -14 7q-6 6 -6 13l10 705l-10 688q0 8 6 15q6 6 14 6h480q153 0 289 -44q136 -45 236 -134t158 -226t58 -319q0 -187 -60 -322t-161 -221t-235 -127t-281 -41h-484zM332 731q0 -72 2 -165q1 -93 2 -174t3 -137q1 -57 1 -58h262q90 0 174 29t148 91t103 161
q38 98 38 235q0 133 -37 232t-100 164q-64 64 -150 96t-184 32h-254q0 -1 -1 -53q-2 -53 -3 -129q-1 -77 -2 -165q-2 -88 -2 -159zM743 1552q-7 -5 -17 -8q-11 -4 -20 -4h-62q-9 0 -19 4q-11 3 -18 8l-273 182q-7 4 -10 13t0 17l34 89q3 7 11 11q8 3 15 -1l291 -141l289 141
q7 4 15 1q8 -4 11 -11l36 -89q3 -8 0 -17t-10 -13z" />
    <glyph glyph-name="dcaron" unicode="&#x10f;" horiz-adv-x="1126" 
d="M293 539q0 -182 66 -284q66 -103 194 -103q124 0 194 92q69 92 70 274q1 184 -66 284q-68 100 -192 101q-67 1 -117 -23q-51 -25 -83 -72q-33 -47 -49 -115q-17 -69 -17 -154zM825 0q-7 0 -13 7q-7 6 -6 13l5 123q-55 -76 -136 -119q-82 -44 -188 -44q-109 0 -193 42
t-139 115q-56 73 -85 173q-29 99 -29 214q0 114 31 215t89 175q57 74 141 118q84 43 190 43q102 0 183 -39q80 -39 134 -112l-4 489q0 8 6 15q6 6 14 6h209q8 0 15 -6q6 -7 6 -15l-4 -661l4 -732q0 -8 -6 -14q-7 -6 -15 -6h-209zM1274 1091q-2 -9 -9 -14q-7 -6 -16 -6h-119
q-7 0 -12 7q-6 6 -5 13l63 416q1 9 8 15t16 6h164q7 0 12 -6q5 -7 3 -14z" />
    <glyph glyph-name="Dcroat" unicode="&#x110;" horiz-adv-x="1399" 
d="M135 0q-8 0 -14 7q-6 6 -6 13l9 639h-110q-8 0 -14 7q-6 6 -6 14v156q0 8 6 14t14 6h109l-8 557q0 8 6 15q6 6 14 6h479q154 0 290 -44q136 -45 236 -134t158 -226t58 -319q0 -187 -60 -322t-161 -221t-235 -127q-135 -41 -282 -41h-483zM635 197q90 0 174 29t148 91
t103 161q38 98 38 235q0 133 -37 232t-100 164q-64 64 -150 96t-184 32h-254q0 -1 -1 -35q-1 -35 -2 -89q-2 -55 -3 -123t-2 -134h391q8 0 14 -6t6 -14v-156q0 -8 -6 -14q-6 -7 -14 -7h-391q0 -73 2 -154q1 -82 3 -150q1 -68 2 -113l1 -45h262z" />
    <glyph glyph-name="dcroat" unicode="&#x111;" horiz-adv-x="1106" 
d="M293 539q0 -182 66 -284q66 -103 194 -103q124 0 194 92q69 92 70 274q1 184 -66 284q-68 100 -192 101q-67 1 -117 -23q-51 -25 -83 -72q-33 -47 -49 -115q-17 -69 -17 -154zM811 143q-54 -77 -136 -120t-188 -43q-109 0 -193 42t-139 115q-56 73 -85 173
q-29 99 -29 214q0 114 31 215t89 175q57 74 141 118q84 43 190 43q102 0 182 -38q80 -39 134 -114l-1 224h-283q-8 0 -14 6t-6 14v140q0 8 6 14t14 6h282l-1 86q0 8 6 15q6 6 14 6h209q8 0 15 -6q6 -7 6 -15l-1 -86h81q8 0 14 -6t6 -14v-140q0 -8 -6 -14t-14 -6h-82l-2 -395
l4 -732q0 -8 -6 -14q-7 -6 -15 -6h-209q-7 0 -13 7q-7 6 -6 13z" />
    <glyph glyph-name="Emacron" unicode="&#x112;" horiz-adv-x="1096" 
d="M102 0q-8 0 -14 7q-6 6 -6 13l10 707l-10 686q0 8 6 15q6 6 14 6h914q8 0 14 -6q6 -7 6 -15v-156q0 -8 -6 -14t-14 -6h-676l-10 -379h631q8 0 14 -6t6 -14v-156q0 -8 -6 -14t-14 -6h-631l10 -465h692q8 0 15 -6q6 -7 6 -15v-156q0 -8 -6 -14q-7 -6 -15 -6h-930zM303 1569
q-8 0 -14 6t-6 14v136q0 8 6 14t14 6h592q8 0 14 -6t6 -14v-136q0 -8 -6 -14t-14 -6h-592z" />
    <glyph glyph-name="emacron" unicode="&#x113;" horiz-adv-x="1110" 
d="M1031 360q7 0 13 -6q5 -7 4 -14q-12 -75 -49 -142q-38 -67 -99 -116q-61 -50 -146 -78q-85 -29 -191 -29q-127 0 -225 41t-163 114q-66 72 -100 173t-34 221q0 125 36 228q35 102 102 175q66 72 162 112q95 40 214 40q122 0 218 -40q95 -40 161 -114q65 -75 101 -182
q35 -107 38 -241q0 -8 -6 -14q-6 -7 -14 -7h-764q7 -168 76 -249q69 -82 202 -82q96 0 158 47q61 47 84 143q2 9 9 15q7 5 16 5h197zM807 647q-3 51 -19 99q-17 47 -48 83q-31 35 -77 57q-46 21 -106 21q-110 0 -175 -66q-65 -67 -85 -194h510zM258 1190q-8 0 -14 6t-6 14
v136q0 8 6 14t14 6h592q8 0 14 -6t6 -14v-136q0 -8 -6 -14t-14 -6h-592z" />
    <glyph glyph-name="Ebreve" unicode="&#x114;" horiz-adv-x="1096" 
d="M102 0q-8 0 -14 7q-6 6 -6 13l10 707l-10 686q0 8 6 15q6 6 14 6h914q8 0 14 -6q6 -7 6 -15v-156q0 -8 -6 -14t-14 -6h-676l-10 -379h631q8 0 14 -6t6 -14v-156q0 -8 -6 -14t-14 -6h-631l10 -465h692q8 0 15 -6q6 -7 6 -15v-156q0 -8 -6 -14q-7 -6 -15 -6h-930zM925 1841
q-3 -63 -27 -117q-25 -54 -67 -93q-42 -40 -101 -62q-59 -23 -130 -23t-130 23q-59 22 -101 62q-42 39 -66 93q-25 54 -28 117q-1 8 6 15q6 6 13 6h125q9 0 15 -5q6 -6 7 -16q7 -54 47 -89q40 -36 112 -36q67 0 109 36q42 35 49 89q1 10 8 16q6 5 16 5h124q7 0 14 -6
q6 -7 5 -15z" />
    <glyph glyph-name="ebreve" unicode="&#x115;" horiz-adv-x="1110" 
d="M1031 360q7 0 13 -6q5 -7 4 -14q-12 -75 -49 -142q-38 -67 -99 -116q-61 -50 -146 -78q-85 -29 -191 -29q-127 0 -225 41t-163 114q-66 72 -100 173t-34 221q0 125 36 228q35 102 102 175q66 72 162 112q95 40 214 40q122 0 218 -40q95 -40 161 -114q65 -75 101 -182
q35 -107 38 -241q0 -8 -6 -14q-6 -7 -14 -7h-764q7 -168 76 -249q69 -82 202 -82q96 0 158 47q61 47 84 143q2 9 9 15q7 5 16 5h197zM807 647q-3 51 -19 99q-17 47 -48 83q-31 35 -77 57q-46 21 -106 21q-110 0 -175 -66q-65 -67 -85 -194h510zM880 1462q-3 -63 -27 -117
q-25 -54 -67 -93q-42 -40 -101 -62q-59 -23 -130 -23t-130 23q-59 22 -101 62q-42 39 -66 93q-25 54 -28 117q-1 8 6 15q6 6 13 6h125q9 0 15 -5q6 -6 7 -16q7 -54 47 -89q40 -36 112 -36q67 0 109 36q42 35 49 89q1 10 8 16q6 5 16 5h124q7 0 14 -6q6 -7 5 -15z" />
    <glyph glyph-name="Edotaccent" unicode="&#x116;" horiz-adv-x="1096" 
d="M102 0q-8 0 -14 7q-6 6 -6 13l10 707l-10 686q0 8 6 15q6 6 14 6h914q8 0 14 -6q6 -7 6 -15v-156q0 -8 -6 -14t-14 -6h-676l-10 -379h631q8 0 14 -6t6 -14v-156q0 -8 -6 -14t-14 -6h-631l10 -465h692q8 0 15 -6q6 -7 6 -15v-156q0 -8 -6 -14q-7 -6 -15 -6h-930zM496 1544
q-8 0 -14 7q-7 6 -7 14v203q0 8 7 14q6 6 14 6h208q8 0 15 -6q6 -6 6 -14v-203q0 -8 -6 -14q-7 -7 -15 -7h-208z" />
    <glyph glyph-name="edotaccent" unicode="&#x117;" horiz-adv-x="1110" 
d="M1031 360q7 0 13 -6q5 -7 4 -14q-12 -75 -49 -142q-38 -67 -99 -116q-61 -50 -146 -78q-85 -29 -191 -29q-127 0 -225 41t-163 114q-66 72 -100 173t-34 221q0 125 36 228q35 102 102 175q66 72 162 112q95 40 214 40q122 0 218 -40q95 -40 161 -114q65 -75 101 -182
q35 -107 38 -241q0 -8 -6 -14q-6 -7 -14 -7h-764q7 -168 76 -249q69 -82 202 -82q96 0 158 47q61 47 84 143q2 9 9 15q7 5 16 5h197zM807 647q-3 51 -19 99q-17 47 -48 83q-31 35 -77 57q-46 21 -106 21q-110 0 -175 -66q-65 -67 -85 -194h510zM451 1165q-8 0 -14 7
q-7 6 -7 14v203q0 8 7 14q6 6 14 6h208q8 0 15 -6q6 -6 6 -14v-203q0 -8 -6 -14q-7 -7 -15 -7h-208z" />
    <glyph glyph-name="Eogonek" unicode="&#x118;" horiz-adv-x="1096" 
d="M102 0q-8 0 -14 7q-6 6 -6 13l10 707l-10 686q0 8 6 15q6 6 14 6h914q8 0 14 -6q6 -7 6 -15v-156q0 -8 -6 -14t-14 -6h-676l-10 -379h631q8 0 14 -6t6 -14v-156q0 -8 -6 -14t-14 -6h-631l10 -465h692q8 0 15 -6q6 -7 6 -15v-156q0 -8 -6 -14q-7 -6 -15 -6h-930zM936 -414
q-63 0 -116 15t-90 43q-38 28 -58 67q-21 40 -21 88q0 50 19 91q18 42 49 73q31 32 73 56q41 24 87 40q8 3 17 0q9 -4 13 -11l18 -29q4 -8 3 -16q-2 -9 -9 -15q-25 -21 -52 -59t-27 -83q0 -47 33 -68q32 -20 81 -20h90q8 0 15 -6q6 -6 6 -14v-131q0 -8 -6 -15q-7 -6 -15 -6
h-110z" />
    <glyph glyph-name="eogonek" unicode="&#x119;" horiz-adv-x="1110" 
d="M1031 360q7 0 13 -6q5 -7 4 -14q-12 -75 -49 -142q-38 -67 -99 -116q-61 -50 -146 -78q-85 -29 -191 -29q-127 0 -225 41t-163 114q-66 72 -100 173t-34 221q0 125 36 228q35 102 102 175q66 72 162 112q95 40 214 40q122 0 218 -40q95 -40 161 -114q65 -75 101 -182
q35 -107 38 -241q0 -8 -6 -14q-6 -7 -14 -7h-764q7 -168 76 -249q69 -82 202 -82q96 0 158 47q61 47 84 143q2 9 9 15q7 5 16 5h197zM807 647q-3 51 -19 99q-17 47 -48 83q-31 35 -77 57q-46 21 -106 21q-110 0 -175 -66q-65 -67 -85 -194h510zM733 -414q-63 0 -116 15
t-90 43q-38 28 -58 67q-21 40 -21 88q0 50 19 91q18 42 49 73q31 32 73 56q41 24 87 40q8 3 17 0q9 -4 13 -11l18 -29q4 -8 3 -16q-2 -9 -9 -15q-25 -21 -52 -59t-27 -83q0 -47 33 -68q32 -20 81 -20h90q8 0 15 -6q6 -6 6 -14v-131q0 -8 -6 -15q-7 -6 -15 -6h-110z" />
    <glyph glyph-name="Ecaron" unicode="&#x11a;" horiz-adv-x="1096" 
d="M102 0q-8 0 -14 7q-6 6 -6 13l10 707l-10 686q0 8 6 15q6 6 14 6h914q8 0 14 -6q6 -7 6 -15v-156q0 -8 -6 -14t-14 -6h-676l-10 -379h631q8 0 14 -6t6 -14v-156q0 -8 -6 -14t-14 -6h-631l10 -465h692q8 0 15 -6q6 -7 6 -15v-156q0 -8 -6 -14q-7 -6 -15 -6h-930zM667 1552
q-7 -5 -17 -8q-11 -4 -20 -4h-62q-9 0 -19 4q-11 3 -18 8l-273 182q-7 4 -10 13t0 17l34 89q3 7 11 11q8 3 15 -1l291 -141l289 141q7 4 15 1q8 -4 11 -11l36 -89q3 -8 0 -17t-10 -13z" />
    <glyph glyph-name="ecaron" unicode="&#x11b;" horiz-adv-x="1110" 
d="M1031 360q7 0 13 -6q5 -7 4 -14q-12 -75 -49 -142q-38 -67 -99 -116q-61 -50 -146 -78q-85 -29 -191 -29q-127 0 -225 41t-163 114q-66 72 -100 173t-34 221q0 125 36 228q35 102 102 175q66 72 162 112q95 40 214 40q122 0 218 -40q95 -40 161 -114q65 -75 101 -182
q35 -107 38 -241q0 -8 -6 -14q-6 -7 -14 -7h-764q7 -168 76 -249q69 -82 202 -82q96 0 158 47q61 47 84 143q2 9 9 15q7 5 16 5h197zM807 647q-3 51 -19 99q-17 47 -48 83q-31 35 -77 57q-46 21 -106 21q-110 0 -175 -66q-65 -67 -85 -194h510zM620 1173q-7 -5 -17 -8
q-11 -4 -20 -4h-62q-9 0 -19 4q-11 3 -18 8l-273 182q-7 4 -10 13t0 17l34 89q3 7 11 11q8 3 15 -1l291 -141l289 141q7 4 15 1q8 -4 11 -11l36 -89q3 -8 0 -17t-10 -13z" />
    <glyph glyph-name="Gcircumflex" unicode="&#x11c;" horiz-adv-x="1430" 
d="M1385 743q2 -190 -41 -335q-43 -146 -126 -242q-83 -97 -207 -146q-125 -49 -284 -49q-150 0 -276 54q-127 54 -217 152q-90 97 -140 235q-51 138 -51 305q0 169 50 308q50 138 140 235q89 96 214 149t274 53q253 0 416 -123q162 -123 216 -346q2 -7 -3 -13q-5 -7 -12 -7
h-219q-9 0 -16 6q-8 5 -10 14q-36 132 -130 201q-95 68 -240 68q-98 0 -176 -38t-132 -108q-54 -71 -83 -173t-29 -230q0 -124 30 -224q29 -101 84 -171t135 -108t179 -38q181 0 282 105t105 292h-391q-8 0 -14 7q-6 6 -6 14v153q0 8 6 15q6 6 14 6h637q8 0 15 -6
q6 -7 6 -15zM1025 1545q-3 -7 -11 -10q-8 -4 -15 0l-289 140l-291 -140q-7 -4 -15 0q-8 3 -11 10l-34 89q-3 8 0 17t10 13l273 182q7 5 18 9q10 3 19 3h62q9 0 20 -3q10 -4 17 -9l273 -182q7 -4 10 -13t0 -17z" />
    <glyph glyph-name="gcircumflex" unicode="&#x11d;" horiz-adv-x="1122" 
d="M291 543q0 -179 68 -273q68 -95 198 -94q121 0 190 87t70 261q1 179 -66 277q-68 97 -192 98q-133 3 -200 -92q-68 -96 -68 -264zM1051 47q1 -106 -31 -191q-32 -84 -94 -142q-63 -58 -156 -89q-94 -31 -215 -31q-97 -1 -181 19q-85 20 -148 61t-102 104q-40 63 -47 148
q-1 8 5 14q6 7 14 7h202q9 0 16 -6q7 -5 8 -15q12 -78 75 -119q63 -40 164 -40q116 0 187 68t71 216v121q-51 -78 -131 -122t-184 -44q-113 0 -200 41q-87 40 -145 110t-88 167q-30 96 -30 208q0 111 31 210q31 98 89 171t143 116q84 42 190 42q104 0 184 -39
q79 -39 133 -114l-5 116q-1 8 6 15q6 6 13 6h207q8 0 15 -6q6 -7 5 -15l-5 -469zM867 1166q-3 -7 -11 -10q-8 -4 -15 0l-289 140l-291 -140q-7 -4 -15 0q-8 3 -11 10l-34 89q-3 8 0 17t10 13l273 182q7 5 18 9q10 3 19 3h62q9 0 20 -3q10 -4 17 -9l273 -182q7 -4 10 -13
t0 -17z" />
    <glyph glyph-name="Gbreve" unicode="&#x11e;" horiz-adv-x="1430" 
d="M1385 743q2 -190 -41 -335q-43 -146 -126 -242q-83 -97 -207 -146q-125 -49 -284 -49q-150 0 -276 54q-127 54 -217 152q-90 97 -140 235q-51 138 -51 305q0 169 50 308q50 138 140 235q89 96 214 149t274 53q253 0 416 -123q162 -123 216 -346q2 -7 -3 -13q-5 -7 -12 -7
h-219q-9 0 -16 6q-8 5 -10 14q-36 132 -130 201q-95 68 -240 68q-98 0 -176 -38t-132 -108q-54 -71 -83 -173t-29 -230q0 -124 30 -224q29 -101 84 -171t135 -108t179 -38q181 0 282 105t105 292h-391q-8 0 -14 7q-6 6 -6 14v153q0 8 6 15q6 6 14 6h637q8 0 15 -6
q6 -7 6 -15zM1032 1841q-3 -63 -27 -117q-25 -54 -67 -93q-42 -40 -101 -62q-59 -23 -130 -23t-130 23q-59 22 -101 62q-42 39 -66 93q-25 54 -28 117q-1 8 6 15q6 6 13 6h125q9 0 15 -5q6 -6 7 -16q7 -54 47 -89q40 -36 112 -36q67 0 109 36q42 35 49 89q1 10 8 16
q6 5 16 5h124q7 0 14 -6q6 -7 5 -15z" />
    <glyph glyph-name="gbreve" unicode="&#x11f;" horiz-adv-x="1122" 
d="M291 543q0 -179 68 -273q68 -95 198 -94q121 0 190 87t70 261q1 179 -66 277q-68 97 -192 98q-133 3 -200 -92q-68 -96 -68 -264zM1051 47q1 -106 -31 -191q-32 -84 -94 -142q-63 -58 -156 -89q-94 -31 -215 -31q-97 -1 -181 19q-85 20 -148 61t-102 104q-40 63 -47 148
q-1 8 5 14q6 7 14 7h202q9 0 16 -6q7 -5 8 -15q12 -78 75 -119q63 -40 164 -40q116 0 187 68t71 216v121q-51 -78 -131 -122t-184 -44q-113 0 -200 41q-87 40 -145 110t-88 167q-30 96 -30 208q0 111 31 210q31 98 89 171t143 116q84 42 190 42q104 0 184 -39
q79 -39 133 -114l-5 116q-1 8 6 15q6 6 13 6h207q8 0 15 -6q6 -7 5 -15l-5 -469zM874 1462q-3 -63 -27 -117q-25 -54 -67 -93q-42 -40 -101 -62q-59 -23 -130 -23t-130 23q-59 22 -101 62q-42 39 -66 93q-25 54 -28 117q-1 8 6 15q6 6 13 6h125q9 0 15 -5q6 -6 7 -16
q7 -54 47 -89q40 -36 112 -36q67 0 109 36q42 35 49 89q1 10 8 16q6 5 16 5h124q7 0 14 -6q6 -7 5 -15z" />
    <glyph glyph-name="Gdotaccent" unicode="&#x120;" horiz-adv-x="1430" 
d="M1385 743q2 -190 -41 -335q-43 -146 -126 -242q-83 -97 -207 -146q-125 -49 -284 -49q-150 0 -276 54q-127 54 -217 152q-90 97 -140 235q-51 138 -51 305q0 169 50 308q50 138 140 235q89 96 214 149t274 53q253 0 416 -123q162 -123 216 -346q2 -7 -3 -13q-5 -7 -12 -7
h-219q-9 0 -16 6q-8 5 -10 14q-36 132 -130 201q-95 68 -240 68q-98 0 -176 -38t-132 -108q-54 -71 -83 -173t-29 -230q0 -124 30 -224q29 -101 84 -171t135 -108t179 -38q181 0 282 105t105 292h-391q-8 0 -14 7q-6 6 -6 14v153q0 8 6 15q6 6 14 6h637q8 0 15 -6
q6 -7 6 -15zM619 1544q-8 0 -14 7q-7 6 -7 14v203q0 8 7 14q6 6 14 6h208q8 0 15 -6q6 -6 6 -14v-203q0 -8 -6 -14q-7 -7 -15 -7h-208z" />
    <glyph glyph-name="gdotaccent" unicode="&#x121;" horiz-adv-x="1122" 
d="M291 543q0 -179 68 -273q68 -95 198 -94q121 0 190 87t70 261q1 179 -66 277q-68 97 -192 98q-133 3 -200 -92q-68 -96 -68 -264zM1051 47q1 -106 -31 -191q-32 -84 -94 -142q-63 -58 -156 -89q-94 -31 -215 -31q-97 -1 -181 19q-85 20 -148 61t-102 104q-40 63 -47 148
q-1 8 5 14q6 7 14 7h202q9 0 16 -6q7 -5 8 -15q12 -78 75 -119q63 -40 164 -40q116 0 187 68t71 216v121q-51 -78 -131 -122t-184 -44q-113 0 -200 41q-87 40 -145 110t-88 167q-30 96 -30 208q0 111 31 210q31 98 89 171t143 116q84 42 190 42q104 0 184 -39
q79 -39 133 -114l-5 116q-1 8 6 15q6 6 13 6h207q8 0 15 -6q6 -7 5 -15l-5 -469zM449 1165q-8 0 -14 7q-7 6 -7 14v203q0 8 7 14q6 6 14 6h208q8 0 15 -6q6 -6 6 -14v-203q0 -8 -6 -14q-7 -7 -15 -7h-208z" />
    <glyph glyph-name="Gcommaaccent" unicode="&#x122;" horiz-adv-x="1430" 
d="M1385 743q2 -190 -41 -335q-43 -146 -126 -242q-83 -97 -207 -146q-125 -49 -284 -49q-150 0 -276 54q-127 54 -217 152q-90 97 -140 235q-51 138 -51 305q0 169 50 308q50 138 140 235q89 96 214 149t274 53q253 0 416 -123q162 -123 216 -346q2 -7 -3 -13q-5 -7 -12 -7
h-219q-9 0 -16 6q-8 5 -10 14q-36 132 -130 201q-95 68 -240 68q-98 0 -176 -38t-132 -108q-54 -71 -83 -173t-29 -230q0 -124 30 -224q29 -101 84 -171t135 -108t179 -38q181 0 282 105t105 292h-391q-8 0 -14 7q-6 6 -6 14v153q0 8 6 15q6 6 14 6h637q8 0 15 -6
q6 -7 6 -15zM599 -477q-7 0 -12 6q-5 7 -3 14l42 172v187q0 8 6 14t14 6h156q8 0 14 -6t6 -14v-164q0 -9 -3 -20t-7 -18l-100 -160q-4 -7 -13 -12t-18 -5h-82z" />
    <glyph glyph-name="gcommaaccent" unicode="&#x123;" horiz-adv-x="1122" 
d="M291 543q0 -179 68 -273q68 -95 198 -94q121 0 190 87t70 261q1 179 -66 277q-68 97 -192 98q-133 3 -200 -92q-68 -96 -68 -264zM1051 47q1 -106 -31 -191q-32 -84 -94 -142q-63 -58 -156 -89q-94 -31 -215 -31q-97 -1 -181 19q-85 20 -148 61t-102 104q-40 63 -47 148
q-1 8 5 14q6 7 14 7h202q9 0 16 -6q7 -5 8 -15q12 -78 75 -119q63 -40 164 -40q116 0 187 68t71 216v121q-51 -78 -131 -122t-184 -44q-113 0 -200 41q-87 40 -145 110t-88 167q-30 96 -30 208q0 111 31 210q31 98 89 171t143 116q84 42 190 42q104 0 184 -39
q79 -39 133 -114l-5 116q-1 8 6 15q6 6 13 6h207q8 0 15 -6q6 -7 5 -15l-5 -469zM451 1182q-8 0 -14 6q-7 6 -7 14v164q0 9 4 19q3 10 9 17l138 163q6 7 15 12q9 4 19 4h96q7 0 12 -6q5 -7 3 -14l-46 -172v-187q0 -8 -6 -14t-14 -6h-209z" />
    <glyph glyph-name="Hcircumflex" unicode="&#x124;" horiz-adv-x="1362" 
d="M1040 0q-8 0 -14 7q-6 6 -6 13l10 648h-698l8 -648q0 -7 -6 -13q-7 -7 -15 -7h-217q-8 0 -14 7q-6 6 -6 13l10 693l-10 700q0 8 6 15q6 6 14 6h217q8 0 15 -6q6 -7 6 -15l-6 -549h694l-8 549q0 8 6 15q6 6 14 6h220q7 0 14 -6q6 -7 6 -15l-10 -700l10 -693q0 -7 -6 -13
q-7 -7 -14 -7h-220zM998 1545q-3 -7 -11 -10q-8 -4 -15 0l-289 140l-291 -140q-7 -4 -15 0q-8 3 -11 10l-34 89q-3 8 0 17t10 13l273 182q7 5 18 9q10 3 19 3h62q9 0 20 -3q10 -4 17 -9l273 -182q7 -4 10 -13t0 -17z" />
    <glyph glyph-name="hcircumflex" unicode="&#x125;" horiz-adv-x="1077" 
d="M768 659q-1 119 -55 175q-54 55 -133 55q-44 0 -87 -18t-79 -52q-36 -35 -63 -86t-40 -117l8 -596q0 -7 -6 -13q-6 -7 -14 -7h-207q-8 0 -14 7q-6 6 -6 13l8 703l-8 690q0 8 6 15q6 6 14 6h207q8 0 14 -6q6 -7 6 -15l-8 -500q54 77 137 122q82 44 195 44q86 0 156 -26
q69 -27 117 -81q47 -55 72 -139q25 -85 24 -200l-2 -219l6 -394q0 -7 -6 -13q-7 -7 -15 -7h-211q-8 0 -14 7q-6 6 -6 13l6 390zM509 1545q-3 -7 -11 -10q-8 -4 -15 0l-289 140l-291 -140q-7 -4 -15 0q-8 3 -11 10l-34 89q-3 8 0 17t10 13l273 182q7 5 18 9q10 3 19 3h62
q9 0 20 -3q10 -4 17 -9l273 -182q7 -4 10 -13t0 -17z" />
    <glyph glyph-name="Hbar" unicode="&#x126;" horiz-adv-x="1386" 
d="M1040 750l-2 235h-690l-2 -235h694zM1057 0q-8 0 -14 6q-7 6 -7 14l4 533h-694l4 -533q0 -8 -6 -14t-14 -6h-213q-8 0 -14 6q-7 6 -7 14l6 693l-2 272h-88q-8 0 -14 7q-6 6 -6 14v155q0 8 6 15q6 6 14 6h86l-2 231q0 8 7 15q6 6 14 6h213q8 0 14 -6q6 -7 6 -15l-2 -231
h690l-2 231q0 8 7 15q6 6 14 6h213q8 0 14 -6q6 -7 6 -15l-2 -231h86q8 0 15 -6q6 -7 6 -15v-155q0 -8 -6 -14q-7 -7 -15 -7h-88l-2 -272l6 -693q0 -8 -6 -14t-14 -6h-213z" />
    <glyph glyph-name="hbar" unicode="&#x127;" horiz-adv-x="1083" 
d="M336 20q0 -7 -6 -13q-7 -7 -15 -7h-206q-8 0 -14 7q-7 6 -7 13l8 703l-5 424h-91q-8 0 -14 6t-6 14v140q0 8 6 14t14 6h89l-1 86q0 8 7 15q6 6 14 6h206q8 0 15 -6q6 -7 6 -15l-2 -86h278q8 0 15 -6q6 -6 6 -14v-140q0 -8 -6 -14q-7 -6 -15 -6h-281l-3 -234
q53 77 136 122q82 44 195 44q87 0 156 -26q69 -27 117 -81q48 -55 73 -139q24 -85 23 -200l-2 -219l6 -394q0 -7 -6 -13q-6 -7 -14 -7h-211q-8 0 -14 7q-7 6 -6 13l5 390l-2 249q-1 119 -55 175q-54 55 -133 55q-44 0 -87 -18t-79 -52q-36 -35 -62 -86q-27 -51 -40 -117z
" />
    <glyph glyph-name="Itilde" unicode="&#x128;" horiz-adv-x="440" 
d="M113 0q-8 0 -14 7q-7 6 -7 13l10 703l-10 690q0 8 7 15q6 6 14 6h215q8 0 14 -6q6 -7 6 -15l-10 -690l10 -703q0 -7 -6 -13q-6 -7 -14 -7h-215zM530 1802q-4 -110 -50 -176q-46 -67 -136 -67q-47 0 -80 19q-33 18 -58 40q-26 22 -48 41q-22 18 -48 18q-33 0 -47 -25
q-15 -26 -18 -69q0 -8 -6 -14q-7 -6 -15 -6h-88q-8 0 -14 7q-6 6 -6 13q2 52 14 97q13 45 36 78q23 32 58 51q35 18 82 18q45 0 78 -18q32 -19 57 -41q25 -23 47 -41q21 -19 44 -19q35 0 51 26q15 26 18 68q0 9 7 15q6 6 14 6h88q8 0 14 -6q6 -7 6 -15z" />
    <glyph glyph-name="itilde" unicode="&#x129;" horiz-adv-x="412" 
d="M98 0q-8 0 -14 7q-6 6 -6 13l8 515l-8 499q0 8 6 15q6 6 14 6h213q8 0 15 -6q6 -7 6 -15l-6 -499l6 -515q0 -7 -6 -13q-7 -7 -15 -7h-213zM512 1423q-4 -110 -50 -176q-46 -67 -136 -67q-47 0 -80 19q-33 18 -58 40q-26 22 -48 41q-22 18 -48 18q-33 0 -47 -25
q-15 -26 -18 -69q0 -8 -6 -14q-7 -6 -15 -6h-88q-8 0 -14 7q-6 6 -6 13q2 52 14 97q13 45 36 78q23 32 58 51q35 18 82 18q45 0 78 -18q32 -19 57 -41q25 -23 47 -41q21 -19 44 -19q35 0 51 26q15 26 18 68q0 9 7 15q6 6 14 6h88q8 0 14 -6q6 -7 6 -15z" />
    <glyph glyph-name="Imacron" unicode="&#x12a;" horiz-adv-x="440" 
d="M113 0q-8 0 -14 7q-7 6 -7 13l10 703l-10 690q0 8 7 15q6 6 14 6h215q8 0 14 -6q6 -7 6 -15l-10 -690l10 -703q0 -7 -6 -13q-6 -7 -14 -7h-215zM-72 1569q-8 0 -14 6t-6 14v136q0 8 6 14t14 6h592q8 0 14 -6t6 -14v-136q0 -8 -6 -14t-14 -6h-592z" />
    <glyph glyph-name="imacron" unicode="&#x12b;" horiz-adv-x="412" 
d="M98 0q-8 0 -14 7q-6 6 -6 13l8 515l-8 499q0 8 6 15q6 6 14 6h213q8 0 15 -6q6 -7 6 -15l-6 -499l6 -515q0 -7 -6 -13q-7 -7 -15 -7h-213zM-90 1190q-8 0 -14 6t-6 14v136q0 8 6 14t14 6h592q8 0 14 -6t6 -14v-136q0 -8 -6 -14t-14 -6h-592z" />
    <glyph glyph-name="Ibreve" unicode="&#x12c;" horiz-adv-x="440" 
d="M113 0q-8 0 -14 7q-7 6 -7 13l10 703l-10 690q0 8 7 15q6 6 14 6h215q8 0 14 -6q6 -7 6 -15l-10 -690l10 -703q0 -7 -6 -13q-6 -7 -14 -7h-215zM548 1841q-3 -63 -27 -117q-25 -54 -67 -93q-42 -40 -101 -62q-59 -23 -130 -23t-130 23q-59 22 -101 62q-42 39 -67 93
q-24 54 -27 117q-1 8 5 15q7 6 14 6h125q9 0 15 -5q6 -6 7 -16q7 -54 47 -89q40 -36 112 -36q67 0 109 36q42 35 49 89q1 10 8 16q6 5 16 5h124q7 0 14 -6q6 -7 5 -15z" />
    <glyph glyph-name="ibreve" unicode="&#x12d;" horiz-adv-x="412" 
d="M98 0q-8 0 -14 7q-6 6 -6 13l8 515l-8 499q0 8 6 15q6 6 14 6h213q8 0 15 -6q6 -7 6 -15l-6 -499l6 -515q0 -7 -6 -13q-7 -7 -15 -7h-213zM530 1462q-3 -63 -27 -117q-25 -54 -67 -93q-42 -40 -101 -62q-59 -23 -130 -23t-130 23q-59 22 -101 62q-42 39 -67 93
q-24 54 -27 117q-1 8 5 15q7 6 14 6h125q9 0 15 -5q6 -6 7 -16q7 -54 47 -89q40 -36 112 -36q67 0 109 36q42 35 49 89q1 10 8 16q6 5 16 5h124q7 0 14 -6q6 -7 5 -15z" />
    <glyph glyph-name="Iogonek" unicode="&#x12e;" horiz-adv-x="440" 
d="M113 0q-8 0 -14 7q-7 6 -7 13l10 703l-10 690q0 8 7 15q6 6 14 6h215q8 0 14 -6q6 -7 6 -15l-10 -690l10 -703q0 -7 -6 -13q-6 -7 -14 -7h-215zM258 -414q-63 0 -116 15t-90 43q-38 28 -59 67q-20 40 -20 88q0 50 18 91q19 42 50 73q31 32 73 56q41 24 87 40q8 3 17 0
q9 -4 13 -11l18 -29q4 -8 3 -16q-2 -9 -9 -15q-25 -21 -52 -59t-27 -83q0 -47 33 -68q32 -20 81 -20h90q8 0 15 -6q6 -6 6 -14v-131q0 -8 -6 -15q-7 -6 -15 -6h-110z" />
    <glyph glyph-name="iogonek" unicode="&#x12f;" horiz-adv-x="412" 
d="M98 0q-8 0 -14 7q-6 6 -6 13l8 515l-8 499q0 8 6 15q6 6 14 6h213q8 0 15 -6q6 -7 6 -15l-6 -499l6 -515q0 -7 -6 -13q-7 -7 -15 -7h-213zM101 1165q-8 0 -14 7q-7 6 -7 14v203q0 8 7 14q6 6 14 6h208q8 0 15 -6q6 -6 6 -14v-203q0 -8 -6 -14q-7 -7 -15 -7h-208z
M240 -414q-63 0 -116 15t-90 43q-38 28 -59 67q-20 40 -20 88q0 50 18 91q19 42 50 73q31 32 73 56q41 24 87 40q8 3 17 0q9 -4 13 -11l18 -29q4 -8 3 -16q-2 -9 -9 -15q-25 -21 -52 -59t-27 -83q0 -47 33 -68q32 -20 81 -20h90q8 0 15 -6q6 -6 6 -14v-131q0 -8 -6 -15
q-7 -6 -15 -6h-110z" />
    <glyph glyph-name="Idotaccent" unicode="&#x130;" horiz-adv-x="440" 
d="M113 0q-8 0 -14 7q-7 6 -7 13l10 703l-10 690q0 8 7 15q6 6 14 6h215q8 0 14 -6q6 -7 6 -15l-10 -690l10 -703q0 -7 -6 -13q-6 -7 -14 -7h-215zM115 1544q-8 0 -14 7q-7 6 -7 14v203q0 8 7 14q6 6 14 6h208q8 0 15 -6q6 -6 6 -14v-203q0 -8 -6 -14q-7 -7 -15 -7h-208z
" />
    <glyph glyph-name="dotlessi" unicode="&#x131;" horiz-adv-x="412" 
d="M98 0q-8 0 -14 7q-6 6 -6 13l8 515l-8 499q0 8 6 15q6 6 14 6h213q8 0 15 -6q6 -7 6 -15l-6 -499l6 -515q0 -7 -6 -13q-7 -7 -15 -7h-213z" />
    <glyph glyph-name="IJ" unicode="&#x132;" horiz-adv-x="1466" 
d="M113 0q-8 0 -14 7q-7 6 -7 13l10 703l-10 690q0 8 7 15q6 6 14 6h215q8 0 14 -6q6 -7 6 -15l-10 -690l10 -703q0 -7 -6 -13q-6 -7 -14 -7h-215zM1394 510q3 -267 -116 -404t-353 -137q-115 0 -201 37t-143 105q-57 67 -86 165q-30 97 -32 216q0 7 6 14q6 6 14 6h205
q8 0 14 -6t6 -14q3 -149 52 -232q48 -84 167 -84q124 0 169 86q45 85 46 250l3 397l-8 504q-1 8 6 15q6 6 14 6h223q8 0 14 -6q6 -7 6 -15l-8 -504z" />
    <glyph glyph-name="ij" unicode="&#x133;" horiz-adv-x="821" 
d="M98 0q-8 0 -14 7q-6 6 -6 13l8 515l-8 499q0 8 6 15q6 6 14 6h213q8 0 15 -6q6 -7 6 -15l-6 -499l6 -515q0 -7 -6 -13q-7 -7 -15 -7h-213zM101 1165q-8 0 -14 7q-7 6 -7 14v203q0 8 7 14q6 6 14 6h208q8 0 15 -6q6 -6 6 -14v-203q0 -8 -6 -14q-7 -7 -15 -7h-208z
M510 -348q-8 0 -14 6t-6 14l8 680l-8 682q0 8 6 15q6 6 14 6h213q8 0 15 -6q6 -7 6 -15l-6 -682l6 -680q0 -8 -6 -14q-7 -6 -15 -6h-213zM512 1165q-8 0 -14 7q-7 6 -7 14v203q0 8 7 14q6 6 14 6h208q8 0 15 -6q6 -6 6 -14v-203q0 -8 -6 -14q-7 -7 -15 -7h-208z" />
    <glyph glyph-name="Jcircumflex" unicode="&#x134;" horiz-adv-x="1026" 
d="M954 510q3 -267 -116 -404t-353 -137q-115 0 -201 37t-143 105q-57 67 -86 165q-30 97 -32 216q0 7 6 14q6 6 14 6h205q8 0 14 -6t6 -14q3 -149 52 -232q48 -84 167 -84q124 0 169 86q45 85 46 250l3 397l-8 504q-1 8 6 15q6 6 14 6h223q8 0 14 -6q6 -7 6 -15l-8 -504z
M1127 1545q-3 -7 -11 -10q-8 -4 -15 0l-289 140l-291 -140q-7 -4 -15 0q-8 3 -11 10l-34 89q-3 8 0 17t10 13l273 182q7 5 18 9q10 3 19 3h62q9 0 20 -3q10 -4 17 -9l273 -182q7 -4 10 -13t0 -17z" />
    <glyph glyph-name="jcircumflex" unicode="&#x135;" horiz-adv-x="412" 
d="M98 -348q-8 0 -14 6t-6 14l8 680l-8 682q0 8 6 15q6 6 14 6h213q8 0 15 -6q6 -7 6 -15l-6 -682l6 -680q0 -8 -6 -14q-7 -6 -15 -6h-213zM519 1166q-3 -7 -11 -10q-8 -4 -15 0l-289 140l-291 -140q-7 -4 -15 0q-8 3 -11 10l-34 89q-3 8 0 17t10 13l273 182q7 5 18 9
q10 3 19 3h62q9 0 20 -3q10 -4 17 -9l273 -182q7 -4 10 -13t0 -17z" />
    <glyph glyph-name="Kcommaaccent" unicode="&#x136;" horiz-adv-x="1202" 
d="M748 246l-275 409l-139 -172l4 -463q0 -8 -6 -14q-7 -6 -15 -6h-215q-8 0 -14 7q-6 6 -6 13l10 705l-10 688q0 8 6 15q6 6 14 6h215q8 0 15 -6q6 -7 6 -15l-6 -633l473 637q5 7 14 12t19 5h258q6 0 9 -6q2 -6 -2 -10l-466 -564l570 -837q4 -6 1 -11q-3 -6 -10 -6h-270
q-10 0 -18 5q-9 5 -14 12zM509 -477q-7 0 -12 6q-5 7 -3 14l42 172v187q0 8 6 14t14 6h156q8 0 14 -6t6 -14v-164q0 -9 -3 -20t-7 -18l-100 -160q-4 -7 -13 -12t-18 -5h-82z" />
    <glyph glyph-name="kcommaaccent" unicode="&#x137;" horiz-adv-x="983" 
d="M608 199l-178 295l-117 -138l4 -336q0 -7 -6 -13q-6 -7 -14 -7h-207q-8 0 -14 7q-6 6 -6 13l8 695l-8 698q0 8 6 15q6 6 14 6h207q8 0 14 -6q6 -7 6 -15l-8 -694v-88l353 408q7 7 16 12q9 4 18 4h234q6 0 9 -5q2 -6 -2 -10l-333 -368l383 -654q4 -6 1 -12q-4 -6 -11 -6
h-246q-9 0 -17 5q-9 5 -13 13zM388 -477q-7 0 -12 6q-5 7 -3 14l42 172v187q0 8 6 14t14 6h156q8 0 14 -6t6 -14v-164q0 -9 -3 -20t-7 -18l-100 -160q-4 -7 -13 -12t-18 -5h-82z" />
    <glyph glyph-name="Lacute" unicode="&#x139;" horiz-adv-x="975" 
d="M102 0q-8 0 -14 7q-6 6 -6 13l10 711l-10 682q0 8 6 15q6 6 14 6h217q8 0 15 -6q6 -7 6 -15l-8 -668l8 -548h604q8 0 15 -6q6 -7 6 -15v-156q0 -8 -6 -14q-7 -6 -15 -6h-842zM64 1530q-8 -2 -16 2q-8 3 -11 11l-34 85q-3 7 1 16q3 8 10 11l460 209q7 3 15 0q8 -4 11 -11
l50 -154q3 -7 -1 -15q-5 -8 -12 -10z" />
    <glyph glyph-name="lacute" unicode="&#x13a;" horiz-adv-x="408" 
d="M100 0q-8 0 -14 7q-6 6 -6 13l8 701l-8 692q0 8 6 15q6 6 14 6h207q8 0 15 -6q6 -7 5 -15l-8 -692l8 -701q1 -7 -5 -13q-7 -7 -15 -7h-207zM58 1530q-8 -2 -16 2q-8 3 -11 11l-34 85q-3 7 0 16q4 8 11 11l460 209q7 3 15 0q8 -4 11 -11l50 -154q3 -7 -1 -15
q-5 -8 -12 -10z" />
    <glyph glyph-name="Lcommaaccent" unicode="&#x13b;" horiz-adv-x="975" 
d="M102 0q-8 0 -14 7q-6 6 -6 13l10 711l-10 682q0 8 6 15q6 6 14 6h217q8 0 15 -6q6 -7 6 -15l-8 -668l8 -548h604q8 0 15 -6q6 -7 6 -15v-156q0 -8 -6 -14q-7 -6 -15 -6h-842zM414 -477q-7 0 -12 6q-5 7 -3 14l42 172v187q0 8 6 14t14 6h156q8 0 14 -6t6 -14v-164
q0 -9 -3 -20t-7 -18l-100 -160q-4 -7 -13 -12t-18 -5h-82z" />
    <glyph glyph-name="lcommaaccent" unicode="&#x13c;" horiz-adv-x="408" 
d="M100 0q-8 0 -14 7q-6 6 -6 13l8 701l-8 692q0 8 6 15q6 6 14 6h207q8 0 15 -6q6 -7 5 -15l-8 -692l8 -701q1 -7 -5 -13q-7 -7 -15 -7h-207zM83 -477q-7 0 -12 6q-5 7 -3 14l42 172v187q0 8 6 14t14 6h156q8 0 14 -6t6 -14v-164q0 -9 -3 -20t-7 -18l-100 -160
q-4 -7 -13 -12t-18 -5h-82z" />
    <glyph glyph-name="Lcaron" unicode="&#x13d;" horiz-adv-x="975" 
d="M102 0q-8 0 -14 7q-6 6 -6 13l10 711l-10 682q0 8 6 15q6 6 14 6h217q8 0 15 -6q6 -7 6 -15l-8 -668l8 -548h604q8 0 15 -6q6 -7 6 -15v-156q0 -8 -6 -14q-7 -6 -15 -6h-842zM842 993q-2 -9 -9 -14q-7 -6 -16 -6h-119q-7 0 -12 7q-6 6 -5 13l63 416q1 9 8 15t16 6h164
q7 0 12 -6q5 -7 3 -14z" />
    <glyph glyph-name="lcaron" unicode="&#x13e;" horiz-adv-x="408" 
d="M100 0q-8 0 -14 7q-6 6 -6 13l8 701l-8 692q0 8 6 15q6 6 14 6h207q8 0 15 -6q6 -7 5 -15l-8 -692l8 -701q1 -7 -5 -13q-7 -7 -15 -7h-207zM551 1091q-2 -9 -9 -14q-7 -6 -16 -6h-119q-7 0 -12 7q-6 6 -5 13l63 416q1 9 8 15t16 6h164q7 0 12 -6q5 -7 3 -14z" />
    <glyph glyph-name="Ldot" unicode="&#x13f;" horiz-adv-x="975" 
d="M102 0q-8 0 -14 7q-6 6 -6 13l10 711l-10 682q0 8 6 15q6 6 14 6h217q8 0 15 -6q6 -7 6 -15l-8 -668l8 -548h604q8 0 15 -6q6 -7 6 -15v-156q0 -8 -6 -14q-7 -6 -15 -6h-842zM621 680q-8 0 -14 7q-7 6 -7 14v203q0 8 7 14q6 6 14 6h208q8 0 15 -6q6 -6 6 -14v-203
q0 -8 -6 -14q-7 -7 -15 -7h-208z" />
    <glyph glyph-name="ldot" unicode="&#x140;" horiz-adv-x="655" 
d="M100 0q-8 0 -14 7q-6 6 -6 13l8 701l-8 692q0 8 6 15q6 6 14 6h207q8 0 15 -6q6 -7 5 -15l-8 -692l8 -701q1 -7 -5 -13q-7 -7 -15 -7h-207zM424 530q-8 0 -14 7q-7 6 -7 14v203q0 8 7 14q6 6 14 6h208q8 0 15 -6q6 -6 6 -14v-203q0 -8 -6 -14q-7 -7 -15 -7h-208z" />
    <glyph glyph-name="Lslash" unicode="&#x141;" horiz-adv-x="993" 
d="M135 0q-8 0 -14 7q-6 6 -6 13l7 531l-107 -35q-7 -2 -13 3q-6 4 -6 11v158q0 9 6 17q5 7 13 10l110 35l-10 663q0 8 6 15q6 6 14 6h217q8 0 15 -6q6 -7 5 -15l-6 -585l294 95q7 3 14 -1q6 -5 6 -13v-157q0 -9 -5 -17q-6 -8 -15 -10l-294 -95l7 -433h604q8 0 14 -6
q6 -7 6 -15v-156q0 -8 -6 -14t-14 -6h-842z" />
    <glyph glyph-name="lslash" unicode="&#x142;" horiz-adv-x="465" 
d="M129 0q-8 0 -14 7q-6 6 -6 13l4 395l-68 -37q-7 -3 -12 1q-6 3 -6 10v156q0 9 5 18q5 8 13 12l71 38l1 108l-8 692q0 8 6 15q6 6 14 6h207q8 0 14 -6q6 -7 6 -15l-8 -675l72 39q7 3 13 0q5 -4 5 -11v-156q0 -9 -5 -17q-5 -9 -13 -13l-70 -38l6 -522q0 -7 -6 -13
q-6 -7 -14 -7h-207z" />
    <glyph glyph-name="Nacute" unicode="&#x143;" horiz-adv-x="1366" 
d="M319 614v-594q0 -8 -6 -14t-14 -6h-197q-8 0 -14 7q-6 6 -6 13l8 701l-8 692q0 8 6 15q6 6 14 6h260q10 0 19 -5q8 -5 13 -13l663 -1099l-2 78l-8 379l-2 639q0 8 6 15q6 6 14 6h199q8 0 14 -6q6 -7 6 -15l-10 -692l8 -701q0 -7 -6 -13q-6 -7 -14 -7h-271q-9 0 -18 5
t-13 13l-653 1082l4 -111zM519 1530q-8 -2 -16 2q-8 3 -11 11l-34 85q-3 7 1 16q3 8 10 11l460 209q7 3 15 0q8 -4 11 -11l50 -154q3 -7 -1 -15q-5 -8 -12 -10z" />
    <glyph glyph-name="nacute" unicode="&#x144;" 
d="M92 0q-8 0 -14 7q-6 6 -6 13l6 476l-4 538q0 8 6 15q6 6 14 6h199q8 0 14 -6q6 -7 6 -15l-4 -133q25 37 60 70q35 32 79 56q43 24 95 38q51 14 110 14q82 0 150 -27q67 -28 114 -80q46 -52 72 -129q25 -78 25 -177v-217l6 -429q0 -7 -6 -13q-7 -7 -15 -7h-211q-7 0 -13 7
q-7 6 -7 13l6 429v210q0 112 -54 170t-138 58q-47 0 -90 -20q-44 -20 -79 -60t-59 -101q-25 -61 -32 -143v-114l3 -429q1 -7 -5 -13q-7 -7 -15 -7h-213zM380 1151q-8 -2 -16 2q-8 3 -11 11l-34 85q-3 7 1 16q3 8 10 11l460 209q7 3 15 0q8 -4 11 -11l50 -154q3 -7 -1 -15
q-5 -8 -12 -10z" />
    <glyph glyph-name="Ncommaaccent" unicode="&#x145;" horiz-adv-x="1366" 
d="M319 614v-594q0 -8 -6 -14t-14 -6h-197q-8 0 -14 7q-6 6 -6 13l8 701l-8 692q0 8 6 15q6 6 14 6h260q10 0 19 -5q8 -5 13 -13l663 -1099l-2 78l-8 379l-2 639q0 8 6 15q6 6 14 6h199q8 0 14 -6q6 -7 6 -15l-10 -692l8 -701q0 -7 -6 -13q-6 -7 -14 -7h-271q-9 0 -18 5
t-13 13l-653 1082l4 -111zM568 -477q-7 0 -12 6q-5 7 -3 14l42 172v187q0 8 6 14t14 6h156q8 0 14 -6t6 -14v-164q0 -9 -3 -20t-7 -18l-100 -160q-4 -7 -13 -12t-18 -5h-82z" />
    <glyph glyph-name="ncommaaccent" unicode="&#x146;" 
d="M92 0q-8 0 -14 7q-6 6 -6 13l6 476l-4 538q0 8 6 15q6 6 14 6h199q8 0 14 -6q6 -7 6 -15l-4 -133q25 37 60 70q35 32 79 56q43 24 95 38q51 14 110 14q82 0 150 -27q67 -28 114 -80q46 -52 72 -129q25 -78 25 -177v-217l6 -429q0 -7 -6 -13q-7 -7 -15 -7h-211q-7 0 -13 7
q-7 6 -7 13l6 429v210q0 112 -54 170t-138 58q-47 0 -90 -20q-44 -20 -79 -60t-59 -101q-25 -61 -32 -143v-114l3 -429q1 -7 -5 -13q-7 -7 -15 -7h-213zM427 -477q-7 0 -12 6q-5 7 -3 14l42 172v187q0 8 6 14t14 6h156q8 0 14 -6t6 -14v-164q0 -9 -3 -20t-7 -18l-100 -160
q-4 -7 -13 -12t-18 -5h-82z" />
    <glyph glyph-name="Ncaron" unicode="&#x147;" horiz-adv-x="1366" 
d="M319 614v-594q0 -8 -6 -14t-14 -6h-197q-8 0 -14 7q-6 6 -6 13l8 701l-8 692q0 8 6 15q6 6 14 6h260q10 0 19 -5q8 -5 13 -13l663 -1099l-2 78l-8 379l-2 639q0 8 6 15q6 6 14 6h199q8 0 14 -6q6 -7 6 -15l-10 -692l8 -701q0 -7 -6 -13q-6 -7 -14 -7h-271q-9 0 -18 5
t-13 13l-653 1082l4 -111zM755 1552q-7 -5 -17 -8q-11 -4 -20 -4h-62q-9 0 -19 4q-11 3 -18 8l-273 182q-7 4 -10 13t0 17l34 89q3 7 11 11q8 3 15 -1l291 -141l289 141q7 4 15 1q8 -4 11 -11l36 -89q3 -8 0 -17t-10 -13z" />
    <glyph glyph-name="ncaron" unicode="&#x148;" 
d="M92 0q-8 0 -14 7q-6 6 -6 13l6 476l-4 538q0 8 6 15q6 6 14 6h199q8 0 14 -6q6 -7 6 -15l-4 -133q25 37 60 70q35 32 79 56q43 24 95 38q51 14 110 14q82 0 150 -27q67 -28 114 -80q46 -52 72 -129q25 -78 25 -177v-217l6 -429q0 -7 -6 -13q-7 -7 -15 -7h-211q-7 0 -13 7
q-7 6 -7 13l6 429v210q0 112 -54 170t-138 58q-47 0 -90 -20q-44 -20 -79 -60t-59 -101q-25 -61 -32 -143v-114l3 -429q1 -7 -5 -13q-7 -7 -15 -7h-213zM612 1173q-7 -5 -17 -8q-11 -4 -20 -4h-62q-9 0 -19 4q-11 3 -18 8l-273 182q-7 4 -10 13t0 17l34 89q3 7 11 11
q8 3 15 -1l291 -141l289 141q7 4 15 1q8 -4 11 -11l36 -89q3 -8 0 -17t-10 -13z" />
    <glyph glyph-name="Eng" unicode="&#x14a;" horiz-adv-x="1348" 
d="M1272 -47q0 -89 -26 -151q-27 -62 -69 -100q-43 -38 -97 -56q-55 -17 -111 -17q-41 0 -84 5q-44 6 -78 12q-9 1 -15 8q-6 8 -6 16v143q0 8 7 12q6 5 13 4q22 -5 48 -8t57 -3q57 0 91 34q34 35 34 123v27l-735 1114l2 -106l6 -314l2 -676q0 -8 -6 -14t-14 -6h-195
q-8 0 -14 6t-6 14l4 701l-4 692q0 8 6 15q6 6 14 6h258q10 0 19 -5q8 -5 13 -12l656 -985l-6 170v811q0 8 7 15q6 6 14 6h194q8 0 15 -6q6 -7 6 -15l-4 -592z" />
    <glyph glyph-name="eng" unicode="&#x14b;" horiz-adv-x="1071" 
d="M1012 -47q0 -88 -27 -150q-27 -61 -71 -100q-45 -38 -101 -55q-57 -17 -115 -17q-40 0 -84 5t-78 12q-8 1 -14 8q-6 8 -6 16v141q0 8 7 12q6 5 13 4q22 -5 49 -8t58 -3q57 0 91 35q34 36 34 124v682q0 112 -54 170t-136 58q-47 0 -90 -20q-44 -20 -79 -60
q-36 -40 -60 -101t-32 -143v-114l2 -429q0 -8 -6 -14t-14 -6h-211q-8 0 -14 6t-6 14l4 476l-2 538q0 8 6 15q6 6 14 6h199q8 0 14 -6q6 -7 5 -15l-5 -133q26 37 62 70q35 32 79 56q43 24 95 38q51 14 110 14q82 0 150 -27q67 -28 114 -80t73 -129q26 -78 26 -177v-713z" />
    <glyph glyph-name="Omacron" unicode="&#x14c;" horiz-adv-x="1497" 
d="M1452 713q0 -165 -50 -302q-51 -138 -142 -235q-92 -97 -222 -151q-131 -54 -290 -54t-289 54q-131 54 -223 152q-92 97 -142 235q-51 138 -51 303q0 170 50 309t142 236q91 96 222 149t291 53q158 0 289 -52q130 -52 222 -148q92 -97 143 -236q50 -140 50 -313zM303 713
q0 -125 31 -225q30 -100 87 -169q57 -70 141 -107q83 -38 188 -38q104 0 187 37t140 107q57 69 87 170q30 100 30 225t-30 227t-86 173q-57 70 -140 109q-84 38 -190 38t-189 -37q-84 -38 -140 -108q-57 -70 -86 -172q-30 -102 -30 -230zM446 1569q-8 0 -14 6t-6 14v136
q0 8 6 14t14 6h592q8 0 14 -6t6 -14v-136q0 -8 -6 -14t-14 -6h-592z" />
    <glyph glyph-name="omacron" unicode="&#x14d;" horiz-adv-x="1122" 
d="M1081 530q0 -125 -34 -228q-35 -103 -100 -175q-66 -72 -163 -112t-221 -40t-221 39q-98 39 -164 111q-67 71 -102 173q-35 101 -35 226t35 228q35 102 102 175q66 72 164 112q97 40 221 40t221 -39t163 -110q65 -72 100 -173q34 -102 34 -227zM293 522q0 -185 68 -278
q68 -94 202 -94q133 0 199 93q65 93 65 281q0 187 -66 284q-67 97 -200 97q-136 -1 -202 -98q-66 -98 -66 -285zM266 1190q-8 0 -14 6t-6 14v136q0 8 6 14t14 6h592q8 0 14 -6t6 -14v-136q0 -8 -6 -14t-14 -6h-592z" />
    <glyph glyph-name="Obreve" unicode="&#x14e;" horiz-adv-x="1497" 
d="M1452 713q0 -165 -50 -302q-51 -138 -142 -235q-92 -97 -222 -151q-131 -54 -290 -54t-289 54q-131 54 -223 152q-92 97 -142 235q-51 138 -51 303q0 170 50 309t142 236q91 96 222 149t291 53q158 0 289 -52q130 -52 222 -148q92 -97 143 -236q50 -140 50 -313zM303 713
q0 -125 31 -225q30 -100 87 -169q57 -70 141 -107q83 -38 188 -38q104 0 187 37t140 107q57 69 87 170q30 100 30 225t-30 227t-86 173q-57 70 -140 109q-84 38 -190 38t-189 -37q-84 -38 -140 -108q-57 -70 -86 -172q-30 -102 -30 -230zM1068 1841q-3 -63 -27 -117
q-25 -54 -67 -93q-42 -40 -101 -62q-59 -23 -130 -23t-130 23q-59 22 -101 62q-42 39 -66 93q-25 54 -28 117q-1 8 6 15q6 6 13 6h125q9 0 15 -5q6 -6 7 -16q7 -54 47 -89q40 -36 112 -36q67 0 109 36q42 35 49 89q1 10 8 16q6 5 16 5h124q7 0 14 -6q6 -7 5 -15z" />
    <glyph glyph-name="obreve" unicode="&#x14f;" horiz-adv-x="1122" 
d="M1081 530q0 -125 -34 -228q-35 -103 -100 -175q-66 -72 -163 -112t-221 -40t-221 39q-98 39 -164 111q-67 71 -102 173q-35 101 -35 226t35 228q35 102 102 175q66 72 164 112q97 40 221 40t221 -39t163 -110q65 -72 100 -173q34 -102 34 -227zM293 522q0 -185 68 -278
q68 -94 202 -94q133 0 199 93q65 93 65 281q0 187 -66 284q-67 97 -200 97q-136 -1 -202 -98q-66 -98 -66 -285zM886 1462q-3 -63 -27 -117q-25 -54 -67 -93q-42 -40 -101 -62q-59 -23 -130 -23t-130 23q-59 22 -101 62q-42 39 -66 93q-25 54 -28 117q-1 8 6 15q6 6 13 6
h125q9 0 15 -5q6 -6 7 -16q7 -54 47 -89q40 -36 112 -36q67 0 109 36q42 35 49 89q1 10 8 16q6 5 16 5h124q7 0 14 -6q6 -7 5 -15z" />
    <glyph glyph-name="Ohungarumlaut" unicode="&#x150;" horiz-adv-x="1497" 
d="M1452 713q0 -165 -50 -302q-51 -138 -142 -235q-92 -97 -222 -151q-131 -54 -290 -54t-289 54q-131 54 -223 152q-92 97 -142 235q-51 138 -51 303q0 170 50 309t142 236q91 96 222 149t291 53q158 0 289 -52q130 -52 222 -148q92 -97 143 -236q50 -140 50 -313zM303 713
q0 -125 31 -225q30 -100 87 -169q57 -70 141 -107q83 -38 188 -38q104 0 187 37t140 107q57 69 87 170q30 100 30 225t-30 227t-86 173q-57 70 -140 109q-84 38 -190 38t-189 -37q-84 -38 -140 -108q-57 -70 -86 -172q-30 -102 -30 -230zM575 1561q-6 -6 -14 -6q-9 0 -15 5
l-56 50q-6 6 -7 15t4 16l236 335q4 7 13 8q8 0 13 -6l98 -100q6 -5 6 -14t-5 -15zM903 1553q-6 -6 -15 -6q-9 -1 -15 5l-55 48q-7 6 -7 15q-1 9 3 16l237 335q4 6 13 7q8 0 13 -5l98 -98q6 -6 6 -14q0 -9 -6 -15z" />
    <glyph glyph-name="ohungarumlaut" unicode="&#x151;" horiz-adv-x="1122" 
d="M1081 530q0 -125 -34 -228q-35 -103 -100 -175q-66 -72 -163 -112t-221 -40t-221 39q-98 39 -164 111q-67 71 -102 173q-35 101 -35 226t35 228q35 102 102 175q66 72 164 112q97 40 221 40t221 -39t163 -110q65 -72 100 -173q34 -102 34 -227zM293 522q0 -185 68 -278
q68 -94 202 -94q133 0 199 93q65 93 65 281q0 187 -66 284q-67 97 -200 97q-136 -1 -202 -98q-66 -98 -66 -285zM389 1182q-6 -6 -14 -6q-9 0 -15 5l-56 50q-6 6 -7 15t4 16l236 335q4 7 13 8q8 0 13 -6l98 -100q6 -5 6 -14t-5 -15zM717 1174q-6 -6 -15 -6q-9 -1 -15 5
l-55 48q-7 6 -7 15q-1 9 3 16l237 335q4 6 13 7q8 0 13 -5l98 -98q6 -6 6 -14q0 -9 -6 -15z" />
    <glyph glyph-name="OE" unicode="&#x152;" horiz-adv-x="2044" 
d="M788 0q-147 0 -281 41q-135 41 -236 127t-161 221q-61 135 -61 322q0 182 59 319q58 137 159 226q100 89 236 134q136 44 290 44h1175q8 0 15 -6q6 -7 6 -15v-156q0 -8 -6 -14q-7 -6 -15 -6h-678l-2 -104l-2 -275h629q8 0 14 -6t6 -14v-156q0 -8 -6 -14t-14 -6h-629
l4 -371v-94h695q8 0 14 -6q6 -7 6 -15v-156q0 -8 -6 -14t-14 -6h-1197zM309 713q0 -137 39 -235q38 -99 102 -161t148 -91t174 -29h262q0 1 1 23q0 22 1 58t2 84q1 47 2 99l2 266l-2 262q-1 49 -2 94t-2 79q-1 33 -1 54q-1 20 -1 21h-254q-98 0 -184 -32t-149 -96
q-64 -65 -101 -164t-37 -232z" />
    <glyph glyph-name="oe" unicode="&#x153;" horiz-adv-x="1903" 
d="M1823 360q7 0 13 -6q6 -7 5 -14q-12 -75 -48 -142q-37 -67 -96 -116q-59 -50 -141 -78q-83 -29 -184 -29q-146 0 -252 61t-164 167q-57 -107 -162 -167q-105 -61 -247 -61q-121 0 -215 39q-95 39 -159 111q-65 71 -98 173q-34 101 -34 226t34 228q33 102 98 175
q64 72 159 112q94 40 215 40q142 0 247 -59q105 -60 164 -170q60 108 165 169q104 60 241 60q118 0 211 -40q92 -40 156 -114q63 -75 98 -182q34 -107 37 -241q0 -8 -6 -14q-7 -7 -15 -7h-764q8 -168 77 -249q69 -82 202 -82q96 0 158 47q61 47 83 143q2 9 10 15q7 5 16 5
h196zM1599 647q-4 51 -20 99q-17 47 -47 83q-31 35 -76 57q-46 21 -106 21q-110 0 -175 -66q-66 -67 -85 -194h509zM293 522q0 -185 67 -278q67 -94 201 -94t200 93t66 281q0 187 -66 284q-67 97 -200 97q-136 -1 -202 -98q-66 -98 -66 -285z" />
    <glyph glyph-name="Racute" unicode="&#x154;" horiz-adv-x="1243" 
d="M944 991q0 124 -76 187t-211 63h-319l-8 -491h334q59 0 111 14q51 13 89 42q37 29 59 75q21 46 21 110zM768 287l-176 268h-260l8 -535q0 -7 -6 -13q-7 -7 -15 -7h-217q-8 0 -14 7q-6 6 -6 13l8 705l-8 688q0 8 6 15q6 6 14 6h541q128 0 230 -28q101 -28 171 -82
q70 -55 107 -137q37 -83 37 -192q0 -163 -88 -268q-88 -106 -242 -147l362 -563q4 -5 1 -11q-4 -6 -11 -6h-252q-9 0 -17 5q-9 5 -13 13zM476 1530q-8 -2 -16 2q-8 3 -11 11l-34 85q-3 7 1 16q3 8 10 11l460 209q7 3 15 0q8 -4 11 -11l50 -154q3 -7 -1 -15q-5 -8 -12 -10z
" />
    <glyph glyph-name="racute" unicode="&#x155;" horiz-adv-x="764" 
d="M90 0q-8 0 -14 7q-6 6 -6 13l8 512l-8 502q0 8 6 15q6 6 14 6h207q8 0 14 -6q6 -7 6 -15l-8 -166q58 96 157 146q99 49 212 49q13 0 26 -1q13 -2 25 -4q8 -1 15 -8q6 -7 6 -15v-152q0 -8 -6 -14q-7 -6 -15 -5q-10 1 -22 2h-25q-74 0 -139 -21q-66 -22 -114 -65
q-49 -44 -79 -110q-30 -67 -35 -156l4 -494q0 -8 -6 -14t-14 -6h-209zM241 1151q-8 -2 -16 2q-8 3 -11 11l-34 85q-3 7 1 16q3 8 10 11l460 209q7 3 15 0q8 -4 11 -11l50 -154q3 -7 -1 -15q-5 -8 -12 -10z" />
    <glyph glyph-name="Rcommaaccent" unicode="&#x156;" horiz-adv-x="1243" 
d="M944 991q0 124 -76 187t-211 63h-319l-8 -491h334q59 0 111 14q51 13 89 42q37 29 59 75q21 46 21 110zM768 287l-176 268h-260l8 -535q0 -7 -6 -13q-7 -7 -15 -7h-217q-8 0 -14 7q-6 6 -6 13l8 705l-8 688q0 8 6 15q6 6 14 6h541q128 0 230 -28q101 -28 171 -82
q70 -55 107 -137q37 -83 37 -192q0 -163 -88 -268q-88 -106 -242 -147l362 -563q4 -5 1 -11q-4 -6 -11 -6h-252q-9 0 -17 5q-9 5 -13 13zM507 -477q-7 0 -12 6q-5 7 -3 14l42 172v187q0 8 6 14t14 6h156q8 0 14 -6t6 -14v-164q0 -9 -3 -20t-7 -18l-100 -160q-4 -7 -13 -12
t-18 -5h-82z" />
    <glyph glyph-name="rcommaaccent" unicode="&#x157;" horiz-adv-x="764" 
d="M90 0q-8 0 -14 7q-6 6 -6 13l8 512l-8 502q0 8 6 15q6 6 14 6h207q8 0 14 -6q6 -7 6 -15l-8 -166q58 96 157 146q99 49 212 49q13 0 26 -1q13 -2 25 -4q8 -1 15 -8q6 -7 6 -15v-152q0 -8 -6 -14q-7 -6 -15 -5q-10 1 -22 2h-25q-74 0 -139 -21q-66 -22 -114 -65
q-49 -44 -79 -110q-30 -67 -35 -156l4 -494q0 -8 -6 -14t-14 -6h-209zM75 -477q-7 0 -12 6q-5 7 -3 14l42 172v187q0 8 6 14t14 6h156q8 0 14 -6t6 -14v-164q0 -9 -3 -20t-7 -18l-100 -160q-4 -7 -13 -12t-18 -5h-82z" />
    <glyph glyph-name="Rcaron" unicode="&#x158;" horiz-adv-x="1243" 
d="M944 991q0 124 -76 187t-211 63h-319l-8 -491h334q59 0 111 14q51 13 89 42q37 29 59 75q21 46 21 110zM768 287l-176 268h-260l8 -535q0 -7 -6 -13q-7 -7 -15 -7h-217q-8 0 -14 7q-6 6 -6 13l8 705l-8 688q0 8 6 15q6 6 14 6h541q128 0 230 -28q101 -28 171 -82
q70 -55 107 -137q37 -83 37 -192q0 -163 -88 -268q-88 -106 -242 -147l362 -563q4 -5 1 -11q-4 -6 -11 -6h-252q-9 0 -17 5q-9 5 -13 13zM696 1552q-7 -5 -17 -8q-11 -4 -20 -4h-62q-9 0 -19 4q-11 3 -18 8l-273 182q-7 4 -10 13t0 17l34 89q3 7 11 11q8 3 15 -1l291 -141
l289 141q7 4 15 1q8 -4 11 -11l36 -89q3 -8 0 -17t-10 -13z" />
    <glyph glyph-name="rcaron" unicode="&#x159;" horiz-adv-x="764" 
d="M90 0q-8 0 -14 7q-6 6 -6 13l8 512l-8 502q0 8 6 15q6 6 14 6h207q8 0 14 -6q6 -7 6 -15l-8 -166q58 96 157 146q99 49 212 49q13 0 26 -1q13 -2 25 -4q8 -1 15 -8q6 -7 6 -15v-152q0 -8 -6 -14q-7 -6 -15 -5q-10 1 -22 2h-25q-74 0 -139 -21q-66 -22 -114 -65
q-49 -44 -79 -110q-30 -67 -35 -156l4 -494q0 -8 -6 -14t-14 -6h-209zM477 1173q-7 -5 -17 -8q-11 -4 -20 -4h-62q-9 0 -19 4q-11 3 -18 8l-273 182q-7 4 -10 13t0 17l34 89q3 7 11 11q8 3 15 -1l291 -141l289 141q7 4 15 1q8 -4 11 -11l36 -89q3 -8 0 -17t-10 -13z" />
    <glyph glyph-name="Sacute" unicode="&#x15a;" horiz-adv-x="1272" 
d="M1237 428q0 -112 -42 -197q-42 -86 -117 -143q-76 -58 -184 -87q-108 -30 -239 -30q-138 0 -250 31q-113 31 -193 93q-81 61 -127 155q-46 93 -52 217q0 8 6 14t14 6h221q9 0 16 -6q6 -6 7 -14q7 -68 29 -123q22 -56 65 -94q42 -38 109 -59q66 -21 162 -21q74 0 135 13
q60 12 102 39q42 26 65 69q23 42 23 102q0 133 -145 172t-317 74q-172 34 -317 111t-145 286q0 100 38 180q38 79 109 134q70 54 172 83t230 29q124 0 227 -25q102 -26 177 -79t122 -134q47 -82 60 -194q1 -7 -5 -13q-6 -7 -13 -7h-221q-9 0 -15 6q-7 5 -8 14
q-12 113 -96 173q-85 59 -236 59q-65 0 -119 -12q-55 -12 -94 -36t-60 -62q-22 -38 -22 -89q0 -125 146 -161q145 -36 318 -70q173 -35 319 -114q145 -80 145 -290zM456 1530q-8 -2 -16 2q-8 3 -11 11l-34 85q-3 7 1 16q3 8 10 11l460 209q7 3 15 0q8 -4 11 -11l50 -154
q3 -7 -1 -15q-5 -8 -12 -10z" />
    <glyph glyph-name="sacute" unicode="&#x15b;" horiz-adv-x="1038" 
d="M999 313q0 -80 -35 -143q-36 -64 -98 -107q-63 -43 -148 -66q-86 -22 -186 -22q-107 0 -196 23q-90 23 -154 69q-64 45 -101 114q-38 68 -42 157q0 7 6 14q6 6 14 6h198q9 0 15 -6t7 -14q6 -102 73 -150q67 -49 189 -49q104 0 164 41q59 40 59 113q0 87 -110 109t-240 46
q-131 23 -241 84q-110 60 -110 222q0 79 31 141q31 61 88 102q56 40 138 61t182 21q97 0 179 -20q82 -21 142 -61q59 -41 95 -102t43 -142q1 -8 -5 -14q-6 -7 -13 -7h-188q-10 0 -16 6q-7 5 -8 15q-13 79 -72 123q-59 43 -161 43q-90 0 -144 -36q-55 -36 -55 -112
q0 -85 110 -104q109 -20 240 -43t241 -84q109 -61 109 -228zM339 1151q-8 -2 -16 2q-8 3 -11 11l-34 85q-3 7 1 16q3 8 10 11l460 209q7 3 15 0q8 -4 11 -11l50 -154q3 -7 -1 -15q-5 -8 -12 -10z" />
    <glyph glyph-name="Scircumflex" unicode="&#x15c;" horiz-adv-x="1272" 
d="M1237 428q0 -112 -42 -197q-42 -86 -117 -143q-76 -58 -184 -87q-108 -30 -239 -30q-138 0 -250 31q-113 31 -193 93q-81 61 -127 155q-46 93 -52 217q0 8 6 14t14 6h221q9 0 16 -6q6 -6 7 -14q7 -68 29 -123q22 -56 65 -94q42 -38 109 -59q66 -21 162 -21q74 0 135 13
q60 12 102 39q42 26 65 69q23 42 23 102q0 133 -145 172t-317 74q-172 34 -317 111t-145 286q0 100 38 180q38 79 109 134q70 54 172 83t230 29q124 0 227 -25q102 -26 177 -79t122 -134q47 -82 60 -194q1 -7 -5 -13q-6 -7 -13 -7h-221q-9 0 -15 6q-7 5 -8 14
q-12 113 -96 173q-85 59 -236 59q-65 0 -119 -12q-55 -12 -94 -36t-60 -62q-22 -38 -22 -89q0 -125 146 -161q145 -36 318 -70q173 -35 319 -114q145 -80 145 -290zM947 1545q-3 -7 -11 -10q-8 -4 -15 0l-289 140l-291 -140q-7 -4 -15 0q-8 3 -11 10l-34 89q-3 8 0 17t10 13
l273 182q7 5 18 9q10 3 19 3h62q9 0 20 -3q10 -4 17 -9l273 -182q7 -4 10 -13t0 -17z" />
    <glyph glyph-name="scircumflex" unicode="&#x15d;" horiz-adv-x="1038" 
d="M999 313q0 -80 -35 -143q-36 -64 -98 -107q-63 -43 -148 -66q-86 -22 -186 -22q-107 0 -196 23q-90 23 -154 69q-64 45 -101 114q-38 68 -42 157q0 7 6 14q6 6 14 6h198q9 0 15 -6t7 -14q6 -102 73 -150q67 -49 189 -49q104 0 164 41q59 40 59 113q0 87 -110 109t-240 46
q-131 23 -241 84q-110 60 -110 222q0 79 31 141q31 61 88 102q56 40 138 61t182 21q97 0 179 -20q82 -21 142 -61q59 -41 95 -102t43 -142q1 -8 -5 -14q-6 -7 -13 -7h-188q-10 0 -16 6q-7 5 -8 15q-13 79 -72 123q-59 43 -161 43q-90 0 -144 -36q-55 -36 -55 -112
q0 -85 110 -104q109 -20 240 -43t241 -84q109 -61 109 -228zM828 1166q-3 -7 -11 -10q-8 -4 -15 0l-289 140l-291 -140q-7 -4 -15 0q-8 3 -11 10l-34 89q-3 8 0 17t10 13l273 182q7 5 18 9q10 3 19 3h62q9 0 20 -3q10 -4 17 -9l273 -182q7 -4 10 -13t0 -17z" />
    <glyph glyph-name="Scedilla" unicode="&#x15e;" horiz-adv-x="1272" 
d="M1237 428q0 -112 -42 -197q-42 -86 -117 -143q-76 -58 -184 -87q-108 -30 -239 -30q-138 0 -250 31q-113 31 -193 93q-81 61 -127 155q-46 93 -52 217q0 8 6 14t14 6h221q9 0 16 -6q6 -6 7 -14q7 -68 29 -123q22 -56 65 -94q42 -38 109 -59q66 -21 162 -21q74 0 135 13
q60 12 102 39q42 26 65 69q23 42 23 102q0 133 -145 172t-317 74q-172 34 -317 111t-145 286q0 100 38 180q38 79 109 134q70 54 172 83t230 29q124 0 227 -25q102 -26 177 -79t122 -134q47 -82 60 -194q1 -7 -5 -13q-6 -7 -13 -7h-221q-9 0 -15 6q-7 5 -8 14
q-12 113 -96 173q-85 59 -236 59q-65 0 -119 -12q-55 -12 -94 -36t-60 -62q-22 -38 -22 -89q0 -125 146 -161q145 -36 318 -70q173 -35 319 -114q145 -80 145 -290zM656 -343q-2 -7 -9 -12q-8 -5 -16 -3l-191 39q-7 1 -11 8q-4 8 -1 15l130 314q3 8 11 13q8 4 17 3l129 -17
q8 -1 13 -8q4 -7 3 -15z" />
    <glyph glyph-name="scedilla" unicode="&#x15f;" horiz-adv-x="1038" 
d="M999 313q0 -80 -35 -143q-36 -64 -98 -107q-63 -43 -148 -66q-86 -22 -186 -22q-107 0 -196 23q-90 23 -154 69q-64 45 -101 114q-38 68 -42 157q0 7 6 14q6 6 14 6h198q9 0 15 -6t7 -14q6 -102 73 -150q67 -49 189 -49q104 0 164 41q59 40 59 113q0 87 -110 109t-240 46
q-131 23 -241 84q-110 60 -110 222q0 79 31 141q31 61 88 102q56 40 138 61t182 21q97 0 179 -20q82 -21 142 -61q59 -41 95 -102t43 -142q1 -8 -5 -14q-6 -7 -13 -7h-188q-10 0 -16 6q-7 5 -8 15q-13 79 -72 123q-59 43 -161 43q-90 0 -144 -36q-55 -36 -55 -112
q0 -85 110 -104q109 -20 240 -43t241 -84q109 -61 109 -228zM531 -345q-2 -7 -9 -12q-8 -5 -16 -3l-191 39q-7 1 -11 8q-4 8 -1 15l130 314q3 8 11 13q8 4 17 3l129 -17q8 -1 13 -8q4 -7 3 -15z" />
    <glyph glyph-name="Scaron" unicode="&#x160;" horiz-adv-x="1272" 
d="M1237 428q0 -112 -42 -197q-42 -86 -117 -143q-76 -58 -184 -87q-108 -30 -239 -30q-138 0 -250 31q-113 31 -193 93q-81 61 -127 155q-46 93 -52 217q0 8 6 14t14 6h221q9 0 16 -6q6 -6 7 -14q7 -68 29 -123q22 -56 65 -94q42 -38 109 -59q66 -21 162 -21q74 0 135 13
q60 12 102 39q42 26 65 69q23 42 23 102q0 133 -145 172t-317 74q-172 34 -317 111t-145 286q0 100 38 180q38 79 109 134q70 54 172 83t230 29q124 0 227 -25q102 -26 177 -79t122 -134q47 -82 60 -194q1 -7 -5 -13q-6 -7 -13 -7h-221q-9 0 -15 6q-7 5 -8 14
q-12 113 -96 173q-85 59 -236 59q-65 0 -119 -12q-55 -12 -94 -36t-60 -62q-22 -38 -22 -89q0 -125 146 -161q145 -36 318 -70q173 -35 319 -114q145 -80 145 -290zM700 1552q-7 -5 -17 -8q-11 -4 -20 -4h-62q-9 0 -19 4q-11 3 -18 8l-273 182q-7 4 -10 13t0 17l34 89
q3 7 11 11q8 3 15 -1l291 -141l289 141q7 4 15 1q8 -4 11 -11l36 -89q3 -8 0 -17t-10 -13z" />
    <glyph glyph-name="scaron" unicode="&#x161;" horiz-adv-x="1038" 
d="M999 313q0 -80 -35 -143q-36 -64 -98 -107q-63 -43 -148 -66q-86 -22 -186 -22q-107 0 -196 23q-90 23 -154 69q-64 45 -101 114q-38 68 -42 157q0 7 6 14q6 6 14 6h198q9 0 15 -6t7 -14q6 -102 73 -150q67 -49 189 -49q104 0 164 41q59 40 59 113q0 87 -110 109t-240 46
q-131 23 -241 84q-110 60 -110 222q0 79 31 141q31 61 88 102q56 40 138 61t182 21q97 0 179 -20q82 -21 142 -61q59 -41 95 -102t43 -142q1 -8 -5 -14q-6 -7 -13 -7h-188q-10 0 -16 6q-7 5 -8 15q-13 79 -72 123q-59 43 -161 43q-90 0 -144 -36q-55 -36 -55 -112
q0 -85 110 -104q109 -20 240 -43t241 -84q109 -61 109 -228zM581 1173q-7 -5 -17 -8q-11 -4 -20 -4h-62q-9 0 -19 4q-11 3 -18 8l-273 182q-7 4 -10 13t0 17l34 89q3 7 11 11q8 3 15 -1l291 -141l289 141q7 4 15 1q8 -4 11 -11l36 -89q3 -8 0 -17t-10 -13z" />
    <glyph glyph-name="Tcedilla" unicode="&#x162;" horiz-adv-x="1118" 
d="M446 0q-7 0 -13 7q-7 6 -7 13l14 695l-10 522h-393q-8 0 -14 6q-7 6 -7 14v156q0 8 7 15q6 6 14 6h1044q8 0 15 -6q6 -7 6 -15v-156q0 -8 -6 -14q-7 -6 -15 -6h-393l-10 -522l14 -695q0 -7 -6 -13q-6 -7 -14 -7h-226zM576 -341q-2 -7 -9 -12q-8 -5 -16 -3l-191 39
q-7 1 -11 8q-4 8 -1 15l130 314q3 8 11 13q8 4 17 3l129 -17q8 -1 13 -8q4 -7 3 -15z" />
    <glyph glyph-name="tcedilla" unicode="&#x163;" horiz-adv-x="690" 
d="M662 36q0 -8 -6 -16t-14 -10q-37 -12 -80 -20t-85 -8q-62 0 -119 17t-100 55q-44 37 -70 98t-26 149l2 569h-117q-8 0 -14 7q-6 6 -6 14v143q0 8 6 15q6 6 14 6h117l-4 243q0 8 6 15q6 6 14 6h209q8 0 15 -6q6 -7 5 -15l-1 -243h235q8 0 15 -6q6 -7 6 -15v-143
q0 -8 -6 -14q-7 -7 -15 -7h-237l2 -563q0 -79 33 -109q32 -30 89 -30q33 0 62 5q28 4 50 10q7 1 14 -3q6 -5 6 -12v-132zM412 -341q-2 -7 -9 -12q-8 -5 -16 -3l-191 39q-7 1 -11 8q-4 8 -1 15l130 314q3 8 11 13q8 4 17 3l129 -17q8 -1 13 -8q4 -7 3 -15z" />
    <glyph glyph-name="Tcaron" unicode="&#x164;" horiz-adv-x="1118" 
d="M446 0q-7 0 -13 7q-7 6 -7 13l14 695l-10 522h-393q-8 0 -14 6q-7 6 -7 14v156q0 8 7 15q6 6 14 6h1044q8 0 15 -6q6 -7 6 -15v-156q0 -8 -6 -14q-7 -6 -15 -6h-393l-10 -522l14 -695q0 -7 -6 -13q-6 -7 -14 -7h-226zM626 1552q-7 -5 -17 -8q-11 -4 -20 -4h-62
q-9 0 -19 4q-11 3 -18 8l-273 182q-7 4 -10 13t0 17l34 89q3 7 11 11q8 3 15 -1l291 -141l289 141q7 4 15 1q8 -4 11 -11l36 -89q3 -8 0 -17t-10 -13z" />
    <glyph glyph-name="tcaron" unicode="&#x165;" horiz-adv-x="690" 
d="M662 36q0 -8 -6 -16t-14 -10q-37 -12 -80 -20t-85 -8q-62 0 -119 17t-100 55q-44 37 -70 98t-26 149l2 569h-117q-8 0 -14 7q-6 6 -6 14v143q0 8 6 15q6 6 14 6h117l-4 243q0 8 6 15q6 6 14 6h209q8 0 15 -6q6 -7 5 -15l-1 -243h235q8 0 15 -6q6 -7 6 -15v-143
q0 -8 -6 -14q-7 -7 -15 -7h-237l2 -563q0 -79 33 -109q32 -30 89 -30q33 0 62 5q28 4 50 10q7 1 14 -3q6 -5 6 -12v-132zM656 1190q-2 -9 -9 -14q-7 -6 -16 -6h-119q-7 0 -12 7q-6 6 -5 13l63 416q1 9 8 15t16 6h164q7 0 12 -6q5 -7 3 -14z" />
    <glyph glyph-name="Tbar" unicode="&#x166;" horiz-adv-x="1118" 
d="M692 20q0 -7 -6 -13q-6 -7 -14 -7h-226q-7 0 -13 7q-7 6 -7 13l12 555h-231q-8 0 -14 7q-7 6 -7 14v156q0 8 7 14q6 6 14 6h232l-9 465h-393q-8 0 -14 6q-7 6 -7 14v156q0 8 7 15q6 6 14 6h1044q8 0 15 -6q6 -7 6 -15v-156q0 -8 -6 -14q-7 -6 -15 -6h-393l-9 -465h234
q8 0 15 -6q6 -6 6 -14v-156q0 -8 -6 -14q-7 -7 -15 -7h-232z" />
    <glyph glyph-name="tbar" unicode="&#x167;" horiz-adv-x="696" 
d="M644 10q-37 -12 -80 -20t-85 -8q-62 0 -119 17t-100 55q-44 37 -70 98t-26 149v168h-117q-8 0 -14 6t-6 14v144q0 8 6 14t14 6h118l1 217h-117q-8 0 -14 7q-6 6 -6 14v143q0 8 6 15q6 6 14 6h116l-3 243q0 8 6 15q6 6 14 6h209q8 0 15 -6q6 -7 5 -15l-2 -243h236
q8 0 15 -6q6 -7 6 -15v-143q0 -8 -6 -14q-7 -7 -15 -7h-237l1 -217h234q8 0 15 -6q6 -6 6 -14v-144q0 -8 -6 -14q-7 -6 -15 -6h-234l1 -162q0 -79 33 -109q32 -30 89 -30q33 0 62 5q28 4 50 10q7 1 14 -3q6 -5 6 -12v-132q0 -8 -6 -16t-14 -10z" />
    <glyph glyph-name="Utilde" unicode="&#x168;" horiz-adv-x="1249" 
d="M1178 537q0 -135 -34 -241q-35 -106 -103 -178q-69 -72 -172 -109q-103 -38 -240 -38q-138 0 -243 38q-105 37 -174 109q-70 72 -105 178q-36 106 -35 241l2 415l-8 461q0 8 6 15q6 6 14 6h223q8 0 15 -6q6 -7 5 -15l-7 -455l2 -419q0 -167 73 -263q72 -96 232 -96
q168 0 244 96q75 96 75 263v413l-6 461q0 8 7 15q6 6 14 6h200q8 0 15 -6q6 -7 5 -15l-5 -461v-415zM932 1802q-4 -110 -50 -176q-46 -67 -136 -67q-47 0 -80 19q-33 18 -58 40q-26 22 -48 41q-22 18 -48 18q-33 0 -47 -25q-15 -26 -18 -69q0 -8 -6 -14q-7 -6 -15 -6h-88
q-8 0 -14 7q-6 6 -6 13q2 52 15 97q12 45 35 78q23 32 58 51q35 18 82 18q45 0 78 -18q32 -19 57 -41q25 -23 47 -41q21 -19 44 -19q35 0 51 26q15 26 18 68q0 9 7 15q6 6 14 6h88q8 0 14 -6q6 -7 6 -15z" />
    <glyph glyph-name="utilde" unicode="&#x169;" 
d="M772 154q-25 -37 -60 -69q-35 -33 -78 -57q-43 -25 -95 -39t-111 -14q-82 0 -149 28q-67 27 -113 80q-47 52 -72 130q-26 77 -26 176v217l-6 428q0 8 6 15q6 6 14 6h211q8 0 14 -6q6 -7 6 -15l-6 -428v-211q0 -111 55 -169q54 -58 138 -58q47 0 91 20q43 20 78 60
q35 39 59 101q24 61 32 143v114l-4 428q0 8 6 15q6 6 14 6h213q8 0 15 -6q6 -7 5 -15l-5 -475l3 -539q1 -8 -5 -14q-7 -6 -15 -6h-199q-7 0 -13 7q-7 6 -6 13zM842 1423q-4 -110 -50 -176q-46 -67 -136 -67q-47 0 -80 19q-33 18 -58 40q-26 22 -48 41q-22 18 -48 18
q-33 0 -47 -25q-15 -26 -18 -69q0 -8 -6 -14q-7 -6 -15 -6h-88q-8 0 -14 7q-6 6 -6 13q2 52 15 97q12 45 35 78q23 32 58 51q35 18 82 18q45 0 78 -18q32 -19 57 -41q25 -23 47 -41q21 -19 44 -19q35 0 51 26q15 26 18 68q0 9 7 15q6 6 14 6h88q8 0 14 -6q6 -7 6 -15z" />
    <glyph glyph-name="Umacron" unicode="&#x16a;" horiz-adv-x="1249" 
d="M1178 537q0 -135 -34 -241q-35 -106 -103 -178q-69 -72 -172 -109q-103 -38 -240 -38q-138 0 -243 38q-105 37 -174 109q-70 72 -105 178q-36 106 -35 241l2 415l-8 461q0 8 6 15q6 6 14 6h223q8 0 15 -6q6 -7 5 -15l-7 -455l2 -419q0 -167 73 -263q72 -96 232 -96
q168 0 244 96q75 96 75 263v413l-6 461q0 8 7 15q6 6 14 6h200q8 0 15 -6q6 -7 5 -15l-5 -461v-415zM328 1569q-8 0 -14 6t-6 14v136q0 8 6 14t14 6h592q8 0 14 -6t6 -14v-136q0 -8 -6 -14t-14 -6h-592z" />
    <glyph glyph-name="umacron" unicode="&#x16b;" 
d="M772 154q-25 -37 -60 -69q-35 -33 -78 -57q-43 -25 -95 -39t-111 -14q-82 0 -149 28q-67 27 -113 80q-47 52 -72 130q-26 77 -26 176v217l-6 428q0 8 6 15q6 6 14 6h211q8 0 14 -6q6 -7 6 -15l-6 -428v-211q0 -111 55 -169q54 -58 138 -58q47 0 91 20q43 20 78 60
q35 39 59 101q24 61 32 143v114l-4 428q0 8 6 15q6 6 14 6h213q8 0 15 -6q6 -7 5 -15l-5 -475l3 -539q1 -8 -5 -14q-7 -6 -15 -6h-199q-7 0 -13 7q-7 6 -6 13zM240 1190q-8 0 -14 6t-6 14v136q0 8 6 14t14 6h592q8 0 14 -6t6 -14v-136q0 -8 -6 -14t-14 -6h-592z" />
    <glyph glyph-name="Ubreve" unicode="&#x16c;" horiz-adv-x="1249" 
d="M1178 537q0 -135 -34 -241q-35 -106 -103 -178q-69 -72 -172 -109q-103 -38 -240 -38q-138 0 -243 38q-105 37 -174 109q-70 72 -105 178q-36 106 -35 241l2 415l-8 461q0 8 6 15q6 6 14 6h223q8 0 15 -6q6 -7 5 -15l-7 -455l2 -419q0 -167 73 -263q72 -96 232 -96
q168 0 244 96q75 96 75 263v413l-6 461q0 8 7 15q6 6 14 6h200q8 0 15 -6q6 -7 5 -15l-5 -461v-415zM950 1841q-3 -63 -27 -117q-25 -54 -67 -93q-42 -40 -101 -62q-59 -23 -130 -23t-130 23q-59 22 -101 62q-42 39 -66 93q-25 54 -28 117q-1 8 6 15q6 6 13 6h125q9 0 15 -5
q6 -6 7 -16q7 -54 47 -89q40 -36 112 -36q67 0 109 36q42 35 49 89q1 10 8 16q6 5 16 5h124q7 0 14 -6q6 -7 5 -15z" />
    <glyph glyph-name="ubreve" unicode="&#x16d;" 
d="M772 154q-25 -37 -60 -69q-35 -33 -78 -57q-43 -25 -95 -39t-111 -14q-82 0 -149 28q-67 27 -113 80q-47 52 -72 130q-26 77 -26 176v217l-6 428q0 8 6 15q6 6 14 6h211q8 0 14 -6q6 -7 6 -15l-6 -428v-211q0 -111 55 -169q54 -58 138 -58q47 0 91 20q43 20 78 60
q35 39 59 101q24 61 32 143v114l-4 428q0 8 6 15q6 6 14 6h213q8 0 15 -6q6 -7 5 -15l-5 -475l3 -539q1 -8 -5 -14q-7 -6 -15 -6h-199q-7 0 -13 7q-7 6 -6 13zM862 1462q-3 -63 -27 -117q-25 -54 -67 -93q-42 -40 -101 -62q-59 -23 -130 -23t-130 23q-59 22 -101 62
q-42 39 -66 93q-25 54 -28 117q-1 8 6 15q6 6 13 6h125q9 0 15 -5q6 -6 7 -16q7 -54 47 -89q40 -36 112 -36q67 0 109 36q42 35 49 89q1 10 8 16q6 5 16 5h124q7 0 14 -6q6 -7 5 -15z" />
    <glyph glyph-name="Uring" unicode="&#x16e;" horiz-adv-x="1249" 
d="M1178 537q0 -135 -34 -241q-35 -106 -103 -178q-69 -72 -172 -109q-103 -38 -240 -38q-138 0 -243 38q-105 37 -174 109q-70 72 -105 178q-36 106 -35 241l2 415l-8 461q0 8 6 15q6 6 14 6h223q8 0 15 -6q6 -7 5 -15l-7 -455l2 -419q0 -167 73 -263q72 -96 232 -96
q168 0 244 96q75 96 75 263v413l-6 461q0 8 7 15q6 6 14 6h200q8 0 15 -6q6 -7 5 -15l-5 -461v-415zM867 1772q0 -49 -18 -91q-19 -42 -51 -73q-33 -31 -77 -48q-45 -18 -96 -18q-52 0 -97 18q-45 17 -77 48q-33 31 -51 73q-19 42 -19 91t19 91q18 42 51 73q32 30 77 48
q45 17 97 17q51 0 96 -17q44 -18 77 -48q32 -31 51 -73q18 -42 18 -91zM514 1772q0 -64 31 -100t80 -36q47 0 79 36t32 100q0 66 -32 101q-32 34 -79 34q-49 0 -80 -34q-31 -35 -31 -101z" />
    <glyph glyph-name="uring" unicode="&#x16f;" 
d="M772 154q-25 -37 -60 -69q-35 -33 -78 -57q-43 -25 -95 -39t-111 -14q-82 0 -149 28q-67 27 -113 80q-47 52 -72 130q-26 77 -26 176v217l-6 428q0 8 6 15q6 6 14 6h211q8 0 14 -6q6 -7 6 -15l-6 -428v-211q0 -111 55 -169q54 -58 138 -58q47 0 91 20q43 20 78 60
q35 39 59 101q24 61 32 143v114l-4 428q0 8 6 15q6 6 14 6h213q8 0 15 -6q6 -7 5 -15l-5 -475l3 -539q1 -8 -5 -14q-7 -6 -15 -6h-199q-7 0 -13 7q-7 6 -6 13zM777 1393q0 -49 -18 -91q-19 -42 -51 -73q-33 -31 -77 -48q-45 -18 -96 -18q-52 0 -97 18q-45 17 -77 48
q-33 31 -51 73q-19 42 -19 91t19 91q18 42 51 73q32 30 77 48q45 17 97 17q51 0 96 -17q44 -18 77 -48q32 -31 51 -73q18 -42 18 -91zM424 1393q0 -64 31 -100t80 -36q47 0 79 36t32 100q0 66 -32 101q-32 34 -79 34q-49 0 -80 -34q-31 -35 -31 -101z" />
    <glyph glyph-name="Uhungarumlaut" unicode="&#x170;" horiz-adv-x="1249" 
d="M1178 537q0 -135 -34 -241q-35 -106 -103 -178q-69 -72 -172 -109q-103 -38 -240 -38q-138 0 -243 38q-105 37 -174 109q-70 72 -105 178q-36 106 -35 241l2 415l-8 461q0 8 6 15q6 6 14 6h223q8 0 15 -6q6 -7 5 -15l-7 -455l2 -419q0 -167 73 -263q72 -96 232 -96
q168 0 244 96q75 96 75 263v413l-6 461q0 8 7 15q6 6 14 6h200q8 0 15 -6q6 -7 5 -15l-5 -461v-415zM463 1561q-6 -6 -14 -6q-9 0 -15 5l-56 50q-6 6 -7 15t4 16l236 335q4 7 13 8q8 0 13 -6l98 -100q6 -5 6 -14t-5 -15zM791 1553q-6 -6 -15 -6q-9 -1 -15 5l-55 48
q-7 6 -7 15q-1 9 3 16l237 335q4 6 13 7q8 0 13 -5l98 -98q6 -6 6 -14q0 -9 -6 -15z" />
    <glyph glyph-name="uhungarumlaut" unicode="&#x171;" 
d="M772 154q-25 -37 -60 -69q-35 -33 -78 -57q-43 -25 -95 -39t-111 -14q-82 0 -149 28q-67 27 -113 80q-47 52 -72 130q-26 77 -26 176v217l-6 428q0 8 6 15q6 6 14 6h211q8 0 14 -6q6 -7 6 -15l-6 -428v-211q0 -111 55 -169q54 -58 138 -58q47 0 91 20q43 20 78 60
q35 39 59 101q24 61 32 143v114l-4 428q0 8 6 15q6 6 14 6h213q8 0 15 -6q6 -7 5 -15l-5 -475l3 -539q1 -8 -5 -14q-7 -6 -15 -6h-199q-7 0 -13 7q-7 6 -6 13zM369 1182q-6 -6 -14 -6q-9 0 -15 5l-56 50q-6 6 -7 15t4 16l236 335q4 7 13 8q8 0 13 -6l98 -100q6 -5 6 -14
t-5 -15zM697 1174q-6 -6 -15 -6q-9 -1 -15 5l-55 48q-7 6 -7 15q-1 9 3 16l237 335q4 6 13 7q8 0 13 -5l98 -98q6 -6 6 -14q0 -9 -6 -15z" />
    <glyph glyph-name="Uogonek" unicode="&#x172;" horiz-adv-x="1249" 
d="M1178 537q0 -135 -34 -241q-35 -106 -103 -178q-69 -72 -172 -109q-103 -38 -240 -38q-138 0 -243 38q-105 37 -174 109q-70 72 -105 178q-36 106 -35 241l2 415l-8 461q0 8 6 15q6 6 14 6h223q8 0 15 -6q6 -7 5 -15l-7 -455l2 -419q0 -167 73 -263q72 -96 232 -96
q168 0 244 96q75 96 75 263v413l-6 461q0 8 7 15q6 6 14 6h200q8 0 15 -6q6 -7 5 -15l-5 -461v-415zM721 -414q-63 0 -116 15t-90 43q-38 28 -58 67q-21 40 -21 88q0 50 19 91q18 42 49 73q31 32 73 56q41 24 87 40q8 3 17 0q9 -4 13 -11l18 -29q4 -8 3 -16q-2 -9 -9 -15
q-25 -21 -52 -59t-27 -83q0 -47 33 -68q32 -20 81 -20h90q8 0 15 -6q6 -6 6 -14v-131q0 -8 -6 -15q-7 -6 -15 -6h-110z" />
    <glyph glyph-name="uogonek" unicode="&#x173;" 
d="M772 154q-25 -37 -60 -69q-35 -33 -78 -57q-43 -25 -95 -39t-111 -14q-82 0 -149 28q-67 27 -113 80q-47 52 -72 130q-26 77 -26 176v217l-6 428q0 8 6 15q6 6 14 6h211q8 0 14 -6q6 -7 6 -15l-6 -428v-211q0 -111 55 -169q54 -58 138 -58q47 0 91 20q43 20 78 60
q35 39 59 101q24 61 32 143v114l-4 428q0 8 6 15q6 6 14 6h213q8 0 15 -6q6 -7 5 -15l-5 -475l3 -539q1 -8 -5 -14q-7 -6 -15 -6h-199q-7 0 -13 7q-7 6 -6 13zM907 -414q-63 0 -116 15t-90 43q-38 28 -58 67q-21 40 -21 88q0 50 19 91q18 42 49 73q31 32 73 56q41 24 87 40
q8 3 17 0q9 -4 13 -11l18 -29q4 -8 3 -16q-2 -9 -9 -15q-25 -21 -52 -59t-27 -83q0 -47 33 -68q32 -20 81 -20h90q8 0 15 -6q6 -6 6 -14v-131q0 -8 -6 -15q-7 -6 -15 -6h-110z" />
    <glyph glyph-name="Wcircumflex" unicode="&#x174;" horiz-adv-x="1831" 
d="M1191 0q-9 0 -16 6q-8 6 -9 14l-258 1072l-239 -1072q-2 -8 -9 -14t-16 -6h-266q-9 0 -16 6q-8 6 -10 14l-342 1394q-1 7 4 14q4 6 12 6h215q8 0 16 -6q7 -6 9 -14l257 -1162l250 1162q1 8 9 14q7 6 16 6h247q9 0 17 -6q7 -6 8 -14l256 -1176l260 1176q1 8 9 14q7 6 16 6
h196q8 0 13 -6q4 -7 3 -14l-347 -1394q-1 -8 -8 -14q-8 -6 -17 -6h-260zM1229 1545q-3 -7 -11 -10q-8 -4 -15 0l-289 140l-291 -140q-7 -4 -15 0q-8 3 -11 10l-34 89q-3 8 0 17t10 13l273 182q7 5 18 9q10 3 19 3h62q9 0 20 -3q10 -4 17 -9l273 -182q7 -4 10 -13t0 -17z" />
    <glyph glyph-name="wcircumflex" unicode="&#x175;" horiz-adv-x="1460" 
d="M940 0q-9 0 -16 6t-9 14l-194 826l-172 -826q-1 -8 -8 -14q-8 -6 -17 -6h-245q-9 0 -16 6q-8 6 -10 14l-248 1015q-2 7 3 14q5 6 12 6h207q9 0 17 -6q7 -6 8 -14l162 -832l174 832q1 8 9 14q7 6 15 6h256q9 0 17 -6q7 -6 8 -14l174 -816l160 816q1 8 9 14q7 6 15 6h189
q7 0 12 -6q5 -7 4 -14l-241 -1015q-2 -8 -9 -14t-16 -6h-250zM1041 1166q-3 -7 -11 -10q-8 -4 -15 0l-289 140l-291 -140q-7 -4 -15 0q-8 3 -11 10l-34 89q-3 8 0 17t10 13l273 182q7 5 18 9q10 3 19 3h62q9 0 20 -3q10 -4 17 -9l273 -182q7 -4 10 -13t0 -17z" />
    <glyph glyph-name="Ycircumflex" unicode="&#x176;" horiz-adv-x="1188" 
d="M723 20q0 -7 -6 -13q-7 -7 -15 -7h-219q-8 0 -14 7q-6 6 -6 13l8 469l-476 926q-3 7 0 13q4 6 11 6h244q9 0 17 -5q8 -6 12 -14l325 -702l327 702q4 8 12 14q8 5 18 5h221q7 0 11 -6q3 -6 0 -13l-478 -928zM914 1545q-3 -7 -11 -10q-8 -4 -15 0l-289 140l-291 -140
q-7 -4 -15 0q-8 3 -11 10l-34 89q-3 8 0 17t10 13l273 182q7 5 18 9q10 3 19 3h62q9 0 20 -3q10 -4 17 -9l273 -182q7 -4 10 -13t0 -17z" />
    <glyph glyph-name="ycircumflex" unicode="&#x177;" horiz-adv-x="997" 
d="M534 -329q-3 -8 -10 -14q-8 -5 -17 -5h-195q-7 0 -11 6q-5 6 -3 13l111 323l-417 1042q-2 7 2 13t11 6h238q9 0 17 -5q7 -6 10 -15l264 -724l219 724q2 8 10 14t16 6h211q7 0 12 -6q4 -7 2 -14zM818 1166q-3 -7 -11 -10q-8 -4 -15 0l-289 140l-291 -140q-7 -4 -15 0
q-8 3 -11 10l-34 89q-3 8 0 17t10 13l273 182q7 5 18 9q10 3 19 3h62q9 0 20 -3q10 -4 17 -9l273 -182q7 -4 10 -13t0 -17z" />
    <glyph glyph-name="Ydieresis" unicode="&#x178;" horiz-adv-x="1188" 
d="M723 20q0 -7 -6 -13q-7 -7 -15 -7h-219q-8 0 -14 7q-6 6 -6 13l8 469l-476 926q-3 7 0 13q4 6 11 6h244q9 0 17 -5q8 -6 12 -14l325 -702l327 702q4 8 12 14q8 5 18 5h221q7 0 11 -6q3 -6 0 -13l-478 -928zM330 1563q-8 0 -14 6q-7 6 -7 14v205q0 8 7 15q6 6 14 6h168
q8 0 14 -6q6 -7 6 -15v-205q0 -8 -6 -14t-14 -6h-168zM706 1563q-8 0 -14 6t-6 14v205q0 8 6 15q6 6 14 6h168q8 0 15 -6q6 -7 6 -15v-205q0 -8 -6 -14q-7 -6 -15 -6h-168z" />
    <glyph glyph-name="Zacute" unicode="&#x179;" horiz-adv-x="1169" 
d="M1133 20q0 -8 -6 -14q-7 -6 -15 -6h-1055q-8 0 -14 6t-6 14v175q0 9 4 19q3 10 8 17l776 1006h-712q-8 0 -14 6q-7 6 -7 14v156q0 8 7 15q6 6 14 6h993q8 0 14 -6q6 -7 6 -15v-180q0 -10 -3 -20t-9 -17l-768 -999h766q8 0 15 -6q6 -7 6 -15v-156zM402 1530q-8 -2 -16 2
q-8 3 -11 11l-34 85q-3 7 1 16q3 8 10 11l460 209q7 3 15 0q8 -4 11 -11l50 -154q3 -7 -1 -15q-5 -8 -12 -10z" />
    <glyph glyph-name="zacute" unicode="&#x17a;" horiz-adv-x="956" 
d="M909 20q0 -8 -6 -14t-14 -6h-819q-8 0 -14 6q-7 6 -7 14v146q0 9 4 20q3 10 9 17l518 667h-467q-8 0 -14 7q-7 6 -7 14v143q0 8 7 15q6 6 14 6h747q8 0 15 -6q6 -7 6 -15v-147q0 -10 -3 -20q-4 -10 -10 -17l-524 -666h545q8 0 14 -6t6 -14v-144zM308 1151q-8 -2 -16 2
q-8 3 -11 11l-34 85q-3 7 1 16q3 8 10 11l460 209q7 3 15 0q8 -4 11 -11l50 -154q3 -7 -1 -15q-5 -8 -12 -10z" />
    <glyph glyph-name="Zdotaccent" unicode="&#x17b;" horiz-adv-x="1169" 
d="M1133 20q0 -8 -6 -14q-7 -6 -15 -6h-1055q-8 0 -14 6t-6 14v175q0 9 4 19q3 10 8 17l776 1006h-712q-8 0 -14 6q-7 6 -7 14v156q0 8 7 15q6 6 14 6h993q8 0 14 -6q6 -7 6 -15v-180q0 -10 -3 -20t-9 -17l-768 -999h766q8 0 15 -6q6 -7 6 -15v-156zM471 1544q-8 0 -14 7
q-7 6 -7 14v203q0 8 7 14q6 6 14 6h208q8 0 15 -6q6 -6 6 -14v-203q0 -8 -6 -14q-7 -7 -15 -7h-208z" />
    <glyph glyph-name="zdotaccent" unicode="&#x17c;" horiz-adv-x="956" 
d="M909 20q0 -8 -6 -14t-14 -6h-819q-8 0 -14 6q-7 6 -7 14v146q0 9 4 20q3 10 9 17l518 667h-467q-8 0 -14 7q-7 6 -7 14v143q0 8 7 15q6 6 14 6h747q8 0 15 -6q6 -7 6 -15v-147q0 -10 -3 -20q-4 -10 -10 -17l-524 -666h545q8 0 14 -6t6 -14v-144zM381 1165q-8 0 -14 7
q-7 6 -7 14v203q0 8 7 14q6 6 14 6h208q8 0 15 -6q6 -6 6 -14v-203q0 -8 -6 -14q-7 -7 -15 -7h-208z" />
    <glyph glyph-name="Zcaron" unicode="&#x17d;" horiz-adv-x="1169" 
d="M1133 20q0 -8 -6 -14q-7 -6 -15 -6h-1055q-8 0 -14 6t-6 14v175q0 9 4 19q3 10 8 17l776 1006h-712q-8 0 -14 6q-7 6 -7 14v156q0 8 7 15q6 6 14 6h993q8 0 14 -6q6 -7 6 -15v-180q0 -10 -3 -20t-9 -17l-768 -999h766q8 0 15 -6q6 -7 6 -15v-156zM679 1552q-7 -5 -17 -8
q-11 -4 -20 -4h-62q-9 0 -19 4q-11 3 -18 8l-273 182q-7 4 -10 13t0 17l34 89q3 7 11 11q8 3 15 -1l291 -141l289 141q7 4 15 1q8 -4 11 -11l36 -89q3 -8 0 -17t-10 -13z" />
    <glyph glyph-name="zcaron" unicode="&#x17e;" horiz-adv-x="956" 
d="M909 20q0 -8 -6 -14t-14 -6h-819q-8 0 -14 6q-7 6 -7 14v146q0 9 4 20q3 10 9 17l518 667h-467q-8 0 -14 7q-7 6 -7 14v143q0 8 7 15q6 6 14 6h747q8 0 15 -6q6 -7 6 -15v-147q0 -10 -3 -20q-4 -10 -10 -17l-524 -666h545q8 0 14 -6t6 -14v-144zM552 1173q-7 -5 -17 -8
q-11 -4 -20 -4h-62q-9 0 -19 4q-11 3 -18 8l-273 182q-7 4 -10 13t0 17l34 89q3 7 11 11q8 3 15 -1l291 -141l289 141q7 4 15 1q8 -4 11 -11l36 -89q3 -8 0 -17t-10 -13z" />
    <glyph glyph-name="florin" unicode="&#x192;" horiz-adv-x="778" 
d="M469 -47q0 -88 -26 -150q-27 -61 -70 -100q-44 -38 -99 -55q-56 -17 -114 -17q-41 0 -85 5t-78 12q-8 1 -14 8q-6 8 -6 16v141q0 8 6 12q7 5 14 4q22 -5 48 -8t57 -3q57 0 91 35q34 36 34 124v893h-141q-8 0 -14 7q-6 6 -6 14v143q0 8 6 15q6 6 14 6h141v80q0 88 27 150
q27 61 71 99q43 38 100 55q56 17 114 17q40 0 84 -4q44 -5 78 -11q8 -1 14 -8t6 -16v-141q0 -7 -6 -12q-7 -5 -14 -3q-22 5 -48 8q-27 3 -59 3q-55 0 -90 -35q-35 -36 -35 -125v-57h231q8 0 15 -6q6 -7 6 -15v-143q0 -8 -6 -14q-7 -7 -15 -7h-231v-917z" />
    <glyph glyph-name="Scommaaccent" unicode="&#x218;" horiz-adv-x="1272" 
d="M1237 428q0 -112 -42 -197q-42 -86 -117 -143q-76 -58 -184 -87q-108 -30 -239 -30q-138 0 -250 31q-113 31 -193 93q-81 61 -127 155q-46 93 -52 217q0 8 6 14t14 6h221q9 0 16 -6q6 -6 7 -14q7 -68 29 -123q22 -56 65 -94q42 -38 109 -59q66 -21 162 -21q74 0 135 13
q60 12 102 39q42 26 65 69q23 42 23 102q0 133 -145 172t-317 74q-172 34 -317 111t-145 286q0 100 38 180q38 79 109 134q70 54 172 83t230 29q124 0 227 -25q102 -26 177 -79t122 -134q47 -82 60 -194q1 -7 -5 -13q-6 -7 -13 -7h-221q-9 0 -15 6q-7 5 -8 14
q-12 113 -96 173q-85 59 -236 59q-65 0 -119 -12q-55 -12 -94 -36t-60 -62q-22 -38 -22 -89q0 -125 146 -161q145 -36 318 -70q173 -35 319 -114q145 -80 145 -290zM490 -477q-7 0 -12 6q-5 7 -3 14l42 172v187q0 8 6 14t14 6h156q8 0 14 -6t6 -14v-164q0 -9 -3 -20t-7 -18
l-100 -160q-4 -7 -13 -12t-18 -5h-82z" />
    <glyph glyph-name="scommaaccent" unicode="&#x219;" horiz-adv-x="1038" 
d="M999 313q0 -80 -35 -143q-36 -64 -98 -107q-63 -43 -148 -66q-86 -22 -186 -22q-107 0 -196 23q-90 23 -154 69q-64 45 -101 114q-38 68 -42 157q0 7 6 14q6 6 14 6h198q9 0 15 -6t7 -14q6 -102 73 -150q67 -49 189 -49q104 0 164 41q59 40 59 113q0 87 -110 109t-240 46
q-131 23 -241 84q-110 60 -110 222q0 79 31 141q31 61 88 102q56 40 138 61t182 21q97 0 179 -20q82 -21 142 -61q59 -41 95 -102t43 -142q1 -8 -5 -14q-6 -7 -13 -7h-188q-10 0 -16 6q-7 5 -8 15q-13 79 -72 123q-59 43 -161 43q-90 0 -144 -36q-55 -36 -55 -112
q0 -85 110 -104q109 -20 240 -43t241 -84q109 -61 109 -228zM374 -477q-7 0 -12 6q-5 7 -3 14l42 172v187q0 8 6 14t14 6h156q8 0 14 -6t6 -14v-164q0 -9 -3 -20t-7 -18l-100 -160q-4 -7 -13 -12t-18 -5h-82z" />
    <glyph glyph-name="Tcommaaccent" unicode="&#x21a;" horiz-adv-x="1118" 
d="M446 0q-7 0 -13 7q-7 6 -7 13l14 695l-10 522h-393q-8 0 -14 6q-7 6 -7 14v156q0 8 7 15q6 6 14 6h1044q8 0 15 -6q6 -7 6 -15v-156q0 -8 -6 -14q-7 -6 -15 -6h-393l-10 -522l14 -695q0 -7 -6 -13q-6 -7 -14 -7h-226zM431 -477q-7 0 -12 6q-5 7 -3 14l42 172v187
q0 8 6 14t14 6h156q8 0 14 -6t6 -14v-164q0 -9 -3 -20t-7 -18l-100 -160q-4 -7 -13 -12t-18 -5h-82z" />
    <glyph glyph-name="tcommaaccent" unicode="&#x21b;" horiz-adv-x="690" 
d="M662 36q0 -8 -6 -16t-14 -10q-37 -12 -80 -20t-85 -8q-62 0 -119 17t-100 55q-44 37 -70 98t-26 149l2 569h-117q-8 0 -14 7q-6 6 -6 14v143q0 8 6 15q6 6 14 6h117l-4 243q0 8 6 15q6 6 14 6h209q8 0 15 -6q6 -7 5 -15l-1 -243h235q8 0 15 -6q6 -7 6 -15v-143
q0 -8 -6 -14q-7 -7 -15 -7h-237l2 -563q0 -79 33 -109q32 -30 89 -30q33 0 62 5q28 4 50 10q7 1 14 -3q6 -5 6 -12v-132zM277 -477q-7 0 -12 6q-5 7 -3 14l42 172v187q0 8 6 14t14 6h156q8 0 14 -6t6 -14v-164q0 -9 -3 -20t-7 -18l-100 -160q-4 -7 -13 -12t-18 -5h-82z" />
    <glyph glyph-name="dotlessj" unicode="&#x237;" horiz-adv-x="412" 
d="M98 -348q-8 0 -14 6t-6 14l8 680l-8 682q0 8 6 15q6 6 14 6h213q8 0 15 -6q6 -7 6 -15l-6 -682l6 -680q0 -8 -6 -14q-7 -6 -15 -6h-213z" />
    <glyph glyph-name="schwa" unicode="&#x259;" horiz-adv-x="1122" 
d="M1067 530q0 -124 -35 -227q-36 -103 -102 -175q-67 -73 -163 -113t-216 -40q-122 0 -217 40q-96 40 -161 115q-66 74 -101 182q-36 107 -39 241q0 8 6 14t14 6h766q-7 169 -77 251q-70 81 -201 81q-96 0 -158 -47q-63 -47 -86 -144q-2 -9 -9 -14q-7 -6 -16 -6h-195
q-7 0 -12 7q-6 6 -5 14q11 75 49 142q37 66 98 116q61 49 146 78q85 28 190 28q127 0 225 -40q98 -41 165 -113q66 -73 100 -174q34 -102 34 -222zM299 408q4 -51 21 -98q17 -48 48 -84t76 -57q45 -22 105 -22q110 0 176 67t86 194h-512z" />
    <glyph glyph-name="uni02BB" unicode="&#x2bb;" horiz-adv-x="379" 
d="M332 1434q7 0 12 -6q5 -7 3 -14l-56 -210v-231q0 -8 -6 -14q-7 -7 -15 -7h-200q-8 0 -14 7q-7 6 -7 14v209q0 9 4 20q3 10 8 17l138 198q5 7 14 12t18 5h101z" />
    <glyph glyph-name="uni02BC" unicode="&#x2bc;" horiz-adv-x="379" 
d="M49 952q-7 0 -12 7q-5 6 -3 13l56 210v231q0 8 7 15q6 6 14 6h198q8 0 15 -6q6 -7 6 -15v-209q0 -9 -3 -19q-4 -11 -9 -18l-136 -198q-5 -7 -14 -12t-18 -5h-101z" />
    <glyph glyph-name="circumflex" unicode="&#x2c6;" horiz-adv-x="1024" 
d="M826 1166q-3 -7 -11 -10q-8 -4 -15 0l-289 140l-291 -140q-7 -4 -15 0q-8 3 -11 10l-34 89q-3 8 0 17t10 13l273 182q7 5 18 9q10 3 19 3h62q9 0 20 -3q10 -4 17 -9l273 -182q7 -4 10 -13t0 -17z" />
    <glyph glyph-name="caron" unicode="&#x2c7;" horiz-adv-x="1024" 
d="M579 1173q-7 -5 -17 -8q-11 -4 -20 -4h-62q-9 0 -19 4q-11 3 -18 8l-273 182q-7 4 -10 13t0 17l34 89q3 7 11 11q8 3 15 -1l291 -141l289 141q7 4 15 1q8 -4 11 -11l36 -89q3 -8 0 -17t-10 -13z" />
    <glyph glyph-name="uni02C9" unicode="&#x2c9;" horiz-adv-x="1024" 
d="M215 1190q-8 0 -14 6t-6 14v136q0 8 6 14t14 6h592q8 0 14 -6t6 -14v-136q0 -8 -6 -14t-14 -6h-592z" />
    <glyph glyph-name="breve" unicode="&#x2d8;" horiz-adv-x="1024" 
d="M837 1462q-3 -63 -27 -117q-25 -54 -67 -93q-42 -40 -101 -62q-59 -23 -130 -23t-130 23q-59 22 -101 62q-42 39 -66 93q-25 54 -28 117q-1 8 6 15q6 6 13 6h125q9 0 15 -5q6 -6 7 -16q7 -54 47 -89q40 -36 112 -36q67 0 109 36q42 35 49 89q1 10 8 16q6 5 16 5h124
q7 0 14 -6q6 -7 5 -15z" />
    <glyph glyph-name="dotaccent" unicode="&#x2d9;" horiz-adv-x="1024" 
d="M408 1165q-8 0 -14 7q-7 6 -7 14v203q0 8 7 14q6 6 14 6h208q8 0 15 -6q6 -6 6 -14v-203q0 -8 -6 -14q-7 -7 -15 -7h-208z" />
    <glyph glyph-name="ring" unicode="&#x2da;" horiz-adv-x="1024" 
d="M754 1393q0 -49 -18 -91q-19 -42 -51 -73q-33 -31 -77 -48q-45 -18 -96 -18q-52 0 -97 18q-45 17 -77 48q-33 31 -51 73q-19 42 -19 91t19 91q18 42 51 73q32 30 77 48q45 17 97 17q51 0 96 -17q44 -18 77 -48q32 -31 51 -73q18 -42 18 -91zM401 1393q0 -64 31 -100
t80 -36q47 0 79 36t32 100q0 66 -32 101q-32 34 -79 34q-49 0 -80 -34q-31 -35 -31 -101z" />
    <glyph glyph-name="ogonek" unicode="&#x2db;" horiz-adv-x="1024" 
d="M547 -414q-63 0 -116 15t-90 43q-38 28 -58 67q-21 40 -21 88q0 50 19 91q18 42 49 73q31 32 73 56q41 24 87 40q8 3 17 0q9 -4 13 -11l18 -29q4 -8 3 -16q-2 -9 -9 -15q-25 -21 -52 -59t-27 -83q0 -47 33 -68q32 -20 81 -20h90q8 0 15 -6q6 -6 6 -14v-131q0 -8 -6 -15
q-7 -6 -15 -6h-110z" />
    <glyph glyph-name="tilde" unicode="&#x2dc;" horiz-adv-x="1024" 
d="M819 1423q-4 -110 -50 -176q-46 -67 -136 -67q-47 0 -80 19q-33 18 -58 40q-26 22 -48 41q-22 18 -48 18q-33 0 -47 -25q-15 -26 -18 -69q0 -8 -6 -14q-7 -6 -15 -6h-88q-8 0 -14 7q-6 6 -6 13q2 52 15 97q12 45 35 78q23 32 58 51q35 18 82 18q45 0 78 -18
q32 -19 57 -41q25 -23 47 -41q21 -19 44 -19q35 0 51 26q15 26 18 68q0 9 7 15q6 6 14 6h88q8 0 14 -6q6 -7 6 -15z" />
    <glyph glyph-name="hungarumlaut" unicode="&#x2dd;" horiz-adv-x="1024" 
d="M346 1182q-6 -6 -14 -6q-9 0 -15 5l-56 50q-6 6 -7 15t4 16l236 335q4 7 13 8q8 0 13 -6l98 -100q6 -5 6 -14t-5 -15zM674 1174q-6 -6 -15 -6q-9 -1 -15 5l-55 48q-7 6 -7 15q-1 9 3 16l237 335q4 6 13 7q8 0 13 -5l98 -98q6 -6 6 -14q0 -9 -6 -15z" />
    <glyph glyph-name="gravecmb" unicode="&#x300;" horiz-adv-x="0" 
d="M188 1164q-3 -8 -11 -11q-9 -4 -16 -2l-473 144q-8 2 -12 10t-1 15l50 156q3 7 10 11q8 3 15 0l461 -211q7 -3 11 -11q3 -9 0 -16z" />
    <glyph glyph-name="acutecmb" unicode="&#x301;" horiz-adv-x="0" 
d="M-169 1151q-8 -2 -16 2q-8 3 -11 11l-34 85q-3 7 0 16q4 8 11 11l460 209q7 3 15 0q8 -4 11 -11l50 -154q3 -7 -1 -15q-5 -8 -12 -10z" />
    <glyph glyph-name="circumflexcmb" unicode="&#x302;" horiz-adv-x="0" 
d="M314 1166q-3 -7 -11 -10q-8 -4 -15 0l-289 140l-291 -140q-7 -4 -15 0q-8 3 -11 10l-34 89q-3 8 0 17t10 13l273 182q7 5 17 9q11 3 20 3h62q9 0 20 -3q10 -4 17 -9l273 -182q7 -4 10 -13t0 -17z" />
    <glyph glyph-name="tildecmb" unicode="&#x303;" horiz-adv-x="0" 
d="M307 1423q-4 -110 -50 -176q-46 -67 -136 -67q-47 0 -80 19q-33 18 -59 40q-25 22 -47 41q-22 18 -48 18q-33 0 -48 -25q-14 -26 -17 -69q0 -8 -7 -14q-6 -6 -14 -6h-88q-8 0 -14 7q-6 6 -6 13q2 52 14 97q13 45 36 78q23 32 58 51q35 18 82 18q45 0 77 -18
q33 -19 58 -41q25 -23 47 -41q21 -19 44 -19q35 0 51 26q15 26 18 68q0 9 7 15q6 6 14 6h88q8 0 14 -6q6 -7 6 -15z" />
    <glyph glyph-name="macroncmb" unicode="&#x304;" horiz-adv-x="0" 
d="M-297 1190q-8 0 -14 6t-6 14v136q0 8 6 14t14 6h592q8 0 14 -6t6 -14v-136q0 -8 -6 -14t-14 -6h-592z" />
    <glyph glyph-name="brevecmb" unicode="&#x306;" horiz-adv-x="0" 
d="M325 1462q-3 -63 -27 -117q-25 -54 -67 -93q-42 -40 -101 -62q-59 -23 -130 -23t-130 23q-59 22 -101 62q-42 39 -67 93q-24 54 -27 117q-1 8 5 15q7 6 14 6h125q9 0 15 -5q6 -6 7 -16q7 -54 47 -89q40 -36 112 -36q67 0 109 36q42 35 49 89q1 10 8 16q6 5 16 5h124
q7 0 14 -6q6 -7 5 -15z" />
    <glyph glyph-name="dotaccentcmb" unicode="&#x307;" horiz-adv-x="0" 
d="M-104 1165q-8 0 -15 7q-6 6 -6 14v203q0 8 6 14q7 6 15 6h208q8 0 15 -6q6 -6 6 -14v-203q0 -8 -6 -14q-7 -7 -15 -7h-208z" />
    <glyph glyph-name="dieresiscmb" unicode="&#x308;" horiz-adv-x="0" 
d="M-272 1184q-8 0 -15 6q-6 6 -6 14v205q0 8 6 15q7 6 15 6h168q8 0 14 -6q6 -7 6 -15v-205q0 -8 -6 -14t-14 -6h-168zM104 1184q-8 0 -14 6t-6 14v205q0 8 6 15q6 6 14 6h168q8 0 15 -6q6 -7 6 -15v-205q0 -8 -6 -14q-7 -6 -15 -6h-168z" />
    <glyph glyph-name="ringcmb" unicode="&#x30a;" horiz-adv-x="0" 
d="M242 1393q0 -49 -18 -91q-19 -42 -51 -73q-33 -31 -77 -48q-45 -18 -96 -18q-52 0 -97 18q-45 17 -78 48q-32 31 -51 73q-18 42 -18 91t18 91q19 42 51 73q33 30 78 48q45 17 97 17q51 0 96 -17q44 -18 77 -48q32 -31 51 -73q18 -42 18 -91zM-111 1393q0 -64 31 -100
t80 -36q47 0 79 36t32 100q0 66 -32 101q-32 34 -79 34q-49 0 -80 -34q-31 -35 -31 -101z" />
    <glyph glyph-name="hungarumlautcmb" unicode="&#x30b;" horiz-adv-x="0" 
d="M-166 1182q-6 -6 -15 -6q-8 0 -14 5l-56 50q-6 6 -7 15t4 16l236 335q4 7 12 8q9 0 14 -6l98 -100q6 -5 6 -14t-5 -15zM162 1174q-6 -6 -15 -6q-9 -1 -15 5l-55 48q-7 6 -7 15q-1 9 3 16l237 335q4 6 13 7q8 0 13 -5l98 -98q6 -6 6 -14q0 -9 -6 -15z" />
    <glyph glyph-name="caroncmb" unicode="&#x30c;" horiz-adv-x="0" 
d="M67 1173q-7 -5 -17 -8q-11 -4 -20 -4h-62q-9 0 -20 4q-10 3 -17 8l-273 182q-7 4 -10 13t0 17l34 89q3 7 11 11q8 3 15 -1l291 -141l289 141q7 4 15 1q8 -4 11 -11l36 -89q3 -8 0 -17t-10 -13z" />
    <glyph glyph-name="commaturnedabovecmb" unicode="&#x312;" horiz-adv-x="0" 
d="M-137 1182q-8 0 -15 6q-6 6 -6 14v164q0 9 3 19q4 10 10 17l138 163q6 7 15 12q9 4 19 4h96q7 0 12 -6q5 -7 3 -14l-46 -172v-187q0 -8 -6 -14t-14 -6h-209z" />
    <glyph glyph-name="commaaccentcmb" unicode="&#x326;" horiz-adv-x="0" 
d="M-118 -477q-7 0 -12 6q-5 7 -3 14l42 172v187q0 8 6 14t14 6h156q8 0 14 -6t6 -14v-164q0 -9 -3 -20t-7 -18l-100 -160q-4 -7 -13 -12t-18 -5h-82z" />
    <glyph glyph-name="cedillacmb" unicode="&#x327;" horiz-adv-x="0" 
d="M23 -343q-2 -7 -9 -12q-8 -5 -16 -3l-191 39q-7 1 -11 8q-4 8 -1 15l130 314q3 8 11 13q8 4 17 3l129 -17q8 -1 13 -8q4 -7 3 -15z" />
    <glyph glyph-name="ogonekcmb" unicode="&#x328;" horiz-adv-x="0" 
d="M35 -414q-63 0 -116 15t-91 43q-37 28 -58 67q-20 40 -20 88q0 50 18 91q19 42 50 73q31 32 72 56q42 24 88 40q8 3 17 0q9 -4 13 -11l18 -29q4 -8 3 -16q-2 -9 -9 -15q-25 -21 -52 -59t-27 -83q0 -47 32 -68q33 -20 82 -20h90q8 0 15 -6q6 -6 6 -14v-131q0 -8 -6 -15
q-7 -6 -15 -6h-110z" />
    <glyph glyph-name="Delta" unicode="&#x394;" horiz-adv-x="1380" 
d="M41 0q-8 0 -14 6q-7 6 -7 14v168q0 8 7 15q6 6 14 6q-7 0 -11 6q-5 6 -2 13l491 1187q3 8 11 14q8 5 17 5h295q9 0 17 -5q7 -6 11 -14l482 -1187q4 -8 6 -19q2 -12 2 -21v-168q0 -8 -6 -14q-7 -6 -15 -6h-1298zM1100 209l-418 1059l-398 -1040q-3 -8 -11 -13
q-8 -6 -17 -6h844z" />
    <glyph glyph-name="Omega" unicode="&#x3a9;" horiz-adv-x="1528" 
d="M662 20q0 -8 -6 -14q-7 -6 -15 -6h-524q-8 0 -14 6q-7 6 -7 14v156q0 8 7 15q6 6 14 6h215q-124 99 -198 244q-75 145 -75 329q0 160 51 289q51 128 143 218q91 89 222 137t289 48q159 0 290 -48t223 -137q92 -90 143 -218q50 -129 50 -289q0 -184 -74 -329t-198 -244
h213q8 0 15 -6q6 -7 6 -15v-156q0 -8 -6 -14q-7 -6 -15 -6h-522q-8 0 -14 6q-7 6 -7 14v156q0 9 5 18q5 8 13 12q70 38 130 90t103 120q42 67 67 152q24 84 24 186q0 116 -30 210t-86 160q-57 65 -140 101q-84 35 -190 35t-189 -35q-83 -36 -139 -101q-57 -66 -87 -160
t-30 -210q0 -102 25 -186q24 -85 67 -152q43 -68 103 -120q59 -52 129 -90q8 -4 14 -12q5 -9 5 -18v-156z" />
    <glyph glyph-name="mu" unicode="&#x3bc;" 
d="M317 -328q0 -8 -6 -14t-14 -6h-211q-8 0 -14 6t-6 14l4 770l-4 592q0 8 6 15q6 6 14 6h231q8 0 15 -6q6 -7 6 -15l-6 -428v-211q0 -111 54 -169t138 -58q47 0 91 20q43 20 78 60q35 39 60 101q24 61 31 143v114l-4 428q0 8 7 15q6 6 14 6h213q8 0 14 -6q6 -7 6 -15
l-6 -475l4 -539q0 -8 -6 -14t-14 -6h-199q-8 0 -14 7q-6 6 -6 13l4 134q-25 -37 -60 -69q-35 -33 -78 -57q-44 -25 -95 -39q-52 -14 -111 -14q-38 0 -72 6q-35 6 -66 17z" />
    <glyph glyph-name="pi" unicode="&#x3c0;" 
d="M88 0q-8 0 -14 6t-6 14l4 476l-2 538q0 8 6 15q6 6 14 6h905q8 0 15 -6q6 -7 6 -15l-2 -585l2 -429q0 -8 -6 -14q-7 -6 -15 -6h-211q-8 0 -14 6t-6 14l4 476v374h-449l-2 -421l4 -429q0 -7 -6 -13q-6 -7 -14 -7h-213z" />
    <glyph glyph-name="Wgrave" unicode="&#x1e80;" horiz-adv-x="1831" 
d="M1191 0q-9 0 -16 6q-8 6 -9 14l-258 1072l-239 -1072q-2 -8 -9 -14t-16 -6h-266q-9 0 -16 6q-8 6 -10 14l-342 1394q-1 7 4 14q4 6 12 6h215q8 0 16 -6q7 -6 9 -14l257 -1162l250 1162q1 8 9 14q7 6 16 6h247q9 0 17 -6q7 -6 8 -14l256 -1176l260 1176q1 8 9 14q7 6 16 6
h196q8 0 13 -6q4 -7 3 -14l-347 -1394q-1 -8 -8 -14q-8 -6 -17 -6h-260zM1106 1543q-3 -8 -11 -11q-9 -4 -16 -2l-473 144q-8 2 -12 10t-1 15l50 156q3 7 11 11q7 3 14 0l461 -211q7 -3 11 -11q3 -9 0 -16z" />
    <glyph glyph-name="wgrave" unicode="&#x1e81;" horiz-adv-x="1460" 
d="M940 0q-9 0 -16 6t-9 14l-194 826l-172 -826q-1 -8 -8 -14q-8 -6 -17 -6h-245q-9 0 -16 6q-8 6 -10 14l-248 1015q-2 7 3 14q5 6 12 6h207q9 0 17 -6q7 -6 8 -14l162 -832l174 832q1 8 9 14q7 6 15 6h256q9 0 17 -6q7 -6 8 -14l174 -816l160 816q1 8 9 14q7 6 15 6h189
q7 0 12 -6q5 -7 4 -14l-241 -1015q-2 -8 -9 -14t-16 -6h-250zM913 1164q-3 -8 -11 -11q-9 -4 -16 -2l-473 144q-8 2 -12 10t-1 15l50 156q3 7 11 11q7 3 14 0l461 -211q7 -3 11 -11q3 -9 0 -16z" />
    <glyph glyph-name="Wacute" unicode="&#x1e82;" horiz-adv-x="1831" 
d="M1191 0q-9 0 -16 6q-8 6 -9 14l-258 1072l-239 -1072q-2 -8 -9 -14t-16 -6h-266q-9 0 -16 6q-8 6 -10 14l-342 1394q-1 7 4 14q4 6 12 6h215q8 0 16 -6q7 -6 9 -14l257 -1162l250 1162q1 8 9 14q7 6 16 6h247q9 0 17 -6q7 -6 8 -14l256 -1176l260 1176q1 8 9 14q7 6 16 6
h196q8 0 13 -6q4 -7 3 -14l-347 -1394q-1 -8 -8 -14q-8 -6 -17 -6h-260zM740 1530q-8 -2 -16 2q-8 3 -11 11l-34 85q-3 7 1 16q3 8 10 11l460 209q7 3 15 0q8 -4 11 -11l50 -154q3 -7 -1 -15q-5 -8 -12 -10z" />
    <glyph glyph-name="wacute" unicode="&#x1e83;" horiz-adv-x="1460" 
d="M940 0q-9 0 -16 6t-9 14l-194 826l-172 -826q-1 -8 -8 -14q-8 -6 -17 -6h-245q-9 0 -16 6q-8 6 -10 14l-248 1015q-2 7 3 14q5 6 12 6h207q9 0 17 -6q7 -6 8 -14l162 -832l174 832q1 8 9 14q7 6 15 6h256q9 0 17 -6q7 -6 8 -14l174 -816l160 816q1 8 9 14q7 6 15 6h189
q7 0 12 -6q5 -7 4 -14l-241 -1015q-2 -8 -9 -14t-16 -6h-250zM574 1151q-8 -2 -16 2q-8 3 -11 11l-34 85q-3 7 1 16q3 8 10 11l460 209q7 3 15 0q8 -4 11 -11l50 -154q3 -7 -1 -15q-5 -8 -12 -10z" />
    <glyph glyph-name="Wdieresis" unicode="&#x1e84;" horiz-adv-x="1831" 
d="M1191 0q-9 0 -16 6q-8 6 -9 14l-258 1072l-239 -1072q-2 -8 -9 -14t-16 -6h-266q-9 0 -16 6q-8 6 -10 14l-342 1394q-1 7 4 14q4 6 12 6h215q8 0 16 -6q7 -6 9 -14l257 -1162l250 1162q1 8 9 14q7 6 16 6h247q9 0 17 -6q7 -6 8 -14l256 -1176l260 1176q1 8 9 14q7 6 16 6
h196q8 0 13 -6q4 -7 3 -14l-347 -1394q-1 -8 -8 -14q-8 -6 -17 -6h-260zM643 1563q-8 0 -14 6q-7 6 -7 14v205q0 8 7 15q6 6 14 6h168q8 0 14 -6q6 -7 6 -15v-205q0 -8 -6 -14t-14 -6h-168zM1019 1563q-8 0 -14 6t-6 14v205q0 8 6 15q6 6 14 6h168q8 0 15 -6q6 -7 6 -15
v-205q0 -8 -6 -14q-7 -6 -15 -6h-168z" />
    <glyph glyph-name="wdieresis" unicode="&#x1e85;" horiz-adv-x="1460" 
d="M940 0q-9 0 -16 6t-9 14l-194 826l-172 -826q-1 -8 -8 -14q-8 -6 -17 -6h-245q-9 0 -16 6q-8 6 -10 14l-248 1015q-2 7 3 14q5 6 12 6h207q9 0 17 -6q7 -6 8 -14l162 -832l174 832q1 8 9 14q7 6 15 6h256q9 0 17 -6q7 -6 8 -14l174 -816l160 816q1 8 9 14q7 6 15 6h189
q7 0 12 -6q5 -7 4 -14l-241 -1015q-2 -8 -9 -14t-16 -6h-250zM455 1184q-8 0 -14 6q-7 6 -7 14v205q0 8 7 15q6 6 14 6h168q8 0 14 -6q6 -7 6 -15v-205q0 -8 -6 -14t-14 -6h-168zM831 1184q-8 0 -14 6t-6 14v205q0 8 6 15q6 6 14 6h168q8 0 15 -6q6 -7 6 -15v-205
q0 -8 -6 -14q-7 -6 -15 -6h-168z" />
    <glyph glyph-name="Ygrave" unicode="&#x1ef2;" horiz-adv-x="1188" 
d="M723 20q0 -7 -6 -13q-7 -7 -15 -7h-219q-8 0 -14 7q-6 6 -6 13l8 469l-476 926q-3 7 0 13q4 6 11 6h244q9 0 17 -5q8 -6 12 -14l325 -702l327 702q4 8 12 14q8 5 18 5h221q7 0 11 -6q3 -6 0 -13l-478 -928zM780 1543q-3 -8 -11 -11q-9 -4 -16 -2l-473 144q-8 2 -12 10
t-1 15l50 156q3 7 11 11q7 3 14 0l461 -211q7 -3 11 -11q3 -9 0 -16z" />
    <glyph glyph-name="ygrave" unicode="&#x1ef3;" horiz-adv-x="997" 
d="M534 -329q-3 -8 -10 -14q-8 -5 -17 -5h-195q-7 0 -11 6q-5 6 -3 13l111 323l-417 1042q-2 7 2 13t11 6h238q9 0 17 -5q7 -6 10 -15l264 -724l219 724q2 8 10 14t16 6h211q7 0 12 -6q4 -7 2 -14zM671 1164q-3 -8 -11 -11q-9 -4 -16 -2l-473 144q-8 2 -12 10t-1 15l50 156
q3 7 11 11q7 3 14 0l461 -211q7 -3 11 -11q3 -9 0 -16z" />
    <glyph glyph-name="uni2000" unicode="&#x2000;" horiz-adv-x="1024" 
 />
    <glyph glyph-name="uni2001" unicode="&#x2001;" horiz-adv-x="2048" 
 />
    <glyph glyph-name="uni2002" unicode="&#x2002;" horiz-adv-x="1024" 
 />
    <glyph glyph-name="uni2003" unicode="&#x2003;" horiz-adv-x="2048" 
 />
    <glyph glyph-name="uni2004" unicode="&#x2004;" horiz-adv-x="682" 
 />
    <glyph glyph-name="uni2005" unicode="&#x2005;" horiz-adv-x="512" 
 />
    <glyph glyph-name="uni2009" unicode="&#x2009;" horiz-adv-x="340" 
 />
    <glyph glyph-name="uni200A" unicode="&#x200a;" horiz-adv-x="205" 
 />
    <glyph glyph-name="uni200B" unicode="&#x200b;" horiz-adv-x="0" 
 />
    <glyph glyph-name="endash" unicode="&#x2013;" horiz-adv-x="819" 
d="M45 518q-8 0 -14 7q-6 6 -6 14v141q0 8 6 14t14 6h727q8 0 15 -6q6 -6 6 -14v-141q0 -8 -6 -14q-7 -7 -15 -7h-727z" />
    <glyph glyph-name="emdash" unicode="&#x2014;" horiz-adv-x="1229" 
d="M45 518q-8 0 -14 7q-6 6 -6 14v141q0 8 6 14t14 6h1137q8 0 14 -6t6 -14v-141q0 -8 -6 -14q-6 -7 -14 -7h-1137z" />
    <glyph glyph-name="horizontalbar" unicode="&#x2015;" horiz-adv-x="1210" 
d="M37 518q-8 0 -14 7q-6 6 -6 14v141q0 8 6 14t14 6h1137q8 0 14 -6t6 -14v-141q0 -8 -6 -14q-6 -7 -14 -7h-1137z" />
    <glyph glyph-name="quoteleft" unicode="&#x2018;" horiz-adv-x="379" 
d="M332 1434q7 0 12 -6q5 -7 3 -14l-56 -210v-231q0 -8 -6 -14q-7 -7 -15 -7h-200q-8 0 -14 7q-7 6 -7 14v209q0 9 4 20q3 10 8 17l138 198q5 7 14 12t18 5h101z" />
    <glyph glyph-name="quoteright" unicode="&#x2019;" horiz-adv-x="379" 
d="M49 952q-7 0 -12 7q-5 6 -3 13l56 210v231q0 8 7 15q6 6 14 6h198q8 0 15 -6q6 -7 6 -15v-209q0 -9 -3 -19q-4 -11 -9 -18l-136 -198q-5 -7 -14 -12t-18 -5h-101z" />
    <glyph glyph-name="quotesinglbase" unicode="&#x201a;" horiz-adv-x="367" 
d="M35 -223q-7 0 -12 6q-5 7 -3 14l56 209v232q0 8 6 14t14 6h201q8 0 14 -6t6 -14v-209q0 -10 -3 -20t-8 -18l-139 -197q-5 -8 -14 -13q-9 -4 -18 -4h-100z" />
    <glyph glyph-name="quotedblleft" unicode="&#x201c;" horiz-adv-x="707" 
d="M326 1434q7 0 12 -6q4 -7 3 -14l-56 -210v-231q0 -8 -6 -14q-7 -7 -15 -7h-198q-8 0 -14 7q-7 6 -7 14v209q0 9 4 20q3 10 8 17l136 198q5 7 14 12t18 5h101zM653 1434q8 0 13 -6q4 -7 2 -14l-56 -210v-231q0 -8 -6 -14q-6 -7 -14 -7h-199q-8 0 -14 7q-6 6 -6 14v209
q0 9 3 20q3 10 8 17l137 198q5 7 14 12t18 5h100z" />
    <glyph glyph-name="quotedblright" unicode="&#x201d;" horiz-adv-x="707" 
d="M381 952q-7 0 -12 7q-5 6 -3 13l56 210v231q0 8 6 15q6 6 14 6h201q8 0 15 -6q6 -7 6 -15v-209q0 -9 -3 -19q-4 -11 -9 -18l-139 -198q-5 -7 -13 -12q-9 -5 -19 -5h-100zM53 952q-7 0 -12 7q-5 6 -3 13l56 210v231q0 8 7 15q6 6 14 6h200q8 0 15 -6q6 -7 6 -15v-209
q0 -9 -3 -19q-4 -11 -9 -18l-138 -198q-5 -7 -14 -12t-18 -5h-101z" />
    <glyph glyph-name="quotedblbase" unicode="&#x201e;" horiz-adv-x="690" 
d="M486 -206q-5 -8 -14 -13q-9 -4 -18 -4h-101q-7 0 -12 6q-5 7 -3 14l56 209v232q0 8 7 14q6 6 14 6h200q8 0 15 -6q6 -6 6 -14v-209q0 -10 -3 -20q-4 -10 -9 -18zM158 -206q-5 -8 -14 -13q-9 -4 -18 -4h-100q-8 0 -12 6q-5 7 -4 14l57 209v232q0 8 6 14t14 6h201
q8 0 14 -6t6 -14v-209q0 -10 -3 -20t-9 -18z" />
    <glyph glyph-name="dagger" unicode="&#x2020;" horiz-adv-x="987" 
d="M614 723l6 -703q0 -8 -6 -14t-14 -6h-211q-8 0 -14 6t-6 14l6 703l-2 119l-326 -2q-8 0 -14 6t-6 14v219q0 8 6 15q6 6 14 6l324 -4l-2 317q0 8 6 15q6 6 14 6h211q8 0 14 -6q6 -7 6 -15l-2 -317l324 4q8 0 15 -6q6 -7 6 -15v-219q0 -8 -6 -14q-7 -6 -15 -6l-326 2z" />
    <glyph glyph-name="daggerdbl" unicode="&#x2021;" horiz-adv-x="987" 
d="M963 354q0 -8 -6 -14q-7 -6 -15 -6l-324 4l2 -318q0 -8 -6 -14t-14 -6h-211q-8 0 -14 6t-6 14l2 318l-324 -4q-8 0 -14 6t-6 14v219q0 8 6 15q6 6 14 6l326 -2l2 119l-2 131l-326 -2q-8 0 -14 6t-6 14v219q0 8 6 15q6 6 14 6l324 -4l-2 317q0 8 6 15q6 6 14 6h211
q8 0 14 -6q6 -7 6 -15l-2 -317l324 4q8 0 15 -6q6 -7 6 -15v-219q0 -8 -6 -14q-7 -6 -15 -6l-326 2l-2 -131l2 -119l326 2q8 0 15 -6q6 -7 6 -15v-219z" />
    <glyph glyph-name="bullet" unicode="&#x2022;" horiz-adv-x="545" 
d="M68 369q-8 0 -14 6q-7 6 -7 14v447q0 8 7 14q6 6 14 6h411q8 0 15 -6q6 -6 6 -14v-447q0 -8 -6 -14q-7 -6 -15 -6h-411z" />
    <glyph glyph-name="ellipsis" unicode="&#x2026;" horiz-adv-x="1094" 
d="M72 0q-8 0 -14 6q-7 6 -7 14v218q0 8 7 14q6 6 14 6h223q8 0 14 -6t6 -14v-218q0 -8 -6 -14t-14 -6h-223zM437 0q-8 0 -14 6q-7 6 -7 14v218q0 8 7 14q6 6 14 6h223q8 0 14 -6t6 -14v-218q0 -8 -6 -14t-14 -6h-223zM801 0q-8 0 -14 6q-7 6 -7 14v218q0 8 7 14q6 6 14 6
h223q8 0 14 -6t6 -14v-218q0 -8 -6 -14t-14 -6h-223z" />
    <glyph glyph-name="perthousand" unicode="&#x2030;" horiz-adv-x="2431" 
d="M766 1090q0 -88 -25 -155t-71 -112t-111 -67q-66 -23 -145 -23t-145 23q-66 22 -112 67q-47 45 -72 112q-26 67 -26 155q0 87 26 155q25 68 71 115q46 46 112 70t146 24t146 -24q65 -24 111 -70q45 -47 70 -115t25 -155zM242 0q-7 0 -10 6t1 11l988 1400q5 7 14 12t18 5
h170q7 0 10 -6t-1 -11l-990 -1400q-5 -7 -14 -12t-18 -5h-168zM270 1090q0 -103 38 -153q37 -50 106 -50t105 49q36 48 36 154q0 108 -38 159t-105 51t-104 -51q-38 -51 -38 -159zM2372 344q0 -87 -25 -155q-26 -68 -72 -114q-46 -47 -112 -71t-146 -24t-146 25
q-66 24 -112 70t-71 115q-25 68 -25 156q0 87 25 154t71 111t112 67q66 22 146 22q79 0 145 -22q66 -23 113 -67q46 -44 72 -111q25 -67 25 -156zM1608 344q0 -87 -25 -155q-26 -68 -72 -114q-46 -47 -112 -71t-146 -24q-79 0 -144 25q-66 24 -112 70t-71 115
q-25 68 -25 156q0 87 25 154t71 111t112 67q65 22 144 22q80 0 146 -22q66 -23 112 -67t72 -111q25 -67 25 -156zM1874 344q0 -108 39 -159q38 -52 104 -52q67 0 106 52q38 51 38 159q0 102 -37 153q-38 50 -107 50q-70 0 -106 -49q-37 -50 -37 -154zM1112 344
q0 -108 38 -159q38 -52 105 -52q66 0 104 52q38 51 38 159q0 102 -37 153q-38 50 -107 50t-105 -49q-36 -50 -36 -154z" />
    <glyph glyph-name="minute" unicode="&#x2032;" horiz-adv-x="389" 
d="M54 952q-7 0 -13 7q-6 6 -5 14l57 440q1 9 8 15q6 6 15 6h202q8 0 13 -6q4 -7 1 -14l-146 -442q-3 -8 -11 -14t-16 -6h-105z" />
    <glyph glyph-name="second" unicode="&#x2033;" horiz-adv-x="707" 
d="M382 952q-8 0 -13 7q-6 6 -5 14l56 440q1 9 8 15t15 6h203q7 0 12 -6q4 -7 2 -14l-147 -442q-2 -8 -10 -14t-17 -6h-104zM64 952q-7 0 -12 7q-6 6 -5 14l56 440q1 9 8 15t15 6h203q7 0 12 -6q4 -7 2 -14l-147 -442q-3 -8 -10 -14q-8 -6 -17 -6h-105z" />
    <glyph glyph-name="guilsinglleft" unicode="&#x2039;" horiz-adv-x="573" 
d="M351 164q-9 0 -18 5q-9 4 -15 11l-274 353q-5 7 -5 16t5 16l274 357q6 7 15 12q9 4 18 4h166q7 0 10 -5q2 -6 -2 -11l-286 -373l286 -369q4 -5 2 -10q-3 -6 -10 -6h-166z" />
    <glyph glyph-name="guilsinglright" unicode="&#x203a;" horiz-adv-x="573" 
d="M60 164q-6 0 -9 6q-3 5 1 10l287 369l-287 373q-4 5 -1 11q3 5 9 5h166q10 0 19 -4q9 -5 14 -12l272 -357q5 -7 5 -16t-5 -16l-272 -353q-5 -7 -14 -11q-9 -5 -19 -5h-166z" />
    <glyph glyph-name="fraction" unicode="&#x2044;" horiz-adv-x="782" 
d="M-157 0q-7 0 -10 6t1 11l936 1400q5 7 14 12t18 5h135q7 0 10 -6t-1 -11l-936 -1400q-4 -7 -13 -12t-18 -5h-136z" />
    <glyph glyph-name="zero.sups" unicode="&#x2070;" horiz-adv-x="698" 
d="M655 1044q0 -97 -22 -172t-61 -126q-40 -51 -97 -77t-127 -26q-69 0 -126 26t-97 77t-62 126t-22 172q0 100 22 177q22 76 62 127t97 77q57 25 126 25t126 -25q56 -25 97 -75q40 -51 62 -127q22 -77 22 -179zM215 1044q0 -140 35 -204q34 -64 98 -64t99 63q34 63 34 205
q0 143 -34 208q-35 65 -99 65q-66 0 -99 -64q-34 -65 -34 -209z" />
    <glyph glyph-name="four.sups" unicode="&#x2074;" horiz-adv-x="672" 
d="M637 852q0 -8 -6 -14q-7 -7 -15 -7h-61v-153q0 -8 -6 -14q-6 -7 -14 -7h-127q-8 0 -14 7q-7 6 -7 14v153h-326q-8 0 -14 7q-6 6 -6 14v109q0 9 3 20q3 10 8 17l269 418q4 8 13 13t18 5h183q8 0 14 -6q6 -7 6 -15v-452h61q8 0 15 -6q6 -7 6 -15v-88zM387 1147l4 160
l-217 -346h213v186z" />
    <glyph glyph-name="five.sups" unicode="&#x2075;" horiz-adv-x="664" 
d="M626 940q0 -69 -22 -124q-22 -56 -62 -94q-40 -39 -96 -60t-123 -21q-120 0 -189 58q-70 57 -82 147q-1 7 5 14q6 6 13 6h124q10 0 16 -5q6 -6 7 -15q6 -43 33 -63q27 -21 70 -21q60 0 94 42q33 41 33 122q0 78 -29 120q-29 41 -93 41q-40 0 -69 -17t-41 -51
q-4 -10 -11 -15t-17 -5h-102q-8 0 -14 7q-6 6 -5 14l28 393q1 8 8 15q6 6 14 6h442q8 0 15 -6q6 -7 6 -15v-90q0 -8 -6 -14q-7 -6 -15 -6h-313l-17 -140q31 23 69 34q37 11 79 11q52 0 98 -19q45 -20 79 -55q34 -36 54 -85q19 -50 19 -109z" />
    <glyph glyph-name="six.sups" unicode="&#x2076;" horiz-adv-x="680" 
d="M635 928q0 -58 -21 -110t-58 -91q-38 -39 -91 -61q-54 -23 -117 -23q-139 0 -219 104t-80 297q0 195 82 301q81 105 217 105q107 0 174 -49t82 -138q1 -7 -4 -13q-6 -7 -14 -7h-121q-10 0 -17 5t-9 15q-8 30 -30 48t-59 18q-61 0 -93 -56q-33 -56 -34 -155q26 28 64 45
t96 17q113 0 183 -69q69 -69 69 -183zM227 915q0 -70 32 -108q31 -39 85 -39t85 37q30 36 30 102q0 69 -30 111q-30 41 -85 41t-86 -37q-31 -38 -31 -107z" />
    <glyph glyph-name="seven.sups" unicode="&#x2077;" horiz-adv-x="569" 
d="M529 1282q-66 -132 -120 -284q-55 -152 -80 -320q-1 -9 -8 -15q-8 -6 -16 -6h-133q-7 0 -12 7q-6 6 -5 14q12 84 31 169q19 84 44 164q25 79 56 154q31 74 68 138h-303q-8 0 -14 6t-6 14v90q0 8 6 15q6 6 14 6h467q8 0 15 -6q6 -7 6 -15v-92q0 -9 -3 -20t-7 -19z" />
    <glyph glyph-name="eight.sups" unicode="&#x2078;" horiz-adv-x="678" 
d="M635 883q0 -57 -23 -101t-62 -73q-40 -30 -94 -45q-55 -15 -118 -15q-61 0 -115 15t-94 45q-40 29 -63 73t-23 101q0 64 37 115q36 50 108 73q-61 25 -93 72q-33 46 -32 104q4 98 75 150q70 51 200 51q131 0 202 -51q71 -52 74 -150q0 -58 -32 -104q-33 -47 -93 -72
q72 -23 109 -73q37 -51 37 -115zM225 1223q1 -49 32 -79q30 -30 81 -30q52 0 83 30q30 30 30 79q0 50 -30 81q-31 31 -83 31q-51 0 -81 -31q-31 -31 -32 -81zM207 887q0 -54 37 -89q37 -36 94 -36q58 0 96 36q37 35 37 89q-1 57 -36 89q-36 32 -97 32q-60 0 -95 -32
q-36 -32 -36 -89z" />
    <glyph glyph-name="nine.sups" unicode="&#x2079;" horiz-adv-x="680" 
d="M223 1186q0 -69 29 -110q29 -42 86 -42q55 0 86 38q31 37 31 106q0 70 -31 109q-32 38 -86 38t-84 -36q-31 -37 -31 -103zM633 1049q0 -195 -80 -300q-81 -106 -217 -106q-109 0 -176 49t-82 138q-1 7 5 14q5 6 13 6h121q10 0 17 -5q7 -6 10 -15q8 -31 30 -48
q21 -18 60 -18q61 0 94 55q32 55 33 156q-26 -28 -64 -45t-98 -17q-111 0 -180 71q-70 71 -70 190q0 56 21 106t59 88q37 37 90 60q52 22 115 22q140 0 220 -104q79 -104 79 -297z" />
    <glyph glyph-name="zero.sinf" unicode="&#x2080;" horiz-adv-x="696" 
d="M655 24q0 -97 -22 -172t-61 -126q-40 -51 -97 -77t-127 -26q-69 0 -126 26t-97 77t-62 126t-22 172q0 100 22 177q22 76 62 127t97 77q57 25 126 25t126 -25q56 -25 97 -75q40 -51 62 -127q22 -77 22 -179zM215 24q0 -140 35 -204q34 -64 98 -64t99 63q34 63 34 205
q0 143 -34 208q-35 65 -99 65q-66 0 -99 -64q-34 -65 -34 -209z" />
    <glyph glyph-name="one.sinf" unicode="&#x2081;" horiz-adv-x="475" 
d="M231 -369q-8 0 -14 6q-6 7 -6 15l8 377l-6 184q-28 -28 -66 -48q-38 -21 -81 -36q-7 -2 -13 3q-6 4 -6 11v94q0 10 6 17q5 7 13 11q49 19 86 50t60 72q4 9 13 14q8 5 18 5h126q8 0 14 -6q6 -7 6 -15l-10 -412l10 -321q0 -8 -6 -15q-7 -6 -14 -6h-138z" />
    <glyph glyph-name="two.sinf" unicode="&#x2082;" horiz-adv-x="631" 
d="M66 -369q-8 0 -14 6q-7 7 -7 15v88q0 116 60 177q59 62 131 101q71 39 131 72q59 33 59 92q3 54 -26 84q-29 29 -81 29q-49 -1 -79 -34q-31 -34 -36 -97q-1 -9 -7 -15q-7 -6 -15 -6h-111q-7 0 -13 7q-7 6 -7 14q2 121 70 189q68 67 198 67q129 0 195 -62q65 -62 68 -172
q0 -107 -59 -165q-60 -59 -130 -97q-71 -37 -130 -70q-60 -32 -60 -86l358 -5q8 0 15 -7q6 -6 6 -14v-90q0 -8 -6 -15q-7 -6 -15 -6h-495z" />
    <glyph glyph-name="three.sinf" unicode="&#x2083;" horiz-adv-x="639" 
d="M603 -129q0 -60 -23 -107q-24 -47 -64 -79q-40 -31 -93 -48q-53 -16 -111 -16q-123 0 -190 60q-68 60 -80 174q-1 7 5 13q6 7 13 7h122q9 0 16 -6q6 -5 6 -14q4 -55 33 -87q28 -31 81 -30q49 0 81 33q32 34 32 92q3 66 -28 95q-32 30 -99 30h-43q-8 0 -14 6t-6 14v70
q0 8 6 14t14 6h43q60 0 89 29q28 29 28 72q0 44 -28 73q-29 29 -70 29q-48 0 -75 -25q-27 -26 -33 -75q-1 -9 -7 -15t-15 -6h-121q-7 0 -13 7t-5 14q10 104 83 161q72 56 194 56q113 0 183 -56t71 -143q0 -70 -37 -109q-37 -40 -90 -59q69 -18 107 -65q38 -46 38 -115z" />
    <glyph glyph-name="four.sinf" unicode="&#x2084;" horiz-adv-x="672" 
d="M637 -176q0 -8 -6 -15q-7 -6 -15 -6h-61v-153q0 -8 -6 -15q-6 -6 -14 -6h-127q-8 0 -14 6q-7 7 -7 15v153h-326q-8 0 -14 6q-6 7 -6 15v109q0 9 3 19q3 11 8 18l269 418q4 8 13 13t18 5h183q8 0 14 -6q6 -7 6 -15v-452h61q8 0 15 -7q6 -6 6 -14v-88zM387 119l4 160
l-217 -346h213v186z" />
    <glyph glyph-name="five.sinf" unicode="&#x2085;" horiz-adv-x="664" 
d="M626 -88q0 -69 -22 -125q-22 -55 -62 -94q-40 -38 -96 -59t-123 -21q-120 0 -189 57q-70 58 -82 148q-1 7 5 13q6 7 13 7h124q10 0 16 -6q6 -5 7 -14q6 -43 33 -64q27 -20 70 -20q60 0 94 41q33 42 33 123q0 78 -29 120q-29 41 -93 41q-40 0 -69 -17t-41 -51
q-4 -10 -11 -15t-17 -5h-102q-8 0 -14 6q-6 7 -5 15l28 393q1 8 8 15q6 6 14 6h442q8 0 15 -6q6 -7 6 -15v-90q0 -8 -6 -14q-7 -6 -15 -6h-313l-17 -140q31 23 69 34q37 11 79 11q52 0 98 -19q45 -20 79 -55q34 -36 54 -85q19 -50 19 -109z" />
    <glyph glyph-name="six.sinf" unicode="&#x2086;" horiz-adv-x="680" 
d="M635 -100q0 -58 -21 -110t-58 -91q-38 -39 -91 -62q-54 -22 -117 -22q-139 0 -219 104t-80 297q0 195 82 301q81 105 217 105q107 0 174 -49t82 -138q1 -7 -4 -13q-6 -7 -14 -7h-121q-10 0 -17 5t-9 15q-8 30 -30 48t-59 18q-61 0 -93 -56q-33 -56 -34 -155q26 28 64 45
t96 17q113 0 183 -69q69 -69 69 -183zM227 -113q0 -70 32 -109q31 -38 85 -38t85 36q30 37 30 103q0 69 -30 110q-30 42 -85 42t-86 -38q-31 -37 -31 -106z" />
    <glyph glyph-name="seven.sinf" unicode="&#x2087;" horiz-adv-x="567" 
d="M529 254q-66 -132 -120 -284q-55 -152 -80 -320q-1 -9 -8 -15q-8 -6 -16 -6h-133q-7 0 -12 6q-6 7 -5 15q12 84 31 168q19 85 44 164q25 80 56 155q31 74 68 138h-303q-8 0 -14 6t-6 14v90q0 8 6 15q6 6 14 6h467q8 0 15 -6q6 -7 6 -15v-92q0 -9 -3 -20t-7 -19z" />
    <glyph glyph-name="eight.sinf" unicode="&#x2088;" horiz-adv-x="676" 
d="M635 -145q0 -57 -23 -101t-62 -74q-40 -29 -94 -44q-55 -15 -118 -15q-61 0 -115 15t-94 44q-40 30 -63 74t-23 101q0 64 37 114q36 51 108 74q-61 25 -93 72q-33 46 -32 104q4 98 75 150q70 51 200 51q131 0 202 -51q71 -52 74 -150q0 -58 -32 -104q-33 -47 -93 -72
q72 -23 109 -74q37 -50 37 -114zM225 195q1 -49 32 -79q30 -30 81 -30q52 0 83 30q30 30 30 79q0 50 -30 81q-31 31 -83 31q-51 0 -81 -31q-31 -31 -32 -81zM207 -141q0 -54 37 -90q37 -35 94 -35q58 0 96 35q37 36 37 90q-1 57 -36 89q-36 32 -97 32q-60 0 -95 -32
q-36 -32 -36 -89z" />
    <glyph glyph-name="nine.sinf" unicode="&#x2089;" horiz-adv-x="680" 
d="M223 158q0 -69 29 -110q29 -42 86 -42q55 0 86 38q31 37 31 106q0 70 -31 109q-32 38 -86 38t-84 -36q-31 -37 -31 -103zM633 21q0 -195 -80 -301q-81 -105 -217 -105q-109 0 -176 49t-82 138q-1 7 5 13q5 7 13 7h121q10 0 17 -6q7 -5 10 -14q8 -31 30 -49q21 -17 60 -17
q61 0 94 55q32 55 33 156q-26 -28 -64 -45t-98 -17q-111 0 -180 71q-70 71 -70 190q0 56 21 106t59 88q37 37 90 60q52 22 115 22q140 0 220 -104q79 -104 79 -297z" />
    <glyph glyph-name="Euro" unicode="&#x20ac;" horiz-adv-x="1337" 
d="M1294 451q8 0 13 -7t4 -14q-44 -241 -179 -350q-136 -109 -358 -109q-115 0 -209 34q-95 34 -166 97q-72 62 -121 153q-50 90 -75 202h-154q-8 0 -14 6t-6 14v137q0 8 6 15q6 6 14 6h129q-1 20 -1 40q-1 20 -1 40q0 21 1 43q0 21 1 43h-129q-8 0 -14 6t-6 14v137
q0 8 6 15q6 6 14 6h156q26 112 76 202q49 90 121 152q71 62 165 96q93 33 205 33q100 0 187 -22q86 -22 153 -72t116 -131q48 -82 73 -201q1 -7 -4 -13q-5 -7 -13 -7h-206q-9 0 -16 6q-8 5 -10 14q-26 110 -93 167t-189 57q-121 0 -197 -74t-110 -207h348q8 0 14 -6
q6 -7 6 -15v-137q0 -8 -6 -14t-14 -6h-375q-1 -20 -1 -42q-1 -22 -1 -44t1 -42q0 -20 1 -38h375q8 0 14 -6q6 -7 6 -15v-137q0 -8 -6 -14t-14 -6h-350q34 -138 110 -210q76 -73 197 -73q134 0 202 67q68 66 90 189q1 9 8 15t16 6h210z" />
    <glyph glyph-name="copyrightsound" unicode="&#x2117;" horiz-adv-x="1505" 
d="M1458 713q0 -165 -50 -302q-51 -138 -143 -235t-223 -151t-290 -54t-289 54q-131 54 -222 152q-92 97 -142 235t-50 303q0 170 50 309t142 236q91 96 222 149q130 53 289 53t290 -52t223 -148q92 -97 143 -236q50 -140 50 -313zM166 713q0 -147 40 -265q40 -119 115 -201
t185 -126q110 -45 248 -45t248 44q109 44 184 126q74 82 114 201q39 118 39 266q0 147 -39 267q-40 120 -114 204q-75 83 -184 129q-110 45 -250 45q-141 0 -250 -44q-110 -45 -184 -128q-75 -83 -113 -203q-39 -120 -39 -270zM1135 887q0 -75 -23 -133q-24 -58 -66 -97
q-43 -39 -103 -59t-134 -20h-160l2 -306q0 -8 -6 -14t-14 -6h-125q-8 0 -14 6q-7 6 -6 14l3 449l-3 440q-1 8 6 15q6 6 14 6h301q151 0 240 -76q88 -76 88 -219zM649 721v-8h168q66 0 112 40t46 130q0 82 -43 122q-44 39 -119 39h-162z" />
    <glyph glyph-name="trademark" unicode="&#x2122;" horiz-adv-x="1208" 
d="M203 850q-8 0 -14 6q-7 6 -6 14l3 271l-2 190h-139q-8 0 -14 7q-6 6 -6 14v61q0 8 6 15q6 6 14 6h406q8 0 14 -6q6 -7 6 -15v-61q0 -8 -6 -14q-6 -7 -14 -7h-140l-2 -190l2 -271q0 -8 -6 -14t-14 -6h-88zM629 1120v-250q0 -8 -6 -14q-7 -6 -15 -6h-73q-8 0 -14 6
q-7 6 -7 14l2 271l-2 272q0 8 7 15q6 6 14 6h118q9 0 17 -5q8 -6 11 -15l153 -404l144 404q3 9 11 15q8 5 17 5h110q8 0 15 -6q6 -7 5 -15l-1 -272l1 -271q1 -8 -5 -14q-7 -6 -15 -6h-84q-8 0 -14 6t-6 14v250l2 107l-130 -358q-4 -8 -11 -13q-8 -6 -17 -6h-63q-9 0 -17 6
q-8 5 -11 13l-140 373z" />
    </font>
</defs>
</svg>
