<?xml version="1.0" standalone="no"?>
<!DOCTYPE svg PUBLIC "-//W3C//DTD SVG 1.1//EN" "http://www.w3.org/Graphics/SVG/1.1/DTD/svg11.dtd" >
<svg xmlns="http://www.w3.org/2000/svg" xmlns:xlink="http://www.w3.org/1999/xlink" version="1.1">
<metadata>
Created by FontForge 20170731 at Fri May  5 14:06:19 2017
 By Aleksey,,,
Copyright Type Network; all rights reserved. Any use or distribution beyond original license prohibited.
</metadata>
<defs>
<font id="FormaDJRDeck-Regular" horiz-adv-x="0" >
  <font-face 
    font-family="TN web use only 2"
    font-weight="400"
    font-stretch="normal"
    units-per-em="2048"
    panose-1="0 0 0 0 0 0 0 9 0 0"
    ascent="1536"
    descent="-512"
    x-height="1055"
    cap-height="1434"
    bbox="-333.8 -512 2204 1970"
    underline-thickness="0"
    underline-position="0"
    unicode-range="U+000D-FEFF"
  />
<missing-glyph horiz-adv-x="1024" 
d="M102 -512v2048h820v-2048h-820zM204 -410h616v1844h-616v-1844z" />
    <glyph glyph-name=".notdef" horiz-adv-x="1024" 
d="M102 -512v2048h820v-2048h-820zM204 -410h616v1844h-616v-1844z" />
    <glyph glyph-name=".null" 
 />
    <glyph glyph-name=".null" 
 />
    <glyph glyph-name="nonmarkingreturn" unicode="&#xd;" horiz-adv-x="512" 
 />
    <glyph glyph-name="space" unicode=" " horiz-adv-x="360" 
 />
    <glyph glyph-name="space" unicode="&#xa0;" horiz-adv-x="360" 
 />
    <glyph glyph-name="exclam" unicode="!" horiz-adv-x="379" 
d="M115 397q-7 0 -13 6t-6 13v999q0 7 6 13t13 6h149q7 0 13 -6t6 -13v-999q0 -7 -6 -13t-13 -6h-149zM109 0q-7 0 -13 6q-6 5 -6 12v179q0 7 6 13q6 5 13 5h161q7 0 13 -5q6 -6 6 -13v-179q0 -7 -6 -12q-6 -6 -13 -6h-161z" />
    <glyph glyph-name="quotedbl" unicode="&#x22;" horiz-adv-x="604" 
d="M384 1018q-7 0 -13 6q-6 5 -8 12l-20 379q-1 7 4 13t12 6h148q7 0 12 -6t4 -13l-22 -379q-1 -7 -7 -12q-7 -6 -14 -6h-96zM122 1018q-7 0 -13 6q-7 5 -8 12l-20 379q-1 7 4 13t12 6h148q7 0 12 -6t4 -13l-22 -379q-1 -7 -7 -12q-7 -6 -14 -6h-96z" />
    <glyph glyph-name="numbersign" unicode="#" horiz-adv-x="1374" 
d="M798 475l69 492h-286l-70 -492h287zM749 0q-7 0 -12 6q-5 5 -4 12l44 310h-287l-44 -310q-1 -7 -7 -12q-7 -6 -14 -6h-137q-7 0 -12 6q-5 5 -4 12l44 310h-288q-7 0 -12 6q-5 5 -4 12l19 111q1 7 8 13q6 5 13 5h285l70 492h-285q-7 0 -12 6q-5 5 -4 12l15 111q1 7 8 13
q6 5 13 5h287l43 301q1 7 7 13t14 6h137q7 0 12 -6t4 -13l-43 -301h287l42 301q1 7 8 13q6 6 13 6h138q7 0 12 -6q4 -6 3 -13l-42 -301h285q7 0 12 -5q4 -6 3 -13l-15 -111q-1 -7 -7 -12q-7 -6 -14 -6h-287l-69 -492h286q7 0 12 -5q5 -6 4 -13l-17 -111q-1 -7 -7 -12
q-7 -6 -14 -6h-285l-44 -310q-1 -7 -7 -12q-7 -6 -14 -6h-137z" />
    <glyph glyph-name="dollar" unicode="$" horiz-adv-x="1159" 
d="M668 -186q0 -7 -6 -13t-13 -6h-149q-7 0 -13 6t-6 13v170q-190 28 -297 153q-108 125 -118 338q0 7 6 13q5 6 12 6h162q7 0 13 -6t7 -13q6 -80 27 -144q20 -65 59 -109q39 -45 101 -69q61 -24 149 -24q66 0 122 15t96 48q40 32 63 83q22 50 22 120q0 151 -127 193
t-277 74q-151 31 -278 103t-127 282q0 88 27 160q27 71 77 123q49 51 120 83q71 31 157 41v125q0 7 6 13q6 5 13 5h149q7 0 13 -5q6 -6 6 -13v-127q175 -22 276 -127q100 -106 119 -299q1 -7 -4 -12q-5 -6 -12 -6h-160q-7 0 -13 6q-6 5 -7 12q-8 136 -85 207q-77 70 -225 70
q-60 0 -110 -14t-86 -43t-56 -74t-20 -107q0 -140 128 -177q127 -38 279 -69q151 -32 279 -108q127 -76 127 -291q0 -101 -31 -179q-32 -79 -87 -134q-56 -55 -135 -87t-173 -40v-166z" />
    <glyph glyph-name="percent" unicode="%" horiz-adv-x="1563" 
d="M705 1100q0 -83 -23 -148t-65 -108q-42 -44 -101 -67q-60 -23 -133 -23q-72 0 -131 23q-60 22 -102 66q-42 43 -65 109q-24 65 -24 150q0 83 23 149t65 111q42 44 102 68t134 24q73 0 133 -24q59 -24 101 -69q41 -45 64 -111q22 -66 22 -150zM238 0q-7 0 -9 6q-3 5 0 9
l936 1403q4 7 13 12q8 4 16 4h127q6 0 9 -5q3 -6 -1 -11l-936 -1403q-4 -7 -12 -11t-16 -4h-127zM223 1100q0 -110 43 -166q42 -57 117 -57t118 56q42 55 42 167q0 114 -43 173q-44 58 -117 58q-75 0 -117 -58q-43 -59 -43 -173zM1501 334q0 -84 -23 -150t-65 -111t-101 -69
q-60 -24 -132 -24q-73 0 -132 24q-60 24 -102 69t-65 111t-23 150t23 149t65 109q42 43 102 66q59 22 132 22q72 0 132 -22q59 -23 101 -66q42 -44 65 -109t23 -149zM1020 334q0 -116 43 -174t117 -58q73 0 116 58t43 174q0 108 -42 166q-42 57 -117 57q-77 0 -118 -56
q-42 -57 -42 -167z" />
    <glyph glyph-name="ampersand" unicode="&#x26;" horiz-adv-x="1335" 
d="M598 1343q-87 0 -138 -45q-52 -46 -52 -141q0 -58 31 -114q30 -56 102 -142q52 28 99 57q46 28 81 60q35 31 56 68q20 37 20 81q0 81 -54 129q-55 47 -145 47zM233 389q0 -66 23 -117t65 -85t101 -52q58 -18 129 -18q98 0 181 38q82 38 142 107l-296 340q-26 29 -52 57
t-49 54q-50 -30 -95 -63t-78 -72t-52 -85q-19 -47 -19 -104zM1124 0q-8 0 -16 4q-9 4 -14 10l-121 138q-84 -83 -195 -130t-241 -47q-94 0 -182 26q-89 26 -156 77q-68 50 -109 127q-41 76 -41 176q0 83 28 149t75 118q46 52 107 94q61 41 126 77q-69 84 -112 168
q-44 84 -44 174q0 62 24 118q23 55 70 97q46 41 116 66q69 24 159 24q75 0 141 -20q65 -21 113 -59q47 -39 75 -95t29 -127q0 -68 -27 -121q-28 -54 -73 -97q-46 -43 -105 -79q-59 -37 -122 -71q35 -40 78 -89t92 -106l172 -194q31 68 50 149q19 80 24 170q1 7 7 13
q6 5 13 5h135q7 0 13 -5q5 -6 5 -13q-8 -126 -44 -238q-36 -113 -93 -206l238 -269q4 -4 2 -9q-3 -5 -8 -5h-189z" />
    <glyph glyph-name="quotesingle" unicode="'" horiz-adv-x="342" 
d="M122 1018q-7 0 -13 6q-6 5 -7 12l-22 379q-1 7 5 13q5 6 12 6h148q7 0 13 -6q5 -6 4 -13l-24 -379q-1 -7 -7 -12q-6 -6 -13 -6h-96z" />
    <glyph glyph-name="parenleft" unicode="(" horiz-adv-x="463" 
d="M283 -287q-8 0 -15 5q-8 5 -12 12q-99 199 -156 415t-57 469t58 469q58 215 153 396q4 7 12 12q7 4 14 4h113q7 0 11 -5q3 -6 0 -12q-88 -196 -138 -412q-51 -217 -51 -452t50 -457q50 -223 141 -427q3 -6 0 -12q-4 -5 -11 -5h-112z" />
    <glyph glyph-name="parenright" unicode=")" horiz-adv-x="463" 
d="M69 -287q-7 0 -10 5q-4 6 -1 12q91 204 141 427q50 222 50 457t-50 452q-51 216 -139 412q-3 6 1 12q3 5 10 5h112q8 0 16 -4q7 -5 11 -12q95 -181 153 -396q58 -216 58 -469t-57 -469t-156 -415q-4 -7 -11 -12q-8 -5 -16 -5h-112z" />
    <glyph glyph-name="asterisk" unicode="*" horiz-adv-x="694" 
d="M611 1010q-3 -7 -10 -9q-8 -2 -14 2l-189 109l8 -211q0 -7 -5 -12q-6 -6 -13 -6h-84q-7 0 -12 6q-6 5 -6 12l8 211l-183 -113q-6 -4 -13 -2q-8 2 -12 8l-45 75q-4 6 -2 14q2 7 9 10l186 98l-188 94q-7 4 -9 11q-3 7 1 14l39 82q3 6 11 9q7 2 13 -2l191 -110l-8 218
q0 7 6 13q5 5 12 5h82q7 0 13 -5q5 -6 5 -13l-6 -218l189 120q7 4 14 2t11 -8l43 -75q4 -6 2 -13q-2 -8 -9 -12l-192 -104l184 -92q7 -3 10 -10q2 -8 -1 -15z" />
    <glyph glyph-name="plus" unicode="+" horiz-adv-x="1034" 
d="M979 647q0 -7 -5 -12q-6 -6 -13 -6h-367v-408q0 -7 -6 -12q-6 -6 -13 -6h-112q-7 0 -13 6q-6 5 -6 12v408h-368q-7 0 -13 6q-6 5 -6 12v117q0 7 6 13q6 5 13 5h368v410q0 7 6 13q6 5 13 5h112q7 0 13 -5q6 -6 6 -13v-410h367q7 0 13 -5q5 -6 5 -13v-117z" />
    <glyph glyph-name="comma" unicode="," horiz-adv-x="313" 
d="M36 -201q-7 0 -11 5q-4 6 -3 13l51 187v193q0 7 6 13q5 5 12 5h150q7 0 13 -5q5 -6 5 -13v-172q0 -9 -3 -18t-7 -16l-115 -176q-4 -7 -12 -12q-9 -4 -17 -4h-69z" />
    <glyph glyph-name="hyphen" unicode="-" horiz-adv-x="520" 
d="M49 526q-7 0 -12 6q-6 6 -6 13v108q0 7 6 13q5 6 12 6h422q7 0 13 -6q5 -6 5 -13v-108q0 -7 -5 -13q-6 -6 -13 -6h-422z" />
    <glyph glyph-name="hyphen" unicode="&#x2011;" horiz-adv-x="520" 
d="M49 526q-7 0 -12 6q-6 6 -6 13v108q0 7 6 13q5 6 12 6h422q7 0 13 -6q5 -6 5 -13v-108q0 -7 -5 -13q-6 -6 -13 -6h-422z" />
    <glyph glyph-name="hyphen" unicode="&#x2010;" horiz-adv-x="520" 
d="M49 526q-7 0 -12 6q-6 6 -6 13v108q0 7 6 13q5 6 12 6h422q7 0 13 -6q5 -6 5 -13v-108q0 -7 -5 -13q-6 -6 -13 -6h-422z" />
    <glyph glyph-name="hyphen" unicode="&#xad;" horiz-adv-x="520" 
d="M49 526q-7 0 -12 6q-6 6 -6 13v108q0 7 6 13q5 6 12 6h422q7 0 13 -6q5 -6 5 -13v-108q0 -7 -5 -13q-6 -6 -13 -6h-422z" />
    <glyph glyph-name="period" unicode="." horiz-adv-x="313" 
d="M72 0q-7 0 -13 6q-6 5 -6 12v179q0 7 6 13q6 5 13 5h170q7 0 13 -5q5 -6 5 -13v-179q0 -7 -5 -12q-6 -6 -13 -6h-170z" />
    <glyph glyph-name="slash" unicode="/" horiz-adv-x="651" 
d="M56 -301q-7 0 -11 5q-4 6 -3 13l426 1746q1 7 8 13q7 5 14 5h107q7 0 11 -5q4 -6 3 -13l-425 -1746q-2 -7 -9 -13q-7 -5 -14 -5h-107z" />
    <glyph glyph-name="zero" unicode="0" horiz-adv-x="1145" 
d="M1090 715q0 -176 -37 -314q-38 -139 -105 -233q-68 -95 -164 -145q-97 -50 -213 -50q-115 0 -210 50q-96 50 -163 145t-104 234q-37 138 -37 313q0 179 37 319t104 234t163 143q95 49 212 49q116 0 212 -48q96 -49 164 -143q67 -94 104 -234t37 -320zM254 715
q0 -287 86 -434q85 -148 233 -148q149 0 234 147q84 146 84 435t-85 437t-235 148q-149 0 -233 -147q-84 -148 -84 -438z" />
    <glyph glyph-name="one" unicode="1" horiz-adv-x="672" 
d="M358 0q-7 0 -12 6q-6 5 -6 12l4 639l-2 551q-60 -55 -134 -94q-75 -40 -156 -68q-6 -2 -11 2q-6 4 -6 11v122q0 8 5 16q5 7 12 9q90 34 165 90t125 123q4 7 13 11q8 4 16 4h145q7 0 13 -6q5 -6 5 -13l-4 -719l4 -678q0 -7 -5 -12q-6 -6 -13 -6h-158z" />
    <glyph glyph-name="two" unicode="2" horiz-adv-x="1022" 
d="M78 0q-7 0 -13 6q-6 5 -6 12v170q0 207 116 316q115 108 253 181q138 72 254 144q115 72 115 207q1 59 -16 109t-51 87q-34 36 -86 56q-53 20 -124 19q-132 0 -207 -88q-76 -88 -83 -254q-1 -8 -6 -13q-6 -6 -13 -6h-137q-7 0 -13 6t-6 13q4 236 124 364t343 129
q109 0 193 -29t141 -83t88 -132q30 -78 31 -174q0 -191 -115 -292q-116 -101 -253 -172q-138 -71 -253 -145q-116 -75 -116 -214v-61h708q7 0 13 -6t6 -13v-119q0 -7 -6 -12q-6 -6 -13 -6h-868z" />
    <glyph glyph-name="three" unicode="3" horiz-adv-x="1081" 
d="M1026 426q0 -101 -37 -184t-103 -141q-67 -58 -159 -89q-93 -32 -203 -32q-219 0 -340 115t-136 337q0 7 5 13t12 6h148q7 0 13 -6t6 -13q7 -147 80 -228q73 -82 216 -81q74 0 131 22q57 21 95 60q37 39 57 95q19 55 20 122q2 136 -84 205t-258 69h-65q-7 0 -12 6
q-6 6 -6 13v100q0 7 6 13q5 6 12 6h65q157 0 236 64q78 64 78 171q0 57 -20 102t-54 76q-35 31 -82 48q-48 16 -104 16q-137 0 -209 -73q-73 -73 -83 -216q-1 -7 -7 -12q-6 -6 -13 -6h-145q-7 0 -12 6q-6 5 -6 12q6 106 43 187t100 135q62 54 149 82q86 28 191 28
q94 0 175 -25q81 -26 140 -73q58 -47 92 -115q33 -69 33 -154q0 -66 -19 -117t-52 -89q-34 -39 -79 -65q-46 -27 -98 -43q132 -28 208 -119q75 -92 75 -228z" />
    <glyph glyph-name="four" unicode="4" horiz-adv-x="1081" 
d="M1044 401q0 -7 -5 -12q-6 -6 -13 -6h-135v-365q0 -7 -6 -12q-6 -6 -13 -6h-151q-7 0 -13 6q-6 5 -6 12v365h-647q-7 0 -12 6q-6 5 -6 12v134q0 8 3 17t7 16l569 850q5 7 13 12q8 4 16 4h227q7 0 13 -6t6 -13v-876h135q7 0 13 -6q5 -6 5 -13v-119zM702 1042l7 250
l-502 -753h495v503z" />
    <glyph glyph-name="five" unicode="5" horiz-adv-x="1077" 
d="M1029 520q0 -125 -36 -227q-37 -102 -103 -172q-66 -71 -158 -109q-93 -39 -205 -39q-108 0 -191 29t-141 82q-58 52 -91 127q-34 75 -44 166q-1 7 5 13q5 5 12 5h153q7 0 13 -5q6 -6 7 -13q7 -116 78 -188t199 -72q138 0 220 104q81 103 81 287q0 179 -75 274
q-76 95 -213 95q-110 0 -179 -54q-70 -54 -96 -152q-1 -7 -8 -12q-7 -6 -15 -6h-132q-7 0 -12 6q-6 6 -6 13l49 743q1 7 7 13t13 6h755q7 0 13 -6t6 -13v-119q0 -7 -6 -12q-6 -6 -13 -6h-610l-31 -391q55 69 134 103q78 34 180 34q94 0 175 -35t140 -100q58 -65 92 -159
q33 -94 33 -210z" />
    <glyph glyph-name="six" unicode="6" horiz-adv-x="1104" 
d="M1051 496q0 -110 -36 -206t-100 -166t-153 -110q-89 -41 -193 -41q-118 0 -213 46q-95 45 -160 136q-66 91 -101 230q-36 139 -36 324q0 179 38 320q37 140 105 236q68 95 167 145q98 50 219 50q181 0 286 -90t125 -260q1 -7 -4 -12q-5 -6 -12 -6h-151q-8 0 -14 5t-7 13
q-12 89 -70 147t-166 58q-75 0 -134 -37t-99 -105q-41 -69 -63 -168t-23 -221q51 84 140 129t210 45q99 0 182 -32q82 -32 140 -91q58 -60 91 -146q32 -86 32 -193zM270 483q0 -76 20 -142q19 -66 57 -113q37 -48 91 -75q54 -28 123 -28q137 0 215 93t78 255q-1 76 -19 139
q-19 63 -54 107q-36 44 -89 68t-123 24q-139 0 -219 -87q-80 -88 -80 -241z" />
    <glyph glyph-name="seven" unicode="7" horiz-adv-x="913" 
d="M881 1262q-141 -279 -250 -591t-161 -653q-1 -7 -7 -12q-7 -6 -14 -6h-166q-7 0 -12 6q-5 5 -4 12q29 168 70 336t93 327t116 310q63 151 138 287h-641q-7 0 -12 6q-6 5 -6 12v119q0 7 6 13q5 6 12 6h827q7 0 13 -6t6 -13v-118q0 -9 -2 -18q-3 -10 -6 -17z" />
    <glyph glyph-name="eight" unicode="8" horiz-adv-x="1116" 
d="M1063 397q0 -96 -38 -174q-39 -78 -106 -132q-67 -55 -159 -84q-93 -30 -201 -30q-107 0 -199 30q-93 29 -160 84q-67 54 -105 132t-38 174q0 130 76 228q75 97 209 137q-115 41 -175 126q-60 84 -58 191q1 88 33 159q32 70 91 119q58 49 142 75q83 26 184 26
q103 0 187 -26q83 -26 142 -75q58 -49 91 -119q32 -71 33 -159q0 -50 -15 -98q-16 -48 -46 -89q-31 -41 -76 -75t-103 -55q137 -40 214 -137q77 -98 77 -228zM295 1063q-1 -51 17 -95q18 -45 52 -77q34 -33 84 -51q49 -19 111 -19t112 20q49 20 83 53t53 77q18 44 18 92
q0 60 -19 108q-20 47 -55 80t-84 51q-49 17 -108 17q-116 0 -189 -68q-74 -69 -75 -188zM248 403q-1 -62 21 -114q22 -53 63 -91q40 -38 98 -59q58 -22 129 -22t130 22q58 21 99 59t63 91q22 52 21 114q-1 63 -22 116q-22 53 -61 91q-40 37 -98 58t-132 22q-72 -1 -130 -22
t-97 -58q-40 -38 -61 -91q-22 -53 -23 -116z" />
    <glyph glyph-name="nine" unicode="9" horiz-adv-x="1104" 
d="M252 961q1 -76 20 -138q18 -63 54 -106q35 -44 88 -68t123 -24q139 0 219 87q80 86 80 240q0 76 -19 142q-20 65 -57 113q-38 47 -92 75q-54 27 -123 27q-138 0 -215 -93q-78 -93 -78 -255zM1047 725q0 -179 -37 -319q-38 -141 -106 -236q-68 -96 -166 -146
q-99 -51 -220 -51q-181 0 -286 91q-105 90 -126 262q-1 7 5 13q5 5 12 5h151q7 0 14 -5q6 -6 7 -13q12 -95 72 -150q59 -55 165 -55q76 0 135 36q59 35 100 103q40 67 61 165t22 222q-49 -82 -139 -127t-211 -45q-100 0 -182 32q-83 32 -141 92q-58 59 -90 146
q-32 86 -32 193q0 112 35 209q35 96 98 165t152 109q89 39 197 39q118 0 213 -44q94 -45 160 -135q66 -91 102 -230q35 -139 35 -326z" />
    <glyph glyph-name="colon" unicode=":" horiz-adv-x="322" 
d="M76 840q-7 0 -13 6q-6 5 -6 12v179q0 7 6 13q6 5 13 5h170q7 0 13 -5q5 -6 5 -13v-179q0 -7 -5 -12q-6 -6 -13 -6h-170zM76 0q-7 0 -13 6q-6 5 -6 12v179q0 7 6 13q6 5 13 5h170q7 0 13 -5q5 -6 5 -13v-179q0 -7 -5 -12q-6 -6 -13 -6h-170z" />
    <glyph glyph-name="semicolon" unicode=";" horiz-adv-x="322" 
d="M40 -201q-7 0 -11 5q-4 6 -3 13l51 187v193q0 7 6 13q5 5 12 5h150q7 0 13 -5q5 -6 5 -13v-172q0 -9 -3 -18t-7 -16l-115 -176q-4 -7 -12 -12q-9 -4 -17 -4h-69zM76 840q-7 0 -13 6q-6 5 -6 12v179q0 7 6 13q6 5 13 5h170q7 0 13 -5q5 -6 5 -13v-179q0 -7 -5 -12
q-6 -6 -13 -6h-170z" />
    <glyph glyph-name="less" unicode="&#x3c;" horiz-adv-x="1034" 
d="M979 227q0 -7 -5 -10q-6 -3 -12 0l-888 404q-7 4 -12 11t-5 15v117q0 8 5 16q5 7 12 10l888 407q6 2 12 -1q5 -3 5 -10v-123q0 -8 -5 -15q-5 -8 -12 -11l-753 -330l753 -333q7 -3 12 -10q5 -8 5 -16v-121z" />
    <glyph glyph-name="equal" unicode="=" horiz-adv-x="1034" 
d="M76 868q-7 0 -13 6t-6 13v117q0 7 6 13q6 5 13 5h885q7 0 13 -5q5 -6 5 -13v-117q0 -7 -5 -13q-6 -6 -13 -6h-885zM76 391q-7 0 -13 6t-6 13v116q0 7 6 13t13 6h885q7 0 13 -6q5 -6 5 -13v-116q0 -7 -5 -13q-6 -6 -13 -6h-885z" />
    <glyph glyph-name="greater" unicode="&#x3e;" horiz-adv-x="1034" 
d="M74 217q-6 -3 -11 0q-6 3 -6 10v121q0 8 5 16q5 7 12 10l751 333l-751 330q-7 3 -12 11q-5 7 -5 15v123q0 7 6 10q5 3 11 1l888 -407q7 -3 12 -10q5 -8 5 -16v-117q0 -8 -5 -15t-12 -11z" />
    <glyph glyph-name="question" unicode="?" horiz-adv-x="981" 
d="M409 397q-7 0 -12 6q-6 6 -6 13q4 148 61 238q57 89 123 155q66 65 121 125q54 59 54 147q0 55 -19 98t-53 72q-35 29 -83 44q-49 15 -106 16q-142 1 -208 -71q-67 -72 -74 -216q0 -7 -6 -12q-6 -6 -13 -6h-141q-7 0 -12 6q-6 5 -6 12q11 208 132 318t335 110
q93 0 174 -25q80 -25 139 -73q58 -48 92 -118q33 -71 33 -161q0 -119 -54 -190t-119 -132q-66 -62 -122 -136q-57 -75 -61 -201q-1 -7 -6 -13q-6 -6 -13 -6h-150zM401 0q-7 0 -12 6q-6 5 -6 12v179q0 7 6 13q5 5 12 5h166q7 0 13 -5q6 -6 6 -13v-179q0 -7 -6 -12
q-6 -6 -13 -6h-166z" />
    <glyph glyph-name="at" unicode="@" horiz-adv-x="1700" 
d="M1461 -55q-47 -81 -112 -141t-143 -98q-79 -38 -172 -57q-93 -18 -194 -18q-176 0 -322 61q-147 62 -250 175q-103 114 -160 279q-57 164 -57 368q0 209 57 377q57 167 161 283q103 115 250 177q146 62 323 62q182 0 332 -62t256 -177q105 -116 163 -284t58 -378
q0 -114 -24 -202t-64 -147q-41 -60 -94 -91q-54 -31 -113 -31q-39 0 -81 10t-78 33q-37 23 -65 63q-28 39 -38 97q-46 -98 -129 -155q-84 -58 -197 -58q-97 0 -171 39q-75 38 -125 105q-50 66 -75 158q-26 91 -26 195t27 197q27 92 78 160q50 68 125 108q74 39 169 39
q99 0 176 -42q76 -42 123 -122l-4 127q0 7 6 13q5 6 12 6h136q7 0 13 -6q5 -6 5 -13v-667q0 -55 9 -91t25 -57t38 -29t47 -8q38 0 72 23q33 22 58 68q25 45 40 115q14 70 14 163q0 188 -49 338q-50 149 -140 252q-91 102 -221 157q-130 54 -290 54q-155 0 -281 -55
q-127 -55 -215 -157q-88 -103 -136 -252q-48 -150 -48 -337q0 -182 49 -327q48 -146 136 -246t215 -154q126 -53 280 -53q80 0 154 11t138 36t118 66q53 41 92 100q4 7 12 11q8 5 17 5h81q7 0 10 -6q3 -5 -1 -10zM547 541q0 -86 16 -157t49 -121q32 -50 82 -77
q50 -28 117 -28q121 0 192 92q71 91 72 272t-67 281q-69 99 -193 100q-69 1 -119 -25q-51 -26 -84 -73q-33 -48 -49 -115q-16 -68 -16 -149z" />
    <glyph glyph-name="A" unicode="A" horiz-adv-x="1266" 
d="M868 590l-241 704l-238 -704h479zM1090 0q-8 0 -15 5t-10 12l-141 411h-590l-138 -411q-2 -7 -9 -12t-15 -5h-158q-7 0 -10 6q-4 5 -2 11l502 1399q2 7 10 13q7 5 14 5h213q8 0 15 -5q7 -6 10 -13l498 -1399q2 -6 -2 -11q-4 -6 -11 -6h-161z" />
    <glyph glyph-name="B" unicode="B" horiz-adv-x="1245" 
d="M1186 426q0 -114 -43 -195t-115 -132t-169 -75t-204 -24h-546q-7 0 -13 6q-6 5 -6 12l8 719l-8 678q0 7 6 13t13 6h544q108 0 199 -22q90 -22 155 -65q64 -43 100 -107q36 -65 36 -150q0 -137 -69 -214t-197 -108q160 -38 234 -128t75 -214zM279 829h372q138 0 220 54
q81 53 81 172q0 59 -22 103t-61 73q-40 29 -96 43t-122 14h-364zM287 147h364q75 0 138 15q63 14 108 47q45 32 71 86q25 53 25 129q0 70 -28 120t-75 81q-48 30 -110 45q-62 14 -129 14h-372z" />
    <glyph glyph-name="C" unicode="C" horiz-adv-x="1370" 
d="M1329 506q-20 -136 -72 -237t-130 -166t-182 -97q-104 -33 -226 -33q-157 0 -281 52q-125 51 -210 147q-86 96 -131 235q-46 139 -46 312q0 169 47 307q46 137 133 233q86 96 210 149q124 52 278 52q107 0 205 -26q98 -27 177 -86q78 -59 135 -155q57 -97 82 -235
q1 -7 -3 -12q-5 -6 -12 -6h-152q-7 0 -14 6q-7 5 -8 12q-17 88 -54 154q-37 65 -90 108q-53 42 -121 63q-69 20 -147 20q-112 0 -200 -41q-88 -42 -147 -118q-60 -76 -91 -184q-31 -109 -31 -241q0 -144 32 -255t92 -184q60 -74 147 -111q87 -38 196 -38q178 0 289 97
q111 96 133 278q1 7 7 13q6 5 13 5h156q7 0 12 -5q5 -6 4 -13z" />
    <glyph glyph-name="D" unicode="D" horiz-adv-x="1339" 
d="M111 0q-7 0 -13 6q-6 5 -6 12l8 717l-8 680q0 7 6 13t13 6h452q154 0 287 -46q133 -47 230 -137t153 -224q55 -135 55 -310q0 -183 -59 -318q-59 -136 -157 -224q-99 -88 -230 -131q-131 -44 -275 -44h-456zM283 739q0 -50 1 -147q1 -98 2 -194q1 -97 2 -170t1 -74h295
q95 0 187 32q91 32 162 100t115 175t44 256q0 141 -41 248q-41 106 -110 176q-70 69 -165 104t-201 35h-286q0 -1 -1 -67q-1 -67 -2 -156t-2 -179q-1 -91 -1 -139z" />
    <glyph glyph-name="E" unicode="E" horiz-adv-x="1059" 
d="M109 0q-7 0 -13 6q-6 5 -6 12l8 721l-8 676q0 7 6 13t13 6h866q7 0 13 -6q5 -6 5 -13v-117q0 -7 -5 -12q-6 -6 -13 -6h-688l-8 -438h647q7 0 13 -6q5 -6 5 -13v-116q0 -7 -5 -13q-6 -6 -13 -6h-647l8 -534h704q7 0 13 -6t6 -13v-117q0 -7 -6 -12q-6 -6 -13 -6h-882z" />
    <glyph glyph-name="F" unicode="F" horiz-adv-x="1004" 
d="M109 0q-7 0 -13 6q-6 5 -6 12l8 699l-8 698q0 7 6 13t13 6h841q7 0 13 -6t6 -13v-117q0 -7 -6 -12q-6 -6 -13 -6h-663l-8 -502h636q7 0 13 -5q6 -6 6 -13v-117q0 -7 -6 -12q-6 -6 -13 -6h-636l7 -607q1 -7 -5 -12q-6 -6 -13 -6h-159z" />
    <glyph glyph-name="G" unicode="G" horiz-adv-x="1391" 
d="M1342 727q1 -183 -39 -324q-41 -142 -121 -237t-199 -144q-120 -49 -274 -49q-144 0 -265 53q-122 53 -208 150q-87 97 -136 235t-49 306q0 171 49 309q48 138 135 234q86 96 207 148q120 52 263 52q119 0 219 -30q100 -31 176 -90t129 -146t78 -199q1 -7 -3 -12
q-5 -6 -12 -6h-157q-8 0 -14 5q-7 5 -9 13q-37 151 -143 231q-106 79 -264 79q-103 0 -188 -40q-85 -41 -144 -117q-60 -76 -92 -186q-33 -110 -33 -247q0 -135 34 -244q33 -109 93 -184q60 -76 146 -117t190 -41q103 0 183 33q80 32 135 93q54 60 83 147q28 86 29 192h-430
q-7 0 -13 6q-6 5 -6 12v115q0 7 6 13q6 5 13 5h612q7 0 13 -5q6 -6 6 -13z" />
    <glyph glyph-name="H" unicode="H" horiz-adv-x="1327" 
d="M1057 0q-7 0 -13 6q-6 5 -5 12l8 674h-766l6 -674q0 -7 -6 -12q-6 -6 -13 -6h-159q-7 0 -13 6q-6 5 -6 12l8 691l-8 706q0 7 6 13t13 6h159q7 0 13 -6t6 -13l-4 -569h761l-5 569q-1 7 5 13t13 6h160q7 0 13 -6q5 -6 5 -13l-8 -706l8 -691q0 -7 -5 -12q-6 -6 -13 -6h-160z
" />
    <glyph glyph-name="I" unicode="I" horiz-adv-x="397" 
d="M122 0q-7 0 -13 6q-6 5 -5 12l8 711l-8 686q0 7 6 13q5 6 12 6h158q7 0 13 -6q5 -6 5 -13l-8 -686l8 -711q0 -7 -5 -12q-6 -6 -13 -6h-158z" />
    <glyph glyph-name="J" unicode="J" horiz-adv-x="977" 
d="M901 508q1 -263 -106 -400t-332 -137q-111 0 -192 36q-82 36 -135 103t-79 164t-28 218q0 7 6 13q5 5 12 5h147q7 0 13 -5q6 -6 6 -13q1 -83 14 -150q12 -68 41 -114q29 -47 77 -72q47 -25 118 -25q73 0 122 26q48 25 76 74q27 48 39 119q11 70 11 160l2 426l-6 479
q0 7 6 13q5 6 12 6h164q7 0 13 -6q5 -6 5 -13l-6 -479v-428z" />
    <glyph glyph-name="K" unicode="K" horiz-adv-x="1133" 
d="M760 227l-318 482l-159 -195l4 -496q0 -7 -6 -12q-6 -6 -13 -6h-157q-7 0 -13 6q-6 5 -6 12l6 717l-6 680q0 7 6 13t13 6h157q7 0 13 -6t6 -13l-6 -676l529 680q5 7 14 11q8 4 16 4h190q6 0 9 -5q2 -6 -2 -10l-470 -559l566 -845q3 -4 0 -9q-3 -6 -9 -6h-198q-8 0 -16 4
q-9 4 -13 11z" />
    <glyph glyph-name="L" unicode="L" horiz-adv-x="952" 
d="M111 0q-7 0 -13 6q-6 5 -6 12l8 732l-8 665q0 7 6 13t13 6h157q7 0 13 -6t6 -13l-6 -655l6 -606h633q7 0 13 -6q5 -6 5 -13v-117q0 -7 -5 -12q-6 -6 -13 -6h-809z" />
    <glyph glyph-name="M" unicode="M" horiz-adv-x="1599" 
d="M266 614l2 -596q0 -7 -5 -12q-6 -6 -13 -6h-141q-7 0 -13 6q-6 5 -6 12l8 687l-6 710q0 7 6 13t13 6h221q7 0 15 -5q7 -6 10 -13l456 -1176l444 1176q3 7 10 13q7 5 15 5h207q7 0 13 -6q5 -6 5 -13l-6 -710l6 -687q0 -7 -5 -12q-6 -6 -13 -6h-156q-7 0 -12 6q-6 5 -6 12
l2 596l4 381l4 183l-442 -1161q-3 -7 -10 -12t-15 -5h-117q-7 0 -14 5q-8 5 -11 12l-458 1173l4 -199z" />
    <glyph glyph-name="N" unicode="N" horiz-adv-x="1339" 
d="M272 653l2 -635q0 -7 -5 -12q-6 -6 -13 -6h-147q-7 0 -13 6q-6 5 -6 12l8 709l-6 688q0 7 6 13t13 6h186q8 0 16 -4q8 -5 12 -12l750 -1176l-2 123l-4 399l-2 651q0 7 6 13q5 6 12 6h146q7 0 13 -6q5 -6 5 -13l-8 -688l6 -709q0 -7 -5 -12q-6 -6 -13 -6h-195q-8 0 -16 5
q-8 4 -12 11l-742 1155l4 -139z" />
    <glyph glyph-name="O" unicode="O" horiz-adv-x="1470" 
d="M1421 715q0 -168 -49 -305q-50 -138 -139 -234q-90 -97 -217 -150t-281 -53t-281 54q-127 53 -216 150q-89 96 -138 234q-49 137 -49 304q0 171 49 310q49 138 138 235q89 96 216 148t281 52t282 -52q127 -52 217 -148q89 -96 138 -234q49 -139 49 -311zM248 715
q0 -135 34 -244q33 -109 96 -184q62 -75 153 -115q91 -41 204 -41q114 0 205 40t154 115t97 184t34 245t-34 246q-34 109 -97 185q-63 75 -154 116t-205 41q-115 0 -205 -40q-91 -41 -153 -116q-63 -76 -96 -185q-33 -110 -33 -247z" />
    <glyph glyph-name="P" unicode="P" horiz-adv-x="1126" 
d="M1087 997q0 -112 -36 -196q-36 -85 -102 -141t-159 -84q-94 -29 -208 -29h-299l4 -529q0 -7 -6 -12q-6 -6 -13 -6h-159q-7 0 -13 6q-6 5 -6 12l8 717l-8 680q0 7 6 13t13 6h469q118 0 213 -28q94 -28 160 -82q65 -55 101 -137q35 -82 35 -190zM281 727v-29h311
q69 0 126 16t98 52q40 35 63 92q22 56 22 135q0 147 -83 218t-234 71h-299z" />
    <glyph glyph-name="Q" unicode="Q" horiz-adv-x="1475" 
d="M1436 18q0 -7 -6 -12q-6 -6 -13 -6h-481q-48 -13 -99 -20t-106 -7q-154 0 -280 54q-127 53 -216 150q-90 96 -139 234q-49 137 -49 304q0 171 49 310q49 138 138 235q89 96 217 148q127 52 282 52q154 0 281 -52q126 -52 216 -148q89 -96 138 -234q49 -139 49 -311
q0 -176 -54 -318q-55 -143 -153 -241l56 4h151q7 0 13 -6t6 -13v-123zM244 715q0 -135 34 -244t97 -184t154 -115q91 -41 204 -41t204 40t154 115q62 75 96 184t34 245t-33 246q-34 109 -97 185q-63 75 -154 116t-206 41q-114 0 -204 -40q-91 -41 -153 -116
q-63 -76 -96 -185q-34 -110 -34 -247z" />
    <glyph glyph-name="R" unicode="R" horiz-adv-x="1200" 
d="M950 1008q0 136 -85 205t-236 69h-344l-6 -547h352q71 0 130 16q59 15 101 48t65 85t23 124zM807 248l-219 338h-307l6 -568q0 -7 -6 -12q-6 -6 -13 -6h-159q-7 0 -13 6q-6 5 -6 12l8 719l-8 678q0 7 6 13t13 6h501q122 0 221 -26q98 -27 166 -80q67 -53 104 -132
q36 -80 36 -184q0 -172 -94 -275t-255 -135l376 -586q3 -5 0 -10q-3 -6 -9 -6h-184q-8 0 -16 5q-8 4 -12 11z" />
    <glyph glyph-name="S" unicode="S" horiz-adv-x="1235" 
d="M1193 420q0 -110 -41 -194t-114 -139q-73 -56 -175 -84q-103 -28 -225 -28q-136 0 -244 33q-109 32 -184 95q-76 63 -118 157q-42 93 -47 215q-1 7 5 13q5 6 12 6h160q7 0 13 -6t7 -13q7 -80 32 -144q24 -65 71 -109q47 -45 121 -69q73 -24 178 -24q79 0 146 15t115 48
q48 32 75 83q27 50 27 120q0 148 -146 192q-147 44 -321 78t-320 107q-147 73 -147 277q0 98 38 175q38 76 107 128q68 52 166 79q97 27 215 27q122 0 221 -26q99 -27 171 -80q71 -53 115 -134q43 -82 55 -192q1 -7 -4 -12q-6 -6 -13 -6h-162q-7 0 -13 6q-6 5 -7 12
q-12 137 -104 207t-265 70q-74 0 -136 -14t-105 -43q-44 -29 -68 -74q-25 -45 -25 -105q0 -138 147 -178q146 -40 320 -73q174 -34 321 -110q146 -77 146 -286z" />
    <glyph glyph-name="T" unicode="T" horiz-adv-x="1063" 
d="M451 0q-7 0 -13 6q-6 5 -6 12l10 693l-8 569h-397q-7 0 -13 6q-6 5 -6 12v117q0 7 6 13t13 6h989q7 0 13 -6q5 -6 5 -13v-117q0 -7 -5 -12q-6 -6 -13 -6h-395l-8 -569l10 -693q0 -7 -6 -12q-6 -6 -13 -6h-163z" />
    <glyph glyph-name="U" unicode="U" horiz-adv-x="1210" 
d="M1135 543q0 -135 -32 -241q-33 -107 -98 -179q-66 -73 -165 -111q-100 -39 -232 -39t-232 39q-101 38 -167 111q-66 72 -99 179q-34 106 -34 241l2 446l-6 426q0 7 6 13q5 6 12 6h162q7 0 13 -6q5 -6 5 -13l-4 -422v-450q0 -91 20 -166q19 -76 60 -129q41 -54 106 -83
q65 -30 156 -30q93 0 160 30q67 29 109 83q42 53 62 129q19 75 19 166v446l-3 426q-1 7 5 13t13 6h147q7 0 13 -6t6 -13l-4 -426v-446z" />
    <glyph glyph-name="V" unicode="V" horiz-adv-x="1233" 
d="M747 17q-2 -7 -9 -12t-15 -5h-207q-8 0 -15 5t-9 12l-490 1399q-2 7 2 13q3 5 10 5h174q8 0 15 -5q7 -6 10 -13l418 -1262l412 1262q2 7 9 13q7 5 15 5h152q7 0 11 -5q3 -6 1 -13z" />
    <glyph glyph-name="W" unicode="W" horiz-adv-x="1782" 
d="M1197 0q-7 0 -14 6q-7 5 -9 12l-288 1156l-275 -1156q-1 -7 -8 -12q-7 -6 -14 -6h-193q-7 0 -14 6q-7 5 -9 12l-357 1398q-1 7 3 13q4 5 11 5h155q8 0 15 -5q7 -6 8 -13l295 -1217l280 1217q2 7 9 13q6 5 14 5h182q8 0 15 -5q6 -6 8 -13l284 -1226l295 1226q1 7 8 13
q7 5 15 5h143q7 0 11 -5q4 -6 3 -13l-364 -1398q-1 -7 -8 -12q-7 -6 -15 -6h-186z" />
    <glyph glyph-name="X" unicode="X" horiz-adv-x="1204" 
d="M985 0q-8 0 -16 5q-8 4 -12 11l-361 586l-365 -586q-4 -7 -12 -11q-8 -5 -16 -5h-176q-7 0 -9 6q-3 5 0 10l471 742l-428 660q-3 5 0 11q2 5 9 5h192q8 0 16 -4q8 -5 12 -12l316 -505l314 505q4 7 12 12q8 4 16 4h176q7 0 10 -5q2 -6 -1 -11l-420 -666l473 -736
q4 -5 1 -10q-3 -6 -9 -6h-193z" />
    <glyph glyph-name="Y" unicode="Y" horiz-adv-x="1137" 
d="M664 18q0 -7 -5 -12q-6 -6 -13 -6h-160q-7 0 -12 6q-6 5 -6 12l6 484l-471 915q-3 6 1 12q3 5 9 5h181q7 0 15 -5q7 -5 11 -12l356 -743l359 743q4 7 12 12q7 5 15 5h163q7 0 10 -5q3 -6 0 -12l-477 -923z" />
    <glyph glyph-name="Z" unicode="Z" horiz-adv-x="1141" 
d="M1098 18q0 -7 -6 -12q-6 -6 -13 -6h-1018q-7 0 -12 6q-6 5 -6 12v132q0 8 3 17t8 16l806 1097h-745q-7 0 -13 6q-6 5 -6 12v117q0 7 6 13t13 6h954q7 0 13 -6q5 -6 5 -13v-135q0 -8 -3 -17t-7 -16l-803 -1093h805q7 0 13 -6t6 -13v-117z" />
    <glyph glyph-name="bracketleft" unicode="[" horiz-adv-x="492" 
d="M102 -287q-7 0 -12 6q-6 6 -6 13v1745q0 7 6 13q5 5 12 5h320q7 0 13 -5q5 -6 5 -13v-117q0 -7 -5 -13q-6 -6 -13 -6h-172v-1474h172q7 0 13 -6q5 -6 5 -13v-116q0 -7 -5 -13q-6 -6 -13 -6h-320z" />
    <glyph glyph-name="backslash" unicode="\" horiz-adv-x="651" 
d="M490 -301q-7 0 -14 5q-7 6 -8 13l-426 1746q-1 7 3 13q4 5 11 5h107q7 0 14 -5q7 -6 9 -13l425 -1746q1 -7 -3 -13q-4 -5 -11 -5h-107z" />
    <glyph glyph-name="bracketright" unicode="]" horiz-adv-x="492" 
d="M70 -287q-7 0 -13 6t-6 13v116q0 7 6 13t13 6h170v1474h-170q-7 0 -13 6t-6 13v117q0 7 6 13q6 5 13 5h319q7 0 13 -5q6 -6 6 -13v-1745q0 -7 -6 -13t-13 -6h-319z" />
    <glyph glyph-name="asciicircum" unicode="^" horiz-adv-x="1020" 
d="M849 567q-8 0 -15 5q-8 5 -11 12l-312 690l-314 -690q-3 -7 -10 -12q-8 -5 -16 -5h-113q-7 0 -10 6q-3 5 0 11l388 833q3 7 11 12q7 5 15 5h96q8 0 16 -5q7 -5 10 -12l388 -833q3 -6 0 -11q-4 -6 -10 -6h-113z" />
    <glyph glyph-name="underscore" unicode="_" horiz-adv-x="799" 
d="M49 -348q-7 0 -12 5q-6 6 -6 13v109q0 7 6 12q5 6 12 6h701q7 0 13 -6q5 -5 5 -12v-109q0 -7 -5 -13q-6 -5 -13 -5h-701z" />
    <glyph glyph-name="grave" unicode="`" horiz-adv-x="1024" 
d="M688 1168q-3 -7 -10 -10t-14 -1l-453 160q-7 2 -10 9t-1 14l41 115q2 7 9 10t14 0l439 -208q7 -3 10 -10q3 -8 0 -15z" />
    <glyph glyph-name="a" unicode="a" horiz-adv-x="1083" 
d="M236 539q0 -94 18 -172t54 -133q36 -56 91 -86q55 -31 129 -31q137 0 216 101q78 101 79 300q1 190 -68 300q-70 109 -197 119q-6 1 -21 1h-23q-71 -3 -123 -33q-53 -31 -87 -83t-51 -124q-17 -73 -17 -159zM834 0q-7 0 -13 6q-6 5 -5 12l3 152q-53 -89 -138 -139
q-85 -51 -200 -51q-106 0 -188 43q-82 42 -136 115q-55 73 -83 173q-29 99 -29 213t30 215t86 175t138 118q82 43 186 43q112 0 197 -46q84 -47 135 -134l-3 141q-1 7 5 13q5 6 12 6h152q7 0 13 -6q5 -6 5 -13l-6 -499l6 -519q0 -7 -5 -12q-6 -6 -13 -6h-149z" />
    <glyph glyph-name="b" unicode="b" horiz-adv-x="1083" 
d="M1036 530q0 -114 -29 -214q-30 -101 -85 -175q-56 -75 -138 -118t-186 -43q-113 0 -197 47q-85 47 -137 137l4 -146q0 -7 -5 -12q-6 -6 -13 -6h-152q-7 0 -12 6q-6 5 -6 12l6 768l-6 629q0 7 6 13q5 6 12 6h154q7 0 13 -6q5 -6 5 -13l-4 -524q54 86 139 135q84 49 195 49
q106 0 188 -42t137 -115t83 -173t28 -215zM258 539q-1 -199 75 -309q76 -111 216 -111q76 -1 133 29q56 29 93 82q36 52 55 126q18 74 18 162q0 93 -18 171t-54 133q-36 54 -92 85q-56 30 -131 29q-133 0 -213 -100q-81 -100 -82 -297z" />
    <glyph glyph-name="c" unicode="c" horiz-adv-x="1036" 
d="M1000 379q-8 -87 -43 -161q-35 -75 -94 -128q-59 -54 -141 -84q-82 -31 -183 -31q-118 0 -210 40q-93 39 -155 111q-63 71 -96 173q-33 101 -33 225t33 227q33 102 96 175t157 113q93 40 212 40q97 0 176 -27t136 -75q56 -49 90 -117q34 -69 43 -152q1 -7 -4 -12
q-6 -6 -13 -6h-135q-8 0 -14 6q-7 5 -8 12q-20 115 -92 174q-73 58 -179 58q-154 0 -229 -109q-76 -109 -76 -305q0 -200 76 -306q75 -106 229 -107q118 0 194 69t89 197q1 7 7 13q6 5 13 5h137q7 0 13 -5q5 -6 4 -13z" />
    <glyph glyph-name="d" unicode="d" horiz-adv-x="1083" 
d="M236 539q0 -95 18 -173q18 -79 54 -134q36 -56 91 -86q55 -31 129 -31q135 0 215 102q79 101 80 301q1 199 -75 311t-216 113q-75 1 -131 -29t-92 -83q-37 -53 -55 -128t-18 -163zM831 0q-7 0 -12 6q-6 5 -5 12l3 148q-51 -87 -137 -136q-86 -50 -199 -50q-106 0 -188 42
t-136 115q-55 73 -83 173q-29 99 -29 214q0 114 30 215t86 175t138 118q82 43 186 43q109 0 193 -45q83 -45 137 -131l-2 516q0 7 6 13q5 6 12 6h152q7 0 13 -6q5 -6 5 -13l-4 -620l4 -777q0 -7 -5 -12q-6 -6 -13 -6h-152z" />
    <glyph glyph-name="e" unicode="e" horiz-adv-x="1073" 
d="M996 367q7 0 12 -6q4 -6 3 -13q-12 -81 -48 -149q-36 -69 -94 -118q-58 -50 -138 -78q-81 -28 -182 -28q-122 0 -217 41t-158 114q-63 72 -96 173t-33 221q0 123 35 226q34 102 98 175q63 73 155 114q92 40 206 40t205 -38q91 -39 154 -110q62 -72 96 -176t36 -235
q0 -7 -5 -12q-6 -6 -13 -6h-779q5 -190 85 -289q79 -100 233 -100q116 0 187 60q70 60 94 175q1 8 8 14q7 5 14 5h142zM829 633q-2 63 -21 120q-20 56 -55 99q-36 42 -89 67q-54 25 -123 25q-130 0 -206 -81q-76 -82 -95 -230h589z" />
    <glyph glyph-name="f" unicode="f" horiz-adv-x="659" 
d="M379 475l6 -457q0 -7 -5 -12q-6 -6 -13 -6h-158q-7 0 -12 6q-6 5 -6 12l6 457v436h-148q-7 0 -12 6q-6 6 -6 13v106q0 7 6 13q5 6 12 6h148v92q0 86 24 146t63 97t89 54q50 16 100 16q36 0 73 -4q36 -4 65 -10q7 -1 13 -8q5 -7 5 -14v-105q0 -7 -5 -11q-6 -4 -13 -3
q-22 6 -46 9t-51 3q-63 0 -99 -42q-36 -43 -36 -142v-78h229q7 0 13 -6t6 -13v-106q0 -7 -6 -13t-13 -6h-229v-436z" />
    <glyph glyph-name="g" unicode="g" horiz-adv-x="1079" 
d="M233 537q0 -190 77 -294q77 -105 227 -104q128 0 207 95q78 94 79 288q1 187 -68 296q-70 109 -197 119q-6 1 -21 1h-23q-69 -3 -122 -32q-53 -30 -88 -82t-53 -125t-18 -162zM997 72q1 -226 -121 -350q-123 -123 -348 -123q-90 -1 -169 17q-80 19 -140 59
q-61 40 -99 102t-45 147q-1 7 5 13q5 6 12 6h147q8 0 14 -6q6 -5 7 -13q15 -97 89 -144q74 -46 183 -46q132 0 212 81q79 81 79 259v116q-50 -87 -133 -135q-84 -49 -194 -49t-195 40q-85 39 -141 109q-57 70 -86 167q-29 96 -29 208t30 211q29 99 86 172q56 73 139 116
q83 42 189 42q110 0 195 -46q84 -47 135 -134l-5 145q-1 7 5 13q5 6 12 6h150q7 0 13 -6q5 -6 5 -13l-4 -403z" />
    <glyph glyph-name="h" unicode="h" horiz-adv-x="1038" 
d="M780 653q0 74 -16 127q-17 53 -46 87q-29 33 -69 49q-41 16 -88 16q-102 0 -183 -79q-82 -80 -116 -220l6 -615q0 -7 -5 -12q-6 -6 -13 -6h-150q-7 0 -12 6q-6 5 -6 12l6 709l-6 688q0 7 6 13q5 6 12 6h150q7 0 13 -6q5 -6 5 -13l-4 -530q25 40 59 76q33 35 76 62
q42 26 94 41t113 15q83 0 151 -26q67 -27 113 -80q46 -54 71 -137q25 -84 24 -197l-2 -213l5 -408q1 -7 -5 -12q-6 -6 -13 -6h-155q-7 0 -13 6q-6 5 -6 12l6 406z" />
    <glyph glyph-name="i" unicode="i" horiz-adv-x="371" 
d="M109 0q-7 0 -13 6q-6 5 -6 12l4 525l-4 493q0 7 6 13t13 6h153q7 0 13 -6t5 -13l-4 -491l4 -527q1 -7 -5 -12q-6 -6 -13 -6h-153zM108 1176q-7 0 -12 6q-6 5 -6 12v168q0 7 6 13q5 5 12 5h154q7 0 13 -5q5 -6 5 -13v-168q0 -7 -5 -12q-6 -6 -13 -6h-154z" />
    <glyph glyph-name="j" unicode="j" horiz-adv-x="371" 
d="M109 -348q-7 0 -13 5q-6 6 -6 13l4 670l-4 696q0 7 6 13t13 6h153q7 0 13 -6t5 -13l-4 -696l4 -670q1 -7 -5 -13q-6 -5 -13 -5h-153zM108 1176q-7 0 -12 6q-6 5 -6 12v168q0 7 6 13q5 5 12 5h154q7 0 13 -5q5 -6 5 -13v-168q0 -7 -5 -12q-6 -6 -13 -6h-154z" />
    <glyph glyph-name="k" unicode="k" horiz-adv-x="926" 
d="M621 170l-226 367l-131 -148l4 -371q0 -7 -5 -12q-6 -6 -13 -6h-152q-7 0 -12 6q-6 5 -6 12l8 693l-8 704q0 7 6 13q5 6 12 6h152q7 0 13 -6q5 -6 5 -13l-6 -700v-115l399 441q6 6 15 10q8 4 16 4h176q6 0 8 -5t-2 -9l-346 -369l390 -656q4 -5 1 -10q-3 -6 -10 -6h-178
q-8 0 -15 5q-8 4 -12 11z" />
    <glyph glyph-name="l" unicode="l" horiz-adv-x="369" 
d="M109 0q-7 0 -13 6q-6 5 -6 12l8 707l-8 690q0 7 6 13t13 6h151q7 0 13 -6q5 -6 5 -13l-8 -688l8 -709q0 -7 -5 -12q-6 -6 -13 -6h-151z" />
    <glyph glyph-name="m" unicode="m" horiz-adv-x="1626" 
d="M268 412l6 -394q0 -7 -5 -12q-6 -6 -13 -6h-158q-7 0 -12 6q-6 5 -6 12l6 394l-4 624q0 7 6 13q5 6 12 6h148q7 0 13 -6q5 -6 5 -13l-6 -159q25 41 57 78t72 65q39 27 89 43q49 16 108 16q113 0 192 -54q78 -54 113 -167q55 107 138 164q82 57 194 57q154 0 242 -102
q87 -102 87 -315v-250l4 -394q0 -7 -5 -12q-6 -6 -13 -6h-156q-7 0 -12 6q-6 5 -6 12l6 394v241q0 147 -55 212q-56 65 -148 65q-84 0 -151 -72q-67 -73 -101 -203v-243l4 -394q0 -7 -5 -12q-6 -6 -13 -6h-153q-7 0 -13 6q-6 5 -6 12l4 394v241q0 147 -55 212t-148 65
q-91 0 -161 -84q-70 -85 -101 -236v-198z" />
    <glyph glyph-name="n" unicode="n" horiz-adv-x="1040" 
d="M100 0q-7 0 -12 6q-6 5 -6 12l6 463l-4 555q0 7 6 13q5 6 12 6h146q7 0 13 -6q5 -6 5 -13l-6 -159q25 40 60 77q34 36 78 64t98 45q53 16 116 16q81 0 147 -27q65 -27 111 -79q45 -52 70 -130q25 -79 25 -181v-211l4 -433q0 -7 -6 -12q-6 -6 -13 -6h-151q-7 0 -13 6
q-6 5 -6 12l4 433v202q0 143 -62 210q-63 67 -161 67q-104 0 -182 -82t-109 -238v-159l2 -433q0 -7 -5 -12q-6 -6 -13 -6h-154z" />
    <glyph glyph-name="o" unicode="o" horiz-adv-x="1092" 
d="M1047 528q0 -124 -33 -226t-96 -174q-64 -73 -157 -113q-94 -40 -214 -40q-119 0 -213 40q-94 39 -157 111q-63 71 -96 173q-34 101 -34 225q0 125 34 228q33 102 96 175q63 72 157 112t213 40q120 0 214 -39q93 -40 157 -112q63 -72 96 -174t33 -226zM238 524
q0 -197 78 -304q77 -107 231 -107t231 107q76 107 76 304t-77 308q-77 110 -230 110q-156 -1 -232 -111q-77 -110 -77 -307z" />
    <glyph glyph-name="p" unicode="p" horiz-adv-x="1083" 
d="M258 537q-1 -199 75 -309q76 -111 216 -111q76 0 133 30q57 29 94 82q36 52 54 126q18 73 18 161q0 94 -18 172t-54 134q-36 55 -92 86q-56 30 -131 30q-134 0 -214 -102t-81 -299zM1036 530q0 -114 -29 -214q-30 -101 -85 -175q-56 -75 -138 -118t-186 -43
q-110 0 -194 46q-84 45 -136 132l4 -488q0 -7 -5 -13q-6 -5 -13 -5h-156q-7 0 -12 5q-6 6 -6 13l6 789l-6 577q0 7 6 13q5 6 12 6h152q7 0 13 -6q5 -6 5 -13l-4 -151q52 89 138 140q85 50 198 50q106 0 188 -42t137 -115t83 -173t28 -215z" />
    <glyph glyph-name="q" unicode="q" horiz-adv-x="1083" 
d="M1001 -330q0 -7 -5 -13q-6 -5 -13 -5h-152q-7 0 -12 5q-6 6 -6 13l2 492q-54 -84 -138 -132t-196 -48q-106 0 -188 42t-136 115q-55 72 -83 172q-29 99 -29 213t30 215t86 175t138 118q82 43 186 43q112 0 197 -46q84 -47 135 -134l-3 141q-1 7 5 13q5 6 12 6h152
q7 0 13 -6q5 -6 5 -13l-6 -622zM236 537q0 -93 18 -170q18 -78 54 -132q36 -55 91 -85q55 -31 129 -31q135 0 215 100q79 100 80 297q1 199 -75 311q-76 111 -216 111q-74 0 -129 -28q-56 -29 -93 -81q-37 -53 -55 -127q-19 -74 -19 -165z" />
    <glyph glyph-name="r" unicode="r" horiz-adv-x="715" 
d="M98 0q-7 0 -12 6q-6 5 -6 12l6 521l-6 497q0 7 6 13q5 6 12 6h152q7 0 13 -6q5 -6 5 -13l-8 -178q57 101 153 154q95 53 205 53q16 0 33 -1q16 -2 29 -5q7 -1 13 -8q5 -7 5 -14v-114q0 -7 -5 -12q-6 -5 -13 -4q-12 2 -27 3q-16 1 -32 1q-67 0 -128 -20q-61 -21 -108 -63
t-78 -106q-32 -64 -41 -151l2 -553q0 -7 -5 -12q-6 -6 -13 -6h-152z" />
    <glyph glyph-name="s" unicode="s" horiz-adv-x="999" 
d="M956 303q0 -77 -34 -138t-92 -102q-59 -42 -140 -64q-82 -22 -176 -22q-104 0 -190 23t-147 69t-96 116q-35 69 -38 161q0 7 6 13q5 6 12 6h143q8 0 14 -6q5 -6 6 -13q5 -123 81 -181q75 -59 215 -59q116 0 187 48t71 135q0 103 -111 131q-112 28 -244 52t-243 81
q-112 56 -112 215q0 76 30 134t84 97q54 38 131 58t170 20q91 0 170 -19q78 -20 136 -59q58 -40 93 -101t41 -142q0 -7 -5 -13t-12 -6h-137q-8 0 -14 6q-6 5 -7 13q-10 99 -82 147q-72 47 -185 47q-107 0 -171 -41q-64 -42 -64 -129q0 -98 112 -123q111 -25 243 -48t244 -82
q111 -59 111 -224z" />
    <glyph glyph-name="t" unicode="t" horiz-adv-x="641" 
d="M612 30q0 -7 -5 -14t-12 -9q-32 -10 -70 -18q-38 -7 -74 -7q-57 0 -109 16t-90 52q-39 36 -61 96q-23 59 -23 145v618h-117q-7 0 -12 6q-6 6 -6 13v108q0 7 6 13q5 6 12 6h117l-2 245q0 7 6 13q5 6 12 6h152q7 0 13 -6q5 -6 5 -13l-2 -245h242q7 0 13 -6q5 -6 5 -13v-108
q0 -7 -5 -13q-6 -6 -13 -6h-242v-614q0 -95 33 -130q33 -36 100 -36q31 0 60 4q28 4 50 9q7 2 12 -2t5 -11v-99z" />
    <glyph glyph-name="u" unicode="u" horiz-adv-x="1040" 
d="M780 180q-24 -40 -58 -77q-34 -38 -77 -66q-44 -28 -98 -45t-117 -17q-81 0 -147 27t-111 80q-46 52 -71 131t-25 182v209l-4 432q0 7 6 13q5 6 12 6h154q7 0 13 -6q5 -6 5 -13l-4 -432v-203q0 -142 62 -209t161 -67q102 0 181 82t110 237v160l-4 432q0 7 6 13q5 6 12 6
h156q7 0 13 -6q5 -6 5 -13l-6 -463l4 -555q0 -7 -5 -12q-6 -6 -13 -6h-145q-7 0 -13 6q-6 5 -5 12z" />
    <glyph glyph-name="v" unicode="v" horiz-adv-x="985" 
d="M614 15q-3 -7 -10 -12q-8 -5 -15 -5h-189q-7 0 -14 5q-8 5 -10 12l-377 1022q-2 7 2 13q3 5 10 5h166q8 0 15 -5q7 -6 9 -13l298 -881l305 881q2 7 10 13q7 5 14 5h144q7 0 11 -5q3 -6 1 -13z" />
    <glyph glyph-name="w" unicode="w" horiz-adv-x="1430" 
d="M955 0q-7 0 -14 6q-7 5 -9 12l-222 881l-201 -881q-1 -7 -8 -12q-7 -6 -15 -6h-178q-7 0 -14 6q-7 5 -9 12l-273 1019q-1 7 3 13q4 5 11 5h151q8 0 15 -5q6 -6 8 -13l204 -879l203 879q1 7 8 13q7 5 15 5h186q7 0 14 -5q7 -6 9 -13l209 -867l198 867q1 7 8 13q7 5 15 5
h135q7 0 11 -5q4 -6 3 -13l-257 -1019q-2 -7 -9 -12q-7 -6 -14 -6h-183z" />
    <glyph glyph-name="x" unicode="x" horiz-adv-x="950" 
d="M757 0q-8 0 -16 5q-8 4 -12 11l-261 426l-261 -426q-4 -7 -12 -11q-8 -5 -16 -5h-158q-6 0 -9 6q-3 5 1 10l340 541l-313 482q-4 5 -1 11q3 5 9 5h174q8 0 16 -4q8 -5 12 -12l236 -386l229 386q4 7 12 12q7 4 15 4h154q6 0 9 -5q3 -6 0 -11l-304 -486l338 -537
q4 -5 1 -10q-3 -6 -9 -6h-174z" />
    <glyph glyph-name="y" unicode="y" horiz-adv-x="954" 
d="M479 -331q-2 -7 -9 -12q-8 -5 -15 -5h-142q-7 0 -10 5q-4 6 -2 12l113 329l-413 1040q-3 6 1 12q3 5 10 5h174q8 0 16 -5q7 -6 9 -13l299 -795l252 795q3 7 10 13q7 5 14 5h156q7 0 11 -5q3 -6 1 -13z" />
    <glyph glyph-name="z" unicode="z" horiz-adv-x="922" 
d="M877 18q0 -7 -6 -12q-6 -6 -13 -6h-792q-7 0 -13 6q-6 5 -6 12v109q0 8 3 17t8 16l565 749h-514q-7 0 -13 6t-6 13v108q0 7 6 13t13 6h725q7 0 13 -6q5 -6 5 -13v-108q0 -8 -3 -17t-8 -16l-571 -750h588q7 0 13 -5q6 -6 6 -13v-109z" />
    <glyph glyph-name="braceleft" unicode="{" horiz-adv-x="512" 
d="M461 -268q0 -7 -6 -13t-13 -6h-59q-90 0 -149 30q-60 30 -89 84t-29 130q0 77 27 170l72 252q9 30 14 57t-1 48q-6 20 -25 32q-20 12 -58 12h-34q-7 0 -13 6t-6 13v115q0 7 6 13q6 5 13 5h34q38 0 58 12q19 12 25 33q6 20 1 48q-5 27 -14 56l-80 279q-28 90 -22 162
t40 122q33 49 92 76t138 27h59q7 0 13 -5q6 -6 6 -13v-117q0 -7 -6 -13t-13 -6h-57q-76 0 -99 -53t15 -180l80 -279q23 -75 3 -136q-21 -61 -103 -89q41 -15 66 -39t36 -53q11 -30 10 -64q-1 -35 -12 -69l-72 -254q-43 -147 -21 -203q22 -55 97 -55h57q7 0 13 -6t6 -13v-116
z" />
    <glyph glyph-name="bar" unicode="|" horiz-adv-x="268" 
d="M80 -287q-7 0 -13 6t-6 13v1745q0 7 6 13q6 5 13 5h108q7 0 13 -5q6 -6 6 -13v-1745q0 -7 -6 -13t-13 -6h-108z" />
    <glyph glyph-name="braceright" unicode="}" horiz-adv-x="512" 
d="M379 127q28 -93 29 -170q0 -76 -29 -130t-89 -84t-151 -30h-59q-7 0 -13 6t-6 13v116q0 7 6 13t13 6h57q77 0 99 55q21 56 -23 203l-72 254q-10 34 -10 69q-1 34 10 64q11 29 36 53q24 24 65 39q-83 28 -103 89t2 136l80 279q38 127 16 180q-23 53 -100 53h-57
q-7 0 -13 6t-6 13v117q0 7 6 13q6 5 13 5h59q79 0 138 -27t93 -76q33 -50 39 -122t-22 -162l-80 -279q-9 -29 -13 -56q-5 -28 1 -48q6 -21 25 -33t57 -12h35q7 0 13 -5q5 -6 5 -13v-115q0 -7 -5 -13q-6 -6 -13 -6h-35q-38 0 -57 -12t-25 -32q-6 -21 -1 -48q4 -27 13 -57z
" />
    <glyph glyph-name="asciitilde" unicode="~" horiz-adv-x="1030" 
d="M72 594q-7 0 -13 6q-6 5 -6 12q2 88 19 164t50 131q32 55 82 87q49 32 115 32q81 0 135 -46q53 -46 94 -101q40 -56 76 -102t81 -46q35 0 60 20q25 19 41 54q15 34 23 82q7 48 8 104q1 7 7 13q5 6 12 6h101q7 0 13 -6q5 -6 5 -13q-1 -89 -18 -163q-17 -75 -49 -128
t-81 -82q-50 -30 -116 -30q-79 0 -131 46t-92 101q-40 54 -78 100t-88 46q-34 0 -58 -20t-39 -55q-16 -36 -23 -85q-8 -50 -9 -109q-1 -7 -6 -12q-6 -6 -13 -6h-102z" />
    <glyph glyph-name="exclamdown" unicode="&#xa1;" horiz-adv-x="379" 
d="M270 1069q7 0 13 -5q6 -6 6 -13v-179q0 -7 -6 -12q-6 -6 -13 -6h-161q-7 0 -13 6q-6 5 -6 12v179q0 7 6 13q6 5 13 5h161zM264 672q7 0 13 -6t6 -13v-999q0 -7 -6 -13t-13 -6h-149q-7 0 -13 6t-6 13v999q0 7 6 13t13 6h149z" />
    <glyph glyph-name="cent" unicode="&#xa2;" horiz-adv-x="1044" 
d="M647 18q0 -7 -5 -12q-6 -6 -13 -6h-152q-7 0 -12 6q-6 5 -6 12v169q-97 14 -172 59q-76 44 -127 114t-78 164q-27 93 -27 205q0 111 27 206q26 94 78 165q51 70 127 116q75 46 172 61v148q0 7 6 13q5 6 12 6h152q7 0 13 -6q5 -6 5 -13v-148q153 -24 244 -121
q91 -98 107 -243q1 -7 -4 -12q-6 -6 -13 -6h-135q-7 0 -13 6q-7 5 -8 12q-21 115 -93 174q-73 58 -179 58q-154 0 -229 -109q-76 -109 -76 -305q0 -200 76 -306q75 -107 229 -108q118 0 194 70q76 69 89 197q1 7 7 13q6 5 14 5h137q7 0 12 -5q5 -6 4 -13q-7 -76 -34 -143
q-28 -67 -74 -118q-46 -52 -110 -87q-65 -35 -145 -48v-170z" />
    <glyph glyph-name="sterling" unicode="&#xa3;" horiz-adv-x="1165" 
d="M1104 455q7 0 13 -6q5 -6 5 -13q-4 -244 -121 -352q-117 -109 -325 -102l-623 17q-7 1 -12 7q-6 5 -6 12v107q0 8 5 15t12 9l42 15q96 32 134 93q37 60 38 132q0 58 -14 126q-15 68 -35 138h-190q-7 0 -13 6t-6 13v106q0 7 6 13t13 6h149q-16 63 -28 125q-13 61 -13 118
q0 91 33 168q32 77 91 133q59 55 144 86t189 31q204 0 328 -112q124 -113 149 -326q1 -7 -4 -13t-12 -6h-149q-8 0 -14 6q-6 5 -7 13q-8 63 -30 115q-23 51 -59 88q-37 37 -88 57t-116 20q-62 0 -111 -20q-49 -21 -82 -56q-34 -36 -51 -83q-18 -48 -18 -101q0 -57 12 -118
q12 -62 29 -125h325q7 0 13 -6t6 -13v-106q0 -7 -6 -13t-13 -6h-284q15 -61 27 -121t12 -118q0 -39 -11 -78q-12 -39 -35 -73q-24 -35 -60 -63t-83 -46l404 -15q76 -3 127 16q51 18 82 56q31 37 45 94q13 57 14 131q0 7 6 13q5 6 12 6h154z" />
    <glyph glyph-name="currency" unicode="&#xa4;" horiz-adv-x="1055" 
d="M308 702q0 -58 17 -107t48 -84q30 -35 72 -55t91 -20q46 0 88 20q41 20 72 55t49 84t18 107q0 60 -18 110t-49 85q-31 34 -72 53q-42 19 -88 19q-49 0 -91 -19t-72 -53q-31 -35 -48 -85t-17 -110zM927 212q-5 -5 -13 -5t-12 5l-162 171q-43 -32 -95 -50q-53 -18 -109 -18
q-57 0 -109 18q-53 17 -96 48q-49 -51 -95 -99q-47 -49 -68 -70q-5 -5 -13 -5t-13 5l-67 71q-5 6 -5 14t5 13q22 22 69 70q46 48 93 99q-31 46 -48 103q-18 57 -18 120t18 122q18 58 50 106l-166 175q-5 5 -5 13t5 14l67 69q5 5 13 5t12 -5l168 -175q43 29 95 47
q51 17 108 17q56 0 108 -17q51 -18 94 -49q49 51 96 99q46 47 67 68q5 5 13 5t13 -5l67 -70q5 -5 5 -13t-5 -13q-21 -22 -67 -69q-46 -48 -95 -100q31 -48 49 -104q17 -57 17 -120t-17 -119q-18 -56 -49 -104l162 -169q5 -5 5 -13t-5 -13z" />
    <glyph glyph-name="yen" unicode="&#xa5;" horiz-adv-x="1176" 
d="M1050 227q0 -7 -6 -12q-6 -6 -13 -6h-348l2 -191q0 -7 -5 -12q-6 -6 -13 -6h-162q-7 0 -12 6q-6 5 -6 12l3 191h-344q-7 0 -12 6q-6 5 -6 12v105q0 7 6 13q5 5 12 5h347l2 137h-349q-7 0 -12 6q-6 6 -6 13v104q0 7 6 13q5 6 12 6h330l-452 789q-3 5 0 11q3 5 10 5h180
q8 0 16 -5q7 -5 11 -12l356 -678l358 678q4 7 12 12q7 5 15 5h162q6 0 9 -5q3 -6 0 -11l-454 -789h332q7 0 13 -6t6 -13v-104q0 -7 -6 -13t-13 -6h-352l2 -137h350q7 0 13 -5q6 -6 6 -13v-105z" />
    <glyph glyph-name="brokenbar" unicode="&#xa6;" horiz-adv-x="268" 
d="M80 737q-7 0 -13 6t-6 13v721q0 7 6 13q6 5 13 5h108q7 0 13 -5q6 -6 6 -13v-721q0 -7 -6 -13t-13 -6h-108zM80 -287q-7 0 -13 6t-6 13v721q0 7 6 13q6 5 13 5h108q7 0 13 -5q6 -6 6 -13v-721q0 -7 -6 -13t-13 -6h-108z" />
    <glyph glyph-name="section" unicode="&#xa7;" horiz-adv-x="1171" 
d="M543 743q-124 -15 -198 -65q-75 -51 -75 -146q0 -53 32 -88q31 -35 83 -59q51 -25 119 -42q67 -17 139 -34q128 14 206 64q77 50 77 131q0 55 -32 93q-33 37 -86 64q-53 26 -122 45q-70 19 -143 37zM1104 -68q0 -85 -38 -152q-39 -67 -105 -113q-67 -45 -158 -69
q-92 -24 -197 -24q-116 0 -213 23q-98 24 -168 71q-71 47 -112 118q-41 72 -45 167q0 7 6 12q5 6 12 6h143q7 0 13 -6q6 -5 6 -12q6 -128 98 -189t260 -61q72 0 132 13q59 13 101 37q41 24 64 60t23 81q0 121 -130 168q-131 46 -287 87t-286 113q-131 71 -131 242
q0 111 67 188q66 76 181 111q-52 19 -97 45q-46 25 -79 60q-33 34 -52 80q-20 45 -20 104q0 85 35 152q34 66 97 110q62 44 150 67t195 23q104 0 194 -21t156 -63q65 -42 105 -106q40 -65 46 -152q1 -7 -4 -13q-6 -6 -13 -6h-137q-8 0 -13 6q-6 5 -7 13q-11 108 -99 162
q-89 53 -230 53q-67 0 -122 -11q-55 -12 -94 -35q-39 -24 -60 -60t-21 -85q0 -109 131 -150q130 -42 286 -81t287 -111q130 -72 130 -241q0 -107 -71 -181q-71 -75 -185 -112q53 -21 100 -48q47 -28 82 -65q34 -38 54 -88q20 -51 20 -117z" />
    <glyph glyph-name="dieresis" unicode="&#xa8;" horiz-adv-x="1024" 
d="M285 1192q-7 0 -13 6q-6 5 -6 12v168q0 7 6 13t13 6h129q7 0 13 -6q5 -6 5 -13v-168q0 -7 -5 -12q-6 -6 -13 -6h-129zM610 1192q-7 0 -12 6q-6 5 -6 12v168q0 7 6 13q5 6 12 6h129q7 0 13 -6t6 -13v-168q0 -7 -6 -12q-6 -6 -13 -6h-129z" />
    <glyph glyph-name="copyright" unicode="&#xa9;" horiz-adv-x="1489" 
d="M1430 715q0 -168 -49 -305q-50 -138 -139 -234q-90 -97 -217 -150q-128 -53 -282 -53q-153 0 -280 54q-127 53 -216 150q-89 96 -138 234q-50 137 -50 304q0 171 49 310q49 138 139 235q89 96 216 148t282 52q154 0 281 -52t216 -148t139 -234q49 -139 49 -311zM160 715
q0 -151 40 -272q40 -122 115 -205q75 -84 184 -129q109 -46 246 -46t246 45t184 129q74 84 114 206q40 121 40 272q0 150 -40 272t-115 207q-75 84 -184 130t-247 46q-137 0 -246 -45q-109 -46 -183 -130q-75 -84 -114 -206q-40 -122 -40 -274zM1144 578q-26 -169 -129 -250
q-103 -82 -257 -82q-100 0 -179 33q-80 33 -134 94q-55 61 -84 149t-29 197t30 197q29 88 84 149t134 94t178 33q68 0 130 -16q61 -17 111 -54q49 -37 85 -96q36 -60 53 -146q1 -7 -3 -12q-4 -6 -11 -6h-92q-8 0 -14 6q-7 5 -9 12q-22 104 -89 154q-68 49 -163 49
q-70 0 -124 -26q-55 -26 -91 -73q-37 -47 -56 -115q-20 -68 -20 -150q0 -181 77 -274t212 -93q108 0 177 59q69 58 85 167q1 7 7 13q6 5 14 5h92q7 0 12 -5q4 -6 3 -13z" />
    <glyph glyph-name="ordfeminine" unicode="&#xaa;" horiz-adv-x="866" 
d="M219 1055q0 -66 13 -120q13 -55 39 -94t66 -60q40 -22 93 -21q96 0 154 72q58 71 59 215q0 129 -48 205t-135 86q-4 1 -20 2q-17 0 -24 -1q-50 -3 -87 -25q-38 -22 -62 -59t-36 -88q-12 -52 -12 -112zM653 664q-7 0 -12 6q-6 5 -6 12l2 80q-43 -55 -107 -86t-147 -31
q-81 0 -143 32q-63 31 -105 86q-42 54 -64 129t-22 161q0 82 23 156q22 73 65 128q43 54 107 86q63 31 143 31q81 0 144 -27q63 -28 106 -79l-3 69q-1 7 5 13q5 6 12 6h129q7 0 13 -6t6 -13l-2 -354l2 -381q0 -7 -6 -12q-6 -6 -13 -6h-127z" />
    <glyph glyph-name="guillemotleft" unicode="&#xab;" horiz-adv-x="854" 
d="M320 199q-8 0 -16 4t-13 11l-248 344q-5 7 -5 16q0 8 5 14l248 339q5 7 13 11t16 4h121q6 0 9 -5t-1 -10l-258 -354l258 -359q4 -5 1 -10t-9 -5h-121zM669 199q-8 0 -16 4q-9 4 -14 11l-248 344q-5 7 -4 16q0 8 4 14l248 339q5 7 14 11q8 4 16 4h120q6 0 9 -5t-1 -10
l-257 -354l257 -359q4 -5 1 -10t-9 -5h-120z" />
    <glyph glyph-name="logicalnot" unicode="&#xac;" horiz-adv-x="1044" 
d="M985 221q0 -7 -5 -12q-6 -6 -13 -6h-113q-7 0 -12 6q-6 5 -6 12v408h-756q-7 0 -13 6q-6 5 -6 12v117q0 7 6 13q6 5 13 5h887q7 0 13 -5q5 -6 5 -13v-543z" />
    <glyph glyph-name="registered" unicode="&#xae;" horiz-adv-x="731" 
d="M688 1116q0 -76 -23 -139q-23 -64 -65 -109t-101 -69q-60 -25 -132 -25t-131 25q-60 24 -102 69t-65 109q-24 63 -24 139q0 79 23 143q23 63 65 107t102 68q59 24 132 24q72 0 132 -24q59 -24 101 -68t65 -107q23 -64 23 -143zM104 1116q0 -133 71 -209q70 -76 192 -76
t191 76t69 209q0 131 -68 209q-69 78 -192 78q-124 0 -193 -77q-70 -77 -70 -210zM455 1196q0 34 -22 51q-23 17 -66 17h-78l-2 -131h82q38 0 62 15q24 14 24 48zM412 985l-62 90h-63l2 -139q0 -7 -6 -12q-6 -6 -13 -6h-37q-7 0 -12 6q-6 5 -6 12v364q0 7 6 13q5 6 12 6h132
q73 0 117 -30q44 -31 44 -91q0 -46 -24 -75q-25 -29 -70 -40l95 -150q3 -5 0 -10t-9 -5h-47q-8 0 -16 4t-12 11z" />
    <glyph glyph-name="macron" unicode="&#xaf;" horiz-adv-x="1024" 
d="M229 1206q-7 0 -12 6q-6 6 -6 13v102q0 7 6 13q5 6 12 6h564q7 0 13 -6q5 -6 5 -13v-102q0 -7 -5 -13q-6 -6 -13 -6h-564z" />
    <glyph glyph-name="degree" unicode="&#xb0;" horiz-adv-x="696" 
d="M655 1157q0 -64 -23 -119q-24 -56 -64 -96q-41 -40 -97 -63q-57 -23 -123 -23q-65 0 -121 23q-57 23 -98 63t-64 96q-24 55 -24 119q0 63 24 118q23 55 64 95q40 40 97 63q56 23 122 23t123 -23q56 -23 97 -63q40 -40 64 -95q23 -55 23 -118zM172 1157q0 -84 49 -134
t127 -50q75 0 126 50q50 50 50 134q0 86 -50 134q-51 48 -126 48q-78 0 -127 -48t-49 -134z" />
    <glyph glyph-name="plusminus" unicode="&#xb1;" horiz-adv-x="1034" 
d="M979 692q0 -7 -5 -12q-6 -6 -13 -6h-367v-408q0 -7 -6 -12q-6 -6 -13 -6h-112q-7 0 -13 6q-6 5 -6 12v408h-368q-7 0 -13 6q-6 5 -6 12v117q0 7 6 13q6 5 13 5h368v410q0 7 6 13q6 5 13 5h112q7 0 13 -5q6 -6 6 -13v-410h367q7 0 13 -5q5 -6 5 -13v-117zM76 0q-7 0 -13 6
q-6 5 -6 12v117q0 7 6 13q6 5 13 5h885q7 0 13 -5q5 -6 5 -13v-117q0 -7 -5 -12q-6 -6 -13 -6h-885z" />
    <glyph glyph-name="two.sups" unicode="&#xb2;" horiz-adv-x="600" 
d="M68 678q-7 0 -13 6q-6 5 -6 12v84q0 112 60 171q59 58 131 97q71 38 131 73q59 35 59 100q1 56 -30 91q-32 35 -95 34q-59 0 -93 -39q-35 -39 -39 -111q-1 -7 -7 -12q-6 -6 -13 -6h-84q-7 0 -12 6q-6 5 -6 12q3 119 68 185q64 66 186 67q119 0 182 -60q63 -61 66 -165
q0 -103 -59 -158q-60 -55 -130 -92q-71 -37 -130 -72q-60 -35 -60 -98v-21h356q7 0 13 -5q6 -6 6 -13v-68q0 -7 -6 -12q-6 -6 -13 -6h-462z" />
    <glyph glyph-name="three.sups" unicode="&#xb3;" horiz-adv-x="621" 
d="M579 907q0 -56 -21 -100q-22 -45 -59 -75q-37 -31 -87 -47q-51 -17 -108 -17q-117 0 -183 59q-66 58 -76 170q-1 7 5 13q5 5 12 5h92q7 0 13 -5q6 -6 7 -13q5 -65 38 -100q32 -36 96 -35q63 0 99 39q35 38 36 102q0 67 -36 99t-111 32h-41q-7 0 -12 6q-6 6 -6 13v53
q0 7 6 13q5 5 12 5h41q67 0 100 31t33 82q0 52 -33 83q-33 30 -82 30q-58 0 -90 -30q-33 -31 -39 -91q-1 -8 -7 -13q-6 -6 -14 -6h-90q-7 0 -12 6t-4 13q10 104 79 161q69 56 183 56q52 0 96 -14t76 -39q31 -26 49 -62q17 -36 17 -80q0 -67 -35 -106q-35 -40 -92 -59
q70 -16 109 -62q39 -47 39 -117z" />
    <glyph glyph-name="acute" unicode="&#xb4;" horiz-adv-x="1024" 
d="M346 1157q-7 -2 -14 1q-8 3 -10 10l-27 62q-3 7 0 15q2 7 9 10l442 210q7 3 14 0t9 -10l39 -115q2 -7 -1 -14t-10 -9z" />
    <glyph glyph-name="uni00B5" unicode="&#xb5;" horiz-adv-x="1042" 
d="M266 -330q0 -7 -5 -13q-6 -5 -13 -5h-152q-7 0 -12 5q-6 6 -6 13l4 789l-4 577q0 7 6 13q5 6 12 6h166q7 0 13 -6q5 -6 5 -13l-4 -432v-203q0 -142 63 -209q62 -67 161 -67q102 0 181 82t110 237v160l-4 432q0 7 6 13q5 6 12 6h156q7 0 13 -6q5 -6 5 -13l-6 -463l4 -555
q0 -7 -6 -12q-6 -6 -13 -6h-145q-7 0 -12 6q-6 5 -6 12l4 162q-24 -40 -58 -77q-35 -38 -78 -66q-44 -28 -98 -45t-116 -17q-53 0 -99 12q-47 12 -86 34z" />
    <glyph glyph-name="paragraph" unicode="&#xb6;" horiz-adv-x="1307" 
d="M614 -377q-7 0 -12 6q-6 6 -6 13l6 657l2 248h-35q-114 0 -208 29q-94 28 -160 84q-67 56 -103 141q-37 84 -37 196q0 108 36 190t102 137q66 54 161 82q94 28 211 28h625q7 0 13 -6q5 -6 5 -13l-10 -944l10 -829q0 -7 -5 -13q-6 -6 -13 -6h-162q-7 0 -12 6q-6 6 -6 13
l6 661l2 244h-238v-244l8 -661q1 -7 -5 -13t-13 -6h-162z" />
    <glyph glyph-name="periodcentered" unicode="&#xb7;" horiz-adv-x="317" 
d="M74 508q-7 0 -13 6q-6 5 -6 12v179q0 7 6 13q6 5 13 5h170q7 0 13 -5q5 -6 5 -13v-179q0 -7 -5 -12q-6 -6 -13 -6h-170z" />
    <glyph glyph-name="cedilla" unicode="&#xb8;" horiz-adv-x="1024" 
d="M505 -336q-1 -7 -8 -11t-14 -3l-138 31q-7 1 -10 7q-4 7 -2 14l124 314q3 7 11 11q7 4 14 3l91 -17q7 -1 11 -7q4 -7 2 -14z" />
    <glyph glyph-name="one.sups" unicode="&#xb9;" horiz-adv-x="442" 
d="M223 678q-7 0 -12 6q-6 5 -6 12l6 363l-2 221q-29 -28 -67 -47q-38 -20 -80 -35q-6 -2 -11 2q-6 3 -6 10v71q0 9 5 16t12 10q46 17 83 46q36 28 59 65q4 7 12 12q8 4 17 4h95q7 0 13 -6q5 -6 5 -13l-8 -393l8 -326q0 -7 -5 -12q-6 -6 -13 -6h-105z" />
    <glyph glyph-name="ordmasculine" unicode="&#xba;" horiz-adv-x="852" 
d="M803 1051q0 -92 -24 -168q-25 -76 -72 -129q-48 -54 -118 -83q-71 -30 -161 -30q-91 0 -162 29t-119 82t-73 128t-25 167t25 168t73 130t119 84q71 29 162 29q90 0 161 -29q70 -30 118 -83q47 -53 72 -128q24 -76 24 -167zM219 1047q0 -140 53 -215q52 -76 156 -76
q102 0 154 76q51 75 51 215t-51 218q-52 78 -156 78q-104 -1 -155 -78q-52 -78 -52 -218z" />
    <glyph glyph-name="guillemotright" unicode="&#xbb;" horiz-adv-x="854" 
d="M67 199q-6 0 -9 5t1 10l257 359l-257 354q-4 5 -1 10t9 5h120q8 0 17 -4q8 -4 13 -11l248 -339q4 -6 5 -14q0 -9 -5 -16l-248 -344q-5 -7 -13 -11q-9 -4 -17 -4h-120zM415 199q-6 0 -9 5t1 10l258 359l-258 354q-4 5 -1 10t9 5h121q8 0 16 -4t13 -11l248 -339q5 -6 5 -14
q0 -9 -4 -16l-249 -344q-5 -7 -13 -11t-16 -4h-121z" />
    <glyph glyph-name="onequarter" unicode="&#xbc;" horiz-adv-x="1343" 
d="M223 678q-7 0 -12 6q-6 5 -6 12l6 363l-2 221q-29 -28 -67 -47q-38 -20 -80 -35q-6 -2 -11 2q-6 3 -6 10v71q0 9 5 16t12 10q46 17 83 46q36 28 59 65q4 7 12 12q8 4 17 4h95q7 0 13 -6q5 -6 5 -13l-8 -393l8 -326q0 -7 -5 -12q-6 -6 -13 -6h-105zM119 0q-6 0 -9 6
q-3 5 0 10l872 1402q4 7 12 12q8 4 16 4h102q6 0 9 -5q3 -6 0 -11l-872 -1402q-4 -7 -12 -11q-8 -5 -16 -5h-102zM1321 205q0 -7 -5 -13q-6 -6 -13 -6h-62v-168q0 -7 -5 -12q-6 -6 -13 -6h-97q-7 0 -12 6q-6 5 -6 12v168h-324q-7 0 -12 6q-6 6 -6 13v82q0 8 3 17t7 16
l277 422q4 7 12 12q8 4 16 4h142q7 0 13 -6q5 -6 5 -13v-448h62q7 0 13 -6q5 -6 5 -13v-67zM1108 514l4 145l-235 -368h231v223z" />
    <glyph glyph-name="onehalf" unicode="&#xbd;" horiz-adv-x="1364" 
d="M223 678q-7 0 -12 6q-6 5 -6 12l6 363l-2 221q-29 -28 -67 -47q-38 -20 -80 -35q-6 -2 -11 2q-6 3 -6 10v71q0 9 5 16t12 10q46 17 83 46q36 28 59 65q4 7 12 12q8 4 17 4h95q7 0 13 -6q5 -6 5 -13l-8 -393l8 -326q0 -7 -5 -12q-6 -6 -13 -6h-105zM119 0q-6 0 -9 6
q-3 5 0 10l872 1402q4 7 12 12q8 4 16 4h102q6 0 9 -5q3 -6 0 -11l-872 -1402q-4 -7 -12 -11q-8 -5 -16 -5h-102zM846 0q-7 0 -13 6q-6 5 -6 12v84q0 112 60 171q59 58 131 97q71 38 131 73q59 35 59 100q1 56 -30 91q-32 35 -95 34q-59 0 -93 -39q-35 -39 -39 -111
q-1 -7 -7 -12q-6 -6 -13 -6h-84q-7 0 -12 6q-6 5 -6 12q3 119 68 185q64 66 186 67q119 0 182 -60q63 -61 66 -165q0 -103 -59 -158q-60 -55 -130 -92q-71 -37 -130 -72q-60 -35 -60 -98v-21h356q7 0 13 -5q6 -6 6 -13v-68q0 -7 -6 -12q-6 -6 -13 -6h-462z" />
    <glyph glyph-name="threequarters" unicode="&#xbe;" horiz-adv-x="1501" 
d="M579 907q0 -56 -21 -100q-22 -45 -59 -75q-37 -31 -87 -47q-51 -17 -108 -17q-117 0 -183 59q-66 58 -76 170q-1 7 5 13q5 5 12 5h92q7 0 13 -5q6 -6 7 -13q5 -65 38 -100q32 -36 96 -35q63 0 99 39q35 38 36 102q0 67 -36 99t-111 32h-41q-7 0 -12 6q-6 6 -6 13v53
q0 7 6 13q5 5 12 5h41q67 0 100 31t33 82q0 52 -33 83q-33 30 -82 30q-58 0 -90 -30q-33 -31 -39 -91q-1 -8 -7 -13q-6 -6 -14 -6h-90q-7 0 -12 6t-4 13q10 104 79 161q69 56 183 56q52 0 96 -14t76 -39q31 -26 49 -62q17 -36 17 -80q0 -67 -35 -106q-35 -40 -92 -59
q70 -16 109 -62q39 -47 39 -117zM277 0q-6 0 -9 6q-3 5 0 10l872 1402q4 7 12 12q8 4 16 4h102q6 0 9 -5q3 -6 0 -11l-872 -1402q-4 -7 -12 -11q-8 -5 -16 -5h-102zM1479 205q0 -7 -5 -13q-6 -6 -13 -6h-62v-168q0 -7 -5 -12q-6 -6 -13 -6h-97q-7 0 -12 6q-6 5 -6 12v168
h-324q-7 0 -12 6q-6 6 -6 13v82q0 8 3 17t7 16l277 422q4 7 12 12q8 4 16 4h142q7 0 13 -6q5 -6 5 -13v-448h62q7 0 13 -6q5 -6 5 -13v-67zM1266 514l4 145l-235 -368h231v223z" />
    <glyph glyph-name="questiondown" unicode="&#xbf;" horiz-adv-x="981" 
d="M580 1055q7 0 13 -6q5 -6 5 -13v-178q0 -7 -5 -12q-6 -6 -13 -6h-166q-7 0 -13 6q-6 5 -6 12v178q0 7 6 13t13 6h166zM572 657q7 0 13 -5q5 -6 5 -13q-4 -148 -61 -238t-123 -155t-120 -125q-55 -60 -55 -148q0 -55 19 -98q19 -42 54 -71q34 -29 83 -44q48 -15 105 -16
q142 -1 209 71q66 72 73 216q0 7 6 13q6 5 13 5h141q7 0 13 -5q5 -6 5 -13q-11 -208 -132 -318t-335 -110q-93 0 -173 25q-81 25 -139 73q-59 48 -92 118q-34 71 -34 161q0 119 54 190t120 133q65 61 122 136q56 74 60 200q0 7 6 13q6 5 13 5h150z" />
    <glyph glyph-name="Agrave" unicode="&#xc0;" horiz-adv-x="1266" 
d="M868 590l-241 704l-238 -704h479zM1090 0q-8 0 -15 5t-10 12l-141 411h-590l-138 -411q-2 -7 -9 -12t-15 -5h-158q-7 0 -10 6q-4 5 -2 11l502 1399q2 7 10 13q7 5 14 5h213q8 0 15 -5q7 -6 10 -13l498 -1399q2 -6 -2 -11q-4 -6 -11 -6h-161zM827 1547q-3 -7 -10 -10
t-14 -1l-453 160q-7 2 -10 9t-1 14l41 115q2 7 9 10t14 0l439 -208q7 -3 10 -10q3 -8 0 -15z" />
    <glyph glyph-name="Aacute" unicode="&#xc1;" horiz-adv-x="1266" 
d="M868 590l-241 704l-238 -704h479zM1090 0q-8 0 -15 5t-10 12l-141 411h-590l-138 -411q-2 -7 -9 -12t-15 -5h-158q-7 0 -10 6q-4 5 -2 11l502 1399q2 7 10 13q7 5 14 5h213q8 0 15 -5q7 -6 10 -13l498 -1399q2 -6 -2 -11q-4 -6 -11 -6h-161zM475 1536q-7 -2 -14 1
q-8 3 -10 10l-27 62q-3 7 0 15q2 7 9 10l442 210q7 3 14 0t9 -10l39 -115q2 -7 -1 -14t-10 -9z" />
    <glyph glyph-name="Acircumflex" unicode="&#xc2;" horiz-adv-x="1266" 
d="M868 590l-241 704l-238 -704h479zM1090 0q-8 0 -15 5t-10 12l-141 411h-590l-138 -411q-2 -7 -9 -12t-15 -5h-158q-7 0 -10 6q-4 5 -2 11l502 1399q2 7 10 13q7 5 14 5h213q8 0 15 -5q7 -6 10 -13l498 -1399q2 -6 -2 -11q-4 -6 -11 -6h-161zM934 1551q-3 -7 -10 -9
q-7 -3 -14 0l-280 129l-280 -129q-7 -3 -14 0q-7 2 -10 9l-27 64q-3 7 0 15q2 8 9 12l265 165q7 4 17 7q9 3 17 3h46q8 0 18 -3q9 -3 16 -7l265 -165q7 -4 10 -12q2 -8 -1 -15z" />
    <glyph glyph-name="Atilde" unicode="&#xc3;" horiz-adv-x="1266" 
d="M868 590l-241 704l-238 -704h479zM1090 0q-8 0 -15 5t-10 12l-141 411h-590l-138 -411q-2 -7 -9 -12t-15 -5h-158q-7 0 -10 6q-4 5 -2 11l502 1399q2 7 10 13q7 5 14 5h213q8 0 15 -5q7 -6 10 -13l498 -1399q2 -6 -2 -11q-4 -6 -11 -6h-161zM917 1786q-3 -101 -45 -164
t-126 -63q-47 0 -78 21t-55 47q-24 25 -45 46q-22 21 -50 21q-34 0 -50 -29q-17 -30 -19 -78q0 -7 -6 -12q-6 -6 -13 -6h-68q-7 0 -12 6q-6 5 -5 12q1 48 13 90q11 41 32 72q21 30 53 47q31 17 73 17q47 0 79 -21q31 -22 55 -47q23 -25 44 -46q21 -22 46 -22q37 0 54 31
q17 30 19 78q0 7 6 13q6 5 13 5h68q7 0 13 -5q5 -6 4 -13z" />
    <glyph glyph-name="Adieresis" unicode="&#xc4;" horiz-adv-x="1266" 
d="M868 590l-241 704l-238 -704h479zM1090 0q-8 0 -15 5t-10 12l-141 411h-590l-138 -411q-2 -7 -9 -12t-15 -5h-158q-7 0 -10 6q-4 5 -2 11l502 1399q2 7 10 13q7 5 14 5h213q8 0 15 -5q7 -6 10 -13l498 -1399q2 -6 -2 -11q-4 -6 -11 -6h-161zM406 1571q-7 0 -13 6
q-6 5 -6 12v168q0 7 6 13t13 6h129q7 0 13 -6q5 -6 5 -13v-168q0 -7 -5 -12q-6 -6 -13 -6h-129zM731 1571q-7 0 -12 6q-6 5 -6 12v168q0 7 6 13q5 6 12 6h129q7 0 13 -6t6 -13v-168q0 -7 -6 -12q-6 -6 -13 -6h-129z" />
    <glyph glyph-name="Aring" unicode="&#xc5;" horiz-adv-x="1266" 
d="M868 590l-241 704l-238 -704h479zM1090 0q-8 0 -15 5t-10 12l-141 411h-590l-138 -411q-2 -7 -9 -12t-15 -5h-158q-7 0 -10 6q-4 5 -2 11l502 1399q2 7 10 13q7 5 14 5h213q8 0 15 -5q7 -6 10 -13l498 -1399q2 -6 -2 -11q-4 -6 -11 -6h-161zM856 1757q0 -46 -16 -85
q-17 -40 -46 -68q-30 -29 -71 -45q-41 -17 -88 -17t-87 17q-40 16 -69 45q-30 28 -46 68q-17 39 -17 85q0 45 17 84q16 39 46 68q29 28 69 45q40 16 87 16t88 -16q41 -17 71 -45q29 -29 46 -68q16 -39 16 -84zM520 1757q0 -63 32 -99t83 -36t84 36t33 99t-33 98t-84 35
t-83 -35t-32 -98z" />
    <glyph glyph-name="AE" unicode="&#xc6;" horiz-adv-x="1749" 
d="M894 739l-6 553h-56l-350 -702h410zM904 0q-7 0 -12 6q-6 5 -6 12l4 410h-488l-204 -411q-4 -7 -11 -12q-8 -5 -16 -5h-158q-6 0 -9 6q-4 5 -1 10l713 1401q4 7 12 12q7 5 14 5h924q7 0 13 -6q5 -6 5 -13v-117q0 -7 -5 -12q-6 -6 -13 -6h-586l-6 -438h543q7 0 13 -6
q5 -6 5 -13v-116q0 -7 -5 -13q-6 -6 -13 -6h-543l6 -534h602q7 0 13 -6t6 -13v-117q0 -7 -6 -12q-6 -6 -13 -6h-778z" />
    <glyph glyph-name="Ccedilla" unicode="&#xc7;" horiz-adv-x="1370" 
d="M1329 506q-20 -136 -72 -237t-130 -166t-182 -97q-104 -33 -226 -33q-157 0 -281 52q-125 51 -210 147q-86 96 -131 235q-46 139 -46 312q0 169 47 307q46 137 133 233q86 96 210 149q124 52 278 52q107 0 205 -26q98 -27 177 -86q78 -59 135 -155q57 -97 82 -235
q1 -7 -3 -12q-5 -6 -12 -6h-152q-7 0 -14 6q-7 5 -8 12q-17 88 -54 154q-37 65 -90 108q-53 42 -121 63q-69 20 -147 20q-112 0 -200 -41q-88 -42 -147 -118q-60 -76 -91 -184q-31 -109 -31 -241q0 -144 32 -255t92 -184q60 -74 147 -111q87 -38 196 -38q178 0 289 97
q111 96 133 278q1 7 7 13q6 5 13 5h156q7 0 12 -5q5 -6 4 -13zM689 -336q-1 -7 -8 -11t-14 -3l-138 31q-7 1 -10 7q-4 7 -2 14l124 314q3 7 11 11q7 4 14 3l91 -17q7 -1 11 -7q4 -7 2 -14z" />
    <glyph glyph-name="Egrave" unicode="&#xc8;" horiz-adv-x="1059" 
d="M109 0q-7 0 -13 6q-6 5 -6 12l8 721l-8 676q0 7 6 13t13 6h866q7 0 13 -6q5 -6 5 -13v-117q0 -7 -5 -12q-6 -6 -13 -6h-688l-8 -438h647q7 0 13 -6q5 -6 5 -13v-116q0 -7 -5 -13q-6 -6 -13 -6h-647l8 -534h704q7 0 13 -6t6 -13v-117q0 -7 -6 -12q-6 -6 -13 -6h-882z
M760 1547q-3 -7 -10 -10t-14 -1l-453 160q-7 2 -10 9t-1 14l41 115q2 7 9 10t14 0l439 -208q7 -3 10 -10q3 -8 0 -15z" />
    <glyph glyph-name="Eacute" unicode="&#xc9;" horiz-adv-x="1059" 
d="M109 0q-7 0 -13 6q-6 5 -6 12l8 721l-8 676q0 7 6 13t13 6h866q7 0 13 -6q5 -6 5 -13v-117q0 -7 -5 -12q-6 -6 -13 -6h-688l-8 -438h647q7 0 13 -6q5 -6 5 -13v-116q0 -7 -5 -13q-6 -6 -13 -6h-647l8 -534h704q7 0 13 -6t6 -13v-117q0 -7 -6 -12q-6 -6 -13 -6h-882z
M416 1536q-7 -2 -14 1q-8 3 -10 10l-27 62q-3 7 0 15q2 7 9 10l442 210q7 3 14 0t9 -10l39 -115q2 -7 -1 -14t-10 -9z" />
    <glyph glyph-name="Ecircumflex" unicode="&#xca;" horiz-adv-x="1059" 
d="M109 0q-7 0 -13 6q-6 5 -6 12l8 721l-8 676q0 7 6 13t13 6h866q7 0 13 -6q5 -6 5 -13v-117q0 -7 -5 -12q-6 -6 -13 -6h-688l-8 -438h647q7 0 13 -6q5 -6 5 -13v-116q0 -7 -5 -13q-6 -6 -13 -6h-647l8 -534h704q7 0 13 -6t6 -13v-117q0 -7 -6 -12q-6 -6 -13 -6h-882z
M883 1551q-3 -7 -10 -9q-7 -3 -14 0l-280 129l-280 -129q-7 -3 -14 0q-7 2 -10 9l-27 64q-3 7 0 15q2 8 9 12l265 165q7 4 17 7q9 3 17 3h46q8 0 18 -3q9 -3 16 -7l265 -165q7 -4 10 -12q2 -8 -1 -15z" />
    <glyph glyph-name="Edieresis" unicode="&#xcb;" horiz-adv-x="1059" 
d="M109 0q-7 0 -13 6q-6 5 -6 12l8 721l-8 676q0 7 6 13t13 6h866q7 0 13 -6q5 -6 5 -13v-117q0 -7 -5 -12q-6 -6 -13 -6h-688l-8 -438h647q7 0 13 -6q5 -6 5 -13v-116q0 -7 -5 -13q-6 -6 -13 -6h-647l8 -534h704q7 0 13 -6t6 -13v-117q0 -7 -6 -12q-6 -6 -13 -6h-882z
M353 1571q-7 0 -13 6q-6 5 -6 12v168q0 7 6 13t13 6h129q7 0 13 -6q5 -6 5 -13v-168q0 -7 -5 -12q-6 -6 -13 -6h-129zM678 1571q-7 0 -12 6q-6 5 -6 12v168q0 7 6 13q5 6 12 6h129q7 0 13 -6t6 -13v-168q0 -7 -6 -12q-6 -6 -13 -6h-129z" />
    <glyph glyph-name="Igrave" unicode="&#xcc;" horiz-adv-x="397" 
d="M122 0q-7 0 -13 6q-6 5 -5 12l8 711l-8 686q0 7 6 13q5 6 12 6h158q7 0 13 -6q5 -6 5 -13l-8 -686l8 -711q0 -7 -5 -12q-6 -6 -13 -6h-158zM381 1547q-3 -7 -10 -10t-14 -1l-453 160q-7 2 -10 9t-1 14l41 115q2 7 9 10t14 0l439 -208q7 -3 10 -10q3 -8 0 -15z" />
    <glyph glyph-name="Iacute" unicode="&#xcd;" horiz-adv-x="397" 
d="M122 0q-7 0 -13 6q-6 5 -5 12l8 711l-8 686q0 7 6 13q5 6 12 6h158q7 0 13 -6q5 -6 5 -13l-8 -686l8 -711q0 -7 -5 -12q-6 -6 -13 -6h-158zM37 1536q-7 -2 -14 1q-8 3 -10 10l-27 62q-3 7 -1 15q3 7 10 10l442 210q7 3 14 0t9 -10l39 -115q2 -7 -1 -14t-10 -9z" />
    <glyph glyph-name="Icircumflex" unicode="&#xce;" horiz-adv-x="397" 
d="M122 0q-7 0 -13 6q-6 5 -5 12l8 711l-8 686q0 7 6 13q5 6 12 6h158q7 0 13 -6q5 -6 5 -13l-8 -686l8 -711q0 -7 -5 -12q-6 -6 -13 -6h-158zM504 1551q-3 -7 -10 -9q-7 -3 -14 0l-280 129l-280 -129q-7 -3 -14 0q-7 2 -10 9l-27 64q-3 7 -1 15q3 8 10 12l265 165q7 4 17 7
q9 3 17 3h46q8 0 18 -3q9 -3 16 -7l265 -165q7 -4 10 -12q2 -8 -1 -15z" />
    <glyph glyph-name="Idieresis" unicode="&#xcf;" horiz-adv-x="397" 
d="M122 0q-7 0 -13 6q-6 5 -5 12l8 711l-8 686q0 7 6 13q5 6 12 6h158q7 0 13 -6q5 -6 5 -13l-8 -686l8 -711q0 -7 -5 -12q-6 -6 -13 -6h-158zM-26 1571q-7 0 -13 6q-6 5 -6 12v168q0 7 6 13t13 6h129q7 0 13 -6q5 -6 5 -13v-168q0 -7 -5 -12q-6 -6 -13 -6h-129zM299 1571
q-7 0 -12 6q-6 5 -6 12v168q0 7 6 13q5 6 12 6h129q7 0 13 -6t6 -13v-168q0 -7 -6 -12q-6 -6 -13 -6h-129z" />
    <glyph glyph-name="Eth" unicode="&#xd0;" horiz-adv-x="1374" 
d="M145 0q-7 0 -12 6q-6 5 -6 12l8 662h-121q-7 0 -12 6q-6 5 -6 12v117q0 7 6 13q5 6 12 6h120l-7 581q0 7 6 13q5 6 12 6h453q154 0 287 -46q133 -47 230 -137t153 -224q55 -135 55 -310q0 -183 -59 -318q-59 -136 -157 -224q-99 -88 -230 -131q-131 -44 -275 -44h-457z
M618 154q95 0 187 32q91 32 162 100t115 175t44 256q0 141 -40 248q-41 106 -111 176q-70 69 -164 104q-95 35 -201 35h-286q0 -1 -1 -47t-2 -113t-2 -145t-1 -141h397q7 0 13 -6q5 -6 5 -13v-117q0 -7 -5 -12q-6 -6 -13 -6h-397q0 -65 1 -155q1 -91 2 -173t2 -140l1 -58
h294z" />
    <glyph glyph-name="Ntilde" unicode="&#xd1;" horiz-adv-x="1339" 
d="M272 653l2 -635q0 -7 -5 -12q-6 -6 -13 -6h-147q-7 0 -13 6q-6 5 -6 12l8 709l-6 688q0 7 6 13t13 6h186q8 0 16 -4q8 -5 12 -12l750 -1176l-2 123l-4 399l-2 651q0 7 6 13q5 6 12 6h146q7 0 13 -6q5 -6 5 -13l-8 -688l6 -709q0 -7 -5 -12q-6 -6 -13 -6h-195q-8 0 -16 5
q-8 4 -12 11l-742 1155l4 -139zM962 1786q-3 -101 -45 -164t-126 -63q-47 0 -78 21t-55 47q-24 25 -45 46q-22 21 -50 21q-34 0 -50 -29q-17 -30 -19 -78q0 -7 -6 -12q-6 -6 -13 -6h-68q-7 0 -12 6q-6 5 -5 12q1 48 13 90q11 41 32 72q21 30 53 47q31 17 73 17q47 0 79 -21
q31 -22 55 -47q23 -25 44 -46q21 -22 46 -22q37 0 54 31q17 30 19 78q0 7 6 13q6 5 13 5h68q7 0 13 -5q5 -6 4 -13z" />
    <glyph glyph-name="Ograve" unicode="&#xd2;" horiz-adv-x="1470" 
d="M1421 715q0 -168 -49 -305q-50 -138 -139 -234q-90 -97 -217 -150t-281 -53t-281 54q-127 53 -216 150q-89 96 -138 234q-49 137 -49 304q0 171 49 310q49 138 138 235q89 96 216 148t281 52t282 -52q127 -52 217 -148q89 -96 138 -234q49 -139 49 -311zM248 715
q0 -135 34 -244q33 -109 96 -184q62 -75 153 -115q91 -41 204 -41q114 0 205 40t154 115t97 184t34 245t-34 246q-34 109 -97 185q-63 75 -154 116t-205 41q-115 0 -205 -40q-91 -41 -153 -116q-63 -76 -96 -185q-33 -110 -33 -247zM909 1547q-3 -7 -10 -10t-14 -1l-453 160
q-7 2 -10 9t-1 14l41 115q2 7 9 10t14 0l439 -208q7 -3 10 -10q3 -8 0 -15z" />
    <glyph glyph-name="Oacute" unicode="&#xd3;" horiz-adv-x="1470" 
d="M1421 715q0 -168 -49 -305q-50 -138 -139 -234q-90 -97 -217 -150t-281 -53t-281 54q-127 53 -216 150q-89 96 -138 234q-49 137 -49 304q0 171 49 310q49 138 138 235q89 96 216 148t281 52t282 -52q127 -52 217 -148q89 -96 138 -234q49 -139 49 -311zM248 715
q0 -135 34 -244q33 -109 96 -184q62 -75 153 -115q91 -41 204 -41q114 0 205 40t154 115t97 184t34 245t-34 246q-34 109 -97 185q-63 75 -154 116t-205 41q-115 0 -205 -40q-91 -41 -153 -116q-63 -76 -96 -185q-33 -110 -33 -247zM563 1536q-7 -2 -14 1q-8 3 -10 10
l-27 62q-3 7 0 15q2 7 9 10l442 210q7 3 14 0t9 -10l39 -115q2 -7 -1 -14t-10 -9z" />
    <glyph glyph-name="Ocircumflex" unicode="&#xd4;" horiz-adv-x="1470" 
d="M1421 715q0 -168 -49 -305q-50 -138 -139 -234q-90 -97 -217 -150t-281 -53t-281 54q-127 53 -216 150q-89 96 -138 234q-49 137 -49 304q0 171 49 310q49 138 138 235q89 96 216 148t281 52t282 -52q127 -52 217 -148q89 -96 138 -234q49 -139 49 -311zM248 715
q0 -135 34 -244q33 -109 96 -184q62 -75 153 -115q91 -41 204 -41q114 0 205 40t154 115t97 184t34 245t-34 246q-34 109 -97 185q-63 75 -154 116t-205 41q-115 0 -205 -40q-91 -41 -153 -116q-63 -76 -96 -185q-33 -110 -33 -247zM1032 1551q-3 -7 -10 -9q-7 -3 -14 0
l-280 129l-280 -129q-7 -3 -14 0q-7 2 -10 9l-27 64q-3 7 0 15q2 8 9 12l265 165q7 4 17 7q9 3 17 3h46q8 0 18 -3q9 -3 16 -7l265 -165q7 -4 10 -12q2 -8 -1 -15z" />
    <glyph glyph-name="Otilde" unicode="&#xd5;" horiz-adv-x="1470" 
d="M1421 715q0 -168 -49 -305q-50 -138 -139 -234q-90 -97 -217 -150t-281 -53t-281 54q-127 53 -216 150q-89 96 -138 234q-49 137 -49 304q0 171 49 310q49 138 138 235q89 96 216 148t281 52t282 -52q127 -52 217 -148q89 -96 138 -234q49 -139 49 -311zM248 715
q0 -135 34 -244q33 -109 96 -184q62 -75 153 -115q91 -41 204 -41q114 0 205 40t154 115t97 184t34 245t-34 246q-34 109 -97 185q-63 75 -154 116t-205 41q-115 0 -205 -40q-91 -41 -153 -116q-63 -76 -96 -185q-33 -110 -33 -247zM1015 1786q-3 -101 -45 -164t-126 -63
q-47 0 -78 21t-55 47q-24 25 -45 46q-22 21 -50 21q-34 0 -50 -29q-17 -30 -19 -78q0 -7 -6 -12q-6 -6 -13 -6h-68q-7 0 -12 6q-6 5 -5 12q1 48 13 90q11 41 32 72q21 30 53 47q31 17 73 17q47 0 79 -21q31 -22 55 -47q23 -25 44 -46q21 -22 46 -22q37 0 54 31q17 30 19 78
q0 7 6 13q6 5 13 5h68q7 0 13 -5q5 -6 4 -13z" />
    <glyph glyph-name="Odieresis" unicode="&#xd6;" horiz-adv-x="1470" 
d="M1421 715q0 -168 -49 -305q-50 -138 -139 -234q-90 -97 -217 -150t-281 -53t-281 54q-127 53 -216 150q-89 96 -138 234q-49 137 -49 304q0 171 49 310q49 138 138 235q89 96 216 148t281 52t282 -52q127 -52 217 -148q89 -96 138 -234q49 -139 49 -311zM248 715
q0 -135 34 -244q33 -109 96 -184q62 -75 153 -115q91 -41 204 -41q114 0 205 40t154 115t97 184t34 245t-34 246q-34 109 -97 185q-63 75 -154 116t-205 41q-115 0 -205 -40q-91 -41 -153 -116q-63 -76 -96 -185q-33 -110 -33 -247zM504 1571q-7 0 -13 6q-6 5 -6 12v168
q0 7 6 13t13 6h129q7 0 13 -6q5 -6 5 -13v-168q0 -7 -5 -12q-6 -6 -13 -6h-129zM829 1571q-7 0 -12 6q-6 5 -6 12v168q0 7 6 13q5 6 12 6h129q7 0 13 -6t6 -13v-168q0 -7 -6 -12q-6 -6 -13 -6h-129z" />
    <glyph glyph-name="multiply" unicode="&#xd7;" horiz-adv-x="1034" 
d="M834 308q-5 -5 -13 -5t-13 5l-290 292l-290 -292q-5 -5 -13 -5t-13 5l-77 82q-5 5 -4 13q0 8 5 14l286 288l-288 290q-5 5 -5 13q-1 8 4 13l77 82q5 5 13 5t13 -5l292 -292l290 292q5 5 13 5t13 -5l77 -82q5 -5 5 -13t-5 -13l-288 -290l288 -289q5 -5 5 -13t-5 -13z" />
    <glyph glyph-name="Oslash" unicode="&#xd8;" horiz-adv-x="1470" 
d="M248 715q0 -107 22 -198q21 -91 61 -162l719 837q-60 54 -139 83q-80 28 -176 28q-115 0 -205 -40q-91 -41 -153 -116q-63 -76 -96 -185q-33 -110 -33 -247zM735 131q114 0 205 40t154 115t97 184t34 245q0 110 -22 203q-23 93 -65 165l-721 -837q60 -56 141 -85
q81 -30 177 -30zM176 -66q-4 -5 -12 -6q-8 0 -13 5l-93 93q-5 5 -5 13q-1 8 4 14l143 169q-71 94 -110 219t-39 274q0 171 49 310q49 138 138 235q89 96 216 148t281 52q121 0 226 -32t187 -92l147 170q4 5 12 5t13 -4l92 -93q5 -5 6 -13q0 -9 -5 -14l-143 -169
q72 -94 112 -221q39 -128 39 -282q0 -168 -49 -305q-50 -138 -139 -234q-90 -97 -217 -150t-281 -53q-122 0 -227 34q-106 34 -189 97z" />
    <glyph glyph-name="Ugrave" unicode="&#xd9;" horiz-adv-x="1210" 
d="M1135 543q0 -135 -32 -241q-33 -107 -98 -179q-66 -73 -165 -111q-100 -39 -232 -39t-232 39q-101 38 -167 111q-66 72 -99 179q-34 106 -34 241l2 446l-6 426q0 7 6 13q5 6 12 6h162q7 0 13 -6q5 -6 5 -13l-4 -422v-450q0 -91 20 -166q19 -76 60 -129q41 -54 106 -83
q65 -30 156 -30q93 0 160 30q67 29 109 83q42 53 62 129q19 75 19 166v446l-3 426q-1 7 5 13t13 6h147q7 0 13 -6t6 -13l-4 -426v-446zM782 1547q-3 -7 -10 -10t-14 -1l-453 160q-7 2 -10 9t-1 14l41 115q2 7 9 10t14 0l439 -208q7 -3 10 -10q3 -8 0 -15z" />
    <glyph glyph-name="Uacute" unicode="&#xda;" horiz-adv-x="1210" 
d="M1135 543q0 -135 -32 -241q-33 -107 -98 -179q-66 -73 -165 -111q-100 -39 -232 -39t-232 39q-101 38 -167 111q-66 72 -99 179q-34 106 -34 241l2 446l-6 426q0 7 6 13q5 6 12 6h162q7 0 13 -6q5 -6 5 -13l-4 -422v-450q0 -91 20 -166q19 -76 60 -129q41 -54 106 -83
q65 -30 156 -30q93 0 160 30q67 29 109 83q42 53 62 129q19 75 19 166v446l-3 426q-1 7 5 13t13 6h147q7 0 13 -6t6 -13l-4 -426v-446zM446 1536q-7 -2 -14 1q-8 3 -10 10l-27 62q-3 7 0 15q2 7 9 10l442 210q7 3 14 0t9 -10l39 -115q2 -7 -1 -14t-10 -9z" />
    <glyph glyph-name="Ucircumflex" unicode="&#xdb;" horiz-adv-x="1210" 
d="M1135 543q0 -135 -32 -241q-33 -107 -98 -179q-66 -73 -165 -111q-100 -39 -232 -39t-232 39q-101 38 -167 111q-66 72 -99 179q-34 106 -34 241l2 446l-6 426q0 7 6 13q5 6 12 6h162q7 0 13 -6q5 -6 5 -13l-4 -422v-450q0 -91 20 -166q19 -76 60 -129q41 -54 106 -83
q65 -30 156 -30q93 0 160 30q67 29 109 83q42 53 62 129q19 75 19 166v446l-3 426q-1 7 5 13t13 6h147q7 0 13 -6t6 -13l-4 -426v-446zM907 1551q-3 -7 -10 -9q-7 -3 -14 0l-280 129l-280 -129q-7 -3 -14 0q-7 2 -10 9l-27 64q-3 7 0 15q2 8 9 12l265 165q7 4 17 7q9 3 17 3
h46q8 0 18 -3q9 -3 16 -7l265 -165q7 -4 10 -12q2 -8 -1 -15z" />
    <glyph glyph-name="Udieresis" unicode="&#xdc;" horiz-adv-x="1210" 
d="M1135 543q0 -135 -32 -241q-33 -107 -98 -179q-66 -73 -165 -111q-100 -39 -232 -39t-232 39q-101 38 -167 111q-66 72 -99 179q-34 106 -34 241l2 446l-6 426q0 7 6 13q5 6 12 6h162q7 0 13 -6q5 -6 5 -13l-4 -422v-450q0 -91 20 -166q19 -76 60 -129q41 -54 106 -83
q65 -30 156 -30q93 0 160 30q67 29 109 83q42 53 62 129q19 75 19 166v446l-3 426q-1 7 5 13t13 6h147q7 0 13 -6t6 -13l-4 -426v-446zM377 1571q-7 0 -13 6q-6 5 -6 12v168q0 7 6 13t13 6h129q7 0 13 -6q5 -6 5 -13v-168q0 -7 -5 -12q-6 -6 -13 -6h-129zM702 1571
q-7 0 -12 6q-6 5 -6 12v168q0 7 6 13q5 6 12 6h129q7 0 13 -6t6 -13v-168q0 -7 -6 -12q-6 -6 -13 -6h-129z" />
    <glyph glyph-name="Yacute" unicode="&#xdd;" horiz-adv-x="1137" 
d="M664 18q0 -7 -5 -12q-6 -6 -13 -6h-160q-7 0 -12 6q-6 5 -6 12l6 484l-471 915q-3 6 1 12q3 5 9 5h181q7 0 15 -5q7 -5 11 -12l356 -743l359 743q4 7 12 12q7 5 15 5h163q7 0 10 -5q3 -6 0 -12l-477 -923zM397 1536q-7 -2 -14 1q-8 3 -10 10l-27 62q-3 7 0 15q2 7 9 10
l442 210q7 3 14 0t9 -10l39 -115q2 -7 -1 -14t-10 -9z" />
    <glyph glyph-name="Thorn" unicode="&#xde;" horiz-adv-x="1126" 
d="M1087 727q0 -111 -36 -195t-102 -140t-159 -84q-94 -29 -208 -29h-299l3 -261q1 -7 -5 -12q-6 -6 -13 -6h-159q-7 0 -13 6q-6 5 -6 12l8 717l-8 680q0 7 6 13t13 6h159q7 0 13 -6t5 -13l-3 -250h295q118 0 213 -27q94 -28 160 -82q65 -55 101 -137q35 -83 35 -192z
M279 719l4 -289h309q69 0 126 16t98 52q40 35 63 92q22 56 22 135q0 147 -83 218t-234 71h-301z" />
    <glyph glyph-name="germandbls" unicode="&#xdf;" horiz-adv-x="1108" 
d="M109 -2q-7 0 -13 6q-6 5 -6 12l4 457v549q0 119 37 203q36 83 97 135q61 51 143 75q82 23 172 23q97 0 176 -24q79 -25 135 -72q55 -48 85 -118q30 -71 30 -161q0 -120 -66 -196q-67 -77 -172 -104q80 -12 142 -43q61 -32 102 -78q40 -47 61 -107q21 -61 21 -131
q0 -100 -37 -179q-38 -80 -104 -134q-66 -55 -159 -84t-202 -29h-61q-7 0 -13 6q-6 5 -6 12v111q0 7 6 13q6 5 13 5h61q151 0 229 72q77 72 78 203q1 133 -84 204q-85 70 -231 70h-53q-7 0 -13 6t-6 13v100q0 7 6 13q6 5 13 5h53q122 0 179 65q56 64 56 169q0 128 -67 189
q-68 61 -178 61q-55 0 -103 -16q-49 -17 -84 -52q-35 -36 -55 -93q-21 -57 -21 -136v-545l6 -457q0 -7 -5 -12q-6 -6 -13 -6h-153z" />
    <glyph glyph-name="agrave" unicode="&#xe0;" horiz-adv-x="1083" 
d="M236 539q0 -94 18 -172t54 -133q36 -56 91 -86q55 -31 129 -31q137 0 216 101q78 101 79 300q1 190 -68 300q-70 109 -197 119q-6 1 -21 1h-23q-71 -3 -123 -33q-53 -31 -87 -83t-51 -124q-17 -73 -17 -159zM834 0q-7 0 -13 6q-6 5 -5 12l3 152q-53 -89 -138 -139
q-85 -51 -200 -51q-106 0 -188 43q-82 42 -136 115q-55 73 -83 173q-29 99 -29 213t30 215t86 175t138 118q82 43 186 43q112 0 197 -46q84 -47 135 -134l-3 141q-1 7 5 13q5 6 12 6h152q7 0 13 -6q5 -6 5 -13l-6 -499l6 -519q0 -7 -5 -12q-6 -6 -13 -6h-149zM710 1168
q-3 -7 -10 -10t-14 -1l-453 160q-7 2 -10 9t-1 14l41 115q2 7 9 10t14 0l439 -208q7 -3 10 -10q3 -8 0 -15z" />
    <glyph glyph-name="aacute" unicode="&#xe1;" horiz-adv-x="1083" 
d="M236 539q0 -94 18 -172t54 -133q36 -56 91 -86q55 -31 129 -31q137 0 216 101q78 101 79 300q1 190 -68 300q-70 109 -197 119q-6 1 -21 1h-23q-71 -3 -123 -33q-53 -31 -87 -83t-51 -124q-17 -73 -17 -159zM834 0q-7 0 -13 6q-6 5 -5 12l3 152q-53 -89 -138 -139
q-85 -51 -200 -51q-106 0 -188 43q-82 42 -136 115q-55 73 -83 173q-29 99 -29 213t30 215t86 175t138 118q82 43 186 43q112 0 197 -46q84 -47 135 -134l-3 141q-1 7 5 13q5 6 12 6h152q7 0 13 -6q5 -6 5 -13l-6 -499l6 -519q0 -7 -5 -12q-6 -6 -13 -6h-149zM354 1157
q-7 -2 -14 1q-8 3 -10 10l-27 62q-3 7 0 15q2 7 9 10l442 210q7 3 14 0t9 -10l39 -115q2 -7 -1 -14t-10 -9z" />
    <glyph glyph-name="acircumflex" unicode="&#xe2;" horiz-adv-x="1083" 
d="M236 539q0 -94 18 -172t54 -133q36 -56 91 -86q55 -31 129 -31q137 0 216 101q78 101 79 300q1 190 -68 300q-70 109 -197 119q-6 1 -21 1h-23q-71 -3 -123 -33q-53 -31 -87 -83t-51 -124q-17 -73 -17 -159zM834 0q-7 0 -13 6q-6 5 -5 12l3 152q-53 -89 -138 -139
q-85 -51 -200 -51q-106 0 -188 43q-82 42 -136 115q-55 73 -83 173q-29 99 -29 213t30 215t86 175t138 118q82 43 186 43q112 0 197 -46q84 -47 135 -134l-3 141q-1 7 5 13q5 6 12 6h152q7 0 13 -6q5 -6 5 -13l-6 -499l6 -519q0 -7 -5 -12q-6 -6 -13 -6h-149zM823 1172
q-3 -7 -10 -9q-7 -3 -14 0l-280 129l-280 -129q-7 -3 -14 0q-7 2 -10 9l-27 64q-3 7 0 15q2 8 9 12l265 165q7 4 17 7q9 3 17 3h46q8 0 18 -3q9 -3 16 -7l265 -165q7 -4 10 -12q2 -8 -1 -15z" />
    <glyph glyph-name="atilde" unicode="&#xe3;" horiz-adv-x="1083" 
d="M236 539q0 -94 18 -172t54 -133q36 -56 91 -86q55 -31 129 -31q137 0 216 101q78 101 79 300q1 190 -68 300q-70 109 -197 119q-6 1 -21 1h-23q-71 -3 -123 -33q-53 -31 -87 -83t-51 -124q-17 -73 -17 -159zM834 0q-7 0 -13 6q-6 5 -5 12l3 152q-53 -89 -138 -139
q-85 -51 -200 -51q-106 0 -188 43q-82 42 -136 115q-55 73 -83 173q-29 99 -29 213t30 215t86 175t138 118q82 43 186 43q112 0 197 -46q84 -47 135 -134l-3 141q-1 7 5 13q5 6 12 6h152q7 0 13 -6q5 -6 5 -13l-6 -499l6 -519q0 -7 -5 -12q-6 -6 -13 -6h-149zM814 1407
q-3 -101 -45 -164t-126 -63q-47 0 -78 21t-55 47q-24 25 -45 46q-22 21 -50 21q-34 0 -50 -29q-17 -30 -19 -78q0 -7 -6 -12q-6 -6 -13 -6h-68q-7 0 -12 6q-6 5 -5 12q1 48 13 90q11 41 32 72q21 30 53 47q31 17 73 17q47 0 79 -21q31 -22 55 -47q23 -25 44 -46
q21 -22 46 -22q37 0 54 31q17 30 19 78q0 7 6 13q6 5 13 5h68q7 0 13 -5q5 -6 4 -13z" />
    <glyph glyph-name="adieresis" unicode="&#xe4;" horiz-adv-x="1083" 
d="M236 539q0 -94 18 -172t54 -133q36 -56 91 -86q55 -31 129 -31q137 0 216 101q78 101 79 300q1 190 -68 300q-70 109 -197 119q-6 1 -21 1h-23q-71 -3 -123 -33q-53 -31 -87 -83t-51 -124q-17 -73 -17 -159zM834 0q-7 0 -13 6q-6 5 -5 12l3 152q-53 -89 -138 -139
q-85 -51 -200 -51q-106 0 -188 43q-82 42 -136 115q-55 73 -83 173q-29 99 -29 213t30 215t86 175t138 118q82 43 186 43q112 0 197 -46q84 -47 135 -134l-3 141q-1 7 5 13q5 6 12 6h152q7 0 13 -6q5 -6 5 -13l-6 -499l6 -519q0 -7 -5 -12q-6 -6 -13 -6h-149zM293 1192
q-7 0 -13 6q-6 5 -6 12v168q0 7 6 13t13 6h129q7 0 13 -6q5 -6 5 -13v-168q0 -7 -5 -12q-6 -6 -13 -6h-129zM618 1192q-7 0 -12 6q-6 5 -6 12v168q0 7 6 13q5 6 12 6h129q7 0 13 -6t6 -13v-168q0 -7 -6 -12q-6 -6 -13 -6h-129z" />
    <glyph glyph-name="aring" unicode="&#xe5;" horiz-adv-x="1083" 
d="M236 539q0 -94 18 -172t54 -133q36 -56 91 -86q55 -31 129 -31q137 0 216 101q78 101 79 300q1 190 -68 300q-70 109 -197 119q-6 1 -21 1h-23q-71 -3 -123 -33q-53 -31 -87 -83t-51 -124q-17 -73 -17 -159zM834 0q-7 0 -13 6q-6 5 -5 12l3 152q-53 -89 -138 -139
q-85 -51 -200 -51q-106 0 -188 43q-82 42 -136 115q-55 73 -83 173q-29 99 -29 213t30 215t86 175t138 118q82 43 186 43q112 0 197 -46q84 -47 135 -134l-3 141q-1 7 5 13q5 6 12 6h152q7 0 13 -6q5 -6 5 -13l-6 -499l6 -519q0 -7 -5 -12q-6 -6 -13 -6h-149zM741 1378
q0 -46 -16 -85q-17 -40 -46 -68q-30 -29 -71 -45q-41 -17 -88 -17t-87 17q-40 16 -69 45q-30 28 -46 68q-17 39 -17 85q0 45 17 84q16 39 46 68q29 28 69 45q40 16 87 16t88 -16q41 -17 71 -45q29 -29 46 -68q16 -39 16 -84zM405 1378q0 -63 32 -99t83 -36t84 36t33 99
t-33 98t-84 35t-83 -35t-32 -98z" />
    <glyph glyph-name="ae" unicode="&#xe6;" horiz-adv-x="1860" 
d="M1798 348q-12 -81 -47 -149q-36 -69 -93 -118q-57 -50 -135 -78q-79 -28 -177 -28q-113 0 -200 41t-147 113l2 -111q0 -7 -5 -12q-6 -6 -13 -6h-149q-7 0 -13 6q-6 5 -5 12l3 152q-53 -89 -138 -139q-85 -51 -200 -51q-106 0 -188 42t-136 115q-55 73 -83 173
q-29 99 -29 214q0 114 30 215t86 175t138 118q82 43 186 43q112 0 197 -46q84 -47 135 -134l-3 141q-1 7 5 13q5 6 12 6h152q7 0 13 -6q5 -6 5 -13l-2 -114q60 75 146 116q85 41 190 41q112 0 201 -38q88 -39 149 -110q61 -72 94 -176t35 -235q1 -7 -5 -12q-6 -6 -13 -6
l-776 -5q4 -187 85 -285q80 -99 232 -99q116 0 187 60q70 60 95 175q1 8 8 14q6 5 14 5h141q7 0 12 -6t4 -13zM1325 944q-128 0 -205 -83t-94 -228h588q-2 63 -21 120q-19 56 -55 99q-36 42 -89 67q-54 25 -124 25zM236 539q0 -94 18 -172t54 -133q36 -56 91 -86
q55 -31 129 -31q137 0 216 101q78 101 79 300q1 190 -68 300q-70 109 -197 119q-6 1 -21 1h-23q-71 -3 -123 -33q-53 -31 -87 -83t-51 -124q-17 -73 -17 -159z" />
    <glyph glyph-name="ccedilla" unicode="&#xe7;" horiz-adv-x="1036" 
d="M1000 379q-8 -87 -43 -161q-35 -75 -94 -128q-59 -54 -141 -84q-82 -31 -183 -31q-118 0 -210 40q-93 39 -155 111q-63 71 -96 173q-33 101 -33 225t33 227q33 102 96 175t157 113q93 40 212 40q97 0 176 -27t136 -75q56 -49 90 -117q34 -69 43 -152q1 -7 -4 -12
q-6 -6 -13 -6h-135q-8 0 -14 6q-7 5 -8 12q-20 115 -92 174q-73 58 -179 58q-154 0 -229 -109q-76 -109 -76 -305q0 -200 76 -306q75 -106 229 -107q118 0 194 69t89 197q1 7 7 13q6 5 13 5h137q7 0 13 -5q5 -6 4 -13zM517 -338q-1 -7 -8 -11t-14 -3l-138 31q-7 1 -10 7
q-4 7 -2 14l124 314q3 7 11 11q7 4 14 3l91 -17q7 -1 11 -7q4 -7 2 -14z" />
    <glyph glyph-name="egrave" unicode="&#xe8;" horiz-adv-x="1073" 
d="M996 367q7 0 12 -6q4 -6 3 -13q-12 -81 -48 -149q-36 -69 -94 -118q-58 -50 -138 -78q-81 -28 -182 -28q-122 0 -217 41t-158 114q-63 72 -96 173t-33 221q0 123 35 226q34 102 98 175q63 73 155 114q92 40 206 40t205 -38q91 -39 154 -110q62 -72 96 -176t36 -235
q0 -7 -5 -12q-6 -6 -13 -6h-779q5 -190 85 -289q79 -100 233 -100q116 0 187 60q70 60 94 175q1 8 8 14q7 5 14 5h142zM829 633q-2 63 -21 120q-20 56 -55 99q-36 42 -89 67q-54 25 -123 25q-130 0 -206 -81q-76 -82 -95 -230h589zM731 1168q-3 -7 -10 -10t-14 -1l-453 160
q-7 2 -10 9t-1 14l41 115q2 7 9 10t14 0l439 -208q7 -3 10 -10q3 -8 0 -15z" />
    <glyph glyph-name="eacute" unicode="&#xe9;" horiz-adv-x="1073" 
d="M996 367q7 0 12 -6q4 -6 3 -13q-12 -81 -48 -149q-36 -69 -94 -118q-58 -50 -138 -78q-81 -28 -182 -28q-122 0 -217 41t-158 114q-63 72 -96 173t-33 221q0 123 35 226q34 102 98 175q63 73 155 114q92 40 206 40t205 -38q91 -39 154 -110q62 -72 96 -176t36 -235
q0 -7 -5 -12q-6 -6 -13 -6h-779q5 -190 85 -289q79 -100 233 -100q116 0 187 60q70 60 94 175q1 8 8 14q7 5 14 5h142zM829 633q-2 63 -21 120q-20 56 -55 99q-36 42 -89 67q-54 25 -123 25q-130 0 -206 -81q-76 -82 -95 -230h589zM366 1157q-7 -2 -14 1q-8 3 -10 10l-27 62
q-3 7 0 15q2 7 9 10l442 210q7 3 14 0t9 -10l39 -115q2 -7 -1 -14t-10 -9z" />
    <glyph glyph-name="ecircumflex" unicode="&#xea;" horiz-adv-x="1073" 
d="M996 367q7 0 12 -6q4 -6 3 -13q-12 -81 -48 -149q-36 -69 -94 -118q-58 -50 -138 -78q-81 -28 -182 -28q-122 0 -217 41t-158 114q-63 72 -96 173t-33 221q0 123 35 226q34 102 98 175q63 73 155 114q92 40 206 40t205 -38q91 -39 154 -110q62 -72 96 -176t36 -235
q0 -7 -5 -12q-6 -6 -13 -6h-779q5 -190 85 -289q79 -100 233 -100q116 0 187 60q70 60 94 175q1 8 8 14q7 5 14 5h142zM829 633q-2 63 -21 120q-20 56 -55 99q-36 42 -89 67q-54 25 -123 25q-130 0 -206 -81q-76 -82 -95 -230h589zM838 1172q-3 -7 -10 -9q-7 -3 -14 0
l-280 129l-280 -129q-7 -3 -14 0q-7 2 -10 9l-27 64q-3 7 0 15q2 8 9 12l265 165q7 4 17 7q9 3 17 3h46q8 0 18 -3q9 -3 16 -7l265 -165q7 -4 10 -12q2 -8 -1 -15z" />
    <glyph glyph-name="edieresis" unicode="&#xeb;" horiz-adv-x="1073" 
d="M996 367q7 0 12 -6q4 -6 3 -13q-12 -81 -48 -149q-36 -69 -94 -118q-58 -50 -138 -78q-81 -28 -182 -28q-122 0 -217 41t-158 114q-63 72 -96 173t-33 221q0 123 35 226q34 102 98 175q63 73 155 114q92 40 206 40t205 -38q91 -39 154 -110q62 -72 96 -176t36 -235
q0 -7 -5 -12q-6 -6 -13 -6h-779q5 -190 85 -289q79 -100 233 -100q116 0 187 60q70 60 94 175q1 8 8 14q7 5 14 5h142zM829 633q-2 63 -21 120q-20 56 -55 99q-36 42 -89 67q-54 25 -123 25q-130 0 -206 -81q-76 -82 -95 -230h589zM308 1192q-7 0 -13 6q-6 5 -6 12v168
q0 7 6 13t13 6h129q7 0 13 -6q5 -6 5 -13v-168q0 -7 -5 -12q-6 -6 -13 -6h-129zM633 1192q-7 0 -12 6q-6 5 -6 12v168q0 7 6 13q5 6 12 6h129q7 0 13 -6t6 -13v-168q0 -7 -6 -12q-6 -6 -13 -6h-129z" />
    <glyph glyph-name="igrave" unicode="&#xec;" horiz-adv-x="371" 
d="M109 0q-7 0 -13 6q-6 5 -6 12l4 525l-4 493q0 7 6 13t13 6h153q7 0 13 -6t5 -13l-4 -491l4 -527q1 -7 -5 -12q-6 -6 -13 -6h-153zM366 1168q-3 -7 -10 -10t-14 -1l-453 160q-7 2 -10 9t-1 14l41 115q2 7 9 10t14 0l439 -208q7 -3 10 -10q3 -8 0 -15z" />
    <glyph glyph-name="iacute" unicode="&#xed;" horiz-adv-x="371" 
d="M109 0q-7 0 -13 6q-6 5 -6 12l4 525l-4 493q0 7 6 13t13 6h153q7 0 13 -6t5 -13l-4 -491l4 -527q1 -7 -5 -12q-6 -6 -13 -6h-153zM35 1157q-7 -2 -14 1q-8 3 -10 10l-27 62q-3 7 -1 15q3 7 10 10l442 210q7 3 14 0t9 -10l39 -115q2 -7 -1 -14t-10 -9z" />
    <glyph glyph-name="icircumflex" unicode="&#xee;" horiz-adv-x="371" 
d="M109 0q-7 0 -13 6q-6 5 -6 12l4 525l-4 493q0 7 6 13t13 6h153q7 0 13 -6t5 -13l-4 -491l4 -527q1 -7 -5 -12q-6 -6 -13 -6h-153zM489 1172q-3 -7 -10 -9q-7 -3 -14 0l-280 129l-280 -129q-7 -3 -14 0q-7 2 -10 9l-27 64q-3 7 -1 15q3 8 10 12l265 165q7 4 17 7q9 3 17 3
h46q8 0 18 -3q9 -3 16 -7l265 -165q7 -4 10 -12q2 -8 -1 -15z" />
    <glyph glyph-name="idieresis" unicode="&#xef;" horiz-adv-x="371" 
d="M109 0q-7 0 -13 6q-6 5 -6 12l4 525l-4 493q0 7 6 13t13 6h153q7 0 13 -6t5 -13l-4 -491l4 -527q1 -7 -5 -12q-6 -6 -13 -6h-153zM-41 1192q-7 0 -13 6q-6 5 -6 12v168q0 7 6 13t13 6h129q7 0 13 -6q5 -6 5 -13v-168q0 -7 -5 -12q-6 -6 -13 -6h-129zM284 1192q-7 0 -12 6
q-6 5 -6 12v168q0 7 6 13q5 6 12 6h129q7 0 13 -6t6 -13v-168q0 -7 -6 -12q-6 -6 -13 -6h-129z" />
    <glyph glyph-name="eth" unicode="&#xf0;" horiz-adv-x="1098" 
d="M1042 569q0 -128 -33 -238q-34 -110 -98 -189q-65 -79 -160 -124q-96 -45 -219 -45q-110 0 -199 37q-89 36 -151 100t-96 153t-35 194q1 107 34 196t93 152q59 62 142 97q83 34 182 34q72 0 130 -17q58 -18 101 -47t73 -66q29 -38 46 -77q-6 119 -53 222
q-47 102 -125 182l-260 -128q-7 -3 -14 0q-7 2 -11 9l-39 81q-3 7 0 15q2 7 9 10l208 105q-51 37 -111 68t-125 55q-7 2 -9 9q-3 7 0 13l50 93q4 6 12 9q7 3 14 0q91 -36 173 -78q81 -43 148 -96l260 129q7 4 14 2q7 -3 10 -10l40 -83q3 -7 1 -14q-3 -8 -10 -11l-213 -105
q106 -111 164 -267q57 -157 57 -370zM248 444q0 -149 78 -235q77 -86 217 -86q75 0 131 27q55 26 92 72q36 45 54 107q18 61 18 132q0 74 -21 135q-22 61 -61 104t-95 67q-57 24 -126 24q-71 0 -124 -24q-54 -25 -90 -69q-36 -45 -54 -110q-19 -65 -19 -144z" />
    <glyph glyph-name="ntilde" unicode="&#xf1;" horiz-adv-x="1040" 
d="M100 0q-7 0 -12 6q-6 5 -6 12l6 463l-4 555q0 7 6 13q5 6 12 6h146q7 0 13 -6q5 -6 5 -13l-6 -159q25 40 60 77q34 36 78 64t98 45q53 16 116 16q81 0 147 -27q65 -27 111 -79q45 -52 70 -130q25 -79 25 -181v-211l4 -433q0 -7 -6 -12q-6 -6 -13 -6h-151q-7 0 -13 6
q-6 5 -6 12l4 433v202q0 143 -62 210q-63 67 -161 67q-104 0 -182 -82t-109 -238v-159l2 -433q0 -7 -5 -12q-6 -6 -13 -6h-154zM810 1407q-3 -101 -45 -164t-126 -63q-47 0 -78 21t-55 47q-24 25 -45 46q-22 21 -50 21q-34 0 -50 -29q-17 -30 -19 -78q0 -7 -6 -12
q-6 -6 -13 -6h-68q-7 0 -12 6q-6 5 -5 12q1 48 13 90q11 41 32 72q21 30 53 47q31 17 73 17q47 0 79 -21q31 -22 55 -47q23 -25 44 -46q21 -22 46 -22q37 0 54 31q17 30 19 78q0 7 6 13q6 5 13 5h68q7 0 13 -5q5 -6 4 -13z" />
    <glyph glyph-name="ograve" unicode="&#xf2;" horiz-adv-x="1092" 
d="M1047 528q0 -124 -33 -226t-96 -174q-64 -73 -157 -113q-94 -40 -214 -40q-119 0 -213 40q-94 39 -157 111q-63 71 -96 173q-34 101 -34 225q0 125 34 228q33 102 96 175q63 72 157 112t213 40q120 0 214 -39q93 -40 157 -112q63 -72 96 -174t33 -226zM238 524
q0 -197 78 -304q77 -107 231 -107t231 107q76 107 76 304t-77 308q-77 110 -230 110q-156 -1 -232 -111q-77 -110 -77 -307zM727 1168q-3 -7 -10 -10t-14 -1l-453 160q-7 2 -10 9t-1 14l41 115q2 7 9 10t14 0l439 -208q7 -3 10 -10q3 -8 0 -15z" />
    <glyph glyph-name="oacute" unicode="&#xf3;" horiz-adv-x="1092" 
d="M1047 528q0 -124 -33 -226t-96 -174q-64 -73 -157 -113q-94 -40 -214 -40q-119 0 -213 40q-94 39 -157 111q-63 71 -96 173q-34 101 -34 225q0 125 34 228q33 102 96 175q63 72 157 112t213 40q120 0 214 -39q93 -40 157 -112q63 -72 96 -174t33 -226zM238 524
q0 -197 78 -304q77 -107 231 -107t231 107q76 107 76 304t-77 308q-77 110 -230 110q-156 -1 -232 -111q-77 -110 -77 -307zM371 1157q-7 -2 -14 1q-8 3 -10 10l-27 62q-3 7 0 15q2 7 9 10l442 210q7 3 14 0t9 -10l39 -115q2 -7 -1 -14t-10 -9z" />
    <glyph glyph-name="ocircumflex" unicode="&#xf4;" horiz-adv-x="1092" 
d="M1047 528q0 -124 -33 -226t-96 -174q-64 -73 -157 -113q-94 -40 -214 -40q-119 0 -213 40q-94 39 -157 111q-63 71 -96 173q-34 101 -34 225q0 125 34 228q33 102 96 175q63 72 157 112t213 40q120 0 214 -39q93 -40 157 -112q63 -72 96 -174t33 -226zM238 524
q0 -197 78 -304q77 -107 231 -107t231 107q76 107 76 304t-77 308q-77 110 -230 110q-156 -1 -232 -111q-77 -110 -77 -307zM850 1172q-3 -7 -10 -9q-7 -3 -14 0l-280 129l-280 -129q-7 -3 -14 0q-7 2 -10 9l-27 64q-3 7 0 15q2 8 9 12l265 165q7 4 17 7q9 3 17 3h46
q8 0 18 -3q9 -3 16 -7l265 -165q7 -4 10 -12q2 -8 -1 -15z" />
    <glyph glyph-name="otilde" unicode="&#xf5;" horiz-adv-x="1092" 
d="M1047 528q0 -124 -33 -226t-96 -174q-64 -73 -157 -113q-94 -40 -214 -40q-119 0 -213 40q-94 39 -157 111q-63 71 -96 173q-34 101 -34 225q0 125 34 228q33 102 96 175q63 72 157 112t213 40q120 0 214 -39q93 -40 157 -112q63 -72 96 -174t33 -226zM238 524
q0 -197 78 -304q77 -107 231 -107t231 107q76 107 76 304t-77 308q-77 110 -230 110q-156 -1 -232 -111q-77 -110 -77 -307zM827 1407q-3 -101 -45 -164t-126 -63q-47 0 -78 21t-55 47q-24 25 -45 46q-22 21 -50 21q-34 0 -50 -29q-17 -30 -19 -78q0 -7 -6 -12q-6 -6 -13 -6
h-68q-7 0 -12 6q-6 5 -5 12q1 48 13 90q11 41 32 72q21 30 53 47q31 17 73 17q47 0 79 -21q31 -22 55 -47q23 -25 44 -46q21 -22 46 -22q37 0 54 31q17 30 19 78q0 7 6 13q6 5 13 5h68q7 0 13 -5q5 -6 4 -13z" />
    <glyph glyph-name="odieresis" unicode="&#xf6;" horiz-adv-x="1092" 
d="M1047 528q0 -124 -33 -226t-96 -174q-64 -73 -157 -113q-94 -40 -214 -40q-119 0 -213 40q-94 39 -157 111q-63 71 -96 173q-34 101 -34 225q0 125 34 228q33 102 96 175q63 72 157 112t213 40q120 0 214 -39q93 -40 157 -112q63 -72 96 -174t33 -226zM238 524
q0 -197 78 -304q77 -107 231 -107t231 107q76 107 76 304t-77 308q-77 110 -230 110q-156 -1 -232 -111q-77 -110 -77 -307zM320 1192q-7 0 -13 6q-6 5 -6 12v168q0 7 6 13t13 6h129q7 0 13 -6q5 -6 5 -13v-168q0 -7 -5 -12q-6 -6 -13 -6h-129zM645 1192q-7 0 -12 6
q-6 5 -6 12v168q0 7 6 13q5 6 12 6h129q7 0 13 -6t6 -13v-168q0 -7 -6 -12q-6 -6 -13 -6h-129z" />
    <glyph glyph-name="divide" unicode="&#xf7;" horiz-adv-x="1034" 
d="M432 172q-7 0 -13 6q-6 5 -6 12v179q0 7 6 13q6 5 13 5h170q7 0 13 -5q5 -6 5 -13v-179q0 -7 -5 -12q-6 -6 -13 -6h-170zM76 629q-7 0 -13 6q-6 5 -6 12v117q0 7 6 13q6 5 13 5h885q7 0 13 -5q5 -6 5 -13v-117q0 -7 -5 -12q-6 -6 -13 -6h-885zM432 1028q-7 0 -13 6
q-6 5 -6 12v179q0 7 6 13q6 5 13 5h170q7 0 13 -5q5 -6 5 -13v-179q0 -7 -5 -12q-6 -6 -13 -6h-170z" />
    <glyph glyph-name="oslash" unicode="&#xf8;" horiz-adv-x="1092" 
d="M238 524q0 -69 9 -127q9 -59 28 -105l479 569q-37 40 -89 61q-52 20 -118 20q-156 -1 -232 -111q-77 -110 -77 -307zM547 113q154 0 231 107q76 107 76 304q0 71 -10 132q-10 60 -30 109l-478 -571q37 -40 91 -60q53 -21 120 -21zM141 -64q-4 -5 -12 -6q-8 0 -13 5
l-68 66q-5 5 -5 14q-1 8 3 14l105 128q-51 70 -77 164q-27 93 -27 203q0 125 34 228q33 102 96 175q63 72 157 112t213 40q90 0 166 -22q75 -23 134 -65l104 126q4 6 12 6t13 -4l68 -67q5 -5 5 -13t-4 -14l-105 -126q52 -70 80 -164q27 -95 27 -208q0 -124 -33 -226
t-96 -174q-64 -73 -157 -113q-94 -40 -214 -40q-91 0 -167 23t-135 66z" />
    <glyph glyph-name="ugrave" unicode="&#xf9;" horiz-adv-x="1040" 
d="M780 180q-24 -40 -58 -77q-34 -38 -77 -66q-44 -28 -98 -45t-117 -17q-81 0 -147 27t-111 80q-46 52 -71 131t-25 182v209l-4 432q0 7 6 13q5 6 12 6h154q7 0 13 -6q5 -6 5 -13l-4 -432v-203q0 -142 62 -209t161 -67q102 0 181 82t110 237v160l-4 432q0 7 6 13q5 6 12 6
h156q7 0 13 -6q5 -6 5 -13l-6 -463l4 -555q0 -7 -5 -12q-6 -6 -13 -6h-145q-7 0 -13 6q-6 5 -5 12zM696 1168q-3 -7 -10 -10t-14 -1l-453 160q-7 2 -10 9t-1 14l41 115q2 7 9 10t14 0l439 -208q7 -3 10 -10q3 -8 0 -15z" />
    <glyph glyph-name="uacute" unicode="&#xfa;" horiz-adv-x="1040" 
d="M780 180q-24 -40 -58 -77q-34 -38 -77 -66q-44 -28 -98 -45t-117 -17q-81 0 -147 27t-111 80q-46 52 -71 131t-25 182v209l-4 432q0 7 6 13q5 6 12 6h154q7 0 13 -6q5 -6 5 -13l-4 -432v-203q0 -142 62 -209t161 -67q102 0 181 82t110 237v160l-4 432q0 7 6 13q5 6 12 6
h156q7 0 13 -6q5 -6 5 -13l-6 -463l4 -555q0 -7 -5 -12q-6 -6 -13 -6h-145q-7 0 -13 6q-6 5 -5 12zM350 1157q-7 -2 -14 1q-8 3 -10 10l-27 62q-3 7 0 15q2 7 9 10l442 210q7 3 14 0t9 -10l39 -115q2 -7 -1 -14t-10 -9z" />
    <glyph glyph-name="ucircumflex" unicode="&#xfb;" horiz-adv-x="1040" 
d="M780 180q-24 -40 -58 -77q-34 -38 -77 -66q-44 -28 -98 -45t-117 -17q-81 0 -147 27t-111 80q-46 52 -71 131t-25 182v209l-4 432q0 7 6 13q5 6 12 6h154q7 0 13 -6q5 -6 5 -13l-4 -432v-203q0 -142 62 -209t161 -67q102 0 181 82t110 237v160l-4 432q0 7 6 13q5 6 12 6
h156q7 0 13 -6q5 -6 5 -13l-6 -463l4 -555q0 -7 -5 -12q-6 -6 -13 -6h-145q-7 0 -13 6q-6 5 -5 12zM819 1172q-3 -7 -10 -9q-7 -3 -14 0l-280 129l-280 -129q-7 -3 -14 0q-7 2 -10 9l-27 64q-3 7 0 15q2 8 9 12l265 165q7 4 17 7q9 3 17 3h46q8 0 18 -3q9 -3 16 -7l265 -165
q7 -4 10 -12q2 -8 -1 -15z" />
    <glyph glyph-name="udieresis" unicode="&#xfc;" horiz-adv-x="1040" 
d="M780 180q-24 -40 -58 -77q-34 -38 -77 -66q-44 -28 -98 -45t-117 -17q-81 0 -147 27t-111 80q-46 52 -71 131t-25 182v209l-4 432q0 7 6 13q5 6 12 6h154q7 0 13 -6q5 -6 5 -13l-4 -432v-203q0 -142 62 -209t161 -67q102 0 181 82t110 237v160l-4 432q0 7 6 13q5 6 12 6
h156q7 0 13 -6q5 -6 5 -13l-6 -463l4 -555q0 -7 -5 -12q-6 -6 -13 -6h-145q-7 0 -13 6q-6 5 -5 12zM289 1192q-7 0 -13 6q-6 5 -6 12v168q0 7 6 13t13 6h129q7 0 13 -6q5 -6 5 -13v-168q0 -7 -5 -12q-6 -6 -13 -6h-129zM614 1192q-7 0 -12 6q-6 5 -6 12v168q0 7 6 13
q5 6 12 6h129q7 0 13 -6t6 -13v-168q0 -7 -6 -12q-6 -6 -13 -6h-129z" />
    <glyph glyph-name="yacute" unicode="&#xfd;" horiz-adv-x="954" 
d="M479 -331q-2 -7 -9 -12q-8 -5 -15 -5h-142q-7 0 -10 5q-4 6 -2 12l113 329l-413 1040q-3 6 1 12q3 5 10 5h174q8 0 16 -5q7 -6 9 -13l299 -795l252 795q3 7 10 13q7 5 14 5h156q7 0 11 -5q3 -6 1 -13zM313 1157q-7 -2 -14 1q-8 3 -10 10l-27 62q-3 7 0 15q2 7 9 10
l442 210q7 3 14 0t9 -10l39 -115q2 -7 -1 -14t-10 -9z" />
    <glyph glyph-name="thorn" unicode="&#xfe;" horiz-adv-x="1083" 
d="M258 537q-1 -199 75 -309q76 -111 216 -111q76 0 133 30q57 29 94 82q36 52 54 126q18 73 18 161q0 94 -18 172t-54 134q-36 55 -92 86q-56 30 -131 30q-134 0 -214 -102t-81 -299zM1036 530q0 -114 -29 -214q-30 -101 -85 -175q-56 -75 -138 -118t-186 -43
q-110 0 -194 46q-84 45 -136 132l4 -488q0 -7 -5 -13q-6 -5 -13 -5h-156q-7 0 -12 5q-6 6 -6 13l6 856l-6 889q0 7 6 13q5 6 12 6h152q7 0 13 -6q5 -6 5 -13l-6 -534q52 90 139 142q86 52 199 52q106 0 188 -42t137 -115t83 -173t28 -215z" />
    <glyph glyph-name="ydieresis" unicode="&#xff;" horiz-adv-x="954" 
d="M479 -331q-2 -7 -9 -12q-8 -5 -15 -5h-142q-7 0 -10 5q-4 6 -2 12l113 329l-413 1040q-3 6 1 12q3 5 10 5h174q8 0 16 -5q7 -6 9 -13l299 -795l252 795q3 7 10 13q7 5 14 5h156q7 0 11 -5q3 -6 1 -13zM269 1192q-7 0 -13 6q-6 5 -6 12v168q0 7 6 13t13 6h129q7 0 13 -6
q5 -6 5 -13v-168q0 -7 -5 -12q-6 -6 -13 -6h-129zM594 1192q-7 0 -12 6q-6 5 -6 12v168q0 7 6 13q5 6 12 6h129q7 0 13 -6t6 -13v-168q0 -7 -6 -12q-6 -6 -13 -6h-129z" />
    <glyph glyph-name="Amacron" unicode="&#x100;" horiz-adv-x="1266" 
d="M868 590l-241 704l-238 -704h479zM1090 0q-8 0 -15 5t-10 12l-141 411h-590l-138 -411q-2 -7 -9 -12t-15 -5h-158q-7 0 -10 6q-4 5 -2 11l502 1399q2 7 10 13q7 5 14 5h213q8 0 15 -5q7 -6 10 -13l498 -1399q2 -6 -2 -11q-4 -6 -11 -6h-161zM352 1585q-7 0 -12 6
q-6 6 -6 13v102q0 7 6 13q5 6 12 6h564q7 0 13 -6q5 -6 5 -13v-102q0 -7 -5 -13q-6 -6 -13 -6h-564z" />
    <glyph glyph-name="amacron" unicode="&#x101;" horiz-adv-x="1083" 
d="M236 539q0 -94 18 -172t54 -133q36 -56 91 -86q55 -31 129 -31q137 0 216 101q78 101 79 300q1 190 -68 300q-70 109 -197 119q-6 1 -21 1h-23q-71 -3 -123 -33q-53 -31 -87 -83t-51 -124q-17 -73 -17 -159zM834 0q-7 0 -13 6q-6 5 -5 12l3 152q-53 -89 -138 -139
q-85 -51 -200 -51q-106 0 -188 43q-82 42 -136 115q-55 73 -83 173q-29 99 -29 213t30 215t86 175t138 118q82 43 186 43q112 0 197 -46q84 -47 135 -134l-3 141q-1 7 5 13q5 6 12 6h152q7 0 13 -6q5 -6 5 -13l-6 -499l6 -519q0 -7 -5 -12q-6 -6 -13 -6h-149zM239 1206
q-7 0 -12 6q-6 6 -6 13v102q0 7 6 13q5 6 12 6h564q7 0 13 -6q5 -6 5 -13v-102q0 -7 -5 -13q-6 -6 -13 -6h-564z" />
    <glyph glyph-name="Abreve" unicode="&#x102;" horiz-adv-x="1266" 
d="M868 590l-241 704l-238 -704h479zM1090 0q-8 0 -15 5t-10 12l-141 411h-590l-138 -411q-2 -7 -9 -12t-15 -5h-158q-7 0 -10 6q-4 5 -2 11l502 1399q2 7 10 13q7 5 14 5h213q8 0 15 -5q7 -6 10 -13l498 -1399q2 -6 -2 -11q-4 -6 -11 -6h-161zM921 1813q-3 -57 -24 -106
q-22 -49 -59 -84q-38 -36 -90 -56q-52 -21 -115 -21t-115 21q-52 20 -89 56q-38 35 -59 84q-22 49 -25 106q-1 7 5 13q5 5 12 5h92q8 0 14 -5q5 -6 6 -13q6 -57 47 -94q40 -37 112 -37q69 0 111 37q42 36 48 94q1 7 7 13q5 5 13 5h92q7 0 13 -5q5 -6 4 -13z" />
    <glyph glyph-name="abreve" unicode="&#x103;" horiz-adv-x="1083" 
d="M236 539q0 -94 18 -172t54 -133q36 -56 91 -86q55 -31 129 -31q137 0 216 101q78 101 79 300q1 190 -68 300q-70 109 -197 119q-6 1 -21 1h-23q-71 -3 -123 -33q-53 -31 -87 -83t-51 -124q-17 -73 -17 -159zM834 0q-7 0 -13 6q-6 5 -5 12l3 152q-53 -89 -138 -139
q-85 -51 -200 -51q-106 0 -188 43q-82 42 -136 115q-55 73 -83 173q-29 99 -29 213t30 215t86 175t138 118q82 43 186 43q112 0 197 -46q84 -47 135 -134l-3 141q-1 7 5 13q5 6 12 6h152q7 0 13 -6q5 -6 5 -13l-6 -499l6 -519q0 -7 -5 -12q-6 -6 -13 -6h-149zM808 1434
q-3 -57 -24 -106q-22 -49 -59 -84q-38 -36 -90 -56q-52 -21 -115 -21t-115 21q-52 20 -89 56q-38 35 -59 84q-22 49 -25 106q-1 7 5 13q5 5 12 5h92q8 0 14 -5q5 -6 6 -13q6 -57 47 -94q40 -37 112 -37q69 0 111 37q42 36 48 94q1 7 7 13q5 5 13 5h92q7 0 13 -5q5 -6 4 -13z
" />
    <glyph glyph-name="Aogonek" unicode="&#x104;" horiz-adv-x="1266" 
d="M868 590l-241 704l-238 -704h479zM1090 0q-8 0 -15 5t-10 12l-141 411h-590l-138 -411q-2 -7 -9 -12t-15 -5h-158q-7 0 -10 6q-4 5 -2 11l502 1399q2 7 10 13q7 5 14 5h213q8 0 15 -5q7 -6 10 -13l498 -1399q2 -6 -2 -11q-4 -6 -11 -6h-161zM1180 -393q-113 0 -183 54
q-71 54 -71 142q0 47 18 85q17 39 46 69t67 53t79 39q7 3 15 0q7 -3 11 -9l14 -23q4 -7 3 -14q-2 -8 -9 -12q-15 -10 -32 -26q-17 -15 -31 -35q-15 -19 -24 -42q-10 -23 -10 -48q0 -50 35 -74q34 -24 86 -24h86q7 0 13 -6q6 -5 6 -12v-99q0 -7 -6 -13q-6 -5 -13 -5h-100z
" />
    <glyph glyph-name="aogonek" unicode="&#x105;" horiz-adv-x="1083" 
d="M236 539q0 -94 18 -172t54 -133q36 -56 91 -86q55 -31 129 -31q137 0 216 101q78 101 79 300q1 190 -68 300q-70 109 -197 119q-6 1 -21 1h-23q-71 -3 -123 -33q-53 -31 -87 -83t-51 -124q-17 -73 -17 -159zM834 0q-7 0 -13 6q-6 5 -5 12l3 152q-53 -89 -138 -139
q-85 -51 -200 -51q-106 0 -188 43q-82 42 -136 115q-55 73 -83 173q-29 99 -29 213t30 215t86 175t138 118q82 43 186 43q112 0 197 -46q84 -47 135 -134l-3 141q-1 7 5 13q5 6 12 6h152q7 0 13 -6q5 -6 5 -13l-6 -499l6 -519q0 -7 -5 -12q-6 -6 -13 -6h-149zM940 -393
q-113 0 -183 54q-71 54 -71 142q0 47 18 85q17 39 46 69t67 53t79 39q7 3 15 0q7 -3 11 -9l14 -23q4 -7 3 -14q-2 -8 -9 -12q-15 -10 -32 -26q-17 -15 -31 -35q-15 -19 -24 -42q-10 -23 -10 -48q0 -50 35 -74q34 -24 86 -24h86q7 0 13 -6q6 -5 6 -12v-99q0 -7 -6 -13
q-6 -5 -13 -5h-100z" />
    <glyph glyph-name="Cacute" unicode="&#x106;" horiz-adv-x="1370" 
d="M1329 506q-20 -136 -72 -237t-130 -166t-182 -97q-104 -33 -226 -33q-157 0 -281 52q-125 51 -210 147q-86 96 -131 235q-46 139 -46 312q0 169 47 307q46 137 133 233q86 96 210 149q124 52 278 52q107 0 205 -26q98 -27 177 -86q78 -59 135 -155q57 -97 82 -235
q1 -7 -3 -12q-5 -6 -12 -6h-152q-7 0 -14 6q-7 5 -8 12q-17 88 -54 154q-37 65 -90 108q-53 42 -121 63q-69 20 -147 20q-112 0 -200 -41q-88 -42 -147 -118q-60 -76 -91 -184q-31 -109 -31 -241q0 -144 32 -255t92 -184q60 -74 147 -111q87 -38 196 -38q178 0 289 97
q111 96 133 278q1 7 7 13q6 5 13 5h156q7 0 12 -5q5 -6 4 -13zM532 1536q-7 -2 -14 1q-8 3 -10 10l-27 62q-3 7 0 15q2 7 9 10l442 210q7 3 14 0t9 -10l39 -115q2 -7 -1 -14t-10 -9z" />
    <glyph glyph-name="cacute" unicode="&#x107;" horiz-adv-x="1036" 
d="M1000 379q-8 -87 -43 -161q-35 -75 -94 -128q-59 -54 -141 -84q-82 -31 -183 -31q-118 0 -210 40q-93 39 -155 111q-63 71 -96 173q-33 101 -33 225t33 227q33 102 96 175t157 113q93 40 212 40q97 0 176 -27t136 -75q56 -49 90 -117q34 -69 43 -152q1 -7 -4 -12
q-6 -6 -13 -6h-135q-8 0 -14 6q-7 5 -8 12q-20 115 -92 174q-73 58 -179 58q-154 0 -229 -109q-76 -109 -76 -305q0 -200 76 -306q75 -106 229 -107q118 0 194 69t89 197q1 7 7 13q6 5 13 5h137q7 0 13 -5q5 -6 4 -13zM360 1157q-7 -2 -14 1q-8 3 -10 10l-27 62q-3 7 0 15
q2 7 9 10l442 210q7 3 14 0t9 -10l39 -115q2 -7 -1 -14t-10 -9z" />
    <glyph glyph-name="Ccircumflex" unicode="&#x108;" horiz-adv-x="1370" 
d="M1329 506q-20 -136 -72 -237t-130 -166t-182 -97q-104 -33 -226 -33q-157 0 -281 52q-125 51 -210 147q-86 96 -131 235q-46 139 -46 312q0 169 47 307q46 137 133 233q86 96 210 149q124 52 278 52q107 0 205 -26q98 -27 177 -86q78 -59 135 -155q57 -97 82 -235
q1 -7 -3 -12q-5 -6 -12 -6h-152q-7 0 -14 6q-7 5 -8 12q-17 88 -54 154q-37 65 -90 108q-53 42 -121 63q-69 20 -147 20q-112 0 -200 -41q-88 -42 -147 -118q-60 -76 -91 -184q-31 -109 -31 -241q0 -144 32 -255t92 -184q60 -74 147 -111q87 -38 196 -38q178 0 289 97
q111 96 133 278q1 7 7 13q6 5 13 5h156q7 0 12 -5q5 -6 4 -13zM1010 1551q-3 -7 -10 -9q-7 -3 -14 0l-280 129l-280 -129q-7 -3 -14 0q-7 2 -10 9l-27 64q-3 7 0 15q2 8 9 12l265 165q7 4 17 7q9 3 17 3h46q8 0 18 -3q9 -3 16 -7l265 -165q7 -4 10 -12q2 -8 -1 -15z" />
    <glyph glyph-name="ccircumflex" unicode="&#x109;" horiz-adv-x="1036" 
d="M1000 379q-8 -87 -43 -161q-35 -75 -94 -128q-59 -54 -141 -84q-82 -31 -183 -31q-118 0 -210 40q-93 39 -155 111q-63 71 -96 173q-33 101 -33 225t33 227q33 102 96 175t157 113q93 40 212 40q97 0 176 -27t136 -75q56 -49 90 -117q34 -69 43 -152q1 -7 -4 -12
q-6 -6 -13 -6h-135q-8 0 -14 6q-7 5 -8 12q-20 115 -92 174q-73 58 -179 58q-154 0 -229 -109q-76 -109 -76 -305q0 -200 76 -306q75 -106 229 -107q118 0 194 69t89 197q1 7 7 13q6 5 13 5h137q7 0 13 -5q5 -6 4 -13zM829 1172q-3 -7 -10 -9q-7 -3 -14 0l-280 129
l-280 -129q-7 -3 -14 0q-7 2 -10 9l-27 64q-3 7 0 15q2 8 9 12l265 165q7 4 17 7q9 3 17 3h46q8 0 18 -3q9 -3 16 -7l265 -165q7 -4 10 -12q2 -8 -1 -15z" />
    <glyph glyph-name="Cdotaccent" unicode="&#x10a;" horiz-adv-x="1370" 
d="M1329 506q-20 -136 -72 -237t-130 -166t-182 -97q-104 -33 -226 -33q-157 0 -281 52q-125 51 -210 147q-86 96 -131 235q-46 139 -46 312q0 169 47 307q46 137 133 233q86 96 210 149q124 52 278 52q107 0 205 -26q98 -27 177 -86q78 -59 135 -155q57 -97 82 -235
q1 -7 -3 -12q-5 -6 -12 -6h-152q-7 0 -14 6q-7 5 -8 12q-17 88 -54 154q-37 65 -90 108q-53 42 -121 63q-69 20 -147 20q-112 0 -200 -41q-88 -42 -147 -118q-60 -76 -91 -184q-31 -109 -31 -241q0 -144 32 -255t92 -184q60 -74 147 -111q87 -38 196 -38q178 0 289 97
q111 96 133 278q1 7 7 13q6 5 13 5h156q7 0 12 -5q5 -6 4 -13zM629 1555q-7 0 -12 6q-6 5 -6 12v168q0 7 6 13q5 5 12 5h154q7 0 13 -5q5 -6 5 -13v-168q0 -7 -5 -12q-6 -6 -13 -6h-154z" />
    <glyph glyph-name="cdotaccent" unicode="&#x10b;" horiz-adv-x="1036" 
d="M1000 379q-8 -87 -43 -161q-35 -75 -94 -128q-59 -54 -141 -84q-82 -31 -183 -31q-118 0 -210 40q-93 39 -155 111q-63 71 -96 173q-33 101 -33 225t33 227q33 102 96 175t157 113q93 40 212 40q97 0 176 -27t136 -75q56 -49 90 -117q34 -69 43 -152q1 -7 -4 -12
q-6 -6 -13 -6h-135q-8 0 -14 6q-7 5 -8 12q-20 115 -92 174q-73 58 -179 58q-154 0 -229 -109q-76 -109 -76 -305q0 -200 76 -306q75 -106 229 -107q118 0 194 69t89 197q1 7 7 13q6 5 13 5h137q7 0 13 -5q5 -6 4 -13zM456 1176q-7 0 -12 6q-6 5 -6 12v168q0 7 6 13
q5 5 12 5h154q7 0 13 -5q5 -6 5 -13v-168q0 -7 -5 -12q-6 -6 -13 -6h-154z" />
    <glyph glyph-name="Ccaron" unicode="&#x10c;" horiz-adv-x="1370" 
d="M1329 506q-20 -136 -72 -237t-130 -166t-182 -97q-104 -33 -226 -33q-157 0 -281 52q-125 51 -210 147q-86 96 -131 235q-46 139 -46 312q0 169 47 307q46 137 133 233q86 96 210 149q124 52 278 52q107 0 205 -26q98 -27 177 -86q78 -59 135 -155q57 -97 82 -235
q1 -7 -3 -12q-5 -6 -12 -6h-152q-7 0 -14 6q-7 5 -8 12q-17 88 -54 154q-37 65 -90 108q-53 42 -121 63q-69 20 -147 20q-112 0 -200 -41q-88 -42 -147 -118q-60 -76 -91 -184q-31 -109 -31 -241q0 -144 32 -255t92 -184q60 -74 147 -111q87 -38 196 -38q178 0 289 97
q111 96 133 278q1 7 7 13q6 5 13 5h156q7 0 12 -5q5 -6 4 -13zM763 1550q-7 -4 -16 -7q-10 -3 -18 -3h-46q-8 0 -17 3q-10 3 -17 7l-265 165q-7 4 -9 12q-3 8 0 15l27 64q3 7 10 10q7 2 14 -1l282 -129l278 129q7 3 14 1q7 -3 10 -10l27 -64q3 -7 1 -15q-3 -8 -10 -12z" />
    <glyph glyph-name="ccaron" unicode="&#x10d;" horiz-adv-x="1036" 
d="M1000 379q-8 -87 -43 -161q-35 -75 -94 -128q-59 -54 -141 -84q-82 -31 -183 -31q-118 0 -210 40q-93 39 -155 111q-63 71 -96 173q-33 101 -33 225t33 227q33 102 96 175t157 113q93 40 212 40q97 0 176 -27t136 -75q56 -49 90 -117q34 -69 43 -152q1 -7 -4 -12
q-6 -6 -13 -6h-135q-8 0 -14 6q-7 5 -8 12q-20 115 -92 174q-73 58 -179 58q-154 0 -229 -109q-76 -109 -76 -305q0 -200 76 -306q75 -106 229 -107q118 0 194 69t89 197q1 7 7 13q6 5 13 5h137q7 0 13 -5q5 -6 4 -13zM588 1171q-7 -4 -16 -7q-10 -3 -18 -3h-46q-8 0 -17 3
q-10 3 -17 7l-265 165q-7 4 -9 12q-3 8 0 15l27 64q3 7 10 10q7 2 14 -1l282 -129l278 129q7 3 14 1q7 -3 10 -10l27 -64q3 -7 1 -15q-3 -8 -10 -12z" />
    <glyph glyph-name="Dcaron" unicode="&#x10e;" horiz-adv-x="1339" 
d="M111 0q-7 0 -13 6q-6 5 -6 12l8 717l-8 680q0 7 6 13t13 6h452q154 0 287 -46q133 -47 230 -137t153 -224q55 -135 55 -310q0 -183 -59 -318q-59 -136 -157 -224q-99 -88 -230 -131q-131 -44 -275 -44h-456zM283 739q0 -50 1 -147q1 -98 2 -194q1 -97 2 -170t1 -74h295
q95 0 187 32q91 32 162 100t115 175t44 256q0 141 -41 248q-41 106 -110 176q-70 69 -165 104t-201 35h-286q0 -1 -1 -67q-1 -67 -2 -156t-2 -179q-1 -91 -1 -139zM709 1550q-7 -4 -16 -7q-10 -3 -18 -3h-46q-8 0 -17 3q-10 3 -17 7l-265 165q-7 4 -9 12q-3 8 0 15l27 64
q3 7 10 10q7 2 14 -1l282 -129l278 129q7 3 14 1q7 -3 10 -10l27 -64q3 -7 1 -15q-3 -8 -10 -12z" />
    <glyph glyph-name="dcaron" unicode="&#x10f;" horiz-adv-x="1083" 
d="M236 539q0 -95 18 -173q18 -79 54 -134q36 -56 91 -86q55 -31 129 -31q135 0 215 102q79 101 80 301q1 199 -75 311t-216 113q-75 1 -131 -29t-92 -83q-37 -53 -55 -128t-18 -163zM831 0q-7 0 -12 6q-6 5 -5 12l3 148q-51 -87 -137 -136q-86 -50 -199 -50q-106 0 -188 42
t-136 115q-55 73 -83 173q-29 99 -29 214q0 114 30 215t86 175t138 118q82 43 186 43q109 0 193 -45q83 -45 137 -131l-2 516q0 7 6 13q5 6 12 6h152q7 0 13 -6q5 -6 5 -13l-4 -620l4 -777q0 -7 -5 -12q-6 -6 -13 -6h-152zM1182 1117q-1 -7 -8 -12t-15 -5h-88q-7 0 -11 6
q-5 5 -4 12l73 389q1 8 8 14q7 5 14 5h123q7 0 11 -5q4 -6 2 -13z" />
    <glyph glyph-name="Dcroat" unicode="&#x110;" horiz-adv-x="1374" 
d="M145 0q-7 0 -12 6q-6 5 -6 12l8 662h-121q-7 0 -12 6q-6 5 -6 12v117q0 7 6 13q5 6 12 6h120l-7 581q0 7 6 13q5 6 12 6h453q154 0 287 -46q133 -47 230 -137t153 -224q55 -135 55 -310q0 -183 -59 -318q-59 -136 -157 -224q-99 -88 -230 -131q-131 -44 -275 -44h-457z
M618 154q95 0 187 32q91 32 162 100t115 175t44 256q0 141 -40 248q-41 106 -111 176q-70 69 -164 104q-95 35 -201 35h-286q0 -1 -1 -47t-2 -113t-2 -145t-1 -141h397q7 0 13 -6q5 -6 5 -13v-117q0 -7 -5 -12q-6 -6 -13 -6h-397q0 -65 1 -155q1 -91 2 -173t2 -140l1 -58
h294z" />
    <glyph glyph-name="dcroat" unicode="&#x111;" horiz-adv-x="1069" 
d="M236 539q0 -95 18 -173q18 -79 54 -134q36 -56 91 -86q55 -31 129 -31q135 0 215 102q79 101 80 301q1 199 -75 311t-216 113q-75 1 -131 -29t-92 -83q-37 -53 -55 -128t-18 -163zM818 166q-53 -87 -138 -136q-86 -50 -199 -50q-106 0 -188 42t-136 115q-55 73 -83 173
q-29 99 -29 214q0 114 30 215t86 175t138 118q82 43 186 43q110 0 194 -45q83 -45 136 -131l-1 264h-312q-7 0 -13 6t-6 13v104q0 7 6 13t13 6h311v110q0 7 6 13q5 6 12 6h152q7 0 13 -6q5 -6 5 -13v-110h105q7 0 13 -6q5 -6 5 -13v-104q0 -7 -5 -13q-6 -6 -13 -6h-106
l-3 -368l4 -777q0 -7 -5 -12q-6 -6 -13 -6h-152q-7 0 -12 6q-6 5 -5 12z" />
    <glyph glyph-name="Emacron" unicode="&#x112;" horiz-adv-x="1059" 
d="M109 0q-7 0 -13 6q-6 5 -6 12l8 721l-8 676q0 7 6 13t13 6h866q7 0 13 -6q5 -6 5 -13v-117q0 -7 -5 -12q-6 -6 -13 -6h-688l-8 -438h647q7 0 13 -6q5 -6 5 -13v-116q0 -7 -5 -13q-6 -6 -13 -6h-647l8 -534h704q7 0 13 -6t6 -13v-117q0 -7 -6 -12q-6 -6 -13 -6h-882z
M299 1585q-7 0 -12 6q-6 6 -6 13v102q0 7 6 13q5 6 12 6h564q7 0 13 -6q5 -6 5 -13v-102q0 -7 -5 -13q-6 -6 -13 -6h-564z" />
    <glyph glyph-name="emacron" unicode="&#x113;" horiz-adv-x="1073" 
d="M996 367q7 0 12 -6q4 -6 3 -13q-12 -81 -48 -149q-36 -69 -94 -118q-58 -50 -138 -78q-81 -28 -182 -28q-122 0 -217 41t-158 114q-63 72 -96 173t-33 221q0 123 35 226q34 102 98 175q63 73 155 114q92 40 206 40t205 -38q91 -39 154 -110q62 -72 96 -176t36 -235
q0 -7 -5 -12q-6 -6 -13 -6h-779q5 -190 85 -289q79 -100 233 -100q116 0 187 60q70 60 94 175q1 8 8 14q7 5 14 5h142zM829 633q-2 63 -21 120q-20 56 -55 99q-36 42 -89 67q-54 25 -123 25q-130 0 -206 -81q-76 -82 -95 -230h589zM254 1206q-7 0 -12 6q-6 6 -6 13v102
q0 7 6 13q5 6 12 6h564q7 0 13 -6q5 -6 5 -13v-102q0 -7 -5 -13q-6 -6 -13 -6h-564z" />
    <glyph glyph-name="Ebreve" unicode="&#x114;" horiz-adv-x="1059" 
d="M109 0q-7 0 -13 6q-6 5 -6 12l8 721l-8 676q0 7 6 13t13 6h866q7 0 13 -6q5 -6 5 -13v-117q0 -7 -5 -12q-6 -6 -13 -6h-688l-8 -438h647q7 0 13 -6q5 -6 5 -13v-116q0 -7 -5 -13q-6 -6 -13 -6h-647l8 -534h704q7 0 13 -6t6 -13v-117q0 -7 -6 -12q-6 -6 -13 -6h-882z
M868 1813q-3 -57 -24 -106q-22 -49 -59 -84q-38 -36 -90 -56q-52 -21 -115 -21t-115 21q-52 20 -89 56q-38 35 -59 84q-22 49 -25 106q-1 7 5 13q5 5 12 5h92q8 0 14 -5q5 -6 6 -13q6 -57 47 -94q40 -37 112 -37q69 0 111 37q42 36 48 94q1 7 7 13q5 5 13 5h92q7 0 13 -5
q5 -6 4 -13z" />
    <glyph glyph-name="ebreve" unicode="&#x115;" horiz-adv-x="1073" 
d="M996 367q7 0 12 -6q4 -6 3 -13q-12 -81 -48 -149q-36 -69 -94 -118q-58 -50 -138 -78q-81 -28 -182 -28q-122 0 -217 41t-158 114q-63 72 -96 173t-33 221q0 123 35 226q34 102 98 175q63 73 155 114q92 40 206 40t205 -38q91 -39 154 -110q62 -72 96 -176t36 -235
q0 -7 -5 -12q-6 -6 -13 -6h-779q5 -190 85 -289q79 -100 233 -100q116 0 187 60q70 60 94 175q1 8 8 14q7 5 14 5h142zM829 633q-2 63 -21 120q-20 56 -55 99q-36 42 -89 67q-54 25 -123 25q-130 0 -206 -81q-76 -82 -95 -230h589zM827 1434q-3 -57 -24 -106
q-22 -49 -59 -84q-38 -36 -90 -56q-52 -21 -115 -21t-115 21q-52 20 -89 56q-38 35 -59 84q-22 49 -25 106q-1 7 5 13q5 5 12 5h92q8 0 14 -5q5 -6 6 -13q6 -57 47 -94q40 -37 112 -37q69 0 111 37q42 36 48 94q1 7 7 13q5 5 13 5h92q7 0 13 -5q5 -6 4 -13z" />
    <glyph glyph-name="Edotaccent" unicode="&#x116;" horiz-adv-x="1059" 
d="M109 0q-7 0 -13 6q-6 5 -6 12l8 721l-8 676q0 7 6 13t13 6h866q7 0 13 -6q5 -6 5 -13v-117q0 -7 -5 -12q-6 -6 -13 -6h-688l-8 -438h647q7 0 13 -6q5 -6 5 -13v-116q0 -7 -5 -13q-6 -6 -13 -6h-647l8 -534h704q7 0 13 -6t6 -13v-117q0 -7 -6 -12q-6 -6 -13 -6h-882z
M504 1555q-7 0 -12 6q-6 5 -6 12v168q0 7 6 13q5 5 12 5h154q7 0 13 -5q5 -6 5 -13v-168q0 -7 -5 -12q-6 -6 -13 -6h-154z" />
    <glyph glyph-name="edotaccent" unicode="&#x117;" horiz-adv-x="1073" 
d="M996 367q7 0 12 -6q4 -6 3 -13q-12 -81 -48 -149q-36 -69 -94 -118q-58 -50 -138 -78q-81 -28 -182 -28q-122 0 -217 41t-158 114q-63 72 -96 173t-33 221q0 123 35 226q34 102 98 175q63 73 155 114q92 40 206 40t205 -38q91 -39 154 -110q62 -72 96 -176t36 -235
q0 -7 -5 -12q-6 -6 -13 -6h-779q5 -190 85 -289q79 -100 233 -100q116 0 187 60q70 60 94 175q1 8 8 14q7 5 14 5h142zM829 633q-2 63 -21 120q-20 56 -55 99q-36 42 -89 67q-54 25 -123 25q-130 0 -206 -81q-76 -82 -95 -230h589zM465 1176q-7 0 -12 6q-6 5 -6 12v168
q0 7 6 13q5 5 12 5h154q7 0 13 -5q5 -6 5 -13v-168q0 -7 -5 -12q-6 -6 -13 -6h-154z" />
    <glyph glyph-name="Eogonek" unicode="&#x118;" horiz-adv-x="1059" 
d="M109 0q-7 0 -13 6q-6 5 -6 12l8 721l-8 676q0 7 6 13t13 6h866q7 0 13 -6q5 -6 5 -13v-117q0 -7 -5 -12q-6 -6 -13 -6h-688l-8 -438h647q7 0 13 -6q5 -6 5 -13v-116q0 -7 -5 -13q-6 -6 -13 -6h-647l8 -534h704q7 0 13 -6t6 -13v-117q0 -7 -6 -12q-6 -6 -13 -6h-882z
M901 -393q-113 0 -183 54q-71 54 -71 142q0 47 18 85q17 39 46 69t67 53t79 39q7 3 15 0q7 -3 11 -9l14 -23q4 -7 3 -14q-2 -8 -9 -12q-15 -10 -32 -26q-17 -15 -31 -35q-15 -19 -24 -42q-10 -23 -10 -48q0 -50 35 -74q34 -24 86 -24h86q7 0 13 -6q6 -5 6 -12v-99
q0 -7 -6 -13q-6 -5 -13 -5h-100z" />
    <glyph glyph-name="eogonek" unicode="&#x119;" horiz-adv-x="1073" 
d="M996 367q7 0 12 -6q4 -6 3 -13q-12 -81 -48 -149q-36 -69 -94 -118q-58 -50 -138 -78q-81 -28 -182 -28q-122 0 -217 41t-158 114q-63 72 -96 173t-33 221q0 123 35 226q34 102 98 175q63 73 155 114q92 40 206 40t205 -38q91 -39 154 -110q62 -72 96 -176t36 -235
q0 -7 -5 -12q-6 -6 -13 -6h-779q5 -190 85 -289q79 -100 233 -100q116 0 187 60q70 60 94 175q1 8 8 14q7 5 14 5h142zM829 633q-2 63 -21 120q-20 56 -55 99q-36 42 -89 67q-54 25 -123 25q-130 0 -206 -81q-76 -82 -95 -230h589zM705 -393q-113 0 -183 54q-71 54 -71 142
q0 47 18 85q17 39 46 69t67 53t79 39q7 3 15 0q7 -3 11 -9l14 -23q4 -7 3 -14q-2 -8 -9 -12q-15 -10 -32 -26q-17 -15 -31 -35q-15 -19 -24 -42q-10 -23 -10 -48q0 -50 35 -74q34 -24 86 -24h86q7 0 13 -6q6 -5 6 -12v-99q0 -7 -6 -13q-6 -5 -13 -5h-100z" />
    <glyph glyph-name="Ecaron" unicode="&#x11a;" horiz-adv-x="1059" 
d="M109 0q-7 0 -13 6q-6 5 -6 12l8 721l-8 676q0 7 6 13t13 6h866q7 0 13 -6q5 -6 5 -13v-117q0 -7 -5 -12q-6 -6 -13 -6h-688l-8 -438h647q7 0 13 -6q5 -6 5 -13v-116q0 -7 -5 -13q-6 -6 -13 -6h-647l8 -534h704q7 0 13 -6t6 -13v-117q0 -7 -6 -12q-6 -6 -13 -6h-882z
M636 1550q-7 -4 -16 -7q-10 -3 -18 -3h-46q-8 0 -17 3q-10 3 -17 7l-265 165q-7 4 -9 12q-3 8 0 15l27 64q3 7 10 10q7 2 14 -1l282 -129l278 129q7 3 14 1q7 -3 10 -10l27 -64q3 -7 1 -15q-3 -8 -10 -12z" />
    <glyph glyph-name="ecaron" unicode="&#x11b;" horiz-adv-x="1073" 
d="M996 367q7 0 12 -6q4 -6 3 -13q-12 -81 -48 -149q-36 -69 -94 -118q-58 -50 -138 -78q-81 -28 -182 -28q-122 0 -217 41t-158 114q-63 72 -96 173t-33 221q0 123 35 226q34 102 98 175q63 73 155 114q92 40 206 40t205 -38q91 -39 154 -110q62 -72 96 -176t36 -235
q0 -7 -5 -12q-6 -6 -13 -6h-779q5 -190 85 -289q79 -100 233 -100q116 0 187 60q70 60 94 175q1 8 8 14q7 5 14 5h142zM829 633q-2 63 -21 120q-20 56 -55 99q-36 42 -89 67q-54 25 -123 25q-130 0 -206 -81q-76 -82 -95 -230h589zM591 1171q-7 -4 -16 -7q-10 -3 -18 -3h-46
q-8 0 -17 3q-10 3 -17 7l-265 165q-7 4 -9 12q-3 8 0 15l27 64q3 7 10 10q7 2 14 -1l282 -129l278 129q7 3 14 1q7 -3 10 -10l27 -64q3 -7 1 -15q-3 -8 -10 -12z" />
    <glyph glyph-name="Gcircumflex" unicode="&#x11c;" horiz-adv-x="1391" 
d="M1342 727q1 -183 -39 -324q-41 -142 -121 -237t-199 -144q-120 -49 -274 -49q-144 0 -265 53q-122 53 -208 150q-87 97 -136 235t-49 306q0 171 49 309q48 138 135 234q86 96 207 148q120 52 263 52q119 0 219 -30q100 -31 176 -90t129 -146t78 -199q1 -7 -3 -12
q-5 -6 -12 -6h-157q-8 0 -14 5q-7 5 -9 13q-37 151 -143 231q-106 79 -264 79q-103 0 -188 -40q-85 -41 -144 -117q-60 -76 -92 -186q-33 -110 -33 -247q0 -135 34 -244q33 -109 93 -184q60 -76 146 -117t190 -41q103 0 183 33q80 32 135 93q54 60 83 147q28 86 29 192h-430
q-7 0 -13 6q-6 5 -6 12v115q0 7 6 13q6 5 13 5h612q7 0 13 -5q6 -6 6 -13zM999 1551q-3 -7 -10 -9q-7 -3 -14 0l-280 129l-280 -129q-7 -3 -14 0q-7 2 -10 9l-27 64q-3 7 0 15q2 8 9 12l265 165q7 4 17 7q9 3 17 3h46q8 0 18 -3q9 -3 16 -7l265 -165q7 -4 10 -12
q2 -8 -1 -15z" />
    <glyph glyph-name="gcircumflex" unicode="&#x11d;" horiz-adv-x="1079" 
d="M233 537q0 -190 77 -294q77 -105 227 -104q128 0 207 95q78 94 79 288q1 187 -68 296q-70 109 -197 119q-6 1 -21 1h-23q-69 -3 -122 -32q-53 -30 -88 -82t-53 -125t-18 -162zM997 72q1 -226 -121 -350q-123 -123 -348 -123q-90 -1 -169 17q-80 19 -140 59
q-61 40 -99 102t-45 147q-1 7 5 13q5 6 12 6h147q8 0 14 -6q6 -5 7 -13q15 -97 89 -144q74 -46 183 -46q132 0 212 81q79 81 79 259v116q-50 -87 -133 -135q-84 -49 -194 -49t-195 40q-85 39 -141 109q-57 70 -86 167q-29 96 -29 208t30 211q29 99 86 172q56 73 139 116
q83 42 189 42q110 0 195 -46q84 -47 135 -134l-5 145q-1 7 5 13q5 6 12 6h150q7 0 13 -6q5 -6 5 -13l-4 -403zM835 1172q-3 -7 -10 -9q-7 -3 -14 0l-280 129l-280 -129q-7 -3 -14 0q-7 2 -10 9l-27 64q-3 7 0 15q2 8 9 12l265 165q7 4 17 7q9 3 17 3h46q8 0 18 -3
q9 -3 16 -7l265 -165q7 -4 10 -12q2 -8 -1 -15z" />
    <glyph glyph-name="Gbreve" unicode="&#x11e;" horiz-adv-x="1391" 
d="M1342 727q1 -183 -39 -324q-41 -142 -121 -237t-199 -144q-120 -49 -274 -49q-144 0 -265 53q-122 53 -208 150q-87 97 -136 235t-49 306q0 171 49 309q48 138 135 234q86 96 207 148q120 52 263 52q119 0 219 -30q100 -31 176 -90t129 -146t78 -199q1 -7 -3 -12
q-5 -6 -12 -6h-157q-8 0 -14 5q-7 5 -9 13q-37 151 -143 231q-106 79 -264 79q-103 0 -188 -40q-85 -41 -144 -117q-60 -76 -92 -186q-33 -110 -33 -247q0 -135 34 -244q33 -109 93 -184q60 -76 146 -117t190 -41q103 0 183 33q80 32 135 93q54 60 83 147q28 86 29 192h-430
q-7 0 -13 6q-6 5 -6 12v115q0 7 6 13q6 5 13 5h612q7 0 13 -5q6 -6 6 -13zM978 1813q-3 -57 -24 -106q-22 -49 -59 -84q-38 -36 -90 -56q-52 -21 -115 -21t-115 21q-52 20 -89 56q-38 35 -59 84q-22 49 -25 106q-1 7 5 13q5 5 12 5h92q8 0 14 -5q5 -6 6 -13q6 -57 47 -94
q40 -37 112 -37q69 0 111 37q42 36 48 94q1 7 7 13q5 5 13 5h92q7 0 13 -5q5 -6 4 -13z" />
    <glyph glyph-name="gbreve" unicode="&#x11f;" horiz-adv-x="1079" 
d="M233 537q0 -190 77 -294q77 -105 227 -104q128 0 207 95q78 94 79 288q1 187 -68 296q-70 109 -197 119q-6 1 -21 1h-23q-69 -3 -122 -32q-53 -30 -88 -82t-53 -125t-18 -162zM997 72q1 -226 -121 -350q-123 -123 -348 -123q-90 -1 -169 17q-80 19 -140 59
q-61 40 -99 102t-45 147q-1 7 5 13q5 6 12 6h147q8 0 14 -6q6 -5 7 -13q15 -97 89 -144q74 -46 183 -46q132 0 212 81q79 81 79 259v116q-50 -87 -133 -135q-84 -49 -194 -49t-195 40q-85 39 -141 109q-57 70 -86 167q-29 96 -29 208t30 211q29 99 86 172q56 73 139 116
q83 42 189 42q110 0 195 -46q84 -47 135 -134l-5 145q-1 7 5 13q5 6 12 6h150q7 0 13 -6q5 -6 5 -13l-4 -403zM814 1434q-3 -57 -24 -106q-22 -49 -59 -84q-38 -36 -90 -56q-52 -21 -115 -21t-115 21q-52 20 -89 56q-38 35 -59 84q-22 49 -25 106q-1 7 5 13q5 5 12 5h92
q8 0 14 -5q5 -6 6 -13q6 -57 47 -94q40 -37 112 -37q69 0 111 37q42 36 48 94q1 7 7 13q5 5 13 5h92q7 0 13 -5q5 -6 4 -13z" />
    <glyph glyph-name="Gdotaccent" unicode="&#x120;" horiz-adv-x="1391" 
d="M1342 727q1 -183 -39 -324q-41 -142 -121 -237t-199 -144q-120 -49 -274 -49q-144 0 -265 53q-122 53 -208 150q-87 97 -136 235t-49 306q0 171 49 309q48 138 135 234q86 96 207 148q120 52 263 52q119 0 219 -30q100 -31 176 -90t129 -146t78 -199q1 -7 -3 -12
q-5 -6 -12 -6h-157q-8 0 -14 5q-7 5 -9 13q-37 151 -143 231q-106 79 -264 79q-103 0 -188 -40q-85 -41 -144 -117q-60 -76 -92 -186q-33 -110 -33 -247q0 -135 34 -244q33 -109 93 -184q60 -76 146 -117t190 -41q103 0 183 33q80 32 135 93q54 60 83 147q28 86 29 192h-430
q-7 0 -13 6q-6 5 -6 12v115q0 7 6 13q6 5 13 5h612q7 0 13 -5q6 -6 6 -13zM631 1555q-7 0 -12 6q-6 5 -6 12v168q0 7 6 13q5 5 12 5h154q7 0 13 -5q5 -6 5 -13v-168q0 -7 -5 -12q-6 -6 -13 -6h-154z" />
    <glyph glyph-name="gdotaccent" unicode="&#x121;" horiz-adv-x="1079" 
d="M233 537q0 -190 77 -294q77 -105 227 -104q128 0 207 95q78 94 79 288q1 187 -68 296q-70 109 -197 119q-6 1 -21 1h-23q-69 -3 -122 -32q-53 -30 -88 -82t-53 -125t-18 -162zM997 72q1 -226 -121 -350q-123 -123 -348 -123q-90 -1 -169 17q-80 19 -140 59
q-61 40 -99 102t-45 147q-1 7 5 13q5 6 12 6h147q8 0 14 -6q6 -5 7 -13q15 -97 89 -144q74 -46 183 -46q132 0 212 81q79 81 79 259v116q-50 -87 -133 -135q-84 -49 -194 -49t-195 40q-85 39 -141 109q-57 70 -86 167q-29 96 -29 208t30 211q29 99 86 172q56 73 139 116
q83 42 189 42q110 0 195 -46q84 -47 135 -134l-5 145q-1 7 5 13q5 6 12 6h150q7 0 13 -6q5 -6 5 -13l-4 -403zM452 1176q-7 0 -12 6q-6 5 -6 12v168q0 7 6 13q5 5 12 5h154q7 0 13 -5q5 -6 5 -13v-168q0 -7 -5 -12q-6 -6 -13 -6h-154z" />
    <glyph glyph-name="Gcommaaccent" unicode="&#x122;" horiz-adv-x="1391" 
d="M1342 727q1 -183 -39 -324q-41 -142 -121 -237t-199 -144q-120 -49 -274 -49q-144 0 -265 53q-122 53 -208 150q-87 97 -136 235t-49 306q0 171 49 309q48 138 135 234q86 96 207 148q120 52 263 52q119 0 219 -30q100 -31 176 -90t129 -146t78 -199q1 -7 -3 -12
q-5 -6 -12 -6h-157q-8 0 -14 5q-7 5 -9 13q-37 151 -143 231q-106 79 -264 79q-103 0 -188 -40q-85 -41 -144 -117q-60 -76 -92 -186q-33 -110 -33 -247q0 -135 34 -244q33 -109 93 -184q60 -76 146 -117t190 -41q103 0 183 33q80 32 135 93q54 60 83 147q28 86 29 192h-430
q-7 0 -13 6q-6 5 -6 12v115q0 7 6 13q6 5 13 5h612q7 0 13 -5q6 -6 6 -13zM602 -436q-7 0 -11 5q-4 6 -3 13l42 162v160q0 7 6 12q6 6 13 6h119q7 0 13 -6q5 -5 5 -12v-142q0 -8 -3 -18q-3 -9 -7 -16l-89 -148q-4 -7 -12 -12q-8 -4 -16 -4h-57z" />
    <glyph glyph-name="gcommaaccent" unicode="&#x123;" horiz-adv-x="1079" 
d="M233 537q0 -190 77 -294q77 -105 227 -104q128 0 207 95q78 94 79 288q1 187 -68 296q-70 109 -197 119q-6 1 -21 1h-23q-69 -3 -122 -32q-53 -30 -88 -82t-53 -125t-18 -162zM997 72q1 -226 -121 -350q-123 -123 -348 -123q-90 -1 -169 17q-80 19 -140 59
q-61 40 -99 102t-45 147q-1 7 5 13q5 6 12 6h147q8 0 14 -6q6 -5 7 -13q15 -97 89 -144q74 -46 183 -46q132 0 212 81q79 81 79 259v116q-50 -87 -133 -135q-84 -49 -194 -49t-195 40q-85 39 -141 109q-57 70 -86 167q-29 96 -29 208t30 211q29 99 86 172q56 73 139 116
q83 42 189 42q110 0 195 -46q84 -47 135 -134l-5 145q-1 7 5 13q5 6 12 6h150q7 0 13 -6q5 -6 5 -13l-4 -403zM453 1188q-7 0 -13 6q-6 5 -6 12v140q0 8 3 17t8 16l115 153q5 6 14 10q8 4 16 4h71q7 0 11 -5q4 -6 3 -12l-48 -165v-158q0 -7 -6 -12q-6 -6 -13 -6h-155z" />
    <glyph glyph-name="Hcircumflex" unicode="&#x124;" horiz-adv-x="1327" 
d="M1057 0q-7 0 -13 6q-6 5 -5 12l8 674h-766l6 -674q0 -7 -6 -12q-6 -6 -13 -6h-159q-7 0 -13 6q-6 5 -6 12l8 691l-8 706q0 7 6 13t13 6h159q7 0 13 -6t6 -13l-4 -569h761l-5 569q-1 7 5 13t13 6h160q7 0 13 -6q5 -6 5 -13l-8 -706l8 -691q0 -7 -5 -12q-6 -6 -13 -6h-160z
M969 1551q-3 -7 -10 -9q-7 -3 -14 0l-280 129l-280 -129q-7 -3 -14 0q-7 2 -10 9l-27 64q-3 7 0 15q2 8 9 12l265 165q7 4 17 7q9 3 17 3h46q8 0 18 -3q9 -3 16 -7l265 -165q7 -4 10 -12q2 -8 -1 -15z" />
    <glyph glyph-name="hcircumflex" unicode="&#x125;" horiz-adv-x="1038" 
d="M780 653q0 74 -16 127q-17 53 -46 87q-29 33 -69 49q-41 16 -88 16q-102 0 -183 -79q-82 -80 -116 -220l6 -615q0 -7 -5 -12q-6 -6 -13 -6h-150q-7 0 -12 6q-6 5 -6 12l6 709l-6 688q0 7 6 13q5 6 12 6h150q7 0 13 -6q5 -6 5 -13l-4 -530q25 40 59 76q33 35 76 62
q42 26 94 41t113 15q83 0 151 -26q67 -27 113 -80q46 -54 71 -137q25 -84 24 -197l-2 -213l5 -408q1 -7 -5 -12q-6 -6 -13 -6h-155q-7 0 -13 6q-6 5 -6 12l6 406zM477 1551q-3 -7 -10 -9q-7 -3 -14 0l-280 129l-280 -129q-7 -3 -14 0q-7 2 -10 9l-27 64q-3 7 -1 15
q3 8 10 12l265 165q7 4 17 7q9 3 17 3h46q8 0 18 -3q9 -3 16 -7l265 -165q7 -4 10 -12q2 -8 -1 -15z" />
    <glyph glyph-name="Hbar" unicode="&#x126;" horiz-adv-x="1360" 
d="M1061 766l-2 240h-758l-2 -240h762zM1075 0q-7 0 -12 6q-6 5 -6 12l4 596h-762l4 -596q0 -7 -5 -12q-6 -6 -13 -6h-158q-7 0 -12 6q-6 5 -6 12l6 691l-2 297h-111q-7 0 -13 6q-5 5 -5 12v117q0 7 5 13q6 5 13 5h109l-2 256q0 7 6 13q5 6 12 6h158q7 0 13 -6q5 -6 5 -13
l-2 -256h758l-2 256q0 7 6 13q5 6 12 6h158q7 0 13 -6q5 -6 5 -13l-2 -256h107q7 0 13 -5q5 -6 5 -13v-117q0 -7 -5 -12q-6 -6 -13 -6h-109l-2 -297l6 -691q0 -7 -5 -12q-6 -6 -13 -6h-158z" />
    <glyph glyph-name="hbar" unicode="&#x127;" horiz-adv-x="1042" 
d="M278 18q0 -7 -5 -12q-6 -6 -13 -6h-149q-7 0 -13 6q-6 5 -6 12l6 709l-3 436h-111q-7 0 -13 6t-6 13v104q0 7 6 13t13 6h109l-1 110q0 7 6 13t13 6h149q7 0 13 -6q5 -6 5 -13v-110h310q7 0 13 -6q5 -6 5 -13v-104q0 -7 -5 -13q-6 -6 -13 -6h-311l-3 -278q25 40 59 76
q33 35 76 62q42 26 94 41t113 15q84 0 151 -26q67 -27 114 -80q46 -54 71 -137q24 -84 23 -197l-2 -213l6 -408q0 -7 -5 -12q-6 -6 -13 -6h-156q-7 0 -12 6q-6 5 -6 12l6 406l-2 229q0 74 -16 127q-17 53 -46 87q-30 33 -70 49q-41 16 -88 16q-102 0 -183 -79
q-82 -80 -116 -220z" />
    <glyph glyph-name="Itilde" unicode="&#x128;" horiz-adv-x="397" 
d="M122 0q-7 0 -13 6q-6 5 -5 12l8 711l-8 686q0 7 6 13q5 6 12 6h158q7 0 13 -6q5 -6 5 -13l-8 -686l8 -711q0 -7 -5 -12q-6 -6 -13 -6h-158zM487 1786q-3 -101 -45 -164t-126 -63q-47 0 -78 21t-55 47q-24 25 -45 46q-22 21 -50 21q-34 0 -50 -29q-17 -30 -19 -78
q0 -7 -6 -12q-6 -6 -13 -6h-68q-7 0 -13 6q-5 5 -4 12q1 48 12 90q12 41 33 72q21 30 53 47q31 17 73 17q47 0 79 -21q31 -22 55 -47q23 -25 44 -46q21 -22 46 -22q37 0 54 31q17 30 19 78q0 7 6 13q6 5 13 5h68q7 0 13 -5q5 -6 4 -13z" />
    <glyph glyph-name="itilde" unicode="&#x129;" horiz-adv-x="371" 
d="M109 0q-7 0 -13 6q-6 5 -6 12l4 525l-4 493q0 7 6 13t13 6h153q7 0 13 -6t5 -13l-4 -491l4 -527q1 -7 -5 -12q-6 -6 -13 -6h-153zM472 1407q-3 -101 -45 -164t-126 -63q-47 0 -78 21t-55 47q-24 25 -45 46q-22 21 -50 21q-34 0 -50 -29q-17 -30 -19 -78q0 -7 -6 -12
q-6 -6 -13 -6h-68q-7 0 -13 6q-5 5 -4 12q1 48 12 90q12 41 33 72q21 30 52 47q32 17 74 17q47 0 79 -21q31 -22 55 -47q23 -25 44 -46q21 -22 46 -22q37 0 54 31q17 30 19 78q0 7 6 13q6 5 13 5h68q7 0 13 -5q5 -6 4 -13z" />
    <glyph glyph-name="Imacron" unicode="&#x12a;" horiz-adv-x="397" 
d="M122 0q-7 0 -13 6q-6 5 -5 12l8 711l-8 686q0 7 6 13q5 6 12 6h158q7 0 13 -6q5 -6 5 -13l-8 -686l8 -711q0 -7 -5 -12q-6 -6 -13 -6h-158zM-80 1585q-7 0 -13 6q-5 6 -5 13v102q0 7 5 13q6 6 13 6h564q7 0 13 -6q5 -6 5 -13v-102q0 -7 -5 -13q-6 -6 -13 -6h-564z" />
    <glyph glyph-name="imacron" unicode="&#x12b;" horiz-adv-x="371" 
d="M109 0q-7 0 -13 6q-6 5 -6 12l4 525l-4 493q0 7 6 13t13 6h153q7 0 13 -6t5 -13l-4 -491l4 -527q1 -7 -5 -12q-6 -6 -13 -6h-153zM-97 1206q-7 0 -13 6q-5 6 -5 13v102q0 7 5 13q6 6 13 6h564q7 0 13 -6q5 -6 5 -13v-102q0 -7 -5 -13q-6 -6 -13 -6h-564z" />
    <glyph glyph-name="Ibreve" unicode="&#x12c;" horiz-adv-x="397" 
d="M122 0q-7 0 -13 6q-6 5 -5 12l8 711l-8 686q0 7 6 13q5 6 12 6h158q7 0 13 -6q5 -6 5 -13l-8 -686l8 -711q0 -7 -5 -12q-6 -6 -13 -6h-158zM489 1813q-3 -57 -24 -106q-22 -49 -59 -84q-38 -36 -90 -56q-52 -21 -115 -21t-115 21q-52 20 -90 56q-37 35 -59 84
q-21 49 -24 106q-1 7 4 13q6 5 13 5h92q8 0 14 -5q5 -6 6 -13q6 -57 47 -94q40 -37 112 -37q69 0 111 37q42 36 48 94q1 7 7 13q5 5 13 5h92q7 0 13 -5q5 -6 4 -13z" />
    <glyph glyph-name="ibreve" unicode="&#x12d;" horiz-adv-x="371" 
d="M109 0q-7 0 -13 6q-6 5 -6 12l4 525l-4 493q0 7 6 13t13 6h153q7 0 13 -6t5 -13l-4 -491l4 -527q1 -7 -5 -12q-6 -6 -13 -6h-153zM474 1434q-3 -57 -24 -106q-22 -49 -59 -84q-38 -36 -90 -56q-52 -21 -115 -21t-115 21q-52 20 -90 56q-37 35 -59 84q-21 49 -24 106
q-1 7 4 13q6 5 13 5h92q8 0 14 -5q5 -6 6 -13q6 -57 47 -94q40 -37 112 -37q69 0 111 37q42 36 48 94q1 7 7 13q5 5 13 5h92q7 0 13 -5q5 -6 4 -13z" />
    <glyph glyph-name="Iogonek" unicode="&#x12e;" horiz-adv-x="397" 
d="M122 0q-7 0 -13 6q-6 5 -5 12l8 711l-8 686q0 7 6 13q5 6 12 6h158q7 0 13 -6q5 -6 5 -13l-8 -686l8 -711q0 -7 -5 -12q-6 -6 -13 -6h-158zM232 -393q-113 0 -183 54q-71 54 -71 142q0 47 17 85q18 39 47 69t67 53t79 39q7 3 15 0q7 -3 11 -9l14 -23q4 -7 3 -14
q-2 -8 -9 -12q-15 -10 -32 -26q-17 -15 -31 -35q-15 -19 -24 -42q-10 -23 -10 -48q0 -50 35 -74q34 -24 86 -24h86q7 0 13 -6q6 -5 6 -12v-99q0 -7 -6 -13q-6 -5 -13 -5h-100z" />
    <glyph glyph-name="iogonek" unicode="&#x12f;" horiz-adv-x="371" 
d="M109 0q-7 0 -13 6q-6 5 -6 12l4 525l-4 493q0 7 6 13t13 6h153q7 0 13 -6t5 -13l-4 -491l4 -527q1 -7 -5 -12q-6 -6 -13 -6h-153zM108 1176q-7 0 -12 6q-6 5 -6 12v168q0 7 6 13q5 5 12 5h154q7 0 13 -5q5 -6 5 -13v-168q0 -7 -5 -12q-6 -6 -13 -6h-154zM215 -393
q-113 0 -183 54q-71 54 -71 142q0 47 17 85q18 39 47 69t67 53t79 39q7 3 15 0q7 -3 11 -9l14 -23q4 -7 3 -14q-2 -8 -9 -12q-15 -10 -32 -26q-17 -15 -31 -35q-15 -19 -24 -42q-10 -23 -10 -48q0 -50 35 -74q34 -24 86 -24h86q7 0 13 -6q6 -5 6 -12v-99q0 -7 -6 -13
q-6 -5 -13 -5h-100z" />
    <glyph glyph-name="Idotaccent" unicode="&#x130;" horiz-adv-x="397" 
d="M122 0q-7 0 -13 6q-6 5 -5 12l8 711l-8 686q0 7 6 13q5 6 12 6h158q7 0 13 -6q5 -6 5 -13l-8 -686l8 -711q0 -7 -5 -12q-6 -6 -13 -6h-158zM123 1555q-7 0 -12 6q-6 5 -6 12v168q0 7 6 13q5 5 12 5h154q7 0 13 -5q5 -6 5 -13v-168q0 -7 -5 -12q-6 -6 -13 -6h-154z" />
    <glyph glyph-name="dotlessi" unicode="&#x131;" horiz-adv-x="371" 
d="M109 0q-7 0 -13 6q-6 5 -6 12l4 525l-4 493q0 7 6 13t13 6h153q7 0 13 -6t5 -13l-4 -491l4 -527q1 -7 -5 -12q-6 -6 -13 -6h-153z" />
    <glyph glyph-name="IJ" unicode="&#x132;" horiz-adv-x="1374" 
d="M122 0q-7 0 -13 6q-6 5 -5 12l8 711l-8 686q0 7 6 13q5 6 12 6h158q7 0 13 -6q5 -6 5 -13l-8 -686l8 -711q0 -7 -5 -12q-6 -6 -13 -6h-158zM1298 508q1 -263 -106 -400t-332 -137q-111 0 -192 36q-82 36 -135 103t-79 164t-28 218q0 7 6 13q5 5 12 5h147q7 0 13 -5
q6 -6 6 -13q1 -83 14 -150q12 -68 41 -114q29 -47 77 -72q47 -25 118 -25q73 0 122 26q48 25 76 74q27 48 39 119q11 70 11 160l2 426l-6 479q0 7 6 13q5 6 12 6h164q7 0 13 -6q5 -6 5 -13l-6 -479v-428z" />
    <glyph glyph-name="ij" unicode="&#x133;" horiz-adv-x="741" 
d="M109 0q-7 0 -13 6q-6 5 -6 12l4 525l-4 493q0 7 6 13t13 6h153q7 0 13 -6t5 -13l-4 -491l4 -527q1 -7 -5 -12q-6 -6 -13 -6h-153zM108 1176q-7 0 -12 6q-6 5 -6 12v168q0 7 6 13q5 5 12 5h154q7 0 13 -5q5 -6 5 -13v-168q0 -7 -5 -12q-6 -6 -13 -6h-154zM480 -348
q-7 0 -13 5q-6 6 -6 13l4 670l-4 696q0 7 6 13t13 6h153q7 0 13 -6t5 -13l-4 -696l4 -670q1 -7 -5 -13q-6 -5 -13 -5h-153zM479 1176q-7 0 -12 6q-6 5 -6 12v168q0 7 6 13q5 5 12 5h154q7 0 13 -5q5 -6 5 -13v-168q0 -7 -5 -12q-6 -6 -13 -6h-154z" />
    <glyph glyph-name="Jcircumflex" unicode="&#x134;" horiz-adv-x="977" 
d="M901 508q1 -263 -106 -400t-332 -137q-111 0 -192 36q-82 36 -135 103t-79 164t-28 218q0 7 6 13q5 5 12 5h147q7 0 13 -5q6 -6 6 -13q1 -83 14 -150q12 -68 41 -114q29 -47 77 -72q47 -25 118 -25q73 0 122 26q48 25 76 74q27 48 39 119q11 70 11 160l2 426l-6 479
q0 7 6 13q5 6 12 6h164q7 0 13 -6q5 -6 5 -13l-6 -479v-428zM1100 1551q-3 -7 -10 -9q-7 -3 -14 0l-280 129l-280 -129q-7 -3 -14 0q-7 2 -10 9l-27 64q-3 7 0 15q2 8 9 12l265 165q7 4 17 7q9 3 17 3h46q8 0 18 -3q9 -3 16 -7l265 -165q7 -4 10 -12q2 -8 -1 -15z" />
    <glyph glyph-name="jcircumflex" unicode="&#x135;" horiz-adv-x="371" 
d="M109 -348q-7 0 -13 5q-6 6 -6 13l4 670l-4 696q0 7 6 13t13 6h153q7 0 13 -6t5 -13l-4 -696l4 -670q1 -7 -5 -13q-6 -5 -13 -5h-153zM489 1172q-3 -7 -10 -9q-7 -3 -14 0l-280 129l-280 -129q-7 -3 -14 0q-7 2 -10 9l-27 64q-3 7 -1 15q3 8 10 12l265 165q7 4 17 7
q9 3 17 3h46q8 0 18 -3q9 -3 16 -7l265 -165q7 -4 10 -12q2 -8 -1 -15z" />
    <glyph glyph-name="Kcommaaccent" unicode="&#x136;" horiz-adv-x="1133" 
d="M760 227l-318 482l-159 -195l4 -496q0 -7 -6 -12q-6 -6 -13 -6h-157q-7 0 -13 6q-6 5 -6 12l6 717l-6 680q0 7 6 13t13 6h157q7 0 13 -6t6 -13l-6 -676l529 680q5 7 14 11q8 4 16 4h190q6 0 9 -5q2 -6 -2 -10l-470 -559l566 -845q3 -4 0 -9q-3 -6 -9 -6h-198q-8 0 -16 4
q-9 4 -13 11zM486 -436q-7 0 -11 5q-4 6 -3 13l42 162v160q0 7 6 12q6 6 13 6h119q7 0 13 -6q5 -5 5 -12v-142q0 -8 -3 -18q-3 -9 -7 -16l-89 -148q-4 -7 -12 -12q-8 -4 -16 -4h-57z" />
    <glyph glyph-name="kcommaaccent" unicode="&#x137;" horiz-adv-x="926" 
d="M621 170l-226 367l-131 -148l4 -371q0 -7 -5 -12q-6 -6 -13 -6h-152q-7 0 -12 6q-6 5 -6 12l8 693l-8 704q0 7 6 13q5 6 12 6h152q7 0 13 -6q5 -6 5 -13l-6 -700v-115l399 441q6 6 15 10q8 4 16 4h176q6 0 8 -5t-2 -9l-346 -369l390 -656q4 -5 1 -10q-3 -6 -10 -6h-178
q-8 0 -15 5q-8 4 -12 11zM373 -436q-7 0 -11 5q-4 6 -3 13l42 162v160q0 7 6 12q6 6 13 6h119q7 0 13 -6q5 -5 5 -12v-142q0 -8 -3 -18q-3 -9 -7 -16l-89 -148q-4 -7 -12 -12q-8 -4 -16 -4h-57z" />
    <glyph glyph-name="Lacute" unicode="&#x139;" horiz-adv-x="952" 
d="M111 0q-7 0 -13 6q-6 5 -6 12l8 732l-8 665q0 7 6 13t13 6h157q7 0 13 -6t6 -13l-6 -655l6 -606h633q7 0 13 -6q5 -6 5 -13v-117q0 -7 -5 -12q-6 -6 -13 -6h-809zM65 1536q-7 -2 -14 1q-8 3 -10 10l-27 62q-3 7 0 15q2 7 9 10l442 210q7 3 14 0t9 -10l39 -115
q2 -7 -1 -14t-10 -9z" />
    <glyph glyph-name="lacute" unicode="&#x13a;" horiz-adv-x="369" 
d="M109 0q-7 0 -13 6q-6 5 -6 12l8 707l-8 690q0 7 6 13t13 6h151q7 0 13 -6q5 -6 5 -13l-8 -688l8 -709q0 -7 -5 -12q-6 -6 -13 -6h-151zM37 1536q-7 -2 -14 1q-8 3 -10 10l-27 62q-3 7 -1 15q3 7 10 10l442 210q7 3 14 0t9 -10l39 -115q2 -7 -1 -14t-10 -9z" />
    <glyph glyph-name="Lcommaaccent" unicode="&#x13b;" horiz-adv-x="952" 
d="M111 0q-7 0 -13 6q-6 5 -6 12l8 732l-8 665q0 7 6 13t13 6h157q7 0 13 -6t6 -13l-6 -655l6 -606h633q7 0 13 -6q5 -6 5 -13v-117q0 -7 -5 -12q-6 -6 -13 -6h-809zM426 -436q-7 0 -11 5q-4 6 -3 13l42 162v160q0 7 6 12q6 6 13 6h119q7 0 13 -6q5 -5 5 -12v-142
q0 -8 -3 -18q-3 -9 -7 -16l-89 -148q-4 -7 -12 -12q-8 -4 -16 -4h-57z" />
    <glyph glyph-name="lcommaaccent" unicode="&#x13c;" horiz-adv-x="369" 
d="M109 0q-7 0 -13 6q-6 5 -6 12l8 707l-8 690q0 7 6 13t13 6h151q7 0 13 -6q5 -6 5 -13l-8 -688l8 -709q0 -7 -5 -12q-6 -6 -13 -6h-151zM82 -436q-7 0 -11 5q-4 6 -3 13l42 162v160q0 7 6 12q6 6 13 6h119q7 0 13 -6q5 -5 5 -12v-142q0 -8 -3 -18q-3 -9 -7 -16l-89 -148
q-4 -7 -12 -12q-8 -4 -16 -4h-57z" />
    <glyph glyph-name="Lcaron" unicode="&#x13d;" horiz-adv-x="952" 
d="M111 0q-7 0 -13 6q-6 5 -6 12l8 732l-8 665q0 7 6 13t13 6h157q7 0 13 -6t6 -13l-6 -655l6 -606h633q7 0 13 -6q5 -6 5 -13v-117q0 -7 -5 -12q-6 -6 -13 -6h-809zM803 1023q-1 -7 -8 -12t-15 -5h-88q-7 0 -11 6q-5 5 -4 12l73 389q1 8 8 14q7 5 14 5h123q7 0 11 -5
q4 -6 2 -13z" />
    <glyph glyph-name="lcaron" unicode="&#x13e;" horiz-adv-x="369" 
d="M109 0q-7 0 -13 6q-6 5 -6 12l8 707l-8 690q0 7 6 13t13 6h151q7 0 13 -6q5 -6 5 -13l-8 -688l8 -709q0 -7 -5 -12q-6 -6 -13 -6h-151zM465 1115q-1 -7 -8 -12t-15 -5h-88q-7 0 -11 6q-5 5 -4 12l73 389q1 8 8 14q7 5 14 5h123q7 0 11 -5q4 -6 2 -13z" />
    <glyph glyph-name="Ldot" unicode="&#x13f;" horiz-adv-x="952" 
d="M111 0q-7 0 -13 6q-6 5 -6 12l8 732l-8 665q0 7 6 13t13 6h157q7 0 13 -6t6 -13l-6 -655l6 -606h633q7 0 13 -6q5 -6 5 -13v-117q0 -7 -5 -12q-6 -6 -13 -6h-809zM608 705q-7 0 -12 6q-6 5 -6 12v168q0 7 6 13q5 5 12 5h154q7 0 13 -5q5 -6 5 -13v-168q0 -7 -5 -12
q-6 -6 -13 -6h-154z" />
    <glyph glyph-name="ldot" unicode="&#x140;" horiz-adv-x="561" 
d="M109 0q-7 0 -13 6q-6 5 -6 12l8 707l-8 690q0 7 6 13t13 6h151q7 0 13 -6q5 -6 5 -13l-8 -688l8 -709q0 -7 -5 -12q-6 -6 -13 -6h-151zM387 553q-7 0 -12 6q-6 5 -6 12v168q0 7 6 13q5 5 12 5h154q7 0 13 -5q5 -6 5 -13v-168q0 -7 -5 -12q-6 -6 -13 -6h-154z" />
    <glyph glyph-name="Lslash" unicode="&#x141;" horiz-adv-x="973" 
d="M139 0q-7 0 -12 6q-6 5 -6 12l6 553l-122 -39q-7 -2 -12 2t-5 11v119q0 7 5 14t12 10l124 39v23l-8 665q0 7 6 13q5 6 12 6h158q7 0 13 -6q5 -6 5 -13l-6 -629l335 107q7 2 13 -1q5 -4 5 -11v-121q0 -8 -5 -15q-6 -7 -13 -9l-333 -107l4 -475h633q7 0 13 -6t6 -13v-117
q0 -7 -6 -12q-6 -6 -13 -6h-809z" />
    <glyph glyph-name="lslash" unicode="&#x142;" horiz-adv-x="422" 
d="M135 0q-7 0 -12 6q-6 5 -6 12l5 453l-90 -50q-5 -4 -10 0q-6 3 -6 9v117q0 8 5 16q4 7 11 11l92 51l1 100l-8 690q0 7 6 13q5 6 12 6h152q7 0 13 -6q5 -6 5 -13l-8 -688v-5l92 51q6 4 12 1q5 -4 5 -10v-117q0 -8 -5 -15q-5 -8 -12 -12l-90 -51l6 -551q0 -7 -5 -12
q-6 -6 -13 -6h-152z" />
    <glyph glyph-name="Nacute" unicode="&#x143;" horiz-adv-x="1339" 
d="M272 653l2 -635q0 -7 -5 -12q-6 -6 -13 -6h-147q-7 0 -13 6q-6 5 -6 12l8 709l-6 688q0 7 6 13t13 6h186q8 0 16 -4q8 -5 12 -12l750 -1176l-2 123l-4 399l-2 651q0 7 6 13q5 6 12 6h146q7 0 13 -6q5 -6 5 -13l-8 -688l6 -709q0 -7 -5 -12q-6 -6 -13 -6h-195q-8 0 -16 5
q-8 4 -12 11l-742 1155l4 -139zM510 1536q-7 -2 -14 1q-8 3 -10 10l-27 62q-3 7 0 15q2 7 9 10l442 210q7 3 14 0t9 -10l39 -115q2 -7 -1 -14t-10 -9z" />
    <glyph glyph-name="nacute" unicode="&#x144;" horiz-adv-x="1040" 
d="M100 0q-7 0 -12 6q-6 5 -6 12l6 463l-4 555q0 7 6 13q5 6 12 6h146q7 0 13 -6q5 -6 5 -13l-6 -159q25 40 60 77q34 36 78 64t98 45q53 16 116 16q81 0 147 -27q65 -27 111 -79q45 -52 70 -130q25 -79 25 -181v-211l4 -433q0 -7 -6 -12q-6 -6 -13 -6h-151q-7 0 -13 6
q-6 5 -6 12l4 433v202q0 143 -62 210q-63 67 -161 67q-104 0 -182 -82t-109 -238v-159l2 -433q0 -7 -5 -12q-6 -6 -13 -6h-154zM369 1157q-7 -2 -14 1q-8 3 -10 10l-27 62q-3 7 0 15q2 7 9 10l442 210q7 3 14 0t9 -10l39 -115q2 -7 -1 -14t-10 -9z" />
    <glyph glyph-name="Ncommaaccent" unicode="&#x145;" horiz-adv-x="1339" 
d="M272 653l2 -635q0 -7 -5 -12q-6 -6 -13 -6h-147q-7 0 -13 6q-6 5 -6 12l8 709l-6 688q0 7 6 13t13 6h186q8 0 16 -4q8 -5 12 -12l750 -1176l-2 123l-4 399l-2 651q0 7 6 13q5 6 12 6h146q7 0 13 -6q5 -6 5 -13l-8 -688l6 -709q0 -7 -5 -12q-6 -6 -13 -6h-195q-8 0 -16 5
q-8 4 -12 11l-742 1155l4 -139zM572 -436q-7 0 -11 5q-4 6 -3 13l42 162v160q0 7 6 12q6 6 13 6h119q7 0 13 -6q5 -5 5 -12v-142q0 -8 -3 -18q-3 -9 -7 -16l-89 -148q-4 -7 -12 -12q-8 -4 -16 -4h-57z" />
    <glyph glyph-name="ncommaaccent" unicode="&#x146;" horiz-adv-x="1040" 
d="M100 0q-7 0 -12 6q-6 5 -6 12l6 463l-4 555q0 7 6 13q5 6 12 6h146q7 0 13 -6q5 -6 5 -13l-6 -159q25 40 60 77q34 36 78 64t98 45q53 16 116 16q81 0 147 -27q65 -27 111 -79q45 -52 70 -130q25 -79 25 -181v-211l4 -433q0 -7 -6 -12q-6 -6 -13 -6h-151q-7 0 -13 6
q-6 5 -6 12l4 433v202q0 143 -62 210q-63 67 -161 67q-104 0 -182 -82t-109 -238v-159l2 -433q0 -7 -5 -12q-6 -6 -13 -6h-154zM426 -436q-7 0 -11 5q-4 6 -3 13l42 162v160q0 7 6 12q6 6 13 6h119q7 0 13 -6q5 -5 5 -12v-142q0 -8 -3 -18q-3 -9 -7 -16l-89 -148
q-4 -7 -12 -12q-8 -4 -16 -4h-57z" />
    <glyph glyph-name="Ncaron" unicode="&#x147;" horiz-adv-x="1339" 
d="M272 653l2 -635q0 -7 -5 -12q-6 -6 -13 -6h-147q-7 0 -13 6q-6 5 -6 12l8 709l-6 688q0 7 6 13t13 6h186q8 0 16 -4q8 -5 12 -12l750 -1176l-2 123l-4 399l-2 651q0 7 6 13q5 6 12 6h146q7 0 13 -6q5 -6 5 -13l-8 -688l6 -709q0 -7 -5 -12q-6 -6 -13 -6h-195q-8 0 -16 5
q-8 4 -12 11l-742 1155l4 -139zM732 1550q-7 -4 -16 -7q-10 -3 -18 -3h-46q-8 0 -17 3q-10 3 -17 7l-265 165q-7 4 -9 12q-3 8 0 15l27 64q3 7 10 10q7 2 14 -1l282 -129l278 129q7 3 14 1q7 -3 10 -10l27 -64q3 -7 1 -15q-3 -8 -10 -12z" />
    <glyph glyph-name="ncaron" unicode="&#x148;" horiz-adv-x="1040" 
d="M100 0q-7 0 -12 6q-6 5 -6 12l6 463l-4 555q0 7 6 13q5 6 12 6h146q7 0 13 -6q5 -6 5 -13l-6 -159q25 40 60 77q34 36 78 64t98 45q53 16 116 16q81 0 147 -27q65 -27 111 -79q45 -52 70 -130q25 -79 25 -181v-211l4 -433q0 -7 -6 -12q-6 -6 -13 -6h-151q-7 0 -13 6
q-6 5 -6 12l4 433v202q0 143 -62 210q-63 67 -161 67q-104 0 -182 -82t-109 -238v-159l2 -433q0 -7 -5 -12q-6 -6 -13 -6h-154zM580 1171q-7 -4 -16 -7q-10 -3 -18 -3h-46q-8 0 -17 3q-10 3 -17 7l-265 165q-7 4 -9 12q-3 8 0 15l27 64q3 7 10 10q7 2 14 -1l282 -129
l278 129q7 3 14 1q7 -3 10 -10l27 -64q3 -7 1 -15q-3 -8 -10 -12z" />
    <glyph glyph-name="Eng" unicode="&#x14a;" horiz-adv-x="1327" 
d="M1241 -57q0 -87 -24 -147q-24 -59 -63 -96t-88 -54q-49 -16 -99 -17q-36 0 -72 5t-64 11q-7 2 -12 9q-6 7 -6 14v106q0 7 6 11q5 4 12 3q21 -4 45 -7q24 -2 52 -2q61 0 98 41t37 139v39l-803 1184l2 -135l4 -336l2 -693q0 -7 -5 -12q-6 -6 -13 -6h-146q-7 0 -12 6
q-6 5 -6 12l4 709l-2 688q0 7 6 13q5 6 12 6h185q8 0 16 -4q8 -5 13 -12l745 -1094l-4 182l2 289l-2 620q0 7 6 13q5 6 12 6h144q7 0 13 -6q5 -6 5 -13l-4 -618z" />
    <glyph glyph-name="eng" unicode="&#x14b;" horiz-adv-x="1034" 
d="M963 -55q0 -87 -24 -147q-25 -60 -64 -97q-40 -37 -90 -54q-51 -16 -101 -16q-35 0 -71 5q-37 5 -65 11q-7 2 -12 9q-6 7 -6 14v102q0 7 6 11q5 4 12 3q21 -4 45 -7q24 -2 52 -2q61 0 98 41q37 42 37 143v692q0 143 -62 210t-161 67q-102 0 -181 -82t-110 -238v-159
l4 -433q0 -7 -5 -12q-6 -6 -13 -6h-156q-7 0 -12 6q-6 5 -6 12l4 463l-2 555q0 7 6 13q5 6 12 6h146q7 0 13 -6q5 -6 5 -13l-4 -159q24 40 58 77q34 36 78 64t98 45q53 16 116 16q81 0 147 -27t112 -79t71 -130q25 -79 25 -181v-717z" />
    <glyph glyph-name="Omacron" unicode="&#x14c;" horiz-adv-x="1470" 
d="M1421 715q0 -168 -49 -305q-50 -138 -139 -234q-90 -97 -217 -150t-281 -53t-281 54q-127 53 -216 150q-89 96 -138 234q-49 137 -49 304q0 171 49 310q49 138 138 235q89 96 216 148t281 52t282 -52q127 -52 217 -148q89 -96 138 -234q49 -139 49 -311zM248 715
q0 -135 34 -244q33 -109 96 -184q62 -75 153 -115q91 -41 204 -41q114 0 205 40t154 115t97 184t34 245t-34 246q-34 109 -97 185q-63 75 -154 116t-205 41q-115 0 -205 -40q-91 -41 -153 -116q-63 -76 -96 -185q-33 -110 -33 -247zM450 1585q-7 0 -12 6q-6 6 -6 13v102
q0 7 6 13q5 6 12 6h564q7 0 13 -6q5 -6 5 -13v-102q0 -7 -5 -13q-6 -6 -13 -6h-564z" />
    <glyph glyph-name="omacron" unicode="&#x14d;" horiz-adv-x="1092" 
d="M1047 528q0 -124 -33 -226t-96 -174q-64 -73 -157 -113q-94 -40 -214 -40q-119 0 -213 40q-94 39 -157 111q-63 71 -96 173q-34 101 -34 225q0 125 34 228q33 102 96 175q63 72 157 112t213 40q120 0 214 -39q93 -40 157 -112q63 -72 96 -174t33 -226zM238 524
q0 -197 78 -304q77 -107 231 -107t231 107q76 107 76 304t-77 308q-77 110 -230 110q-156 -1 -232 -111q-77 -110 -77 -307zM264 1206q-7 0 -12 6q-6 6 -6 13v102q0 7 6 13q5 6 12 6h564q7 0 13 -6q5 -6 5 -13v-102q0 -7 -5 -13q-6 -6 -13 -6h-564z" />
    <glyph glyph-name="Obreve" unicode="&#x14e;" horiz-adv-x="1470" 
d="M1421 715q0 -168 -49 -305q-50 -138 -139 -234q-90 -97 -217 -150t-281 -53t-281 54q-127 53 -216 150q-89 96 -138 234q-49 137 -49 304q0 171 49 310q49 138 138 235q89 96 216 148t281 52t282 -52q127 -52 217 -148q89 -96 138 -234q49 -139 49 -311zM248 715
q0 -135 34 -244q33 -109 96 -184q62 -75 153 -115q91 -41 204 -41q114 0 205 40t154 115t97 184t34 245t-34 246q-34 109 -97 185q-63 75 -154 116t-205 41q-115 0 -205 -40q-91 -41 -153 -116q-63 -76 -96 -185q-33 -110 -33 -247zM1021 1813q-3 -57 -24 -106
q-22 -49 -59 -84q-38 -36 -90 -56q-52 -21 -115 -21t-115 21q-52 20 -89 56q-38 35 -59 84q-22 49 -25 106q-1 7 5 13q5 5 12 5h92q8 0 14 -5q5 -6 6 -13q6 -57 47 -94q40 -37 112 -37q69 0 111 37q42 36 48 94q1 7 7 13q5 5 13 5h92q7 0 13 -5q5 -6 4 -13z" />
    <glyph glyph-name="obreve" unicode="&#x14f;" horiz-adv-x="1092" 
d="M1047 528q0 -124 -33 -226t-96 -174q-64 -73 -157 -113q-94 -40 -214 -40q-119 0 -213 40q-94 39 -157 111q-63 71 -96 173q-34 101 -34 225q0 125 34 228q33 102 96 175q63 72 157 112t213 40q120 0 214 -39q93 -40 157 -112q63 -72 96 -174t33 -226zM238 524
q0 -197 78 -304q77 -107 231 -107t231 107q76 107 76 304t-77 308q-77 110 -230 110q-156 -1 -232 -111q-77 -110 -77 -307zM833 1434q-3 -57 -24 -106q-22 -49 -59 -84q-38 -36 -90 -56q-52 -21 -115 -21t-115 21q-52 20 -89 56q-38 35 -59 84q-22 49 -25 106q-1 7 5 13
q5 5 12 5h92q8 0 14 -5q5 -6 6 -13q6 -57 47 -94q40 -37 112 -37q69 0 111 37q42 36 48 94q1 7 7 13q5 5 13 5h92q7 0 13 -5q5 -6 4 -13z" />
    <glyph glyph-name="Ohungarumlaut" unicode="&#x150;" horiz-adv-x="1470" 
d="M1421 715q0 -168 -49 -305q-50 -138 -139 -234q-90 -97 -217 -150t-281 -53t-281 54q-127 53 -216 150q-89 96 -138 234q-49 137 -49 304q0 171 49 310q49 138 138 235q89 96 216 148t281 52t282 -52q127 -52 217 -148q89 -96 138 -234q49 -139 49 -311zM248 715
q0 -135 34 -244q33 -109 96 -184q62 -75 153 -115q91 -41 204 -41q114 0 205 40t154 115t97 184t34 245t-34 246q-34 109 -97 185q-63 75 -154 116t-205 41q-115 0 -205 -40q-91 -41 -153 -116q-63 -76 -96 -185q-33 -110 -33 -247zM577 1570q-5 -5 -13 -5q-8 -1 -13 4
l-41 37q-5 4 -5 13q-1 8 3 14l234 314q4 6 12 7q7 0 11 -5l73 -76q5 -5 5 -13t-5 -14zM864 1564q-5 -5 -13 -5q-8 -1 -14 4l-38 34q-5 5 -6 14q-1 8 3 14l232 316q4 6 12 6t12 -4l73 -74q5 -5 5 -13q0 -9 -5 -14z" />
    <glyph glyph-name="ohungarumlaut" unicode="&#x151;" horiz-adv-x="1092" 
d="M1047 528q0 -124 -33 -226t-96 -174q-64 -73 -157 -113q-94 -40 -214 -40q-119 0 -213 40q-94 39 -157 111q-63 71 -96 173q-34 101 -34 225q0 125 34 228q33 102 96 175q63 72 157 112t213 40q120 0 214 -39q93 -40 157 -112q63 -72 96 -174t33 -226zM238 524
q0 -197 78 -304q77 -107 231 -107t231 107q76 107 76 304t-77 308q-77 110 -230 110q-156 -1 -232 -111q-77 -110 -77 -307zM391 1191q-5 -5 -13 -5q-8 -1 -13 4l-41 37q-5 4 -5 13q-1 8 3 14l234 314q4 6 12 7q7 0 11 -5l73 -76q5 -5 5 -13t-5 -14zM678 1185q-5 -5 -13 -5
q-8 -1 -14 4l-38 34q-5 5 -6 14q-1 8 3 14l232 316q4 6 12 6t12 -4l73 -74q5 -5 5 -13q0 -9 -5 -14z" />
    <glyph glyph-name="OE" unicode="&#x152;" horiz-adv-x="2032" 
d="M784 0q-144 0 -275 44q-131 43 -229 131q-99 88 -158 224q-59 135 -59 318q0 175 56 310q55 134 152 224t231 137q133 46 286 46h1162q7 0 13 -6q5 -6 5 -13v-117q0 -7 -5 -12q-6 -6 -13 -6h-690v-102l-5 -336h646q7 0 13 -6q5 -6 5 -13v-116q0 -7 -5 -13q-6 -6 -13 -6
h-646l5 -438v-96h706q7 0 13 -6t6 -13v-117q0 -7 -6 -12q-6 -6 -13 -6h-1182zM1065 154q0 1 1 74t2 170q1 96 2 194q1 97 1 147q0 48 -1 139q-1 90 -2 179t-2 156q-1 66 -1 67h-289q-106 0 -200 -35q-95 -35 -164 -104q-70 -70 -111 -176q-41 -107 -41 -248q0 -149 44 -256
t115 -175t163 -100q91 -32 186 -32h297z" />
    <glyph glyph-name="oe" unicode="&#x153;" horiz-adv-x="1884" 
d="M1807 367q7 0 12 -6q4 -6 3 -13q-12 -81 -47 -149q-35 -69 -91 -118q-57 -50 -136 -78t-178 -28q-154 0 -260 71t-160 192q-53 -122 -158 -192q-106 -71 -255 -71q-118 0 -210 40q-92 39 -154 111q-63 71 -95 173q-33 101 -33 225q0 125 33 228q32 102 95 175
q62 72 154 112t210 40q148 0 255 -68q107 -69 160 -196q55 124 160 194t248 70q112 0 201 -38q89 -39 150 -110q61 -72 95 -176q33 -104 35 -235q0 -7 -5 -12q-6 -6 -13 -6h-779q5 -190 85 -289q80 -100 233 -100q116 0 188 60q71 60 93 175q1 8 8 14q7 5 14 5h142z
M1640 633q-2 63 -21 120q-20 56 -55 99q-36 42 -89 67q-54 25 -123 25q-130 0 -206 -81q-76 -82 -95 -230h589zM238 524q0 -197 78 -304q77 -107 231 -107q153 0 229 107t76 304t-76 308q-77 110 -231 110q-154 -1 -230 -111q-77 -110 -77 -307z" />
    <glyph glyph-name="Racute" unicode="&#x154;" horiz-adv-x="1200" 
d="M950 1008q0 136 -85 205t-236 69h-344l-6 -547h352q71 0 130 16q59 15 101 48t65 85t23 124zM807 248l-219 338h-307l6 -568q0 -7 -6 -12q-6 -6 -13 -6h-159q-7 0 -13 6q-6 5 -6 12l8 719l-8 678q0 7 6 13t13 6h501q122 0 221 -26q98 -27 166 -80q67 -53 104 -132
q36 -80 36 -184q0 -172 -94 -275t-255 -135l376 -586q3 -5 0 -10q-3 -6 -9 -6h-184q-8 0 -16 5q-8 4 -12 11zM461 1536q-7 -2 -14 1q-8 3 -10 10l-27 62q-3 7 0 15q2 7 9 10l442 210q7 3 14 0t9 -10l39 -115q2 -7 -1 -14t-10 -9z" />
    <glyph glyph-name="racute" unicode="&#x155;" horiz-adv-x="715" 
d="M98 0q-7 0 -12 6q-6 5 -6 12l6 521l-6 497q0 7 6 13q5 6 12 6h152q7 0 13 -6q5 -6 5 -13l-8 -178q57 101 153 154q95 53 205 53q16 0 33 -1q16 -2 29 -5q7 -1 13 -8q5 -7 5 -14v-114q0 -7 -5 -12q-6 -5 -13 -4q-12 2 -27 3q-16 1 -32 1q-67 0 -128 -20q-61 -21 -108 -63
t-78 -106q-32 -64 -41 -151l2 -553q0 -7 -5 -12q-6 -6 -13 -6h-152zM225 1157q-7 -2 -14 1q-8 3 -10 10l-27 62q-3 7 0 15q2 7 9 10l442 210q7 3 14 0t9 -10l39 -115q2 -7 -1 -14t-10 -9z" />
    <glyph glyph-name="Rcommaaccent" unicode="&#x156;" horiz-adv-x="1200" 
d="M950 1008q0 136 -85 205t-236 69h-344l-6 -547h352q71 0 130 16q59 15 101 48t65 85t23 124zM807 248l-219 338h-307l6 -568q0 -7 -6 -12q-6 -6 -13 -6h-159q-7 0 -13 6q-6 5 -6 12l8 719l-8 678q0 7 6 13t13 6h501q122 0 221 -26q98 -27 166 -80q67 -53 104 -132
q36 -80 36 -184q0 -172 -94 -275t-255 -135l376 -586q3 -5 0 -10q-3 -6 -9 -6h-184q-8 0 -16 5q-8 4 -12 11zM492 -436q-7 0 -11 5q-4 6 -3 13l42 162v160q0 7 6 12q6 6 13 6h119q7 0 13 -6q5 -5 5 -12v-142q0 -8 -3 -18q-3 -9 -7 -16l-89 -148q-4 -7 -12 -12q-8 -4 -16 -4
h-57z" />
    <glyph glyph-name="rcommaaccent" unicode="&#x157;" horiz-adv-x="715" 
d="M98 0q-7 0 -12 6q-6 5 -6 12l6 521l-6 497q0 7 6 13q5 6 12 6h152q7 0 13 -6q5 -6 5 -13l-8 -178q57 101 153 154q95 53 205 53q16 0 33 -1q16 -2 29 -5q7 -1 13 -8q5 -7 5 -14v-114q0 -7 -5 -12q-6 -5 -13 -4q-12 2 -27 3q-16 1 -32 1q-67 0 -128 -20q-61 -21 -108 -63
t-78 -106q-32 -64 -41 -151l2 -553q0 -7 -5 -12q-6 -6 -13 -6h-152zM74 -436q-7 0 -11 5q-4 6 -3 13l42 162v160q0 7 6 12q6 6 13 6h119q7 0 13 -6q5 -5 5 -12v-142q0 -8 -3 -18q-3 -9 -7 -16l-89 -148q-4 -7 -12 -12q-8 -4 -16 -4h-57z" />
    <glyph glyph-name="Rcaron" unicode="&#x158;" horiz-adv-x="1200" 
d="M950 1008q0 136 -85 205t-236 69h-344l-6 -547h352q71 0 130 16q59 15 101 48t65 85t23 124zM807 248l-219 338h-307l6 -568q0 -7 -6 -12q-6 -6 -13 -6h-159q-7 0 -13 6q-6 5 -6 12l8 719l-8 678q0 7 6 13t13 6h501q122 0 221 -26q98 -27 166 -80q67 -53 104 -132
q36 -80 36 -184q0 -172 -94 -275t-255 -135l376 -586q3 -5 0 -10q-3 -6 -9 -6h-184q-8 0 -16 5q-8 4 -12 11zM662 1550q-7 -4 -16 -7q-10 -3 -18 -3h-46q-8 0 -17 3q-10 3 -17 7l-265 165q-7 4 -9 12q-3 8 0 15l27 64q3 7 10 10q7 2 14 -1l282 -129l278 129q7 3 14 1
q7 -3 10 -10l27 -64q3 -7 1 -15q-3 -8 -10 -12z" />
    <glyph glyph-name="rcaron" unicode="&#x159;" horiz-adv-x="715" 
d="M98 0q-7 0 -12 6q-6 5 -6 12l6 521l-6 497q0 7 6 13q5 6 12 6h152q7 0 13 -6q5 -6 5 -13l-8 -178q57 101 153 154q95 53 205 53q16 0 33 -1q16 -2 29 -5q7 -1 13 -8q5 -7 5 -14v-114q0 -7 -5 -12q-6 -5 -13 -4q-12 2 -27 3q-16 1 -32 1q-67 0 -128 -20q-61 -21 -108 -63
t-78 -106q-32 -64 -41 -151l2 -553q0 -7 -5 -12q-6 -6 -13 -6h-152zM445 1171q-7 -4 -16 -7q-10 -3 -18 -3h-46q-8 0 -17 3q-10 3 -17 7l-265 165q-7 4 -9 12q-3 8 0 15l27 64q3 7 10 10q7 2 14 -1l282 -129l278 129q7 3 14 1q7 -3 10 -10l27 -64q3 -7 1 -15q-3 -8 -10 -12z
" />
    <glyph glyph-name="Sacute" unicode="&#x15a;" horiz-adv-x="1235" 
d="M1193 420q0 -110 -41 -194t-114 -139q-73 -56 -175 -84q-103 -28 -225 -28q-136 0 -244 33q-109 32 -184 95q-76 63 -118 157q-42 93 -47 215q-1 7 5 13q5 6 12 6h160q7 0 13 -6t7 -13q7 -80 32 -144q24 -65 71 -109q47 -45 121 -69q73 -24 178 -24q79 0 146 15t115 48
q48 32 75 83q27 50 27 120q0 148 -146 192q-147 44 -321 78t-320 107q-147 73 -147 277q0 98 38 175q38 76 107 128q68 52 166 79q97 27 215 27q122 0 221 -26q99 -27 171 -80q71 -53 115 -134q43 -82 55 -192q1 -7 -4 -12q-6 -6 -13 -6h-162q-7 0 -13 6q-6 5 -7 12
q-12 137 -104 207t-265 70q-74 0 -136 -14t-105 -43q-44 -29 -68 -74q-25 -45 -25 -105q0 -138 147 -178q146 -40 320 -73q174 -34 321 -110q146 -77 146 -286zM444 1536q-7 -2 -14 1q-8 3 -10 10l-27 62q-3 7 0 15q2 7 9 10l442 210q7 3 14 0t9 -10l39 -115q2 -7 -1 -14
t-10 -9z" />
    <glyph glyph-name="sacute" unicode="&#x15b;" horiz-adv-x="999" 
d="M956 303q0 -77 -34 -138t-92 -102q-59 -42 -140 -64q-82 -22 -176 -22q-104 0 -190 23t-147 69t-96 116q-35 69 -38 161q0 7 6 13q5 6 12 6h143q8 0 14 -6q5 -6 6 -13q5 -123 81 -181q75 -59 215 -59q116 0 187 48t71 135q0 103 -111 131q-112 28 -244 52t-243 81
q-112 56 -112 215q0 76 30 134t84 97q54 38 131 58t170 20q91 0 170 -19q78 -20 136 -59q58 -40 93 -101t41 -142q0 -7 -5 -13t-12 -6h-137q-8 0 -14 6q-6 5 -7 13q-10 99 -82 147q-72 47 -185 47q-107 0 -171 -41q-64 -42 -64 -129q0 -98 112 -123q111 -25 243 -48t244 -82
q111 -59 111 -224zM319 1157q-7 -2 -14 1q-8 3 -10 10l-27 62q-3 7 0 15q2 7 9 10l442 210q7 3 14 0t9 -10l39 -115q2 -7 -1 -14t-10 -9z" />
    <glyph glyph-name="Scircumflex" unicode="&#x15c;" horiz-adv-x="1235" 
d="M1193 420q0 -110 -41 -194t-114 -139q-73 -56 -175 -84q-103 -28 -225 -28q-136 0 -244 33q-109 32 -184 95q-76 63 -118 157q-42 93 -47 215q-1 7 5 13q5 6 12 6h160q7 0 13 -6t7 -13q7 -80 32 -144q24 -65 71 -109q47 -45 121 -69q73 -24 178 -24q79 0 146 15t115 48
q48 32 75 83q27 50 27 120q0 148 -146 192q-147 44 -321 78t-320 107q-147 73 -147 277q0 98 38 175q38 76 107 128q68 52 166 79q97 27 215 27q122 0 221 -26q99 -27 171 -80q71 -53 115 -134q43 -82 55 -192q1 -7 -4 -12q-6 -6 -13 -6h-162q-7 0 -13 6q-6 5 -7 12
q-12 137 -104 207t-265 70q-74 0 -136 -14t-105 -43q-44 -29 -68 -74q-25 -45 -25 -105q0 -138 147 -178q146 -40 320 -73q174 -34 321 -110q146 -77 146 -286zM919 1551q-3 -7 -10 -9q-7 -3 -14 0l-280 129l-280 -129q-7 -3 -14 0q-7 2 -10 9l-27 64q-3 7 0 15q2 8 9 12
l265 165q7 4 17 7q9 3 17 3h46q8 0 18 -3q9 -3 16 -7l265 -165q7 -4 10 -12q2 -8 -1 -15z" />
    <glyph glyph-name="scircumflex" unicode="&#x15d;" horiz-adv-x="999" 
d="M956 303q0 -77 -34 -138t-92 -102q-59 -42 -140 -64q-82 -22 -176 -22q-104 0 -190 23t-147 69t-96 116q-35 69 -38 161q0 7 6 13q5 6 12 6h143q8 0 14 -6q5 -6 6 -13q5 -123 81 -181q75 -59 215 -59q116 0 187 48t71 135q0 103 -111 131q-112 28 -244 52t-243 81
q-112 56 -112 215q0 76 30 134t84 97q54 38 131 58t170 20q91 0 170 -19q78 -20 136 -59q58 -40 93 -101t41 -142q0 -7 -5 -13t-12 -6h-137q-8 0 -14 6q-6 5 -7 13q-10 99 -82 147q-72 47 -185 47q-107 0 -171 -41q-64 -42 -64 -129q0 -98 112 -123q111 -25 243 -48t244 -82
q111 -59 111 -224zM799 1172q-3 -7 -10 -9q-7 -3 -14 0l-280 129l-280 -129q-7 -3 -14 0q-7 2 -10 9l-27 64q-3 7 0 15q2 8 9 12l265 165q7 4 17 7q9 3 17 3h46q8 0 18 -3q9 -3 16 -7l265 -165q7 -4 10 -12q2 -8 -1 -15z" />
    <glyph glyph-name="Scedilla" unicode="&#x15e;" horiz-adv-x="1235" 
d="M1193 420q0 -110 -41 -194t-114 -139q-73 -56 -175 -84q-103 -28 -225 -28q-136 0 -244 33q-109 32 -184 95q-76 63 -118 157q-42 93 -47 215q-1 7 5 13q5 6 12 6h160q7 0 13 -6t7 -13q7 -80 32 -144q24 -65 71 -109q47 -45 121 -69q73 -24 178 -24q79 0 146 15t115 48
q48 32 75 83q27 50 27 120q0 148 -146 192q-147 44 -321 78t-320 107q-147 73 -147 277q0 98 38 175q38 76 107 128q68 52 166 79q97 27 215 27q122 0 221 -26q99 -27 171 -80q71 -53 115 -134q43 -82 55 -192q1 -7 -4 -12q-6 -6 -13 -6h-162q-7 0 -13 6q-6 5 -7 12
q-12 137 -104 207t-265 70q-74 0 -136 -14t-105 -43q-44 -29 -68 -74q-25 -45 -25 -105q0 -138 147 -178q146 -40 320 -73q174 -34 321 -110q146 -77 146 -286zM609 -336q-1 -7 -8 -11t-14 -3l-138 31q-7 1 -10 7q-4 7 -2 14l124 314q3 7 11 11q7 4 14 3l91 -17q7 -1 11 -7
q4 -7 2 -14z" />
    <glyph glyph-name="scedilla" unicode="&#x15f;" horiz-adv-x="999" 
d="M956 303q0 -77 -34 -138t-92 -102q-59 -42 -140 -64q-82 -22 -176 -22q-104 0 -190 23t-147 69t-96 116q-35 69 -38 161q0 7 6 13q5 6 12 6h143q8 0 14 -6q5 -6 6 -13q5 -123 81 -181q75 -59 215 -59q116 0 187 48t71 135q0 103 -111 131q-112 28 -244 52t-243 81
q-112 56 -112 215q0 76 30 134t84 97q54 38 131 58t170 20q91 0 170 -19q78 -20 136 -59q58 -40 93 -101t41 -142q0 -7 -5 -13t-12 -6h-137q-8 0 -14 6q-6 5 -7 13q-10 99 -82 147q-72 47 -185 47q-107 0 -171 -41q-64 -42 -64 -129q0 -98 112 -123q111 -25 243 -48t244 -82
q111 -59 111 -224zM476 -338q-1 -7 -8 -11t-14 -3l-138 31q-7 1 -10 7q-4 7 -2 14l124 314q3 7 11 11q7 4 14 3l91 -17q7 -1 11 -7q4 -7 2 -14z" />
    <glyph glyph-name="Scaron" unicode="&#x160;" horiz-adv-x="1235" 
d="M1193 420q0 -110 -41 -194t-114 -139q-73 -56 -175 -84q-103 -28 -225 -28q-136 0 -244 33q-109 32 -184 95q-76 63 -118 157q-42 93 -47 215q-1 7 5 13q5 6 12 6h160q7 0 13 -6t7 -13q7 -80 32 -144q24 -65 71 -109q47 -45 121 -69q73 -24 178 -24q79 0 146 15t115 48
q48 32 75 83q27 50 27 120q0 148 -146 192q-147 44 -321 78t-320 107q-147 73 -147 277q0 98 38 175q38 76 107 128q68 52 166 79q97 27 215 27q122 0 221 -26q99 -27 171 -80q71 -53 115 -134q43 -82 55 -192q1 -7 -4 -12q-6 -6 -13 -6h-162q-7 0 -13 6q-6 5 -7 12
q-12 137 -104 207t-265 70q-74 0 -136 -14t-105 -43q-44 -29 -68 -74q-25 -45 -25 -105q0 -138 147 -178q146 -40 320 -73q174 -34 321 -110q146 -77 146 -286zM672 1550q-7 -4 -16 -7q-10 -3 -18 -3h-46q-8 0 -17 3q-10 3 -17 7l-265 165q-7 4 -9 12q-3 8 0 15l27 64
q3 7 10 10q7 2 14 -1l282 -129l278 129q7 3 14 1q7 -3 10 -10l27 -64q3 -7 1 -15q-3 -8 -10 -12z" />
    <glyph glyph-name="scaron" unicode="&#x161;" horiz-adv-x="999" 
d="M956 303q0 -77 -34 -138t-92 -102q-59 -42 -140 -64q-82 -22 -176 -22q-104 0 -190 23t-147 69t-96 116q-35 69 -38 161q0 7 6 13q5 6 12 6h143q8 0 14 -6q5 -6 6 -13q5 -123 81 -181q75 -59 215 -59q116 0 187 48t71 135q0 103 -111 131q-112 28 -244 52t-243 81
q-112 56 -112 215q0 76 30 134t84 97q54 38 131 58t170 20q91 0 170 -19q78 -20 136 -59q58 -40 93 -101t41 -142q0 -7 -5 -13t-12 -6h-137q-8 0 -14 6q-6 5 -7 13q-10 99 -82 147q-72 47 -185 47q-107 0 -171 -41q-64 -42 -64 -129q0 -98 112 -123q111 -25 243 -48t244 -82
q111 -59 111 -224zM552 1171q-7 -4 -16 -7q-10 -3 -18 -3h-46q-8 0 -17 3q-10 3 -17 7l-265 165q-7 4 -9 12q-3 8 0 15l27 64q3 7 10 10q7 2 14 -1l282 -129l278 129q7 3 14 1q7 -3 10 -10l27 -64q3 -7 1 -15q-3 -8 -10 -12z" />
    <glyph glyph-name="Tcedilla" unicode="&#x162;" horiz-adv-x="1063" 
d="M451 0q-7 0 -13 6q-6 5 -6 12l10 693l-8 569h-397q-7 0 -13 6q-6 5 -6 12v117q0 7 6 13t13 6h989q7 0 13 -6q5 -6 5 -13v-117q0 -7 -5 -12q-6 -6 -13 -6h-395l-8 -569l10 -693q0 -7 -6 -12q-6 -6 -13 -6h-163zM517 -334q-1 -7 -8 -11t-14 -3l-138 31q-7 1 -10 7
q-4 7 -2 14l124 314q3 7 11 11q7 4 14 3l91 -17q7 -1 11 -7q4 -7 2 -14z" />
    <glyph glyph-name="tcedilla" unicode="&#x163;" horiz-adv-x="641" 
d="M612 30q0 -7 -5 -14t-12 -9q-32 -10 -70 -18q-38 -7 -74 -7q-57 0 -109 16t-90 52q-39 36 -61 96q-23 59 -23 145v618h-117q-7 0 -12 6q-6 6 -6 13v108q0 7 6 13q5 6 12 6h117l-2 245q0 7 6 13q5 6 12 6h152q7 0 13 -6q5 -6 5 -13l-2 -245h242q7 0 13 -6q5 -6 5 -13v-108
q0 -7 -5 -13q-6 -6 -13 -6h-242v-614q0 -95 33 -130q33 -36 100 -36q31 0 60 4q28 4 50 9q7 2 12 -2t5 -11v-99zM368 -336q-1 -7 -8 -11t-14 -3l-138 31q-7 1 -10 7q-4 7 -2 14l124 314q3 7 11 11q7 4 14 3l91 -17q7 -1 11 -7q4 -7 2 -14z" />
    <glyph glyph-name="Tcaron" unicode="&#x164;" horiz-adv-x="1063" 
d="M451 0q-7 0 -13 6q-6 5 -6 12l10 693l-8 569h-397q-7 0 -13 6q-6 5 -6 12v117q0 7 6 13t13 6h989q7 0 13 -6q5 -6 5 -13v-117q0 -7 -5 -12q-6 -6 -13 -6h-395l-8 -569l10 -693q0 -7 -6 -12q-6 -6 -13 -6h-163zM588 1550q-7 -4 -16 -7q-10 -3 -18 -3h-46q-8 0 -17 3
q-10 3 -17 7l-265 165q-7 4 -9 12q-3 8 0 15l27 64q3 7 10 10q7 2 14 -1l282 -129l278 129q7 3 14 1q7 -3 10 -10l27 -64q3 -7 1 -15q-3 -8 -10 -12z" />
    <glyph glyph-name="tcaron" unicode="&#x165;" horiz-adv-x="641" 
d="M612 30q0 -7 -5 -14t-12 -9q-32 -10 -70 -18q-38 -7 -74 -7q-57 0 -109 16t-90 52q-39 36 -61 96q-23 59 -23 145v618h-117q-7 0 -12 6q-6 6 -6 13v108q0 7 6 13q5 6 12 6h117l-2 245q0 7 6 13q5 6 12 6h152q7 0 13 -6q5 -6 5 -13l-2 -245h242q7 0 13 -6q5 -6 5 -13v-108
q0 -7 -5 -13q-6 -6 -13 -6h-242v-614q0 -95 33 -130q33 -36 100 -36q31 0 60 4q28 4 50 9q7 2 12 -2t5 -11v-99zM570 1181q-1 -7 -8 -12t-15 -5h-88q-7 0 -11 6q-5 5 -4 12l73 389q1 8 8 14q7 5 14 5h123q7 0 11 -5q4 -6 2 -13z" />
    <glyph glyph-name="Tbar" unicode="&#x166;" horiz-adv-x="1063" 
d="M633 18q0 -7 -6 -12q-6 -6 -13 -6h-163q-7 0 -13 6q-6 5 -6 12l9 578h-236q-7 0 -13 6q-6 5 -6 12v117q0 7 6 13t13 6h237l-8 530h-397q-7 0 -13 6q-6 5 -6 12v117q0 7 6 13t13 6h989q7 0 13 -6q5 -6 5 -13v-117q0 -7 -5 -12q-6 -6 -13 -6h-395l-8 -530h241q7 0 13 -6
t6 -13v-117q0 -7 -6 -12q-6 -6 -13 -6h-240z" />
    <glyph glyph-name="tbar" unicode="&#x167;" horiz-adv-x="651" 
d="M597 7q-32 -10 -70 -18q-38 -7 -74 -7q-57 0 -109 16t-90 52q-39 36 -61 96q-23 59 -23 145v203h-119q-7 0 -12 6q-6 5 -6 12v109q0 7 6 13q5 5 12 5h119v270h-117q-7 0 -12 6q-6 6 -6 13v108q0 7 6 13q5 6 12 6h117l-2 245q0 7 6 13q5 6 12 6h152q7 0 13 -6q5 -6 5 -13
l-1 -245h241q7 0 13 -6q5 -6 5 -13v-108q0 -7 -5 -13q-6 -6 -13 -6h-242v-270h240q7 0 13 -5q5 -6 5 -13v-109q0 -7 -5 -12q-6 -6 -13 -6h-240v-199q0 -95 33 -130q33 -36 100 -36q31 0 60 4q28 4 50 9q7 2 12 -2t5 -11v-99q0 -7 -5 -14t-12 -9z" />
    <glyph glyph-name="Utilde" unicode="&#x168;" horiz-adv-x="1210" 
d="M1135 543q0 -135 -32 -241q-33 -107 -98 -179q-66 -73 -165 -111q-100 -39 -232 -39t-232 39q-101 38 -167 111q-66 72 -99 179q-34 106 -34 241l2 446l-6 426q0 7 6 13q5 6 12 6h162q7 0 13 -6q5 -6 5 -13l-4 -422v-450q0 -91 20 -166q19 -76 60 -129q41 -54 106 -83
q65 -30 156 -30q93 0 160 30q67 29 109 83q42 53 62 129q19 75 19 166v446l-3 426q-1 7 5 13t13 6h147q7 0 13 -6t6 -13l-4 -426v-446zM890 1786q-3 -101 -45 -164t-126 -63q-47 0 -78 21t-55 47q-24 25 -45 46q-22 21 -50 21q-34 0 -50 -29q-17 -30 -19 -78q0 -7 -6 -12
q-6 -6 -13 -6h-68q-7 0 -12 6q-6 5 -5 12q1 48 13 90q11 41 32 72q21 30 53 47q31 17 73 17q47 0 79 -21q31 -22 55 -47q23 -25 44 -46q21 -22 46 -22q37 0 54 31q17 30 19 78q0 7 6 13q6 5 13 5h68q7 0 13 -5q5 -6 4 -13z" />
    <glyph glyph-name="utilde" unicode="&#x169;" horiz-adv-x="1040" 
d="M780 180q-24 -40 -58 -77q-34 -38 -77 -66q-44 -28 -98 -45t-117 -17q-81 0 -147 27t-111 80q-46 52 -71 131t-25 182v209l-4 432q0 7 6 13q5 6 12 6h154q7 0 13 -6q5 -6 5 -13l-4 -432v-203q0 -142 62 -209t161 -67q102 0 181 82t110 237v160l-4 432q0 7 6 13q5 6 12 6
h156q7 0 13 -6q5 -6 5 -13l-6 -463l4 -555q0 -7 -5 -12q-6 -6 -13 -6h-145q-7 0 -13 6q-6 5 -5 12zM802 1407q-3 -101 -45 -164t-126 -63q-47 0 -78 21t-55 47q-24 25 -45 46q-22 21 -50 21q-34 0 -50 -29q-17 -30 -19 -78q0 -7 -6 -12q-6 -6 -13 -6h-68q-7 0 -12 6
q-6 5 -5 12q1 48 13 90q11 41 32 72q21 30 53 47q31 17 73 17q47 0 79 -21q31 -22 55 -47q23 -25 44 -46q21 -22 46 -22q37 0 54 31q17 30 19 78q0 7 6 13q6 5 13 5h68q7 0 13 -5q5 -6 4 -13z" />
    <glyph glyph-name="Umacron" unicode="&#x16a;" horiz-adv-x="1210" 
d="M1135 543q0 -135 -32 -241q-33 -107 -98 -179q-66 -73 -165 -111q-100 -39 -232 -39t-232 39q-101 38 -167 111q-66 72 -99 179q-34 106 -34 241l2 446l-6 426q0 7 6 13q5 6 12 6h162q7 0 13 -6q5 -6 5 -13l-4 -422v-450q0 -91 20 -166q19 -76 60 -129q41 -54 106 -83
q65 -30 156 -30q93 0 160 30q67 29 109 83q42 53 62 129q19 75 19 166v446l-3 426q-1 7 5 13t13 6h147q7 0 13 -6t6 -13l-4 -426v-446zM323 1585q-7 0 -12 6q-6 6 -6 13v102q0 7 6 13q5 6 12 6h564q7 0 13 -6q5 -6 5 -13v-102q0 -7 -5 -13q-6 -6 -13 -6h-564z" />
    <glyph glyph-name="umacron" unicode="&#x16b;" horiz-adv-x="1040" 
d="M780 180q-24 -40 -58 -77q-34 -38 -77 -66q-44 -28 -98 -45t-117 -17q-81 0 -147 27t-111 80q-46 52 -71 131t-25 182v209l-4 432q0 7 6 13q5 6 12 6h154q7 0 13 -6q5 -6 5 -13l-4 -432v-203q0 -142 62 -209t161 -67q102 0 181 82t110 237v160l-4 432q0 7 6 13q5 6 12 6
h156q7 0 13 -6q5 -6 5 -13l-6 -463l4 -555q0 -7 -5 -12q-6 -6 -13 -6h-145q-7 0 -13 6q-6 5 -5 12zM233 1206q-7 0 -12 6q-6 6 -6 13v102q0 7 6 13q5 6 12 6h564q7 0 13 -6q5 -6 5 -13v-102q0 -7 -5 -13q-6 -6 -13 -6h-564z" />
    <glyph glyph-name="Ubreve" unicode="&#x16c;" horiz-adv-x="1210" 
d="M1135 543q0 -135 -32 -241q-33 -107 -98 -179q-66 -73 -165 -111q-100 -39 -232 -39t-232 39q-101 38 -167 111q-66 72 -99 179q-34 106 -34 241l2 446l-6 426q0 7 6 13q5 6 12 6h162q7 0 13 -6q5 -6 5 -13l-4 -422v-450q0 -91 20 -166q19 -76 60 -129q41 -54 106 -83
q65 -30 156 -30q93 0 160 30q67 29 109 83q42 53 62 129q19 75 19 166v446l-3 426q-1 7 5 13t13 6h147q7 0 13 -6t6 -13l-4 -426v-446zM892 1813q-3 -57 -24 -106q-22 -49 -59 -84q-38 -36 -90 -56q-52 -21 -115 -21t-115 21q-52 20 -89 56q-38 35 -59 84q-22 49 -25 106
q-1 7 5 13q5 5 12 5h92q8 0 14 -5q5 -6 6 -13q6 -57 47 -94q40 -37 112 -37q69 0 111 37q42 36 48 94q1 7 7 13q5 5 13 5h92q7 0 13 -5q5 -6 4 -13z" />
    <glyph glyph-name="ubreve" unicode="&#x16d;" horiz-adv-x="1040" 
d="M780 180q-24 -40 -58 -77q-34 -38 -77 -66q-44 -28 -98 -45t-117 -17q-81 0 -147 27t-111 80q-46 52 -71 131t-25 182v209l-4 432q0 7 6 13q5 6 12 6h154q7 0 13 -6q5 -6 5 -13l-4 -432v-203q0 -142 62 -209t161 -67q102 0 181 82t110 237v160l-4 432q0 7 6 13q5 6 12 6
h156q7 0 13 -6q5 -6 5 -13l-6 -463l4 -555q0 -7 -5 -12q-6 -6 -13 -6h-145q-7 0 -13 6q-6 5 -5 12zM804 1434q-3 -57 -24 -106q-22 -49 -59 -84q-38 -36 -90 -56q-52 -21 -115 -21t-115 21q-52 20 -89 56q-38 35 -59 84q-22 49 -25 106q-1 7 5 13q5 5 12 5h92q8 0 14 -5
q5 -6 6 -13q6 -57 47 -94q40 -37 112 -37q69 0 111 37q42 36 48 94q1 7 7 13q5 5 13 5h92q7 0 13 -5q5 -6 4 -13z" />
    <glyph glyph-name="Uring" unicode="&#x16e;" horiz-adv-x="1210" 
d="M1135 543q0 -135 -32 -241q-33 -107 -98 -179q-66 -73 -165 -111q-100 -39 -232 -39t-232 39q-101 38 -167 111q-66 72 -99 179q-34 106 -34 241l2 446l-6 426q0 7 6 13q5 6 12 6h162q7 0 13 -6q5 -6 5 -13l-4 -422v-450q0 -91 20 -166q19 -76 60 -129q41 -54 106 -83
q65 -30 156 -30q93 0 160 30q67 29 109 83q42 53 62 129q19 75 19 166v446l-3 426q-1 7 5 13t13 6h147q7 0 13 -6t6 -13l-4 -426v-446zM823 1757q0 -46 -16 -85q-17 -40 -46 -68q-30 -29 -71 -45q-41 -17 -88 -17t-87 17q-40 16 -69 45q-30 28 -46 68q-17 39 -17 85
q0 45 17 84q16 39 46 68q29 28 69 45q40 16 87 16t88 -16q41 -17 71 -45q29 -29 46 -68q16 -39 16 -84zM487 1757q0 -63 32 -99t83 -36t84 36t33 99t-33 98t-84 35t-83 -35t-32 -98z" />
    <glyph glyph-name="uring" unicode="&#x16f;" horiz-adv-x="1040" 
d="M780 180q-24 -40 -58 -77q-34 -38 -77 -66q-44 -28 -98 -45t-117 -17q-81 0 -147 27t-111 80q-46 52 -71 131t-25 182v209l-4 432q0 7 6 13q5 6 12 6h154q7 0 13 -6q5 -6 5 -13l-4 -432v-203q0 -142 62 -209t161 -67q102 0 181 82t110 237v160l-4 432q0 7 6 13q5 6 12 6
h156q7 0 13 -6q5 -6 5 -13l-6 -463l4 -555q0 -7 -5 -12q-6 -6 -13 -6h-145q-7 0 -13 6q-6 5 -5 12zM735 1378q0 -46 -16 -85q-17 -40 -46 -68q-30 -29 -71 -45q-41 -17 -88 -17t-87 17q-40 16 -69 45q-30 28 -46 68q-17 39 -17 85q0 45 17 84q16 39 46 68q29 28 69 45
q40 16 87 16t88 -16q41 -17 71 -45q29 -29 46 -68q16 -39 16 -84zM399 1378q0 -63 32 -99t83 -36t84 36t33 99t-33 98t-84 35t-83 -35t-32 -98z" />
    <glyph glyph-name="Uhungarumlaut" unicode="&#x170;" horiz-adv-x="1210" 
d="M1135 543q0 -135 -32 -241q-33 -107 -98 -179q-66 -73 -165 -111q-100 -39 -232 -39t-232 39q-101 38 -167 111q-66 72 -99 179q-34 106 -34 241l2 446l-6 426q0 7 6 13q5 6 12 6h162q7 0 13 -6q5 -6 5 -13l-4 -422v-450q0 -91 20 -166q19 -76 60 -129q41 -54 106 -83
q65 -30 156 -30q93 0 160 30q67 29 109 83q42 53 62 129q19 75 19 166v446l-3 426q-1 7 5 13t13 6h147q7 0 13 -6t6 -13l-4 -426v-446zM456 1570q-5 -5 -13 -5q-8 -1 -13 4l-41 37q-5 4 -5 13q-1 8 3 14l234 314q4 6 12 7q7 0 11 -5l73 -76q5 -5 5 -13t-5 -14zM743 1564
q-5 -5 -13 -5q-8 -1 -14 4l-38 34q-5 5 -6 14q-1 8 3 14l232 316q4 6 12 6t12 -4l73 -74q5 -5 5 -13q0 -9 -5 -14z" />
    <glyph glyph-name="uhungarumlaut" unicode="&#x171;" horiz-adv-x="1040" 
d="M780 180q-24 -40 -58 -77q-34 -38 -77 -66q-44 -28 -98 -45t-117 -17q-81 0 -147 27t-111 80q-46 52 -71 131t-25 182v209l-4 432q0 7 6 13q5 6 12 6h154q7 0 13 -6q5 -6 5 -13l-4 -432v-203q0 -142 62 -209t161 -67q102 0 181 82t110 237v160l-4 432q0 7 6 13q5 6 12 6
h156q7 0 13 -6q5 -6 5 -13l-6 -463l4 -555q0 -7 -5 -12q-6 -6 -13 -6h-145q-7 0 -13 6q-6 5 -5 12zM364 1191q-5 -5 -13 -5q-8 -1 -13 4l-41 37q-5 4 -5 13q-1 8 3 14l234 314q4 6 12 7q7 0 11 -5l73 -76q5 -5 5 -13t-5 -14zM651 1185q-5 -5 -13 -5q-8 -1 -14 4l-38 34
q-5 5 -6 14q-1 8 3 14l232 316q4 6 12 6t12 -4l73 -74q5 -5 5 -13q0 -9 -5 -14z" />
    <glyph glyph-name="Uogonek" unicode="&#x172;" horiz-adv-x="1210" 
d="M1135 543q0 -135 -32 -241q-33 -107 -98 -179q-66 -73 -165 -111q-100 -39 -232 -39t-232 39q-101 38 -167 111q-66 72 -99 179q-34 106 -34 241l2 446l-6 426q0 7 6 13q5 6 12 6h162q7 0 13 -6q5 -6 5 -13l-4 -422v-450q0 -91 20 -166q19 -76 60 -129q41 -54 106 -83
q65 -30 156 -30q93 0 160 30q67 29 109 83q42 53 62 129q19 75 19 166v446l-3 426q-1 7 5 13t13 6h147q7 0 13 -6t6 -13l-4 -426v-446zM690 -393q-113 0 -183 54q-71 54 -71 142q0 47 18 85q17 39 46 69t67 53t79 39q7 3 15 0q7 -3 11 -9l14 -23q4 -7 3 -14q-2 -8 -9 -12
q-15 -10 -32 -26q-17 -15 -31 -35q-15 -19 -24 -42q-10 -23 -10 -48q0 -50 35 -74q34 -24 86 -24h86q7 0 13 -6q6 -5 6 -12v-99q0 -7 -6 -13q-6 -5 -13 -5h-100z" />
    <glyph glyph-name="uogonek" unicode="&#x173;" horiz-adv-x="1040" 
d="M780 180q-24 -40 -58 -77q-34 -38 -77 -66q-44 -28 -98 -45t-117 -17q-81 0 -147 27t-111 80q-46 52 -71 131t-25 182v209l-4 432q0 7 6 13q5 6 12 6h154q7 0 13 -6q5 -6 5 -13l-4 -432v-203q0 -142 62 -209t161 -67q102 0 181 82t110 237v160l-4 432q0 7 6 13q5 6 12 6
h156q7 0 13 -6q5 -6 5 -13l-6 -463l4 -555q0 -7 -5 -12q-6 -6 -13 -6h-145q-7 0 -13 6q-6 5 -5 12zM885 -393q-113 0 -183 54q-71 54 -71 142q0 47 18 85q17 39 46 69t67 53t79 39q7 3 15 0q7 -3 11 -9l14 -23q4 -7 3 -14q-2 -8 -9 -12q-15 -10 -32 -26q-17 -15 -31 -35
q-15 -19 -24 -42q-10 -23 -10 -48q0 -50 35 -74q34 -24 86 -24h86q7 0 13 -6q6 -5 6 -12v-99q0 -7 -6 -13q-6 -5 -13 -5h-100z" />
    <glyph glyph-name="Wcircumflex" unicode="&#x174;" horiz-adv-x="1782" 
d="M1197 0q-7 0 -14 6q-7 5 -9 12l-288 1156l-275 -1156q-1 -7 -8 -12q-7 -6 -14 -6h-193q-7 0 -14 6q-7 5 -9 12l-357 1398q-1 7 3 13q4 5 11 5h155q8 0 15 -5q7 -6 8 -13l295 -1217l280 1217q2 7 9 13q6 5 14 5h182q8 0 15 -5q6 -6 8 -13l284 -1226l295 1226q1 7 8 13
q7 5 15 5h143q7 0 11 -5q4 -6 3 -13l-364 -1398q-1 -7 -8 -12q-7 -6 -15 -6h-186zM1196 1551q-3 -7 -10 -9q-7 -3 -14 0l-280 129l-280 -129q-7 -3 -14 0q-7 2 -10 9l-27 64q-3 7 0 15q2 8 9 12l265 165q7 4 17 7q9 3 17 3h46q8 0 18 -3q9 -3 16 -7l265 -165q7 -4 10 -12
q2 -8 -1 -15z" />
    <glyph glyph-name="wcircumflex" unicode="&#x175;" horiz-adv-x="1430" 
d="M955 0q-7 0 -14 6q-7 5 -9 12l-222 881l-201 -881q-1 -7 -8 -12q-7 -6 -15 -6h-178q-7 0 -14 6q-7 5 -9 12l-273 1019q-1 7 3 13q4 5 11 5h151q8 0 15 -5q6 -6 8 -13l204 -879l203 879q1 7 8 13q7 5 15 5h186q7 0 14 -5q7 -6 9 -13l209 -867l198 867q1 7 8 13q7 5 15 5
h135q7 0 11 -5q4 -6 3 -13l-257 -1019q-2 -7 -9 -12q-7 -6 -14 -6h-183zM1016 1172q-3 -7 -10 -9q-7 -3 -14 0l-280 129l-280 -129q-7 -3 -14 0q-7 2 -10 9l-27 64q-3 7 0 15q2 8 9 12l265 165q7 4 17 7q9 3 17 3h46q8 0 18 -3q9 -3 16 -7l265 -165q7 -4 10 -12q2 -8 -1 -15
z" />
    <glyph glyph-name="Ycircumflex" unicode="&#x176;" horiz-adv-x="1137" 
d="M664 18q0 -7 -5 -12q-6 -6 -13 -6h-160q-7 0 -12 6q-6 5 -6 12l6 484l-471 915q-3 6 1 12q3 5 9 5h181q7 0 15 -5q7 -5 11 -12l356 -743l359 743q4 7 12 12q7 5 15 5h163q7 0 10 -5q3 -6 0 -12l-477 -923zM876 1551q-3 -7 -10 -9q-7 -3 -14 0l-280 129l-280 -129
q-7 -3 -14 0q-7 2 -10 9l-27 64q-3 7 0 15q2 8 9 12l265 165q7 4 17 7q9 3 17 3h46q8 0 18 -3q9 -3 16 -7l265 -165q7 -4 10 -12q2 -8 -1 -15z" />
    <glyph glyph-name="ycircumflex" unicode="&#x177;" horiz-adv-x="954" 
d="M479 -331q-2 -7 -9 -12q-8 -5 -15 -5h-142q-7 0 -10 5q-4 6 -2 12l113 329l-413 1040q-3 6 1 12q3 5 10 5h174q8 0 16 -5q7 -6 9 -13l299 -795l252 795q3 7 10 13q7 5 14 5h156q7 0 11 -5q3 -6 1 -13zM784 1172q-3 -7 -10 -9q-7 -3 -14 0l-280 129l-280 -129q-7 -3 -14 0
q-7 2 -10 9l-27 64q-3 7 0 15q2 8 9 12l265 165q7 4 17 7q9 3 17 3h46q8 0 18 -3q9 -3 16 -7l265 -165q7 -4 10 -12q2 -8 -1 -15z" />
    <glyph glyph-name="Ydieresis" unicode="&#x178;" horiz-adv-x="1137" 
d="M664 18q0 -7 -5 -12q-6 -6 -13 -6h-160q-7 0 -12 6q-6 5 -6 12l6 484l-471 915q-3 6 1 12q3 5 9 5h181q7 0 15 -5q7 -5 11 -12l356 -743l359 743q4 7 12 12q7 5 15 5h163q7 0 10 -5q3 -6 0 -12l-477 -923zM346 1571q-7 0 -13 6q-6 5 -6 12v168q0 7 6 13t13 6h129
q7 0 13 -6q5 -6 5 -13v-168q0 -7 -5 -12q-6 -6 -13 -6h-129zM671 1571q-7 0 -12 6q-6 5 -6 12v168q0 7 6 13q5 6 12 6h129q7 0 13 -6t6 -13v-168q0 -7 -6 -12q-6 -6 -13 -6h-129z" />
    <glyph glyph-name="Zacute" unicode="&#x179;" horiz-adv-x="1141" 
d="M1098 18q0 -7 -6 -12q-6 -6 -13 -6h-1018q-7 0 -12 6q-6 5 -6 12v132q0 8 3 17t8 16l806 1097h-745q-7 0 -13 6q-6 5 -6 12v117q0 7 6 13t13 6h954q7 0 13 -6q5 -6 5 -13v-135q0 -8 -3 -17t-7 -16l-803 -1093h805q7 0 13 -6t6 -13v-117zM395 1536q-7 -2 -14 1
q-8 3 -10 10l-27 62q-3 7 0 15q2 7 9 10l442 210q7 3 14 0t9 -10l39 -115q2 -7 -1 -14t-10 -9z" />
    <glyph glyph-name="zacute" unicode="&#x17a;" horiz-adv-x="922" 
d="M877 18q0 -7 -6 -12q-6 -6 -13 -6h-792q-7 0 -13 6q-6 5 -6 12v109q0 8 3 17t8 16l565 749h-514q-7 0 -13 6t-6 13v108q0 7 6 13t13 6h725q7 0 13 -6q5 -6 5 -13v-108q0 -8 -3 -17t-8 -16l-571 -750h588q7 0 13 -5q6 -6 6 -13v-109zM295 1157q-7 -2 -14 1q-8 3 -10 10
l-27 62q-3 7 0 15q2 7 9 10l442 210q7 3 14 0t9 -10l39 -115q2 -7 -1 -14t-10 -9z" />
    <glyph glyph-name="Zdotaccent" unicode="&#x17b;" horiz-adv-x="1141" 
d="M1098 18q0 -7 -6 -12q-6 -6 -13 -6h-1018q-7 0 -12 6q-6 5 -6 12v132q0 8 3 17t8 16l806 1097h-745q-7 0 -13 6q-6 5 -6 12v117q0 7 6 13t13 6h954q7 0 13 -6q5 -6 5 -13v-135q0 -8 -3 -17t-7 -16l-803 -1093h805q7 0 13 -6t6 -13v-117zM491 1555q-7 0 -12 6q-6 5 -6 12
v168q0 7 6 13q5 5 12 5h154q7 0 13 -5q5 -6 5 -13v-168q0 -7 -5 -12q-6 -6 -13 -6h-154z" />
    <glyph glyph-name="zdotaccent" unicode="&#x17c;" horiz-adv-x="922" 
d="M877 18q0 -7 -6 -12q-6 -6 -13 -6h-792q-7 0 -13 6q-6 5 -6 12v109q0 8 3 17t8 16l565 749h-514q-7 0 -13 6t-6 13v108q0 7 6 13t13 6h725q7 0 13 -6q5 -6 5 -13v-108q0 -8 -3 -17t-8 -16l-571 -750h588q7 0 13 -5q6 -6 6 -13v-109zM391 1176q-7 0 -12 6q-6 5 -6 12v168
q0 7 6 13q5 5 12 5h154q7 0 13 -5q5 -6 5 -13v-168q0 -7 -5 -12q-6 -6 -13 -6h-154z" />
    <glyph glyph-name="Zcaron" unicode="&#x17d;" horiz-adv-x="1141" 
d="M1098 18q0 -7 -6 -12q-6 -6 -13 -6h-1018q-7 0 -12 6q-6 5 -6 12v132q0 8 3 17t8 16l806 1097h-745q-7 0 -13 6q-6 5 -6 12v117q0 7 6 13t13 6h954q7 0 13 -6q5 -6 5 -13v-135q0 -8 -3 -17t-7 -16l-803 -1093h805q7 0 13 -6t6 -13v-117zM654 1550q-7 -4 -16 -7
q-10 -3 -18 -3h-46q-8 0 -17 3q-10 3 -17 7l-265 165q-7 4 -9 12q-3 8 0 15l27 64q3 7 10 10q7 2 14 -1l282 -129l278 129q7 3 14 1q7 -3 10 -10l27 -64q3 -7 1 -15q-3 -8 -10 -12z" />
    <glyph glyph-name="zcaron" unicode="&#x17e;" horiz-adv-x="922" 
d="M877 18q0 -7 -6 -12q-6 -6 -13 -6h-792q-7 0 -13 6q-6 5 -6 12v109q0 8 3 17t8 16l565 749h-514q-7 0 -13 6t-6 13v108q0 7 6 13t13 6h725q7 0 13 -6q5 -6 5 -13v-108q0 -8 -3 -17t-8 -16l-571 -750h588q7 0 13 -5q6 -6 6 -13v-109zM523 1171q-7 -4 -16 -7q-10 -3 -18 -3
h-46q-8 0 -17 3q-10 3 -17 7l-265 165q-7 4 -9 12q-3 8 0 15l27 64q3 7 10 10q7 2 14 -1l282 -129l278 129q7 3 14 1q7 -3 10 -10l27 -64q3 -7 1 -15q-3 -8 -10 -12z" />
    <glyph glyph-name="florin" unicode="&#x192;" horiz-adv-x="707" 
d="M410 -55q0 -87 -24 -147q-25 -60 -64 -97q-40 -37 -90 -54q-51 -16 -101 -16q-36 0 -72 5t-66 12q-7 1 -13 8q-5 7 -5 14v102q0 7 5 11q6 5 13 3q22 -4 47 -7q24 -2 52 -2q61 0 98 41q37 42 37 143v950h-147q-7 0 -13 6t-6 13v106q0 7 6 13t13 6h147v92q0 86 25 146
q24 60 63 97t89 54q50 16 100 16q35 0 72 -4t66 -10q7 -1 12 -8t5 -14v-105q0 -7 -5 -11t-12 -3q-22 6 -46 9t-51 3q-63 0 -99 -42q-36 -43 -36 -142v-78h229q7 0 13 -6q5 -6 5 -13v-106q0 -7 -5 -13q-6 -6 -13 -6h-229v-966z" />
    <glyph glyph-name="Scommaaccent" unicode="&#x218;" horiz-adv-x="1235" 
d="M1193 420q0 -110 -41 -194t-114 -139q-73 -56 -175 -84q-103 -28 -225 -28q-136 0 -244 33q-109 32 -184 95q-76 63 -118 157q-42 93 -47 215q-1 7 5 13q5 6 12 6h160q7 0 13 -6t7 -13q7 -80 32 -144q24 -65 71 -109q47 -45 121 -69q73 -24 178 -24q79 0 146 15t115 48
q48 32 75 83q27 50 27 120q0 148 -146 192q-147 44 -321 78t-320 107q-147 73 -147 277q0 98 38 175q38 76 107 128q68 52 166 79q97 27 215 27q122 0 221 -26q99 -27 171 -80q71 -53 115 -134q43 -82 55 -192q1 -7 -4 -12q-6 -6 -13 -6h-162q-7 0 -13 6q-6 5 -7 12
q-12 137 -104 207t-265 70q-74 0 -136 -14t-105 -43q-44 -29 -68 -74q-25 -45 -25 -105q0 -138 147 -178q146 -40 320 -73q174 -34 321 -110q146 -77 146 -286zM506 -436q-7 0 -11 5q-4 6 -3 13l42 162v160q0 7 6 12q6 6 13 6h119q7 0 13 -6q5 -5 5 -12v-142q0 -8 -3 -18
q-3 -9 -7 -16l-89 -148q-4 -7 -12 -12q-8 -4 -16 -4h-57z" />
    <glyph glyph-name="scommaaccent" unicode="&#x219;" horiz-adv-x="999" 
d="M956 303q0 -77 -34 -138t-92 -102q-59 -42 -140 -64q-82 -22 -176 -22q-104 0 -190 23t-147 69t-96 116q-35 69 -38 161q0 7 6 13q5 6 12 6h143q8 0 14 -6q5 -6 6 -13q5 -123 81 -181q75 -59 215 -59q116 0 187 48t71 135q0 103 -111 131q-112 28 -244 52t-243 81
q-112 56 -112 215q0 76 30 134t84 97q54 38 131 58t170 20q91 0 170 -19q78 -20 136 -59q58 -40 93 -101t41 -142q0 -7 -5 -13t-12 -6h-137q-8 0 -14 6q-6 5 -7 13q-10 99 -82 147q-72 47 -185 47q-107 0 -171 -41q-64 -42 -64 -129q0 -98 112 -123q111 -25 243 -48t244 -82
q111 -59 111 -224zM381 -436q-7 0 -11 5q-4 6 -3 13l42 162v160q0 7 6 12q6 6 13 6h119q7 0 13 -6q5 -5 5 -12v-142q0 -8 -3 -18q-3 -9 -7 -16l-89 -148q-4 -7 -12 -12q-8 -4 -16 -4h-57z" />
    <glyph glyph-name="Tcommaaccent" unicode="&#x21a;" horiz-adv-x="1063" 
d="M451 0q-7 0 -13 6q-6 5 -6 12l10 693l-8 569h-397q-7 0 -13 6q-6 5 -6 12v117q0 7 6 13t13 6h989q7 0 13 -6q5 -6 5 -13v-117q0 -7 -5 -12q-6 -6 -13 -6h-395l-8 -569l10 -693q0 -7 -6 -12q-6 -6 -13 -6h-163zM424 -436q-7 0 -11 5q-4 6 -3 13l42 162v160q0 7 6 12
q6 6 13 6h119q7 0 13 -6q5 -5 5 -12v-142q0 -8 -3 -18q-3 -9 -7 -16l-89 -148q-4 -7 -12 -12q-8 -4 -16 -4h-57z" />
    <glyph glyph-name="tcommaaccent" unicode="&#x21b;" horiz-adv-x="641" 
d="M612 30q0 -7 -5 -14t-12 -9q-32 -10 -70 -18q-38 -7 -74 -7q-57 0 -109 16t-90 52q-39 36 -61 96q-23 59 -23 145v618h-117q-7 0 -12 6q-6 6 -6 13v108q0 7 6 13q5 6 12 6h117l-2 245q0 7 6 13q5 6 12 6h152q7 0 13 -6q5 -6 5 -13l-2 -245h242q7 0 13 -6q5 -6 5 -13v-108
q0 -7 -5 -13q-6 -6 -13 -6h-242v-614q0 -95 33 -130q33 -36 100 -36q31 0 60 4q28 4 50 9q7 2 12 -2t5 -11v-99zM285 -436q-7 0 -11 5q-4 6 -3 13l42 162v160q0 7 6 12q6 6 13 6h119q7 0 13 -6q5 -5 5 -12v-142q0 -8 -3 -18q-3 -9 -7 -16l-89 -148q-4 -7 -12 -12
q-8 -4 -16 -4h-57z" />
    <glyph glyph-name="dotlessj" unicode="&#x237;" horiz-adv-x="371" 
d="M109 -348q-7 0 -13 5q-6 6 -6 13l4 670l-4 696q0 7 6 13t13 6h153q7 0 13 -6t5 -13l-4 -696l4 -670q1 -7 -5 -13q-6 -5 -13 -5h-153z" />
    <glyph glyph-name="schwa" unicode="&#x259;" horiz-adv-x="1081" 
d="M1026 530q0 -123 -34 -225q-35 -103 -98 -176q-64 -73 -156 -113q-92 -41 -206 -41t-204 39q-91 38 -153 110q-63 72 -97 176q-35 104 -37 235q0 7 6 13q5 5 12 5h779q-5 191 -84 290q-80 99 -234 99q-116 0 -186 -60q-71 -60 -95 -174q-1 -7 -8 -12q-7 -6 -14 -6h-142
q-7 0 -11 6q-5 5 -4 12q12 80 48 148t94 118q58 49 139 77q80 28 181 28q122 0 217 -40q95 -41 158 -113q63 -73 96 -174q33 -102 33 -222zM242 422q2 -63 22 -119q19 -57 55 -98q35 -42 89 -67q53 -25 122 -25q128 0 205 81t96 228h-589z" />
    <glyph glyph-name="uni02BB" unicode="&#x2bb;" horiz-adv-x="324" 
d="M279 1434q7 0 11 -5q4 -6 2 -13l-50 -187v-193q0 -7 -6 -12q-6 -6 -13 -6h-149q-7 0 -13 6q-6 5 -6 12v172q0 8 3 18q3 9 7 16l115 176q4 7 13 12q8 4 16 4h70z" />
    <glyph glyph-name="uni02BC" unicode="&#x2bc;" horiz-adv-x="324" 
d="M46 1018q-7 0 -11 6q-4 5 -3 12l51 187v192q0 7 6 13q5 6 12 6h150q7 0 13 -6q5 -6 5 -13v-172q0 -8 -3 -17q-3 -10 -7 -17l-115 -176q-4 -7 -12 -11t-16 -4h-70z" />
    <glyph glyph-name="circumflex" unicode="&#x2c6;" horiz-adv-x="1024" 
d="M815 1172q-3 -7 -10 -9q-7 -3 -14 0l-280 129l-280 -129q-7 -3 -14 0q-7 2 -10 9l-27 64q-3 7 0 15q2 8 9 12l265 165q7 4 17 7q9 3 17 3h46q8 0 18 -3q9 -3 16 -7l265 -165q7 -4 10 -12q2 -8 -1 -15z" />
    <glyph glyph-name="caron" unicode="&#x2c7;" horiz-adv-x="1024" 
d="M568 1171q-7 -4 -16 -7q-10 -3 -18 -3h-46q-8 0 -17 3q-10 3 -17 7l-265 165q-7 4 -9 12q-3 8 0 15l27 64q3 7 10 10q7 2 14 -1l282 -129l278 129q7 3 14 1q7 -3 10 -10l27 -64q3 -7 1 -15q-3 -8 -10 -12z" />
    <glyph glyph-name="uni02C9" unicode="&#x2c9;" horiz-adv-x="1024" 
d="M229 1206q-7 0 -12 6q-6 6 -6 13v102q0 7 6 13q5 6 12 6h564q7 0 13 -6q5 -6 5 -13v-102q0 -7 -5 -13q-6 -6 -13 -6h-564z" />
    <glyph glyph-name="breve" unicode="&#x2d8;" horiz-adv-x="1024" 
d="M800 1434q-3 -57 -24 -106q-22 -49 -59 -84q-38 -36 -90 -56q-52 -21 -115 -21t-115 21q-52 20 -89 56q-38 35 -59 84q-22 49 -25 106q-1 7 5 13q5 5 12 5h92q8 0 14 -5q5 -6 6 -13q6 -57 47 -94q40 -37 112 -37q69 0 111 37q42 36 48 94q1 7 7 13q5 5 13 5h92q7 0 13 -5
q5 -6 4 -13z" />
    <glyph glyph-name="dotaccent" unicode="&#x2d9;" horiz-adv-x="1024" 
d="M436 1176q-7 0 -12 6q-6 5 -6 12v168q0 7 6 13q5 5 12 5h154q7 0 13 -5q5 -6 5 -13v-168q0 -7 -5 -12q-6 -6 -13 -6h-154z" />
    <glyph glyph-name="ring" unicode="&#x2da;" horiz-adv-x="1024" 
d="M731 1378q0 -46 -16 -85q-17 -40 -46 -68q-30 -29 -71 -45q-41 -17 -88 -17t-87 17q-40 16 -69 45q-30 28 -46 68q-17 39 -17 85q0 45 17 84q16 39 46 68q29 28 69 45q40 16 87 16t88 -16q41 -17 71 -45q29 -29 46 -68q16 -39 16 -84zM395 1378q0 -63 32 -99t83 -36
t84 36t33 99t-33 98t-84 35t-83 -35t-32 -98z" />
    <glyph glyph-name="ogonek" unicode="&#x2db;" horiz-adv-x="1024" 
d="M543 -393q-113 0 -183 54q-71 54 -71 142q0 47 18 85q17 39 46 69t67 53t79 39q7 3 15 0q7 -3 11 -9l14 -23q4 -7 3 -14q-2 -8 -9 -12q-15 -10 -32 -26q-17 -15 -31 -35q-15 -19 -24 -42q-10 -23 -10 -48q0 -50 35 -74q34 -24 86 -24h86q7 0 13 -6q6 -5 6 -12v-99
q0 -7 -6 -13q-6 -5 -13 -5h-100z" />
    <glyph glyph-name="tilde" unicode="&#x2dc;" horiz-adv-x="1024" 
d="M798 1407q-3 -101 -45 -164t-126 -63q-47 0 -78 21t-55 47q-24 25 -45 46q-22 21 -50 21q-34 0 -50 -29q-17 -30 -19 -78q0 -7 -6 -12q-6 -6 -13 -6h-68q-7 0 -12 6q-6 5 -5 12q1 48 13 90q11 41 32 72q21 30 53 47q31 17 73 17q47 0 79 -21q31 -22 55 -47q23 -25 44 -46
q21 -22 46 -22q37 0 54 31q17 30 19 78q0 7 6 13q6 5 13 5h68q7 0 13 -5q5 -6 4 -13z" />
    <glyph glyph-name="hungarumlaut" unicode="&#x2dd;" horiz-adv-x="1024" 
d="M360 1191q-5 -5 -13 -5q-8 -1 -13 4l-41 37q-5 4 -5 13q-1 8 3 14l234 314q4 6 12 7q7 0 11 -5l73 -76q5 -5 5 -13t-5 -14zM647 1185q-5 -5 -13 -5q-8 -1 -14 4l-38 34q-5 5 -6 14q-1 8 3 14l232 316q4 6 12 6t12 -4l73 -74q5 -5 5 -13q0 -9 -5 -14z" />
    <glyph glyph-name="gravecmb" unicode="&#x300;" 
d="M180 1168q-3 -7 -10 -10t-14 -1l-453 160q-7 2 -10 9t-1 14l41 115q2 7 9 10t14 0l439 -208q7 -3 10 -10q3 -8 0 -15z" />
    <glyph glyph-name="acutecmb" unicode="&#x301;" 
d="M-166 1157q-7 -2 -15 1q-7 3 -9 10l-27 62q-3 7 -1 15q3 7 10 10l442 210q7 3 14 0t9 -10l39 -115q2 -7 -1 -14t-10 -9z" />
    <glyph glyph-name="circumflexcmb" unicode="&#x302;" 
d="M303 1172q-3 -7 -10 -9q-7 -3 -14 0l-280 129l-280 -129q-7 -3 -14 0q-7 2 -10 9l-27 64q-3 7 -1 15q3 8 10 12l265 165q7 4 16 7q10 3 18 3h46q8 0 18 -3q9 -3 16 -7l265 -165q7 -4 10 -12q2 -8 -1 -15z" />
    <glyph glyph-name="tildecmb" unicode="&#x303;" 
d="M286 1407q-3 -101 -45 -164t-126 -63q-47 0 -78 21t-55 47q-24 25 -46 46q-21 21 -49 21q-34 0 -51 -29q-16 -30 -18 -78q0 -7 -6 -12q-6 -6 -13 -6h-68q-7 0 -13 6q-5 5 -4 12q1 48 12 90q12 41 33 72q21 30 52 47q32 17 74 17q47 0 78 -21q32 -22 56 -47q23 -25 44 -46
q21 -22 46 -22q37 0 54 31q17 30 19 78q0 7 6 13q6 5 13 5h68q7 0 13 -5q5 -6 4 -13z" />
    <glyph glyph-name="macroncmb" unicode="&#x304;" 
d="M-283 1206q-7 0 -13 6q-5 6 -5 13v102q0 7 5 13q6 6 13 6h564q7 0 13 -6q5 -6 5 -13v-102q0 -7 -5 -13q-6 -6 -13 -6h-564z" />
    <glyph glyph-name="brevecmb" unicode="&#x306;" 
d="M288 1434q-3 -57 -24 -106q-22 -49 -59 -84q-38 -36 -90 -56q-52 -21 -115 -21t-115 21q-52 20 -90 56q-37 35 -59 84q-21 49 -24 106q-1 7 4 13q6 5 13 5h92q8 0 13 -5q6 -6 7 -13q6 -57 46 -94q41 -37 113 -37q69 0 111 37q42 36 48 94q1 7 7 13q5 5 13 5h92q7 0 13 -5
q5 -6 4 -13z" />
    <glyph glyph-name="dotaccentcmb" unicode="&#x307;" 
d="M-76 1176q-7 0 -13 6q-5 5 -5 12v168q0 7 5 13q6 5 13 5h154q7 0 13 -5q5 -6 5 -13v-168q0 -7 -5 -12q-6 -6 -13 -6h-154z" />
    <glyph glyph-name="dieresiscmb" unicode="&#x308;" 
d="M-227 1192q-7 0 -13 6q-6 5 -6 12v168q0 7 6 13t13 6h129q7 0 12 -6q6 -6 6 -13v-168q0 -7 -6 -12q-5 -6 -12 -6h-129zM98 1192q-7 0 -12 6q-6 5 -6 12v168q0 7 6 13q5 6 12 6h129q7 0 13 -6t6 -13v-168q0 -7 -6 -12q-6 -6 -13 -6h-129z" />
    <glyph glyph-name="ringcmb" unicode="&#x30a;" 
d="M219 1378q0 -46 -16 -85q-17 -40 -46 -68q-30 -29 -71 -45q-41 -17 -88 -17t-87 17q-40 16 -70 45q-29 28 -46 68q-16 39 -16 85q0 45 16 84q17 39 46 68q30 28 70 45q40 16 87 16t88 -16q41 -17 71 -45q29 -29 46 -68q16 -39 16 -84zM-117 1378q0 -63 32 -99t83 -36
t84 36t33 99t-33 98t-84 35t-83 -35t-32 -98z" />
    <glyph glyph-name="hungarumlautcmb" unicode="&#x30b;" 
d="M-152 1191q-5 -5 -13 -5q-8 -1 -13 4l-41 37q-5 4 -6 13q0 8 4 14l234 314q4 6 12 7q7 0 11 -5l73 -76q5 -5 5 -13t-5 -14zM135 1185q-5 -5 -13 -5q-8 -1 -14 4l-38 34q-5 5 -6 14q-1 8 3 14l232 316q4 6 12 6t12 -4l73 -74q5 -5 5 -13q0 -9 -5 -14z" />
    <glyph glyph-name="caroncmb" unicode="&#x30c;" 
d="M56 1171q-7 -4 -16 -7q-10 -3 -18 -3h-46q-8 0 -18 3q-9 3 -16 7l-265 165q-7 4 -10 12q-2 8 1 15l27 64q3 7 10 10q7 2 14 -1l282 -129l278 129q7 3 14 1q7 -3 10 -10l27 -64q3 -7 1 -15q-3 -8 -10 -12z" />
    <glyph glyph-name="commaturnedabovecmb" unicode="&#x312;" 
d="M-104 1188q-7 0 -13 6q-6 5 -6 12v140q0 8 3 17t8 16l115 153q5 6 14 10q8 4 16 4h71q7 0 11 -5q4 -6 3 -12l-48 -165v-158q0 -7 -6 -12q-6 -6 -13 -6h-155z" />
    <glyph glyph-name="commaaccentcmb" unicode="&#x326;" 
d="M-100 -436q-7 0 -11 5q-4 6 -3 13l42 162v160q0 7 6 12q6 6 13 6h119q7 0 13 -6q5 -5 5 -12v-142q0 -8 -3 -18q-3 -9 -7 -16l-89 -148q-4 -7 -12 -12q-8 -4 -16 -4h-57z" />
    <glyph glyph-name="cedillacmb" unicode="&#x327;" 
d="M-7 -336q-1 -7 -8 -11t-14 -3l-138 31q-7 1 -11 7q-3 7 -1 14l124 314q3 7 10 11q8 4 15 3l91 -17q7 -1 11 -7q4 -7 2 -14z" />
    <glyph glyph-name="ogonekcmb" unicode="&#x328;" 
d="M31 -393q-113 0 -184 54q-70 54 -70 142q0 47 17 85q18 39 47 69t67 53t79 39q7 3 15 0q7 -3 11 -9l14 -23q4 -7 3 -14q-2 -8 -9 -12q-15 -10 -32 -26q-17 -15 -32 -35q-14 -19 -24 -42q-9 -23 -9 -48q0 -50 34 -74q35 -24 87 -24h86q7 0 13 -6q6 -5 6 -12v-99
q0 -7 -6 -13q-6 -5 -13 -5h-100z" />
    <glyph glyph-name="Delta" unicode="&#x394;" horiz-adv-x="1315" 
d="M39 0q-7 0 -13 6q-6 5 -6 12v125q0 7 6 13t13 6q-7 0 -10 5q-4 5 -2 12l501 1238q3 7 10 12t15 5h213q8 0 15 -5q7 -6 10 -13l496 -1237q3 -7 5 -17q2 -11 2 -19v-125q0 -7 -5 -12q-6 -6 -13 -6h-1237zM1096 162l-445 1138l-429 -1121q-3 -7 -10 -12q-8 -5 -15 -5h899z
" />
    <glyph glyph-name="Omega" unicode="&#x3a9;" horiz-adv-x="1505" 
d="M620 18q0 -7 -5 -12q-6 -6 -13 -6h-485q-7 0 -13 6q-6 5 -6 12v119q0 7 6 13t13 6h248q-67 52 -122 116t-93 140q-39 75 -60 164q-22 89 -22 190q0 161 49 291q49 129 139 218q89 89 217 137q127 48 281 48q153 0 280 -48t216 -137t139 -218q49 -130 49 -291
q0 -101 -21 -190q-22 -89 -61 -164q-39 -76 -94 -140t-121 -116h250q7 0 13 -6q5 -6 5 -13v-119q0 -7 -5 -12q-6 -6 -13 -6h-488q-7 0 -12 6q-6 5 -6 12l2 119q0 8 5 16q4 8 11 12q72 44 135 101q62 57 107 129t71 162q25 90 25 199q0 127 -33 229q-34 102 -96 172
q-63 70 -153 108q-91 38 -205 38t-205 -38t-154 -108t-97 -172t-34 -229q0 -110 26 -200t71 -162t108 -128q62 -57 134 -101q7 -4 12 -12q4 -8 4 -16z" />
    <glyph glyph-name="mu" unicode="&#x3bc;" horiz-adv-x="1042" 
d="M266 -330q0 -7 -5 -13q-6 -5 -13 -5h-152q-7 0 -12 5q-6 6 -6 13l4 789l-4 577q0 7 6 13q5 6 12 6h166q7 0 13 -6q5 -6 5 -13l-4 -432v-203q0 -142 63 -209q62 -67 161 -67q102 0 181 82t110 237v160l-4 432q0 7 6 13q5 6 12 6h156q7 0 13 -6q5 -6 5 -13l-6 -463l4 -555
q0 -7 -6 -12q-6 -6 -13 -6h-145q-7 0 -12 6q-6 5 -6 12l4 162q-24 -40 -58 -77q-35 -38 -78 -66q-44 -28 -98 -45t-116 -17q-53 0 -99 12q-47 12 -86 34z" />
    <glyph glyph-name="pi" unicode="&#x3c0;" horiz-adv-x="1044" 
d="M98 0q-7 0 -12 6q-6 5 -6 12l4 463l-2 555q0 7 6 13q5 6 12 6h848q7 0 13 -6t6 -13l-2 -585l4 -433q0 -7 -6 -12q-6 -6 -13 -6h-153q-7 0 -13 6q-6 5 -6 12l2 463v428h-512v-458l2 -433q0 -7 -5 -12q-6 -6 -13 -6h-154z" />
    <glyph glyph-name="Wgrave" unicode="&#x1e80;" horiz-adv-x="1782" 
d="M1197 0q-7 0 -14 6q-7 5 -9 12l-288 1156l-275 -1156q-1 -7 -8 -12q-7 -6 -14 -6h-193q-7 0 -14 6q-7 5 -9 12l-357 1398q-1 7 3 13q4 5 11 5h155q8 0 15 -5q7 -6 8 -13l295 -1217l280 1217q2 7 9 13q6 5 14 5h182q8 0 15 -5q6 -6 8 -13l284 -1226l295 1226q1 7 8 13
q7 5 15 5h143q7 0 11 -5q4 -6 3 -13l-364 -1398q-1 -7 -8 -12q-7 -6 -15 -6h-186zM1065 1547q-3 -7 -10 -10t-14 -1l-453 160q-7 2 -10 9t-1 14l41 115q2 7 9 10t14 0l439 -208q7 -3 10 -10q3 -8 0 -15z" />
    <glyph glyph-name="wgrave" unicode="&#x1e81;" horiz-adv-x="1430" 
d="M955 0q-7 0 -14 6q-7 5 -9 12l-222 881l-201 -881q-1 -7 -8 -12q-7 -6 -15 -6h-178q-7 0 -14 6q-7 5 -9 12l-273 1019q-1 7 3 13q4 5 11 5h151q8 0 15 -5q6 -6 8 -13l204 -879l203 879q1 7 8 13q7 5 15 5h186q7 0 14 -5q7 -6 9 -13l209 -867l198 867q1 7 8 13q7 5 15 5
h135q7 0 11 -5q4 -6 3 -13l-257 -1019q-2 -7 -9 -12q-7 -6 -14 -6h-183zM885 1168q-3 -7 -10 -10t-14 -1l-453 160q-7 2 -10 9t-1 14l41 115q2 7 9 10t14 0l439 -208q7 -3 10 -10q3 -8 0 -15z" />
    <glyph glyph-name="Wacute" unicode="&#x1e82;" horiz-adv-x="1782" 
d="M1197 0q-7 0 -14 6q-7 5 -9 12l-288 1156l-275 -1156q-1 -7 -8 -12q-7 -6 -14 -6h-193q-7 0 -14 6q-7 5 -9 12l-357 1398q-1 7 3 13q4 5 11 5h155q8 0 15 -5q7 -6 8 -13l295 -1217l280 1217q2 7 9 13q6 5 14 5h182q8 0 15 -5q6 -6 8 -13l284 -1226l295 1226q1 7 8 13
q7 5 15 5h143q7 0 11 -5q4 -6 3 -13l-364 -1398q-1 -7 -8 -12q-7 -6 -15 -6h-186zM713 1536q-7 -2 -14 1q-8 3 -10 10l-27 62q-3 7 0 15q2 7 9 10l442 210q7 3 14 0t9 -10l39 -115q2 -7 -1 -14t-10 -9z" />
    <glyph glyph-name="wacute" unicode="&#x1e83;" horiz-adv-x="1430" 
d="M955 0q-7 0 -14 6q-7 5 -9 12l-222 881l-201 -881q-1 -7 -8 -12q-7 -6 -15 -6h-178q-7 0 -14 6q-7 5 -9 12l-273 1019q-1 7 3 13q4 5 11 5h151q8 0 15 -5q6 -6 8 -13l204 -879l203 879q1 7 8 13q7 5 15 5h186q7 0 14 -5q7 -6 9 -13l209 -867l198 867q1 7 8 13q7 5 15 5
h135q7 0 11 -5q4 -6 3 -13l-257 -1019q-2 -7 -9 -12q-7 -6 -14 -6h-183zM561 1157q-7 -2 -14 1q-8 3 -10 10l-27 62q-3 7 0 15q2 7 9 10l442 210q7 3 14 0t9 -10l39 -115q2 -7 -1 -14t-10 -9z" />
    <glyph glyph-name="Wdieresis" unicode="&#x1e84;" horiz-adv-x="1782" 
d="M1197 0q-7 0 -14 6q-7 5 -9 12l-288 1156l-275 -1156q-1 -7 -8 -12q-7 -6 -14 -6h-193q-7 0 -14 6q-7 5 -9 12l-357 1398q-1 7 3 13q4 5 11 5h155q8 0 15 -5q7 -6 8 -13l295 -1217l280 1217q2 7 9 13q6 5 14 5h182q8 0 15 -5q6 -6 8 -13l284 -1226l295 1226q1 7 8 13
q7 5 15 5h143q7 0 11 -5q4 -6 3 -13l-364 -1398q-1 -7 -8 -12q-7 -6 -15 -6h-186zM664 1571q-7 0 -13 6q-6 5 -6 12v168q0 7 6 13t13 6h129q7 0 13 -6q5 -6 5 -13v-168q0 -7 -5 -12q-6 -6 -13 -6h-129zM989 1571q-7 0 -12 6q-6 5 -6 12v168q0 7 6 13q5 6 12 6h129q7 0 13 -6
t6 -13v-168q0 -7 -6 -12q-6 -6 -13 -6h-129z" />
    <glyph glyph-name="wdieresis" unicode="&#x1e85;" horiz-adv-x="1430" 
d="M955 0q-7 0 -14 6q-7 5 -9 12l-222 881l-201 -881q-1 -7 -8 -12q-7 -6 -15 -6h-178q-7 0 -14 6q-7 5 -9 12l-273 1019q-1 7 3 13q4 5 11 5h151q8 0 15 -5q6 -6 8 -13l204 -879l203 879q1 7 8 13q7 5 15 5h186q7 0 14 -5q7 -6 9 -13l209 -867l198 867q1 7 8 13q7 5 15 5
h135q7 0 11 -5q4 -6 3 -13l-257 -1019q-2 -7 -9 -12q-7 -6 -14 -6h-183zM484 1192q-7 0 -13 6q-6 5 -6 12v168q0 7 6 13t13 6h129q7 0 13 -6q5 -6 5 -13v-168q0 -7 -5 -12q-6 -6 -13 -6h-129zM809 1192q-7 0 -12 6q-6 5 -6 12v168q0 7 6 13q5 6 12 6h129q7 0 13 -6t6 -13
v-168q0 -7 -6 -12q-6 -6 -13 -6h-129z" />
    <glyph glyph-name="Ygrave" unicode="&#x1ef2;" horiz-adv-x="1137" 
d="M664 18q0 -7 -5 -12q-6 -6 -13 -6h-160q-7 0 -12 6q-6 5 -6 12l6 484l-471 915q-3 6 1 12q3 5 9 5h181q7 0 15 -5q7 -5 11 -12l356 -743l359 743q4 7 12 12q7 5 15 5h163q7 0 10 -5q3 -6 0 -12l-477 -923zM743 1547q-3 -7 -10 -10t-14 -1l-453 160q-7 2 -10 9t-1 14
l41 115q2 7 9 10t14 0l439 -208q7 -3 10 -10q3 -8 0 -15z" />
    <glyph glyph-name="ygrave" unicode="&#x1ef3;" horiz-adv-x="954" 
d="M479 -331q-2 -7 -9 -12q-8 -5 -15 -5h-142q-7 0 -10 5q-4 6 -2 12l113 329l-413 1040q-3 6 1 12q3 5 10 5h174q8 0 16 -5q7 -6 9 -13l299 -795l252 795q3 7 10 13q7 5 14 5h156q7 0 11 -5q3 -6 1 -13zM639 1168q-3 -7 -10 -10t-14 -1l-453 160q-7 2 -10 9t-1 14l41 115
q2 7 9 10t14 0l439 -208q7 -3 10 -10q3 -8 0 -15z" />
    <glyph glyph-name="uni2000" unicode="&#x2000;" horiz-adv-x="1024" 
 />
    <glyph glyph-name="uni2001" unicode="&#x2001;" horiz-adv-x="2048" 
 />
    <glyph glyph-name="uni2002" unicode="&#x2002;" horiz-adv-x="1024" 
 />
    <glyph glyph-name="uni2003" unicode="&#x2003;" horiz-adv-x="2048" 
 />
    <glyph glyph-name="uni2004" unicode="&#x2004;" horiz-adv-x="682" 
 />
    <glyph glyph-name="uni2005" unicode="&#x2005;" horiz-adv-x="512" 
 />
    <glyph glyph-name="uni2009" unicode="&#x2009;" horiz-adv-x="340" 
 />
    <glyph glyph-name="uni200A" unicode="&#x200a;" horiz-adv-x="205" 
 />
    <glyph glyph-name="uni200B" unicode="&#x200b;" 
 />
    <glyph glyph-name="endash" unicode="&#x2013;" horiz-adv-x="797" 
d="M49 535q-7 0 -12 6q-6 5 -6 12v109q0 7 6 13q5 5 12 5h699q7 0 13 -5q5 -6 5 -13v-109q0 -7 -5 -12q-6 -6 -13 -6h-699z" />
    <glyph glyph-name="emdash" unicode="&#x2014;" horiz-adv-x="1206" 
d="M49 535q-7 0 -12 6q-6 5 -6 12v109q0 7 6 13q5 5 12 5h1108q7 0 13 -5q6 -6 6 -13v-109q0 -7 -6 -12q-6 -6 -13 -6h-1108z" />
    <glyph glyph-name="horizontalbar" unicode="&#x2015;" horiz-adv-x="1169" 
d="M31 535q-7 0 -12 6q-6 5 -6 12v109q0 7 6 13q5 5 12 5h1108q7 0 13 -5q6 -6 6 -13v-109q0 -7 -6 -12q-6 -6 -13 -6h-1108z" />
    <glyph glyph-name="quoteleft" unicode="&#x2018;" horiz-adv-x="324" 
d="M279 1434q7 0 11 -5q4 -6 2 -13l-50 -187v-193q0 -7 -6 -12q-6 -6 -13 -6h-149q-7 0 -13 6q-6 5 -6 12v172q0 8 3 18q3 9 7 16l115 176q4 7 13 12q8 4 16 4h70z" />
    <glyph glyph-name="quoteright" unicode="&#x2019;" horiz-adv-x="324" 
d="M46 1018q-7 0 -11 6q-4 5 -3 12l51 187v192q0 7 6 13q5 6 12 6h150q7 0 13 -6q5 -6 5 -13v-172q0 -8 -3 -17q-3 -10 -7 -17l-115 -176q-4 -7 -12 -11t-16 -4h-70z" />
    <glyph glyph-name="quotesinglbase" unicode="&#x201a;" horiz-adv-x="317" 
d="M42 -201q-7 0 -11 5q-4 6 -3 13l51 187v193q0 7 6 13q5 5 12 5h150q7 0 13 -5q5 -6 5 -13v-172q0 -9 -3 -18t-7 -16l-115 -176q-4 -7 -12 -12q-9 -4 -17 -4h-69z" />
    <glyph glyph-name="quotedblleft" unicode="&#x201c;" horiz-adv-x="600" 
d="M274 1434q7 0 11 -5q4 -6 3 -13l-50 -187v-193q0 -7 -6 -12q-6 -6 -13 -6h-149q-7 0 -13 6q-6 5 -6 12v172q0 8 3 18q3 9 7 16l115 176q4 7 13 12q8 4 16 4h69zM551 1434q7 0 11 -5q4 -6 3 -13l-51 -187v-193q0 -7 -5 -12q-6 -6 -13 -6h-150q-7 0 -12 6q-6 5 -6 12v172
q0 8 3 18q3 9 7 16l115 176q4 7 12 12q8 4 16 4h70z" />
    <glyph glyph-name="quotedblright" unicode="&#x201d;" horiz-adv-x="600" 
d="M326 1018q-7 0 -11 6q-4 5 -3 12l50 187v192q0 7 6 13t13 6h149q7 0 13 -6t6 -13v-172q0 -8 -3 -17q-3 -10 -7 -17l-115 -176q-4 -7 -12 -11q-9 -4 -17 -4h-69zM49 1018q-7 0 -11 6q-4 5 -2 12l50 187v192q0 7 6 13q5 6 12 6h150q7 0 13 -6q5 -6 5 -13v-172q0 -8 -3 -17
q-3 -10 -7 -17l-115 -176q-4 -7 -12 -11t-16 -4h-70z" />
    <glyph glyph-name="quotedblbase" unicode="&#x201e;" horiz-adv-x="602" 
d="M408 -185q-4 -7 -12 -12q-8 -4 -16 -4h-70q-7 0 -11 5q-4 6 -2 13l50 187v193q0 7 6 13q6 5 13 5h149q7 0 13 -5q5 -6 5 -13v-172q0 -9 -3 -18t-7 -16zM132 -185q-4 -7 -12 -12q-9 -4 -17 -4h-69q-7 0 -11 5q-4 6 -3 13l51 187v193q0 7 6 13q5 5 12 5h150q7 0 13 -5
q5 -6 5 -13v-172q0 -9 -3 -18t-7 -16z" />
    <glyph glyph-name="dagger" unicode="&#x2020;" horiz-adv-x="903" 
d="M543 729l4 -711q0 -7 -6 -12q-6 -6 -13 -6h-153q-7 0 -13 6q-6 5 -6 12l4 711v154l-313 -4q-7 0 -12 6q-6 5 -6 12v162q0 7 6 13q5 5 12 5l311 -4l-2 342q0 7 6 13t13 6h153q7 0 13 -6t6 -13l-2 -342l311 4q7 0 13 -5q5 -6 5 -13v-162q0 -7 -5 -12q-6 -6 -13 -6l-313 4
v-154z" />
    <glyph glyph-name="daggerdbl" unicode="&#x2021;" horiz-adv-x="903" 
d="M547 18q0 -7 -6 -12q-6 -6 -13 -6h-153q-7 0 -13 6q-6 5 -6 12l2 342l-311 -3q-7 -1 -12 5q-6 6 -6 13v162q0 7 6 13q5 5 12 5l313 -4v332l-313 -4q-7 0 -12 6q-6 5 -6 12v162q0 7 6 13q5 5 12 5l311 -4l-2 342q0 7 6 13t13 6h153q7 0 13 -6t6 -13l-2 -342l311 4
q7 0 13 -5q5 -6 5 -13v-162q0 -7 -5 -12q-6 -6 -13 -6l-313 4v-332l313 4q7 0 13 -5q5 -6 5 -13v-162q0 -7 -5 -13q-6 -6 -13 -5l-311 3z" />
    <glyph glyph-name="bullet" unicode="&#x2022;" horiz-adv-x="504" 
d="M70 395q-7 0 -13 6t-6 13v399q0 7 6 13q6 5 13 5h364q7 0 13 -5q6 -6 6 -13v-399q0 -7 -6 -13t-13 -6h-364z" />
    <glyph glyph-name="ellipsis" unicode="&#x2026;" horiz-adv-x="938" 
d="M72 0q-7 0 -13 6q-6 5 -6 12v179q0 7 6 13q6 5 13 5h170q7 0 13 -5q5 -6 5 -13v-179q0 -7 -5 -12q-6 -6 -13 -6h-170zM385 0q-7 0 -13 6q-6 5 -6 12v179q0 7 6 13q6 5 13 5h170q7 0 13 -5q5 -6 5 -13v-179q0 -7 -5 -12q-6 -6 -13 -6h-170zM699 0q-7 0 -13 6q-6 5 -6 12
v179q0 7 6 13q6 5 13 5h170q7 0 13 -5q5 -6 5 -13v-179q0 -7 -5 -12q-6 -6 -13 -6h-170z" />
    <glyph glyph-name="perthousand" unicode="&#x2030;" horiz-adv-x="2269" 
d="M711 1100q0 -83 -23 -148q-24 -65 -66 -108q-42 -44 -101 -67q-60 -23 -132 -23t-131 23q-60 22 -102 66q-42 43 -65 109q-23 65 -23 150q0 83 23 149t65 111q42 44 102 68q59 24 131 24q73 0 133 -24q59 -24 101 -69t65 -111t23 -150zM238 0q-7 0 -9 6q-3 5 0 9
l936 1403q4 7 13 12q8 4 16 4h127q6 0 9 -5q3 -6 -1 -11l-936 -1403q-4 -7 -12 -11t-16 -4h-127zM229 1100q0 -110 43 -166q42 -57 117 -57t117 56q41 55 41 167q0 114 -43 173q-44 58 -117 58t-115 -58q-43 -59 -43 -173zM2204 334q0 -84 -23 -150q-24 -66 -66 -111
t-102 -69t-133 -24q-72 0 -131 24t-100 69q-42 45 -65 111t-23 150t23 149t65 109q42 43 102 66q59 22 131 22q73 0 133 -22q59 -23 101 -66q42 -44 65 -109t23 -149zM1497 334q0 -84 -23 -150q-24 -66 -66 -111t-102 -69t-132 -24t-131 24q-60 24 -101 69q-42 45 -65 111
t-23 150t23 149t65 109q42 43 102 66q59 22 132 22q72 0 132 -22q59 -23 101 -66q42 -44 65 -109t23 -149zM1722 334q0 -116 44 -174q43 -58 116 -58t116 58q42 58 42 174q0 108 -42 166q-43 57 -118 57t-116 -56q-42 -57 -42 -167zM1016 334q0 -116 43 -174t117 -58
q73 0 115 58t42 174q0 108 -42 166q-42 57 -117 57t-116 -56q-42 -57 -42 -167z" />
    <glyph glyph-name="minute" unicode="&#x2032;" horiz-adv-x="330" 
d="M52 1018q-7 0 -12 6q-5 5 -4 12l51 379q1 7 7 13t13 6h152q7 0 11 -5q4 -6 2 -13l-124 -381q-2 -7 -9 -12q-8 -5 -15 -5h-72z" />
    <glyph glyph-name="second" unicode="&#x2033;" horiz-adv-x="596" 
d="M327 1018q-7 0 -12 6q-5 5 -4 12l50 379q1 7 8 13q6 6 13 6h151q7 0 11 -5q4 -6 2 -13l-124 -381q-2 -7 -9 -12t-15 -5h-71zM60 1018q-7 0 -12 6q-5 5 -4 12l51 379q1 7 7 13t14 6h151q7 0 11 -5q4 -6 2 -13l-124 -381q-2 -7 -9 -12t-15 -5h-72z" />
    <glyph glyph-name="guilsinglleft" unicode="&#x2039;" horiz-adv-x="506" 
d="M320 199q-8 0 -16 4t-13 11l-248 344q-5 7 -5 16q0 8 5 14l248 339q5 7 13 11t16 4h121q6 0 9 -5t-1 -10l-258 -354l258 -359q4 -5 1 -10t-9 -5h-121z" />
    <glyph glyph-name="guilsinglright" unicode="&#x203a;" horiz-adv-x="506" 
d="M67 199q-6 0 -9 5t1 10l257 359l-257 354q-4 5 -1 10t9 5h120q8 0 17 -4q8 -4 13 -11l248 -339q4 -6 5 -14q0 -9 -5 -16l-248 -344q-5 -7 -13 -11q-9 -4 -17 -4h-120z" />
    <glyph glyph-name="fraction" unicode="&#x2044;" horiz-adv-x="731" 
d="M-131 0q-6 0 -9 6q-3 5 0 10l872 1402q4 7 12 12q8 4 16 4h102q6 0 9 -5q3 -6 0 -11l-872 -1402q-4 -7 -12 -11q-8 -5 -16 -5h-102z" />
    <glyph glyph-name="zero.sups" unicode="&#x2070;" horiz-adv-x="666" 
d="M618 1055q0 -188 -78 -289q-78 -102 -208 -102q-64 0 -117 26t-90 75t-57 123q-21 73 -21 167q0 96 21 171q20 74 57 124q37 49 90 75q53 25 117 25t117 -25q53 -26 91 -75q37 -49 58 -123q20 -75 20 -172zM184 1055q0 -146 40 -215q40 -70 110 -70t109 69q38 69 38 216
q0 145 -38 216q-39 70 -111 70t-110 -70t-38 -216z" />
    <glyph glyph-name="four.sups" unicode="&#x2074;" horiz-adv-x="637" 
d="M598 881q0 -7 -5 -13q-6 -6 -13 -6h-62v-168q0 -7 -5 -12q-6 -6 -13 -6h-97q-7 0 -12 6q-6 5 -6 12v168h-324q-7 0 -12 6q-6 6 -6 13v82q0 8 3 17t7 16l277 422q4 7 12 12q8 4 16 4h142q7 0 13 -6q5 -6 5 -13v-448h62q7 0 13 -6q5 -6 5 -13v-67zM385 1190l4 145
l-235 -368h231v223z" />
    <glyph glyph-name="five.sups" unicode="&#x2075;" horiz-adv-x="631" 
d="M589 950q0 -66 -20 -120q-21 -54 -57 -91q-37 -37 -88 -57q-52 -20 -114 -20q-115 0 -179 56t-77 146q-1 7 4 13t12 6h94q8 0 14 -5q6 -6 7 -14q6 -49 38 -77q32 -29 85 -29q66 0 104 48q38 47 38 136q0 86 -34 131q-35 45 -104 45q-47 0 -79 -22t-45 -62q-3 -9 -9 -13
q-7 -5 -16 -5h-76q-7 0 -12 6q-6 5 -5 12l26 381q1 7 7 13t13 6h405q7 0 13 -6t6 -13v-67q0 -7 -6 -13t-13 -6h-309l-16 -170q31 29 70 42t85 13q50 0 94 -19t76 -53q31 -34 50 -83q18 -49 18 -109z" />
    <glyph glyph-name="six.sups" unicode="&#x2076;" horiz-adv-x="647" 
d="M600 938q0 -57 -19 -107q-20 -51 -55 -88t-84 -58t-108 -21q-131 0 -206 99t-75 290q0 188 77 293q76 104 204 104q100 0 161 -47q61 -48 76 -135q1 -7 -4 -13t-12 -6h-91q-8 0 -14 5q-7 5 -8 14q-8 38 -34 61t-72 23q-70 0 -108 -65q-39 -66 -40 -179q26 37 69 57
q43 19 103 19q107 0 174 -66q66 -67 66 -180zM195 930q0 -75 36 -120q36 -46 99 -46t98 43q35 42 35 117q-1 73 -35 117t-98 44q-63 0 -99 -41t-36 -114z" />
    <glyph glyph-name="seven.sups" unicode="&#x2077;" horiz-adv-x="543" 
d="M502 1311q-69 -137 -124 -291q-56 -155 -81 -326q-1 -7 -7 -12q-6 -6 -14 -6h-102q-7 0 -11 6q-5 5 -4 12q14 86 34 172q20 85 46 166q25 81 58 157q32 75 70 140h-314q-7 0 -12 6q-6 6 -6 13v67q0 7 6 13q5 6 12 6h439q7 0 13 -6q5 -6 5 -13v-69q0 -8 -2 -18t-6 -17z
" />
    <glyph glyph-name="eight.sups" unicode="&#x2078;" horiz-adv-x="649" 
d="M602 891q0 -53 -21 -95q-22 -42 -59 -70t-87 -43q-51 -15 -109 -15t-109 15t-88 43t-58 70q-22 42 -22 95q0 66 38 118q37 51 108 70q-60 23 -91 70q-31 46 -30 102q0 93 67 145t185 52q117 0 184 -52q66 -52 70 -145q0 -54 -32 -101q-33 -48 -93 -71q72 -19 110 -70
q37 -52 37 -118zM201 1233q0 -51 34 -84q33 -33 91 -33q56 0 90 34q33 34 33 83q0 57 -33 90q-34 33 -90 33q-57 0 -91 -33t-34 -90zM178 895q0 -60 41 -98q41 -39 107 -39t106 39q40 38 39 98q0 61 -39 97t-106 36t-107 -36t-41 -97z" />
    <glyph glyph-name="nine.sups" unicode="&#x2079;" horiz-adv-x="647" 
d="M188 1188q1 -73 34 -118q33 -46 97 -46q65 0 102 42q36 41 36 116t-37 121q-38 45 -98 45q-63 0 -98 -42q-36 -43 -36 -118zM598 1059q0 -190 -77 -292q-77 -103 -204 -103q-101 0 -162 46q-62 46 -75 132q-1 7 4 13q5 5 12 5h91q9 0 15 -5t8 -13q7 -39 34 -60
q26 -22 71 -22q71 0 109 64q37 64 37 177q-25 -35 -67 -54t-103 -19q-107 0 -173 67q-67 67 -67 183q0 56 20 106t55 87q35 36 84 58q49 21 107 21q132 0 207 -100q74 -100 74 -291z" />
    <glyph glyph-name="zero.sinf" unicode="&#x2080;" horiz-adv-x="666" 
d="M618 15q0 -188 -78 -290q-78 -101 -208 -101q-64 0 -117 26t-90 75t-57 122q-21 74 -21 168q0 96 21 171q20 74 57 124q37 49 90 75q53 25 117 25t117 -25q53 -26 91 -75q37 -49 58 -123q20 -75 20 -172zM184 15q0 -146 40 -216q40 -69 110 -69t109 69q38 69 38 216
q0 145 -38 216q-39 70 -111 70t-110 -70t-38 -216z" />
    <glyph glyph-name="one.sinf" unicode="&#x2081;" horiz-adv-x="440" 
d="M223 -369q-7 0 -12 5q-6 6 -6 13l6 363l-2 221q-29 -28 -67 -47q-38 -20 -80 -35q-6 -2 -11 2q-6 3 -6 10v71q0 9 5 16t12 10q46 17 83 46q36 28 59 65q4 7 12 12q8 4 17 4h95q7 0 13 -6q5 -6 5 -13l-8 -393l8 -326q0 -7 -5 -13q-6 -5 -13 -5h-105z" />
    <glyph glyph-name="two.sinf" unicode="&#x2082;" horiz-adv-x="600" 
d="M68 -369q-7 0 -13 5q-6 6 -6 13v84q0 112 60 170q59 59 131 98q71 38 131 73q59 35 59 100q1 56 -30 91q-32 35 -95 34q-59 0 -93 -39q-35 -39 -39 -111q-1 -7 -7 -12q-6 -6 -13 -6h-84q-7 0 -12 6q-6 5 -6 12q3 119 68 185q64 66 186 67q119 0 182 -60q63 -61 66 -165
q0 -103 -59 -158q-60 -55 -130 -92q-71 -37 -130 -72q-60 -35 -60 -98v-21h356q7 0 13 -6q6 -5 6 -12v-68q0 -7 -6 -13q-6 -5 -13 -5h-462z" />
    <glyph glyph-name="three.sinf" unicode="&#x2083;" horiz-adv-x="621" 
d="M579 -140q0 -56 -21 -101q-22 -44 -59 -75q-37 -30 -87 -47q-51 -16 -108 -16q-117 0 -183 58q-66 59 -76 171q-1 7 5 12q5 6 12 6h92q7 0 13 -6q6 -5 7 -12q5 -65 38 -101q32 -35 96 -34q63 0 99 38q35 39 36 103q0 67 -36 99t-111 32h-41q-7 0 -12 6q-6 6 -6 13v53
q0 7 6 13q5 5 12 5h41q67 0 100 31t33 82q0 52 -33 83q-33 30 -82 30q-58 0 -90 -30q-33 -31 -39 -91q-1 -8 -7 -13q-6 -6 -14 -6h-90q-7 0 -12 6t-4 13q10 104 79 161q69 56 183 56q52 0 96 -14t76 -39q31 -26 49 -62q17 -36 17 -80q0 -67 -35 -106q-35 -40 -92 -59
q70 -16 109 -63q39 -46 39 -116z" />
    <glyph glyph-name="four.sinf" unicode="&#x2084;" horiz-adv-x="637" 
d="M598 -166q0 -7 -5 -13q-6 -6 -13 -6h-62v-168q0 -7 -5 -13q-6 -5 -13 -5h-97q-7 0 -12 5q-6 6 -6 13v168h-324q-7 0 -12 6q-6 6 -6 13v82q0 8 3 17t7 16l277 422q4 7 12 12q8 4 16 4h142q7 0 13 -6q5 -6 5 -13v-448h62q7 0 13 -6q5 -6 5 -13v-67zM385 143l4 145
l-235 -368h231v223z" />
    <glyph glyph-name="five.sinf" unicode="&#x2085;" horiz-adv-x="631" 
d="M589 -97q0 -66 -20 -120q-21 -54 -57 -91q-37 -37 -88 -57q-52 -20 -114 -20q-115 0 -179 56t-77 146q-1 7 4 13t12 6h94q8 0 14 -6q6 -5 7 -13q6 -49 38 -78q32 -28 85 -28q66 0 104 47q38 48 38 137q0 86 -34 131q-35 45 -104 45q-47 0 -79 -22t-45 -62q-3 -9 -9 -14
q-7 -4 -16 -4h-76q-7 0 -12 5q-6 6 -5 13l26 381q1 7 7 13t13 6h405q7 0 13 -6t6 -13v-67q0 -7 -6 -13t-13 -6h-309l-16 -170q31 29 70 42t85 13q50 0 94 -19t76 -53q31 -34 50 -83q18 -49 18 -109z" />
    <glyph glyph-name="six.sinf" unicode="&#x2086;" horiz-adv-x="647" 
d="M600 -109q0 -57 -19 -108q-20 -50 -55 -87t-84 -58t-108 -21q-131 0 -206 99t-75 290q0 188 77 293q76 104 204 104q100 0 161 -47q61 -48 76 -135q1 -7 -4 -13t-12 -6h-91q-8 0 -14 5q-7 5 -8 14q-8 38 -34 61t-72 23q-70 0 -108 -65q-39 -66 -40 -179q26 37 69 57
q43 19 103 19q107 0 174 -66q66 -67 66 -180zM195 -117q0 -75 36 -121q36 -45 99 -45t98 42q35 43 35 118q-1 73 -35 117t-98 44q-63 0 -99 -41t-36 -114z" />
    <glyph glyph-name="seven.sinf" unicode="&#x2087;" horiz-adv-x="541" 
d="M502 264q-69 -137 -124 -292q-56 -154 -81 -325q-1 -7 -7 -13q-6 -5 -14 -5h-102q-7 0 -11 5q-5 6 -4 13q14 86 34 171q20 86 46 167q25 81 58 157q32 75 70 140h-314q-7 0 -12 6q-6 6 -6 13v67q0 7 6 13q5 6 12 6h439q7 0 13 -6q5 -6 5 -13v-69q0 -8 -2 -18t-6 -17z" />
    <glyph glyph-name="eight.sinf" unicode="&#x2088;" horiz-adv-x="647" 
d="M602 -156q0 -53 -21 -95q-22 -42 -59 -70t-87 -43q-51 -15 -109 -15t-109 15t-88 43t-58 70q-22 42 -22 95q0 66 38 117q37 52 108 71q-60 23 -91 70q-31 46 -30 102q0 93 67 145t185 52q117 0 184 -52q66 -52 70 -145q0 -54 -32 -101q-33 -48 -93 -71q72 -19 110 -71
q37 -51 37 -117zM201 186q0 -51 34 -84q33 -33 91 -33q56 0 90 34q33 34 33 83q0 57 -33 90q-34 33 -90 33q-57 0 -91 -33t-34 -90zM178 -152q0 -60 41 -99q41 -38 107 -38t106 38q40 39 39 99q0 61 -39 97t-106 36t-107 -36t-41 -97z" />
    <glyph glyph-name="nine.sinf" unicode="&#x2089;" horiz-adv-x="647" 
d="M188 141q1 -73 34 -118q33 -46 97 -46q65 0 102 42q36 41 36 116t-37 121q-38 45 -98 45q-63 0 -98 -42q-36 -43 -36 -118zM598 12q0 -190 -77 -293q-77 -102 -204 -102q-101 0 -162 46q-62 46 -75 132q-1 7 4 12q5 6 12 6h91q9 0 15 -5t8 -13q7 -39 34 -61
q26 -21 71 -21q71 0 109 64q37 64 37 177q-25 -35 -67 -54t-103 -19q-107 0 -173 67q-67 67 -67 183q0 56 20 106t55 87q35 36 84 58q49 21 107 21q132 0 207 -100q74 -100 74 -291z" />
    <glyph glyph-name="Euro" unicode="&#x20ac;" horiz-adv-x="1296" 
d="M1243 453q7 0 12 -6t4 -13q-35 -235 -165 -348t-340 -113q-111 0 -202 35q-91 34 -160 99q-69 64 -115 159q-47 94 -70 213h-166q-7 0 -12 6q-6 6 -6 13v106q0 7 6 13q5 6 12 6h149q-1 22 -2 47q-2 24 -2 49q0 29 2 57q1 28 2 55h-149q-7 0 -12 6q-6 6 -6 13v106
q0 7 6 13q5 6 12 6h170q24 113 72 204q48 90 117 152q68 62 158 96q89 33 196 33q92 0 173 -22q81 -23 145 -73q63 -50 109 -132q45 -82 67 -201q1 -7 -3 -12q-5 -6 -12 -6h-151q-8 0 -14 5q-7 5 -8 13q-28 139 -106 205q-79 66 -204 66q-134 0 -218 -87q-85 -88 -122 -241
h383q7 0 13 -6q5 -6 5 -13v-106q0 -7 -5 -13q-6 -6 -13 -6h-406q-1 -27 -2 -55q-2 -28 -2 -57q0 -25 1 -49q0 -25 1 -47h408q7 0 13 -6q5 -6 5 -13v-106q0 -7 -5 -13q-6 -6 -13 -6h-390q34 -171 122 -259q87 -89 225 -89q139 0 220 78q80 78 99 225q1 8 7 14q6 5 14 5h153z
" />
    </font>
</defs>
</svg>
