<?xml version="1.0" standalone="no"?>
<!DOCTYPE svg PUBLIC "-//W3C//DTD SVG 1.1//EN" "http://www.w3.org/Graphics/SVG/1.1/DTD/svg11.dtd" >
<svg xmlns="http://www.w3.org/2000/svg" xmlns:xlink="http://www.w3.org/1999/xlink" version="1.1">
<metadata>
Created by FontForge 20170731 at Fri May  5 14:06:21 2017
 By Aleksey,,,
Copyright Type Network; all rights reserved. Any use or distribution beyond original license prohibited.
</metadata>
<defs>
<font id="FormaDJRDeck-Bold" horiz-adv-x="0" >
  <font-face 
    font-family="TN web use only 2"
    font-weight="700"
    font-stretch="normal"
    units-per-em="2048"
    panose-1="0 0 0 0 0 0 0 9 0 0"
    ascent="1536"
    descent="-512"
    x-height="1055"
    cap-height="1434"
    bbox="-374.286 -512 2540 2028"
    underline-thickness="0"
    underline-position="0"
    unicode-range="U+000D-FEFF"
  />
<missing-glyph horiz-adv-x="1024" 
d="M102 -512v2048h820v-2048h-820zM204 -410h616v1844h-616v-1844z" />
    <glyph glyph-name=".notdef" horiz-adv-x="1024" 
d="M102 -512v2048h820v-2048h-820zM204 -410h616v1844h-616v-1844z" />
    <glyph glyph-name=".null" 
 />
    <glyph glyph-name=".null" 
 />
    <glyph glyph-name="nonmarkingreturn" unicode="&#xd;" horiz-adv-x="512" 
 />
    <glyph glyph-name="space" unicode=" " horiz-adv-x="399" 
 />
    <glyph glyph-name="space" unicode="&#xa0;" horiz-adv-x="399" 
 />
    <glyph glyph-name="exclam" unicode="!" horiz-adv-x="440" 
d="M90 416q-9 0 -15 7q-7 6 -7 15v973q0 9 7 16q6 7 15 7h260q9 0 16 -7t7 -16v-973q0 -9 -7 -15q-7 -7 -16 -7h-260zM90 0q-9 0 -15 7q-7 6 -7 16v249q0 9 7 16q6 7 15 7h260q9 0 16 -7t7 -16v-249q0 -10 -7 -16q-7 -7 -16 -7h-260z" />
    <glyph glyph-name="quotedbl" unicode="&#x22;" horiz-adv-x="780" 
d="M484 901q-9 0 -16 7q-7 6 -8 16l-35 487q-1 9 5 16t15 7h246q9 0 16 -7q6 -7 5 -16l-35 -487q-1 -10 -8 -16q-7 -7 -17 -7h-168zM130 901q-9 0 -16 7q-8 6 -9 16l-34 487q-1 9 5 16t15 7h246q9 0 15 -7t5 -16l-34 -487q-2 -10 -9 -16q-7 -7 -16 -7h-168z" />
    <glyph glyph-name="numbersign" unicode="#" horiz-adv-x="1380" 
d="M767 512l59 418h-204l-60 -418h205zM716 0q-9 0 -15 7t-5 15l38 269h-205l-37 -269q-1 -9 -9 -15q-8 -7 -17 -7h-242q-8 0 -14 7t-5 15l38 269h-215q-9 0 -14 7q-6 7 -5 15l31 177q1 9 9 16q8 6 18 6h208l60 418h-209q-9 0 -15 7t-5 15l25 177q1 9 9 16q7 6 17 6h209
l37 260q1 10 9 17q8 6 17 6h242q8 0 14 -7t5 -16l-38 -260h205l38 260q1 10 9 17q7 6 17 6h241q9 0 15 -7t5 -16l-38 -260h211q8 0 14 -7t5 -15l-24 -177q-1 -9 -8 -15q-8 -7 -18 -7h-211l-59 -418h211q8 0 14 -7q5 -7 4 -15l-31 -177q-1 -9 -9 -15q-8 -7 -17 -7h-205
l-38 -269q-1 -9 -8 -15q-8 -7 -18 -7h-241z" />
    <glyph glyph-name="dollar" unicode="$" horiz-adv-x="1278" 
d="M788 -182q0 -9 -6 -16q-7 -7 -16 -7h-266q-9 0 -16 7t-7 16v168q-88 18 -161 56q-74 38 -126 97t-83 140q-31 80 -35 182q0 9 7 16q6 6 15 6h281q9 0 17 -6q7 -6 8 -16q7 -59 23 -107t46 -82t78 -52q48 -19 119 -19q110 0 169 45q58 44 58 145q0 121 -124 153
q-125 32 -272 66q-148 33 -272 116q-125 82 -125 302q0 168 96 280q95 112 273 144v123q0 9 7 16q6 6 16 6h266q9 0 16 -6q6 -7 6 -16v-127q156 -31 256 -132q99 -102 126 -284q1 -8 -5 -15t-14 -7h-282q-10 0 -17 6t-8 16q-12 95 -71 146q-60 51 -163 51q-84 0 -138 -40
q-54 -41 -54 -130q0 -114 125 -143q124 -30 273 -63q149 -34 274 -117q124 -83 124 -302q0 -196 -111 -313t-307 -146v-157z" />
    <glyph glyph-name="percent" unicode="%" horiz-adv-x="1751" 
d="M813 1079q0 -90 -27 -158q-28 -68 -78 -113t-121 -68q-72 -23 -159 -23t-158 23q-72 22 -122 67q-51 45 -79 113t-28 159q0 90 28 161q27 70 78 118q50 47 122 72q71 24 159 24q87 0 159 -24q71 -25 121 -72q50 -48 78 -118q27 -71 27 -161zM236 0q-7 0 -10 6q-4 6 0 12
l1043 1398q6 7 16 13q10 5 20 5h211q7 0 10 -6q3 -7 -1 -12l-1043 -1398q-6 -8 -16 -13t-20 -5h-210zM301 1079q0 -95 32 -139q32 -45 95 -45t94 43t31 141q0 104 -33 151q-34 46 -94 46t-92 -46q-33 -47 -33 -151zM1710 354q0 -90 -27 -160q-28 -70 -78 -117
q-50 -48 -122 -72q-72 -25 -160 -25q-87 0 -158 25q-72 24 -122 72q-50 47 -77 117q-28 70 -28 160t28 159q27 68 77 113t122 68q71 23 158 23t159 -22q71 -23 122 -68q50 -45 78 -113q28 -69 28 -160zM1198 354q0 -104 34 -150q33 -46 93 -46t93 46q32 46 32 150
q0 95 -32 140t-95 45t-94 -43q-31 -44 -31 -142z" />
    <glyph glyph-name="ampersand" unicode="&#x26;" horiz-adv-x="1425" 
d="M655 1294q-61 0 -99 -35q-38 -36 -38 -106q0 -38 25 -80q25 -43 82 -112q78 41 128 87t50 109q0 66 -39 102q-40 35 -109 35zM340 406q0 -59 19 -101q18 -43 50 -70t78 -40q45 -13 99 -13q70 0 133 24t115 68l-263 328q-13 17 -27 34t-30 34q-75 -51 -124 -114
q-50 -63 -50 -150zM1075 0q-10 0 -20 5t-17 12l-65 81q-84 -58 -188 -91q-105 -34 -224 -34q-103 0 -198 26q-95 27 -167 79q-73 52 -116 131q-43 78 -43 180q0 84 29 151q28 67 75 120t109 96q61 43 127 78q-61 78 -104 160q-44 81 -44 165q0 66 30 124q29 57 84 99
q54 42 134 67q79 24 178 24q83 0 156 -20q73 -21 127 -61t86 -98q32 -59 33 -135q0 -64 -25 -115q-25 -52 -66 -94q-42 -42 -96 -77q-55 -36 -114 -68q37 -41 79 -92t91 -111l69 -84q16 44 27 94q11 49 16 101q1 9 8 16q7 6 17 6h240q8 0 14 -7t5 -15q-15 -113 -53 -218
q-39 -105 -98 -194l232 -284q4 -5 2 -11q-3 -6 -10 -6h-320z" />
    <glyph glyph-name="quotesingle" unicode="'" horiz-adv-x="424" 
d="M130 901q-9 0 -16 7q-7 6 -8 16l-36 487q-1 9 6 16q6 7 15 7h246q9 0 16 -7q6 -7 5 -16l-36 -487q-1 -10 -8 -16q-7 -7 -16 -7h-168z" />
    <glyph glyph-name="parenleft" unicode="(" horiz-adv-x="537" 
d="M280 -287q-10 0 -19 6t-13 14q-98 199 -154 415q-57 215 -57 466t58 466q57 215 151 395q4 9 13 15q9 5 19 5h197q8 0 13 -6q4 -7 0 -14q-87 -195 -137 -411t-50 -450t50 -455q49 -221 139 -425q4 -7 0 -14q-5 -7 -13 -7h-197z" />
    <glyph glyph-name="parenright" unicode=")" horiz-adv-x="537" 
d="M60 -287q-7 0 -11 7q-5 7 -2 14q90 204 140 425t50 455t-50 450t-138 411q-3 7 2 14q4 6 12 6h196q10 0 20 -5q9 -6 13 -15q93 -180 151 -395t58 -466t-56 -466q-57 -216 -155 -415q-4 -8 -13 -14q-10 -6 -20 -6h-197z" />
    <glyph glyph-name="asterisk" unicode="*" horiz-adv-x="729" 
d="M632 960q-4 -7 -13 -9q-9 -3 -16 1l-157 95l10 -179q0 -9 -6 -15q-7 -7 -16 -7h-141q-9 0 -15 7q-7 6 -7 15l8 181l-154 -99q-7 -4 -16 -2q-10 2 -14 9l-69 115q-4 8 -1 17q2 9 9 13l150 80l-152 77q-7 4 -10 14q-4 9 0 17l64 126q4 7 13 10q9 2 17 -2l160 -97l-9 186
q0 9 7 16q6 7 15 7h137q9 0 16 -6q6 -7 6 -17l-6 -184l160 105q7 4 17 2q9 -2 13 -10l66 -118q4 -8 1 -17q-3 -10 -10 -14l-154 -85l147 -74q8 -4 12 -13q3 -9 -1 -17z" />
    <glyph glyph-name="plus" unicode="+" horiz-adv-x="1126" 
d="M1044 614q0 -9 -6 -15q-7 -7 -16 -7h-340v-385q0 -9 -6 -16q-7 -7 -17 -7h-190q-9 0 -16 7t-7 16v385h-342q-9 0 -15 7q-7 6 -7 15v183q0 9 7 16q6 6 15 6h342v387q0 9 7 16t16 7h190q10 0 17 -7q6 -7 6 -16v-387h340q9 0 16 -6q6 -7 6 -16v-183z" />
    <glyph glyph-name="comma" unicode="," horiz-adv-x="418" 
d="M33 -240q-8 0 -13 7q-6 7 -4 15l62 226v262q0 9 7 16q6 7 15 7h250q9 0 16 -7t7 -16v-237q0 -10 -4 -21q-4 -12 -10 -20l-159 -214q-6 -7 -16 -13q-10 -5 -20 -5h-131z" />
    <glyph glyph-name="hyphen" unicode="-" horiz-adv-x="586" 
d="M43 483q-9 0 -16 7t-7 16v168q0 9 7 16q7 6 16 6h498q9 0 16 -6q6 -7 6 -16v-168q0 -9 -6 -16q-7 -7 -16 -7h-498z" />
    <glyph glyph-name="hyphen" unicode="&#x2011;" horiz-adv-x="586" 
d="M43 483q-9 0 -16 7t-7 16v168q0 9 7 16q7 6 16 6h498q9 0 16 -6q6 -7 6 -16v-168q0 -9 -6 -16q-7 -7 -16 -7h-498z" />
    <glyph glyph-name="hyphen" unicode="&#x2010;" horiz-adv-x="586" 
d="M43 483q-9 0 -16 7t-7 16v168q0 9 7 16q7 6 16 6h498q9 0 16 -6q6 -7 6 -16v-168q0 -9 -6 -16q-7 -7 -16 -7h-498z" />
    <glyph glyph-name="hyphen" unicode="&#xad;" horiz-adv-x="586" 
d="M43 483q-9 0 -16 7t-7 16v168q0 9 7 16q7 6 16 6h498q9 0 16 -6q6 -7 6 -16v-168q0 -9 -6 -16q-7 -7 -16 -7h-498z" />
    <glyph glyph-name="period" unicode="." horiz-adv-x="418" 
d="M72 0q-9 0 -16 7q-7 6 -7 16v247q0 9 7 16t16 7h274q9 0 16 -7t7 -16v-247q0 -10 -7 -16q-7 -7 -16 -7h-274z" />
    <glyph glyph-name="slash" unicode="/" horiz-adv-x="743" 
d="M64 -287q-8 0 -13 7t-4 15l424 1738q2 10 10 16t18 6h180q8 0 14 -7q5 -7 3 -15l-423 -1738q-2 -9 -10 -16q-8 -6 -18 -6h-181z" />
    <glyph glyph-name="zero" unicode="0" horiz-adv-x="1225" 
d="M1182 713q0 -179 -41 -318q-41 -140 -115 -234q-75 -94 -181 -143t-235 -49q-128 0 -233 49q-106 49 -180 143q-75 94 -115 234q-41 139 -41 318q0 185 41 327q40 141 114 235t180 142q105 47 234 47q128 0 234 -46q106 -47 181 -140q75 -94 116 -235q41 -142 41 -330z
M362 713q0 -265 66 -384q65 -120 184 -120t184 119q64 119 64 385t-64 389q-65 123 -186 123q-122 0 -185 -121t-63 -391z" />
    <glyph glyph-name="one" unicode="1" horiz-adv-x="768" 
d="M365 0q-10 0 -16 7q-7 6 -7 16l8 618l-4 449q-56 -54 -129 -93t-156 -65q-8 -2 -15 3t-7 13v192q0 10 6 19q5 8 15 12q101 37 175 99q73 61 119 144q5 9 15 15q9 5 19 5h253q9 0 16 -7q6 -7 6 -16l-10 -733l10 -655q0 -10 -6 -16q-7 -7 -16 -7h-276z" />
    <glyph glyph-name="two" unicode="2" horiz-adv-x="1098" 
d="M70 0q-9 0 -16 7q-7 6 -7 16v178q0 213 111 326t244 185q132 71 243 134q111 62 111 174q4 102 -49 160t-152 57q-96 -1 -153 -69q-57 -69 -62 -197q0 -10 -6 -16q-7 -7 -17 -7h-239q-9 0 -16 7t-7 16q1 231 128 360q126 128 372 129q119 0 210 -29q90 -30 151 -85
q61 -56 93 -136t35 -180q0 -198 -110 -306q-111 -108 -243 -177t-242 -129q-111 -60 -111 -162v-25h684q9 0 16 -6q6 -7 6 -16v-186q0 -10 -6 -16q-7 -7 -16 -7h-952z" />
    <glyph glyph-name="three" unicode="3" horiz-adv-x="1118" 
d="M1082 440q0 -110 -44 -196t-117 -144q-74 -59 -172 -89q-99 -31 -207 -31q-234 0 -361 115q-127 114 -146 333q-1 9 6 16q6 7 15 7h256q9 0 16 -6q7 -7 8 -17q5 -113 59 -177q53 -64 155 -63q93 0 153 65q59 64 62 177q3 122 -67 177q-71 55 -230 55h-39q-9 0 -15 7
q-7 6 -7 15v154q0 9 7 16q6 6 15 6h39q140 0 206 55q66 54 66 140q0 82 -51 136q-52 54 -129 54q-93 0 -144 -52t-59 -157q-1 -10 -8 -16t-17 -6h-252q-8 0 -14 7q-7 7 -6 15q16 202 151 310q134 108 365 108q104 0 191 -26q86 -27 148 -74q61 -48 95 -116q34 -69 35 -153
q0 -64 -18 -114q-18 -51 -49 -88q-31 -38 -74 -64q-44 -26 -94 -43q130 -34 201 -120t71 -216z" />
    <glyph glyph-name="four" unicode="4" horiz-adv-x="1176" 
d="M1149 348q0 -9 -7 -15q-7 -7 -16 -7h-135v-306q0 -9 -6 -15q-7 -7 -16 -7h-267q-9 0 -15 7q-7 6 -7 15v306h-619q-9 0 -15 7q-7 6 -7 15v219q0 10 4 22q3 11 8 20l516 806q6 8 16 14q9 5 19 5h367q9 0 16 -7q6 -7 6 -16v-854h135q9 0 16 -6q7 -7 7 -16v-187zM680 918
l10 288l-405 -649h395v361z" />
    <glyph glyph-name="five" unicode="5" horiz-adv-x="1157" 
d="M1123 518q0 -127 -41 -229q-41 -103 -114 -174q-74 -71 -177 -109q-104 -39 -229 -39q-115 0 -205 29t-153 81q-64 52 -102 125q-38 72 -48 159q-1 8 6 15q6 7 14 7h264q10 0 17 -6q6 -7 7 -17q7 -88 61 -134q53 -46 137 -46q110 0 172 80t62 236q0 146 -54 226
q-55 79 -176 79q-80 0 -134 -38t-74 -108q-2 -10 -10 -16q-9 -6 -19 -6h-224q-8 0 -14 7q-7 7 -7 15l55 756q0 9 7 16t17 7h852q9 0 16 -7q6 -7 6 -16v-186q0 -9 -6 -16q-7 -7 -16 -7h-600l-31 -284q55 53 128 77q73 23 153 23q96 0 180 -36q84 -37 146 -102q62 -66 98 -158
q36 -93 36 -204z" />
    <glyph glyph-name="six" unicode="6" horiz-adv-x="1180" 
d="M1137 496q0 -107 -40 -203q-41 -97 -112 -168q-71 -72 -168 -114q-98 -42 -211 -42q-130 0 -234 48q-104 47 -175 140t-109 233q-39 140 -39 323q0 180 41 321t117 236t185 145q108 49 241 49q193 0 311 -94q117 -94 139 -266q1 -8 -5 -15q-6 -8 -15 -8h-257q-10 0 -18 7
q-8 6 -9 16q-13 60 -54 103q-42 42 -117 42q-114 0 -175 -107t-62 -298q47 53 118 86t183 33q104 0 190 -33t147 -93q61 -61 95 -147q33 -87 33 -194zM381 473q0 -130 55 -205t154 -75t161 71q62 70 62 197q0 130 -51 207q-52 77 -156 77t-164 -71q-61 -71 -61 -201z" />
    <glyph glyph-name="seven" unicode="7" horiz-adv-x="985" 
d="M956 1176q-64 -126 -123 -262q-60 -137 -110 -280q-51 -143 -90 -297q-39 -155 -63 -317q-1 -9 -8 -15q-8 -7 -17 -7h-279q-8 0 -14 7t-5 15q25 159 62 319q36 160 84 311q47 150 106 291t130 261h-586q-9 0 -16 7t-7 16v186q0 9 7 16t16 7h901q9 0 16 -7t7 -16v-192
q0 -10 -3 -22t-8 -21z" />
    <glyph glyph-name="eight" unicode="8" horiz-adv-x="1186" 
d="M1143 410q0 -105 -43 -187t-117 -137t-175 -84t-216 -29t-215 29q-101 29 -174 84q-74 55 -117 137t-43 187q0 120 68 211q67 91 200 137q-110 47 -170 129t-59 184q4 190 136 291q131 100 374 100q245 0 377 -100q131 -101 135 -291q1 -102 -59 -182q-61 -81 -173 -131
q134 -46 203 -137q68 -91 68 -211zM383 1044q0 -91 57 -147q57 -57 152 -57t152 57q57 56 57 147q0 97 -56 155q-57 58 -153 58t-152 -58q-57 -58 -57 -155zM346 420q0 -52 19 -96q18 -44 51 -76q32 -32 78 -50q45 -18 98 -18t99 18q45 18 78 50q32 32 51 76q18 44 18 96
q0 105 -67 167q-68 62 -179 62q-112 0 -179 -62t-67 -167z" />
    <glyph glyph-name="nine" unicode="9" horiz-adv-x="1180" 
d="M371 973q0 -130 52 -207q51 -78 155 -78t165 71q60 71 60 202q0 130 -55 205t-154 75t-161 -70q-62 -71 -62 -198zM1135 721q0 -180 -41 -321q-42 -141 -117 -236q-76 -95 -184 -145q-109 -50 -242 -50q-193 0 -310 95q-118 94 -140 266q-1 8 5 15t14 7h258q10 0 18 -6
q7 -6 9 -16q13 -61 55 -103q41 -43 115 -43q115 0 176 108q61 107 62 298q-47 -54 -118 -86q-71 -33 -183 -33q-104 0 -190 33t-147 93t-94 147q-34 87 -34 194q0 111 38 208q38 96 107 167q69 70 168 111q98 40 218 40q128 0 232 -46t176 -138q71 -92 110 -232t39 -327z
" />
    <glyph glyph-name="colon" unicode=":" horiz-adv-x="418" 
d="M70 762q-9 0 -16 7q-7 6 -7 16v247q0 9 7 16t16 7h274q9 0 16 -7t7 -16v-247q0 -10 -7 -16q-7 -7 -16 -7h-274zM70 0q-9 0 -16 7q-7 6 -7 16v247q0 9 7 16t16 7h274q9 0 16 -7t7 -16v-247q0 -10 -7 -16q-7 -7 -16 -7h-274z" />
    <glyph glyph-name="semicolon" unicode=";" horiz-adv-x="418" 
d="M33 -240q-8 0 -13 7q-6 7 -4 15l62 226v262q0 9 7 16q6 7 15 7h250q9 0 16 -7t7 -16v-237q0 -10 -4 -21q-4 -12 -10 -20l-159 -214q-6 -7 -16 -13q-10 -5 -20 -5h-131zM72 762q-9 0 -16 7q-7 6 -7 16v247q0 9 7 16t16 7h274q9 0 16 -7t7 -16v-247q0 -10 -7 -16
q-7 -7 -16 -7h-274z" />
    <glyph glyph-name="less" unicode="&#x3c;" horiz-adv-x="1126" 
d="M1044 184q0 -8 -6 -12q-7 -4 -14 -1l-922 412q-9 4 -14 13q-6 8 -6 18v183q0 10 6 19q5 8 14 12l922 412q7 4 14 0q6 -5 6 -13v-193q0 -10 -5 -18q-6 -9 -15 -13l-707 -296l707 -299q9 -4 15 -12q5 -9 5 -19v-193z" />
    <glyph glyph-name="equal" unicode="=" horiz-adv-x="1126" 
d="M104 858q-9 0 -15 7q-7 7 -7 16v182q0 9 7 16q6 6 15 6h918q9 0 16 -6q6 -7 6 -16v-182q0 -9 -6 -16q-7 -7 -16 -7h-918zM104 326q-9 0 -15 7q-7 6 -7 15v182q0 10 7 17q6 6 15 6h918q9 0 16 -6q6 -7 6 -17v-182q0 -9 -6 -15q-7 -7 -16 -7h-918z" />
    <glyph glyph-name="greater" unicode="&#x3e;" horiz-adv-x="1126" 
d="M102 171q-7 -3 -13 1q-7 4 -7 12v193q0 10 6 19q6 8 15 12l706 299l-706 296q-9 4 -15 13q-6 8 -6 18v193q0 8 7 13q6 4 13 0l922 -412q9 -4 15 -12q5 -9 5 -19v-183q0 -10 -5 -18q-6 -9 -15 -13z" />
    <glyph glyph-name="question" unicode="?" horiz-adv-x="1055" 
d="M391 416q-9 0 -15 7q-7 7 -7 15q4 147 60 236q55 88 119 148q63 60 116 110t53 121q0 92 -56 142q-56 49 -143 50q-103 1 -153 -54q-51 -55 -57 -163q-1 -10 -7 -16q-7 -6 -17 -6h-247q-9 0 -15 7q-7 7 -7 15q14 206 148 315q133 109 372 109q104 0 194 -27
q89 -27 155 -78q65 -51 103 -127q37 -76 37 -173q0 -117 -52 -185t-115 -124t-118 -121q-55 -66 -61 -179q0 -10 -6 -16q-7 -6 -17 -6h-264zM389 0q-9 0 -15 7q-7 6 -7 16v249q0 9 7 16q6 7 15 7h266q9 0 16 -7t7 -16v-249q0 -10 -7 -16q-7 -7 -16 -7h-266z" />
    <glyph glyph-name="at" unicode="@" horiz-adv-x="1675" 
d="M1444 -21q-110 -177 -266 -263q-157 -85 -353 -85q-176 0 -322 61q-146 62 -249 175q-103 114 -160 279q-57 164 -57 368q0 209 57 377q57 167 160 283q103 115 250 177q146 62 323 62q182 0 332 -62t256 -177q105 -116 163 -284t58 -378q0 -114 -24 -202t-64 -147
q-41 -60 -94 -91q-54 -31 -113 -31q-38 0 -84 10q-47 10 -89 31q-43 21 -78 56q-35 34 -50 83q-49 -89 -131 -139q-82 -51 -192 -51q-103 0 -181 39q-79 38 -131 105q-52 66 -79 158q-27 91 -27 195q0 105 29 198q29 92 84 161q54 68 133 108q78 39 176 39q89 0 160 -31
q71 -32 120 -92l-4 80q-1 9 6 16q6 7 15 7h233q9 0 16 -7t7 -16v-692q0 -61 18 -86q17 -25 49 -25q55 0 95 81q39 80 39 243q0 177 -46 318t-130 237t-204 148q-121 51 -270 51q-144 0 -260 -51q-117 -52 -198 -148q-82 -97 -126 -238t-44 -317q0 -172 45 -309
q44 -137 126 -231q81 -93 198 -143q116 -50 259 -50q137 0 249 43t193 157q7 9 17 14q9 5 19 5h131q7 0 11 -7q3 -6 -1 -12zM586 545q0 -163 54 -246t155 -82q102 0 157 78q55 77 56 231q1 153 -52 237q-54 84 -155 85q-107 3 -161 -76t-54 -227z" />
    <glyph glyph-name="A" unicode="A" horiz-adv-x="1370" 
d="M872 612l-196 613l-187 -613h383zM1090 0q-10 0 -18 6q-9 6 -12 15l-110 344h-536l-106 -343q-3 -10 -11 -16t-18 -6h-275q-8 0 -13 7t-2 14l485 1391q3 10 12 16q8 6 18 6h375q10 0 18 -6t11 -16l473 -1391q3 -7 -2 -14t-13 -7h-276z" />
    <glyph glyph-name="B" unicode="B" horiz-adv-x="1286" 
d="M1257 434q0 -116 -45 -199q-46 -83 -121 -135t-172 -76q-98 -24 -200 -24h-623q-9 0 -15 7q-7 6 -7 16l12 694l-12 694q0 9 7 16q6 7 15 7h613q109 0 203 -20q94 -21 162 -64q67 -44 106 -111t39 -160q0 -128 -65 -204q-66 -77 -183 -111q143 -34 215 -123
q71 -89 71 -207zM383 856h330q90 0 142 46q52 45 52 132q0 47 -15 82q-16 35 -42 57q-27 22 -62 33t-75 11h-320zM393 217h320q48 0 90 11q42 10 73 35q31 24 49 66q17 42 17 105q0 57 -18 96q-19 39 -50 64q-31 24 -72 35q-42 10 -89 10h-330z" />
    <glyph glyph-name="C" unicode="C" horiz-adv-x="1427" 
d="M1399 508q-30 -145 -88 -248q-59 -103 -141 -167q-83 -65 -189 -95q-106 -29 -231 -29q-165 0 -297 55q-133 54 -225 152t-141 235q-50 137 -50 300q0 170 51 310q50 140 142 238q92 97 224 151t294 54q115 0 218 -26t186 -84q83 -59 144 -156q61 -98 92 -240
q1 -8 -4 -15t-14 -7h-259q-10 0 -18 6t-10 16q-31 128 -116 198q-86 69 -224 69q-93 0 -165 -35q-72 -36 -120 -101q-49 -66 -74 -161q-26 -96 -26 -215t26 -213q26 -95 75 -159q48 -64 120 -98q71 -34 162 -34q149 0 234 78q84 77 113 221q1 10 9 16q7 6 17 6h267
q8 0 14 -7q5 -7 4 -15z" />
    <glyph glyph-name="D" unicode="D" horiz-adv-x="1395" 
d="M96 0q-9 0 -15 7q-7 6 -7 16l12 694l-12 694q0 9 7 16q6 7 15 7h502q154 0 293 -43q138 -43 242 -131q103 -89 164 -227t61 -326q0 -190 -61 -324q-62 -135 -165 -220q-104 -85 -241 -124q-138 -39 -289 -39h-506zM383 723q0 -91 2 -179q1 -89 3 -158t4 -111q1 -43 1 -44
h225q87 0 164 27q76 27 132 85q56 57 89 148t33 218t-32 221q-33 93 -90 153t-135 90q-79 29 -169 29h-217q0 -1 -1 -42q-2 -42 -4 -109t-3 -153q-2 -86 -2 -175z" />
    <glyph glyph-name="E" unicode="E" horiz-adv-x="1133" 
d="M96 0q-9 0 -15 7q-7 6 -7 16l12 694l-12 694q0 9 7 16q6 7 15 7h959q9 0 16 -7q6 -7 6 -16v-186q0 -9 -6 -16q-7 -7 -16 -7h-662l-10 -330h612q9 0 16 -6q7 -7 7 -16v-186q0 -10 -7 -16q-7 -7 -16 -7h-612l10 -410h678q9 0 16 -6q7 -7 7 -16v-186q0 -10 -7 -16
q-7 -7 -16 -7h-975z" />
    <glyph glyph-name="F" unicode="F" horiz-adv-x="1071" 
d="M96 0q-9 0 -15 7q-7 6 -7 16l12 694l-12 694q0 9 7 16q6 7 15 7h928q9 0 16 -7t7 -16v-186q0 -9 -7 -16t-16 -7h-631l-10 -393h612q9 0 16 -6q7 -7 7 -17v-186q0 -9 -7 -15q-7 -7 -16 -7h-612l10 -555q0 -10 -6 -16q-7 -7 -16 -7h-275z" />
    <glyph glyph-name="G" unicode="G" horiz-adv-x="1468" 
d="M1430 756q1 -197 -44 -345q-45 -149 -131 -246q-87 -98 -215 -147q-129 -49 -292 -49q-157 0 -288 55q-132 54 -225 152q-94 98 -146 237q-52 138 -52 304q0 169 51 308q51 138 143 235q91 97 221 151q130 53 287 53q132 0 241 -32t192 -92q83 -61 140 -149t86 -200
q1 -8 -4 -15t-13 -7h-276q-10 0 -18 6q-9 5 -12 15q-35 116 -119 178q-84 61 -215 61q-93 0 -165 -36t-120 -103t-73 -163t-25 -214q0 -116 27 -210q26 -95 76 -160t124 -100q74 -36 169 -36q152 0 244 89q91 88 98 253h-353q-9 0 -15 7q-7 6 -7 15v185q0 9 7 16q6 6 15 6
h664q9 0 16 -6q7 -7 7 -16z" />
    <glyph glyph-name="H" unicode="H" horiz-adv-x="1397" 
d="M1026 0q-9 0 -15 7q-7 6 -7 16l10 626h-629l10 -626q0 -10 -6 -16q-7 -7 -16 -7h-277q-9 0 -15 7q-7 6 -7 16l12 694l-12 694q0 9 7 16q6 7 15 7h277q9 0 16 -7q6 -7 6 -16l-8 -530h625l-8 530q0 9 7 16q6 7 15 7h277q9 0 16 -7q6 -7 6 -16l-12 -694l12 -694
q0 -10 -6 -16q-7 -7 -16 -7h-277z" />
    <glyph glyph-name="I" unicode="I" horiz-adv-x="483" 
d="M106 0q-9 0 -15 7q-7 6 -7 16l12 694l-12 694q0 9 7 16q6 7 15 7h273q9 0 16 -7q6 -7 6 -16l-12 -694l12 -694q0 -10 -6 -16q-7 -7 -16 -7h-273z" />
    <glyph glyph-name="J" unicode="J" horiz-adv-x="1075" 
d="M1009 512q3 -272 -126 -407q-129 -136 -374 -136q-119 0 -210 37t-152 105t-92 165q-32 97 -35 216q-1 8 6 15t16 7h258q9 0 16 -6q7 -7 7 -16q3 -135 46 -207t142 -72q102 0 143 74q40 73 41 227l4 375l-9 522q-1 9 6 16t16 7h282q9 0 16 -7t6 -16l-9 -522z" />
    <glyph glyph-name="K" unicode="K" horiz-adv-x="1274" 
d="M735 260l-229 346l-121 -149l6 -434q0 -10 -6 -16q-7 -7 -16 -7h-273q-9 0 -15 7q-7 6 -7 16l10 694l-10 694q0 9 7 16q6 7 15 7h273q9 0 16 -7q6 -7 6 -16l-6 -577l417 581q6 8 16 14q10 5 20 5h323q7 0 10 -6q2 -7 -2 -12l-462 -566l575 -831q4 -6 1 -12q-4 -7 -11 -7
h-340q-10 0 -20 5t-15 14z" />
    <glyph glyph-name="L" unicode="L" horiz-adv-x="997" 
d="M96 0q-9 0 -15 7q-7 6 -7 16l12 694l-12 694q0 9 7 16q6 7 15 7h275q9 0 16 -7q6 -7 6 -16l-10 -676l10 -504h576q9 0 16 -6q6 -7 6 -16v-186q0 -10 -6 -16q-7 -7 -16 -7h-873z" />
    <glyph glyph-name="M" unicode="M" horiz-adv-x="1710" 
d="M356 555v-532q0 -10 -6 -16q-7 -7 -16 -7h-238q-9 0 -15 7q-7 6 -7 16l10 694l-10 694q0 9 7 16q6 7 15 7h371q10 0 19 -6q8 -6 11 -16l382 -1027l359 1027q3 10 12 16q8 6 18 6h348q9 0 16 -7q6 -7 6 -16l-10 -694l10 -694q0 -10 -6 -16q-7 -7 -16 -7h-270q-10 0 -16 7
q-7 6 -7 16v532l10 389l2 64l-349 -987q-3 -9 -11 -15q-9 -6 -19 -6h-200q-10 0 -18 6q-9 6 -13 15l-383 1036l4 -117z" />
    <glyph glyph-name="N" unicode="N" horiz-adv-x="1391" 
d="M367 582v-559q0 -10 -7 -16q-7 -7 -16 -7h-248q-9 0 -15 7q-7 6 -7 16l10 694l-10 694q0 9 7 16q6 7 15 7h334q10 0 20 -5q9 -6 14 -15l572 -1011v17l-12 362v629q0 9 7 16q6 7 16 7h249q9 0 16 -7t7 -16l-10 -694l10 -694q0 -10 -7 -16q-7 -7 -16 -7h-348q-10 0 -19 6
q-10 5 -14 14l-561 1002l2 -68z" />
    <glyph glyph-name="O" unicode="O" horiz-adv-x="1522" 
d="M1485 713q0 -164 -52 -301q-52 -138 -146 -235q-95 -98 -229 -153q-135 -55 -298 -55t-297 55q-135 55 -229 153q-94 97 -145 235q-52 137 -52 301q0 170 51 310q51 139 145 237q94 97 228 151q134 53 299 53q163 0 297 -52q134 -53 229 -150t147 -236q52 -140 52 -313z
M358 713q0 -116 27 -210t79 -159q51 -65 127 -100q75 -35 171 -35t172 35q75 35 126 100q50 64 77 158q26 94 26 211t-26 212q-27 95 -77 162q-51 66 -126 102q-76 36 -174 36t-173 -35q-76 -36 -126 -101q-51 -66 -77 -161q-26 -96 -26 -215z" />
    <glyph glyph-name="P" unicode="P" horiz-adv-x="1206" 
d="M1178 973q0 -112 -37 -201q-38 -89 -108 -149q-70 -61 -172 -93t-230 -32h-246l8 -475q0 -10 -6 -16q-7 -7 -16 -7h-275q-9 0 -15 7q-7 6 -7 16l10 694l-10 694q0 9 7 16q6 7 15 7h537q129 0 231 -29q102 -30 172 -87q69 -58 106 -144q36 -87 36 -201zM877 967
q0 122 -61 181q-61 58 -171 58h-256l-6 -481h270q45 0 86 14q41 13 72 43q30 29 48 75t18 110z" />
    <glyph glyph-name="Q" unicode="Q" horiz-adv-x="1532" 
d="M1507 23q0 -10 -6 -16q-7 -7 -16 -7h-500q-54 -15 -111 -23t-118 -8q-164 0 -298 55t-228 153q-94 97 -145 235q-52 137 -52 301q0 170 51 310q51 139 145 237q94 97 228 151q134 53 299 53q163 0 297 -52q134 -53 229 -150t147 -236q52 -140 52 -313q0 -141 -39 -262
t-109 -215l64 4h88q9 0 16 -7q6 -7 6 -16v-194zM354 713q0 -116 27 -210t79 -159q51 -65 127 -100q75 -35 171 -35t172 35q75 35 126 100q50 64 77 158q26 94 26 211t-26 212q-27 95 -77 162q-51 66 -126 102q-76 36 -174 36t-173 -35q-76 -36 -126 -101q-51 -66 -77 -161
q-26 -96 -26 -215z" />
    <glyph glyph-name="R" unicode="R" horiz-adv-x="1288" 
d="M938 977q0 116 -66 173q-67 56 -186 56h-297l-6 -446h311q49 0 94 12q44 12 77 38t53 68q20 41 20 99zM731 319l-141 213h-205l8 -509q0 -10 -6 -16q-7 -7 -16 -7h-275q-9 0 -15 7q-7 6 -7 16l10 694l-10 694q0 9 7 16q6 7 15 7h578q134 0 240 -28q105 -29 177 -85
q72 -57 110 -141q38 -85 38 -197q0 -157 -84 -264q-84 -108 -235 -154l354 -546q4 -6 1 -12q-4 -7 -11 -7h-318q-10 0 -19 6q-10 5 -15 13z" />
    <glyph glyph-name="S" unicode="S" horiz-adv-x="1307" 
d="M1282 434q0 -113 -42 -200q-43 -88 -121 -147q-79 -59 -192 -90q-113 -30 -253 -30t-257 30q-118 30 -202 91q-85 60 -134 154q-50 93 -56 219q0 9 7 16q6 6 15 6h280q10 0 18 -6q7 -6 8 -16q7 -59 27 -107q19 -48 57 -82q37 -34 97 -52q59 -19 146 -19q139 0 214 45
q75 44 75 145q0 121 -143 156q-144 35 -315 71q-171 35 -314 117q-144 81 -144 293q0 100 39 181q38 81 112 138q73 56 181 87q107 30 244 30q125 0 230 -25t183 -77q78 -53 129 -135q50 -82 67 -195q1 -8 -5 -15t-14 -7h-282q-10 0 -17 6q-8 6 -9 16q-13 95 -89 146
q-77 51 -206 51q-55 0 -101 -10q-47 -10 -81 -30q-34 -21 -53 -53q-19 -33 -19 -77q0 -114 144 -146q144 -33 316 -68q172 -36 316 -117q144 -82 144 -294z" />
    <glyph glyph-name="T" unicode="T" horiz-adv-x="1174" 
d="M444 0q-9 0 -15 7q-7 6 -7 16l16 694l-12 485h-389q-9 0 -16 7t-7 16v186q0 9 7 16t16 7h1102q9 0 16 -7q6 -7 6 -16v-186q0 -9 -6 -16q-7 -7 -16 -7h-391l-13 -485l16 -694q0 -10 -6 -16q-7 -7 -16 -7h-285z" />
    <glyph glyph-name="U" unicode="U" horiz-adv-x="1288" 
d="M1221 532q0 -272 -144 -417q-144 -146 -428 -146t-433 146q-149 145 -148 417l2 390l-8 489q0 9 7 16q6 7 15 7h283q9 0 16 -7q6 -7 6 -16l-10 -481l2 -395q0 -153 65 -235q64 -83 203 -83q150 0 220 83q69 82 69 235v389l-6 487q0 9 7 16q6 7 15 7h252q9 0 16 -7t6 -16
l-7 -489v-390z" />
    <glyph glyph-name="V" unicode="V" horiz-adv-x="1305" 
d="M869 21q-3 -9 -11 -15t-18 -6h-363q-10 0 -18 6t-11 15l-459 1391q-3 8 2 15t13 7h303q10 0 18 -6q8 -7 11 -16l340 -1160l334 1160q2 9 10 16q8 6 18 6h262q9 0 14 -7t2 -15z" />
    <glyph glyph-name="W" unicode="W" horiz-adv-x="1880" 
d="M1185 0q-10 0 -18 6t-10 16l-226 982l-205 -982q-1 -9 -9 -15q-8 -7 -18 -7h-342q-9 0 -17 6t-10 16l-326 1390q-1 8 4 15t13 7h273q10 0 18 -6q7 -7 9 -16l225 -1103l215 1102q1 10 9 17q8 6 17 6h318q10 0 18 -6q7 -7 9 -16l227 -1125l223 1125q1 9 9 16q8 6 18 6h252
q8 0 13 -7t4 -15l-334 -1390q-2 -10 -10 -16t-17 -6h-332z" />
    <glyph glyph-name="X" unicode="X" horiz-adv-x="1290" 
d="M948 0q-10 0 -19 6q-10 5 -14 14l-274 490l-290 -491q-4 -8 -14 -13q-10 -6 -20 -6h-309q-7 0 -11 7q-3 6 1 12l465 735l-430 661q-4 6 0 13q3 6 10 6h332q10 0 20 -5q9 -6 14 -15l240 -417l247 417q5 9 15 15q9 5 19 5h309q7 0 11 -6q3 -7 -1 -13l-426 -672l469 -724
q4 -6 1 -12q-4 -7 -11 -7h-334z" />
    <glyph glyph-name="Y" unicode="Y" horiz-adv-x="1241" 
d="M779 23q0 -10 -6 -16q-7 -7 -16 -7h-275q-9 0 -15 7q-7 6 -7 16l8 454l-481 937q-4 7 0 14q4 6 12 6h309q10 0 19 -6t13 -15l292 -657l294 657q4 9 13 15q8 6 18 6h283q8 0 12 -6q4 -7 0 -14l-481 -933z" />
    <glyph glyph-name="Z" unicode="Z" horiz-adv-x="1198" 
d="M1167 23q0 -10 -6 -16q-7 -7 -16 -7h-1090q-9 0 -15 7q-7 6 -7 16v208q0 10 4 22q3 11 10 19l741 930h-677q-10 0 -16 7q-7 7 -7 16v186q0 9 7 16q6 7 16 7h1032q9 0 16 -7q6 -7 6 -16v-217q0 -10 -3 -21q-4 -11 -11 -19l-733 -923h727q9 0 16 -6q6 -7 6 -16v-186z" />
    <glyph glyph-name="bracketleft" unicode="[" horiz-adv-x="594" 
d="M84 -287q-9 0 -16 7t-7 16v1737q0 9 7 16q7 6 16 6h426q9 0 16 -6q6 -7 6 -16v-187q0 -9 -6 -15q-7 -7 -16 -7h-182v-1319h182q9 0 16 -7q6 -7 6 -16v-186q0 -9 -6 -16q-7 -7 -16 -7h-426z" />
    <glyph glyph-name="backslash" unicode="\" horiz-adv-x="743" 
d="M499 -287q-10 0 -18 6q-8 7 -10 16l-424 1738q-1 8 4 15t13 7h181q10 0 18 -6t10 -16l423 -1738q2 -8 -3 -15q-6 -7 -14 -7h-180z" />
    <glyph glyph-name="bracketright" unicode="]" horiz-adv-x="594" 
d="M84 -287q-9 0 -16 7t-7 16v186q0 9 7 16t16 7h182v1319h-182q-9 0 -16 7q-7 6 -7 15v187q0 9 7 16q7 6 16 6h426q9 0 16 -6q6 -7 6 -16v-1737q0 -9 -6 -16q-7 -7 -16 -7h-426z" />
    <glyph glyph-name="asciicircum" unicode="^" horiz-adv-x="1126" 
d="M891 471q-10 0 -18 6q-9 6 -13 15l-299 706l-296 -706q-4 -9 -13 -15t-19 -6h-192q-8 0 -12 7q-5 7 -1 14l411 921q4 9 13 15t19 6h182q10 0 19 -6t13 -15l412 -921q3 -7 -1 -14q-5 -7 -13 -7h-192z" />
    <glyph glyph-name="underscore" unicode="_" horiz-adv-x="846" 
d="M45 -348q-9 0 -15 6q-7 7 -7 16v168q0 9 7 16q6 7 15 7h754q9 0 16 -7q6 -7 6 -16v-168q0 -9 -6 -16q-7 -6 -16 -6h-754z" />
    <glyph glyph-name="grave" unicode="`" horiz-adv-x="1024" 
d="M709 1162q-4 -9 -12 -13q-9 -5 -18 -2l-497 131q-9 2 -13 11q-5 8 -2 16l61 185q3 8 12 12q8 4 16 0l483 -209q8 -4 12 -13t0 -17z" />
    <glyph glyph-name="a" unicode="a" horiz-adv-x="1169" 
d="M350 541q0 -178 60 -268t170 -89q111 0 170 85q58 85 61 251q1 168 -58 259q-59 90 -167 91q-116 3 -176 -82t-60 -247zM823 0q-9 0 -15 7q-7 7 -6 16l3 100q-55 -67 -133 -105q-79 -38 -178 -38q-112 0 -197 42q-86 42 -143 115q-58 73 -87 173q-30 99 -30 214
q0 114 32 215t92 175q59 74 146 118q86 43 193 43q98 0 175 -34q76 -35 130 -101l-5 92q-1 9 6 16q6 7 15 7h266q10 0 17 -7q6 -7 6 -16l-8 -506l8 -503q0 -10 -6 -16q-7 -7 -17 -7h-264z" />
    <glyph glyph-name="b" unicode="b" horiz-adv-x="1169" 
d="M1133 530q0 -114 -32 -214q-33 -101 -92 -175q-60 -75 -146 -118t-193 -43q-98 0 -175 35q-77 34 -130 98l4 -91q1 -8 -5 -15q-7 -7 -16 -7h-266q-9 0 -15 7q-7 6 -7 16l8 694l-8 694q0 9 7 16q6 7 15 7h266q9 0 16 -7t7 -16l-4 -475q54 66 133 103q78 36 176 36
q112 0 198 -42q85 -42 143 -115q57 -73 87 -173q29 -100 29 -215zM358 539q-1 -169 58 -259q58 -91 168 -92q116 -3 176 84q59 87 59 246q0 173 -59 261q-60 88 -170 87q-112 0 -171 -82q-60 -83 -61 -245z" />
    <glyph glyph-name="c" unicode="c" horiz-adv-x="1096" 
d="M1067 383q-9 -89 -48 -164q-40 -76 -104 -130q-64 -55 -150 -85q-87 -31 -190 -31q-126 0 -226 39t-169 111q-69 71 -106 174q-37 102 -37 227t37 229q37 103 107 176q69 72 171 112t230 40q100 0 183 -27q83 -28 144 -77q60 -49 97 -119q37 -71 47 -156q1 -8 -5 -15
q-7 -7 -15 -7h-240q-10 0 -17 6q-8 6 -10 16q-17 87 -68 130q-52 42 -116 42q-116 -1 -173 -87t-57 -261q0 -180 58 -263q57 -84 172 -85q77 -1 131 52q53 52 63 153q1 10 8 17q7 6 17 6h246q8 0 15 -7q6 -8 5 -16z" />
    <glyph glyph-name="d" unicode="d" horiz-adv-x="1169" 
d="M350 539q0 -178 60 -268t170 -89q111 0 171 85q59 85 60 251q1 169 -57 261t-168 93q-116 4 -176 -83t-60 -250zM821 0q-9 0 -15 7q-7 7 -6 15l5 101q-55 -67 -133 -105q-79 -38 -178 -38q-112 0 -197 42q-86 42 -143 115q-58 73 -87 173q-30 99 -30 214q0 114 32 215
t92 175q59 74 146 118q86 43 193 43q96 0 173 -33q76 -34 130 -98l-4 467q0 9 7 16q6 7 15 7h266q10 0 17 -7q6 -7 6 -16l-6 -694l6 -694q0 -10 -6 -16q-7 -7 -17 -7h-266z" />
    <glyph glyph-name="e" unicode="e" horiz-adv-x="1149" 
d="M1066 356q8 0 14 -7t5 -15q-10 -72 -49 -137q-40 -66 -104 -115q-64 -50 -153 -79q-90 -30 -199 -30q-132 0 -233 42q-102 41 -170 114q-69 73 -104 175q-36 101 -36 220q0 125 37 229q37 103 106 176q68 72 168 112t225 40q129 0 230 -41q101 -42 170 -118
q68 -77 105 -187q37 -111 40 -248q0 -8 -6 -15q-7 -7 -16 -7h-750q9 -149 69 -218q59 -69 169 -69q76 0 129 37q53 36 75 119q2 10 10 16t18 6h250zM786 659q-4 42 -18 82q-15 40 -41 71q-26 30 -63 49q-38 18 -89 18q-91 0 -146 -55q-56 -56 -75 -165h432z" />
    <glyph glyph-name="f" unicode="f" horiz-adv-x="782" 
d="M494 465l9 -442q1 -10 -6 -16q-7 -7 -16 -7h-276q-9 0 -15 7q-7 6 -7 16l10 442v373h-138q-9 0 -15 7q-7 6 -7 15v172q0 9 7 16q6 7 15 7h138v69q0 90 29 153t77 102q47 39 110 57q62 18 128 18q46 0 97 -5q51 -6 89 -12q10 -1 16 -8q6 -8 6 -18v-169q0 -9 -6 -14
q-7 -5 -15 -4q-23 5 -51 8q-29 3 -65 3q-50 0 -82 -30t-32 -109v-41h229q9 0 16 -7q6 -7 6 -16v-172q0 -9 -6 -15q-7 -7 -16 -7h-229v-373z" />
    <glyph glyph-name="g" unicode="g" horiz-adv-x="1167" 
d="M350 547q0 -170 60 -255q60 -86 170 -85q111 0 171 80q59 80 60 239q1 163 -57 252t-168 90q-116 3 -176 -80q-60 -84 -60 -241zM1104 29q1 -100 -32 -182q-33 -81 -98 -138t-163 -88q-99 -31 -229 -31q-103 -1 -192 19q-90 20 -156 62q-67 42 -107 106q-41 64 -48 149
q-1 9 6 16q6 7 15 7h257q10 0 18 -6q7 -6 9 -16q11 -63 64 -99q52 -35 144 -35q99 0 162 58t63 182v121q-51 -69 -128 -108q-77 -40 -175 -40q-117 0 -206 41q-90 41 -150 112t-90 168q-31 97 -31 208q0 110 32 208q32 97 92 169q59 72 146 115q86 42 193 42q98 0 175 -33
q76 -33 130 -96l-5 92q-1 9 6 16q6 7 15 7h262q9 0 16 -7t7 -16l-6 -520z" />
    <glyph glyph-name="h" unicode="h" horiz-adv-x="1118" 
d="M756 666q-1 95 -47 142q-46 46 -109 46q-37 0 -75 -15t-70 -44q-33 -29 -58 -72q-25 -44 -37 -100l8 -600q1 -10 -6 -16q-7 -7 -16 -7h-262q-9 0 -15 7q-7 6 -7 16l10 696l-10 692q0 9 7 16q6 7 15 7h262q9 0 16 -7t6 -16l-6 -475q54 72 135 108q81 35 185 35
q89 0 160 -27t120 -82t74 -140q25 -86 23 -201l-2 -226l8 -380q0 -10 -7 -16q-7 -7 -16 -7h-270q-9 0 -15 7q-7 6 -7 16l8 376z" />
    <glyph glyph-name="i" unicode="i" horiz-adv-x="451" 
d="M90 0q-9 0 -15 7q-7 6 -7 16l8 503l-8 506q0 9 7 16q6 7 15 7h270q10 0 17 -7q6 -7 6 -16l-8 -506l8 -503q0 -10 -6 -16q-7 -7 -17 -7h-270zM92 1157q-9 0 -16 7t-7 16v231q0 9 7 16t16 7h266q9 0 16 -7t7 -16v-231q0 -9 -7 -16t-16 -7h-266z" />
    <glyph glyph-name="j" unicode="j" horiz-adv-x="451" 
d="M90 -348q-9 0 -15 6q-7 7 -7 16l8 688l-8 670q0 9 7 16q6 7 15 7h270q10 0 17 -7q6 -7 6 -16l-8 -670l8 -688q0 -9 -6 -16q-7 -6 -17 -6h-270zM92 1157q-9 0 -16 7t-7 16v231q0 9 7 16t16 7h266q9 0 16 -7t7 -16v-231q0 -9 -7 -16t-16 -7h-266z" />
    <glyph glyph-name="k" unicode="k" horiz-adv-x="1042" 
d="M594 221l-131 234l-101 -125l4 -307q0 -10 -6 -16q-7 -7 -16 -7h-262q-9 0 -15 7q-7 6 -7 16l10 694l-10 694q0 9 7 16q6 7 15 7h262q9 0 16 -7q6 -7 6 -16l-8 -688v-61l304 375q6 8 16 13t20 5h293q7 0 10 -6q2 -6 -2 -11l-323 -362l378 -656q4 -7 0 -13q-4 -7 -12 -7
h-311q-10 0 -19 6q-10 5 -14 14z" />
    <glyph glyph-name="l" unicode="l" horiz-adv-x="446" 
d="M92 0q-9 0 -15 7q-7 6 -7 16l10 694l-10 694q0 9 7 16q6 7 15 7h262q9 0 16 -7t7 -16l-10 -694l10 -694q0 -10 -7 -16q-7 -7 -16 -7h-262z" />
    <glyph glyph-name="m" unicode="m" horiz-adv-x="1675" 
d="M371 379l7 -356q1 -10 -6 -16q-7 -7 -16 -7h-274q-9 0 -15 7q-7 6 -7 16l8 356l-4 653q0 9 7 16q6 7 15 7h254q9 0 16 -7q6 -7 5 -16l-5 -110q55 76 129 117q73 40 174 40q110 0 188 -48q77 -49 114 -150q34 59 71 98t77 61q39 22 83 31q43 8 90 8q159 0 248 -100
q88 -100 88 -309v-291l6 -356q0 -10 -6 -16q-7 -7 -16 -7h-271q-9 0 -15 7q-7 6 -7 16l8 356v287q0 95 -37 142q-37 46 -100 46q-31 0 -64 -21q-34 -21 -61 -62q-27 -42 -44 -103q-18 -62 -18 -142v-147l8 -356q0 -10 -6 -16q-7 -7 -16 -7h-270q-9 0 -16 7q-7 6 -6 16l7 356
v287q0 95 -36 142q-37 46 -101 46q-32 0 -65 -21q-34 -21 -60 -62q-27 -42 -44 -103q-17 -62 -17 -142v-147z" />
    <glyph glyph-name="n" unicode="n" horiz-adv-x="1122" 
d="M84 0q-9 0 -15 7q-7 6 -7 16l8 483l-4 526q0 9 7 16q6 7 15 7h252q9 0 16 -7q6 -7 5 -16l-5 -110q54 69 142 113t198 44q84 0 152 -28t116 -80q47 -52 73 -128q26 -77 26 -173v-221l6 -426q0 -10 -6 -16q-7 -7 -16 -7h-267q-9 0 -15 7q-7 6 -7 16l6 426v217q0 85 -46 137
q-47 51 -116 51q-41 0 -82 -19q-41 -20 -73 -60q-33 -40 -53 -102q-21 -63 -21 -147v-77l4 -426q0 -10 -7 -16q-7 -7 -16 -7h-270z" />
    <glyph glyph-name="o" unicode="o" horiz-adv-x="1153" 
d="M1118 530q0 -125 -36 -228t-104 -176t-169 -113t-229 -40t-229 39q-102 39 -171 111q-70 71 -106 174q-37 102 -37 227t37 229q36 103 106 176q69 72 171 112q101 40 229 40t229 -39t169 -110q68 -72 104 -174q36 -103 36 -228zM350 522q0 -177 58 -260q57 -84 172 -84
q113 0 168 83t55 263q0 178 -56 266q-56 87 -169 87q-116 -2 -172 -89q-56 -88 -56 -266z" />
    <glyph glyph-name="p" unicode="p" horiz-adv-x="1169" 
d="M358 535q-1 -167 58 -258q58 -91 168 -91q116 0 176 84q59 84 59 244q0 175 -59 264q-59 88 -170 88q-112 0 -171 -84q-60 -84 -61 -247zM1133 530q0 -114 -32 -214q-33 -101 -92 -175q-60 -75 -146 -118t-193 -43q-95 0 -171 33q-77 33 -128 96l4 -435q0 -9 -7 -16
q-7 -6 -16 -6h-270q-9 0 -15 6q-7 7 -7 16l8 754l-8 604q0 9 7 16q6 7 15 7h266q9 0 16 -7q6 -7 6 -16l-5 -100q54 67 133 105t178 38q112 0 198 -42q85 -42 143 -115q57 -73 87 -173q29 -100 29 -215z" />
    <glyph glyph-name="q" unicode="q" horiz-adv-x="1169" 
d="M1110 -326q0 -9 -6 -16q-7 -6 -17 -6h-266q-9 0 -15 6q-7 7 -7 16l2 443q-55 -64 -132 -100q-77 -37 -175 -37q-112 0 -197 42q-86 42 -143 115q-58 73 -87 173q-30 99 -30 214q0 114 32 215t92 175q59 74 146 118q86 43 193 43q98 0 175 -34q76 -35 130 -99l-5 90
q-1 9 6 16q6 7 15 7h266q10 0 17 -7q6 -7 6 -16l-8 -674zM350 537q0 -176 59 -264q59 -89 171 -89q111 0 171 84q59 83 60 248q1 168 -57 261t-168 93t-173 -81t-63 -252z" />
    <glyph glyph-name="r" unicode="r" horiz-adv-x="813" 
d="M82 0q-9 0 -15 7q-7 6 -7 16l8 505l-8 504q0 9 7 16q6 7 15 7h262q9 0 16 -7q6 -7 6 -16l-8 -155q61 93 162 140q101 46 215 46q11 0 23 -1q11 -2 21 -3q8 -1 15 -9t7 -17v-182q0 -10 -6 -16q-7 -6 -17 -5q-8 1 -17 1h-18q-81 0 -150 -22q-69 -23 -119 -68t-78 -113
q-29 -69 -29 -159l2 -446q0 -10 -7 -16q-7 -7 -16 -7h-264z" />
    <glyph glyph-name="s" unicode="s" horiz-adv-x="1077" 
d="M1042 322q0 -83 -37 -148t-102 -109t-155 -67t-195 -23q-112 0 -205 23q-94 23 -161 68q-68 45 -107 112q-40 67 -45 154q0 8 7 15q6 7 15 7h253q10 0 17 -6t8 -16q6 -86 64 -126t164 -40q90 0 139 34q48 34 48 95q0 75 -108 93q-109 17 -237 41q-129 23 -237 86
q-109 63 -109 228q0 82 32 145t92 106q60 42 146 64q85 21 191 21q103 0 189 -20q85 -21 148 -61q62 -41 100 -103q37 -62 45 -143q1 -9 -5 -16q-7 -7 -16 -7h-241q-10 0 -17 6q-8 6 -10 16q-13 66 -59 104t-138 38q-75 0 -119 -30q-45 -30 -45 -97q0 -75 108 -91t237 -38
q129 -23 237 -85q108 -63 108 -230z" />
    <glyph glyph-name="t" unicode="t" horiz-adv-x="741" 
d="M713 43q0 -10 -6 -18q-7 -9 -16 -12q-43 -14 -91 -24q-48 -9 -96 -9q-66 0 -129 18t-111 57q-49 39 -78 102q-30 63 -30 152l2 529h-115q-9 0 -16 7q-7 6 -7 15v172q0 9 7 16t16 7h113l-2 241q0 9 7 16q6 7 15 7h266q9 0 16 -7t7 -16l-2 -241h229q9 0 16 -7t7 -16v-172
q0 -9 -7 -15q-7 -7 -16 -7h-231l2 -521q0 -67 31 -92q31 -26 81 -26q36 0 65 5q28 5 51 11q8 2 15 -3t7 -14v-155z" />
    <glyph glyph-name="u" unicode="u" horiz-adv-x="1122" 
d="M767 133q-54 -69 -142 -113q-88 -45 -198 -45q-83 0 -151 28t-116 81q-48 52 -74 129q-26 76 -26 172v221l-5 426q-1 9 6 16t16 7h266q9 0 16 -7q6 -7 6 -16l-6 -426v-217q0 -86 47 -137q46 -51 115 -51q41 0 83 20q41 19 74 59q32 40 53 102q20 62 20 146v78l-4 426
q0 9 7 16q6 7 15 7h270q9 0 16 -7t6 -16l-7 -483l4 -526q0 -10 -7 -16q-7 -7 -16 -7h-252q-9 0 -15 7q-7 7 -6 16z" />
    <glyph glyph-name="v" unicode="v" horiz-adv-x="1061" 
d="M720 17q-3 -9 -11 -15q-9 -6 -19 -6h-323q-10 0 -18 6q-9 6 -12 15l-352 1016q-3 8 2 15t13 7h287q10 0 18 -6q8 -7 10 -16l224 -783l249 783q3 10 11 16t18 6h244q8 0 13 -7t2 -15z" />
    <glyph glyph-name="w" unicode="w" horiz-adv-x="1491" 
d="M927 0q-10 0 -18 7q-8 6 -9 15l-166 777l-143 -777q-1 -9 -9 -15q-8 -7 -18 -7h-315q-10 0 -18 7q-8 6 -10 15l-225 1011q-2 8 3 15q6 7 14 7h267q9 0 17 -6q7 -7 8 -17l118 -780l145 781q2 9 10 16q7 6 17 6h326q9 0 17 -6q8 -7 9 -16l139 -763l124 762q1 10 9 17
q7 6 17 6h240q8 0 14 -7q5 -7 3 -15l-221 -1011q-2 -9 -10 -15q-8 -7 -18 -7h-317z" />
    <glyph glyph-name="x" unicode="x" horiz-adv-x="1008" 
d="M704 0q-10 0 -19 6q-10 5 -14 14l-180 347l-183 -347q-4 -9 -13 -14q-10 -6 -20 -6h-274q-7 0 -11 7q-4 6 0 12l314 536l-299 481q-4 6 0 13q3 6 10 6h301q10 0 20 -5q9 -6 14 -15l175 -330l164 330q4 9 14 15q9 5 19 5h264q7 0 11 -6q4 -7 0 -14l-287 -490l306 -526
q4 -6 0 -12q-4 -7 -11 -7h-301z" />
    <glyph glyph-name="y" unicode="y" horiz-adv-x="1042" 
d="M591 -327q-3 -9 -11 -15q-9 -6 -19 -6h-248q-8 0 -13 6q-5 7 -2 15l110 317l-422 1044q-3 7 1 14q5 7 13 7h301q10 0 19 -6q8 -6 11 -16l228 -654l188 654q3 9 11 16q8 6 18 6h266q9 0 14 -7q4 -7 2 -15z" />
    <glyph glyph-name="z" unicode="z" horiz-adv-x="993" 
d="M942 23q0 -10 -6 -16q-7 -7 -16 -7h-846q-9 0 -16 7q-7 6 -7 16v172q0 10 4 21t10 19l472 603h-420q-9 0 -16 7q-7 6 -7 15v172q0 9 7 16t16 7h772q9 0 16 -7q6 -7 6 -16v-176q0 -10 -3 -21q-4 -11 -11 -19l-475 -599h498q9 0 16 -6q6 -7 6 -16v-172z" />
    <glyph glyph-name="braceleft" unicode="{" horiz-adv-x="594" 
d="M553 -264q0 -9 -6 -16q-7 -7 -17 -7h-79q-124 0 -204 41q-81 42 -120 110t-39 157t35 184l51 137q10 26 15 53t1 49q-5 21 -20 35q-16 13 -47 13h-39q-9 0 -16 7q-7 6 -7 15v180q0 9 7 16t16 7h39q31 0 47 14q15 13 20 34q4 21 -1 48t-15 53l-59 164q-36 98 -27 183
q8 85 54 148q46 62 126 98q79 36 183 36h79q10 0 17 -6q6 -7 6 -16v-187q0 -9 -6 -15q-7 -7 -17 -7h-77q-68 0 -93 -56q-26 -56 19 -178l59 -164q13 -37 15 -75q1 -39 -12 -74q-14 -36 -44 -66q-31 -30 -82 -49q50 -20 81 -51q30 -31 44 -66q13 -36 12 -73q-2 -38 -14 -70
l-51 -139q-26 -71 -31 -120q-6 -49 5 -79q10 -31 35 -45q24 -14 57 -14h77q10 0 17 -7q6 -7 6 -16v-186z" />
    <glyph glyph-name="bar" unicode="|" horiz-adv-x="371" 
d="M96 -287q-9 0 -15 7q-7 7 -7 16v1737q0 9 7 16q6 6 15 6h180q10 0 17 -6q6 -7 6 -16v-1737q0 -9 -6 -16q-7 -7 -17 -7h-180z" />
    <glyph glyph-name="braceright" unicode="}" horiz-adv-x="594" 
d="M492 205q35 -95 35 -184t-39 -157t-119 -110q-81 -41 -205 -41h-80q-9 0 -16 7t-7 16v186q0 9 7 16t16 7h78q33 0 57 14t35 45q10 30 5 79q-6 49 -32 120l-51 139q-12 32 -13 70q-1 37 13 73q13 35 43 66t80 51q-50 19 -81 49t-44 66q-14 35 -12 74q1 38 14 75l60 164
q44 122 19 178q-26 56 -93 56h-78q-9 0 -16 7q-7 6 -7 15v187q0 9 7 16q7 6 16 6h80q104 0 184 -36q79 -36 125 -98q45 -63 54 -148t-27 -183l-60 -164q-10 -26 -14 -53q-5 -27 0 -48q4 -21 20 -34q15 -14 46 -14h38q10 0 17 -7q6 -7 6 -16v-180q0 -9 -6 -15q-7 -7 -17 -7
h-38q-31 0 -46 -13q-16 -14 -20 -35q-5 -22 0 -49q4 -27 14 -53z" />
    <glyph glyph-name="asciitilde" unicode="~" horiz-adv-x="1126" 
d="M74 565q-9 0 -16 7t-7 16q2 99 21 185q19 85 57 147t96 98q58 35 137 35q89 0 149 -42q59 -42 102 -92q43 -51 76 -93q32 -42 67 -42q29 0 48 18q19 17 31 48q12 30 17 73q5 42 6 91q0 9 7 16q7 6 16 6h172q9 0 16 -6q6 -7 6 -16q-2 -101 -21 -184q-20 -83 -57 -140
q-38 -58 -94 -89q-57 -32 -133 -32q-86 0 -144 42t-101 93q-43 50 -79 92t-79 42q-27 0 -45 -18q-19 -19 -30 -52q-12 -33 -17 -79q-6 -47 -7 -101q0 -10 -6 -16q-7 -7 -16 -7h-172z" />
    <glyph glyph-name="exclamdown" unicode="&#xa1;" horiz-adv-x="440" 
d="M350 1055q9 0 16 -7t7 -16v-250q0 -9 -7 -15q-7 -7 -16 -7h-260q-9 0 -15 7q-7 6 -7 15v250q0 9 7 16q6 7 15 7h260zM350 639q9 0 16 -6q7 -7 7 -17v-972q0 -9 -7 -16t-16 -7h-260q-9 0 -15 7q-7 7 -7 16v972q0 10 7 17q6 6 15 6h260z" />
    <glyph glyph-name="cent" unicode="&#xa2;" horiz-adv-x="1114" 
d="M743 23q0 -10 -6 -16q-7 -7 -16 -7h-266q-9 0 -16 7q-7 6 -7 16v174q-89 22 -159 70q-70 47 -118 115q-48 67 -73 156q-25 88 -25 191t25 192q25 88 73 157q48 68 118 117q70 48 159 71v145q0 9 7 16t16 7h266q9 0 16 -7q6 -7 6 -16v-140q141 -33 228 -129
q86 -97 102 -235q1 -8 -5 -15t-15 -7h-239q-10 0 -18 6t-9 16q-18 87 -69 130q-51 42 -116 42q-116 -1 -172 -87q-57 -86 -57 -261q0 -181 58 -264q57 -83 171 -84q77 -1 131 52q53 52 64 153q1 10 8 16t17 6h245q9 0 16 -7q6 -7 5 -15q-7 -72 -35 -135q-28 -64 -72 -114
q-44 -51 -104 -87q-61 -37 -134 -56v-173z" />
    <glyph glyph-name="sterling" unicode="&#xa3;" horiz-adv-x="1257" 
d="M1207 500q8 0 15 -7t7 -16q-3 -133 -37 -228q-35 -96 -97 -156t-151 -87t-199 -24l-684 17q-9 1 -15 8q-7 6 -7 16v176q0 10 6 18t16 10l37 11q80 21 108 78q28 56 32 122q1 46 -8 100q-10 54 -23 111h-182q-10 0 -16 7q-7 7 -7 16v166q0 9 7 16q6 6 16 6h129
q-11 46 -18 91q-7 44 -7 85q0 93 35 172t101 136q65 56 161 88t217 32q105 0 197 -25q91 -25 160 -78q69 -54 115 -138q45 -85 60 -203q1 -9 -5 -16t-15 -7h-259q-10 0 -17 7q-8 6 -9 16q-14 96 -73 151q-59 54 -158 54q-50 0 -85 -16q-36 -17 -59 -43q-23 -27 -33 -61
q-11 -34 -11 -69q0 -44 6 -88q5 -45 14 -88h274q10 0 17 -6q6 -7 6 -16v-166q0 -9 -6 -16q-7 -7 -17 -7h-225q7 -41 13 -83t6 -85q0 -33 -9 -69q-10 -37 -30 -71q-21 -34 -53 -63q-33 -29 -80 -47l352 -10q62 -1 101 17q38 17 60 50q21 33 29 82q7 48 8 107q1 9 8 16
q6 7 15 7h267z" />
    <glyph glyph-name="currency" unicode="&#xa4;" horiz-adv-x="1167" 
d="M1011 180q-6 -7 -15 -7q-10 0 -17 7l-170 170q-46 -26 -100 -40q-55 -15 -113 -15t-113 15q-55 14 -104 40l-171 -170q-6 -7 -15 -7q-10 0 -16 7l-108 109q-6 7 -6 17q0 9 6 15l164 164q-30 48 -47 103q-18 55 -18 114q0 60 18 117q18 56 50 105l-189 189q-7 6 -7 16
q0 9 7 15l109 108q7 6 16 6t16 -6l195 -195q47 25 101 39t112 14q57 0 110 -13q53 -14 99 -40l174 174q7 7 17 7q9 0 15 -7l110 -107q6 -7 6 -16t-6 -16l-167 -166q32 -49 51 -106t19 -118q0 -59 -18 -115t-50 -104l163 -162q6 -6 6 -15q0 -10 -6 -17zM379 702q0 -53 17 -96
q17 -44 47 -75q29 -31 69 -48q40 -18 84 -18q42 0 82 18q39 17 69 48t48 75q18 43 18 96q0 54 -18 99q-18 44 -48 75t-69 48q-40 16 -82 16q-44 0 -84 -16q-40 -17 -69 -48q-30 -31 -47 -75q-17 -45 -17 -99z" />
    <glyph glyph-name="yen" unicode="&#xa5;" horiz-adv-x="1257" 
d="M1109 236q0 -10 -6 -16q-7 -7 -17 -7h-301l4 -190q0 -10 -6 -16q-7 -7 -16 -7h-281q-9 0 -15 7q-7 6 -6 16l5 190h-301q-9 0 -16 7q-7 6 -7 16v161q0 9 7 16t16 7h307l2 131h-309q-9 0 -16 7q-7 6 -7 15v162q0 9 7 16t16 7h219l-392 656q-4 7 0 14q4 6 11 6h309
q10 0 20 -6q9 -6 13 -15l291 -590l293 590q4 9 14 15q9 6 19 6h282q7 0 11 -6q4 -7 0 -14l-392 -656h219q10 0 17 -7q6 -7 6 -16v-162q0 -9 -6 -15q-7 -7 -17 -7h-309l2 -131h307q10 0 17 -7q6 -7 6 -16v-161z" />
    <glyph glyph-name="brokenbar" unicode="&#xa6;" horiz-adv-x="371" 
d="M96 737q-9 0 -15 7q-7 7 -7 16v713q0 9 7 16q6 6 15 6h180q10 0 17 -6q6 -7 6 -16v-713q0 -9 -6 -16q-7 -7 -17 -7h-180zM96 -287q-9 0 -15 7q-7 7 -7 16v713q0 9 7 16q6 6 15 6h180q10 0 17 -6q6 -7 6 -16v-713q0 -9 -6 -16q-7 -7 -17 -7h-180z" />
    <glyph glyph-name="section" unicode="&#xa7;" horiz-adv-x="1278" 
d="M595 684q-102 -23 -162 -58q-61 -36 -61 -106q0 -42 28 -70t75 -47q46 -19 109 -32q62 -14 130 -27q105 22 162 61t57 99q0 40 -27 68q-28 28 -74 48q-47 20 -108 35q-62 14 -129 29zM1226 -39q0 -93 -43 -165q-44 -72 -119 -122q-75 -49 -178 -75q-103 -25 -221 -25
q-125 0 -234 23q-110 23 -191 67q-81 45 -130 112t-55 154q-1 9 6 16t15 7h253q10 0 17 -7q7 -6 8 -16q9 -86 88 -126t223 -40q130 0 199 34q69 35 69 96q0 98 -134 131q-134 32 -293 68q-159 35 -293 109t-134 255q0 108 59 186t166 119q-48 20 -89 46q-42 26 -72 60
t-47 79q-17 44 -17 100q0 96 38 171q38 74 108 124q69 50 171 76q101 26 226 26q121 0 221 -22t173 -65q72 -44 116 -109q44 -66 53 -152q1 -9 -5 -16q-7 -7 -15 -7h-241q-10 0 -18 6t-9 16q-16 75 -82 119q-67 43 -198 43q-111 0 -178 -34q-67 -35 -67 -113q0 -94 134 -124
t293 -63t293 -104q134 -72 134 -248q0 -105 -61 -182q-62 -77 -165 -123q48 -20 90 -47q41 -27 72 -64q30 -37 47 -85t17 -109z" />
    <glyph glyph-name="dieresis" unicode="&#xa8;" horiz-adv-x="1024" 
d="M195 1178q-10 0 -16 7q-7 6 -7 15v232q0 9 7 16q6 6 16 6h204q9 0 16 -6q7 -7 7 -16v-232q0 -9 -7 -15q-7 -7 -16 -7h-204zM625 1178q-9 0 -16 7q-7 6 -7 15v232q0 9 7 16q7 6 16 6h204q10 0 17 -6q6 -7 6 -16v-232q0 -9 -6 -15q-7 -7 -17 -7h-204z" />
    <glyph glyph-name="copyright" unicode="&#xa9;" horiz-adv-x="1522" 
d="M1485 713q0 -164 -52 -301q-52 -138 -146 -235q-95 -98 -229 -153q-135 -55 -298 -55t-297 55q-135 55 -229 153q-94 97 -145 235q-52 137 -52 301q0 170 51 310q51 139 145 237q94 97 228 151q134 53 299 53q163 0 297 -52q134 -53 229 -150t147 -236q52 -140 52 -313z
M174 713q0 -144 39 -261t114 -198q74 -81 184 -124q110 -44 251 -44t251 44q109 43 184 124q74 80 113 197q38 117 38 262q0 144 -38 262q-39 118 -113 201q-74 82 -184 127q-111 45 -253 45q-143 0 -253 -44t-183 -125q-74 -82 -112 -200q-38 -119 -38 -266zM1185 580
q-40 -179 -146 -255q-106 -77 -263 -77q-104 0 -187 35q-84 34 -142 96q-58 61 -89 147q-32 86 -32 189q0 108 32 197q32 88 90 150t142 96q83 34 184 34q72 0 137 -16q64 -16 117 -52q52 -37 91 -97q38 -60 58 -147q2 -8 -3 -15q-6 -7 -15 -7h-146q-10 0 -18 6t-11 16
q-20 77 -74 119q-54 41 -138 41q-118 0 -181 -86t-63 -237t64 -235q63 -85 178 -85q93 0 147 48q53 48 72 135q2 10 10 16t18 6h151q8 0 14 -7q5 -7 3 -15z" />
    <glyph glyph-name="ordfeminine" unicode="&#xaa;" horiz-adv-x="913" 
d="M309 1053q0 -121 39 -183q38 -62 109 -61q72 0 111 61q38 61 38 183q1 113 -36 175q-37 61 -107 62q-77 1 -115 -60q-39 -61 -39 -177zM618 666q-9 0 -15 7q-7 6 -6 15l1 41q-43 -40 -100 -62t-127 -22q-81 0 -143 32q-63 32 -105 87t-64 131q-22 75 -22 162q0 82 24 155
q23 72 67 126q44 53 107 85q63 31 142 31q67 0 123 -18q55 -18 98 -54l-2 29q-1 9 6 16q6 7 14 7h224q9 0 16 -7q6 -7 6 -16l-4 -352l4 -371q0 -9 -6 -15q-7 -7 -16 -7h-222z" />
    <glyph glyph-name="guillemotleft" unicode="&#xab;" horiz-adv-x="1083" 
d="M381 137q-10 0 -20 5t-17 13l-299 358q-6 7 -6 18q0 10 6 17l299 370q7 8 17 13t20 5h209q7 0 10 -6q2 -6 -2 -12l-313 -388l313 -375q4 -6 2 -12q-3 -6 -10 -6h-209zM821 137q-10 0 -20 5t-17 13l-299 358q-6 7 -6 18q0 10 6 17l300 370q6 8 16 13t20 5h209q7 0 10 -6
t-1 -12l-314 -388l313 -375q4 -6 2 -12q-3 -6 -10 -6h-209z" />
    <glyph glyph-name="logicalnot" unicode="&#xac;" horiz-adv-x="1147" 
d="M1055 207q0 -9 -7 -16t-16 -7h-190q-9 0 -16 7t-7 16v385h-704q-9 0 -16 7q-7 6 -7 15v183q0 9 7 16q7 6 16 6h917q9 0 16 -6q7 -7 7 -16v-590z" />
    <glyph glyph-name="registered" unicode="&#xae;" horiz-adv-x="784" 
d="M748 1090q0 -81 -25 -148q-26 -68 -72 -115q-46 -48 -112 -75t-146 -27t-146 27t-112 75q-47 47 -72 115q-26 67 -26 148q0 84 25 153q25 68 72 116q46 47 112 73t147 26q79 0 145 -25q66 -26 113 -73q46 -48 72 -116q25 -69 25 -154zM119 1090q0 -135 72 -213
q71 -78 202 -78q130 0 202 78q71 78 71 213q0 134 -71 214t-202 80q-134 0 -204 -78q-70 -79 -70 -216zM459 1167q0 28 -18 41t-52 13h-65v-107h67q28 0 48 13q20 12 20 40zM401 983l-41 59h-36v-127q0 -9 -7 -15q-7 -7 -16 -7h-59q-9 0 -16 7q-7 6 -7 15v357q0 9 7 16
q7 6 16 6h145q83 0 129 -32q45 -32 45 -93q0 -43 -23 -72q-24 -29 -67 -42l92 -143q4 -6 1 -12q-4 -7 -11 -7h-76q-10 0 -19 6q-10 5 -15 13z" />
    <glyph glyph-name="macron" unicode="&#xaf;" horiz-adv-x="1024" 
d="M199 1178q-9 0 -16 7q-7 6 -7 15v160q0 9 7 16q7 6 16 6h624q9 0 16 -6q7 -7 7 -16v-160q0 -9 -7 -15q-7 -7 -16 -7h-624z" />
    <glyph glyph-name="degree" unicode="&#xb0;" horiz-adv-x="754" 
d="M723 1128q0 -69 -26 -129q-27 -60 -73 -103q-46 -44 -109 -68q-64 -25 -138 -25t-138 25q-64 24 -110 68q-46 43 -72 103t-26 129q0 70 26 130t72 104q46 43 110 68q64 24 138 24t138 -24q63 -25 109 -68q46 -44 73 -104q26 -60 26 -130zM242 1128q0 -75 38 -115
q37 -40 97 -40q57 0 96 40t39 115q0 77 -39 117q-39 39 -96 39q-60 0 -97 -39q-38 -40 -38 -117z" />
    <glyph glyph-name="plusminus" unicode="&#xb1;" horiz-adv-x="1126" 
d="M1044 696q0 -9 -6 -15q-7 -7 -16 -7h-340v-385q0 -9 -6 -16q-7 -7 -17 -7h-190q-9 0 -16 7t-7 16v385h-342q-9 0 -15 7q-7 6 -7 15v183q0 9 7 16q6 6 15 6h342v387q0 9 7 16t16 7h190q10 0 17 -7q6 -7 6 -16v-387h340q9 0 16 -6q6 -7 6 -16v-183zM104 0q-9 0 -15 7
q-7 6 -7 15v183q0 9 7 16q6 6 15 6h918q9 0 16 -6q6 -7 6 -16v-183q0 -9 -6 -15q-7 -7 -16 -7h-918z" />
    <glyph glyph-name="two.sups" unicode="&#xb2;" horiz-adv-x="662" 
d="M63 645q-9 0 -15 7q-7 7 -7 16v92q0 119 60 183t132 103q71 38 131 70q60 31 60 86q3 51 -22 77t-68 26q-40 -1 -66 -31q-27 -30 -32 -84q-1 -10 -7 -16q-7 -7 -17 -7h-141q-8 0 -15 7t-7 16q2 121 74 190t211 70q137 0 206 -64q68 -65 72 -178q0 -111 -59 -172
q-60 -61 -131 -98q-72 -38 -131 -66q-60 -28 -60 -74l361 -1q9 0 16 -7q6 -7 6 -16v-106q0 -9 -6 -16q-7 -7 -16 -7h-529z" />
    <glyph glyph-name="three.sups" unicode="&#xb3;" horiz-adv-x="657" 
d="M630 891q0 -63 -26 -111t-68 -80q-43 -32 -98 -48q-56 -17 -115 -17q-130 0 -201 61q-71 60 -84 175q-1 8 6 15q6 7 14 7h151q10 0 17 -6q6 -7 7 -17q4 -48 29 -74q24 -27 67 -26q35 0 63 29t29 84q3 64 -22 90q-26 26 -87 26h-47q-9 0 -15 7q-7 7 -7 16v82q0 9 7 16
q6 6 15 6h47q51 0 75 28q24 27 24 67q0 37 -23 64q-23 26 -55 26q-38 0 -59 -21q-22 -21 -28 -61q-1 -10 -8 -16q-7 -7 -17 -7h-151q-8 0 -14 7q-7 7 -6 16q13 104 88 161q74 56 205 56q121 0 193 -57t73 -146q0 -72 -36 -111q-37 -40 -91 -59q70 -19 109 -65
q39 -47 39 -117z" />
    <glyph glyph-name="acute" unicode="&#xb4;" horiz-adv-x="1024" 
d="M338 1147q-9 -3 -17 2q-9 4 -13 13l-42 101q-4 8 0 17t12 13l481 209q7 4 16 0t11 -12l60 -184q3 -9 -1 -17q-5 -9 -14 -11z" />
    <glyph glyph-name="uni00B5" unicode="&#xb5;" horiz-adv-x="1118" 
d="M366 -326q1 -9 -6 -16q-7 -6 -16 -6h-266q-9 0 -16 6q-7 7 -7 16l4 754l-4 604q0 9 7 16t16 7h295q9 0 16 -7q6 -7 6 -16l-6 -426v-217q0 -86 47 -137q46 -51 115 -51q41 0 83 20q41 19 73 59t53 102q20 62 20 146v78l-4 426q0 9 7 16t16 7h270q9 0 16 -7q6 -7 6 -16
l-8 -483l4 -526q0 -10 -6 -16q-7 -7 -16 -7h-252q-9 0 -15 7q-7 7 -6 16l5 110q-54 -69 -142 -113q-88 -45 -198 -45q-25 0 -48 3t-45 7z" />
    <glyph glyph-name="paragraph" unicode="&#xb6;" horiz-adv-x="1446" 
d="M610 -348q-9 0 -15 6q-7 7 -7 16l8 588l3 236q-128 0 -230 32t-172 93q-71 60 -108 149q-38 89 -38 201q0 114 37 201q36 86 106 144q69 57 171 87q102 29 231 29h745q9 0 16 -7t7 -16l-16 -838l16 -899q0 -9 -7 -16q-7 -6 -16 -6h-280q-9 0 -16 6q-7 7 -6 16l8 594
l4 230h-152l4 -232l10 -592q0 -9 -6 -16q-7 -6 -16 -6h-281z" />
    <glyph glyph-name="periodcentered" unicode="&#xb7;" horiz-adv-x="418" 
d="M72 471q-9 0 -16 7q-7 6 -7 16v247q0 9 7 16t16 7h274q9 0 16 -7t7 -16v-247q0 -10 -7 -16q-7 -7 -16 -7h-274z" />
    <glyph glyph-name="cedilla" unicode="&#xb8;" horiz-adv-x="1024" 
d="M563 -347q-1 -8 -9 -14q-8 -5 -17 -4l-242 45q-9 2 -13 10t-1 15l134 315q4 9 13 15q8 5 18 4l166 -18q9 -1 15 -8q5 -8 4 -17z" />
    <glyph glyph-name="one.sups" unicode="&#xb9;" horiz-adv-x="512" 
d="M238 645q-9 0 -16 7t-6 16l9 389l-6 151q-27 -27 -65 -47q-39 -21 -83 -36q-8 -2 -15 3q-7 4 -7 13v109q0 10 6 19q5 8 15 12q51 21 89 54q38 32 61 78q5 10 14 16q9 5 19 5h159q9 0 16 -7q6 -7 5 -16l-13 -426l13 -317q1 -9 -5 -16q-7 -7 -16 -7h-174z" />
    <glyph glyph-name="ordmasculine" unicode="&#xba;" horiz-adv-x="909" 
d="M872 1053q0 -93 -27 -170q-28 -77 -80 -131q-53 -54 -131 -83q-78 -30 -177 -30q-100 0 -179 29q-79 28 -132 81t-81 129t-28 169t28 170q28 76 81 130t132 84q79 29 179 29q99 0 177 -29t131 -82q52 -53 80 -128q27 -76 27 -168zM309 1044q0 -123 37 -182t111 -59
q72 0 107 59q34 58 34 185t-35 188q-36 61 -108 61q-75 -1 -110 -63q-36 -62 -36 -189z" />
    <glyph glyph-name="guillemotright" unicode="&#xbb;" horiz-adv-x="1083" 
d="M53 137q-7 0 -9 6q-3 6 1 12l313 375l-313 388q-4 6 -1 12q2 6 9 6h209q10 0 20 -5t17 -13l299 -370q6 -7 6 -17q0 -11 -6 -18l-299 -358q-7 -8 -17 -13t-20 -5h-209zM494 137q-7 0 -10 6t1 12l314 375l-314 388q-4 6 -1 12t10 6h208q10 0 21 -5q10 -5 16 -13l300 -370
q6 -7 6 -17q-1 -11 -7 -18l-299 -358q-6 -8 -16 -13q-11 -5 -21 -5h-208z" />
    <glyph glyph-name="onequarter" unicode="&#xbc;" horiz-adv-x="1563" 
d="M238 645q-9 0 -16 7t-6 16l9 389l-6 151q-27 -27 -65 -47q-39 -21 -83 -36q-8 -2 -15 3q-7 4 -7 13v109q0 10 6 19q5 8 15 12q51 21 89 54q38 32 61 78q5 10 14 16q9 5 19 5h159q9 0 16 -7q6 -7 5 -16l-13 -426l13 -317q1 -9 -5 -16q-7 -7 -16 -7h-174zM155 0q-7 0 -10 6
q-4 6 0 12l1002 1397q6 8 16 14q10 5 20 5h170q7 0 10 -6q3 -7 -1 -13l-1002 -1397q-6 -8 -15 -13q-10 -5 -20 -5h-170zM1542 184q0 -9 -7 -15q-7 -7 -16 -7h-63v-141q0 -9 -7 -16t-16 -7h-159q-9 0 -16 7t-7 16v141h-324q-9 0 -15 7q-7 6 -7 15v129q0 10 4 22q3 12 8 20
l259 414q5 9 15 15q9 5 19 5h223q9 0 16 -7t7 -16v-455h63q9 0 16 -6q7 -7 7 -16v-105zM1251 467l6 170l-198 -326h192v156z" />
    <glyph glyph-name="onehalf" unicode="&#xbd;" horiz-adv-x="1618" 
d="M238 645q-9 0 -16 7t-6 16l9 389l-6 151q-27 -27 -65 -47q-39 -21 -83 -36q-8 -2 -15 3q-7 4 -7 13v109q0 10 6 19q5 8 15 12q51 21 89 54q38 32 61 78q5 10 14 16q9 5 19 5h159q9 0 16 -7q6 -7 5 -16l-13 -426l13 -317q1 -9 -5 -16q-7 -7 -16 -7h-174zM155 0q-7 0 -10 6
q-4 6 0 12l1002 1397q6 8 16 14q10 5 20 5h170q7 0 10 -6q3 -7 -1 -13l-1002 -1397q-6 -8 -15 -13q-10 -5 -20 -5h-170zM1030 0q-9 0 -15 7q-7 7 -7 16v92q0 119 60 183t132 103q71 38 131 70q60 31 60 86q3 51 -22 77t-68 26q-40 -1 -66 -31q-27 -30 -32 -84q-1 -10 -7 -16
q-7 -7 -17 -7h-141q-8 0 -15 7t-7 16q2 121 74 190t211 70q137 0 206 -64q68 -65 72 -178q0 -111 -59 -172q-60 -61 -131 -98q-72 -38 -131 -66q-60 -28 -60 -74l361 -1q9 0 16 -7q6 -7 6 -16v-106q0 -9 -6 -16q-7 -7 -16 -7h-529z" />
    <glyph glyph-name="threequarters" unicode="&#xbe;" horiz-adv-x="1667" 
d="M630 891q0 -63 -26 -111t-68 -80q-43 -32 -98 -48q-56 -17 -115 -17q-130 0 -201 61q-71 60 -84 175q-1 8 6 15q6 7 14 7h151q10 0 17 -6q6 -7 7 -17q4 -48 29 -74q24 -27 67 -26q35 0 63 29t29 84q3 64 -22 90q-26 26 -87 26h-47q-9 0 -15 7q-7 7 -7 16v82q0 9 7 16
q6 6 15 6h47q51 0 75 28q24 27 24 67q0 37 -23 64q-23 26 -55 26q-38 0 -59 -21q-22 -21 -28 -61q-1 -10 -8 -16q-7 -7 -17 -7h-151q-8 0 -14 7q-7 7 -6 16q13 104 88 161q74 56 205 56q121 0 193 -57t73 -146q0 -72 -36 -111q-37 -40 -91 -59q70 -19 109 -65
q39 -47 39 -117zM259 0q-7 0 -10 6q-4 6 0 12l1002 1397q6 8 16 14q10 5 20 5h170q7 0 10 -6q3 -7 -1 -13l-1002 -1397q-6 -8 -15 -13q-10 -5 -20 -5h-170zM1647 184q0 -9 -7 -15q-7 -7 -16 -7h-63v-141q0 -9 -7 -16t-16 -7h-159q-9 0 -16 7t-7 16v141h-324q-9 0 -15 7
q-7 6 -7 15v129q0 10 4 22q3 12 8 20l259 414q5 9 15 15q9 5 19 5h223q9 0 16 -7t7 -16v-455h63q9 0 16 -6q7 -7 7 -16v-105zM1356 467l6 170l-198 -326h192v156z" />
    <glyph glyph-name="questiondown" unicode="&#xbf;" horiz-adv-x="1055" 
d="M666 1055q9 0 16 -7q6 -7 6 -16v-250q0 -9 -6 -15q-7 -7 -16 -7h-267q-9 0 -15 7q-7 6 -7 15v250q0 9 7 16q6 7 15 7h267zM664 639q9 0 16 -7q6 -7 6 -16q-5 -146 -60 -234q-55 -89 -119 -149t-116 -110q-53 -50 -53 -121q0 -92 56 -142q56 -49 143 -50q103 -1 154 54
q50 55 56 163q0 9 7 16q7 6 17 6h247q9 0 16 -7q6 -7 5 -15q-13 -207 -147 -316q-134 -108 -372 -108q-104 0 -193 27q-90 27 -155 78q-66 51 -103 127q-38 76 -38 173q0 117 52 185t115 124q63 55 118 121q54 65 60 178q1 10 8 17q6 6 16 6h264z" />
    <glyph glyph-name="Agrave" unicode="&#xc0;" horiz-adv-x="1370" 
d="M872 612l-196 613l-187 -613h383zM1090 0q-10 0 -18 6q-9 6 -12 15l-110 344h-536l-106 -343q-3 -10 -11 -16t-18 -6h-275q-8 0 -13 7t-2 14l485 1391q3 10 12 16q8 6 18 6h375q10 0 18 -6t11 -16l473 -1391q3 -7 -2 -14t-13 -7h-276zM908 1541q-4 -9 -12 -13
q-9 -5 -18 -2l-497 131q-9 2 -13 11q-5 8 -2 16l61 185q3 8 12 12q8 4 16 0l483 -209q8 -4 12 -13t0 -17z" />
    <glyph glyph-name="Aacute" unicode="&#xc1;" horiz-adv-x="1370" 
d="M872 612l-196 613l-187 -613h383zM1090 0q-10 0 -18 6q-9 6 -12 15l-110 344h-536l-106 -343q-3 -10 -11 -16t-18 -6h-275q-8 0 -13 7t-2 14l485 1391q3 10 12 16q8 6 18 6h375q10 0 18 -6t11 -16l473 -1391q3 -7 -2 -14t-13 -7h-276zM502 1526q-9 -3 -17 2q-9 4 -13 13
l-42 101q-4 8 0 17t12 13l481 209q7 4 16 0t11 -12l60 -184q3 -9 -1 -17q-5 -9 -14 -11z" />
    <glyph glyph-name="Acircumflex" unicode="&#xc2;" horiz-adv-x="1370" 
d="M872 612l-196 613l-187 -613h383zM1090 0q-10 0 -18 6q-9 6 -12 15l-110 344h-536l-106 -343q-3 -10 -11 -16t-18 -6h-275q-8 0 -13 7t-2 14l485 1391q3 10 12 16q8 6 18 6h375q10 0 18 -6t11 -16l473 -1391q3 -7 -2 -14t-13 -7h-276zM1014 1541q-3 -8 -12 -11
q-9 -4 -17 0l-299 147l-299 -147q-8 -4 -17 0q-9 3 -12 11l-44 105q-4 9 -1 19t11 15l282 198q8 5 20 9q11 3 21 3h78q10 0 22 -3q11 -4 19 -9l282 -198q8 -5 11 -15t-1 -19z" />
    <glyph glyph-name="Atilde" unicode="&#xc3;" horiz-adv-x="1370" 
d="M872 612l-196 613l-187 -613h383zM1090 0q-10 0 -18 6q-9 6 -12 15l-110 344h-536l-106 -343q-3 -10 -11 -16t-18 -6h-275q-8 0 -13 7t-2 14l485 1391q3 10 12 16q8 6 18 6h375q10 0 18 -6t11 -16l473 -1391q3 -7 -2 -14t-13 -7h-276zM1013 1815q-4 -119 -53 -188
q-50 -70 -149 -70q-47 0 -81 17q-35 17 -61 37q-27 20 -50 37t-48 17q-29 0 -41 -23q-13 -24 -15 -61q-1 -10 -7 -16q-7 -6 -17 -6h-111q-8 0 -15 7t-6 15q2 56 16 104q13 47 39 81q25 34 64 54q38 19 89 19q44 0 78 -17q33 -17 60 -37t49 -37t43 -17q32 0 45 23t15 61
q1 10 8 16q6 6 16 6h111q8 0 15 -7t6 -15z" />
    <glyph glyph-name="Adieresis" unicode="&#xc4;" horiz-adv-x="1370" 
d="M872 612l-196 613l-187 -613h383zM1090 0q-10 0 -18 6q-9 6 -12 15l-110 344h-536l-106 -343q-3 -10 -11 -16t-18 -6h-275q-8 0 -13 7t-2 14l485 1391q3 10 12 16q8 6 18 6h375q10 0 18 -6t11 -16l473 -1391q3 -7 -2 -14t-13 -7h-276zM369 1557q-10 0 -16 7q-7 6 -7 15
v232q0 9 7 16q6 6 16 6h204q9 0 16 -6q7 -7 7 -16v-232q0 -9 -7 -15q-7 -7 -16 -7h-204zM799 1557q-9 0 -16 7q-7 6 -7 15v232q0 9 7 16q7 6 16 6h204q10 0 17 -6q6 -7 6 -16v-232q0 -9 -6 -15q-7 -7 -17 -7h-204z" />
    <glyph glyph-name="Aring" unicode="&#xc5;" horiz-adv-x="1370" 
d="M872 612l-196 613l-187 -613h383zM1090 0q-10 0 -18 6q-9 6 -12 15l-110 344h-536l-106 -343q-3 -10 -11 -16t-18 -6h-275q-8 0 -13 7t-2 14l485 1391q3 10 12 16q8 6 18 6h375q10 0 18 -6t11 -16l473 -1391q3 -7 -2 -14t-13 -7h-276zM952 1784q0 -52 -20 -97t-55 -77
q-35 -33 -83 -51q-49 -19 -106 -19t-105 19q-49 18 -84 51q-35 32 -55 77t-20 97t20 97t55 78q35 32 84 51q48 18 105 18t106 -18q48 -19 83 -51q35 -33 55 -78t20 -97zM584 1784q0 -66 29 -100q29 -35 75 -35q44 0 74 35q30 34 30 100q0 67 -30 101t-74 34q-46 0 -75 -34
t-29 -101z" />
    <glyph glyph-name="AE" unicode="&#xc6;" horiz-adv-x="1870" 
d="M925 717l-8 506h-50l-282 -611h338zM935 0q-9 0 -15 7q-7 6 -7 16l6 342h-449l-160 -345q-4 -9 -13 -14q-9 -6 -19 -6h-275q-8 0 -12 7q-4 6 0 13l684 1393q4 9 14 15q9 6 19 6h1083q9 0 16 -7t7 -16v-186q0 -9 -7 -16t-16 -7h-559l-10 -330h510q9 0 16 -6q6 -7 6 -16
v-186q0 -10 -6 -16q-7 -7 -16 -7h-510l10 -410h575q9 0 16 -6q7 -7 7 -16v-186q0 -10 -7 -16q-7 -7 -16 -7h-872z" />
    <glyph glyph-name="Ccedilla" unicode="&#xc7;" horiz-adv-x="1427" 
d="M1399 508q-30 -145 -88 -248q-59 -103 -141 -167q-83 -65 -189 -95q-106 -29 -231 -29q-165 0 -297 55q-133 54 -225 152t-141 235q-50 137 -50 300q0 170 51 310q50 140 142 238q92 97 224 151t294 54q115 0 218 -26t186 -84q83 -59 144 -156q61 -98 92 -240
q1 -8 -4 -15t-14 -7h-259q-10 0 -18 6t-10 16q-31 128 -116 198q-86 69 -224 69q-93 0 -165 -35q-72 -36 -120 -101q-49 -66 -74 -161q-26 -96 -26 -215t26 -213q26 -95 75 -159q48 -64 120 -98q71 -34 162 -34q149 0 234 78q84 77 113 221q1 10 9 16q7 6 17 6h267
q8 0 14 -7q5 -7 4 -15zM764 -347q-1 -8 -9 -14q-8 -5 -17 -4l-242 45q-9 2 -13 10t-1 15l134 315q4 9 13 15q8 5 18 4l166 -18q9 -1 15 -8q5 -8 4 -17z" />
    <glyph glyph-name="Egrave" unicode="&#xc8;" horiz-adv-x="1133" 
d="M96 0q-9 0 -15 7q-7 6 -7 16l12 694l-12 694q0 9 7 16q6 7 15 7h959q9 0 16 -7q6 -7 6 -16v-186q0 -9 -6 -16q-7 -7 -16 -7h-662l-10 -330h612q9 0 16 -6q7 -7 7 -16v-186q0 -10 -7 -16q-7 -7 -16 -7h-612l10 -410h678q9 0 16 -6q7 -7 7 -16v-186q0 -10 -7 -16
q-7 -7 -16 -7h-975zM815 1541q-4 -9 -12 -13q-9 -5 -18 -2l-497 131q-9 2 -13 11q-5 8 -2 16l61 185q3 8 12 12q8 4 16 0l483 -209q8 -4 12 -13t0 -17z" />
    <glyph glyph-name="Eacute" unicode="&#xc9;" horiz-adv-x="1133" 
d="M96 0q-9 0 -15 7q-7 6 -7 16l12 694l-12 694q0 9 7 16q6 7 15 7h959q9 0 16 -7q6 -7 6 -16v-186q0 -9 -6 -16q-7 -7 -16 -7h-662l-10 -330h612q9 0 16 -6q7 -7 7 -16v-186q0 -10 -7 -16q-7 -7 -16 -7h-612l10 -410h678q9 0 16 -6q7 -7 7 -16v-186q0 -10 -7 -16
q-7 -7 -16 -7h-975zM444 1526q-9 -3 -17 2q-9 4 -13 13l-42 101q-4 8 0 17t12 13l481 209q7 4 16 0t11 -12l60 -184q3 -9 -1 -17q-5 -9 -14 -11z" />
    <glyph glyph-name="Ecircumflex" unicode="&#xca;" horiz-adv-x="1133" 
d="M96 0q-9 0 -15 7q-7 6 -7 16l12 694l-12 694q0 9 7 16q6 7 15 7h959q9 0 16 -7q6 -7 6 -16v-186q0 -9 -6 -16q-7 -7 -16 -7h-662l-10 -330h612q9 0 16 -6q7 -7 7 -16v-186q0 -10 -7 -16q-7 -7 -16 -7h-612l10 -410h678q9 0 16 -6q7 -7 7 -16v-186q0 -10 -7 -16
q-7 -7 -16 -7h-975zM946 1541q-3 -8 -12 -11q-9 -4 -17 0l-299 147l-299 -147q-8 -4 -17 0q-9 3 -12 11l-44 105q-4 9 -1 19t11 15l282 198q8 5 20 9q11 3 21 3h78q10 0 22 -3q11 -4 19 -9l282 -198q8 -5 11 -15t-1 -19z" />
    <glyph glyph-name="Edieresis" unicode="&#xcb;" horiz-adv-x="1133" 
d="M96 0q-9 0 -15 7q-7 6 -7 16l12 694l-12 694q0 9 7 16q6 7 15 7h959q9 0 16 -7q6 -7 6 -16v-186q0 -9 -6 -16q-7 -7 -16 -7h-662l-10 -330h612q9 0 16 -6q7 -7 7 -16v-186q0 -10 -7 -16q-7 -7 -16 -7h-612l10 -410h678q9 0 16 -6q7 -7 7 -16v-186q0 -10 -7 -16
q-7 -7 -16 -7h-975zM301 1557q-10 0 -16 7q-7 6 -7 15v232q0 9 7 16q6 6 16 6h204q9 0 16 -6q7 -7 7 -16v-232q0 -9 -7 -15q-7 -7 -16 -7h-204zM731 1557q-9 0 -16 7q-7 6 -7 15v232q0 9 7 16q7 6 16 6h204q10 0 17 -6q6 -7 6 -16v-232q0 -9 -6 -15q-7 -7 -17 -7h-204z" />
    <glyph glyph-name="Igrave" unicode="&#xcc;" horiz-adv-x="483" 
d="M106 0q-9 0 -15 7q-7 6 -7 16l12 694l-12 694q0 9 7 16q6 7 15 7h273q9 0 16 -7q6 -7 6 -16l-12 -694l12 -694q0 -10 -6 -16q-7 -7 -16 -7h-273zM443 1541q-4 -9 -12 -13q-9 -5 -18 -2l-497 131q-9 2 -14 11q-4 8 -1 16l61 185q3 8 11 12q9 4 17 0l483 -209q8 -4 12 -13
t0 -17z" />
    <glyph glyph-name="Iacute" unicode="&#xcd;" horiz-adv-x="483" 
d="M106 0q-9 0 -15 7q-7 6 -7 16l12 694l-12 694q0 9 7 16q6 7 15 7h273q9 0 16 -7q6 -7 6 -16l-12 -694l12 -694q0 -10 -6 -16q-7 -7 -16 -7h-273zM72 1526q-9 -3 -17 2q-9 4 -13 13l-42 101q-4 8 0 17t12 13l481 209q7 4 16 0t11 -12l60 -184q3 -9 -1 -17q-5 -9 -14 -11z
" />
    <glyph glyph-name="Icircumflex" unicode="&#xce;" horiz-adv-x="483" 
d="M106 0q-9 0 -15 7q-7 6 -7 16l12 694l-12 694q0 9 7 16q6 7 15 7h273q9 0 16 -7q6 -7 6 -16l-12 -694l12 -694q0 -10 -6 -16q-7 -7 -16 -7h-273zM574 1541q-3 -8 -12 -11q-9 -4 -17 0l-299 147l-299 -147q-8 -4 -17 0q-9 3 -12 11l-44 105q-4 9 -1 19t11 15l282 198
q8 5 20 9q11 3 21 3h78q10 0 22 -3q11 -4 19 -9l282 -198q8 -5 11 -15t-1 -19z" />
    <glyph glyph-name="Idieresis" unicode="&#xcf;" horiz-adv-x="483" 
d="M106 0q-9 0 -15 7q-7 6 -7 16l12 694l-12 694q0 9 7 16q6 7 15 7h273q9 0 16 -7q6 -7 6 -16l-12 -694l12 -694q0 -10 -6 -16q-7 -7 -16 -7h-273zM-71 1557q-10 0 -17 7q-6 6 -6 15v232q0 9 6 16q7 6 17 6h204q9 0 16 -6q7 -7 7 -16v-232q0 -9 -7 -15q-7 -7 -16 -7h-204z
M359 1557q-9 0 -16 7q-7 6 -7 15v232q0 9 7 16q7 6 16 6h204q10 0 17 -6q6 -7 6 -16v-232q0 -9 -6 -15q-7 -7 -17 -7h-204z" />
    <glyph glyph-name="Eth" unicode="&#xd0;" horiz-adv-x="1425" 
d="M127 0q-9 0 -15 7q-7 6 -7 16l10 618h-99q-9 0 -15 7q-7 6 -7 16v186q0 9 7 16q6 6 15 6h98l-9 539q0 9 7 16q6 7 15 7h502q153 0 292 -43t243 -131q103 -89 164 -227t61 -326q0 -190 -61 -324q-62 -135 -165 -220q-104 -85 -242 -124t-288 -39h-506zM649 231
q87 0 164 27q76 27 132 85q56 57 89 148t33 218t-32 221q-33 93 -90 153t-135 90q-79 29 -169 29h-217l-1 -26q-1 -27 -2 -72q-2 -45 -3 -105q-2 -60 -3 -127h380q9 0 16 -6q6 -7 6 -16v-186q0 -10 -6 -16q-7 -7 -16 -7h-381q1 -80 3 -154q1 -74 3 -130q1 -57 3 -91
q1 -34 1 -35h225z" />
    <glyph glyph-name="Ntilde" unicode="&#xd1;" horiz-adv-x="1391" 
d="M367 582v-559q0 -10 -7 -16q-7 -7 -16 -7h-248q-9 0 -15 7q-7 6 -7 16l10 694l-10 694q0 9 7 16q6 7 15 7h334q10 0 20 -5q9 -6 14 -15l572 -1011v17l-12 362v629q0 9 7 16q6 7 16 7h249q9 0 16 -7t7 -16l-10 -694l10 -694q0 -10 -7 -16q-7 -7 -16 -7h-348q-10 0 -19 6
q-10 5 -14 14l-561 1002l2 -68zM1027 1815q-4 -119 -53 -188q-50 -70 -149 -70q-47 0 -81 17q-35 17 -61 37q-27 20 -50 37t-48 17q-29 0 -41 -23q-13 -24 -15 -61q-1 -10 -7 -16q-7 -6 -17 -6h-111q-8 0 -15 7t-6 15q2 56 16 104q13 47 39 81q25 34 64 54q38 19 89 19
q44 0 78 -17q33 -17 60 -37t49 -37t43 -17q32 0 45 23t15 61q1 10 8 16q6 6 16 6h111q8 0 15 -7t6 -15z" />
    <glyph glyph-name="Ograve" unicode="&#xd2;" horiz-adv-x="1522" 
d="M1485 713q0 -164 -52 -301q-52 -138 -146 -235q-95 -98 -229 -153q-135 -55 -298 -55t-297 55q-135 55 -229 153q-94 97 -145 235q-52 137 -52 301q0 170 51 310q51 139 145 237q94 97 228 151q134 53 299 53q163 0 297 -52q134 -53 229 -150t147 -236q52 -140 52 -313z
M358 713q0 -116 27 -210t79 -159q51 -65 127 -100q75 -35 171 -35t172 35q75 35 126 100q50 64 77 158q26 94 26 211t-26 212q-27 95 -77 162q-51 66 -126 102q-76 36 -174 36t-173 -35q-76 -36 -126 -101q-51 -66 -77 -161q-26 -96 -26 -215zM951 1541q-4 -9 -12 -13
q-9 -5 -18 -2l-497 131q-9 2 -13 11q-5 8 -2 16l61 185q3 8 12 12q8 4 16 0l483 -209q8 -4 12 -13t0 -17z" />
    <glyph glyph-name="Oacute" unicode="&#xd3;" horiz-adv-x="1522" 
d="M1485 713q0 -164 -52 -301q-52 -138 -146 -235q-95 -98 -229 -153q-135 -55 -298 -55t-297 55q-135 55 -229 153q-94 97 -145 235q-52 137 -52 301q0 170 51 310q51 139 145 237q94 97 228 151q134 53 299 53q163 0 297 -52q134 -53 229 -150t147 -236q52 -140 52 -313z
M358 713q0 -116 27 -210t79 -159q51 -65 127 -100q75 -35 171 -35t172 35q75 35 126 100q50 64 77 158q26 94 26 211t-26 212q-27 95 -77 162q-51 66 -126 102q-76 36 -174 36t-173 -35q-76 -36 -126 -101q-51 -66 -77 -161q-26 -96 -26 -215zM580 1526q-9 -3 -17 2
q-9 4 -13 13l-42 101q-4 8 0 17t12 13l481 209q7 4 16 0t11 -12l60 -184q3 -9 -1 -17q-5 -9 -14 -11z" />
    <glyph glyph-name="Ocircumflex" unicode="&#xd4;" horiz-adv-x="1522" 
d="M1485 713q0 -164 -52 -301q-52 -138 -146 -235q-95 -98 -229 -153q-135 -55 -298 -55t-297 55q-135 55 -229 153q-94 97 -145 235q-52 137 -52 301q0 170 51 310q51 139 145 237q94 97 228 151q134 53 299 53q163 0 297 -52q134 -53 229 -150t147 -236q52 -140 52 -313z
M358 713q0 -116 27 -210t79 -159q51 -65 127 -100q75 -35 171 -35t172 35q75 35 126 100q50 64 77 158q26 94 26 211t-26 212q-27 95 -77 162q-51 66 -126 102q-76 36 -174 36t-173 -35q-76 -36 -126 -101q-51 -66 -77 -161q-26 -96 -26 -215zM1082 1541q-3 -8 -12 -11
q-9 -4 -17 0l-299 147l-299 -147q-8 -4 -17 0q-9 3 -12 11l-44 105q-4 9 -1 19t11 15l282 198q8 5 20 9q11 3 21 3h78q10 0 22 -3q11 -4 19 -9l282 -198q8 -5 11 -15t-1 -19z" />
    <glyph glyph-name="Otilde" unicode="&#xd5;" horiz-adv-x="1522" 
d="M1485 713q0 -164 -52 -301q-52 -138 -146 -235q-95 -98 -229 -153q-135 -55 -298 -55t-297 55q-135 55 -229 153q-94 97 -145 235q-52 137 -52 301q0 170 51 310q51 139 145 237q94 97 228 151q134 53 299 53q163 0 297 -52q134 -53 229 -150t147 -236q52 -140 52 -313z
M358 713q0 -116 27 -210t79 -159q51 -65 127 -100q75 -35 171 -35t172 35q75 35 126 100q50 64 77 158q26 94 26 211t-26 212q-27 95 -77 162q-51 66 -126 102q-76 36 -174 36t-173 -35q-76 -36 -126 -101q-51 -66 -77 -161q-26 -96 -26 -215zM1081 1815q-4 -119 -53 -188
q-50 -70 -149 -70q-47 0 -81 17q-35 17 -61 37q-27 20 -50 37t-48 17q-29 0 -41 -23q-13 -24 -15 -61q-1 -10 -7 -16q-7 -6 -17 -6h-111q-8 0 -15 7t-6 15q2 56 16 104q13 47 39 81q25 34 64 54q38 19 89 19q44 0 78 -17q33 -17 60 -37t49 -37t43 -17q32 0 45 23t15 61
q1 10 8 16q6 6 16 6h111q8 0 15 -7t6 -15z" />
    <glyph glyph-name="Odieresis" unicode="&#xd6;" horiz-adv-x="1522" 
d="M1485 713q0 -164 -52 -301q-52 -138 -146 -235q-95 -98 -229 -153q-135 -55 -298 -55t-297 55q-135 55 -229 153q-94 97 -145 235q-52 137 -52 301q0 170 51 310q51 139 145 237q94 97 228 151q134 53 299 53q163 0 297 -52q134 -53 229 -150t147 -236q52 -140 52 -313z
M358 713q0 -116 27 -210t79 -159q51 -65 127 -100q75 -35 171 -35t172 35q75 35 126 100q50 64 77 158q26 94 26 211t-26 212q-27 95 -77 162q-51 66 -126 102q-76 36 -174 36t-173 -35q-76 -36 -126 -101q-51 -66 -77 -161q-26 -96 -26 -215zM437 1557q-10 0 -16 7
q-7 6 -7 15v232q0 9 7 16q6 6 16 6h204q9 0 16 -6q7 -7 7 -16v-232q0 -9 -7 -15q-7 -7 -16 -7h-204zM867 1557q-9 0 -16 7q-7 6 -7 15v232q0 9 7 16q7 6 16 6h204q10 0 17 -6q6 -7 6 -16v-232q0 -9 -6 -15q-7 -7 -17 -7h-204z" />
    <glyph glyph-name="multiply" unicode="&#xd7;" horiz-adv-x="1126" 
d="M868 272q-7 -7 -16 -7t-16 7l-273 273l-273 -273q-6 -7 -15 -7q-10 0 -16 7l-128 130q-7 6 -7 16q0 9 7 16l272 273l-274 272q-7 7 -7 17q0 9 7 15l129 128q7 7 17 7q9 0 15 -7l273 -273l273 273q7 7 16 7t16 -7l130 -128q6 -6 6 -15q0 -10 -6 -17l-273 -272l271 -273
q6 -7 6 -16q0 -10 -6 -16z" />
    <glyph glyph-name="Oslash" unicode="&#xd8;" horiz-adv-x="1522" 
d="M358 713q0 -74 11 -139t32 -119l588 701q-46 34 -103 52q-58 17 -126 17q-98 0 -173 -35q-76 -36 -126 -101q-51 -66 -77 -161q-26 -96 -26 -215zM762 209q96 0 172 35q75 35 126 100q50 64 77 158q26 94 26 211q0 77 -11 145q-12 68 -34 124l-589 -702q46 -34 105 -52
q59 -19 128 -19zM250 -95q-6 -7 -15 -8t-16 6l-163 149q-7 7 -8 17q-1 9 5 16l129 153q-69 93 -107 214t-38 261q0 170 51 310q51 139 145 237q94 97 228 151q134 53 299 53q107 0 202 -23t174 -66l136 160q5 7 15 8q9 0 16 -6l163 -150q7 -6 8 -15q0 -10 -6 -17l-130 -154
q70 -93 109 -217q38 -124 38 -271q0 -164 -52 -301q-52 -138 -146 -235q-95 -98 -229 -153q-135 -55 -298 -55q-107 0 -202 24q-96 24 -175 69z" />
    <glyph glyph-name="Ugrave" unicode="&#xd9;" horiz-adv-x="1288" 
d="M1221 532q0 -272 -144 -417q-144 -146 -428 -146t-433 146q-149 145 -148 417l2 390l-8 489q0 9 7 16q6 7 15 7h283q9 0 16 -7q6 -7 6 -16l-10 -481l2 -395q0 -153 65 -235q64 -83 203 -83q150 0 220 83q69 82 69 235v389l-6 487q0 9 7 16q6 7 15 7h252q9 0 16 -7t6 -16
l-7 -489v-390zM838 1541q-4 -9 -12 -13q-9 -5 -18 -2l-497 131q-9 2 -13 11q-5 8 -2 16l61 185q3 8 12 12q8 4 16 0l483 -209q8 -4 12 -13t0 -17z" />
    <glyph glyph-name="Uacute" unicode="&#xda;" horiz-adv-x="1288" 
d="M1221 532q0 -272 -144 -417q-144 -146 -428 -146t-433 146q-149 145 -148 417l2 390l-8 489q0 9 7 16q6 7 15 7h283q9 0 16 -7q6 -7 6 -16l-10 -481l2 -395q0 -153 65 -235q64 -83 203 -83q150 0 220 83q69 82 69 235v389l-6 487q0 9 7 16q6 7 15 7h252q9 0 16 -7t6 -16
l-7 -489v-390zM488 1526q-9 -3 -17 2q-9 4 -13 13l-42 101q-4 8 0 17t12 13l481 209q7 4 16 0t11 -12l60 -184q3 -9 -1 -17q-5 -9 -14 -11z" />
    <glyph glyph-name="Ucircumflex" unicode="&#xdb;" horiz-adv-x="1288" 
d="M1221 532q0 -272 -144 -417q-144 -146 -428 -146t-433 146q-149 145 -148 417l2 390l-8 489q0 9 7 16q6 7 15 7h283q9 0 16 -7q6 -7 6 -16l-10 -481l2 -395q0 -153 65 -235q64 -83 203 -83q150 0 220 83q69 82 69 235v389l-6 487q0 9 7 16q6 7 15 7h252q9 0 16 -7t6 -16
l-7 -489v-390zM973 1541q-3 -8 -12 -11q-9 -4 -17 0l-299 147l-299 -147q-8 -4 -17 0q-9 3 -12 11l-44 105q-4 9 -1 19t11 15l282 198q8 5 20 9q11 3 21 3h78q10 0 22 -3q11 -4 19 -9l282 -198q8 -5 11 -15t-1 -19z" />
    <glyph glyph-name="Udieresis" unicode="&#xdc;" horiz-adv-x="1288" 
d="M1221 532q0 -272 -144 -417q-144 -146 -428 -146t-433 146q-149 145 -148 417l2 390l-8 489q0 9 7 16q6 7 15 7h283q9 0 16 -7q6 -7 6 -16l-10 -481l2 -395q0 -153 65 -235q64 -83 203 -83q150 0 220 83q69 82 69 235v389l-6 487q0 9 7 16q6 7 15 7h252q9 0 16 -7t6 -16
l-7 -489v-390zM328 1557q-10 0 -16 7q-7 6 -7 15v232q0 9 7 16q6 6 16 6h204q9 0 16 -6q7 -7 7 -16v-232q0 -9 -7 -15q-7 -7 -16 -7h-204zM758 1557q-9 0 -16 7q-7 6 -7 15v232q0 9 7 16q7 6 16 6h204q10 0 17 -6q6 -7 6 -16v-232q0 -9 -6 -15q-7 -7 -17 -7h-204z" />
    <glyph glyph-name="Yacute" unicode="&#xdd;" horiz-adv-x="1241" 
d="M779 23q0 -10 -6 -16q-7 -7 -16 -7h-275q-9 0 -15 7q-7 6 -7 16l8 454l-481 937q-4 7 0 14q4 6 12 6h309q10 0 19 -6t13 -15l292 -657l294 657q4 9 13 15q8 6 18 6h283q8 0 12 -6q4 -7 0 -14l-481 -933zM436 1526q-9 -3 -17 2q-9 4 -13 13l-42 101q-4 8 0 17t12 13
l481 209q7 4 16 0t11 -12l60 -184q3 -9 -1 -17q-5 -9 -14 -11z" />
    <glyph glyph-name="Thorn" unicode="&#xde;" horiz-adv-x="1206" 
d="M1178 727q0 -112 -37 -201q-38 -89 -108 -149q-70 -61 -172 -93t-230 -32h-242l4 -229q0 -10 -6 -16q-7 -7 -16 -7h-275q-9 0 -15 7q-7 6 -7 16l10 694l-10 694q0 9 7 16q6 7 15 7h275q9 0 16 -7q6 -7 6 -16l-4 -223h244q129 0 231 -29q102 -30 172 -87q69 -58 106 -144
q36 -87 36 -201zM383 690l4 -211h266q45 0 86 14q41 13 72 43q30 29 48 75t18 110q0 122 -61 181t-171 59h-258z" />
    <glyph glyph-name="germandbls" unicode="&#xdf;" horiz-adv-x="1194" 
d="M379 465l8 -442q0 -10 -6 -16q-7 -7 -16 -7h-271q-9 0 -15 7q-7 6 -7 16l8 442v536q0 125 40 212q40 86 109 140q69 53 165 77q95 24 204 24q115 0 205 -26q89 -27 149 -74q60 -48 91 -116q31 -69 32 -153q0 -59 -19 -108q-20 -49 -53 -85q-34 -36 -81 -60
q-48 -25 -103 -35q87 -13 150 -44q63 -32 104 -78t61 -106q19 -60 19 -129q0 -110 -43 -193q-44 -83 -117 -137q-73 -55 -170 -82q-97 -28 -202 -28h-56q-9 0 -15 7q-7 6 -7 16v174q0 9 7 16q6 6 15 6h56q93 0 152 47q59 46 63 164q3 118 -63 175t-177 57h-31q-9 0 -15 7
q-7 6 -7 15v154q0 9 7 16q6 6 15 6h31q99 0 137 55q37 54 37 140q0 87 -48 134q-48 46 -140 46t-147 -52q-56 -52 -56 -190v-528z" />
    <glyph glyph-name="agrave" unicode="&#xe0;" horiz-adv-x="1169" 
d="M350 541q0 -178 60 -268t170 -89q111 0 170 85q58 85 61 251q1 168 -58 259q-59 90 -167 91q-116 3 -176 -82t-60 -247zM823 0q-9 0 -15 7q-7 7 -6 16l3 100q-55 -67 -133 -105q-79 -38 -178 -38q-112 0 -197 42q-86 42 -143 115q-58 73 -87 173q-30 99 -30 214
q0 114 32 215t92 175q59 74 146 118q86 43 193 43q98 0 175 -34q76 -35 130 -101l-5 92q-1 9 6 16q6 7 15 7h266q10 0 17 -7q6 -7 6 -16l-8 -506l8 -503q0 -10 -6 -16q-7 -7 -17 -7h-264zM787 1162q-4 -9 -12 -13q-9 -5 -18 -2l-497 131q-9 2 -13 11q-5 8 -2 16l61 185
q3 8 12 12q8 4 16 0l483 -209q8 -4 12 -13t0 -17z" />
    <glyph glyph-name="aacute" unicode="&#xe1;" horiz-adv-x="1169" 
d="M350 541q0 -178 60 -268t170 -89q111 0 170 85q58 85 61 251q1 168 -58 259q-59 90 -167 91q-116 3 -176 -82t-60 -247zM823 0q-9 0 -15 7q-7 7 -6 16l3 100q-55 -67 -133 -105q-79 -38 -178 -38q-112 0 -197 42q-86 42 -143 115q-58 73 -87 173q-30 99 -30 214
q0 114 32 215t92 175q59 74 146 118q86 43 193 43q98 0 175 -34q76 -35 130 -101l-5 92q-1 9 6 16q6 7 15 7h266q10 0 17 -7q6 -7 6 -16l-8 -506l8 -503q0 -10 -6 -16q-7 -7 -17 -7h-264zM395 1147q-9 -3 -17 2q-9 4 -13 13l-42 101q-4 8 0 17t12 13l481 209q7 4 16 0
t11 -12l60 -184q3 -9 -1 -17q-5 -9 -14 -11z" />
    <glyph glyph-name="acircumflex" unicode="&#xe2;" horiz-adv-x="1169" 
d="M350 541q0 -178 60 -268t170 -89q111 0 170 85q58 85 61 251q1 168 -58 259q-59 90 -167 91q-116 3 -176 -82t-60 -247zM823 0q-9 0 -15 7q-7 7 -6 16l3 100q-55 -67 -133 -105q-79 -38 -178 -38q-112 0 -197 42q-86 42 -143 115q-58 73 -87 173q-30 99 -30 214
q0 114 32 215t92 175q59 74 146 118q86 43 193 43q98 0 175 -34q76 -35 130 -101l-5 92q-1 9 6 16q6 7 15 7h266q10 0 17 -7q6 -7 6 -16l-8 -506l8 -503q0 -10 -6 -16q-7 -7 -17 -7h-264zM897 1162q-3 -8 -12 -11q-9 -4 -17 0l-299 147l-299 -147q-8 -4 -17 0q-9 3 -12 11
l-44 105q-4 9 -1 19t11 15l282 198q8 5 20 9q11 3 21 3h78q10 0 22 -3q11 -4 19 -9l282 -198q8 -5 11 -15t-1 -19z" />
    <glyph glyph-name="atilde" unicode="&#xe3;" horiz-adv-x="1169" 
d="M350 541q0 -178 60 -268t170 -89q111 0 170 85q58 85 61 251q1 168 -58 259q-59 90 -167 91q-116 3 -176 -82t-60 -247zM823 0q-9 0 -15 7q-7 7 -6 16l3 100q-55 -67 -133 -105q-79 -38 -178 -38q-112 0 -197 42q-86 42 -143 115q-58 73 -87 173q-30 99 -30 214
q0 114 32 215t92 175q59 74 146 118q86 43 193 43q98 0 175 -34q76 -35 130 -101l-5 92q-1 9 6 16q6 7 15 7h266q10 0 17 -7q6 -7 6 -16l-8 -506l8 -503q0 -10 -6 -16q-7 -7 -17 -7h-264zM896 1436q-4 -119 -53 -188q-50 -70 -149 -70q-47 0 -81 17q-35 17 -61 37
q-27 20 -50 37t-48 17q-29 0 -41 -23q-13 -24 -15 -61q-1 -10 -7 -16q-7 -6 -17 -6h-111q-8 0 -15 7t-6 15q2 56 16 104q13 47 39 81q25 34 64 54q38 19 89 19q44 0 78 -17q33 -17 60 -37t49 -37t43 -17q32 0 45 23t15 61q1 10 8 16q6 6 16 6h111q8 0 15 -7t6 -15z" />
    <glyph glyph-name="adieresis" unicode="&#xe4;" horiz-adv-x="1169" 
d="M350 541q0 -178 60 -268t170 -89q111 0 170 85q58 85 61 251q1 168 -58 259q-59 90 -167 91q-116 3 -176 -82t-60 -247zM823 0q-9 0 -15 7q-7 7 -6 16l3 100q-55 -67 -133 -105q-79 -38 -178 -38q-112 0 -197 42q-86 42 -143 115q-58 73 -87 173q-30 99 -30 214
q0 114 32 215t92 175q59 74 146 118q86 43 193 43q98 0 175 -34q76 -35 130 -101l-5 92q-1 9 6 16q6 7 15 7h266q10 0 17 -7q6 -7 6 -16l-8 -506l8 -503q0 -10 -6 -16q-7 -7 -17 -7h-264zM252 1178q-10 0 -16 7q-7 6 -7 15v232q0 9 7 16q6 6 16 6h204q9 0 16 -6q7 -7 7 -16
v-232q0 -9 -7 -15q-7 -7 -16 -7h-204zM682 1178q-9 0 -16 7q-7 6 -7 15v232q0 9 7 16q7 6 16 6h204q10 0 17 -6q6 -7 6 -16v-232q0 -9 -6 -15q-7 -7 -17 -7h-204z" />
    <glyph glyph-name="aring" unicode="&#xe5;" horiz-adv-x="1169" 
d="M350 541q0 -178 60 -268t170 -89q111 0 170 85q58 85 61 251q1 168 -58 259q-59 90 -167 91q-116 3 -176 -82t-60 -247zM823 0q-9 0 -15 7q-7 7 -6 16l3 100q-55 -67 -133 -105q-79 -38 -178 -38q-112 0 -197 42q-86 42 -143 115q-58 73 -87 173q-30 99 -30 214
q0 114 32 215t92 175q59 74 146 118q86 43 193 43q98 0 175 -34q76 -35 130 -101l-5 92q-1 9 6 16q6 7 15 7h266q10 0 17 -7q6 -7 6 -16l-8 -506l8 -503q0 -10 -6 -16q-7 -7 -17 -7h-264zM833 1405q0 -52 -20 -97t-55 -77q-35 -33 -83 -51q-49 -19 -106 -19t-105 19
q-49 18 -84 51q-35 32 -55 77t-20 97t20 97t55 78q35 32 84 51q48 18 105 18t106 -18q48 -19 83 -51q35 -33 55 -78t20 -97zM465 1405q0 -66 29 -100q29 -35 75 -35q44 0 74 35q30 34 30 100q0 67 -30 101t-74 34q-46 0 -75 -34t-29 -101z" />
    <glyph glyph-name="ae" unicode="&#xe6;" horiz-adv-x="1954" 
d="M1890 334q-10 -72 -48 -137q-38 -66 -99 -115q-62 -50 -147 -79q-86 -30 -191 -30q-90 0 -165 25q-75 26 -132 72v-47q0 -10 -6 -16q-7 -7 -17 -7h-262q-9 0 -15 7q-7 7 -6 16l3 100q-55 -67 -133 -105q-79 -38 -178 -38q-112 0 -197 42q-86 42 -143 115q-58 73 -87 173
q-30 99 -30 214q0 114 32 215t92 175q59 74 146 118q86 43 193 43q98 0 175 -34q76 -35 130 -99l-5 90q-1 9 6 16q6 7 15 7h264q10 0 17 -7q6 -7 6 -16v-47q57 46 131 71q73 25 160 25q124 0 221 -41q97 -42 163 -118q66 -77 102 -187q35 -111 38 -248q0 -8 -6 -15
q-7 -7 -16 -7h-750q9 -149 69 -218q59 -69 169 -69q76 0 129 37q53 36 75 119q2 10 10 16t18 6h249q9 0 15 -7t5 -15zM1380 879q-92 0 -147 -55q-55 -56 -74 -165h432q-4 42 -18 82q-15 40 -41 71q-26 30 -63 49q-38 18 -89 18zM350 541q0 -178 60 -268t170 -89
q111 0 171 85q59 85 60 251q1 168 -57 259q-58 90 -168 91q-116 3 -176 -82t-60 -247z" />
    <glyph glyph-name="ccedilla" unicode="&#xe7;" horiz-adv-x="1096" 
d="M1067 383q-9 -89 -48 -164q-40 -76 -104 -130q-64 -55 -150 -85q-87 -31 -190 -31q-126 0 -226 39t-169 111q-69 71 -106 174q-37 102 -37 227t37 229q37 103 107 176q69 72 171 112t230 40q100 0 183 -27q83 -28 144 -77q60 -49 97 -119q37 -71 47 -156q1 -8 -5 -15
q-7 -7 -15 -7h-240q-10 0 -17 6q-8 6 -10 16q-17 87 -68 130q-52 42 -116 42q-116 -1 -173 -87t-57 -261q0 -180 58 -263q57 -84 172 -85q77 -1 131 52q53 52 63 153q1 10 8 17q7 6 17 6h246q8 0 15 -7q6 -8 5 -16zM596 -347q-1 -8 -9 -14q-8 -5 -17 -4l-242 45q-9 2 -13 10
t-1 15l134 315q4 9 13 15q8 5 18 4l166 -18q9 -1 15 -8q5 -8 4 -17z" />
    <glyph glyph-name="egrave" unicode="&#xe8;" horiz-adv-x="1149" 
d="M1066 356q8 0 14 -7t5 -15q-10 -72 -49 -137q-40 -66 -104 -115q-64 -50 -153 -79q-90 -30 -199 -30q-132 0 -233 42q-102 41 -170 114q-69 73 -104 175q-36 101 -36 220q0 125 37 229q37 103 106 176q68 72 168 112t225 40q129 0 230 -41q101 -42 170 -118
q68 -77 105 -187q37 -111 40 -248q0 -8 -6 -15q-7 -7 -16 -7h-750q9 -149 69 -218q59 -69 169 -69q76 0 129 37q53 36 75 119q2 10 10 16t18 6h250zM786 659q-4 42 -18 82q-15 40 -41 71q-26 30 -63 49q-38 18 -89 18q-91 0 -146 -55q-56 -56 -75 -165h432zM799 1162
q-4 -9 -12 -13q-9 -5 -18 -2l-497 131q-9 2 -13 11q-5 8 -2 16l61 185q3 8 12 12q8 4 16 0l483 -209q8 -4 12 -13t0 -17z" />
    <glyph glyph-name="eacute" unicode="&#xe9;" horiz-adv-x="1149" 
d="M1066 356q8 0 14 -7t5 -15q-10 -72 -49 -137q-40 -66 -104 -115q-64 -50 -153 -79q-90 -30 -199 -30q-132 0 -233 42q-102 41 -170 114q-69 73 -104 175q-36 101 -36 220q0 125 37 229q37 103 106 176q68 72 168 112t225 40q129 0 230 -41q101 -42 170 -118
q68 -77 105 -187q37 -111 40 -248q0 -8 -6 -15q-7 -7 -16 -7h-750q9 -149 69 -218q59 -69 169 -69q76 0 129 37q53 36 75 119q2 10 10 16t18 6h250zM786 659q-4 42 -18 82q-15 40 -41 71q-26 30 -63 49q-38 18 -89 18q-91 0 -146 -55q-56 -56 -75 -165h432zM387 1147
q-9 -3 -17 2q-9 4 -13 13l-42 101q-4 8 0 17t12 13l481 209q7 4 16 0t11 -12l60 -184q3 -9 -1 -17q-5 -9 -14 -11z" />
    <glyph glyph-name="ecircumflex" unicode="&#xea;" horiz-adv-x="1149" 
d="M1066 356q8 0 14 -7t5 -15q-10 -72 -49 -137q-40 -66 -104 -115q-64 -50 -153 -79q-90 -30 -199 -30q-132 0 -233 42q-102 41 -170 114q-69 73 -104 175q-36 101 -36 220q0 125 37 229q37 103 106 176q68 72 168 112t225 40q129 0 230 -41q101 -42 170 -118
q68 -77 105 -187q37 -111 40 -248q0 -8 -6 -15q-7 -7 -16 -7h-750q9 -149 69 -218q59 -69 169 -69q76 0 129 37q53 36 75 119q2 10 10 16t18 6h250zM786 659q-4 42 -18 82q-15 40 -41 71q-26 30 -63 49q-38 18 -89 18q-91 0 -146 -55q-56 -56 -75 -165h432zM899 1162
q-3 -8 -12 -11q-9 -4 -17 0l-299 147l-299 -147q-8 -4 -17 0q-9 3 -12 11l-44 105q-4 9 -1 19t11 15l282 198q8 5 20 9q11 3 21 3h78q10 0 22 -3q11 -4 19 -9l282 -198q8 -5 11 -15t-1 -19z" />
    <glyph glyph-name="edieresis" unicode="&#xeb;" horiz-adv-x="1149" 
d="M1066 356q8 0 14 -7t5 -15q-10 -72 -49 -137q-40 -66 -104 -115q-64 -50 -153 -79q-90 -30 -199 -30q-132 0 -233 42q-102 41 -170 114q-69 73 -104 175q-36 101 -36 220q0 125 37 229q37 103 106 176q68 72 168 112t225 40q129 0 230 -41q101 -42 170 -118
q68 -77 105 -187q37 -111 40 -248q0 -8 -6 -15q-7 -7 -16 -7h-750q9 -149 69 -218q59 -69 169 -69q76 0 129 37q53 36 75 119q2 10 10 16t18 6h250zM786 659q-4 42 -18 82q-15 40 -41 71q-26 30 -63 49q-38 18 -89 18q-91 0 -146 -55q-56 -56 -75 -165h432zM254 1178
q-10 0 -16 7q-7 6 -7 15v232q0 9 7 16q6 6 16 6h204q9 0 16 -6q7 -7 7 -16v-232q0 -9 -7 -15q-7 -7 -16 -7h-204zM684 1178q-9 0 -16 7q-7 6 -7 15v232q0 9 7 16q7 6 16 6h204q10 0 17 -6q6 -7 6 -16v-232q0 -9 -6 -15q-7 -7 -17 -7h-204z" />
    <glyph glyph-name="igrave" unicode="&#xec;" horiz-adv-x="451" 
d="M90 0q-9 0 -15 7q-7 6 -7 16l8 503l-8 506q0 9 7 16q6 7 15 7h270q10 0 17 -7q6 -7 6 -16l-8 -506l8 -503q0 -10 -6 -16q-7 -7 -17 -7h-270zM422 1162q-4 -9 -12 -13q-9 -5 -18 -2l-497 131q-9 2 -14 11q-4 8 -1 16l61 185q3 8 11 12q9 4 17 0l483 -209q8 -4 12 -13
t0 -17z" />
    <glyph glyph-name="iacute" unicode="&#xed;" horiz-adv-x="451" 
d="M90 0q-9 0 -15 7q-7 6 -7 16l8 503l-8 506q0 9 7 16q6 7 15 7h270q10 0 17 -7q6 -7 6 -16l-8 -506l8 -503q0 -10 -6 -16q-7 -7 -17 -7h-270zM76 1147q-9 -3 -17 2q-9 4 -13 13l-42 101q-4 8 0 17t12 13l481 209q7 4 16 0t11 -12l60 -184q3 -9 -1 -17q-5 -9 -14 -11z" />
    <glyph glyph-name="icircumflex" unicode="&#xee;" horiz-adv-x="451" 
d="M90 0q-9 0 -15 7q-7 6 -7 16l8 503l-8 506q0 9 7 16q6 7 15 7h270q10 0 17 -7q6 -7 6 -16l-8 -506l8 -503q0 -10 -6 -16q-7 -7 -17 -7h-270zM553 1162q-3 -8 -12 -11q-9 -4 -17 0l-299 147l-299 -147q-8 -4 -17 0q-9 3 -12 11l-44 105q-4 9 -1 19t11 15l282 198q8 5 20 9
q11 3 21 3h78q10 0 22 -3q11 -4 19 -9l282 -198q8 -5 11 -15t-1 -19z" />
    <glyph glyph-name="idieresis" unicode="&#xef;" horiz-adv-x="451" 
d="M90 0q-9 0 -15 7q-7 6 -7 16l8 503l-8 506q0 9 7 16q6 7 15 7h270q10 0 17 -7q6 -7 6 -16l-8 -506l8 -503q0 -10 -6 -16q-7 -7 -17 -7h-270zM-92 1178q-10 0 -17 7q-6 6 -6 15v232q0 9 6 16q7 6 17 6h204q9 0 16 -6q7 -7 7 -16v-232q0 -9 -7 -15q-7 -7 -16 -7h-204z
M338 1178q-9 0 -16 7q-7 6 -7 15v232q0 9 7 16q7 6 16 6h204q10 0 17 -6q6 -7 6 -16v-232q0 -9 -6 -15q-7 -7 -17 -7h-204z" />
    <glyph glyph-name="eth" unicode="&#xf0;" horiz-adv-x="1169" 
d="M1130 584q0 -134 -37 -247q-38 -114 -109 -195t-174 -127q-104 -46 -235 -46q-117 0 -215 38q-98 37 -168 103q-70 65 -110 155t-41 194q1 101 36 187q34 85 95 146t148 96q86 34 190 34q111 0 183 -33q71 -33 118 -86q-6 79 -39 150t-88 130l-238 -113q-8 -4 -17 0
q-9 3 -13 11l-64 129q-4 8 -1 17t11 13l158 77q-41 23 -88 44t-97 38q-8 3 -11 12q-3 8 1 15l87 146q5 8 15 12q9 3 18 0q93 -31 174 -68q81 -38 149 -83l262 126q8 4 18 1q9 -4 13 -12l64 -129q4 -8 1 -17q-4 -9 -12 -13l-188 -89q101 -111 153 -263q51 -152 51 -353z
M369 440q0 -117 62 -182t161 -65t154 70q55 69 55 190q0 120 -61 186t-165 66t-155 -72t-51 -193z" />
    <glyph glyph-name="ntilde" unicode="&#xf1;" horiz-adv-x="1122" 
d="M84 0q-9 0 -15 7q-7 6 -7 16l8 483l-4 526q0 9 7 16q6 7 15 7h252q9 0 16 -7q6 -7 5 -16l-5 -110q54 69 142 113t198 44q84 0 152 -28t116 -80q47 -52 73 -128q26 -77 26 -173v-221l6 -426q0 -10 -6 -16q-7 -7 -16 -7h-267q-9 0 -15 7q-7 6 -7 16l6 426v217q0 85 -46 137
q-47 51 -116 51q-41 0 -82 -19q-41 -20 -73 -60q-33 -40 -53 -102q-21 -63 -21 -147v-77l4 -426q0 -10 -7 -16q-7 -7 -16 -7h-270zM890 1436q-4 -119 -53 -188q-50 -70 -149 -70q-47 0 -81 17q-35 17 -61 37q-27 20 -50 37t-48 17q-29 0 -41 -23q-13 -24 -15 -61
q-1 -10 -7 -16q-7 -6 -17 -6h-111q-8 0 -15 7t-6 15q2 56 16 104q13 47 39 81q25 34 64 54q38 19 89 19q44 0 78 -17q33 -17 60 -37t49 -37t43 -17q32 0 45 23t15 61q1 10 8 16q6 6 16 6h111q8 0 15 -7t6 -15z" />
    <glyph glyph-name="ograve" unicode="&#xf2;" horiz-adv-x="1153" 
d="M1118 530q0 -125 -36 -228t-104 -176t-169 -113t-229 -40t-229 39q-102 39 -171 111q-70 71 -106 174q-37 102 -37 227t37 229q36 103 106 176q69 72 171 112q101 40 229 40t229 -39t169 -110q68 -72 104 -174q36 -103 36 -228zM350 522q0 -177 58 -260q57 -84 172 -84
q113 0 168 83t55 263q0 178 -56 266q-56 87 -169 87q-116 -2 -172 -89q-56 -88 -56 -266zM787 1162q-4 -9 -12 -13q-9 -5 -18 -2l-497 131q-9 2 -13 11q-5 8 -2 16l61 185q3 8 12 12q8 4 16 0l483 -209q8 -4 12 -13t0 -17z" />
    <glyph glyph-name="oacute" unicode="&#xf3;" horiz-adv-x="1153" 
d="M1118 530q0 -125 -36 -228t-104 -176t-169 -113t-229 -40t-229 39q-102 39 -171 111q-70 71 -106 174q-37 102 -37 227t37 229q36 103 106 176q69 72 171 112q101 40 229 40t229 -39t169 -110q68 -72 104 -174q36 -103 36 -228zM350 522q0 -177 58 -260q57 -84 172 -84
q113 0 168 83t55 263q0 178 -56 266q-56 87 -169 87q-116 -2 -172 -89q-56 -88 -56 -266zM395 1147q-9 -3 -17 2q-9 4 -13 13l-42 101q-4 8 0 17t12 13l481 209q7 4 16 0t11 -12l60 -184q3 -9 -1 -17q-5 -9 -14 -11z" />
    <glyph glyph-name="ocircumflex" unicode="&#xf4;" horiz-adv-x="1153" 
d="M1118 530q0 -125 -36 -228t-104 -176t-169 -113t-229 -40t-229 39q-102 39 -171 111q-70 71 -106 174q-37 102 -37 227t37 229q36 103 106 176q69 72 171 112q101 40 229 40t229 -39t169 -110q68 -72 104 -174q36 -103 36 -228zM350 522q0 -177 58 -260q57 -84 172 -84
q113 0 168 83t55 263q0 178 -56 266q-56 87 -169 87q-116 -2 -172 -89q-56 -88 -56 -266zM906 1162q-3 -8 -12 -11q-9 -4 -17 0l-299 147l-299 -147q-8 -4 -17 0q-9 3 -12 11l-44 105q-4 9 -1 19t11 15l282 198q8 5 20 9q11 3 21 3h78q10 0 22 -3q11 -4 19 -9l282 -198
q8 -5 11 -15t-1 -19z" />
    <glyph glyph-name="otilde" unicode="&#xf5;" horiz-adv-x="1153" 
d="M1118 530q0 -125 -36 -228t-104 -176t-169 -113t-229 -40t-229 39q-102 39 -171 111q-70 71 -106 174q-37 102 -37 227t37 229q36 103 106 176q69 72 171 112q101 40 229 40t229 -39t169 -110q68 -72 104 -174q36 -103 36 -228zM350 522q0 -177 58 -260q57 -84 172 -84
q113 0 168 83t55 263q0 178 -56 266q-56 87 -169 87q-116 -2 -172 -89q-56 -88 -56 -266zM905 1436q-4 -119 -53 -188q-50 -70 -149 -70q-47 0 -81 17q-35 17 -61 37q-27 20 -50 37t-48 17q-29 0 -41 -23q-13 -24 -15 -61q-1 -10 -7 -16q-7 -6 -17 -6h-111q-8 0 -15 7t-6 15
q2 56 16 104q13 47 39 81q25 34 64 54q38 19 89 19q44 0 78 -17q33 -17 60 -37t49 -37t43 -17q32 0 45 23t15 61q1 10 8 16q6 6 16 6h111q8 0 15 -7t6 -15z" />
    <glyph glyph-name="odieresis" unicode="&#xf6;" horiz-adv-x="1153" 
d="M1118 530q0 -125 -36 -228t-104 -176t-169 -113t-229 -40t-229 39q-102 39 -171 111q-70 71 -106 174q-37 102 -37 227t37 229q36 103 106 176q69 72 171 112q101 40 229 40t229 -39t169 -110q68 -72 104 -174q36 -103 36 -228zM350 522q0 -177 58 -260q57 -84 172 -84
q113 0 168 83t55 263q0 178 -56 266q-56 87 -169 87q-116 -2 -172 -89q-56 -88 -56 -266zM261 1178q-10 0 -16 7q-7 6 -7 15v232q0 9 7 16q6 6 16 6h204q9 0 16 -6q7 -7 7 -16v-232q0 -9 -7 -15q-7 -7 -16 -7h-204zM691 1178q-9 0 -16 7q-7 6 -7 15v232q0 9 7 16q7 6 16 6
h204q10 0 17 -6q6 -7 6 -16v-232q0 -9 -6 -15q-7 -7 -17 -7h-204z" />
    <glyph glyph-name="divide" unicode="&#xf7;" horiz-adv-x="1126" 
d="M426 129q-9 0 -16 7q-7 6 -7 16v247q0 9 7 16t16 7h274q9 0 16 -7t7 -16v-247q0 -10 -7 -16q-7 -7 -16 -7h-274zM104 592q-9 0 -15 7q-7 6 -7 15v183q0 9 7 16q6 6 15 6h918q9 0 16 -6q6 -7 6 -16v-183q0 -9 -6 -15q-7 -7 -16 -7h-918zM426 993q-9 0 -16 7q-7 6 -7 16
v247q0 9 7 16t16 7h274q9 0 16 -7t7 -16v-247q0 -10 -7 -16q-7 -7 -16 -7h-274z" />
    <glyph glyph-name="oslash" unicode="&#xf8;" horiz-adv-x="1153" 
d="M350 522q0 -37 3 -70q2 -33 7 -61l358 434q-26 26 -61 39q-36 13 -79 13q-116 -2 -172 -89q-56 -88 -56 -266zM580 178q113 0 168 83t55 263q0 40 -3 76t-9 67l-358 -436q27 -27 64 -40t83 -13zM199 -87q-6 -7 -15 -8q-9 0 -16 6l-113 106q-7 7 -7 17q-1 9 5 16l92 113
q-53 69 -80 161q-28 91 -28 200q0 125 37 229q36 103 106 176q69 72 171 112q101 40 229 40q78 0 147 -14q68 -15 125 -43l102 122q6 7 16 8q9 0 15 -6l115 -107q7 -6 8 -15q0 -10 -6 -17l-94 -112q54 -69 82 -162q28 -94 28 -205q0 -125 -36 -228t-104 -176t-169 -113
t-229 -40q-81 0 -152 16t-128 45z" />
    <glyph glyph-name="ugrave" unicode="&#xf9;" horiz-adv-x="1122" 
d="M767 133q-54 -69 -142 -113q-88 -45 -198 -45q-83 0 -151 28t-116 81q-48 52 -74 129q-26 76 -26 172v221l-5 426q-1 9 6 16t16 7h266q9 0 16 -7q6 -7 6 -16l-6 -426v-217q0 -86 47 -137q46 -51 115 -51q41 0 83 20q41 19 74 59q32 40 53 102q20 62 20 146v78l-4 426
q0 9 7 16q6 7 15 7h270q9 0 16 -7t6 -16l-7 -483l4 -526q0 -10 -7 -16q-7 -7 -16 -7h-252q-9 0 -15 7q-7 7 -6 16zM752 1162q-4 -9 -12 -13q-9 -5 -18 -2l-497 131q-9 2 -13 11q-5 8 -2 16l61 185q3 8 12 12q8 4 16 0l483 -209q8 -4 12 -13t0 -17z" />
    <glyph glyph-name="uacute" unicode="&#xfa;" horiz-adv-x="1122" 
d="M767 133q-54 -69 -142 -113q-88 -45 -198 -45q-83 0 -151 28t-116 81q-48 52 -74 129q-26 76 -26 172v221l-5 426q-1 9 6 16t16 7h266q9 0 16 -7q6 -7 6 -16l-6 -426v-217q0 -86 47 -137q46 -51 115 -51q41 0 83 20q41 19 74 59q32 40 53 102q20 62 20 146v78l-4 426
q0 9 7 16q6 7 15 7h270q9 0 16 -7t6 -16l-7 -483l4 -526q0 -10 -7 -16q-7 -7 -16 -7h-252q-9 0 -15 7q-7 7 -6 16zM381 1147q-9 -3 -17 2q-9 4 -13 13l-42 101q-4 8 0 17t12 13l481 209q7 4 16 0t11 -12l60 -184q3 -9 -1 -17q-5 -9 -14 -11z" />
    <glyph glyph-name="ucircumflex" unicode="&#xfb;" horiz-adv-x="1122" 
d="M767 133q-54 -69 -142 -113q-88 -45 -198 -45q-83 0 -151 28t-116 81q-48 52 -74 129q-26 76 -26 172v221l-5 426q-1 9 6 16t16 7h266q9 0 16 -7q6 -7 6 -16l-6 -426v-217q0 -86 47 -137q46 -51 115 -51q41 0 83 20q41 19 74 59q32 40 53 102q20 62 20 146v78l-4 426
q0 9 7 16q6 7 15 7h270q9 0 16 -7t6 -16l-7 -483l4 -526q0 -10 -7 -16q-7 -7 -16 -7h-252q-9 0 -15 7q-7 7 -6 16zM883 1162q-3 -8 -12 -11q-9 -4 -17 0l-299 147l-299 -147q-8 -4 -17 0q-9 3 -12 11l-44 105q-4 9 -1 19t11 15l282 198q8 5 20 9q11 3 21 3h78q10 0 22 -3
q11 -4 19 -9l282 -198q8 -5 11 -15t-1 -19z" />
    <glyph glyph-name="udieresis" unicode="&#xfc;" horiz-adv-x="1122" 
d="M767 133q-54 -69 -142 -113q-88 -45 -198 -45q-83 0 -151 28t-116 81q-48 52 -74 129q-26 76 -26 172v221l-5 426q-1 9 6 16t16 7h266q9 0 16 -7q6 -7 6 -16l-6 -426v-217q0 -86 47 -137q46 -51 115 -51q41 0 83 20q41 19 74 59q32 40 53 102q20 62 20 146v78l-4 426
q0 9 7 16q6 7 15 7h270q9 0 16 -7t6 -16l-7 -483l4 -526q0 -10 -7 -16q-7 -7 -16 -7h-252q-9 0 -15 7q-7 7 -6 16zM238 1178q-10 0 -16 7q-7 6 -7 15v232q0 9 7 16q6 6 16 6h204q9 0 16 -6q7 -7 7 -16v-232q0 -9 -7 -15q-7 -7 -16 -7h-204zM668 1178q-9 0 -16 7q-7 6 -7 15
v232q0 9 7 16q7 6 16 6h204q10 0 17 -6q6 -7 6 -16v-232q0 -9 -6 -15q-7 -7 -17 -7h-204z" />
    <glyph glyph-name="yacute" unicode="&#xfd;" horiz-adv-x="1042" 
d="M591 -327q-3 -9 -11 -15q-9 -6 -19 -6h-248q-8 0 -13 6q-5 7 -2 15l110 317l-422 1044q-3 7 1 14q5 7 13 7h301q10 0 19 -6q8 -6 11 -16l228 -654l188 654q3 9 11 16q8 6 18 6h266q9 0 14 -7q4 -7 2 -15zM354 1147q-9 -3 -17 2q-9 4 -13 13l-42 101q-4 8 0 17t12 13
l481 209q7 4 16 0t11 -12l60 -184q3 -9 -1 -17q-5 -9 -14 -11z" />
    <glyph glyph-name="thorn" unicode="&#xfe;" horiz-adv-x="1169" 
d="M359 535q-1 -167 58 -258q58 -91 168 -91q116 0 176 84q59 84 59 244q0 175 -59 264q-59 88 -170 88q-112 0 -171 -84q-60 -84 -61 -247zM1134 530q0 -114 -32 -214q-33 -101 -92 -175q-60 -75 -146 -118t-193 -43q-95 0 -171 33q-77 33 -128 96l4 -435q0 -9 -7 -16
q-7 -6 -16 -6h-270q-9 0 -16 6q-7 7 -6 16l8 877l-8 860q-1 9 6 16t16 7h264q9 0 16 -7t6 -16l-6 -483q54 69 134 108q79 39 180 39q112 0 198 -42q85 -42 143 -115q57 -73 87 -173q29 -100 29 -215z" />
    <glyph glyph-name="ydieresis" unicode="&#xff;" horiz-adv-x="1042" 
d="M591 -327q-3 -9 -11 -15q-9 -6 -19 -6h-248q-8 0 -13 6q-5 7 -2 15l110 317l-422 1044q-3 7 1 14q5 7 13 7h301q10 0 19 -6q8 -6 11 -16l228 -654l188 654q3 9 11 16q8 6 18 6h266q9 0 14 -7q4 -7 2 -15zM220 1178q-10 0 -16 7q-7 6 -7 15v232q0 9 7 16q6 6 16 6h204
q9 0 16 -6q7 -7 7 -16v-232q0 -9 -7 -15q-7 -7 -16 -7h-204zM650 1178q-9 0 -16 7q-7 6 -7 15v232q0 9 7 16q7 6 16 6h204q10 0 17 -6q6 -7 6 -16v-232q0 -9 -6 -15q-7 -7 -17 -7h-204z" />
    <glyph glyph-name="Amacron" unicode="&#x100;" horiz-adv-x="1370" 
d="M872 612l-196 613l-187 -613h383zM1090 0q-10 0 -18 6q-9 6 -12 15l-110 344h-536l-106 -343q-3 -10 -11 -16t-18 -6h-275q-8 0 -13 7t-2 14l485 1391q3 10 12 16q8 6 18 6h375q10 0 18 -6t11 -16l473 -1391q3 -7 -2 -14t-13 -7h-276zM375 1557q-9 0 -16 7q-7 6 -7 15
v160q0 9 7 16q7 6 16 6h624q9 0 16 -6q7 -7 7 -16v-160q0 -9 -7 -15q-7 -7 -16 -7h-624z" />
    <glyph glyph-name="amacron" unicode="&#x101;" horiz-adv-x="1169" 
d="M350 541q0 -178 60 -268t170 -89q111 0 170 85q58 85 61 251q1 168 -58 259q-59 90 -167 91q-116 3 -176 -82t-60 -247zM823 0q-9 0 -15 7q-7 7 -6 16l3 100q-55 -67 -133 -105q-79 -38 -178 -38q-112 0 -197 42q-86 42 -143 115q-58 73 -87 173q-30 99 -30 214
q0 114 32 215t92 175q59 74 146 118q86 43 193 43q98 0 175 -34q76 -35 130 -101l-5 92q-1 9 6 16q6 7 15 7h266q10 0 17 -7q6 -7 6 -16l-8 -506l8 -503q0 -10 -6 -16q-7 -7 -17 -7h-264zM256 1178q-9 0 -16 7q-7 6 -7 15v160q0 9 7 16q7 6 16 6h624q9 0 16 -6q7 -7 7 -16
v-160q0 -9 -7 -15q-7 -7 -16 -7h-624z" />
    <glyph glyph-name="Abreve" unicode="&#x102;" horiz-adv-x="1370" 
d="M872 612l-196 613l-187 -613h383zM1090 0q-10 0 -18 6q-9 6 -12 15l-110 344h-536l-106 -343q-3 -10 -11 -16t-18 -6h-275q-8 0 -13 7t-2 14l485 1391q3 10 12 16q8 6 18 6h375q10 0 18 -6t11 -16l473 -1391q3 -7 -2 -14t-13 -7h-276zM1046 1864q-4 -68 -31 -126
q-27 -59 -73 -101q-47 -43 -112 -67t-144 -24t-144 24t-111 67q-47 42 -74 101q-27 58 -31 126q0 8 7 15q6 7 14 7h155q10 0 18 -6q7 -6 8 -16q7 -52 47 -85q40 -34 111 -34q66 0 109 34q42 33 49 85q1 10 9 16q7 6 17 6h155q8 0 15 -7q6 -7 6 -15z" />
    <glyph glyph-name="abreve" unicode="&#x103;" horiz-adv-x="1169" 
d="M350 541q0 -178 60 -268t170 -89q111 0 170 85q58 85 61 251q1 168 -58 259q-59 90 -167 91q-116 3 -176 -82t-60 -247zM823 0q-9 0 -15 7q-7 7 -6 16l3 100q-55 -67 -133 -105q-79 -38 -178 -38q-112 0 -197 42q-86 42 -143 115q-58 73 -87 173q-30 99 -30 214
q0 114 32 215t92 175q59 74 146 118q86 43 193 43q98 0 175 -34q76 -35 130 -101l-5 92q-1 9 6 16q6 7 15 7h266q10 0 17 -7q6 -7 6 -16l-8 -506l8 -503q0 -10 -6 -16q-7 -7 -17 -7h-264zM929 1485q-4 -68 -31 -126q-27 -59 -73 -101q-47 -43 -112 -67t-144 -24t-144 24
t-111 67q-47 42 -74 101q-27 58 -31 126q0 8 7 15q6 7 14 7h155q10 0 18 -6q7 -6 8 -16q7 -52 47 -85q40 -34 111 -34q66 0 109 34q42 33 49 85q1 10 9 16q7 6 17 6h155q8 0 15 -7q6 -7 6 -15z" />
    <glyph glyph-name="Aogonek" unicode="&#x104;" horiz-adv-x="1370" 
d="M872 612l-196 613l-187 -613h383zM1090 0q-10 0 -18 6q-9 6 -12 15l-110 344h-536l-106 -343q-3 -10 -11 -16t-18 -6h-275q-8 0 -13 7t-2 14l485 1391q3 10 12 16q8 6 18 6h375q10 0 18 -6t11 -16l473 -1391q3 -7 -2 -14t-13 -7h-276zM1219 -430q-70 0 -127 16
q-58 16 -98 45q-41 30 -63 72q-23 42 -23 94t20 95q19 43 52 76t78 58q45 24 96 41q9 3 19 -1t14 -11l20 -34q5 -10 4 -19t-9 -17q-20 -22 -40 -58q-21 -36 -21 -74q0 -45 31 -64q30 -18 76 -18h92q9 0 16 -7q6 -7 6 -16v-156q0 -9 -6 -16q-7 -6 -16 -6h-121z" />
    <glyph glyph-name="aogonek" unicode="&#x105;" horiz-adv-x="1169" 
d="M350 541q0 -178 60 -268t170 -89q111 0 170 85q58 85 61 251q1 168 -58 259q-59 90 -167 91q-116 3 -176 -82t-60 -247zM823 0q-9 0 -15 7q-7 7 -6 16l3 100q-55 -67 -133 -105q-79 -38 -178 -38q-112 0 -197 42q-86 42 -143 115q-58 73 -87 173q-30 99 -30 214
q0 114 32 215t92 175q59 74 146 118q86 43 193 43q98 0 175 -34q76 -35 130 -101l-5 92q-1 9 6 16q6 7 15 7h266q10 0 17 -7q6 -7 6 -16l-8 -506l8 -503q0 -10 -6 -16q-7 -7 -17 -7h-264zM1002 -430q-70 0 -127 16q-58 16 -98 45q-41 30 -63 72q-23 42 -23 94t20 95
q19 43 52 76t78 58q45 24 96 41q9 3 19 -1t14 -11l20 -34q5 -10 4 -19t-9 -17q-20 -22 -40 -58q-21 -36 -21 -74q0 -45 31 -64q30 -18 76 -18h92q9 0 16 -7q6 -7 6 -16v-156q0 -9 -6 -16q-7 -6 -16 -6h-121z" />
    <glyph glyph-name="Cacute" unicode="&#x106;" horiz-adv-x="1427" 
d="M1399 508q-30 -145 -88 -248q-59 -103 -141 -167q-83 -65 -189 -95q-106 -29 -231 -29q-165 0 -297 55q-133 54 -225 152t-141 235q-50 137 -50 300q0 170 51 310q50 140 142 238q92 97 224 151t294 54q115 0 218 -26t186 -84q83 -59 144 -156q61 -98 92 -240
q1 -8 -4 -15t-14 -7h-259q-10 0 -18 6t-10 16q-31 128 -116 198q-86 69 -224 69q-93 0 -165 -35q-72 -36 -120 -101q-49 -66 -74 -161q-26 -96 -26 -215t26 -213q26 -95 75 -159q48 -64 120 -98q71 -34 162 -34q149 0 234 78q84 77 113 221q1 10 9 16q7 6 17 6h267
q8 0 14 -7q5 -7 4 -15zM539 1526q-9 -3 -17 2q-9 4 -13 13l-42 101q-4 8 0 17t12 13l481 209q7 4 16 0t11 -12l60 -184q3 -9 -1 -17q-5 -9 -14 -11z" />
    <glyph glyph-name="cacute" unicode="&#x107;" horiz-adv-x="1096" 
d="M1067 383q-9 -89 -48 -164q-40 -76 -104 -130q-64 -55 -150 -85q-87 -31 -190 -31q-126 0 -226 39t-169 111q-69 71 -106 174q-37 102 -37 227t37 229q37 103 107 176q69 72 171 112t230 40q100 0 183 -27q83 -28 144 -77q60 -49 97 -119q37 -71 47 -156q1 -8 -5 -15
q-7 -7 -15 -7h-240q-10 0 -17 6q-8 6 -10 16q-17 87 -68 130q-52 42 -116 42q-116 -1 -173 -87t-57 -261q0 -180 58 -263q57 -84 172 -85q77 -1 131 52q53 52 63 153q1 10 8 17q7 6 17 6h246q8 0 15 -7q6 -8 5 -16zM371 1147q-9 -3 -17 2q-9 4 -13 13l-42 101q-4 8 0 17
t12 13l481 209q7 4 16 0t11 -12l60 -184q3 -9 -1 -17q-5 -9 -14 -11z" />
    <glyph glyph-name="Ccircumflex" unicode="&#x108;" horiz-adv-x="1427" 
d="M1399 508q-30 -145 -88 -248q-59 -103 -141 -167q-83 -65 -189 -95q-106 -29 -231 -29q-165 0 -297 55q-133 54 -225 152t-141 235q-50 137 -50 300q0 170 51 310q50 140 142 238q92 97 224 151t294 54q115 0 218 -26t186 -84q83 -59 144 -156q61 -98 92 -240
q1 -8 -4 -15t-14 -7h-259q-10 0 -18 6t-10 16q-31 128 -116 198q-86 69 -224 69q-93 0 -165 -35q-72 -36 -120 -101q-49 -66 -74 -161q-26 -96 -26 -215t26 -213q26 -95 75 -159q48 -64 120 -98q71 -34 162 -34q149 0 234 78q84 77 113 221q1 10 9 16q7 6 17 6h267
q8 0 14 -7q5 -7 4 -15zM1059 1541q-3 -8 -12 -11q-9 -4 -17 0l-299 147l-299 -147q-8 -4 -17 0q-9 3 -12 11l-44 105q-4 9 -1 19t11 15l282 198q8 5 20 9q11 3 21 3h78q10 0 22 -3q11 -4 19 -9l282 -198q8 -5 11 -15t-1 -19z" />
    <glyph glyph-name="ccircumflex" unicode="&#x109;" horiz-adv-x="1096" 
d="M1067 383q-9 -89 -48 -164q-40 -76 -104 -130q-64 -55 -150 -85q-87 -31 -190 -31q-126 0 -226 39t-169 111q-69 71 -106 174q-37 102 -37 227t37 229q37 103 107 176q69 72 171 112t230 40q100 0 183 -27q83 -28 144 -77q60 -49 97 -119q37 -71 47 -156q1 -8 -5 -15
q-7 -7 -15 -7h-240q-10 0 -17 6q-8 6 -10 16q-17 87 -68 130q-52 42 -116 42q-116 -1 -173 -87t-57 -261q0 -180 58 -263q57 -84 172 -85q77 -1 131 52q53 52 63 153q1 10 8 17q7 6 17 6h246q8 0 15 -7q6 -8 5 -16zM873 1162q-3 -8 -12 -11q-9 -4 -17 0l-299 147l-299 -147
q-8 -4 -17 0q-9 3 -12 11l-44 105q-4 9 -1 19t11 15l282 198q8 5 20 9q11 3 21 3h78q10 0 22 -3q11 -4 19 -9l282 -198q8 -5 11 -15t-1 -19z" />
    <glyph glyph-name="Cdotaccent" unicode="&#x10a;" horiz-adv-x="1427" 
d="M1399 508q-30 -145 -88 -248q-59 -103 -141 -167q-83 -65 -189 -95q-106 -29 -231 -29q-165 0 -297 55q-133 54 -225 152t-141 235q-50 137 -50 300q0 170 51 310q50 140 142 238q92 97 224 151t294 54q115 0 218 -26t186 -84q83 -59 144 -156q61 -98 92 -240
q1 -8 -4 -15t-14 -7h-259q-10 0 -18 6t-10 16q-31 128 -116 198q-86 69 -224 69q-93 0 -165 -35q-72 -36 -120 -101q-49 -66 -74 -161q-26 -96 -26 -215t26 -213q26 -95 75 -159q48 -64 120 -98q71 -34 162 -34q149 0 234 78q84 77 113 221q1 10 9 16q7 6 17 6h267
q8 0 14 -7q5 -7 4 -15zM598 1536q-9 0 -16 7t-7 16v231q0 9 7 16t16 7h266q9 0 16 -7t7 -16v-231q0 -9 -7 -16t-16 -7h-266z" />
    <glyph glyph-name="cdotaccent" unicode="&#x10b;" horiz-adv-x="1096" 
d="M1067 383q-9 -89 -48 -164q-40 -76 -104 -130q-64 -55 -150 -85q-87 -31 -190 -31q-126 0 -226 39t-169 111q-69 71 -106 174q-37 102 -37 227t37 229q37 103 107 176q69 72 171 112t230 40q100 0 183 -27q83 -28 144 -77q60 -49 97 -119q37 -71 47 -156q1 -8 -5 -15
q-7 -7 -15 -7h-240q-10 0 -17 6q-8 6 -10 16q-17 87 -68 130q-52 42 -116 42q-116 -1 -173 -87t-57 -261q0 -180 58 -263q57 -84 172 -85q77 -1 131 52q53 52 63 153q1 10 8 17q7 6 17 6h246q8 0 15 -7q6 -8 5 -16zM422 1157q-9 0 -16 7t-7 16v231q0 9 7 16t16 7h266
q9 0 16 -7t7 -16v-231q0 -9 -7 -16t-16 -7h-266z" />
    <glyph glyph-name="Ccaron" unicode="&#x10c;" horiz-adv-x="1427" 
d="M1399 508q-30 -145 -88 -248q-59 -103 -141 -167q-83 -65 -189 -95q-106 -29 -231 -29q-165 0 -297 55q-133 54 -225 152t-141 235q-50 137 -50 300q0 170 51 310q50 140 142 238q92 97 224 151t294 54q115 0 218 -26t186 -84q83 -59 144 -156q61 -98 92 -240
q1 -8 -4 -15t-14 -7h-259q-10 0 -18 6t-10 16q-31 128 -116 198q-86 69 -224 69q-93 0 -165 -35q-72 -36 -120 -101q-49 -66 -74 -161q-26 -96 -26 -215t26 -213q26 -95 75 -159q48 -64 120 -98q71 -34 162 -34q149 0 234 78q84 77 113 221q1 10 9 16q7 6 17 6h267
q8 0 14 -7q5 -7 4 -15zM813 1553q-8 -6 -19 -9q-12 -4 -22 -4h-78q-10 0 -21 4q-12 3 -20 9l-282 198q-8 5 -11 15q-3 9 1 18l44 106q3 8 12 12q9 3 17 -1l299 -148l299 148q8 4 17 1q9 -4 12 -12l44 -106q4 -9 1 -18q-3 -10 -11 -15z" />
    <glyph glyph-name="ccaron" unicode="&#x10d;" horiz-adv-x="1096" 
d="M1067 383q-9 -89 -48 -164q-40 -76 -104 -130q-64 -55 -150 -85q-87 -31 -190 -31q-126 0 -226 39t-169 111q-69 71 -106 174q-37 102 -37 227t37 229q37 103 107 176q69 72 171 112t230 40q100 0 183 -27q83 -28 144 -77q60 -49 97 -119q37 -71 47 -156q1 -8 -5 -15
q-7 -7 -15 -7h-240q-10 0 -17 6q-8 6 -10 16q-17 87 -68 130q-52 42 -116 42q-116 -1 -173 -87t-57 -261q0 -180 58 -263q57 -84 172 -85q77 -1 131 52q53 52 63 153q1 10 8 17q7 6 17 6h246q8 0 15 -7q6 -8 5 -16zM635 1174q-8 -6 -19 -9q-12 -4 -22 -4h-78q-10 0 -21 4
q-12 3 -20 9l-282 198q-8 5 -11 15q-3 9 1 18l44 106q3 8 12 12q9 3 17 -1l299 -148l299 148q8 4 17 1q9 -4 12 -12l44 -106q4 -9 1 -18q-3 -10 -11 -15z" />
    <glyph glyph-name="Dcaron" unicode="&#x10e;" horiz-adv-x="1395" 
d="M96 0q-9 0 -15 7q-7 6 -7 16l12 694l-12 694q0 9 7 16q6 7 15 7h502q154 0 293 -43q138 -43 242 -131q103 -89 164 -227t61 -326q0 -190 -61 -324q-62 -135 -165 -220q-104 -85 -241 -124q-138 -39 -289 -39h-506zM383 723q0 -91 2 -179q1 -89 3 -158t4 -111q1 -43 1 -44
h225q87 0 164 27q76 27 132 85q56 57 89 148t33 218t-32 221q-33 93 -90 153t-135 90q-79 29 -169 29h-217q0 -1 -1 -42q-2 -42 -4 -109t-3 -153q-2 -86 -2 -175zM780 1553q-8 -6 -19 -9q-12 -4 -22 -4h-78q-10 0 -21 4q-12 3 -20 9l-282 198q-8 5 -11 15q-3 9 1 18l44 106
q3 8 12 12q9 3 17 -1l299 -148l299 148q8 4 17 1q9 -4 12 -12l44 -106q4 -9 1 -18q-3 -10 -11 -15z" />
    <glyph glyph-name="dcaron" unicode="&#x10f;" horiz-adv-x="1169" 
d="M350 539q0 -178 60 -268t170 -89q111 0 171 85q59 85 60 251q1 169 -57 261t-168 93q-116 4 -176 -83t-60 -250zM821 0q-9 0 -15 7q-7 7 -6 15l5 101q-55 -67 -133 -105q-79 -38 -178 -38q-112 0 -197 42q-86 42 -143 115q-58 73 -87 173q-30 99 -30 214q0 114 32 215
t92 175q59 74 146 118q86 43 193 43q96 0 173 -33q76 -34 130 -98l-4 467q0 9 7 16q6 7 15 7h266q10 0 17 -7q6 -7 6 -16l-6 -694l6 -694q0 -10 -6 -16q-7 -7 -17 -7h-266zM1367 1070q-2 -9 -10 -15q-8 -7 -17 -7h-150q-9 0 -15 7t-5 16l54 436q1 10 9 17q7 6 16 6h205
q9 0 14 -7t4 -15z" />
    <glyph glyph-name="Dcroat" unicode="&#x110;" horiz-adv-x="1425" 
d="M127 0q-9 0 -15 7q-7 6 -7 16l10 618h-99q-9 0 -15 7q-7 6 -7 16v186q0 9 7 16q6 6 15 6h98l-9 539q0 9 7 16q6 7 15 7h502q153 0 292 -43t243 -131q103 -89 164 -227t61 -326q0 -190 -61 -324q-62 -135 -165 -220q-104 -85 -242 -124t-288 -39h-506zM649 231
q87 0 164 27q76 27 132 85q56 57 89 148t33 218t-32 221q-33 93 -90 153t-135 90q-79 29 -169 29h-217l-1 -26q-1 -27 -2 -72q-2 -45 -3 -105q-2 -60 -3 -127h380q9 0 16 -6q6 -7 6 -16v-186q0 -10 -6 -16q-7 -7 -16 -7h-381q1 -80 3 -154q1 -74 3 -130q1 -57 3 -91
q1 -34 1 -35h225z" />
    <glyph glyph-name="dcroat" unicode="&#x111;" horiz-adv-x="1141" 
d="M350 539q0 -178 60 -268t170 -89q111 0 171 85q59 85 60 251q1 169 -57 261t-168 93q-116 4 -176 -83t-60 -250zM805 123q-55 -68 -133 -105q-79 -38 -178 -38q-112 0 -197 42q-86 42 -143 115q-58 73 -87 173q-30 99 -30 214q0 114 32 215t92 175q59 74 146 118
q86 43 193 43q96 0 172 -33q76 -34 130 -98l-1 189h-254q-9 0 -16 7q-7 6 -7 15v168q0 9 7 16t16 7h252v65q0 9 7 16q6 7 15 7h266q10 0 17 -7q6 -7 6 -16l-1 -65h54q9 0 16 -7t7 -16v-168q0 -9 -7 -15q-7 -7 -16 -7h-56l-3 -416l6 -694q0 -10 -6 -16q-7 -7 -17 -7h-266
q-9 0 -15 7q-7 7 -6 16z" />
    <glyph glyph-name="Emacron" unicode="&#x112;" horiz-adv-x="1133" 
d="M96 0q-9 0 -15 7q-7 6 -7 16l12 694l-12 694q0 9 7 16q6 7 15 7h959q9 0 16 -7q6 -7 6 -16v-186q0 -9 -6 -16q-7 -7 -16 -7h-662l-10 -330h612q9 0 16 -6q7 -7 7 -16v-186q0 -10 -7 -16q-7 -7 -16 -7h-612l10 -410h678q9 0 16 -6q7 -7 7 -16v-186q0 -10 -7 -16
q-7 -7 -16 -7h-975zM308 1557q-9 0 -16 7q-7 6 -7 15v160q0 9 7 16q7 6 16 6h624q9 0 16 -6q7 -7 7 -16v-160q0 -9 -7 -15q-7 -7 -16 -7h-624z" />
    <glyph glyph-name="emacron" unicode="&#x113;" horiz-adv-x="1149" 
d="M1066 356q8 0 14 -7t5 -15q-10 -72 -49 -137q-40 -66 -104 -115q-64 -50 -153 -79q-90 -30 -199 -30q-132 0 -233 42q-102 41 -170 114q-69 73 -104 175q-36 101 -36 220q0 125 37 229q37 103 106 176q68 72 168 112t225 40q129 0 230 -41q101 -42 170 -118
q68 -77 105 -187q37 -111 40 -248q0 -8 -6 -15q-7 -7 -16 -7h-750q9 -149 69 -218q59 -69 169 -69q76 0 129 37q53 36 75 119q2 10 10 16t18 6h250zM786 659q-4 42 -18 82q-15 40 -41 71q-26 30 -63 49q-38 18 -89 18q-91 0 -146 -55q-56 -56 -75 -165h432zM260 1178
q-9 0 -16 7q-7 6 -7 15v160q0 9 7 16q7 6 16 6h624q9 0 16 -6q7 -7 7 -16v-160q0 -9 -7 -15q-7 -7 -16 -7h-624z" />
    <glyph glyph-name="Ebreve" unicode="&#x114;" horiz-adv-x="1133" 
d="M96 0q-9 0 -15 7q-7 6 -7 16l12 694l-12 694q0 9 7 16q6 7 15 7h959q9 0 16 -7q6 -7 6 -16v-186q0 -9 -6 -16q-7 -7 -16 -7h-662l-10 -330h612q9 0 16 -6q7 -7 7 -16v-186q0 -10 -7 -16q-7 -7 -16 -7h-612l10 -410h678q9 0 16 -6q7 -7 7 -16v-186q0 -10 -7 -16
q-7 -7 -16 -7h-975zM978 1864q-4 -68 -31 -126q-27 -59 -73 -101q-47 -43 -112 -67t-144 -24t-144 24t-111 67q-47 42 -74 101q-27 58 -31 126q0 8 7 15q6 7 14 7h155q10 0 18 -6q7 -6 8 -16q7 -52 47 -85q40 -34 111 -34q66 0 109 34q42 33 49 85q1 10 9 16q7 6 17 6h155
q8 0 15 -7q6 -7 6 -15z" />
    <glyph glyph-name="ebreve" unicode="&#x115;" horiz-adv-x="1149" 
d="M1066 356q8 0 14 -7t5 -15q-10 -72 -49 -137q-40 -66 -104 -115q-64 -50 -153 -79q-90 -30 -199 -30q-132 0 -233 42q-102 41 -170 114q-69 73 -104 175q-36 101 -36 220q0 125 37 229q37 103 106 176q68 72 168 112t225 40q129 0 230 -41q101 -42 170 -118
q68 -77 105 -187q37 -111 40 -248q0 -8 -6 -15q-7 -7 -16 -7h-750q9 -149 69 -218q59 -69 169 -69q76 0 129 37q53 36 75 119q2 10 10 16t18 6h250zM786 659q-4 42 -18 82q-15 40 -41 71q-26 30 -63 49q-38 18 -89 18q-91 0 -146 -55q-56 -56 -75 -165h432zM931 1485
q-4 -68 -31 -126q-27 -59 -73 -101q-47 -43 -112 -67t-144 -24t-144 24t-111 67q-47 42 -74 101q-27 58 -31 126q0 8 7 15q6 7 14 7h155q10 0 18 -6q7 -6 8 -16q7 -52 47 -85q40 -34 111 -34q66 0 109 34q42 33 49 85q1 10 9 16q7 6 17 6h155q8 0 15 -7q6 -7 6 -15z" />
    <glyph glyph-name="Edotaccent" unicode="&#x116;" horiz-adv-x="1133" 
d="M96 0q-9 0 -15 7q-7 6 -7 16l12 694l-12 694q0 9 7 16q6 7 15 7h959q9 0 16 -7q6 -7 6 -16v-186q0 -9 -6 -16q-7 -7 -16 -7h-662l-10 -330h612q9 0 16 -6q7 -7 7 -16v-186q0 -10 -7 -16q-7 -7 -16 -7h-612l10 -410h678q9 0 16 -6q7 -7 7 -16v-186q0 -10 -7 -16
q-7 -7 -16 -7h-975zM485 1536q-9 0 -16 7t-7 16v231q0 9 7 16t16 7h266q9 0 16 -7t7 -16v-231q0 -9 -7 -16t-16 -7h-266z" />
    <glyph glyph-name="edotaccent" unicode="&#x117;" horiz-adv-x="1149" 
d="M1066 356q8 0 14 -7t5 -15q-10 -72 -49 -137q-40 -66 -104 -115q-64 -50 -153 -79q-90 -30 -199 -30q-132 0 -233 42q-102 41 -170 114q-69 73 -104 175q-36 101 -36 220q0 125 37 229q37 103 106 176q68 72 168 112t225 40q129 0 230 -41q101 -42 170 -118
q68 -77 105 -187q37 -111 40 -248q0 -8 -6 -15q-7 -7 -16 -7h-750q9 -149 69 -218q59 -69 169 -69q76 0 129 37q53 36 75 119q2 10 10 16t18 6h250zM786 659q-4 42 -18 82q-15 40 -41 71q-26 30 -63 49q-38 18 -89 18q-91 0 -146 -55q-56 -56 -75 -165h432zM438 1157
q-9 0 -16 7t-7 16v231q0 9 7 16t16 7h266q9 0 16 -7t7 -16v-231q0 -9 -7 -16t-16 -7h-266z" />
    <glyph glyph-name="Eogonek" unicode="&#x118;" horiz-adv-x="1133" 
d="M96 0q-9 0 -15 7q-7 6 -7 16l12 694l-12 694q0 9 7 16q6 7 15 7h959q9 0 16 -7q6 -7 6 -16v-186q0 -9 -6 -16q-7 -7 -16 -7h-662l-10 -330h612q9 0 16 -6q7 -7 7 -16v-186q0 -10 -7 -16q-7 -7 -16 -7h-612l10 -410h678q9 0 16 -6q7 -7 7 -16v-186q0 -10 -7 -16
q-7 -7 -16 -7h-975zM969 -430q-70 0 -127 16q-58 16 -98 45q-41 30 -63 72q-23 42 -23 94t20 95q19 43 52 76t78 58q45 24 96 41q9 3 19 -1t14 -11l20 -34q5 -10 4 -19t-9 -17q-20 -22 -40 -58q-21 -36 -21 -74q0 -45 31 -64q30 -18 76 -18h92q9 0 16 -7q6 -7 6 -16v-156
q0 -9 -6 -16q-7 -6 -16 -6h-121z" />
    <glyph glyph-name="eogonek" unicode="&#x119;" horiz-adv-x="1149" 
d="M1066 356q8 0 14 -7t5 -15q-10 -72 -49 -137q-40 -66 -104 -115q-64 -50 -153 -79q-90 -30 -199 -30q-132 0 -233 42q-102 41 -170 114q-69 73 -104 175q-36 101 -36 220q0 125 37 229q37 103 106 176q68 72 168 112t225 40q129 0 230 -41q101 -42 170 -118
q68 -77 105 -187q37 -111 40 -248q0 -8 -6 -15q-7 -7 -16 -7h-750q9 -149 69 -218q59 -69 169 -69q76 0 129 37q53 36 75 119q2 10 10 16t18 6h250zM786 659q-4 42 -18 82q-15 40 -41 71q-26 30 -63 49q-38 18 -89 18q-91 0 -146 -55q-56 -56 -75 -165h432zM760 -430
q-70 0 -127 16q-58 16 -98 45q-41 30 -63 72q-23 42 -23 94t20 95q19 43 52 76t78 58q45 24 96 41q9 3 19 -1t14 -11l20 -34q5 -10 4 -19t-9 -17q-20 -22 -40 -58q-21 -36 -21 -74q0 -45 31 -64q30 -18 76 -18h92q9 0 16 -7q6 -7 6 -16v-156q0 -9 -6 -16q-7 -6 -16 -6h-121z
" />
    <glyph glyph-name="Ecaron" unicode="&#x11a;" horiz-adv-x="1133" 
d="M96 0q-9 0 -15 7q-7 6 -7 16l12 694l-12 694q0 9 7 16q6 7 15 7h959q9 0 16 -7q6 -7 6 -16v-186q0 -9 -6 -16q-7 -7 -16 -7h-662l-10 -330h612q9 0 16 -6q7 -7 7 -16v-186q0 -10 -7 -16q-7 -7 -16 -7h-612l10 -410h678q9 0 16 -6q7 -7 7 -16v-186q0 -10 -7 -16
q-7 -7 -16 -7h-975zM698 1553q-8 -6 -19 -9q-12 -4 -22 -4h-78q-10 0 -21 4q-12 3 -20 9l-282 198q-8 5 -11 15q-3 9 1 18l44 106q3 8 12 12q9 3 17 -1l299 -148l299 148q8 4 17 1q9 -4 12 -12l44 -106q4 -9 1 -18q-3 -10 -11 -15z" />
    <glyph glyph-name="ecaron" unicode="&#x11b;" horiz-adv-x="1149" 
d="M1066 356q8 0 14 -7t5 -15q-10 -72 -49 -137q-40 -66 -104 -115q-64 -50 -153 -79q-90 -30 -199 -30q-132 0 -233 42q-102 41 -170 114q-69 73 -104 175q-36 101 -36 220q0 125 37 229q37 103 106 176q68 72 168 112t225 40q129 0 230 -41q101 -42 170 -118
q68 -77 105 -187q37 -111 40 -248q0 -8 -6 -15q-7 -7 -16 -7h-750q9 -149 69 -218q59 -69 169 -69q76 0 129 37q53 36 75 119q2 10 10 16t18 6h250zM786 659q-4 42 -18 82q-15 40 -41 71q-26 30 -63 49q-38 18 -89 18q-91 0 -146 -55q-56 -56 -75 -165h432zM651 1174
q-8 -6 -19 -9q-12 -4 -22 -4h-78q-10 0 -21 4q-12 3 -20 9l-282 198q-8 5 -11 15q-3 9 1 18l44 106q3 8 12 12q9 3 17 -1l299 -148l299 148q8 4 17 1q9 -4 12 -12l44 -106q4 -9 1 -18q-3 -10 -11 -15z" />
    <glyph glyph-name="Gcircumflex" unicode="&#x11c;" horiz-adv-x="1468" 
d="M1430 756q1 -197 -44 -345q-45 -149 -131 -246q-87 -98 -215 -147q-129 -49 -292 -49q-157 0 -288 55q-132 54 -225 152q-94 98 -146 237q-52 138 -52 304q0 169 51 308q51 138 143 235q91 97 221 151q130 53 287 53q132 0 241 -32t192 -92q83 -61 140 -149t86 -200
q1 -8 -4 -15t-13 -7h-276q-10 0 -18 6q-9 5 -12 15q-35 116 -119 178q-84 61 -215 61q-93 0 -165 -36t-120 -103t-73 -163t-25 -214q0 -116 27 -210q26 -95 76 -160t124 -100q74 -36 169 -36q152 0 244 89q91 88 98 253h-353q-9 0 -15 7q-7 6 -7 15v185q0 9 7 16q6 6 15 6
h664q9 0 16 -6q7 -7 7 -16zM1053 1541q-3 -8 -12 -11q-9 -4 -17 0l-299 147l-299 -147q-8 -4 -17 0q-9 3 -12 11l-44 105q-4 9 -1 19t11 15l282 198q8 5 20 9q11 3 21 3h78q10 0 22 -3q11 -4 19 -9l282 -198q8 -5 11 -15t-1 -19z" />
    <glyph glyph-name="gcircumflex" unicode="&#x11d;" horiz-adv-x="1167" 
d="M350 547q0 -170 60 -255q60 -86 170 -85q111 0 171 80q59 80 60 239q1 163 -57 252t-168 90q-116 3 -176 -80q-60 -84 -60 -241zM1104 29q1 -100 -32 -182q-33 -81 -98 -138t-163 -88q-99 -31 -229 -31q-103 -1 -192 19q-90 20 -156 62q-67 42 -107 106q-41 64 -48 149
q-1 9 6 16q6 7 15 7h257q10 0 18 -6q7 -6 9 -16q11 -63 64 -99q52 -35 144 -35q99 0 162 58t63 182v121q-51 -69 -128 -108q-77 -40 -175 -40q-117 0 -206 41q-90 41 -150 112t-90 168q-31 97 -31 208q0 110 32 208q32 97 92 169q59 72 146 115q86 42 193 42q98 0 175 -33
q76 -33 130 -96l-5 92q-1 9 6 16q6 7 15 7h262q9 0 16 -7t7 -16l-6 -520zM901 1162q-3 -8 -12 -11q-9 -4 -17 0l-299 147l-299 -147q-8 -4 -17 0q-9 3 -12 11l-44 105q-4 9 -1 19t11 15l282 198q8 5 20 9q11 3 21 3h78q10 0 22 -3q11 -4 19 -9l282 -198q8 -5 11 -15t-1 -19z
" />
    <glyph glyph-name="Gbreve" unicode="&#x11e;" horiz-adv-x="1468" 
d="M1430 756q1 -197 -44 -345q-45 -149 -131 -246q-87 -98 -215 -147q-129 -49 -292 -49q-157 0 -288 55q-132 54 -225 152q-94 98 -146 237q-52 138 -52 304q0 169 51 308q51 138 143 235q91 97 221 151q130 53 287 53q132 0 241 -32t192 -92q83 -61 140 -149t86 -200
q1 -8 -4 -15t-13 -7h-276q-10 0 -18 6q-9 5 -12 15q-35 116 -119 178q-84 61 -215 61q-93 0 -165 -36t-120 -103t-73 -163t-25 -214q0 -116 27 -210q26 -95 76 -160t124 -100q74 -36 169 -36q152 0 244 89q91 88 98 253h-353q-9 0 -15 7q-7 6 -7 15v185q0 9 7 16q6 6 15 6
h664q9 0 16 -6q7 -7 7 -16zM1085 1864q-4 -68 -31 -126q-27 -59 -73 -101q-47 -43 -112 -67t-144 -24t-144 24t-111 67q-47 42 -74 101q-27 58 -31 126q0 8 7 15q6 7 14 7h155q10 0 18 -6q7 -6 8 -16q7 -52 47 -85q40 -34 111 -34q66 0 109 34q42 33 49 85q1 10 9 16
q7 6 17 6h155q8 0 15 -7q6 -7 6 -15z" />
    <glyph glyph-name="gbreve" unicode="&#x11f;" horiz-adv-x="1167" 
d="M350 547q0 -170 60 -255q60 -86 170 -85q111 0 171 80q59 80 60 239q1 163 -57 252t-168 90q-116 3 -176 -80q-60 -84 -60 -241zM1104 29q1 -100 -32 -182q-33 -81 -98 -138t-163 -88q-99 -31 -229 -31q-103 -1 -192 19q-90 20 -156 62q-67 42 -107 106q-41 64 -48 149
q-1 9 6 16q6 7 15 7h257q10 0 18 -6q7 -6 9 -16q11 -63 64 -99q52 -35 144 -35q99 0 162 58t63 182v121q-51 -69 -128 -108q-77 -40 -175 -40q-117 0 -206 41q-90 41 -150 112t-90 168q-31 97 -31 208q0 110 32 208q32 97 92 169q59 72 146 115q86 42 193 42q98 0 175 -33
q76 -33 130 -96l-5 92q-1 9 6 16q6 7 15 7h262q9 0 16 -7t7 -16l-6 -520zM933 1485q-4 -68 -31 -126q-27 -59 -73 -101q-47 -43 -112 -67t-144 -24t-144 24t-111 67q-47 42 -74 101q-27 58 -31 126q0 8 7 15q6 7 14 7h155q10 0 18 -6q7 -6 8 -16q7 -52 47 -85
q40 -34 111 -34q66 0 109 34q42 33 49 85q1 10 9 16q7 6 17 6h155q8 0 15 -7q6 -7 6 -15z" />
    <glyph glyph-name="Gdotaccent" unicode="&#x120;" horiz-adv-x="1468" 
d="M1430 756q1 -197 -44 -345q-45 -149 -131 -246q-87 -98 -215 -147q-129 -49 -292 -49q-157 0 -288 55q-132 54 -225 152q-94 98 -146 237q-52 138 -52 304q0 169 51 308q51 138 143 235q91 97 221 151q130 53 287 53q132 0 241 -32t192 -92q83 -61 140 -149t86 -200
q1 -8 -4 -15t-13 -7h-276q-10 0 -18 6q-9 5 -12 15q-35 116 -119 178q-84 61 -215 61q-93 0 -165 -36t-120 -103t-73 -163t-25 -214q0 -116 27 -210q26 -95 76 -160t124 -100q74 -36 169 -36q152 0 244 89q91 88 98 253h-353q-9 0 -15 7q-7 6 -7 15v185q0 9 7 16q6 6 15 6
h664q9 0 16 -6q7 -7 7 -16zM604 1536q-9 0 -16 7t-7 16v231q0 9 7 16t16 7h266q9 0 16 -7t7 -16v-231q0 -9 -7 -16t-16 -7h-266z" />
    <glyph glyph-name="gdotaccent" unicode="&#x121;" horiz-adv-x="1167" 
d="M350 547q0 -170 60 -255q60 -86 170 -85q111 0 171 80q59 80 60 239q1 163 -57 252t-168 90q-116 3 -176 -80q-60 -84 -60 -241zM1104 29q1 -100 -32 -182q-33 -81 -98 -138t-163 -88q-99 -31 -229 -31q-103 -1 -192 19q-90 20 -156 62q-67 42 -107 106q-41 64 -48 149
q-1 9 6 16q6 7 15 7h257q10 0 18 -6q7 -6 9 -16q11 -63 64 -99q52 -35 144 -35q99 0 162 58t63 182v121q-51 -69 -128 -108q-77 -40 -175 -40q-117 0 -206 41q-90 41 -150 112t-90 168q-31 97 -31 208q0 110 32 208q32 97 92 169q59 72 146 115q86 42 193 42q98 0 175 -33
q76 -33 130 -96l-5 92q-1 9 6 16q6 7 15 7h262q9 0 16 -7t7 -16l-6 -520zM447 1157q-9 0 -16 7t-7 16v231q0 9 7 16t16 7h266q9 0 16 -7t7 -16v-231q0 -9 -7 -16t-16 -7h-266z" />
    <glyph glyph-name="Gcommaaccent" unicode="&#x122;" horiz-adv-x="1468" 
d="M1430 756q1 -197 -44 -345q-45 -149 -131 -246q-87 -98 -215 -147q-129 -49 -292 -49q-157 0 -288 55q-132 54 -225 152q-94 98 -146 237q-52 138 -52 304q0 169 51 308q51 138 143 235q91 97 221 151q130 53 287 53q132 0 241 -32t192 -92q83 -61 140 -149t86 -200
q1 -8 -4 -15t-13 -7h-276q-10 0 -18 6q-9 5 -12 15q-35 116 -119 178q-84 61 -215 61q-93 0 -165 -36t-120 -103t-73 -163t-25 -214q0 -116 27 -210q26 -95 76 -160t124 -100q74 -36 169 -36q152 0 244 89q91 88 98 253h-353q-9 0 -15 7q-7 6 -7 15v185q0 9 7 16q6 6 15 6
h664q9 0 16 -6q7 -7 7 -16zM597 -510q-8 0 -13 7q-6 7 -4 15l44 181v207q0 9 7 15q6 7 15 7h188q10 0 17 -7q6 -6 6 -15v-183q0 -10 -3 -22q-4 -11 -9 -19l-107 -167q-5 -8 -15 -14q-10 -5 -20 -5h-106z" />
    <glyph glyph-name="gcommaaccent" unicode="&#x123;" horiz-adv-x="1167" 
d="M350 547q0 -170 60 -255q60 -86 170 -85q111 0 171 80q59 80 60 239q1 163 -57 252t-168 90q-116 3 -176 -80q-60 -84 -60 -241zM1104 29q1 -100 -32 -182q-33 -81 -98 -138t-163 -88q-99 -31 -229 -31q-103 -1 -192 19q-90 20 -156 62q-67 42 -107 106q-41 64 -48 149
q-1 9 6 16q6 7 15 7h257q10 0 18 -6q7 -6 9 -16q11 -63 64 -99q52 -35 144 -35q99 0 162 58t63 182v121q-51 -69 -128 -108q-77 -40 -175 -40q-117 0 -206 41q-90 41 -150 112t-90 168q-31 97 -31 208q0 110 32 208q32 97 92 169q59 72 146 115q86 42 193 42q98 0 175 -33
q76 -33 130 -96l-5 92q-1 9 6 16q6 7 15 7h262q9 0 16 -7t7 -16l-6 -520zM448 1178q-9 0 -16 7q-7 6 -7 15v182q0 10 5 21q4 11 11 19l158 171q7 7 17 12t20 5h123q9 0 14 -7t4 -15l-44 -181v-207q0 -9 -7 -15q-7 -7 -16 -7h-262z" />
    <glyph glyph-name="Hcircumflex" unicode="&#x124;" horiz-adv-x="1397" 
d="M1026 0q-9 0 -15 7q-7 6 -7 16l10 626h-629l10 -626q0 -10 -6 -16q-7 -7 -16 -7h-277q-9 0 -15 7q-7 6 -7 16l12 694l-12 694q0 9 7 16q6 7 15 7h277q9 0 16 -7q6 -7 6 -16l-8 -530h625l-8 530q0 9 7 16q6 7 15 7h277q9 0 16 -7q6 -7 6 -16l-12 -694l12 -694
q0 -10 -6 -16q-7 -7 -16 -7h-277zM1030 1541q-3 -8 -12 -11q-9 -4 -17 0l-299 147l-299 -147q-8 -4 -17 0q-9 3 -12 11l-44 105q-4 9 -1 19t11 15l282 198q8 5 20 9q11 3 21 3h78q10 0 22 -3q11 -4 19 -9l282 -198q8 -5 11 -15t-1 -19z" />
    <glyph glyph-name="hcircumflex" unicode="&#x125;" horiz-adv-x="1118" 
d="M756 666q-1 95 -47 142q-46 46 -109 46q-37 0 -75 -15t-70 -44q-33 -29 -58 -72q-25 -44 -37 -100l8 -600q1 -10 -6 -16q-7 -7 -16 -7h-262q-9 0 -15 7q-7 6 -7 16l10 696l-10 692q0 9 7 16q6 7 15 7h262q9 0 16 -7t6 -16l-6 -475q54 72 135 108q81 35 185 35
q89 0 160 -27t120 -82t74 -140q25 -86 23 -201l-2 -226l8 -380q0 -10 -7 -16q-7 -7 -16 -7h-270q-9 0 -15 7q-7 6 -7 16l8 376zM541 1541q-3 -8 -12 -11q-9 -4 -17 0l-299 147l-299 -147q-8 -4 -17 0q-9 3 -12 11l-44 105q-4 9 -1 19t11 15l282 198q8 5 20 9q11 3 21 3h78
q10 0 22 -3q11 -4 19 -9l282 -198q8 -5 11 -15t-1 -19z" />
    <glyph glyph-name="Hbar" unicode="&#x126;" horiz-adv-x="1413" 
d="M1018 737l-2 232h-619l-2 -232h623zM1036 0q-9 0 -15 7q-7 6 -7 16l2 483h-619l2 -483q0 -10 -6 -16q-7 -7 -16 -7h-271q-9 0 -15 7q-7 6 -7 16l6 694l-2 252h-65q-10 0 -16 7q-7 6 -7 15v187q0 9 7 16q6 6 16 6h63l-2 211q0 9 7 16q6 7 15 7h271q9 0 16 -7q6 -7 6 -16
l-2 -211h619l-2 211q0 9 7 16q6 7 15 7h271q9 0 16 -7q6 -7 6 -16l-2 -211h64q9 0 16 -6q6 -7 6 -16v-187q0 -9 -6 -15q-7 -7 -16 -7h-66l-2 -252l6 -694q0 -10 -6 -16q-7 -7 -16 -7h-271z" />
    <glyph glyph-name="hbar" unicode="&#x127;" horiz-adv-x="1124" 
d="M389 23q0 -10 -6 -16q-7 -7 -16 -7h-263q-9 0 -15 7q-7 6 -7 16l10 696l-6 414h-68q-9 0 -15 7q-7 6 -7 15v168q0 9 7 16q6 7 15 7h65l-1 65q0 9 7 16q6 7 15 7h263q9 0 16 -7q6 -7 6 -16l-1 -65h247q9 0 16 -7q6 -7 6 -16v-168q0 -9 -6 -15q-7 -7 -16 -7h-250l-2 -197
q54 72 135 108q80 35 184 35q89 0 160 -27t120 -82t74 -140q25 -86 23 -201l-2 -226l8 -380q0 -10 -6 -16q-7 -7 -16 -7h-270q-9 0 -16 7q-7 6 -6 16l7 376l-2 267q-1 95 -46 142q-46 46 -109 46q-38 0 -76 -15t-70 -44q-33 -29 -57 -72q-25 -44 -37 -100z" />
    <glyph glyph-name="Itilde" unicode="&#x128;" horiz-adv-x="483" 
d="M106 0q-9 0 -15 7q-7 6 -7 16l12 694l-12 694q0 9 7 16q6 7 15 7h273q9 0 16 -7q6 -7 6 -16l-12 -694l12 -694q0 -10 -6 -16q-7 -7 -16 -7h-273zM573 1815q-4 -119 -53 -188q-50 -70 -149 -70q-47 0 -81 17q-35 17 -61 37q-27 20 -50 37t-48 17q-29 0 -41 -23
q-13 -24 -15 -61q-1 -10 -7 -16q-7 -6 -17 -6h-111q-8 0 -15 7t-6 15q2 56 15 104q14 47 39 81q26 34 65 54q38 19 89 19q44 0 78 -17q33 -17 60 -37t49 -37t43 -17q32 0 45 23t15 61q1 10 8 16q6 6 16 6h111q8 0 15 -7t6 -15z" />
    <glyph glyph-name="itilde" unicode="&#x129;" horiz-adv-x="451" 
d="M90 0q-9 0 -15 7q-7 6 -7 16l8 503l-8 506q0 9 7 16q6 7 15 7h270q10 0 17 -7q6 -7 6 -16l-8 -506l8 -503q0 -10 -6 -16q-7 -7 -17 -7h-270zM552 1436q-4 -119 -53 -188q-50 -70 -149 -70q-47 0 -81 17q-35 17 -61 37q-27 20 -50 37t-48 17q-29 0 -41 -23
q-13 -24 -15 -61q-1 -10 -7 -16q-7 -6 -17 -6h-111q-8 0 -15 7t-6 15q2 56 15 104q14 47 39 81q26 34 65 54q38 19 89 19q44 0 78 -17q33 -17 60 -37t49 -37t43 -17q32 0 45 23t15 61q1 10 8 16q6 6 16 6h111q8 0 15 -7t6 -15z" />
    <glyph glyph-name="Imacron" unicode="&#x12a;" horiz-adv-x="483" 
d="M106 0q-9 0 -15 7q-7 6 -7 16l12 694l-12 694q0 9 7 16q6 7 15 7h273q9 0 16 -7q6 -7 6 -16l-12 -694l12 -694q0 -10 -6 -16q-7 -7 -16 -7h-273zM-65 1557q-9 0 -16 7q-7 6 -7 15v160q0 9 7 16q7 6 16 6h624q9 0 16 -6q7 -7 7 -16v-160q0 -9 -7 -15q-7 -7 -16 -7h-624z
" />
    <glyph glyph-name="imacron" unicode="&#x12b;" horiz-adv-x="451" 
d="M90 0q-9 0 -15 7q-7 6 -7 16l8 503l-8 506q0 9 7 16q6 7 15 7h270q10 0 17 -7q6 -7 6 -16l-8 -506l8 -503q0 -10 -6 -16q-7 -7 -17 -7h-270zM-86 1178q-9 0 -16 7q-7 6 -7 15v160q0 9 7 16q7 6 16 6h624q9 0 16 -6q7 -7 7 -16v-160q0 -9 -7 -15q-7 -7 -16 -7h-624z" />
    <glyph glyph-name="Ibreve" unicode="&#x12c;" horiz-adv-x="483" 
d="M106 0q-9 0 -15 7q-7 6 -7 16l12 694l-12 694q0 9 7 16q6 7 15 7h273q9 0 16 -7q6 -7 6 -16l-12 -694l12 -694q0 -10 -6 -16q-7 -7 -16 -7h-273zM606 1864q-4 -68 -31 -126q-27 -59 -73 -101q-47 -43 -112 -67t-144 -24t-144 24t-112 67q-46 42 -73 101q-27 58 -31 126
q0 8 6 15q7 7 15 7h155q10 0 18 -6q7 -6 8 -16q7 -52 47 -85q40 -34 111 -34q66 0 109 34q42 33 49 85q1 10 9 16q7 6 17 6h155q8 0 15 -7q6 -7 6 -15z" />
    <glyph glyph-name="ibreve" unicode="&#x12d;" horiz-adv-x="451" 
d="M90 0q-9 0 -15 7q-7 6 -7 16l8 503l-8 506q0 9 7 16q6 7 15 7h270q10 0 17 -7q6 -7 6 -16l-8 -506l8 -503q0 -10 -6 -16q-7 -7 -17 -7h-270zM585 1485q-4 -68 -31 -126q-27 -59 -73 -101q-47 -43 -112 -67t-144 -24t-144 24t-112 67q-46 42 -73 101q-27 58 -31 126
q0 8 6 15q7 7 15 7h155q10 0 18 -6q7 -6 8 -16q7 -52 47 -85q40 -34 111 -34q66 0 109 34q42 33 49 85q1 10 9 16q7 6 17 6h155q8 0 15 -7q6 -7 6 -15z" />
    <glyph glyph-name="Iogonek" unicode="&#x12e;" horiz-adv-x="483" 
d="M106 0q-9 0 -15 7q-7 6 -7 16l12 694l-12 694q0 9 7 16q6 7 15 7h273q9 0 16 -7q6 -7 6 -16l-12 -694l12 -694q0 -10 -6 -16q-7 -7 -16 -7h-273zM283 -430q-70 0 -127 16q-58 16 -98 45q-41 30 -64 72q-22 42 -22 94t19 95q20 43 53 76t78 58q45 24 96 41q9 3 19 -1
t14 -11l20 -34q5 -10 4 -19t-9 -17q-20 -22 -40 -58q-21 -36 -21 -74q0 -45 31 -64q30 -18 76 -18h92q9 0 16 -7q6 -7 6 -16v-156q0 -9 -6 -16q-7 -6 -16 -6h-121z" />
    <glyph glyph-name="iogonek" unicode="&#x12f;" horiz-adv-x="451" 
d="M90 0q-9 0 -15 7q-7 6 -7 16l8 503l-8 506q0 9 7 16q6 7 15 7h270q10 0 17 -7q6 -7 6 -16l-8 -506l8 -503q0 -10 -6 -16q-7 -7 -17 -7h-270zM92 1157q-9 0 -16 7t-7 16v231q0 9 7 16t16 7h266q9 0 16 -7t7 -16v-231q0 -9 -7 -16t-16 -7h-266zM262 -430q-70 0 -127 16
q-58 16 -98 45q-41 30 -64 72q-22 42 -22 94t19 95q20 43 53 76t78 58q45 24 96 41q9 3 19 -1t14 -11l20 -34q5 -10 4 -19t-9 -17q-20 -22 -40 -58q-21 -36 -21 -74q0 -45 31 -64q30 -18 76 -18h92q9 0 16 -7q6 -7 6 -16v-156q0 -9 -6 -16q-7 -6 -16 -6h-121z" />
    <glyph glyph-name="Idotaccent" unicode="&#x130;" horiz-adv-x="483" 
d="M106 0q-9 0 -15 7q-7 6 -7 16l12 694l-12 694q0 9 7 16q6 7 15 7h273q9 0 16 -7q6 -7 6 -16l-12 -694l12 -694q0 -10 -6 -16q-7 -7 -16 -7h-273zM109 1536q-9 0 -16 7t-7 16v231q0 9 7 16t16 7h266q9 0 16 -7t7 -16v-231q0 -9 -7 -16t-16 -7h-266z" />
    <glyph glyph-name="dotlessi" unicode="&#x131;" horiz-adv-x="451" 
d="M90 0q-9 0 -15 7q-7 6 -7 16l8 503l-8 506q0 9 7 16q6 7 15 7h270q10 0 17 -7q6 -7 6 -16l-8 -506l8 -503q0 -10 -6 -16q-7 -7 -17 -7h-270z" />
    <glyph glyph-name="IJ" unicode="&#x132;" horiz-adv-x="1559" 
d="M106 0q-9 0 -15 7q-7 6 -7 16l12 694l-12 694q0 9 7 16q6 7 15 7h273q9 0 16 -7q6 -7 6 -16l-12 -694l12 -694q0 -10 -6 -16q-7 -7 -16 -7h-273zM1492 512q3 -272 -126 -407q-129 -136 -374 -136q-119 0 -210 37t-152 105t-92 165q-32 97 -35 216q-1 8 6 15t16 7h258
q9 0 16 -6q7 -7 7 -16q3 -135 46 -207t142 -72q102 0 143 74q40 73 41 227l4 375l-9 522q-1 9 6 16t16 7h282q9 0 16 -7t6 -16l-9 -522z" />
    <glyph glyph-name="ij" unicode="&#x133;" horiz-adv-x="901" 
d="M90 0q-9 0 -15 7q-7 6 -7 16l8 503l-8 506q0 9 7 16q6 7 15 7h270q10 0 17 -7q6 -7 6 -16l-8 -506l8 -503q0 -10 -6 -16q-7 -7 -17 -7h-270zM92 1157q-9 0 -16 7t-7 16v231q0 9 7 16t16 7h266q9 0 16 -7t7 -16v-231q0 -9 -7 -16t-16 -7h-266zM541 -348q-9 0 -15 6
q-7 7 -7 16l8 688l-8 670q0 9 7 16q6 7 15 7h270q10 0 17 -7q6 -7 6 -16l-8 -670l8 -688q0 -9 -6 -16q-7 -6 -17 -6h-270zM543 1157q-9 0 -16 7t-7 16v231q0 9 7 16t16 7h266q9 0 16 -7t7 -16v-231q0 -9 -7 -16t-16 -7h-266z" />
    <glyph glyph-name="Jcircumflex" unicode="&#x134;" horiz-adv-x="1075" 
d="M1009 512q3 -272 -126 -407q-129 -136 -374 -136q-119 0 -210 37t-152 105t-92 165q-32 97 -35 216q-1 8 6 15t16 7h258q9 0 16 -6q7 -7 7 -16q3 -135 46 -207t142 -72q102 0 143 74q40 73 41 227l4 375l-9 522q-1 9 6 16t16 7h282q9 0 16 -7t6 -16l-9 -522zM1159 1541
q-3 -8 -12 -11q-9 -4 -17 0l-299 147l-299 -147q-8 -4 -17 0q-9 3 -12 11l-44 105q-4 9 -1 19t11 15l282 198q8 5 20 9q11 3 21 3h78q10 0 22 -3q11 -4 19 -9l282 -198q8 -5 11 -15t-1 -19z" />
    <glyph glyph-name="jcircumflex" unicode="&#x135;" horiz-adv-x="451" 
d="M90 -348q-9 0 -15 6q-7 7 -7 16l8 688l-8 670q0 9 7 16q6 7 15 7h270q10 0 17 -7q6 -7 6 -16l-8 -670l8 -688q0 -9 -6 -16q-7 -6 -17 -6h-270zM553 1162q-3 -8 -12 -11q-9 -4 -17 0l-299 147l-299 -147q-8 -4 -17 0q-9 3 -12 11l-44 105q-4 9 -1 19t11 15l282 198
q8 5 20 9q11 3 21 3h78q10 0 22 -3q11 -4 19 -9l282 -198q8 -5 11 -15t-1 -19z" />
    <glyph glyph-name="Kcommaaccent" unicode="&#x136;" horiz-adv-x="1274" 
d="M735 260l-229 346l-121 -149l6 -434q0 -10 -6 -16q-7 -7 -16 -7h-273q-9 0 -15 7q-7 6 -7 16l10 694l-10 694q0 9 7 16q6 7 15 7h273q9 0 16 -7q6 -7 6 -16l-6 -577l417 581q6 8 16 14q10 5 20 5h323q7 0 10 -6q2 -7 -2 -12l-462 -566l575 -831q4 -6 1 -12q-4 -7 -11 -7
h-340q-10 0 -20 5t-15 14zM534 -510q-8 0 -13 7q-6 7 -4 15l44 181v207q0 9 7 15q6 7 15 7h188q10 0 17 -7q6 -6 6 -15v-183q0 -10 -3 -22q-4 -11 -9 -19l-107 -167q-5 -8 -15 -14q-10 -5 -20 -5h-106z" />
    <glyph glyph-name="kcommaaccent" unicode="&#x137;" horiz-adv-x="1042" 
d="M594 221l-131 234l-101 -125l4 -307q0 -10 -6 -16q-7 -7 -16 -7h-262q-9 0 -15 7q-7 6 -7 16l10 694l-10 694q0 9 7 16q6 7 15 7h262q9 0 16 -7q6 -7 6 -16l-8 -688v-61l304 375q6 8 16 13t20 5h293q7 0 10 -6q2 -6 -2 -11l-323 -362l378 -656q4 -7 0 -13q-4 -7 -12 -7
h-311q-10 0 -19 6q-10 5 -14 14zM407 -510q-8 0 -13 7q-6 7 -4 15l44 181v207q0 9 7 15q6 7 15 7h188q10 0 17 -7q6 -6 6 -15v-183q0 -10 -3 -22q-4 -11 -9 -19l-107 -167q-5 -8 -15 -14q-10 -5 -20 -5h-106z" />
    <glyph glyph-name="Lacute" unicode="&#x139;" horiz-adv-x="997" 
d="M96 0q-9 0 -15 7q-7 6 -7 16l12 694l-12 694q0 9 7 16q6 7 15 7h275q9 0 16 -7q6 -7 6 -16l-10 -676l10 -504h576q9 0 16 -6q6 -7 6 -16v-186q0 -10 -6 -16q-7 -7 -16 -7h-873zM62 1526q-9 -3 -17 2q-9 4 -13 13l-42 101q-4 8 0 17t12 13l481 209q7 4 16 0t11 -12
l60 -184q3 -9 -1 -17q-5 -9 -14 -11z" />
    <glyph glyph-name="lacute" unicode="&#x13a;" horiz-adv-x="446" 
d="M92 0q-9 0 -15 7q-7 6 -7 16l10 694l-10 694q0 9 7 16q6 7 15 7h262q9 0 16 -7t7 -16l-10 -694l10 -694q0 -10 -7 -16q-7 -7 -16 -7h-262zM78 1526q-9 -3 -17 2q-9 4 -13 13l-42 101q-4 8 0 17t12 13l481 209q7 4 16 0t11 -12l60 -184q3 -9 -1 -17q-5 -9 -14 -11z" />
    <glyph glyph-name="Lcommaaccent" unicode="&#x13b;" horiz-adv-x="997" 
d="M96 0q-9 0 -15 7q-7 6 -7 16l12 694l-12 694q0 9 7 16q6 7 15 7h275q9 0 16 -7q6 -7 6 -16l-10 -676l10 -504h576q9 0 16 -6q6 -7 6 -16v-186q0 -10 -6 -16q-7 -7 -16 -7h-873zM403 -510q-8 0 -13 7q-6 7 -4 15l44 181v207q0 9 7 15q6 7 15 7h188q10 0 17 -7q6 -6 6 -15
v-183q0 -10 -3 -22q-4 -11 -9 -19l-107 -167q-5 -8 -15 -14q-10 -5 -20 -5h-106z" />
    <glyph glyph-name="lcommaaccent" unicode="&#x13c;" horiz-adv-x="446" 
d="M92 0q-9 0 -15 7q-7 6 -7 16l10 694l-10 694q0 9 7 16q6 7 15 7h262q9 0 16 -7t7 -16l-10 -694l10 -694q0 -10 -7 -16q-7 -7 -16 -7h-262zM87 -510q-8 0 -13 7q-6 7 -4 15l44 181v207q0 9 7 15q6 7 15 7h188q10 0 17 -7q6 -6 6 -15v-183q0 -10 -3 -22q-4 -11 -9 -19
l-107 -167q-5 -8 -15 -14q-10 -5 -20 -5h-106z" />
    <glyph glyph-name="Lcaron" unicode="&#x13d;" horiz-adv-x="997" 
d="M96 0q-9 0 -15 7q-7 6 -7 16l12 694l-12 694q0 9 7 16q6 7 15 7h275q9 0 16 -7q6 -7 6 -16l-10 -676l10 -504h576q9 0 16 -6q6 -7 6 -16v-186q0 -10 -6 -16q-7 -7 -16 -7h-873zM879 970q-2 -9 -10 -15q-8 -7 -17 -7h-150q-9 0 -15 7t-5 16l54 436q1 10 9 17q7 6 16 6h205
q9 0 14 -7t4 -15z" />
    <glyph glyph-name="lcaron" unicode="&#x13e;" horiz-adv-x="446" 
d="M92 0q-9 0 -15 7q-7 6 -7 16l10 694l-10 694q0 9 7 16q6 7 15 7h262q9 0 16 -7t7 -16l-10 -694l10 -694q0 -10 -7 -16q-7 -7 -16 -7h-262zM638 1070q-2 -9 -10 -15q-8 -7 -17 -7h-150q-9 0 -15 7t-5 16l54 436q1 10 9 17q7 6 16 6h205q9 0 14 -7t4 -15z" />
    <glyph glyph-name="Ldot" unicode="&#x13f;" horiz-adv-x="997" 
d="M96 0q-9 0 -15 7q-7 6 -7 16l12 694l-12 694q0 9 7 16q6 7 15 7h275q9 0 16 -7q6 -7 6 -16l-10 -676l10 -504h576q9 0 16 -6q6 -7 6 -16v-186q0 -10 -6 -16q-7 -7 -16 -7h-873zM635 661q-9 0 -16 7t-7 16v231q0 9 7 16t16 7h266q9 0 16 -7t7 -16v-231q0 -9 -7 -16t-16 -7
h-266z" />
    <glyph glyph-name="ldot" unicode="&#x140;" horiz-adv-x="750" 
d="M92 0q-9 0 -15 7q-7 6 -7 16l10 694l-10 694q0 9 7 16q6 7 15 7h262q9 0 16 -7t7 -16l-10 -694l10 -694q0 -10 -7 -16q-7 -7 -16 -7h-262zM461 512q-9 0 -16 7t-7 16v231q0 9 7 16t16 7h266q9 0 16 -7t7 -16v-231q0 -9 -7 -16t-16 -7h-266z" />
    <glyph glyph-name="Lslash" unicode="&#x141;" horiz-adv-x="1016" 
d="M133 0q-9 0 -15 7q-7 6 -7 16l9 512l-92 -30q-8 -3 -15 2t-7 13v187q0 10 6 18t16 11l94 31l-11 644q0 9 7 16q6 7 15 7h275q9 0 16 -7q6 -7 6 -16l-8 -547l257 83q8 3 15 -2q6 -5 6 -13v-187q0 -10 -6 -18t-15 -11l-257 -83l8 -402h576q9 0 16 -6q6 -7 6 -16v-186
q0 -10 -6 -16q-7 -7 -16 -7h-873z" />
    <glyph glyph-name="lslash" unicode="&#x142;" horiz-adv-x="508" 
d="M123 0q-9 0 -15 7q-7 6 -7 16l5 347l-49 -26q-7 -4 -13 1q-7 4 -7 11v187q0 10 6 19q5 9 14 14l52 27l2 114l-10 694q0 9 7 16q6 7 15 7h262q9 0 16 -7q6 -7 6 -16l-9 -658l53 27q7 4 14 0q6 -4 6 -12v-186q0 -10 -5 -19q-6 -10 -15 -14l-51 -27l7 -499q0 -10 -6 -16
q-7 -7 -16 -7h-262z" />
    <glyph glyph-name="Nacute" unicode="&#x143;" horiz-adv-x="1391" 
d="M367 582v-559q0 -10 -7 -16q-7 -7 -16 -7h-248q-9 0 -15 7q-7 6 -7 16l10 694l-10 694q0 9 7 16q6 7 15 7h334q10 0 20 -5q9 -6 14 -15l572 -1011v17l-12 362v629q0 9 7 16q6 7 16 7h249q9 0 16 -7t7 -16l-10 -694l10 -694q0 -10 -7 -16q-7 -7 -16 -7h-348q-10 0 -19 6
q-10 5 -14 14l-561 1002l2 -68zM526 1526q-9 -3 -17 2q-9 4 -13 13l-42 101q-4 8 0 17t12 13l481 209q7 4 16 0t11 -12l60 -184q3 -9 -1 -17q-5 -9 -14 -11z" />
    <glyph glyph-name="nacute" unicode="&#x144;" horiz-adv-x="1122" 
d="M84 0q-9 0 -15 7q-7 6 -7 16l8 483l-4 526q0 9 7 16q6 7 15 7h252q9 0 16 -7q6 -7 5 -16l-5 -110q54 69 142 113t198 44q84 0 152 -28t116 -80q47 -52 73 -128q26 -77 26 -173v-221l6 -426q0 -10 -6 -16q-7 -7 -16 -7h-267q-9 0 -15 7q-7 6 -7 16l6 426v217q0 85 -46 137
q-47 51 -116 51q-41 0 -82 -19q-41 -20 -73 -60q-33 -40 -53 -102q-21 -63 -21 -147v-77l4 -426q0 -10 -7 -16q-7 -7 -16 -7h-270zM389 1147q-9 -3 -17 2q-9 4 -13 13l-42 101q-4 8 0 17t12 13l481 209q7 4 16 0t11 -12l60 -184q3 -9 -1 -17q-5 -9 -14 -11z" />
    <glyph glyph-name="Ncommaaccent" unicode="&#x145;" horiz-adv-x="1391" 
d="M367 582v-559q0 -10 -7 -16q-7 -7 -16 -7h-248q-9 0 -15 7q-7 6 -7 16l10 694l-10 694q0 9 7 16q6 7 15 7h334q10 0 20 -5q9 -6 14 -15l572 -1011v17l-12 362v629q0 9 7 16q6 7 16 7h249q9 0 16 -7t7 -16l-10 -694l10 -694q0 -10 -7 -16q-7 -7 -16 -7h-348q-10 0 -19 6
q-10 5 -14 14l-561 1002l2 -68zM566 -510q-8 0 -13 7q-6 7 -4 15l44 181v207q0 9 7 15q6 7 15 7h188q10 0 17 -7q6 -6 6 -15v-183q0 -10 -3 -22q-4 -11 -9 -19l-107 -167q-5 -8 -15 -14q-10 -5 -20 -5h-106z" />
    <glyph glyph-name="ncommaaccent" unicode="&#x146;" horiz-adv-x="1122" 
d="M84 0q-9 0 -15 7q-7 6 -7 16l8 483l-4 526q0 9 7 16q6 7 15 7h252q9 0 16 -7q6 -7 5 -16l-5 -110q54 69 142 113t198 44q84 0 152 -28t116 -80q47 -52 73 -128q26 -77 26 -173v-221l6 -426q0 -10 -6 -16q-7 -7 -16 -7h-267q-9 0 -15 7q-7 6 -7 16l6 426v217q0 85 -46 137
q-47 51 -116 51q-41 0 -82 -19q-41 -20 -73 -60q-33 -40 -53 -102q-21 -63 -21 -147v-77l4 -426q0 -10 -7 -16q-7 -7 -16 -7h-270zM429 -510q-8 0 -13 7q-6 7 -4 15l44 181v207q0 9 7 15q6 7 15 7h188q10 0 17 -7q6 -6 6 -15v-183q0 -10 -3 -22q-4 -11 -9 -19l-107 -167
q-5 -8 -15 -14q-10 -5 -20 -5h-106z" />
    <glyph glyph-name="Ncaron" unicode="&#x147;" horiz-adv-x="1391" 
d="M367 582v-559q0 -10 -7 -16q-7 -7 -16 -7h-248q-9 0 -15 7q-7 6 -7 16l10 694l-10 694q0 9 7 16q6 7 15 7h334q10 0 20 -5q9 -6 14 -15l572 -1011v17l-12 362v629q0 9 7 16q6 7 16 7h249q9 0 16 -7t7 -16l-10 -694l10 -694q0 -10 -7 -16q-7 -7 -16 -7h-348q-10 0 -19 6
q-10 5 -14 14l-561 1002l2 -68zM780 1553q-8 -6 -19 -9q-12 -4 -22 -4h-78q-10 0 -21 4q-12 3 -20 9l-282 198q-8 5 -11 15q-3 9 1 18l44 106q3 8 12 12q9 3 17 -1l299 -148l299 148q8 4 17 1q9 -4 12 -12l44 -106q4 -9 1 -18q-3 -10 -11 -15z" />
    <glyph glyph-name="ncaron" unicode="&#x148;" horiz-adv-x="1122" 
d="M84 0q-9 0 -15 7q-7 6 -7 16l8 483l-4 526q0 9 7 16q6 7 15 7h252q9 0 16 -7q6 -7 5 -16l-5 -110q54 69 142 113t198 44q84 0 152 -28t116 -80q47 -52 73 -128q26 -77 26 -173v-221l6 -426q0 -10 -6 -16q-7 -7 -16 -7h-267q-9 0 -15 7q-7 6 -7 16l6 426v217q0 85 -46 137
q-47 51 -116 51q-41 0 -82 -19q-41 -20 -73 -60q-33 -40 -53 -102q-21 -63 -21 -147v-77l4 -426q0 -10 -7 -16q-7 -7 -16 -7h-270zM643 1174q-8 -6 -19 -9q-12 -4 -22 -4h-78q-10 0 -21 4q-12 3 -20 9l-282 198q-8 5 -11 15q-3 9 1 18l44 106q3 8 12 12q9 3 17 -1l299 -148
l299 148q8 4 17 1q9 -4 12 -12l44 -106q4 -9 1 -18q-3 -10 -11 -15z" />
    <glyph glyph-name="Eng" unicode="&#x14a;" horiz-adv-x="1366" 
d="M1303 -41q0 -90 -28 -153q-29 -63 -75 -102q-47 -39 -107 -57q-61 -18 -124 -18q-46 0 -97 6t-90 11q-9 1 -15 9q-7 8 -7 17v170q0 8 7 13q6 6 15 4q22 -5 51 -8q28 -3 64 -3q51 0 83 30t32 110v16l-668 1043v-66l10 -297v-661q0 -10 -6 -16q-7 -7 -16 -7h-246
q-9 0 -15 7q-7 6 -7 16l4 694l-4 694q0 9 7 16q6 7 15 7h332q10 0 20 -5q9 -6 14 -14l566 -883l-6 148v731q0 9 7 16q6 7 15 7h246q9 0 16 -7q6 -7 6 -16l-4 -569z" />
    <glyph glyph-name="eng" unicode="&#x14b;" horiz-adv-x="1108" 
d="M1059 -39q0 -90 -29 -153q-30 -63 -78 -102t-110 -57q-63 -18 -129 -18q-46 0 -97 6t-90 11q-9 1 -15 9q-7 8 -7 17v170q0 8 7 13q6 6 15 4q22 -5 51 -8q28 -3 64 -3q51 0 83 30t32 110v676q0 85 -45 137q-46 51 -115 51q-41 0 -82 -19q-42 -20 -74 -60t-52 -102
q-21 -63 -21 -147v-77l3 -426q1 -10 -6 -16q-7 -7 -16 -7h-270q-9 0 -16 7q-7 6 -7 16l4 483v526q0 9 7 16t16 7h252q9 0 16 -7q6 -7 5 -16l-5 -110q54 69 142 113t198 44q83 0 152 -28q68 -28 116 -80t75 -128q26 -77 26 -173v-709z" />
    <glyph glyph-name="Omacron" unicode="&#x14c;" horiz-adv-x="1522" 
d="M1485 713q0 -164 -52 -301q-52 -138 -146 -235q-95 -98 -229 -153q-135 -55 -298 -55t-297 55q-135 55 -229 153q-94 97 -145 235q-52 137 -52 301q0 170 51 310q51 139 145 237q94 97 228 151q134 53 299 53q163 0 297 -52q134 -53 229 -150t147 -236q52 -140 52 -313z
M358 713q0 -116 27 -210t79 -159q51 -65 127 -100q75 -35 171 -35t172 35q75 35 126 100q50 64 77 158q26 94 26 211t-26 212q-27 95 -77 162q-51 66 -126 102q-76 36 -174 36t-173 -35q-76 -36 -126 -101q-51 -66 -77 -161q-26 -96 -26 -215zM441 1557q-9 0 -16 7
q-7 6 -7 15v160q0 9 7 16q7 6 16 6h624q9 0 16 -6q7 -7 7 -16v-160q0 -9 -7 -15q-7 -7 -16 -7h-624z" />
    <glyph glyph-name="omacron" unicode="&#x14d;" horiz-adv-x="1153" 
d="M1118 530q0 -125 -36 -228t-104 -176t-169 -113t-229 -40t-229 39q-102 39 -171 111q-70 71 -106 174q-37 102 -37 227t37 229q36 103 106 176q69 72 171 112q101 40 229 40t229 -39t169 -110q68 -72 104 -174q36 -103 36 -228zM350 522q0 -177 58 -260q57 -84 172 -84
q113 0 168 83t55 263q0 178 -56 266q-56 87 -169 87q-116 -2 -172 -89q-56 -88 -56 -266zM267 1178q-9 0 -16 7q-7 6 -7 15v160q0 9 7 16q7 6 16 6h624q9 0 16 -6q7 -7 7 -16v-160q0 -9 -7 -15q-7 -7 -16 -7h-624z" />
    <glyph glyph-name="Obreve" unicode="&#x14e;" horiz-adv-x="1522" 
d="M1485 713q0 -164 -52 -301q-52 -138 -146 -235q-95 -98 -229 -153q-135 -55 -298 -55t-297 55q-135 55 -229 153q-94 97 -145 235q-52 137 -52 301q0 170 51 310q51 139 145 237q94 97 228 151q134 53 299 53q163 0 297 -52q134 -53 229 -150t147 -236q52 -140 52 -313z
M358 713q0 -116 27 -210t79 -159q51 -65 127 -100q75 -35 171 -35t172 35q75 35 126 100q50 64 77 158q26 94 26 211t-26 212q-27 95 -77 162q-51 66 -126 102q-76 36 -174 36t-173 -35q-76 -36 -126 -101q-51 -66 -77 -161q-26 -96 -26 -215zM1114 1864q-4 -68 -31 -126
q-27 -59 -73 -101q-47 -43 -112 -67t-144 -24t-144 24t-111 67q-47 42 -74 101q-27 58 -31 126q0 8 7 15q6 7 14 7h155q10 0 18 -6q7 -6 8 -16q7 -52 47 -85q40 -34 111 -34q66 0 109 34q42 33 49 85q1 10 9 16q7 6 17 6h155q8 0 15 -7q6 -7 6 -15z" />
    <glyph glyph-name="obreve" unicode="&#x14f;" horiz-adv-x="1153" 
d="M1118 530q0 -125 -36 -228t-104 -176t-169 -113t-229 -40t-229 39q-102 39 -171 111q-70 71 -106 174q-37 102 -37 227t37 229q36 103 106 176q69 72 171 112q101 40 229 40t229 -39t169 -110q68 -72 104 -174q36 -103 36 -228zM350 522q0 -177 58 -260q57 -84 172 -84
q113 0 168 83t55 263q0 178 -56 266q-56 87 -169 87q-116 -2 -172 -89q-56 -88 -56 -266zM938 1485q-4 -68 -31 -126q-27 -59 -73 -101q-47 -43 -112 -67t-144 -24t-144 24t-111 67q-47 42 -74 101q-27 58 -31 126q0 8 7 15q6 7 14 7h155q10 0 18 -6q7 -6 8 -16
q7 -52 47 -85q40 -34 111 -34q66 0 109 34q42 33 49 85q1 10 9 16q7 6 17 6h155q8 0 15 -7q6 -7 6 -15z" />
    <glyph glyph-name="Ohungarumlaut" unicode="&#x150;" horiz-adv-x="1522" 
d="M1485 713q0 -164 -52 -301q-52 -138 -146 -235q-95 -98 -229 -153q-135 -55 -298 -55t-297 55q-135 55 -229 153q-94 97 -145 235q-52 137 -52 301q0 170 51 310q51 139 145 237q94 97 228 151q134 53 299 53q163 0 297 -52q134 -53 229 -150t147 -236q52 -140 52 -313z
M358 713q0 -116 27 -210t79 -159q51 -65 127 -100q75 -35 171 -35t172 35q75 35 126 100q50 64 77 158q26 94 26 211t-26 212q-27 95 -77 162q-51 66 -126 102q-76 36 -174 36t-173 -35q-76 -36 -126 -101q-51 -66 -77 -161q-26 -96 -26 -215zM573 1556q-7 -6 -16 -6
q-10 -1 -17 5l-70 59q-7 6 -8 16t4 17l238 352q5 7 14 8t15 -5l124 -120q6 -7 7 -16q0 -10 -7 -16zM942 1546q-7 -7 -16 -7q-10 -1 -17 5l-70 58q-7 6 -8 16q-2 9 3 17l239 351q5 7 14 8t15 -4l123 -119q7 -6 7 -15q0 -10 -6 -17z" />
    <glyph glyph-name="ohungarumlaut" unicode="&#x151;" horiz-adv-x="1153" 
d="M1118 530q0 -125 -36 -228t-104 -176t-169 -113t-229 -40t-229 39q-102 39 -171 111q-70 71 -106 174q-37 102 -37 227t37 229q36 103 106 176q69 72 171 112q101 40 229 40t229 -39t169 -110q68 -72 104 -174q36 -103 36 -228zM350 522q0 -177 58 -260q57 -84 172 -84
q113 0 168 83t55 263q0 178 -56 266q-56 87 -169 87q-116 -2 -172 -89q-56 -88 -56 -266zM388 1177q-7 -6 -16 -6q-10 -1 -17 5l-70 59q-7 6 -8 16t4 17l238 352q5 7 14 8t15 -5l124 -120q6 -7 7 -16q0 -10 -7 -16zM757 1167q-7 -7 -16 -7q-10 -1 -17 5l-70 58q-7 6 -8 16
q-2 9 3 17l239 351q5 7 14 8t15 -4l123 -119q7 -6 7 -15q0 -10 -6 -17z" />
    <glyph glyph-name="OE" unicode="&#x152;" horiz-adv-x="2056" 
d="M793 0q-151 0 -288 39q-138 39 -241 124q-104 85 -165 220q-62 134 -62 324q0 188 61 326t165 227q103 88 242 131q138 43 292 43h1190q9 0 16 -7q6 -7 6 -16v-186q0 -9 -6 -16q-7 -7 -16 -7h-666l-4 -330h610q9 0 16 -6q7 -7 7 -16v-186q0 -10 -7 -16q-7 -7 -16 -7h-610
l4 -410h682q9 0 16 -6q6 -7 6 -16v-186q0 -10 -6 -16q-7 -7 -16 -7h-1210zM358 709q0 -127 33 -218t90 -148q56 -58 133 -85q76 -27 162 -27h230q0 1 2 48q1 46 4 118l2 320l-2 325q-3 71 -4 115q-2 44 -2 45h-222q-90 0 -168 -29q-78 -30 -135 -90t-90 -153
q-33 -94 -33 -221z" />
    <glyph glyph-name="oe" unicode="&#x153;" horiz-adv-x="1921" 
d="M1838 356q8 0 14 -7t5 -15q-10 -72 -47 -137q-38 -66 -100 -115q-62 -50 -147 -79q-86 -30 -191 -30q-140 0 -243 54t-166 149q-63 -96 -166 -149q-103 -54 -240 -54q-124 0 -221 39q-98 39 -164 111q-67 71 -102 174q-35 102 -35 227t35 229q35 103 102 176
q66 72 164 112q97 40 221 40q139 0 242 -53t166 -149q63 96 166 149q102 53 235 53q124 0 221 -41q97 -42 163 -118q66 -77 102 -187q35 -111 38 -248q0 -8 -6 -15q-7 -7 -16 -7h-750q9 -149 69 -218q59 -69 169 -69q76 0 129 37q53 36 75 119q2 10 10 16t18 6h250z
M1559 659q-5 42 -19 82q-15 40 -40 71q-26 30 -64 49q-38 18 -88 18q-92 0 -147 -55q-56 -56 -75 -165h433zM348 522q0 -177 58 -260q57 -84 172 -84q113 0 168 83t55 263q0 178 -56 266q-57 87 -170 87q-116 -2 -171 -89q-56 -88 -56 -266z" />
    <glyph glyph-name="Racute" unicode="&#x154;" horiz-adv-x="1288" 
d="M938 977q0 116 -66 173q-67 56 -186 56h-297l-6 -446h311q49 0 94 12q44 12 77 38t53 68q20 41 20 99zM731 319l-141 213h-205l8 -509q0 -10 -6 -16q-7 -7 -16 -7h-275q-9 0 -15 7q-7 6 -7 16l10 694l-10 694q0 9 7 16q6 7 15 7h578q134 0 240 -28q105 -29 177 -85
q72 -57 110 -141q38 -85 38 -197q0 -157 -84 -264q-84 -108 -235 -154l354 -546q4 -6 1 -12q-4 -7 -11 -7h-318q-10 0 -19 6q-10 5 -15 13zM490 1526q-9 -3 -17 2q-9 4 -13 13l-42 101q-4 8 0 17t12 13l481 209q7 4 16 0t11 -12l60 -184q3 -9 -1 -17q-5 -9 -14 -11z" />
    <glyph glyph-name="racute" unicode="&#x155;" horiz-adv-x="813" 
d="M82 0q-9 0 -15 7q-7 6 -7 16l8 505l-8 504q0 9 7 16q6 7 15 7h262q9 0 16 -7q6 -7 6 -16l-8 -155q61 93 162 140q101 46 215 46q11 0 23 -1q11 -2 21 -3q8 -1 15 -9t7 -17v-182q0 -10 -6 -16q-7 -6 -17 -5q-8 1 -17 1h-18q-81 0 -150 -22q-69 -23 -119 -68t-78 -113
q-29 -69 -29 -159l2 -446q0 -10 -7 -16q-7 -7 -16 -7h-264zM256 1147q-9 -3 -17 2q-9 4 -13 13l-42 101q-4 8 0 17t12 13l481 209q7 4 16 0t11 -12l60 -184q3 -9 -1 -17q-5 -9 -14 -11z" />
    <glyph glyph-name="Rcommaaccent" unicode="&#x156;" horiz-adv-x="1288" 
d="M938 977q0 116 -66 173q-67 56 -186 56h-297l-6 -446h311q49 0 94 12q44 12 77 38t53 68q20 41 20 99zM731 319l-141 213h-205l8 -509q0 -10 -6 -16q-7 -7 -16 -7h-275q-9 0 -15 7q-7 6 -7 16l10 694l-10 694q0 9 7 16q6 7 15 7h578q134 0 240 -28q105 -29 177 -85
q72 -57 110 -141q38 -85 38 -197q0 -157 -84 -264q-84 -108 -235 -154l354 -546q4 -6 1 -12q-4 -7 -11 -7h-318q-10 0 -19 6q-10 5 -15 13zM525 -510q-8 0 -13 7q-6 7 -4 15l44 181v207q0 9 7 15q6 7 15 7h188q10 0 17 -7q6 -6 6 -15v-183q0 -10 -3 -22q-4 -11 -9 -19
l-107 -167q-5 -8 -15 -14q-10 -5 -20 -5h-106z" />
    <glyph glyph-name="rcommaaccent" unicode="&#x157;" horiz-adv-x="813" 
d="M82 0q-9 0 -15 7q-7 6 -7 16l8 505l-8 504q0 9 7 16q6 7 15 7h262q9 0 16 -7q6 -7 6 -16l-8 -155q61 93 162 140q101 46 215 46q11 0 23 -1q11 -2 21 -3q8 -1 15 -9t7 -17v-182q0 -10 -6 -16q-7 -6 -17 -5q-8 1 -17 1h-18q-81 0 -150 -22q-69 -23 -119 -68t-78 -113
q-29 -69 -29 -159l2 -446q0 -10 -7 -16q-7 -7 -16 -7h-264zM77 -510q-8 0 -13 7q-6 7 -4 15l44 181v207q0 9 7 15q6 7 15 7h188q10 0 17 -7q6 -6 6 -15v-183q0 -10 -3 -22q-4 -11 -9 -19l-107 -167q-5 -8 -15 -14q-10 -5 -20 -5h-106z" />
    <glyph glyph-name="Rcaron" unicode="&#x158;" horiz-adv-x="1288" 
d="M938 977q0 116 -66 173q-67 56 -186 56h-297l-6 -446h311q49 0 94 12q44 12 77 38t53 68q20 41 20 99zM731 319l-141 213h-205l8 -509q0 -10 -6 -16q-7 -7 -16 -7h-275q-9 0 -15 7q-7 6 -7 16l10 694l-10 694q0 9 7 16q6 7 15 7h578q134 0 240 -28q105 -29 177 -85
q72 -57 110 -141q38 -85 38 -197q0 -157 -84 -264q-84 -108 -235 -154l354 -546q4 -6 1 -12q-4 -7 -11 -7h-318q-10 0 -19 6q-10 5 -15 13zM733 1553q-8 -6 -19 -9q-12 -4 -22 -4h-78q-10 0 -21 4q-12 3 -20 9l-282 198q-8 5 -11 15q-3 9 1 18l44 106q3 8 12 12q9 3 17 -1
l299 -148l299 148q8 4 17 1q9 -4 12 -12l44 -106q4 -9 1 -18q-3 -10 -11 -15z" />
    <glyph glyph-name="rcaron" unicode="&#x159;" horiz-adv-x="813" 
d="M82 0q-9 0 -15 7q-7 6 -7 16l8 505l-8 504q0 9 7 16q6 7 15 7h262q9 0 16 -7q6 -7 6 -16l-8 -155q61 93 162 140q101 46 215 46q11 0 23 -1q11 -2 21 -3q8 -1 15 -9t7 -17v-182q0 -10 -6 -16q-7 -6 -17 -5q-8 1 -17 1h-18q-81 0 -150 -22q-69 -23 -119 -68t-78 -113
q-29 -69 -29 -159l2 -446q0 -10 -7 -16q-7 -7 -16 -7h-264zM510 1174q-8 -6 -19 -9q-12 -4 -22 -4h-78q-10 0 -21 4q-12 3 -20 9l-282 198q-8 5 -11 15q-3 9 1 18l44 106q3 8 12 12q9 3 17 -1l299 -148l299 148q8 4 17 1q9 -4 12 -12l44 -106q4 -9 1 -18q-3 -10 -11 -15z
" />
    <glyph glyph-name="Sacute" unicode="&#x15a;" horiz-adv-x="1307" 
d="M1282 434q0 -113 -42 -200q-43 -88 -121 -147q-79 -59 -192 -90q-113 -30 -253 -30t-257 30q-118 30 -202 91q-85 60 -134 154q-50 93 -56 219q0 9 7 16q6 6 15 6h280q10 0 18 -6q7 -6 8 -16q7 -59 27 -107q19 -48 57 -82q37 -34 97 -52q59 -19 146 -19q139 0 214 45
q75 44 75 145q0 121 -143 156q-144 35 -315 71q-171 35 -314 117q-144 81 -144 293q0 100 39 181q38 81 112 138q73 56 181 87q107 30 244 30q125 0 230 -25t183 -77q78 -53 129 -135q50 -82 67 -195q1 -8 -5 -15t-14 -7h-282q-10 0 -17 6q-8 6 -9 16q-13 95 -89 146
q-77 51 -206 51q-55 0 -101 -10q-47 -10 -81 -30q-34 -21 -53 -53q-19 -33 -19 -77q0 -114 144 -146q144 -33 316 -68q172 -36 316 -117q144 -82 144 -294zM465 1526q-9 -3 -17 2q-9 4 -13 13l-42 101q-4 8 0 17t12 13l481 209q7 4 16 0t11 -12l60 -184q3 -9 -1 -17
q-5 -9 -14 -11z" />
    <glyph glyph-name="sacute" unicode="&#x15b;" horiz-adv-x="1077" 
d="M1042 322q0 -83 -37 -148t-102 -109t-155 -67t-195 -23q-112 0 -205 23q-94 23 -161 68q-68 45 -107 112q-40 67 -45 154q0 8 7 15q6 7 15 7h253q10 0 17 -6t8 -16q6 -86 64 -126t164 -40q90 0 139 34q48 34 48 95q0 75 -108 93q-109 17 -237 41q-129 23 -237 86
q-109 63 -109 228q0 82 32 145t92 106q60 42 146 64q85 21 191 21q103 0 189 -20q85 -21 148 -61q62 -41 100 -103q37 -62 45 -143q1 -9 -5 -16q-7 -7 -16 -7h-241q-10 0 -17 6q-8 6 -10 16q-13 66 -59 104t-138 38q-75 0 -119 -30q-45 -30 -45 -97q0 -75 108 -91t237 -38
q129 -23 237 -85q108 -63 108 -230zM356 1147q-9 -3 -17 2q-9 4 -13 13l-42 101q-4 8 0 17t12 13l481 209q7 4 16 0t11 -12l60 -184q3 -9 -1 -17q-5 -9 -14 -11z" />
    <glyph glyph-name="Scircumflex" unicode="&#x15c;" horiz-adv-x="1307" 
d="M1282 434q0 -113 -42 -200q-43 -88 -121 -147q-79 -59 -192 -90q-113 -30 -253 -30t-257 30q-118 30 -202 91q-85 60 -134 154q-50 93 -56 219q0 9 7 16q6 6 15 6h280q10 0 18 -6q7 -6 8 -16q7 -59 27 -107q19 -48 57 -82q37 -34 97 -52q59 -19 146 -19q139 0 214 45
q75 44 75 145q0 121 -143 156q-144 35 -315 71q-171 35 -314 117q-144 81 -144 293q0 100 39 181q38 81 112 138q73 56 181 87q107 30 244 30q125 0 230 -25t183 -77q78 -53 129 -135q50 -82 67 -195q1 -8 -5 -15t-14 -7h-282q-10 0 -17 6q-8 6 -9 16q-13 95 -89 146
q-77 51 -206 51q-55 0 -101 -10q-47 -10 -81 -30q-34 -21 -53 -53q-19 -33 -19 -77q0 -114 144 -146q144 -33 316 -68q172 -36 316 -117q144 -82 144 -294zM977 1541q-3 -8 -12 -11q-9 -4 -17 0l-299 147l-299 -147q-8 -4 -17 0q-9 3 -12 11l-44 105q-4 9 -1 19t11 15
l282 198q8 5 20 9q11 3 21 3h78q10 0 22 -3q11 -4 19 -9l282 -198q8 -5 11 -15t-1 -19z" />
    <glyph glyph-name="scircumflex" unicode="&#x15d;" horiz-adv-x="1077" 
d="M1042 322q0 -83 -37 -148t-102 -109t-155 -67t-195 -23q-112 0 -205 23q-94 23 -161 68q-68 45 -107 112q-40 67 -45 154q0 8 7 15q6 7 15 7h253q10 0 17 -6t8 -16q6 -86 64 -126t164 -40q90 0 139 34q48 34 48 95q0 75 -108 93q-109 17 -237 41q-129 23 -237 86
q-109 63 -109 228q0 82 32 145t92 106q60 42 146 64q85 21 191 21q103 0 189 -20q85 -21 148 -61q62 -41 100 -103q37 -62 45 -143q1 -9 -5 -16q-7 -7 -16 -7h-241q-10 0 -17 6q-8 6 -10 16q-13 66 -59 104t-138 38q-75 0 -119 -30q-45 -30 -45 -97q0 -75 108 -91t237 -38
q129 -23 237 -85q108 -63 108 -230zM858 1162q-3 -8 -12 -11q-9 -4 -17 0l-299 147l-299 -147q-8 -4 -17 0q-9 3 -12 11l-44 105q-4 9 -1 19t11 15l282 198q8 5 20 9q11 3 21 3h78q10 0 22 -3q11 -4 19 -9l282 -198q8 -5 11 -15t-1 -19z" />
    <glyph glyph-name="Scedilla" unicode="&#x15e;" horiz-adv-x="1307" 
d="M1282 434q0 -113 -42 -200q-43 -88 -121 -147q-79 -59 -192 -90q-113 -30 -253 -30t-257 30q-118 30 -202 91q-85 60 -134 154q-50 93 -56 219q0 9 7 16q6 6 15 6h280q10 0 18 -6q7 -6 8 -16q7 -59 27 -107q19 -48 57 -82q37 -34 97 -52q59 -19 146 -19q139 0 214 45
q75 44 75 145q0 121 -143 156q-144 35 -315 71q-171 35 -314 117q-144 81 -144 293q0 100 39 181q38 81 112 138q73 56 181 87q107 30 244 30q125 0 230 -25t183 -77q78 -53 129 -135q50 -82 67 -195q1 -8 -5 -15t-14 -7h-282q-10 0 -17 6q-8 6 -9 16q-13 95 -89 146
q-77 51 -206 51q-55 0 -101 -10q-47 -10 -81 -30q-34 -21 -53 -53q-19 -33 -19 -77q0 -114 144 -146q144 -33 316 -68q172 -36 316 -117q144 -82 144 -294zM700 -347q-1 -8 -9 -14q-8 -5 -17 -4l-242 45q-9 2 -13 10t-1 15l134 315q4 9 13 15q8 5 18 4l166 -18q9 -1 15 -8
q5 -8 4 -17z" />
    <glyph glyph-name="scedilla" unicode="&#x15f;" horiz-adv-x="1077" 
d="M1042 322q0 -83 -37 -148t-102 -109t-155 -67t-195 -23q-112 0 -205 23q-94 23 -161 68q-68 45 -107 112q-40 67 -45 154q0 8 7 15q6 7 15 7h253q10 0 17 -6t8 -16q6 -86 64 -126t164 -40q90 0 139 34q48 34 48 95q0 75 -108 93q-109 17 -237 41q-129 23 -237 86
q-109 63 -109 228q0 82 32 145t92 106q60 42 146 64q85 21 191 21q103 0 189 -20q85 -21 148 -61q62 -41 100 -103q37 -62 45 -143q1 -9 -5 -16q-7 -7 -16 -7h-241q-10 0 -17 6q-8 6 -10 16q-13 66 -59 104t-138 38q-75 0 -119 -30q-45 -30 -45 -97q0 -75 108 -91t237 -38
q129 -23 237 -85q108 -63 108 -230zM581 -347q-1 -8 -9 -14q-8 -5 -17 -4l-242 45q-9 2 -13 10t-1 15l134 315q4 9 13 15q8 5 18 4l166 -18q9 -1 15 -8q5 -8 4 -17z" />
    <glyph glyph-name="Scaron" unicode="&#x160;" horiz-adv-x="1307" 
d="M1282 434q0 -113 -42 -200q-43 -88 -121 -147q-79 -59 -192 -90q-113 -30 -253 -30t-257 30q-118 30 -202 91q-85 60 -134 154q-50 93 -56 219q0 9 7 16q6 6 15 6h280q10 0 18 -6q7 -6 8 -16q7 -59 27 -107q19 -48 57 -82q37 -34 97 -52q59 -19 146 -19q139 0 214 45
q75 44 75 145q0 121 -143 156q-144 35 -315 71q-171 35 -314 117q-144 81 -144 293q0 100 39 181q38 81 112 138q73 56 181 87q107 30 244 30q125 0 230 -25t183 -77q78 -53 129 -135q50 -82 67 -195q1 -8 -5 -15t-14 -7h-282q-10 0 -17 6q-8 6 -9 16q-13 95 -89 146
q-77 51 -206 51q-55 0 -101 -10q-47 -10 -81 -30q-34 -21 -53 -53q-19 -33 -19 -77q0 -114 144 -146q144 -33 316 -68q172 -36 316 -117q144 -82 144 -294zM729 1553q-8 -6 -19 -9q-12 -4 -22 -4h-78q-10 0 -21 4q-12 3 -20 9l-282 198q-8 5 -11 15q-3 9 1 18l44 106
q3 8 12 12q9 3 17 -1l299 -148l299 148q8 4 17 1q9 -4 12 -12l44 -106q4 -9 1 -18q-3 -10 -11 -15z" />
    <glyph glyph-name="scaron" unicode="&#x161;" horiz-adv-x="1077" 
d="M1042 322q0 -83 -37 -148t-102 -109t-155 -67t-195 -23q-112 0 -205 23q-94 23 -161 68q-68 45 -107 112q-40 67 -45 154q0 8 7 15q6 7 15 7h253q10 0 17 -6t8 -16q6 -86 64 -126t164 -40q90 0 139 34q48 34 48 95q0 75 -108 93q-109 17 -237 41q-129 23 -237 86
q-109 63 -109 228q0 82 32 145t92 106q60 42 146 64q85 21 191 21q103 0 189 -20q85 -21 148 -61q62 -41 100 -103q37 -62 45 -143q1 -9 -5 -16q-7 -7 -16 -7h-241q-10 0 -17 6q-8 6 -10 16q-13 66 -59 104t-138 38q-75 0 -119 -30q-45 -30 -45 -97q0 -75 108 -91t237 -38
q129 -23 237 -85q108 -63 108 -230zM610 1174q-8 -6 -19 -9q-12 -4 -22 -4h-78q-10 0 -21 4q-12 3 -20 9l-282 198q-8 5 -11 15q-3 9 1 18l44 106q3 8 12 12q9 3 17 -1l299 -148l299 148q8 4 17 1q9 -4 12 -12l44 -106q4 -9 1 -18q-3 -10 -11 -15z" />
    <glyph glyph-name="Tcedilla" unicode="&#x162;" horiz-adv-x="1174" 
d="M444 0q-9 0 -15 7q-7 6 -7 16l16 694l-12 485h-389q-9 0 -16 7t-7 16v186q0 9 7 16t16 7h1102q9 0 16 -7q6 -7 6 -16v-186q0 -9 -6 -16q-7 -7 -16 -7h-391l-13 -485l16 -694q0 -10 -6 -16q-7 -7 -16 -7h-285zM635 -347q-1 -8 -9 -14q-8 -5 -17 -4l-242 45q-9 2 -13 10
t-1 15l134 315q4 9 13 15q8 5 18 4l166 -18q9 -1 15 -8q5 -8 4 -17z" />
    <glyph glyph-name="tcedilla" unicode="&#x163;" horiz-adv-x="741" 
d="M713 43q0 -10 -6 -18q-7 -9 -16 -12q-43 -14 -91 -24q-48 -9 -96 -9q-66 0 -129 18t-111 57q-49 39 -78 102q-30 63 -30 152l2 529h-115q-9 0 -16 7q-7 6 -7 15v172q0 9 7 16t16 7h113l-2 241q0 9 7 16q6 7 15 7h266q9 0 16 -7t7 -16l-2 -241h229q9 0 16 -7t7 -16v-172
q0 -9 -7 -15q-7 -7 -16 -7h-231l2 -521q0 -67 31 -92q31 -26 81 -26q36 0 65 5q28 5 51 11q8 2 15 -3t7 -14v-155zM454 -345q-1 -8 -9 -14q-8 -5 -17 -4l-242 45q-9 2 -13 10t-1 15l134 315q4 9 13 15q8 5 18 4l166 -18q9 -1 15 -8q5 -8 4 -17z" />
    <glyph glyph-name="Tcaron" unicode="&#x164;" horiz-adv-x="1174" 
d="M444 0q-9 0 -15 7q-7 6 -7 16l16 694l-12 485h-389q-9 0 -16 7t-7 16v186q0 9 7 16t16 7h1102q9 0 16 -7q6 -7 6 -16v-186q0 -9 -6 -16q-7 -7 -16 -7h-391l-13 -485l16 -694q0 -10 -6 -16q-7 -7 -16 -7h-285zM668 1553q-8 -6 -19 -9q-12 -4 -22 -4h-78q-10 0 -21 4
q-12 3 -20 9l-282 198q-8 5 -11 15q-3 9 1 18l44 106q3 8 12 12q9 3 17 -1l299 -148l299 148q8 4 17 1q9 -4 12 -12l44 -106q4 -9 1 -18q-3 -10 -11 -15z" />
    <glyph glyph-name="tcaron" unicode="&#x165;" horiz-adv-x="741" 
d="M713 43q0 -10 -6 -18q-7 -9 -16 -12q-43 -14 -91 -24q-48 -9 -96 -9q-66 0 -129 18t-111 57q-49 39 -78 102q-30 63 -30 152l2 529h-115q-9 0 -16 7q-7 6 -7 15v172q0 9 7 16t16 7h113l-2 241q0 9 7 16q6 7 15 7h266q9 0 16 -7t7 -16l-2 -241h229q9 0 16 -7t7 -16v-172
q0 -9 -7 -15q-7 -7 -16 -7h-231l2 -521q0 -67 31 -92q31 -26 81 -26q36 0 65 5q28 5 51 11q8 2 15 -3t7 -14v-155zM742 1197q-2 -9 -10 -15q-8 -7 -17 -7h-150q-9 0 -15 7t-5 16l54 436q1 10 9 17q7 6 16 6h205q9 0 14 -7t4 -15z" />
    <glyph glyph-name="Tbar" unicode="&#x166;" horiz-adv-x="1174" 
d="M751 23q0 -10 -6 -16q-7 -7 -16 -7h-285q-9 0 -15 7q-7 6 -7 16l13 536h-226q-9 0 -16 7t-7 16v186q0 9 7 16t16 7h227l-10 411h-389q-9 0 -16 7t-7 16v186q0 9 7 16t16 7h1102q9 0 16 -7q6 -7 6 -16v-186q0 -9 -6 -16q-7 -7 -16 -7h-391l-11 -411h226q9 0 16 -7
q6 -7 6 -16v-186q0 -9 -6 -16q-7 -7 -16 -7h-224z" />
    <glyph glyph-name="tbar" unicode="&#x167;" horiz-adv-x="743" 
d="M693 13q-43 -14 -91 -24q-48 -9 -96 -9q-66 0 -129 18t-111 57q-49 39 -78 102q-30 63 -30 152v140h-115q-9 0 -16 7q-7 6 -7 15v172q0 9 7 16t16 7h116v172h-114q-9 0 -15 7q-7 6 -7 15v172q0 9 7 16q6 7 15 7h114l-3 241q0 9 7 16q6 7 15 7h266q9 0 16 -7t7 -16
l-3 -241h230q9 0 16 -7t7 -16v-172q0 -9 -7 -15q-7 -7 -16 -7h-231l1 -172h228q9 0 16 -7t7 -16v-172q0 -9 -7 -15q-7 -7 -16 -7h-228l1 -132q0 -67 31 -92q31 -26 82 -26q35 0 64 5q28 5 51 11q8 2 15 -3t7 -14v-155q0 -10 -6 -18q-7 -9 -16 -12z" />
    <glyph glyph-name="Utilde" unicode="&#x168;" horiz-adv-x="1288" 
d="M1221 532q0 -272 -144 -417q-144 -146 -428 -146t-433 146q-149 145 -148 417l2 390l-8 489q0 9 7 16q6 7 15 7h283q9 0 16 -7q6 -7 6 -16l-10 -481l2 -395q0 -153 65 -235q64 -83 203 -83q150 0 220 83q69 82 69 235v389l-6 487q0 9 7 16q6 7 15 7h252q9 0 16 -7t6 -16
l-7 -489v-390zM972 1815q-4 -119 -53 -188q-50 -70 -149 -70q-47 0 -81 17q-35 17 -61 37q-27 20 -50 37t-48 17q-29 0 -41 -23q-13 -24 -15 -61q-1 -10 -7 -16q-7 -6 -17 -6h-111q-8 0 -15 7t-6 15q2 56 16 104q13 47 39 81q25 34 64 54q38 19 89 19q44 0 78 -17
q33 -17 60 -37t49 -37t43 -17q32 0 45 23t15 61q1 10 8 16q6 6 16 6h111q8 0 15 -7t6 -15z" />
    <glyph glyph-name="utilde" unicode="&#x169;" horiz-adv-x="1122" 
d="M767 133q-54 -69 -142 -113q-88 -45 -198 -45q-83 0 -151 28t-116 81q-48 52 -74 129q-26 76 -26 172v221l-5 426q-1 9 6 16t16 7h266q9 0 16 -7q6 -7 6 -16l-6 -426v-217q0 -86 47 -137q46 -51 115 -51q41 0 83 20q41 19 74 59q32 40 53 102q20 62 20 146v78l-4 426
q0 9 7 16q6 7 15 7h270q9 0 16 -7t6 -16l-7 -483l4 -526q0 -10 -7 -16q-7 -7 -16 -7h-252q-9 0 -15 7q-7 7 -6 16zM882 1436q-4 -119 -53 -188q-50 -70 -149 -70q-47 0 -81 17q-35 17 -61 37q-27 20 -50 37t-48 17q-29 0 -41 -23q-13 -24 -15 -61q-1 -10 -7 -16
q-7 -6 -17 -6h-111q-8 0 -15 7t-6 15q2 56 16 104q13 47 39 81q25 34 64 54q38 19 89 19q44 0 78 -17q33 -17 60 -37t49 -37t43 -17q32 0 45 23t15 61q1 10 8 16q6 6 16 6h111q8 0 15 -7t6 -15z" />
    <glyph glyph-name="Umacron" unicode="&#x16a;" horiz-adv-x="1288" 
d="M1221 532q0 -272 -144 -417q-144 -146 -428 -146t-433 146q-149 145 -148 417l2 390l-8 489q0 9 7 16q6 7 15 7h283q9 0 16 -7q6 -7 6 -16l-10 -481l2 -395q0 -153 65 -235q64 -83 203 -83q150 0 220 83q69 82 69 235v389l-6 487q0 9 7 16q6 7 15 7h252q9 0 16 -7t6 -16
l-7 -489v-390zM332 1557q-9 0 -16 7q-7 6 -7 15v160q0 9 7 16q7 6 16 6h624q9 0 16 -6q7 -7 7 -16v-160q0 -9 -7 -15q-7 -7 -16 -7h-624z" />
    <glyph glyph-name="umacron" unicode="&#x16b;" horiz-adv-x="1122" 
d="M767 133q-54 -69 -142 -113q-88 -45 -198 -45q-83 0 -151 28t-116 81q-48 52 -74 129q-26 76 -26 172v221l-5 426q-1 9 6 16t16 7h266q9 0 16 -7q6 -7 6 -16l-6 -426v-217q0 -86 47 -137q46 -51 115 -51q41 0 83 20q41 19 74 59q32 40 53 102q20 62 20 146v78l-4 426
q0 9 7 16q6 7 15 7h270q9 0 16 -7t6 -16l-7 -483l4 -526q0 -10 -7 -16q-7 -7 -16 -7h-252q-9 0 -15 7q-7 7 -6 16zM244 1178q-9 0 -16 7q-7 6 -7 15v160q0 9 7 16q7 6 16 6h624q9 0 16 -6q7 -7 7 -16v-160q0 -9 -7 -15q-7 -7 -16 -7h-624z" />
    <glyph glyph-name="Ubreve" unicode="&#x16c;" horiz-adv-x="1288" 
d="M1221 532q0 -272 -144 -417q-144 -146 -428 -146t-433 146q-149 145 -148 417l2 390l-8 489q0 9 7 16q6 7 15 7h283q9 0 16 -7q6 -7 6 -16l-10 -481l2 -395q0 -153 65 -235q64 -83 203 -83q150 0 220 83q69 82 69 235v389l-6 487q0 9 7 16q6 7 15 7h252q9 0 16 -7t6 -16
l-7 -489v-390zM1005 1864q-4 -68 -31 -126q-27 -59 -73 -101q-47 -43 -112 -67t-144 -24t-144 24t-111 67q-47 42 -74 101q-27 58 -31 126q0 8 7 15q6 7 14 7h155q10 0 18 -6q7 -6 8 -16q7 -52 47 -85q40 -34 111 -34q66 0 109 34q42 33 49 85q1 10 9 16q7 6 17 6h155
q8 0 15 -7q6 -7 6 -15z" />
    <glyph glyph-name="ubreve" unicode="&#x16d;" horiz-adv-x="1122" 
d="M767 133q-54 -69 -142 -113q-88 -45 -198 -45q-83 0 -151 28t-116 81q-48 52 -74 129q-26 76 -26 172v221l-5 426q-1 9 6 16t16 7h266q9 0 16 -7q6 -7 6 -16l-6 -426v-217q0 -86 47 -137q46 -51 115 -51q41 0 83 20q41 19 74 59q32 40 53 102q20 62 20 146v78l-4 426
q0 9 7 16q6 7 15 7h270q9 0 16 -7t6 -16l-7 -483l4 -526q0 -10 -7 -16q-7 -7 -16 -7h-252q-9 0 -15 7q-7 7 -6 16zM917 1485q-4 -68 -31 -126q-27 -59 -73 -101q-47 -43 -112 -67t-144 -24t-144 24t-111 67q-47 42 -74 101q-27 58 -31 126q0 8 7 15q6 7 14 7h155q10 0 18 -6
q7 -6 8 -16q7 -52 47 -85q40 -34 111 -34q66 0 109 34q42 33 49 85q1 10 9 16q7 6 17 6h155q8 0 15 -7q6 -7 6 -15z" />
    <glyph glyph-name="Uring" unicode="&#x16e;" horiz-adv-x="1288" 
d="M1221 532q0 -272 -144 -417q-144 -146 -428 -146t-433 146q-149 145 -148 417l2 390l-8 489q0 9 7 16q6 7 15 7h283q9 0 16 -7q6 -7 6 -16l-10 -481l2 -395q0 -153 65 -235q64 -83 203 -83q150 0 220 83q69 82 69 235v389l-6 487q0 9 7 16q6 7 15 7h252q9 0 16 -7t6 -16
l-7 -489v-390zM909 1784q0 -52 -20 -97t-55 -77q-35 -33 -83 -51q-49 -19 -106 -19t-105 19q-49 18 -84 51q-35 32 -55 77t-20 97t20 97t55 78q35 32 84 51q48 18 105 18t106 -18q48 -19 83 -51q35 -33 55 -78t20 -97zM541 1784q0 -66 29 -100q29 -35 75 -35q44 0 74 35
q30 34 30 100q0 67 -30 101t-74 34q-46 0 -75 -34t-29 -101z" />
    <glyph glyph-name="uring" unicode="&#x16f;" horiz-adv-x="1122" 
d="M767 133q-54 -69 -142 -113q-88 -45 -198 -45q-83 0 -151 28t-116 81q-48 52 -74 129q-26 76 -26 172v221l-5 426q-1 9 6 16t16 7h266q9 0 16 -7q6 -7 6 -16l-6 -426v-217q0 -86 47 -137q46 -51 115 -51q41 0 83 20q41 19 74 59q32 40 53 102q20 62 20 146v78l-4 426
q0 9 7 16q6 7 15 7h270q9 0 16 -7t6 -16l-7 -483l4 -526q0 -10 -7 -16q-7 -7 -16 -7h-252q-9 0 -15 7q-7 7 -6 16zM819 1405q0 -52 -20 -97t-55 -77q-35 -33 -83 -51q-49 -19 -106 -19t-105 19q-49 18 -84 51q-35 32 -55 77t-20 97t20 97t55 78q35 32 84 51q48 18 105 18
t106 -18q48 -19 83 -51q35 -33 55 -78t20 -97zM451 1405q0 -66 29 -100q29 -35 75 -35q44 0 74 35q30 34 30 100q0 67 -30 101t-74 34q-46 0 -75 -34t-29 -101z" />
    <glyph glyph-name="Uhungarumlaut" unicode="&#x170;" horiz-adv-x="1288" 
d="M1221 532q0 -272 -144 -417q-144 -146 -428 -146t-433 146q-149 145 -148 417l2 390l-8 489q0 9 7 16q6 7 15 7h283q9 0 16 -7q6 -7 6 -16l-10 -481l2 -395q0 -153 65 -235q64 -83 203 -83q150 0 220 83q69 82 69 235v389l-6 487q0 9 7 16q6 7 15 7h252q9 0 16 -7t6 -16
l-7 -489v-390zM470 1556q-7 -6 -16 -6q-10 -1 -17 5l-70 59q-7 6 -8 16t4 17l238 352q5 7 14 8t15 -5l124 -120q6 -7 7 -16q0 -10 -7 -16zM839 1546q-7 -7 -16 -7q-10 -1 -17 5l-70 58q-7 6 -8 16q-2 9 3 17l239 351q5 7 14 8t15 -4l123 -119q7 -6 7 -15q0 -10 -6 -17z" />
    <glyph glyph-name="uhungarumlaut" unicode="&#x171;" horiz-adv-x="1122" 
d="M767 133q-54 -69 -142 -113q-88 -45 -198 -45q-83 0 -151 28t-116 81q-48 52 -74 129q-26 76 -26 172v221l-5 426q-1 9 6 16t16 7h266q9 0 16 -7q6 -7 6 -16l-6 -426v-217q0 -86 47 -137q46 -51 115 -51q41 0 83 20q41 19 74 59q32 40 53 102q20 62 20 146v78l-4 426
q0 9 7 16q6 7 15 7h270q9 0 16 -7t6 -16l-7 -483l4 -526q0 -10 -7 -16q-7 -7 -16 -7h-252q-9 0 -15 7q-7 7 -6 16zM374 1177q-7 -6 -16 -6q-10 -1 -17 5l-70 59q-7 6 -8 16t4 17l238 352q5 7 14 8t15 -5l124 -120q6 -7 7 -16q0 -10 -7 -16zM743 1167q-7 -7 -16 -7
q-10 -1 -17 5l-70 58q-7 6 -8 16q-2 9 3 17l239 351q5 7 14 8t15 -4l123 -119q7 -6 7 -15q0 -10 -6 -17z" />
    <glyph glyph-name="Uogonek" unicode="&#x172;" horiz-adv-x="1288" 
d="M1221 532q0 -272 -144 -417q-144 -146 -428 -146t-433 146q-149 145 -148 417l2 390l-8 489q0 9 7 16q6 7 15 7h283q9 0 16 -7q6 -7 6 -16l-10 -481l2 -395q0 -153 65 -235q64 -83 203 -83q150 0 220 83q69 82 69 235v389l-6 487q0 9 7 16q6 7 15 7h252q9 0 16 -7t6 -16
l-7 -489v-390zM750 -430q-70 0 -127 16q-58 16 -98 45q-41 30 -63 72q-23 42 -23 94t20 95q19 43 52 76t78 58q45 24 96 41q9 3 19 -1t14 -11l20 -34q5 -10 4 -19t-9 -17q-20 -22 -40 -58q-21 -36 -21 -74q0 -45 31 -64q30 -18 76 -18h92q9 0 16 -7q6 -7 6 -16v-156
q0 -9 -6 -16q-7 -6 -16 -6h-121z" />
    <glyph glyph-name="uogonek" unicode="&#x173;" horiz-adv-x="1122" 
d="M767 133q-54 -69 -142 -113q-88 -45 -198 -45q-83 0 -151 28t-116 81q-48 52 -74 129q-26 76 -26 172v221l-5 426q-1 9 6 16t16 7h266q9 0 16 -7q6 -7 6 -16l-6 -426v-217q0 -86 47 -137q46 -51 115 -51q41 0 83 20q41 19 74 59q32 40 53 102q20 62 20 146v78l-4 426
q0 9 7 16q6 7 15 7h270q9 0 16 -7t6 -16l-7 -483l4 -526q0 -10 -7 -16q-7 -7 -16 -7h-252q-9 0 -15 7q-7 7 -6 16zM930 -430q-70 0 -127 16q-58 16 -98 45q-41 30 -63 72q-23 42 -23 94t20 95q19 43 52 76t78 58q45 24 96 41q9 3 19 -1t14 -11l20 -34q5 -10 4 -19t-9 -17
q-20 -22 -40 -58q-21 -36 -21 -74q0 -45 31 -64q30 -18 76 -18h92q9 0 16 -7q6 -7 6 -16v-156q0 -9 -6 -16q-7 -6 -16 -6h-121z" />
    <glyph glyph-name="Wcircumflex" unicode="&#x174;" horiz-adv-x="1880" 
d="M1185 0q-10 0 -18 6t-10 16l-226 982l-205 -982q-1 -9 -9 -15q-8 -7 -18 -7h-342q-9 0 -17 6t-10 16l-326 1390q-1 8 4 15t13 7h273q10 0 18 -6q7 -7 9 -16l225 -1103l215 1102q1 10 9 17q8 6 17 6h318q10 0 18 -6q7 -7 9 -16l227 -1125l223 1125q1 9 9 16q8 6 18 6h252
q8 0 13 -7t4 -15l-334 -1390q-2 -10 -10 -16t-17 -6h-332zM1268 1541q-3 -8 -12 -11q-9 -4 -17 0l-299 147l-299 -147q-8 -4 -17 0q-9 3 -12 11l-44 105q-4 9 -1 19t11 15l282 198q8 5 20 9q11 3 21 3h78q10 0 22 -3q11 -4 19 -9l282 -198q8 -5 11 -15t-1 -19z" />
    <glyph glyph-name="wcircumflex" unicode="&#x175;" horiz-adv-x="1491" 
d="M927 0q-10 0 -18 7q-8 6 -9 15l-166 777l-143 -777q-1 -9 -9 -15q-8 -7 -18 -7h-315q-10 0 -18 7q-8 6 -10 15l-225 1011q-2 8 3 15q6 7 14 7h267q9 0 17 -6q7 -7 8 -17l118 -780l145 781q2 9 10 16q7 6 17 6h326q9 0 17 -6q8 -7 9 -16l139 -763l124 762q1 10 9 17
q7 6 17 6h240q8 0 14 -7q5 -7 3 -15l-221 -1011q-2 -9 -10 -15q-8 -7 -18 -7h-317zM1069 1162q-3 -8 -12 -11q-9 -4 -17 0l-299 147l-299 -147q-8 -4 -17 0q-9 3 -12 11l-44 105q-4 9 -1 19t11 15l282 198q8 5 20 9q11 3 21 3h78q10 0 22 -3q11 -4 19 -9l282 -198
q8 -5 11 -15t-1 -19z" />
    <glyph glyph-name="Ycircumflex" unicode="&#x176;" horiz-adv-x="1241" 
d="M779 23q0 -10 -6 -16q-7 -7 -16 -7h-275q-9 0 -15 7q-7 6 -7 16l8 454l-481 937q-4 7 0 14q4 6 12 6h309q10 0 19 -6t13 -15l292 -657l294 657q4 9 13 15q8 6 18 6h283q8 0 12 -6q4 -7 0 -14l-481 -933zM955 1541q-3 -8 -12 -11q-9 -4 -17 0l-299 147l-299 -147
q-8 -4 -17 0q-9 3 -12 11l-44 105q-4 9 -1 19t11 15l282 198q8 5 20 9q11 3 21 3h78q10 0 22 -3q11 -4 19 -9l282 -198q8 -5 11 -15t-1 -19z" />
    <glyph glyph-name="ycircumflex" unicode="&#x177;" horiz-adv-x="1042" 
d="M591 -327q-3 -9 -11 -15q-9 -6 -19 -6h-248q-8 0 -13 6q-5 7 -2 15l110 317l-422 1044q-3 7 1 14q5 7 13 7h301q10 0 19 -6q8 -6 11 -16l228 -654l188 654q3 9 11 16q8 6 18 6h266q9 0 14 -7q4 -7 2 -15zM856 1162q-3 -8 -12 -11q-9 -4 -17 0l-299 147l-299 -147
q-8 -4 -17 0q-9 3 -12 11l-44 105q-4 9 -1 19t11 15l282 198q8 5 20 9q11 3 21 3h78q10 0 22 -3q11 -4 19 -9l282 -198q8 -5 11 -15t-1 -19z" />
    <glyph glyph-name="Ydieresis" unicode="&#x178;" horiz-adv-x="1241" 
d="M779 23q0 -10 -6 -16q-7 -7 -16 -7h-275q-9 0 -15 7q-7 6 -7 16l8 454l-481 937q-4 7 0 14q4 6 12 6h309q10 0 19 -6t13 -15l292 -657l294 657q4 9 13 15q8 6 18 6h283q8 0 12 -6q4 -7 0 -14l-481 -933zM314 1557q-10 0 -16 7q-7 6 -7 15v232q0 9 7 16q6 6 16 6h204
q9 0 16 -6q7 -7 7 -16v-232q0 -9 -7 -15q-7 -7 -16 -7h-204zM744 1557q-9 0 -16 7q-7 6 -7 15v232q0 9 7 16q7 6 16 6h204q10 0 17 -6q6 -7 6 -16v-232q0 -9 -6 -15q-7 -7 -17 -7h-204z" />
    <glyph glyph-name="Zacute" unicode="&#x179;" horiz-adv-x="1198" 
d="M1167 23q0 -10 -6 -16q-7 -7 -16 -7h-1090q-9 0 -15 7q-7 6 -7 16v208q0 10 4 22q3 11 10 19l741 930h-677q-10 0 -16 7q-7 7 -7 16v186q0 9 7 16q6 7 16 7h1032q9 0 16 -7q6 -7 6 -16v-217q0 -10 -3 -21q-4 -11 -11 -19l-733 -923h727q9 0 16 -6q6 -7 6 -16v-186z
M408 1526q-9 -3 -17 2q-9 4 -13 13l-42 101q-4 8 0 17t12 13l481 209q7 4 16 0t11 -12l60 -184q3 -9 -1 -17q-5 -9 -14 -11z" />
    <glyph glyph-name="zacute" unicode="&#x17a;" horiz-adv-x="993" 
d="M942 23q0 -10 -6 -16q-7 -7 -16 -7h-846q-9 0 -16 7q-7 6 -7 16v172q0 10 4 21t10 19l472 603h-420q-9 0 -16 7q-7 6 -7 15v172q0 9 7 16t16 7h772q9 0 16 -7q6 -7 6 -16v-176q0 -10 -3 -21q-4 -11 -11 -19l-475 -599h498q9 0 16 -6q6 -7 6 -16v-172zM320 1147
q-9 -3 -17 2q-9 4 -13 13l-42 101q-4 8 0 17t12 13l481 209q7 4 16 0t11 -12l60 -184q3 -9 -1 -17q-5 -9 -14 -11z" />
    <glyph glyph-name="Zdotaccent" unicode="&#x17b;" horiz-adv-x="1198" 
d="M1167 23q0 -10 -6 -16q-7 -7 -16 -7h-1090q-9 0 -15 7q-7 6 -7 16v208q0 10 4 22q3 11 10 19l741 930h-677q-10 0 -16 7q-7 7 -7 16v186q0 9 7 16q6 7 16 7h1032q9 0 16 -7q6 -7 6 -16v-217q0 -10 -3 -21q-4 -11 -11 -19l-733 -923h727q9 0 16 -6q6 -7 6 -16v-186z
M449 1536q-9 0 -16 7t-7 16v231q0 9 7 16t16 7h266q9 0 16 -7t7 -16v-231q0 -9 -7 -16t-16 -7h-266z" />
    <glyph glyph-name="zdotaccent" unicode="&#x17c;" horiz-adv-x="993" 
d="M942 23q0 -10 -6 -16q-7 -7 -16 -7h-846q-9 0 -16 7q-7 6 -7 16v172q0 10 4 21t10 19l472 603h-420q-9 0 -16 7q-7 6 -7 15v172q0 9 7 16t16 7h772q9 0 16 -7q6 -7 6 -16v-176q0 -10 -3 -21q-4 -11 -11 -19l-475 -599h498q9 0 16 -6q6 -7 6 -16v-172zM371 1157
q-9 0 -16 7t-7 16v231q0 9 7 16t16 7h266q9 0 16 -7t7 -16v-231q0 -9 -7 -16t-16 -7h-266z" />
    <glyph glyph-name="Zcaron" unicode="&#x17d;" horiz-adv-x="1198" 
d="M1167 23q0 -10 -6 -16q-7 -7 -16 -7h-1090q-9 0 -15 7q-7 6 -7 16v208q0 10 4 22q3 11 10 19l741 930h-677q-10 0 -16 7q-7 7 -7 16v186q0 9 7 16q6 7 16 7h1032q9 0 16 -7q6 -7 6 -16v-217q0 -10 -3 -21q-4 -11 -11 -19l-733 -923h727q9 0 16 -6q6 -7 6 -16v-186z
M707 1553q-8 -6 -19 -9q-12 -4 -22 -4h-78q-10 0 -21 4q-12 3 -20 9l-282 198q-8 5 -11 15q-3 9 1 18l44 106q3 8 12 12q9 3 17 -1l299 -148l299 148q8 4 17 1q9 -4 12 -12l44 -106q4 -9 1 -18q-3 -10 -11 -15z" />
    <glyph glyph-name="zcaron" unicode="&#x17e;" horiz-adv-x="993" 
d="M942 23q0 -10 -6 -16q-7 -7 -16 -7h-846q-9 0 -16 7q-7 6 -7 16v172q0 10 4 21t10 19l472 603h-420q-9 0 -16 7q-7 6 -7 15v172q0 9 7 16t16 7h772q9 0 16 -7q6 -7 6 -16v-176q0 -10 -3 -21q-4 -11 -11 -19l-475 -599h498q9 0 16 -6q6 -7 6 -16v-172zM584 1174
q-8 -6 -19 -9q-12 -4 -22 -4h-78q-10 0 -21 4q-12 3 -20 9l-282 198q-8 5 -11 15q-3 9 1 18l44 106q3 8 12 12q9 3 17 -1l299 -148l299 148q8 4 17 1q9 -4 12 -12l44 -106q4 -9 1 -18q-3 -10 -11 -15z" />
    <glyph glyph-name="florin" unicode="&#x192;" horiz-adv-x="848" 
d="M530 -39q0 -90 -29 -153t-77 -102t-110 -57t-128 -18q-46 0 -97 6t-89 11q-10 1 -17 9q-6 8 -6 17v170q0 8 7 13q7 6 15 4q23 -5 52 -8q28 -3 64 -3q50 0 82 30t32 110v848h-137q-9 0 -15 7q-7 6 -7 15v172q0 9 7 16q6 7 15 7h137v69q0 90 29 153t77 102t110 57t128 18
q47 0 98 -5q50 -6 89 -12q9 -1 16 -8q6 -8 6 -18v-169q0 -9 -6 -14q-7 -5 -16 -4q-22 5 -50 8q-29 3 -65 3q-50 0 -82 -30q-33 -30 -33 -109v-41h230q9 0 16 -7q6 -7 6 -16v-172q0 -9 -6 -15q-7 -7 -16 -7h-230v-877z" />
    <glyph glyph-name="Scommaaccent" unicode="&#x218;" horiz-adv-x="1307" 
d="M1282 434q0 -113 -42 -200q-43 -88 -121 -147q-79 -59 -192 -90q-113 -30 -253 -30t-257 30q-118 30 -202 91q-85 60 -134 154q-50 93 -56 219q0 9 7 16q6 6 15 6h280q10 0 18 -6q7 -6 8 -16q7 -59 27 -107q19 -48 57 -82q37 -34 97 -52q59 -19 146 -19q139 0 214 45
q75 44 75 145q0 121 -143 156q-144 35 -315 71q-171 35 -314 117q-144 81 -144 293q0 100 39 181q38 81 112 138q73 56 181 87q107 30 244 30q125 0 230 -25t183 -77q78 -53 129 -135q50 -82 67 -195q1 -8 -5 -15t-14 -7h-282q-10 0 -17 6q-8 6 -9 16q-13 95 -89 146
q-77 51 -206 51q-55 0 -101 -10q-47 -10 -81 -30q-34 -21 -53 -53q-19 -33 -19 -77q0 -114 144 -146q144 -33 316 -68q172 -36 316 -117q144 -82 144 -294zM476 -510q-8 0 -13 7q-6 7 -4 15l44 181v207q0 9 7 15q6 7 15 7h188q10 0 17 -7q6 -6 6 -15v-183q0 -10 -3 -22
q-4 -11 -9 -19l-107 -167q-5 -8 -15 -14q-10 -5 -20 -5h-106z" />
    <glyph glyph-name="scommaaccent" unicode="&#x219;" horiz-adv-x="1077" 
d="M1042 322q0 -83 -37 -148t-102 -109t-155 -67t-195 -23q-112 0 -205 23q-94 23 -161 68q-68 45 -107 112q-40 67 -45 154q0 8 7 15q6 7 15 7h253q10 0 17 -6t8 -16q6 -86 64 -126t164 -40q90 0 139 34q48 34 48 95q0 75 -108 93q-109 17 -237 41q-129 23 -237 86
q-109 63 -109 228q0 82 32 145t92 106q60 42 146 64q85 21 191 21q103 0 189 -20q85 -21 148 -61q62 -41 100 -103q37 -62 45 -143q1 -9 -5 -16q-7 -7 -16 -7h-241q-10 0 -17 6q-8 6 -10 16q-13 66 -59 104t-138 38q-75 0 -119 -30q-45 -30 -45 -97q0 -75 108 -91t237 -38
q129 -23 237 -85q108 -63 108 -230zM368 -510q-8 0 -13 7q-6 7 -4 15l44 181v207q0 9 7 15q6 7 15 7h188q10 0 17 -7q6 -6 6 -15v-183q0 -10 -3 -22q-4 -11 -9 -19l-107 -167q-5 -8 -15 -14q-10 -5 -20 -5h-106z" />
    <glyph glyph-name="Tcommaaccent" unicode="&#x21a;" horiz-adv-x="1174" 
d="M444 0q-9 0 -15 7q-7 6 -7 16l16 694l-12 485h-389q-9 0 -16 7t-7 16v186q0 9 7 16t16 7h1102q9 0 16 -7q6 -7 6 -16v-186q0 -9 -6 -16q-7 -7 -16 -7h-391l-13 -485l16 -694q0 -10 -6 -16q-7 -7 -16 -7h-285zM441 -510q-8 0 -13 7q-6 7 -4 15l44 181v207q0 9 7 15
q6 7 15 7h188q10 0 17 -7q6 -6 6 -15v-183q0 -10 -3 -22q-4 -11 -9 -19l-107 -167q-5 -8 -15 -14q-10 -5 -20 -5h-106z" />
    <glyph glyph-name="tcommaaccent" unicode="&#x21b;" horiz-adv-x="741" 
d="M713 43q0 -10 -6 -18q-7 -9 -16 -12q-43 -14 -91 -24q-48 -9 -96 -9q-66 0 -129 18t-111 57q-49 39 -78 102q-30 63 -30 152l2 529h-115q-9 0 -16 7q-7 6 -7 15v172q0 9 7 16t16 7h113l-2 241q0 9 7 16q6 7 15 7h266q9 0 16 -7t7 -16l-2 -241h229q9 0 16 -7t7 -16v-172
q0 -9 -7 -15q-7 -7 -16 -7h-231l2 -521q0 -67 31 -92q31 -26 81 -26q36 0 65 5q28 5 51 11q8 2 15 -3t7 -14v-155zM272 -510q-8 0 -13 7q-6 7 -4 15l44 181v207q0 9 7 15q6 7 15 7h188q10 0 17 -7q6 -6 6 -15v-183q0 -10 -3 -22q-4 -11 -9 -19l-107 -167q-5 -8 -15 -14
q-10 -5 -20 -5h-106z" />
    <glyph glyph-name="dotlessj" unicode="&#x237;" horiz-adv-x="451" 
d="M90 -348q-9 0 -15 6q-7 7 -7 16l8 688l-8 670q0 9 7 16q6 7 15 7h270q10 0 17 -7q6 -7 6 -16l-8 -670l8 -688q0 -9 -6 -16q-7 -6 -17 -6h-270z" />
    <glyph glyph-name="schwa" unicode="&#x259;" horiz-adv-x="1163" 
d="M1108 530q0 -125 -37 -228t-105 -176q-69 -73 -169 -113q-101 -40 -226 -40q-129 0 -229 42q-101 41 -169 118q-69 77 -106 188q-37 110 -40 246q0 9 7 16q6 7 15 7h750q-10 148 -69 218q-59 69 -169 69q-76 0 -129 -37t-75 -120q-2 -10 -10 -16t-18 -6h-250q-8 0 -14 8
q-6 7 -5 15q10 71 50 137q39 65 103 115q64 49 153 79q89 29 199 29q132 0 234 -41q101 -42 170 -114q68 -73 104 -175q35 -102 35 -221zM358 395q5 -42 20 -81q14 -40 40 -70q25 -31 63 -49q38 -19 88 -19q92 0 148 56q55 55 74 163h-433z" />
    <glyph glyph-name="uni02BB" unicode="&#x2bb;" horiz-adv-x="436" 
d="M385 1434q8 0 14 -7q5 -7 3 -15l-62 -226v-262q0 -9 -6 -16q-7 -7 -17 -7h-249q-10 0 -16 7q-7 7 -7 16v237q0 10 4 22q3 11 10 19l159 214q6 7 16 13q10 5 20 5h131z" />
    <glyph glyph-name="uni02BC" unicode="&#x2bc;" horiz-adv-x="436" 
d="M51 901q-8 0 -13 7t-3 15l61 226v262q0 9 7 16t16 7h250q9 0 16 -7q6 -7 6 -16v-237q0 -10 -3 -21q-4 -12 -10 -20l-160 -214q-6 -8 -16 -13t-20 -5h-131z" />
    <glyph glyph-name="circumflex" unicode="&#x2c6;" horiz-adv-x="1024" 
d="M840 1162q-3 -8 -12 -11q-9 -4 -17 0l-299 147l-299 -147q-8 -4 -17 0q-9 3 -12 11l-44 105q-4 9 -1 19t11 15l282 198q8 5 20 9q11 3 21 3h78q10 0 22 -3q11 -4 19 -9l282 -198q8 -5 11 -15t-1 -19z" />
    <glyph glyph-name="caron" unicode="&#x2c7;" horiz-adv-x="1024" 
d="M592 1174q-8 -6 -19 -9q-12 -4 -22 -4h-78q-10 0 -21 4q-12 3 -20 9l-282 198q-8 5 -11 15q-3 9 1 18l44 106q3 8 12 12q9 3 17 -1l299 -148l299 148q8 4 17 1q9 -4 12 -12l44 -106q4 -9 1 -18q-3 -10 -11 -15z" />
    <glyph glyph-name="uni02C9" unicode="&#x2c9;" horiz-adv-x="1024" 
d="M199 1178q-9 0 -16 7q-7 6 -7 15v160q0 9 7 16q7 6 16 6h624q9 0 16 -6q7 -7 7 -16v-160q0 -9 -7 -15q-7 -7 -16 -7h-624z" />
    <glyph glyph-name="breve" unicode="&#x2d8;" horiz-adv-x="1024" 
d="M872 1485q-4 -68 -31 -126q-27 -59 -73 -101q-47 -43 -112 -67t-144 -24t-144 24t-111 67q-47 42 -74 101q-27 58 -31 126q0 8 7 15q6 7 14 7h155q10 0 18 -6q7 -6 8 -16q7 -52 47 -85q40 -34 111 -34q66 0 109 34q42 33 49 85q1 10 9 16q7 6 17 6h155q8 0 15 -7
q6 -7 6 -15z" />
    <glyph glyph-name="dotaccent" unicode="&#x2d9;" horiz-adv-x="1024" 
d="M379 1157q-9 0 -16 7t-7 16v231q0 9 7 16t16 7h266q9 0 16 -7t7 -16v-231q0 -9 -7 -16t-16 -7h-266z" />
    <glyph glyph-name="ring" unicode="&#x2da;" horiz-adv-x="1024" 
d="M776 1405q0 -52 -20 -97t-55 -77q-35 -33 -83 -51q-49 -19 -106 -19t-105 19q-49 18 -84 51q-35 32 -55 77t-20 97t20 97t55 78q35 32 84 51q48 18 105 18t106 -18q48 -19 83 -51q35 -33 55 -78t20 -97zM408 1405q0 -66 29 -100q29 -35 75 -35q44 0 74 35q30 34 30 100
q0 67 -30 101t-74 34q-46 0 -75 -34t-29 -101z" />
    <glyph glyph-name="ogonek" unicode="&#x2db;" horiz-adv-x="1024" 
d="M549 -430q-70 0 -127 16q-58 16 -98 45q-41 30 -63 72q-23 42 -23 94t20 95q19 43 52 76t78 58q45 24 96 41q9 3 19 -1t14 -11l20 -34q5 -10 4 -19t-9 -17q-20 -22 -40 -58q-21 -36 -21 -74q0 -45 31 -64q30 -18 76 -18h92q9 0 16 -7q6 -7 6 -16v-156q0 -9 -6 -16
q-7 -6 -16 -6h-121z" />
    <glyph glyph-name="tilde" unicode="&#x2dc;" horiz-adv-x="1024" 
d="M839 1436q-4 -119 -53 -188q-50 -70 -149 -70q-47 0 -81 17q-35 17 -61 37q-27 20 -50 37t-48 17q-29 0 -41 -23q-13 -24 -15 -61q-1 -10 -7 -16q-7 -6 -17 -6h-111q-8 0 -15 7t-6 15q2 56 16 104q13 47 39 81q25 34 64 54q38 19 89 19q44 0 78 -17q33 -17 60 -37t49 -37
t43 -17q32 0 45 23t15 61q1 10 8 16q6 6 16 6h111q8 0 15 -7t6 -15z" />
    <glyph glyph-name="hungarumlaut" unicode="&#x2dd;" horiz-adv-x="1024" 
d="M331 1177q-7 -6 -16 -6q-10 -1 -17 5l-70 59q-7 6 -8 16t4 17l238 352q5 7 14 8t15 -5l124 -120q6 -7 7 -16q0 -10 -7 -16zM700 1167q-7 -7 -16 -7q-10 -1 -17 5l-70 58q-7 6 -8 16q-2 9 3 17l239 351q5 7 14 8t15 -4l123 -119q7 -6 7 -15q0 -10 -6 -17z" />
    <glyph glyph-name="gravecmb" unicode="&#x300;" 
d="M197 1162q-4 -9 -12 -13q-9 -5 -18 -2l-497 131q-9 2 -14 11q-4 8 -1 16l61 185q3 8 11 12q9 4 17 0l483 -209q8 -4 12 -13t0 -17z" />
    <glyph glyph-name="acutecmb" unicode="&#x301;" 
d="M-174 1147q-9 -3 -18 2q-8 4 -12 13l-42 101q-4 8 0 17t12 13l481 209q7 4 16 0t11 -12l60 -184q3 -9 -1 -17q-5 -9 -14 -11z" />
    <glyph glyph-name="circumflexcmb" unicode="&#x302;" 
d="M328 1162q-3 -8 -12 -11q-9 -4 -17 0l-299 147l-299 -147q-8 -4 -17 0q-9 3 -12 11l-44 105q-4 9 -1 19t11 15l282 198q8 5 19 9q12 3 22 3h78q10 0 22 -3q11 -4 19 -9l282 -198q8 -5 11 -15t-1 -19z" />
    <glyph glyph-name="tildecmb" unicode="&#x303;" 
d="M327 1436q-4 -119 -53 -188q-50 -70 -149 -70q-47 0 -81 17q-35 17 -62 37q-26 20 -49 37t-48 17q-29 0 -42 -23q-12 -24 -14 -61q-1 -10 -8 -16q-6 -6 -16 -6h-111q-8 0 -15 7t-6 15q2 56 15 104q14 47 39 81q26 34 64 54q39 19 90 19q44 0 77 -17q34 -17 61 -37t49 -37
t43 -17q32 0 45 23t15 61q1 10 8 16q6 6 16 6h111q8 0 15 -7t6 -15z" />
    <glyph glyph-name="macroncmb" unicode="&#x304;" 
d="M-313 1178q-9 0 -16 7q-7 6 -7 15v160q0 9 7 16q7 6 16 6h624q9 0 16 -6q7 -7 7 -16v-160q0 -9 -7 -15q-7 -7 -16 -7h-624z" />
    <glyph glyph-name="brevecmb" unicode="&#x306;" 
d="M360 1485q-4 -68 -31 -126q-27 -59 -73 -101q-47 -43 -112 -67t-144 -24t-144 24t-112 67q-46 42 -73 101q-27 58 -31 126q0 8 6 15q7 7 15 7h155q10 0 17 -6q8 -6 9 -16q7 -52 47 -85q40 -34 111 -34q66 0 109 34q42 33 49 85q1 10 9 16q7 6 17 6h155q8 0 15 -7
q6 -7 6 -15z" />
    <glyph glyph-name="dotaccentcmb" unicode="&#x307;" 
d="M-133 1157q-9 0 -16 7t-7 16v231q0 9 7 16t16 7h266q9 0 16 -7t7 -16v-231q0 -9 -7 -16t-16 -7h-266z" />
    <glyph glyph-name="dieresiscmb" unicode="&#x308;" 
d="M-317 1178q-10 0 -17 7q-6 6 -6 15v232q0 9 6 16q7 6 17 6h204q9 0 16 -6q7 -7 7 -16v-232q0 -9 -7 -15q-7 -7 -16 -7h-204zM113 1178q-9 0 -16 7q-7 6 -7 15v232q0 9 7 16q7 6 16 6h204q10 0 17 -6q6 -7 6 -16v-232q0 -9 -6 -15q-7 -7 -17 -7h-204z" />
    <glyph glyph-name="ringcmb" unicode="&#x30a;" 
d="M264 1405q0 -52 -20 -97t-55 -77q-35 -33 -83 -51q-49 -19 -106 -19t-106 19q-48 18 -83 51q-35 32 -55 77t-20 97t20 97t55 78q35 32 83 51q49 18 106 18t106 -18q48 -19 83 -51q35 -33 55 -78t20 -97zM-104 1405q0 -66 29 -100q29 -35 75 -35q44 0 74 35q30 34 30 100
q0 67 -30 101t-74 34q-46 0 -75 -34t-29 -101z" />
    <glyph glyph-name="hungarumlautcmb" unicode="&#x30b;" 
d="M-181 1177q-7 -6 -17 -6q-9 -1 -16 5l-70 59q-7 6 -8 16t4 17l238 352q5 7 14 8t15 -5l124 -120q6 -7 7 -16q0 -10 -7 -16zM188 1167q-7 -7 -16 -7q-10 -1 -17 5l-70 58q-7 6 -8 16q-2 9 3 17l239 351q5 7 14 8t15 -4l123 -119q7 -6 7 -15q0 -10 -6 -17z" />
    <glyph glyph-name="caroncmb" unicode="&#x30c;" 
d="M80 1174q-8 -6 -19 -9q-12 -4 -22 -4h-78q-10 0 -22 4q-11 3 -19 9l-282 198q-8 5 -11 15q-3 9 1 18l44 106q3 8 12 12q9 3 17 -1l299 -148l299 148q8 4 17 1q9 -4 12 -12l44 -106q4 -9 1 -18q-3 -10 -11 -15z" />
    <glyph glyph-name="commaturnedabovecmb" unicode="&#x312;" 
d="M-170 1178q-9 0 -16 7q-7 6 -7 15v182q0 10 4 21q5 11 12 19l158 171q7 7 17 12t20 5h123q9 0 14 -7t4 -15l-44 -181v-207q0 -9 -7 -15q-7 -7 -16 -7h-262z" />
    <glyph glyph-name="commaaccentcmb" unicode="&#x326;" 
d="M-134 -510q-8 0 -14 7q-5 7 -3 15l44 181v207q0 9 6 15q7 7 16 7h188q10 0 17 -7q6 -6 6 -15v-183q0 -10 -3 -22q-4 -11 -9 -19l-107 -167q-5 -8 -15 -14q-10 -5 -20 -5h-106z" />
    <glyph glyph-name="cedillacmb" unicode="&#x327;" 
d="M51 -347q-1 -8 -9 -14q-8 -5 -17 -4l-242 45q-9 2 -13 10t-1 15l134 315q4 9 12 15q9 5 19 4l166 -18q9 -1 15 -8q5 -8 4 -17z" />
    <glyph glyph-name="ogonekcmb" unicode="&#x328;" 
d="M37 -430q-70 0 -128 16q-57 16 -98 45q-40 30 -63 72q-22 42 -22 94t19 95q20 43 53 76t78 58q45 24 96 41q9 3 19 -1t14 -11l20 -34q5 -10 4 -19t-9 -17q-20 -22 -41 -58q-20 -36 -20 -74q0 -45 30 -64q31 -18 77 -18h92q9 0 16 -7q6 -7 6 -16v-156q0 -9 -6 -16
q-7 -6 -16 -6h-121z" />
    <glyph glyph-name="Delta" unicode="&#x394;" horiz-adv-x="1446" 
d="M43 0q-9 0 -16 7q-7 6 -7 16v202q0 9 7 16t16 7q-8 0 -12 7q-5 6 -2 14l480 1144q4 9 13 15t19 6h374q10 0 19 -6t13 -15l470 -1144q4 -10 6 -22t2 -22v-202q0 -10 -6 -16q-7 -7 -16 -7h-1360zM1104 248l-391 991l-367 -970q-4 -9 -12 -15q-9 -6 -19 -6h789z" />
    <glyph glyph-name="Omega" unicode="&#x3a9;" horiz-adv-x="1552" 
d="M702 23q0 -10 -6 -16q-7 -7 -16 -7h-561q-9 0 -16 7q-7 6 -7 16v186q0 9 7 16q7 6 16 6h184q-116 98 -184 237q-68 138 -68 306q0 159 52 288q52 128 147 217t229 137t297 48t297 -48t229 -137t147 -217q52 -129 52 -288q0 -168 -68 -306q-68 -139 -184 -237h185
q9 0 16 -6q6 -7 6 -16v-186q0 -10 -6 -16q-7 -7 -16 -7h-562q-9 0 -15 7q-7 6 -7 16v185q0 10 6 20q5 9 14 13q67 32 124 81q57 48 99 111q41 63 64 144q23 80 23 177q0 107 -26 195q-27 87 -78 149q-51 61 -126 94q-76 33 -174 33t-173 -33q-76 -33 -126 -94
q-51 -62 -77 -149q-27 -88 -27 -195q0 -97 23 -177q23 -81 64 -144t98 -111q57 -49 124 -81q9 -4 15 -13q5 -10 5 -20v-185z" />
    <glyph glyph-name="mu" unicode="&#x3bc;" horiz-adv-x="1118" 
d="M366 -326q1 -9 -6 -16q-7 -6 -16 -6h-266q-9 0 -16 6q-7 7 -7 16l4 754l-4 604q0 9 7 16t16 7h295q9 0 16 -7q6 -7 6 -16l-6 -426v-217q0 -86 47 -137q46 -51 115 -51q41 0 83 20q41 19 73 59t53 102q20 62 20 146v78l-4 426q0 9 7 16t16 7h270q9 0 16 -7q6 -7 6 -16
l-8 -483l4 -526q0 -10 -6 -16q-7 -7 -16 -7h-252q-9 0 -15 7q-7 7 -6 16l5 110q-54 -69 -142 -113q-88 -45 -198 -45q-25 0 -48 3t-45 7z" />
    <glyph glyph-name="pi" unicode="&#x3c0;" horiz-adv-x="1120" 
d="M78 0q-9 0 -16 7q-7 6 -7 16l4 483v526q0 9 7 16t16 7h960q10 0 17 -7q6 -7 6 -16l-4 -583l4 -426q0 -10 -6 -16q-7 -7 -17 -7h-268q-9 0 -15 7q-7 6 -7 16l4 483v332h-387l-2 -389l3 -426q1 -10 -6 -16q-7 -7 -16 -7h-270z" />
    <glyph glyph-name="Wgrave" unicode="&#x1e80;" horiz-adv-x="1880" 
d="M1185 0q-10 0 -18 6t-10 16l-226 982l-205 -982q-1 -9 -9 -15q-8 -7 -18 -7h-342q-9 0 -17 6t-10 16l-326 1390q-1 8 4 15t13 7h273q10 0 18 -6q7 -7 9 -16l225 -1103l215 1102q1 10 9 17q8 6 17 6h318q10 0 18 -6q7 -7 9 -16l227 -1125l223 1125q1 9 9 16q8 6 18 6h252
q8 0 13 -7t4 -15l-334 -1390q-2 -10 -10 -16t-17 -6h-332zM1147 1541q-4 -9 -12 -13q-9 -5 -18 -2l-497 131q-9 2 -13 11q-5 8 -2 16l61 185q3 8 12 12q8 4 16 0l483 -209q8 -4 12 -13t0 -17z" />
    <glyph glyph-name="wgrave" unicode="&#x1e81;" horiz-adv-x="1491" 
d="M927 0q-10 0 -18 7q-8 6 -9 15l-166 777l-143 -777q-1 -9 -9 -15q-8 -7 -18 -7h-315q-10 0 -18 7q-8 6 -10 15l-225 1011q-2 8 3 15q6 7 14 7h267q9 0 17 -6q7 -7 8 -17l118 -780l145 781q2 9 10 16q7 6 17 6h326q9 0 17 -6q8 -7 9 -16l139 -763l124 762q1 10 9 17
q7 6 17 6h240q8 0 14 -7q5 -7 3 -15l-221 -1011q-2 -9 -10 -15q-8 -7 -18 -7h-317zM945 1162q-4 -9 -12 -13q-9 -5 -18 -2l-497 131q-9 2 -13 11q-5 8 -2 16l61 185q3 8 12 12q8 4 16 0l483 -209q8 -4 12 -13t0 -17z" />
    <glyph glyph-name="Wacute" unicode="&#x1e82;" horiz-adv-x="1880" 
d="M1185 0q-10 0 -18 6t-10 16l-226 982l-205 -982q-1 -9 -9 -15q-8 -7 -18 -7h-342q-9 0 -17 6t-10 16l-326 1390q-1 8 4 15t13 7h273q10 0 18 -6q7 -7 9 -16l225 -1103l215 1102q1 10 9 17q8 6 17 6h318q10 0 18 -6q7 -7 9 -16l227 -1125l223 1125q1 9 9 16q8 6 18 6h252
q8 0 13 -7t4 -15l-334 -1390q-2 -10 -10 -16t-17 -6h-332zM764 1526q-9 -3 -17 2q-9 4 -13 13l-42 101q-4 8 0 17t12 13l481 209q7 4 16 0t11 -12l60 -184q3 -9 -1 -17q-5 -9 -14 -11z" />
    <glyph glyph-name="wacute" unicode="&#x1e83;" horiz-adv-x="1491" 
d="M927 0q-10 0 -18 7q-8 6 -9 15l-166 777l-143 -777q-1 -9 -9 -15q-8 -7 -18 -7h-315q-10 0 -18 7q-8 6 -10 15l-225 1011q-2 8 3 15q6 7 14 7h267q9 0 17 -6q7 -7 8 -17l118 -780l145 781q2 9 10 16q7 6 17 6h326q9 0 17 -6q8 -7 9 -16l139 -763l124 762q1 10 9 17
q7 6 17 6h240q8 0 14 -7q5 -7 3 -15l-221 -1011q-2 -9 -10 -15q-8 -7 -18 -7h-317zM588 1147q-9 -3 -17 2q-9 4 -13 13l-42 101q-4 8 0 17t12 13l481 209q7 4 16 0t11 -12l60 -184q3 -9 -1 -17q-5 -9 -14 -11z" />
    <glyph glyph-name="Wdieresis" unicode="&#x1e84;" horiz-adv-x="1880" 
d="M1185 0q-10 0 -18 6t-10 16l-226 982l-205 -982q-1 -9 -9 -15q-8 -7 -18 -7h-342q-9 0 -17 6t-10 16l-326 1390q-1 8 4 15t13 7h273q10 0 18 -6q7 -7 9 -16l225 -1103l215 1102q1 10 9 17q8 6 17 6h318q10 0 18 -6q7 -7 9 -16l227 -1125l223 1125q1 9 9 16q8 6 18 6h252
q8 0 13 -7t4 -15l-334 -1390q-2 -10 -10 -16t-17 -6h-332zM623 1557q-10 0 -16 7q-7 6 -7 15v232q0 9 7 16q6 6 16 6h204q9 0 16 -6q7 -7 7 -16v-232q0 -9 -7 -15q-7 -7 -16 -7h-204zM1053 1557q-9 0 -16 7q-7 6 -7 15v232q0 9 7 16q7 6 16 6h204q10 0 17 -6q6 -7 6 -16
v-232q0 -9 -6 -15q-7 -7 -17 -7h-204z" />
    <glyph glyph-name="wdieresis" unicode="&#x1e85;" horiz-adv-x="1491" 
d="M927 0q-10 0 -18 7q-8 6 -9 15l-166 777l-143 -777q-1 -9 -9 -15q-8 -7 -18 -7h-315q-10 0 -18 7q-8 6 -10 15l-225 1011q-2 8 3 15q6 7 14 7h267q9 0 17 -6q7 -7 8 -17l118 -780l145 781q2 9 10 16q7 6 17 6h326q9 0 17 -6q8 -7 9 -16l139 -763l124 762q1 10 9 17
q7 6 17 6h240q8 0 14 -7q5 -7 3 -15l-221 -1011q-2 -9 -10 -15q-8 -7 -18 -7h-317zM428 1178q-10 0 -16 7q-7 6 -7 15v232q0 9 7 16q6 6 16 6h204q9 0 16 -6q7 -7 7 -16v-232q0 -9 -7 -15q-7 -7 -16 -7h-204zM858 1178q-9 0 -16 7q-7 6 -7 15v232q0 9 7 16q7 6 16 6h204
q10 0 17 -6q6 -7 6 -16v-232q0 -9 -6 -15q-7 -7 -17 -7h-204z" />
    <glyph glyph-name="Ygrave" unicode="&#x1ef2;" horiz-adv-x="1241" 
d="M779 23q0 -10 -6 -16q-7 -7 -16 -7h-275q-9 0 -15 7q-7 6 -7 16l8 454l-481 937q-4 7 0 14q4 6 12 6h309q10 0 19 -6t13 -15l292 -657l294 657q4 9 13 15q8 6 18 6h283q8 0 12 -6q4 -7 0 -14l-481 -933zM818 1541q-4 -9 -12 -13q-9 -5 -18 -2l-497 131q-9 2 -13 11
q-5 8 -2 16l61 185q3 8 12 12q8 4 16 0l483 -209q8 -4 12 -13t0 -17z" />
    <glyph glyph-name="ygrave" unicode="&#x1ef3;" horiz-adv-x="1042" 
d="M591 -327q-3 -9 -11 -15q-9 -6 -19 -6h-248q-8 0 -13 6q-5 7 -2 15l110 317l-422 1044q-3 7 1 14q5 7 13 7h301q10 0 19 -6q8 -6 11 -16l228 -654l188 654q3 9 11 16q8 6 18 6h266q9 0 14 -7q4 -7 2 -15zM705 1162q-4 -9 -12 -13q-9 -5 -18 -2l-497 131q-9 2 -13 11
q-5 8 -2 16l61 185q3 8 12 12q8 4 16 0l483 -209q8 -4 12 -13t0 -17z" />
    <glyph glyph-name="uni2000" unicode="&#x2000;" horiz-adv-x="1024" 
 />
    <glyph glyph-name="uni2001" unicode="&#x2001;" horiz-adv-x="2048" 
 />
    <glyph glyph-name="uni2002" unicode="&#x2002;" horiz-adv-x="1024" 
 />
    <glyph glyph-name="uni2003" unicode="&#x2003;" horiz-adv-x="2048" 
 />
    <glyph glyph-name="uni2004" unicode="&#x2004;" horiz-adv-x="682" 
 />
    <glyph glyph-name="uni2005" unicode="&#x2005;" horiz-adv-x="512" 
 />
    <glyph glyph-name="uni2009" unicode="&#x2009;" horiz-adv-x="340" 
 />
    <glyph glyph-name="uni200A" unicode="&#x200a;" horiz-adv-x="205" 
 />
    <glyph glyph-name="uni200B" unicode="&#x200b;" 
 />
    <glyph glyph-name="endash" unicode="&#x2013;" horiz-adv-x="842" 
d="M43 504q-9 0 -16 7q-7 6 -7 15v168q0 9 7 16t16 7h754q9 0 16 -7q6 -7 6 -16v-168q0 -9 -6 -15q-7 -7 -16 -7h-754z" />
    <glyph glyph-name="emdash" unicode="&#x2014;" horiz-adv-x="1251" 
d="M43 504q-9 0 -16 7q-7 6 -7 15v168q0 9 7 16t16 7h1163q9 0 16 -7t7 -16v-168q0 -9 -7 -15q-7 -7 -16 -7h-1163z" />
    <glyph glyph-name="horizontalbar" unicode="&#x2015;" horiz-adv-x="1251" 
d="M43 504q-9 0 -16 7q-7 6 -7 15v168q0 9 7 16t16 7h1163q9 0 16 -7t7 -16v-168q0 -9 -7 -15q-7 -7 -16 -7h-1163z" />
    <glyph glyph-name="quoteleft" unicode="&#x2018;" horiz-adv-x="436" 
d="M385 1434q8 0 14 -7q5 -7 3 -15l-62 -226v-262q0 -9 -6 -16q-7 -7 -17 -7h-249q-10 0 -16 7q-7 7 -7 16v237q0 10 4 22q3 11 10 19l159 214q6 7 16 13q10 5 20 5h131z" />
    <glyph glyph-name="quoteright" unicode="&#x2019;" horiz-adv-x="436" 
d="M51 901q-8 0 -13 7t-3 15l61 226v262q0 9 7 16t16 7h250q9 0 16 -7q6 -7 6 -16v-237q0 -10 -3 -21q-4 -12 -10 -20l-160 -214q-6 -8 -16 -13t-20 -5h-131z" />
    <glyph glyph-name="quotesinglbase" unicode="&#x201a;" horiz-adv-x="418" 
d="M33 -240q-8 0 -13 7q-6 7 -4 15l62 226v262q0 9 7 16q6 7 15 7h250q9 0 16 -7t7 -16v-237q0 -10 -4 -21q-4 -12 -10 -20l-159 -214q-6 -7 -16 -13q-10 -5 -20 -5h-131z" />
    <glyph glyph-name="quotedblleft" unicode="&#x201c;" horiz-adv-x="815" 
d="M379 1434q8 0 13 -7t3 -15l-61 -226v-262q0 -9 -7 -16t-16 -7h-250q-9 0 -15 7q-7 7 -7 16v237q0 10 4 22q3 11 9 19l160 214q6 7 16 13q10 5 20 5h131zM758 1434q8 0 13 -7t3 -15l-61 -226v-262q0 -9 -7 -16t-16 -7h-250q-9 0 -15 7q-7 7 -7 16v237q0 10 4 22q3 11 9 19
l160 214q6 7 16 13q10 5 20 5h131z" />
    <glyph glyph-name="quotedblright" unicode="&#x201d;" horiz-adv-x="815" 
d="M438 901q-8 0 -13 7t-3 15l61 226v262q0 9 7 16t16 7h250q9 0 16 -7q6 -7 6 -16v-237q0 -10 -3 -21q-4 -12 -10 -20l-160 -214q-6 -8 -16 -13t-20 -5h-131zM59 901q-8 0 -13 7t-3 15l61 226v262q0 9 7 16t16 7h250q9 0 16 -7q6 -7 6 -16v-237q0 -10 -3 -21
q-4 -12 -10 -20l-160 -214q-6 -8 -16 -13t-20 -5h-131z" />
    <glyph glyph-name="quotedblbase" unicode="&#x201e;" horiz-adv-x="780" 
d="M564 -222q-6 -7 -16 -13q-10 -5 -20 -5h-131q-8 0 -13 7t-3 15l61 226v262q0 9 7 16t16 7h250q9 0 16 -7q6 -7 6 -16v-237q0 -10 -3 -21q-4 -12 -10 -20zM186 -222q-7 -7 -16 -13q-10 -5 -20 -5h-132q-8 0 -13 7t-3 15l61 226v262q0 9 7 16t16 7h250q9 0 16 -7
q6 -7 6 -16v-237q0 -10 -3 -21q-4 -12 -10 -20z" />
    <glyph glyph-name="dagger" unicode="&#x2020;" horiz-adv-x="1073" 
d="M686 717l6 -694q0 -10 -6 -16q-7 -7 -16 -7h-267q-9 0 -15 7q-7 6 -7 16l6 694v94l-340 -4q-9 0 -15 7q-7 6 -7 15v267q0 9 7 16q6 6 15 6l336 -4l-2 297q0 9 7 16q6 7 15 7h267q9 0 16 -7q6 -7 6 -16l-2 -297l336 4q9 0 16 -6q7 -7 7 -16v-267q0 -9 -7 -15q-7 -7 -16 -7
l-340 4v-94z" />
    <glyph glyph-name="daggerdbl" unicode="&#x2021;" horiz-adv-x="1073" 
d="M692 23q0 -10 -6 -16q-7 -7 -16 -7h-267q-9 0 -15 7q-7 6 -7 16l2 296l-336 -3q-9 0 -15 7q-7 6 -7 15v266q0 9 7 16q6 7 15 6l340 -3v188l-340 -4q-9 0 -15 7q-7 6 -7 15v267q0 9 7 16q6 6 15 6l336 -4l-2 297q0 9 7 16q6 7 15 7h267q9 0 16 -7q6 -7 6 -16l-2 -297
l336 4q9 0 16 -6q7 -7 7 -16v-267q0 -9 -7 -15q-7 -7 -16 -7l-340 4v-188l340 3q9 1 16 -6t7 -16v-266q0 -9 -7 -15q-7 -7 -16 -7l-336 3z" />
    <glyph glyph-name="bullet" unicode="&#x2022;" horiz-adv-x="586" 
d="M63 348q-9 0 -15 7q-7 7 -7 16v483q0 9 7 16q6 7 15 7h459q9 0 16 -7t7 -16v-483q0 -9 -7 -16t-16 -7h-459z" />
    <glyph glyph-name="ellipsis" unicode="&#x2026;" horiz-adv-x="1251" 
d="M72 0q-9 0 -16 7q-7 6 -7 16v247q0 9 7 16t16 7h274q9 0 16 -7t7 -16v-247q0 -10 -7 -16q-7 -7 -16 -7h-274zM490 0q-9 0 -16 7q-7 6 -7 16v247q0 9 7 16t16 7h274q9 0 16 -7t7 -16v-247q0 -10 -7 -16q-7 -7 -16 -7h-274zM906 0q-9 0 -16 7q-7 6 -7 16v247q0 9 7 16t16 7
h274q9 0 16 -7t7 -16v-247q0 -10 -7 -16q-7 -7 -16 -7h-274z" />
    <glyph glyph-name="perthousand" unicode="&#x2030;" horiz-adv-x="2591" 
d="M823 1079q0 -90 -27 -158q-28 -68 -78 -113t-121 -68q-72 -23 -159 -23t-158 23q-72 22 -122 67q-51 45 -79 113t-28 159q0 90 28 161q27 70 78 118q50 47 122 72q71 24 159 24q87 0 159 -24q71 -25 121 -72q50 -48 78 -118q27 -71 27 -161zM246 0q-7 0 -10 6t1 12
l1042 1398q6 7 16 13q10 5 20 5h211q7 0 10 -6q3 -7 -1 -12l-1042 -1398q-6 -8 -16 -13t-20 -5h-211zM311 1079q0 -95 32 -139q32 -45 95 -45t94 43t31 141q0 104 -33 151q-34 46 -94 46t-92 -46q-33 -47 -33 -151zM2540 354q0 -90 -27 -160q-28 -70 -78 -117
q-51 -48 -123 -72q-72 -25 -160 -25q-87 0 -158 25q-72 24 -122 72q-50 47 -77 117q-28 70 -28 160t28 159q27 68 77 113t122 68q71 23 158 23t159 -22q72 -23 123 -68q50 -45 78 -113q28 -69 28 -160zM1720 354q0 -90 -27 -160q-28 -70 -78 -117q-50 -48 -122 -72
q-72 -25 -160 -25q-87 0 -158 25q-72 24 -122 72q-50 47 -77 117q-28 70 -28 160t28 159q27 68 77 113t122 68q71 23 158 23t159 -22q72 -23 123 -68q50 -45 78 -113q27 -69 27 -160zM2028 354q0 -104 34 -150q33 -46 92 -46q60 0 93 46q32 46 32 150q0 95 -32 140t-95 45
t-93 -43q-31 -44 -31 -142zM1208 354q0 -104 34 -150q33 -46 93 -46t93 46q32 46 32 150q0 95 -32 140t-95 45t-94 -43q-31 -44 -31 -142z" />
    <glyph glyph-name="minute" unicode="&#x2032;" horiz-adv-x="451" 
d="M56 901q-8 0 -14 7t-5 15l62 488q1 10 8 17q7 6 17 6h254q8 0 13 -7t2 -15l-172 -490q-3 -9 -11 -15q-9 -6 -19 -6h-135z" />
    <glyph glyph-name="second" unicode="&#x2033;" horiz-adv-x="819" 
d="M439 901q-8 0 -14 7t-5 15l61 488q1 10 9 17q7 6 17 6h254q8 0 13 -7t2 -15l-172 -490q-3 -9 -11 -15q-9 -6 -19 -6h-135zM71 901q-9 0 -15 7t-5 15l62 488q1 10 9 17q7 6 16 6h254q8 0 13 -7t2 -15l-171 -490q-4 -9 -12 -15t-18 -6h-135z" />
    <glyph glyph-name="guilsinglleft" unicode="&#x2039;" horiz-adv-x="643" 
d="M381 137q-10 0 -20 5t-17 13l-299 358q-6 7 -6 18q0 10 6 17l299 370q7 8 17 13t20 5h209q7 0 10 -6q2 -6 -2 -12l-313 -388l313 -375q4 -6 2 -12q-3 -6 -10 -6h-209z" />
    <glyph glyph-name="guilsinglright" unicode="&#x203a;" horiz-adv-x="643" 
d="M53 137q-7 0 -9 6q-3 6 1 12l313 375l-313 388q-4 6 -1 12q2 6 9 6h209q10 0 20 -5t17 -13l299 -370q6 -7 6 -17q0 -11 -6 -18l-299 -358q-7 -8 -17 -13t-20 -5h-209z" />
    <glyph glyph-name="fraction" unicode="&#x2044;" horiz-adv-x="834" 
d="M-183 0q-7 0 -11 6q-3 6 1 12l1002 1397q6 8 16 14q10 5 20 5h170q7 0 10 -6q3 -7 -1 -13l-1002 -1397q-6 -8 -15 -13q-10 -5 -20 -5h-170z" />
    <glyph glyph-name="zero.sups" unicode="&#x2070;" horiz-adv-x="729" 
d="M692 1036q0 -99 -23 -176q-24 -77 -66 -128q-43 -52 -104 -78q-62 -27 -137 -27q-74 0 -134 27q-61 26 -103 78q-43 51 -66 128q-24 77 -24 176q0 104 24 183q23 78 66 130q42 51 103 77q60 26 134 26t136 -25q61 -26 104 -77t67 -129q23 -79 23 -185zM246 1036
q0 -137 31 -195q30 -59 88 -59q57 0 87 58q29 57 29 196q0 140 -29 200q-30 60 -90 60q-59 0 -87 -58q-29 -59 -29 -202z" />
    <glyph glyph-name="four.sups" unicode="&#x2074;" horiz-adv-x="709" 
d="M678 829q0 -9 -7 -15q-7 -7 -16 -7h-63v-141q0 -9 -7 -16t-16 -7h-159q-9 0 -16 7t-7 16v141h-324q-9 0 -15 7q-7 6 -7 15v129q0 10 4 22q3 12 8 20l259 414q5 9 15 15q9 5 19 5h223q9 0 16 -7t7 -16v-455h63q9 0 16 -6q7 -7 7 -16v-105zM387 1112l6 170l-198 -326h192
v156z" />
    <glyph glyph-name="five.sups" unicode="&#x2075;" horiz-adv-x="694" 
d="M663 930q0 -71 -24 -127q-24 -57 -66 -96q-43 -40 -103 -61q-61 -21 -133 -21q-127 0 -201 58q-75 57 -88 146q-1 9 5 16t15 7h156q10 0 18 -6q7 -6 8 -17q5 -34 29 -49q24 -16 56 -16q54 0 82 37q28 36 28 112q0 72 -23 111q-24 39 -87 39q-32 0 -57 -14t-35 -40
q-5 -11 -12 -16q-8 -6 -21 -6h-127q-9 0 -15 7q-7 7 -6 16l30 401q0 9 7 16t17 7h477q9 0 16 -7q6 -7 6 -16v-106q0 -10 -6 -16q-7 -7 -16 -7h-318l-14 -119q31 20 67 30q36 9 74 9q54 0 102 -20q47 -21 83 -57q35 -36 56 -86q20 -50 20 -109z" />
    <glyph glyph-name="six.sups" unicode="&#x2076;" horiz-adv-x="711" 
d="M670 918q0 -58 -22 -111t-62 -93t-96 -63q-57 -24 -125 -24q-150 0 -235 109q-85 108 -85 302q0 100 23 178q22 77 63 129q40 52 99 80q58 27 130 27q116 0 189 -51t89 -142q1 -8 -4 -15q-6 -7 -15 -7h-152q-11 0 -18 6q-8 6 -12 16q-8 25 -25 40q-18 14 -47 14
q-54 0 -81 -49t-28 -138q26 22 60 36t92 14q117 0 190 -70q72 -71 72 -188zM260 903q0 -66 27 -98q27 -33 71 -33q45 0 72 32q27 31 27 91q0 64 -25 103q-26 38 -74 38q-47 0 -72 -34q-26 -35 -26 -99z" />
    <glyph glyph-name="seven.sups" unicode="&#x2077;" horiz-adv-x="596" 
d="M559 1258q-63 -128 -119 -277q-57 -149 -81 -316q-1 -9 -8 -15q-8 -7 -17 -7h-166q-9 0 -14 7q-6 7 -5 15q13 82 32 166q18 84 42 163t55 153q30 73 66 135h-295q-9 0 -15 7q-7 6 -7 16v106q0 9 7 16q6 7 15 7h498q9 0 16 -7q6 -7 6 -16v-110q0 -10 -3 -22t-7 -21z" />
    <glyph glyph-name="eight.sups" unicode="&#x2078;" horiz-adv-x="707" 
d="M668 874q0 -60 -24 -105q-25 -45 -68 -74q-43 -30 -100 -45q-58 -15 -124 -15q-65 0 -122 15q-58 15 -100 45q-43 29 -68 74t-25 105q0 63 36 115q35 51 107 74q-61 26 -93 74q-33 48 -32 108q3 101 78 153q74 52 219 52q146 0 221 -52q74 -52 78 -153q0 -61 -33 -108
q-33 -48 -94 -74q74 -23 109 -74q35 -52 35 -115zM252 1214q1 -47 29 -74q27 -28 71 -28q45 0 72 27q27 26 27 75q0 46 -25 76q-26 29 -74 29q-47 0 -73 -29q-27 -30 -27 -76zM236 881q0 -51 34 -84q33 -33 82 -33t83 33t34 84q0 46 -25 75q-26 28 -69 32q-7 1 -23 1t-22 -1
q-43 -4 -68 -32q-26 -29 -26 -75z" />
    <glyph glyph-name="nine.sups" unicode="&#x2079;" horiz-adv-x="711" 
d="M258 1184q0 -64 25 -103q24 -39 71 -39q48 0 75 35q26 35 26 99q0 66 -28 99q-28 32 -73 32q-44 0 -70 -31q-26 -32 -26 -92zM670 1040q0 -99 -22 -176q-23 -78 -64 -130t-99 -79q-59 -28 -131 -28q-115 0 -188 51t-89 141q-1 9 5 16q5 7 14 7h152q11 0 19 -6
q7 -6 11 -16q7 -25 25 -39q17 -15 47 -15q54 0 81 49t28 137q-26 -21 -60 -35t-92 -14q-117 0 -189 73q-73 73 -73 193q0 57 23 109q22 51 62 90q40 38 97 61q56 23 123 23q150 0 235 -109t85 -303z" />
    <glyph glyph-name="zero.sinf" unicode="&#x2080;" horiz-adv-x="729" 
d="M692 32q0 -99 -23 -176q-24 -77 -66 -129q-43 -51 -104 -78q-62 -26 -137 -26q-74 0 -134 26q-61 27 -103 78q-43 52 -66 129q-24 77 -24 176q0 104 24 183q23 78 66 130q42 51 103 77q60 26 134 26t136 -25q61 -26 104 -77t67 -129q23 -79 23 -185zM246 32
q0 -137 31 -196q30 -58 88 -58q57 0 87 57q29 58 29 197q0 140 -29 200q-30 60 -90 60q-59 0 -87 -58q-29 -59 -29 -202z" />
    <glyph glyph-name="one.sinf" unicode="&#x2081;" horiz-adv-x="512" 
d="M238 -369q-9 0 -16 7t-6 16l9 389l-6 151q-27 -27 -65 -47q-39 -21 -83 -36q-8 -2 -15 3q-7 4 -7 13v109q0 10 6 19q5 8 15 12q51 21 89 54q38 32 61 78q5 10 14 16q9 5 19 5h159q9 0 16 -7q6 -7 5 -16l-13 -426l13 -317q1 -9 -5 -16q-7 -7 -16 -7h-174z" />
    <glyph glyph-name="two.sinf" unicode="&#x2082;" horiz-adv-x="662" 
d="M63 -369q-9 0 -15 7q-7 7 -7 16v92q0 119 60 183t132 103q71 38 131 70q60 31 60 86q3 51 -22 77t-68 26q-40 -1 -66 -31q-27 -30 -32 -84q-1 -10 -7 -16q-7 -7 -17 -7h-141q-8 0 -15 7t-7 16q2 121 74 190t211 70q137 0 206 -64q68 -65 72 -178q0 -111 -59 -172
q-60 -61 -131 -99q-72 -37 -131 -65q-60 -28 -60 -74l361 -1q9 0 16 -7q6 -7 6 -16v-106q0 -9 -6 -16q-7 -7 -16 -7h-529z" />
    <glyph glyph-name="three.sinf" unicode="&#x2083;" horiz-adv-x="657" 
d="M630 -123q0 -63 -26 -111t-68 -80q-43 -32 -98 -49q-56 -16 -115 -16q-130 0 -201 60q-71 61 -84 176q-1 8 6 15q6 7 14 7h151q10 0 17 -7q6 -6 7 -16q4 -48 29 -75q24 -26 67 -25q35 0 63 29t29 84q3 64 -22 90q-26 26 -87 26h-47q-9 0 -15 7q-7 7 -7 16v82q0 9 7 16
q6 6 15 6h47q51 0 75 28q24 27 24 67q0 37 -23 64q-23 26 -55 26q-38 0 -59 -21q-22 -21 -28 -61q-1 -10 -8 -16q-7 -7 -17 -7h-151q-8 0 -14 7q-7 7 -6 16q13 104 88 161q74 56 205 56q121 0 193 -57t73 -146q0 -72 -36 -111q-37 -40 -91 -59q70 -19 109 -66
q39 -46 39 -116z" />
    <glyph glyph-name="four.sinf" unicode="&#x2084;" horiz-adv-x="709" 
d="M678 -185q0 -9 -7 -16q-7 -6 -16 -6h-63v-141q0 -9 -7 -16t-16 -7h-159q-9 0 -16 7t-7 16v141h-324q-9 0 -15 6q-7 7 -7 16v129q0 10 4 22q3 12 8 20l259 414q5 9 15 15q9 5 19 5h223q9 0 16 -7t7 -16v-455h63q9 0 16 -7q7 -6 7 -15v-105zM387 98l6 170l-198 -326h192
v156z" />
    <glyph glyph-name="five.sinf" unicode="&#x2085;" horiz-adv-x="694" 
d="M663 -84q0 -71 -24 -128q-24 -56 -66 -96q-43 -39 -103 -60q-61 -21 -133 -21q-127 0 -201 57q-75 58 -88 147q-1 9 5 16t15 7h156q10 0 18 -6q7 -6 8 -17q5 -34 29 -50q24 -15 56 -15q54 0 82 36q28 37 28 113q0 72 -23 111q-24 39 -87 39q-32 0 -57 -14t-35 -40
q-5 -11 -12 -17q-8 -5 -21 -5h-127q-9 0 -15 7q-7 7 -6 16l30 401q0 9 7 16t17 7h477q9 0 16 -7q6 -7 6 -16v-106q0 -10 -6 -16q-7 -7 -16 -7h-318l-14 -119q31 20 67 30q36 9 74 9q54 0 102 -20q47 -21 83 -57q35 -36 56 -86q20 -50 20 -109z" />
    <glyph glyph-name="six.sinf" unicode="&#x2086;" horiz-adv-x="711" 
d="M670 -96q0 -58 -22 -111t-62 -93t-96 -64q-57 -23 -125 -23q-150 0 -235 108q-85 109 -85 303q0 100 23 178q22 77 63 129q40 52 99 80q58 27 130 27q116 0 189 -51t89 -142q1 -8 -4 -15q-6 -7 -15 -7h-152q-11 0 -18 6q-8 6 -12 16q-8 25 -25 40q-18 14 -47 14
q-54 0 -81 -49t-28 -138q26 22 60 36t92 14q117 0 190 -70q72 -71 72 -188zM260 -111q0 -66 27 -99q27 -32 71 -32q45 0 72 31q27 32 27 92q0 64 -25 102q-26 39 -74 39q-47 0 -72 -35q-26 -34 -26 -98z" />
    <glyph glyph-name="seven.sinf" unicode="&#x2087;" horiz-adv-x="594" 
d="M559 244q-63 -128 -119 -277q-57 -149 -81 -316q-1 -9 -8 -16q-8 -6 -17 -6h-166q-9 0 -14 7q-6 7 -5 15q13 82 32 166q18 84 42 163t55 153q30 73 66 135h-295q-9 0 -15 7q-7 6 -7 16v106q0 9 7 16q6 7 15 7h498q9 0 16 -7q6 -7 6 -16v-110q0 -10 -3 -22t-7 -21z" />
    <glyph glyph-name="eight.sinf" unicode="&#x2088;" horiz-adv-x="707" 
d="M668 -140q0 -60 -24 -105q-25 -45 -68 -75q-43 -29 -100 -44q-58 -15 -124 -15q-65 0 -122 15q-58 15 -100 44q-43 30 -68 75t-25 105q0 63 36 114q35 52 107 75q-61 26 -93 74q-33 48 -32 108q3 101 78 153q74 52 219 52q146 0 221 -52q74 -52 78 -153q0 -61 -33 -108
q-33 -48 -94 -74q74 -23 109 -75q35 -51 35 -114zM252 200q1 -47 29 -74q27 -28 71 -28q45 0 72 27q27 26 27 75q0 46 -25 76q-26 29 -74 29q-47 0 -73 -29q-27 -30 -27 -76zM236 -133q0 -51 34 -84q33 -33 82 -33t83 33t34 84q0 46 -25 74q-26 29 -69 33q-7 1 -23 1t-22 -1
q-43 -4 -68 -33q-26 -28 -26 -74z" />
    <glyph glyph-name="nine.sinf" unicode="&#x2089;" horiz-adv-x="711" 
d="M258 170q0 -64 25 -103q24 -39 71 -39q48 0 75 35q26 35 26 99q0 66 -28 99q-28 32 -73 32q-44 0 -70 -31q-26 -32 -26 -92zM670 26q0 -99 -22 -177q-23 -77 -64 -129t-99 -80q-59 -27 -131 -27q-115 0 -188 51t-89 141q-1 9 5 16q5 7 14 7h152q11 0 19 -6q7 -6 11 -16
q7 -25 25 -40q17 -14 47 -14q54 0 81 49t28 137q-26 -21 -60 -35t-92 -14q-117 0 -189 73q-73 73 -73 193q0 57 23 109q22 51 62 90q40 38 97 61q56 23 123 23q150 0 235 -109t85 -303z" />
    <glyph glyph-name="Euro" unicode="&#x20ac;" horiz-adv-x="1378" 
d="M1344 449q8 0 14 -7q5 -7 3 -16q-53 -246 -193 -351q-140 -106 -373 -106q-119 0 -217 34q-98 33 -173 94t-127 148q-53 87 -81 193h-140q-9 0 -15 7q-7 7 -7 16v162q0 9 7 16q6 6 15 6h109q-1 16 -1 33q-1 16 -1 33q0 16 1 33q0 17 1 32h-109q-9 0 -15 7q-7 7 -7 16v162
q0 9 7 16q6 6 15 6h138q28 112 81 202q53 89 128 151q75 61 173 95q98 33 216 33q107 0 198 -21q91 -22 162 -71q70 -50 120 -131q50 -82 78 -201q1 -8 -4 -15t-14 -7h-259q-10 0 -18 6t-11 16q-25 87 -81 136q-57 49 -176 49q-108 0 -175 -63q-68 -64 -99 -179h317
q10 0 17 -6q6 -7 6 -16v-162q0 -9 -6 -16q-7 -7 -17 -7h-344q-1 -15 -1 -31q-1 -16 -1 -32q0 -17 1 -34q0 -18 1 -34h344q10 0 17 -6q6 -7 6 -16v-162q0 -9 -6 -16q-7 -7 -17 -7h-315q32 -110 99 -169q66 -60 171 -60q63 0 108 15q45 14 76 42q30 27 49 68q19 40 31 92
q2 10 10 17q8 6 18 6h266z" />
    <glyph glyph-name="copyrightsound" unicode="&#x2117;" horiz-adv-x="1522" 
d="M1485 713q0 -164 -52 -301q-52 -138 -146 -235q-95 -98 -229 -153q-135 -55 -298 -55t-297 55q-135 55 -229 153q-94 97 -145 235q-52 137 -52 301q0 170 51 310q51 139 145 237q94 97 228 151q134 53 299 53q163 0 297 -52q134 -53 229 -150t147 -236q52 -140 52 -313z
M174 713q0 -144 39 -261t114 -198q74 -81 184 -124q110 -44 251 -44t251 44q109 43 184 124q74 80 113 197q38 117 38 262q0 144 -38 262q-39 118 -113 201q-74 82 -184 127q-111 45 -253 45q-143 0 -253 -44t-183 -125q-74 -82 -112 -200q-38 -119 -38 -266zM1159 881
q0 -150 -91 -233q-92 -83 -249 -83h-137l2 -291q0 -9 -6 -15q-7 -7 -16 -7h-156q-9 0 -16 7q-7 6 -6 15l3 441l-3 442q-1 9 6 16t16 7h313q160 0 250 -76q90 -77 90 -223zM967 877q0 75 -37 111t-103 36h-143l-2 -303h149q55 0 96 37q40 36 40 119z" />
    <glyph glyph-name="trademark" unicode="&#x2122;" horiz-adv-x="1288" 
d="M211 827q-9 0 -15 7q-7 7 -7 16l4 280l-3 185h-143q-9 0 -15 7q-7 6 -7 15v74q0 9 7 16q6 7 15 7h440q10 0 17 -7q6 -7 6 -16v-74q0 -9 -6 -15q-7 -7 -17 -7h-143l-2 -185l4 -280q0 -9 -6 -16q-7 -7 -16 -7h-113zM686 1106v-256q0 -9 -6 -16q-7 -7 -16 -7h-95q-9 0 -15 7
q-7 7 -7 16l2 280l-2 281q0 9 7 16q6 7 15 7h150q10 0 19 -6q8 -6 11 -16l146 -396l138 396q3 10 12 16q8 6 18 6h139q9 0 16 -7t7 -16l-2 -281l2 -280q0 -9 -7 -16t-16 -7h-106q-9 0 -16 7t-7 16v256l2 86l-119 -343q-4 -10 -12 -16t-18 -6h-80q-10 0 -18 6q-9 6 -13 16
l-135 365z" />
    <glyph glyph-name="uni2126" unicode="&#x2126;" horiz-adv-x="1552" 
d="M702 23q0 -10 -6 -16q-7 -7 -16 -7h-561q-9 0 -16 7q-7 6 -7 16v186q0 9 7 16q7 6 16 6h184q-116 98 -184 237q-68 138 -68 306q0 159 52 288q52 128 147 217t229 137t297 48t297 -48t229 -137t147 -217q52 -129 52 -288q0 -168 -68 -306q-68 -139 -184 -237h185
q9 0 16 -6q6 -7 6 -16v-186q0 -10 -6 -16q-7 -7 -16 -7h-562q-9 0 -15 7q-7 6 -7 16v185q0 10 6 20q5 9 14 13q67 32 124 81q57 48 99 111q41 63 64 144q23 80 23 177q0 107 -26 195q-27 87 -78 149q-51 61 -126 94q-76 33 -174 33t-173 -33q-76 -33 -126 -94
q-51 -62 -77 -149q-27 -88 -27 -195q0 -97 23 -177q23 -81 64 -144t98 -111q57 -49 124 -81q9 -4 15 -13q5 -10 5 -20v-185z" />
    <glyph glyph-name="onethird" unicode="&#x2153;" horiz-adv-x="1593" 
d="M238 645q-9 0 -16 7t-6 16l9 389l-6 151q-27 -27 -65 -47q-39 -21 -83 -36q-8 -2 -15 3q-7 4 -7 13v109q0 10 6 19q5 8 15 12q51 21 89 54q38 32 61 78q5 10 14 16q9 5 19 5h159q9 0 16 -7q6 -7 5 -16l-13 -426l13 -317q1 -9 -5 -16q-7 -7 -16 -7h-174zM165 0q-7 0 -10 6
q-4 6 0 12l1002 1397q6 8 16 14q10 5 20 5h170q7 0 10 -6q3 -7 -1 -13l-1002 -1397q-6 -8 -15 -13q-10 -5 -20 -5h-170zM1566 246q0 -63 -26 -111t-68 -80q-43 -32 -98 -48q-56 -17 -115 -17q-130 0 -201 61q-71 60 -84 175q-1 8 6 15q6 7 14 7h151q10 0 17 -6q6 -7 7 -17
q4 -48 29 -74q24 -27 67 -26q35 0 63 29t29 84q3 64 -22 90q-26 26 -87 26h-47q-9 0 -15 7q-7 7 -7 16v82q0 9 7 16q6 6 15 6h47q51 0 75 28q24 27 24 67q0 37 -23 64q-23 26 -55 26q-38 0 -59 -21q-22 -21 -28 -61q-1 -10 -8 -16q-7 -7 -17 -7h-151q-8 0 -14 7q-7 7 -6 16
q13 104 88 161q74 56 205 56q121 0 193 -57t73 -146q0 -72 -36 -111q-37 -40 -91 -59q70 -19 109 -65q39 -47 39 -117z" />
    </font>
</defs>
</svg>
